G04 #@! TF.GenerationSoftware,KiCad,Pcbnew,9.0.5*
G04 #@! TF.CreationDate,2026-01-02T14:21:27+01:00*
G04 #@! TF.ProjectId,peak-ignitor-box,7065616b-2d69-4676-9e69-746f722d626f,rev?*
G04 #@! TF.SameCoordinates,Original*
G04 #@! TF.FileFunction,Legend,Bot*
G04 #@! TF.FilePolarity,Positive*
%FSLAX46Y46*%
G04 Gerber Fmt 4.6, Leading zero omitted, Abs format (unit mm)*
G04 Created by KiCad (PCBNEW 9.0.5) date 2026-01-02 14:21:27*
%MOMM*%
%LPD*%
G01*
G04 APERTURE LIST*
G04 Aperture macros list*
%AMRoundRect*
0 Rectangle with rounded corners*
0 $1 Rounding radius*
0 $2 $3 $4 $5 $6 $7 $8 $9 X,Y pos of 4 corners*
0 Add a 4 corners polygon primitive as box body*
4,1,4,$2,$3,$4,$5,$6,$7,$8,$9,$2,$3,0*
0 Add four circle primitives for the rounded corners*
1,1,$1+$1,$2,$3*
1,1,$1+$1,$4,$5*
1,1,$1+$1,$6,$7*
1,1,$1+$1,$8,$9*
0 Add four rect primitives between the rounded corners*
20,1,$1+$1,$2,$3,$4,$5,0*
20,1,$1+$1,$4,$5,$6,$7,0*
20,1,$1+$1,$6,$7,$8,$9,0*
20,1,$1+$1,$8,$9,$2,$3,0*%
%AMOutline5P*
0 Free polygon, 5 corners , with rotation*
0 The origin of the aperture is its center*
0 number of corners: always 5*
0 $1 to $10 corner X, Y*
0 $11 Rotation angle, in degrees counterclockwise*
0 create outline with 5 corners*
4,1,5,$1,$2,$3,$4,$5,$6,$7,$8,$9,$10,$1,$2,$11*%
%AMOutline6P*
0 Free polygon, 6 corners , with rotation*
0 The origin of the aperture is its center*
0 number of corners: always 6*
0 $1 to $12 corner X, Y*
0 $13 Rotation angle, in degrees counterclockwise*
0 create outline with 6 corners*
4,1,6,$1,$2,$3,$4,$5,$6,$7,$8,$9,$10,$11,$12,$1,$2,$13*%
%AMOutline7P*
0 Free polygon, 7 corners , with rotation*
0 The origin of the aperture is its center*
0 number of corners: always 7*
0 $1 to $14 corner X, Y*
0 $15 Rotation angle, in degrees counterclockwise*
0 create outline with 7 corners*
4,1,7,$1,$2,$3,$4,$5,$6,$7,$8,$9,$10,$11,$12,$13,$14,$1,$2,$15*%
%AMOutline8P*
0 Free polygon, 8 corners , with rotation*
0 The origin of the aperture is its center*
0 number of corners: always 8*
0 $1 to $16 corner X, Y*
0 $17 Rotation angle, in degrees counterclockwise*
0 create outline with 8 corners*
4,1,8,$1,$2,$3,$4,$5,$6,$7,$8,$9,$10,$11,$12,$13,$14,$15,$16,$1,$2,$17*%
G04 Aperture macros list end*
%ADD10C,0.150000*%
%ADD11C,0.100000*%
%ADD12C,0.120000*%
%ADD13C,0.250000*%
%ADD14R,1.700000X1.700000*%
%ADD15C,1.700000*%
%ADD16C,2.780000*%
%ADD17C,2.000000*%
%ADD18C,3.400000*%
%ADD19RoundRect,0.062500X-0.062500X0.337500X-0.062500X-0.337500X0.062500X-0.337500X0.062500X0.337500X0*%
%ADD20RoundRect,0.062500X-0.337500X0.062500X-0.337500X-0.062500X0.337500X-0.062500X0.337500X0.062500X0*%
%ADD21R,2.140000X2.140000*%
%ADD22RoundRect,0.243750X-0.456250X0.243750X-0.456250X-0.243750X0.456250X-0.243750X0.456250X0.243750X0*%
%ADD23RoundRect,0.243750X0.243750X0.456250X-0.243750X0.456250X-0.243750X-0.456250X0.243750X-0.456250X0*%
%ADD24RoundRect,0.243750X-0.243750X-0.456250X0.243750X-0.456250X0.243750X0.456250X-0.243750X0.456250X0*%
%ADD25RoundRect,0.218750X0.218750X0.256250X-0.218750X0.256250X-0.218750X-0.256250X0.218750X-0.256250X0*%
%ADD26R,0.800000X0.900000*%
%ADD27RoundRect,0.243750X0.456250X-0.243750X0.456250X0.243750X-0.456250X0.243750X-0.456250X-0.243750X0*%
%ADD28RoundRect,0.250000X-0.625000X0.312500X-0.625000X-0.312500X0.625000X-0.312500X0.625000X0.312500X0*%
%ADD29RoundRect,0.250000X0.375000X0.625000X-0.375000X0.625000X-0.375000X-0.625000X0.375000X-0.625000X0*%
%ADD30RoundRect,0.250000X-0.250000X-0.475000X0.250000X-0.475000X0.250000X0.475000X-0.250000X0.475000X0*%
%ADD31RoundRect,0.250000X0.250000X0.475000X-0.250000X0.475000X-0.250000X-0.475000X0.250000X-0.475000X0*%
%ADD32RoundRect,0.250000X0.450000X-0.262500X0.450000X0.262500X-0.450000X0.262500X-0.450000X-0.262500X0*%
%ADD33RoundRect,0.250000X-0.262500X-0.450000X0.262500X-0.450000X0.262500X0.450000X-0.262500X0.450000X0*%
%ADD34R,1.000000X0.900000*%
%ADD35RoundRect,0.150000X0.150000X-0.587500X0.150000X0.587500X-0.150000X0.587500X-0.150000X-0.587500X0*%
%ADD36RoundRect,0.050000X-0.100000X0.285000X-0.100000X-0.285000X0.100000X-0.285000X0.100000X0.285000X0*%
%ADD37RoundRect,0.250000X-0.475000X0.250000X-0.475000X-0.250000X0.475000X-0.250000X0.475000X0.250000X0*%
%ADD38RoundRect,0.250000X0.475000X-0.250000X0.475000X0.250000X-0.475000X0.250000X-0.475000X-0.250000X0*%
%ADD39RoundRect,0.250000X0.262500X0.450000X-0.262500X0.450000X-0.262500X-0.450000X0.262500X-0.450000X0*%
%ADD40RoundRect,0.250000X-0.650000X0.325000X-0.650000X-0.325000X0.650000X-0.325000X0.650000X0.325000X0*%
%ADD41RoundRect,0.150000X-0.150000X0.587500X-0.150000X-0.587500X0.150000X-0.587500X0.150000X0.587500X0*%
%ADD42R,0.800000X0.400000*%
%ADD43R,0.400000X0.800000*%
%ADD44R,1.200000X1.200000*%
%ADD45Outline5P,-0.600000X0.600000X0.600000X0.600000X0.600000X-0.600000X-0.204000X-0.600000X-0.600000X-0.204000X0.000000*%
%ADD46R,0.800000X0.800000*%
%ADD47RoundRect,0.225000X0.250000X-0.225000X0.250000X0.225000X-0.250000X0.225000X-0.250000X-0.225000X0*%
%ADD48RoundRect,0.150000X0.587500X0.150000X-0.587500X0.150000X-0.587500X-0.150000X0.587500X-0.150000X0*%
%ADD49R,1.500000X1.500000*%
%ADD50RoundRect,0.225000X-0.250000X0.225000X-0.250000X-0.225000X0.250000X-0.225000X0.250000X0.225000X0*%
%ADD51R,0.312473X1.955432*%
%ADD52R,4.700001X2.899999*%
G04 APERTURE END LIST*
D10*
X109191792Y-92369819D02*
X109525125Y-91893628D01*
X109763220Y-92369819D02*
X109763220Y-91369819D01*
X109763220Y-91369819D02*
X109382268Y-91369819D01*
X109382268Y-91369819D02*
X109287030Y-91417438D01*
X109287030Y-91417438D02*
X109239411Y-91465057D01*
X109239411Y-91465057D02*
X109191792Y-91560295D01*
X109191792Y-91560295D02*
X109191792Y-91703152D01*
X109191792Y-91703152D02*
X109239411Y-91798390D01*
X109239411Y-91798390D02*
X109287030Y-91846009D01*
X109287030Y-91846009D02*
X109382268Y-91893628D01*
X109382268Y-91893628D02*
X109763220Y-91893628D01*
X106029887Y-91746009D02*
X105887030Y-91793628D01*
X105887030Y-91793628D02*
X105839411Y-91841247D01*
X105839411Y-91841247D02*
X105791792Y-91936485D01*
X105791792Y-91936485D02*
X105791792Y-92079342D01*
X105791792Y-92079342D02*
X105839411Y-92174580D01*
X105839411Y-92174580D02*
X105887030Y-92222200D01*
X105887030Y-92222200D02*
X105982268Y-92269819D01*
X105982268Y-92269819D02*
X106363220Y-92269819D01*
X106363220Y-92269819D02*
X106363220Y-91269819D01*
X106363220Y-91269819D02*
X106029887Y-91269819D01*
X106029887Y-91269819D02*
X105934649Y-91317438D01*
X105934649Y-91317438D02*
X105887030Y-91365057D01*
X105887030Y-91365057D02*
X105839411Y-91460295D01*
X105839411Y-91460295D02*
X105839411Y-91555533D01*
X105839411Y-91555533D02*
X105887030Y-91650771D01*
X105887030Y-91650771D02*
X105934649Y-91698390D01*
X105934649Y-91698390D02*
X106029887Y-91746009D01*
X106029887Y-91746009D02*
X106363220Y-91746009D01*
D11*
X109833333Y-80318633D02*
X109833333Y-80885300D01*
X109833333Y-80885300D02*
X109800000Y-80951966D01*
X109800000Y-80951966D02*
X109766666Y-80985300D01*
X109766666Y-80985300D02*
X109700000Y-81018633D01*
X109700000Y-81018633D02*
X109566666Y-81018633D01*
X109566666Y-81018633D02*
X109500000Y-80985300D01*
X109500000Y-80985300D02*
X109466666Y-80951966D01*
X109466666Y-80951966D02*
X109433333Y-80885300D01*
X109433333Y-80885300D02*
X109433333Y-80318633D01*
X108800000Y-80551966D02*
X108800000Y-81018633D01*
X108966667Y-80285300D02*
X109133333Y-80785300D01*
X109133333Y-80785300D02*
X108700000Y-80785300D01*
X120618633Y-76683333D02*
X120285300Y-76450000D01*
X120618633Y-76283333D02*
X119918633Y-76283333D01*
X119918633Y-76283333D02*
X119918633Y-76550000D01*
X119918633Y-76550000D02*
X119951966Y-76616667D01*
X119951966Y-76616667D02*
X119985300Y-76650000D01*
X119985300Y-76650000D02*
X120051966Y-76683333D01*
X120051966Y-76683333D02*
X120151966Y-76683333D01*
X120151966Y-76683333D02*
X120218633Y-76650000D01*
X120218633Y-76650000D02*
X120251966Y-76616667D01*
X120251966Y-76616667D02*
X120285300Y-76550000D01*
X120285300Y-76550000D02*
X120285300Y-76283333D01*
X120218633Y-77083333D02*
X120185300Y-77016667D01*
X120185300Y-77016667D02*
X120151966Y-76983333D01*
X120151966Y-76983333D02*
X120085300Y-76950000D01*
X120085300Y-76950000D02*
X120051966Y-76950000D01*
X120051966Y-76950000D02*
X119985300Y-76983333D01*
X119985300Y-76983333D02*
X119951966Y-77016667D01*
X119951966Y-77016667D02*
X119918633Y-77083333D01*
X119918633Y-77083333D02*
X119918633Y-77216667D01*
X119918633Y-77216667D02*
X119951966Y-77283333D01*
X119951966Y-77283333D02*
X119985300Y-77316667D01*
X119985300Y-77316667D02*
X120051966Y-77350000D01*
X120051966Y-77350000D02*
X120085300Y-77350000D01*
X120085300Y-77350000D02*
X120151966Y-77316667D01*
X120151966Y-77316667D02*
X120185300Y-77283333D01*
X120185300Y-77283333D02*
X120218633Y-77216667D01*
X120218633Y-77216667D02*
X120218633Y-77083333D01*
X120218633Y-77083333D02*
X120251966Y-77016667D01*
X120251966Y-77016667D02*
X120285300Y-76983333D01*
X120285300Y-76983333D02*
X120351966Y-76950000D01*
X120351966Y-76950000D02*
X120485300Y-76950000D01*
X120485300Y-76950000D02*
X120551966Y-76983333D01*
X120551966Y-76983333D02*
X120585300Y-77016667D01*
X120585300Y-77016667D02*
X120618633Y-77083333D01*
X120618633Y-77083333D02*
X120618633Y-77216667D01*
X120618633Y-77216667D02*
X120585300Y-77283333D01*
X120585300Y-77283333D02*
X120551966Y-77316667D01*
X120551966Y-77316667D02*
X120485300Y-77350000D01*
X120485300Y-77350000D02*
X120351966Y-77350000D01*
X120351966Y-77350000D02*
X120285300Y-77316667D01*
X120285300Y-77316667D02*
X120251966Y-77283333D01*
X120251966Y-77283333D02*
X120218633Y-77216667D01*
X112616666Y-75651966D02*
X112649999Y-75685300D01*
X112649999Y-75685300D02*
X112749999Y-75718633D01*
X112749999Y-75718633D02*
X112816666Y-75718633D01*
X112816666Y-75718633D02*
X112916666Y-75685300D01*
X112916666Y-75685300D02*
X112983333Y-75618633D01*
X112983333Y-75618633D02*
X113016666Y-75551966D01*
X113016666Y-75551966D02*
X113049999Y-75418633D01*
X113049999Y-75418633D02*
X113049999Y-75318633D01*
X113049999Y-75318633D02*
X113016666Y-75185300D01*
X113016666Y-75185300D02*
X112983333Y-75118633D01*
X112983333Y-75118633D02*
X112916666Y-75051966D01*
X112916666Y-75051966D02*
X112816666Y-75018633D01*
X112816666Y-75018633D02*
X112749999Y-75018633D01*
X112749999Y-75018633D02*
X112649999Y-75051966D01*
X112649999Y-75051966D02*
X112616666Y-75085300D01*
X112216666Y-75318633D02*
X112283333Y-75285300D01*
X112283333Y-75285300D02*
X112316666Y-75251966D01*
X112316666Y-75251966D02*
X112349999Y-75185300D01*
X112349999Y-75185300D02*
X112349999Y-75151966D01*
X112349999Y-75151966D02*
X112316666Y-75085300D01*
X112316666Y-75085300D02*
X112283333Y-75051966D01*
X112283333Y-75051966D02*
X112216666Y-75018633D01*
X112216666Y-75018633D02*
X112083333Y-75018633D01*
X112083333Y-75018633D02*
X112016666Y-75051966D01*
X112016666Y-75051966D02*
X111983333Y-75085300D01*
X111983333Y-75085300D02*
X111949999Y-75151966D01*
X111949999Y-75151966D02*
X111949999Y-75185300D01*
X111949999Y-75185300D02*
X111983333Y-75251966D01*
X111983333Y-75251966D02*
X112016666Y-75285300D01*
X112016666Y-75285300D02*
X112083333Y-75318633D01*
X112083333Y-75318633D02*
X112216666Y-75318633D01*
X112216666Y-75318633D02*
X112283333Y-75351966D01*
X112283333Y-75351966D02*
X112316666Y-75385300D01*
X112316666Y-75385300D02*
X112349999Y-75451966D01*
X112349999Y-75451966D02*
X112349999Y-75585300D01*
X112349999Y-75585300D02*
X112316666Y-75651966D01*
X112316666Y-75651966D02*
X112283333Y-75685300D01*
X112283333Y-75685300D02*
X112216666Y-75718633D01*
X112216666Y-75718633D02*
X112083333Y-75718633D01*
X112083333Y-75718633D02*
X112016666Y-75685300D01*
X112016666Y-75685300D02*
X111983333Y-75651966D01*
X111983333Y-75651966D02*
X111949999Y-75585300D01*
X111949999Y-75585300D02*
X111949999Y-75451966D01*
X111949999Y-75451966D02*
X111983333Y-75385300D01*
X111983333Y-75385300D02*
X112016666Y-75351966D01*
X112016666Y-75351966D02*
X112083333Y-75318633D01*
X125550000Y-81718633D02*
X125783333Y-81385300D01*
X125950000Y-81718633D02*
X125950000Y-81018633D01*
X125950000Y-81018633D02*
X125683333Y-81018633D01*
X125683333Y-81018633D02*
X125616667Y-81051966D01*
X125616667Y-81051966D02*
X125583333Y-81085300D01*
X125583333Y-81085300D02*
X125550000Y-81151966D01*
X125550000Y-81151966D02*
X125550000Y-81251966D01*
X125550000Y-81251966D02*
X125583333Y-81318633D01*
X125583333Y-81318633D02*
X125616667Y-81351966D01*
X125616667Y-81351966D02*
X125683333Y-81385300D01*
X125683333Y-81385300D02*
X125950000Y-81385300D01*
X124883333Y-81718633D02*
X125283333Y-81718633D01*
X125083333Y-81718633D02*
X125083333Y-81018633D01*
X125083333Y-81018633D02*
X125150000Y-81118633D01*
X125150000Y-81118633D02*
X125216667Y-81185300D01*
X125216667Y-81185300D02*
X125283333Y-81218633D01*
X124550000Y-81718633D02*
X124416666Y-81718633D01*
X124416666Y-81718633D02*
X124350000Y-81685300D01*
X124350000Y-81685300D02*
X124316666Y-81651966D01*
X124316666Y-81651966D02*
X124250000Y-81551966D01*
X124250000Y-81551966D02*
X124216666Y-81418633D01*
X124216666Y-81418633D02*
X124216666Y-81151966D01*
X124216666Y-81151966D02*
X124250000Y-81085300D01*
X124250000Y-81085300D02*
X124283333Y-81051966D01*
X124283333Y-81051966D02*
X124350000Y-81018633D01*
X124350000Y-81018633D02*
X124483333Y-81018633D01*
X124483333Y-81018633D02*
X124550000Y-81051966D01*
X124550000Y-81051966D02*
X124583333Y-81085300D01*
X124583333Y-81085300D02*
X124616666Y-81151966D01*
X124616666Y-81151966D02*
X124616666Y-81318633D01*
X124616666Y-81318633D02*
X124583333Y-81385300D01*
X124583333Y-81385300D02*
X124550000Y-81418633D01*
X124550000Y-81418633D02*
X124483333Y-81451966D01*
X124483333Y-81451966D02*
X124350000Y-81451966D01*
X124350000Y-81451966D02*
X124283333Y-81418633D01*
X124283333Y-81418633D02*
X124250000Y-81385300D01*
X124250000Y-81385300D02*
X124216666Y-81318633D01*
X116366666Y-76201966D02*
X116399999Y-76235300D01*
X116399999Y-76235300D02*
X116499999Y-76268633D01*
X116499999Y-76268633D02*
X116566666Y-76268633D01*
X116566666Y-76268633D02*
X116666666Y-76235300D01*
X116666666Y-76235300D02*
X116733333Y-76168633D01*
X116733333Y-76168633D02*
X116766666Y-76101966D01*
X116766666Y-76101966D02*
X116799999Y-75968633D01*
X116799999Y-75968633D02*
X116799999Y-75868633D01*
X116799999Y-75868633D02*
X116766666Y-75735300D01*
X116766666Y-75735300D02*
X116733333Y-75668633D01*
X116733333Y-75668633D02*
X116666666Y-75601966D01*
X116666666Y-75601966D02*
X116566666Y-75568633D01*
X116566666Y-75568633D02*
X116499999Y-75568633D01*
X116499999Y-75568633D02*
X116399999Y-75601966D01*
X116399999Y-75601966D02*
X116366666Y-75635300D01*
X116033333Y-76268633D02*
X115899999Y-76268633D01*
X115899999Y-76268633D02*
X115833333Y-76235300D01*
X115833333Y-76235300D02*
X115799999Y-76201966D01*
X115799999Y-76201966D02*
X115733333Y-76101966D01*
X115733333Y-76101966D02*
X115699999Y-75968633D01*
X115699999Y-75968633D02*
X115699999Y-75701966D01*
X115699999Y-75701966D02*
X115733333Y-75635300D01*
X115733333Y-75635300D02*
X115766666Y-75601966D01*
X115766666Y-75601966D02*
X115833333Y-75568633D01*
X115833333Y-75568633D02*
X115966666Y-75568633D01*
X115966666Y-75568633D02*
X116033333Y-75601966D01*
X116033333Y-75601966D02*
X116066666Y-75635300D01*
X116066666Y-75635300D02*
X116099999Y-75701966D01*
X116099999Y-75701966D02*
X116099999Y-75868633D01*
X116099999Y-75868633D02*
X116066666Y-75935300D01*
X116066666Y-75935300D02*
X116033333Y-75968633D01*
X116033333Y-75968633D02*
X115966666Y-76001966D01*
X115966666Y-76001966D02*
X115833333Y-76001966D01*
X115833333Y-76001966D02*
X115766666Y-75968633D01*
X115766666Y-75968633D02*
X115733333Y-75935300D01*
X115733333Y-75935300D02*
X115699999Y-75868633D01*
X116116666Y-84518633D02*
X116349999Y-84185300D01*
X116516666Y-84518633D02*
X116516666Y-83818633D01*
X116516666Y-83818633D02*
X116249999Y-83818633D01*
X116249999Y-83818633D02*
X116183333Y-83851966D01*
X116183333Y-83851966D02*
X116149999Y-83885300D01*
X116149999Y-83885300D02*
X116116666Y-83951966D01*
X116116666Y-83951966D02*
X116116666Y-84051966D01*
X116116666Y-84051966D02*
X116149999Y-84118633D01*
X116149999Y-84118633D02*
X116183333Y-84151966D01*
X116183333Y-84151966D02*
X116249999Y-84185300D01*
X116249999Y-84185300D02*
X116516666Y-84185300D01*
X115483333Y-83818633D02*
X115816666Y-83818633D01*
X115816666Y-83818633D02*
X115849999Y-84151966D01*
X115849999Y-84151966D02*
X115816666Y-84118633D01*
X115816666Y-84118633D02*
X115749999Y-84085300D01*
X115749999Y-84085300D02*
X115583333Y-84085300D01*
X115583333Y-84085300D02*
X115516666Y-84118633D01*
X115516666Y-84118633D02*
X115483333Y-84151966D01*
X115483333Y-84151966D02*
X115449999Y-84218633D01*
X115449999Y-84218633D02*
X115449999Y-84385300D01*
X115449999Y-84385300D02*
X115483333Y-84451966D01*
X115483333Y-84451966D02*
X115516666Y-84485300D01*
X115516666Y-84485300D02*
X115583333Y-84518633D01*
X115583333Y-84518633D02*
X115749999Y-84518633D01*
X115749999Y-84518633D02*
X115816666Y-84485300D01*
X115816666Y-84485300D02*
X115849999Y-84451966D01*
X116816666Y-80818633D02*
X117049999Y-80485300D01*
X117216666Y-80818633D02*
X117216666Y-80118633D01*
X117216666Y-80118633D02*
X116949999Y-80118633D01*
X116949999Y-80118633D02*
X116883333Y-80151966D01*
X116883333Y-80151966D02*
X116849999Y-80185300D01*
X116849999Y-80185300D02*
X116816666Y-80251966D01*
X116816666Y-80251966D02*
X116816666Y-80351966D01*
X116816666Y-80351966D02*
X116849999Y-80418633D01*
X116849999Y-80418633D02*
X116883333Y-80451966D01*
X116883333Y-80451966D02*
X116949999Y-80485300D01*
X116949999Y-80485300D02*
X117216666Y-80485300D01*
X116483333Y-80818633D02*
X116349999Y-80818633D01*
X116349999Y-80818633D02*
X116283333Y-80785300D01*
X116283333Y-80785300D02*
X116249999Y-80751966D01*
X116249999Y-80751966D02*
X116183333Y-80651966D01*
X116183333Y-80651966D02*
X116149999Y-80518633D01*
X116149999Y-80518633D02*
X116149999Y-80251966D01*
X116149999Y-80251966D02*
X116183333Y-80185300D01*
X116183333Y-80185300D02*
X116216666Y-80151966D01*
X116216666Y-80151966D02*
X116283333Y-80118633D01*
X116283333Y-80118633D02*
X116416666Y-80118633D01*
X116416666Y-80118633D02*
X116483333Y-80151966D01*
X116483333Y-80151966D02*
X116516666Y-80185300D01*
X116516666Y-80185300D02*
X116549999Y-80251966D01*
X116549999Y-80251966D02*
X116549999Y-80418633D01*
X116549999Y-80418633D02*
X116516666Y-80485300D01*
X116516666Y-80485300D02*
X116483333Y-80518633D01*
X116483333Y-80518633D02*
X116416666Y-80551966D01*
X116416666Y-80551966D02*
X116283333Y-80551966D01*
X116283333Y-80551966D02*
X116216666Y-80518633D01*
X116216666Y-80518633D02*
X116183333Y-80485300D01*
X116183333Y-80485300D02*
X116149999Y-80418633D01*
X125450000Y-79951966D02*
X125483333Y-79985300D01*
X125483333Y-79985300D02*
X125583333Y-80018633D01*
X125583333Y-80018633D02*
X125650000Y-80018633D01*
X125650000Y-80018633D02*
X125750000Y-79985300D01*
X125750000Y-79985300D02*
X125816667Y-79918633D01*
X125816667Y-79918633D02*
X125850000Y-79851966D01*
X125850000Y-79851966D02*
X125883333Y-79718633D01*
X125883333Y-79718633D02*
X125883333Y-79618633D01*
X125883333Y-79618633D02*
X125850000Y-79485300D01*
X125850000Y-79485300D02*
X125816667Y-79418633D01*
X125816667Y-79418633D02*
X125750000Y-79351966D01*
X125750000Y-79351966D02*
X125650000Y-79318633D01*
X125650000Y-79318633D02*
X125583333Y-79318633D01*
X125583333Y-79318633D02*
X125483333Y-79351966D01*
X125483333Y-79351966D02*
X125450000Y-79385300D01*
X125183333Y-79385300D02*
X125150000Y-79351966D01*
X125150000Y-79351966D02*
X125083333Y-79318633D01*
X125083333Y-79318633D02*
X124916667Y-79318633D01*
X124916667Y-79318633D02*
X124850000Y-79351966D01*
X124850000Y-79351966D02*
X124816667Y-79385300D01*
X124816667Y-79385300D02*
X124783333Y-79451966D01*
X124783333Y-79451966D02*
X124783333Y-79518633D01*
X124783333Y-79518633D02*
X124816667Y-79618633D01*
X124816667Y-79618633D02*
X125216667Y-80018633D01*
X125216667Y-80018633D02*
X124783333Y-80018633D01*
X124550000Y-79318633D02*
X124116666Y-79318633D01*
X124116666Y-79318633D02*
X124350000Y-79585300D01*
X124350000Y-79585300D02*
X124250000Y-79585300D01*
X124250000Y-79585300D02*
X124183333Y-79618633D01*
X124183333Y-79618633D02*
X124150000Y-79651966D01*
X124150000Y-79651966D02*
X124116666Y-79718633D01*
X124116666Y-79718633D02*
X124116666Y-79885300D01*
X124116666Y-79885300D02*
X124150000Y-79951966D01*
X124150000Y-79951966D02*
X124183333Y-79985300D01*
X124183333Y-79985300D02*
X124250000Y-80018633D01*
X124250000Y-80018633D02*
X124450000Y-80018633D01*
X124450000Y-80018633D02*
X124516666Y-79985300D01*
X124516666Y-79985300D02*
X124550000Y-79951966D01*
X107116666Y-81918633D02*
X107116666Y-81218633D01*
X107116666Y-81218633D02*
X106949999Y-81218633D01*
X106949999Y-81218633D02*
X106849999Y-81251966D01*
X106849999Y-81251966D02*
X106783333Y-81318633D01*
X106783333Y-81318633D02*
X106749999Y-81385300D01*
X106749999Y-81385300D02*
X106716666Y-81518633D01*
X106716666Y-81518633D02*
X106716666Y-81618633D01*
X106716666Y-81618633D02*
X106749999Y-81751966D01*
X106749999Y-81751966D02*
X106783333Y-81818633D01*
X106783333Y-81818633D02*
X106849999Y-81885300D01*
X106849999Y-81885300D02*
X106949999Y-81918633D01*
X106949999Y-81918633D02*
X107116666Y-81918633D01*
X106116666Y-81451966D02*
X106116666Y-81918633D01*
X106283333Y-81185300D02*
X106449999Y-81685300D01*
X106449999Y-81685300D02*
X106016666Y-81685300D01*
X108250000Y-85951966D02*
X108283333Y-85985300D01*
X108283333Y-85985300D02*
X108383333Y-86018633D01*
X108383333Y-86018633D02*
X108450000Y-86018633D01*
X108450000Y-86018633D02*
X108550000Y-85985300D01*
X108550000Y-85985300D02*
X108616667Y-85918633D01*
X108616667Y-85918633D02*
X108650000Y-85851966D01*
X108650000Y-85851966D02*
X108683333Y-85718633D01*
X108683333Y-85718633D02*
X108683333Y-85618633D01*
X108683333Y-85618633D02*
X108650000Y-85485300D01*
X108650000Y-85485300D02*
X108616667Y-85418633D01*
X108616667Y-85418633D02*
X108550000Y-85351966D01*
X108550000Y-85351966D02*
X108450000Y-85318633D01*
X108450000Y-85318633D02*
X108383333Y-85318633D01*
X108383333Y-85318633D02*
X108283333Y-85351966D01*
X108283333Y-85351966D02*
X108250000Y-85385300D01*
X107583333Y-86018633D02*
X107983333Y-86018633D01*
X107783333Y-86018633D02*
X107783333Y-85318633D01*
X107783333Y-85318633D02*
X107850000Y-85418633D01*
X107850000Y-85418633D02*
X107916667Y-85485300D01*
X107916667Y-85485300D02*
X107983333Y-85518633D01*
X106983333Y-85551966D02*
X106983333Y-86018633D01*
X107150000Y-85285300D02*
X107316666Y-85785300D01*
X107316666Y-85785300D02*
X106883333Y-85785300D01*
X118616666Y-84718633D02*
X118849999Y-84385300D01*
X119016666Y-84718633D02*
X119016666Y-84018633D01*
X119016666Y-84018633D02*
X118749999Y-84018633D01*
X118749999Y-84018633D02*
X118683333Y-84051966D01*
X118683333Y-84051966D02*
X118649999Y-84085300D01*
X118649999Y-84085300D02*
X118616666Y-84151966D01*
X118616666Y-84151966D02*
X118616666Y-84251966D01*
X118616666Y-84251966D02*
X118649999Y-84318633D01*
X118649999Y-84318633D02*
X118683333Y-84351966D01*
X118683333Y-84351966D02*
X118749999Y-84385300D01*
X118749999Y-84385300D02*
X119016666Y-84385300D01*
X118016666Y-84018633D02*
X118149999Y-84018633D01*
X118149999Y-84018633D02*
X118216666Y-84051966D01*
X118216666Y-84051966D02*
X118249999Y-84085300D01*
X118249999Y-84085300D02*
X118316666Y-84185300D01*
X118316666Y-84185300D02*
X118349999Y-84318633D01*
X118349999Y-84318633D02*
X118349999Y-84585300D01*
X118349999Y-84585300D02*
X118316666Y-84651966D01*
X118316666Y-84651966D02*
X118283333Y-84685300D01*
X118283333Y-84685300D02*
X118216666Y-84718633D01*
X118216666Y-84718633D02*
X118083333Y-84718633D01*
X118083333Y-84718633D02*
X118016666Y-84685300D01*
X118016666Y-84685300D02*
X117983333Y-84651966D01*
X117983333Y-84651966D02*
X117949999Y-84585300D01*
X117949999Y-84585300D02*
X117949999Y-84418633D01*
X117949999Y-84418633D02*
X117983333Y-84351966D01*
X117983333Y-84351966D02*
X118016666Y-84318633D01*
X118016666Y-84318633D02*
X118083333Y-84285300D01*
X118083333Y-84285300D02*
X118216666Y-84285300D01*
X118216666Y-84285300D02*
X118283333Y-84318633D01*
X118283333Y-84318633D02*
X118316666Y-84351966D01*
X118316666Y-84351966D02*
X118349999Y-84418633D01*
X120718633Y-80033333D02*
X120385300Y-79800000D01*
X120718633Y-79633333D02*
X120018633Y-79633333D01*
X120018633Y-79633333D02*
X120018633Y-79900000D01*
X120018633Y-79900000D02*
X120051966Y-79966667D01*
X120051966Y-79966667D02*
X120085300Y-80000000D01*
X120085300Y-80000000D02*
X120151966Y-80033333D01*
X120151966Y-80033333D02*
X120251966Y-80033333D01*
X120251966Y-80033333D02*
X120318633Y-80000000D01*
X120318633Y-80000000D02*
X120351966Y-79966667D01*
X120351966Y-79966667D02*
X120385300Y-79900000D01*
X120385300Y-79900000D02*
X120385300Y-79633333D01*
X120018633Y-80266667D02*
X120018633Y-80733333D01*
X120018633Y-80733333D02*
X120718633Y-80433333D01*
X125650000Y-78118633D02*
X125883333Y-77785300D01*
X126050000Y-78118633D02*
X126050000Y-77418633D01*
X126050000Y-77418633D02*
X125783333Y-77418633D01*
X125783333Y-77418633D02*
X125716667Y-77451966D01*
X125716667Y-77451966D02*
X125683333Y-77485300D01*
X125683333Y-77485300D02*
X125650000Y-77551966D01*
X125650000Y-77551966D02*
X125650000Y-77651966D01*
X125650000Y-77651966D02*
X125683333Y-77718633D01*
X125683333Y-77718633D02*
X125716667Y-77751966D01*
X125716667Y-77751966D02*
X125783333Y-77785300D01*
X125783333Y-77785300D02*
X126050000Y-77785300D01*
X124983333Y-78118633D02*
X125383333Y-78118633D01*
X125183333Y-78118633D02*
X125183333Y-77418633D01*
X125183333Y-77418633D02*
X125250000Y-77518633D01*
X125250000Y-77518633D02*
X125316667Y-77585300D01*
X125316667Y-77585300D02*
X125383333Y-77618633D01*
X124583333Y-77718633D02*
X124650000Y-77685300D01*
X124650000Y-77685300D02*
X124683333Y-77651966D01*
X124683333Y-77651966D02*
X124716666Y-77585300D01*
X124716666Y-77585300D02*
X124716666Y-77551966D01*
X124716666Y-77551966D02*
X124683333Y-77485300D01*
X124683333Y-77485300D02*
X124650000Y-77451966D01*
X124650000Y-77451966D02*
X124583333Y-77418633D01*
X124583333Y-77418633D02*
X124450000Y-77418633D01*
X124450000Y-77418633D02*
X124383333Y-77451966D01*
X124383333Y-77451966D02*
X124350000Y-77485300D01*
X124350000Y-77485300D02*
X124316666Y-77551966D01*
X124316666Y-77551966D02*
X124316666Y-77585300D01*
X124316666Y-77585300D02*
X124350000Y-77651966D01*
X124350000Y-77651966D02*
X124383333Y-77685300D01*
X124383333Y-77685300D02*
X124450000Y-77718633D01*
X124450000Y-77718633D02*
X124583333Y-77718633D01*
X124583333Y-77718633D02*
X124650000Y-77751966D01*
X124650000Y-77751966D02*
X124683333Y-77785300D01*
X124683333Y-77785300D02*
X124716666Y-77851966D01*
X124716666Y-77851966D02*
X124716666Y-77985300D01*
X124716666Y-77985300D02*
X124683333Y-78051966D01*
X124683333Y-78051966D02*
X124650000Y-78085300D01*
X124650000Y-78085300D02*
X124583333Y-78118633D01*
X124583333Y-78118633D02*
X124450000Y-78118633D01*
X124450000Y-78118633D02*
X124383333Y-78085300D01*
X124383333Y-78085300D02*
X124350000Y-78051966D01*
X124350000Y-78051966D02*
X124316666Y-77985300D01*
X124316666Y-77985300D02*
X124316666Y-77851966D01*
X124316666Y-77851966D02*
X124350000Y-77785300D01*
X124350000Y-77785300D02*
X124383333Y-77751966D01*
X124383333Y-77751966D02*
X124450000Y-77718633D01*
X104137166Y-82063999D02*
X104170500Y-82030666D01*
X104170500Y-82030666D02*
X104203833Y-81930666D01*
X104203833Y-81930666D02*
X104203833Y-81863999D01*
X104203833Y-81863999D02*
X104170500Y-81763999D01*
X104170500Y-81763999D02*
X104103833Y-81697333D01*
X104103833Y-81697333D02*
X104037166Y-81663999D01*
X104037166Y-81663999D02*
X103903833Y-81630666D01*
X103903833Y-81630666D02*
X103803833Y-81630666D01*
X103803833Y-81630666D02*
X103670500Y-81663999D01*
X103670500Y-81663999D02*
X103603833Y-81697333D01*
X103603833Y-81697333D02*
X103537166Y-81763999D01*
X103537166Y-81763999D02*
X103503833Y-81863999D01*
X103503833Y-81863999D02*
X103503833Y-81930666D01*
X103503833Y-81930666D02*
X103537166Y-82030666D01*
X103537166Y-82030666D02*
X103570500Y-82063999D01*
X104203833Y-82730666D02*
X104203833Y-82330666D01*
X104203833Y-82530666D02*
X103503833Y-82530666D01*
X103503833Y-82530666D02*
X103603833Y-82463999D01*
X103603833Y-82463999D02*
X103670500Y-82397333D01*
X103670500Y-82397333D02*
X103703833Y-82330666D01*
X103503833Y-82964000D02*
X103503833Y-83397333D01*
X103503833Y-83397333D02*
X103770500Y-83164000D01*
X103770500Y-83164000D02*
X103770500Y-83264000D01*
X103770500Y-83264000D02*
X103803833Y-83330666D01*
X103803833Y-83330666D02*
X103837166Y-83364000D01*
X103837166Y-83364000D02*
X103903833Y-83397333D01*
X103903833Y-83397333D02*
X104070500Y-83397333D01*
X104070500Y-83397333D02*
X104137166Y-83364000D01*
X104137166Y-83364000D02*
X104170500Y-83330666D01*
X104170500Y-83330666D02*
X104203833Y-83264000D01*
X104203833Y-83264000D02*
X104203833Y-83064000D01*
X104203833Y-83064000D02*
X104170500Y-82997333D01*
X104170500Y-82997333D02*
X104137166Y-82964000D01*
X110118633Y-74049999D02*
X109785300Y-73816666D01*
X110118633Y-73649999D02*
X109418633Y-73649999D01*
X109418633Y-73649999D02*
X109418633Y-73916666D01*
X109418633Y-73916666D02*
X109451966Y-73983333D01*
X109451966Y-73983333D02*
X109485300Y-74016666D01*
X109485300Y-74016666D02*
X109551966Y-74049999D01*
X109551966Y-74049999D02*
X109651966Y-74049999D01*
X109651966Y-74049999D02*
X109718633Y-74016666D01*
X109718633Y-74016666D02*
X109751966Y-73983333D01*
X109751966Y-73983333D02*
X109785300Y-73916666D01*
X109785300Y-73916666D02*
X109785300Y-73649999D01*
X110118633Y-74716666D02*
X110118633Y-74316666D01*
X110118633Y-74516666D02*
X109418633Y-74516666D01*
X109418633Y-74516666D02*
X109518633Y-74449999D01*
X109518633Y-74449999D02*
X109585300Y-74383333D01*
X109585300Y-74383333D02*
X109618633Y-74316666D01*
X109418633Y-75150000D02*
X109418633Y-75216666D01*
X109418633Y-75216666D02*
X109451966Y-75283333D01*
X109451966Y-75283333D02*
X109485300Y-75316666D01*
X109485300Y-75316666D02*
X109551966Y-75350000D01*
X109551966Y-75350000D02*
X109685300Y-75383333D01*
X109685300Y-75383333D02*
X109851966Y-75383333D01*
X109851966Y-75383333D02*
X109985300Y-75350000D01*
X109985300Y-75350000D02*
X110051966Y-75316666D01*
X110051966Y-75316666D02*
X110085300Y-75283333D01*
X110085300Y-75283333D02*
X110118633Y-75216666D01*
X110118633Y-75216666D02*
X110118633Y-75150000D01*
X110118633Y-75150000D02*
X110085300Y-75083333D01*
X110085300Y-75083333D02*
X110051966Y-75050000D01*
X110051966Y-75050000D02*
X109985300Y-75016666D01*
X109985300Y-75016666D02*
X109851966Y-74983333D01*
X109851966Y-74983333D02*
X109685300Y-74983333D01*
X109685300Y-74983333D02*
X109551966Y-75016666D01*
X109551966Y-75016666D02*
X109485300Y-75050000D01*
X109485300Y-75050000D02*
X109451966Y-75083333D01*
X109451966Y-75083333D02*
X109418633Y-75150000D01*
X112916666Y-80051966D02*
X112949999Y-80085300D01*
X112949999Y-80085300D02*
X113049999Y-80118633D01*
X113049999Y-80118633D02*
X113116666Y-80118633D01*
X113116666Y-80118633D02*
X113216666Y-80085300D01*
X113216666Y-80085300D02*
X113283333Y-80018633D01*
X113283333Y-80018633D02*
X113316666Y-79951966D01*
X113316666Y-79951966D02*
X113349999Y-79818633D01*
X113349999Y-79818633D02*
X113349999Y-79718633D01*
X113349999Y-79718633D02*
X113316666Y-79585300D01*
X113316666Y-79585300D02*
X113283333Y-79518633D01*
X113283333Y-79518633D02*
X113216666Y-79451966D01*
X113216666Y-79451966D02*
X113116666Y-79418633D01*
X113116666Y-79418633D02*
X113049999Y-79418633D01*
X113049999Y-79418633D02*
X112949999Y-79451966D01*
X112949999Y-79451966D02*
X112916666Y-79485300D01*
X112683333Y-79418633D02*
X112216666Y-79418633D01*
X112216666Y-79418633D02*
X112516666Y-80118633D01*
X118616666Y-90918633D02*
X118849999Y-90585300D01*
X119016666Y-90918633D02*
X119016666Y-90218633D01*
X119016666Y-90218633D02*
X118749999Y-90218633D01*
X118749999Y-90218633D02*
X118683333Y-90251966D01*
X118683333Y-90251966D02*
X118649999Y-90285300D01*
X118649999Y-90285300D02*
X118616666Y-90351966D01*
X118616666Y-90351966D02*
X118616666Y-90451966D01*
X118616666Y-90451966D02*
X118649999Y-90518633D01*
X118649999Y-90518633D02*
X118683333Y-90551966D01*
X118683333Y-90551966D02*
X118749999Y-90585300D01*
X118749999Y-90585300D02*
X119016666Y-90585300D01*
X118349999Y-90285300D02*
X118316666Y-90251966D01*
X118316666Y-90251966D02*
X118249999Y-90218633D01*
X118249999Y-90218633D02*
X118083333Y-90218633D01*
X118083333Y-90218633D02*
X118016666Y-90251966D01*
X118016666Y-90251966D02*
X117983333Y-90285300D01*
X117983333Y-90285300D02*
X117949999Y-90351966D01*
X117949999Y-90351966D02*
X117949999Y-90418633D01*
X117949999Y-90418633D02*
X117983333Y-90518633D01*
X117983333Y-90518633D02*
X118383333Y-90918633D01*
X118383333Y-90918633D02*
X117949999Y-90918633D01*
X109616666Y-90551966D02*
X109649999Y-90585300D01*
X109649999Y-90585300D02*
X109749999Y-90618633D01*
X109749999Y-90618633D02*
X109816666Y-90618633D01*
X109816666Y-90618633D02*
X109916666Y-90585300D01*
X109916666Y-90585300D02*
X109983333Y-90518633D01*
X109983333Y-90518633D02*
X110016666Y-90451966D01*
X110016666Y-90451966D02*
X110049999Y-90318633D01*
X110049999Y-90318633D02*
X110049999Y-90218633D01*
X110049999Y-90218633D02*
X110016666Y-90085300D01*
X110016666Y-90085300D02*
X109983333Y-90018633D01*
X109983333Y-90018633D02*
X109916666Y-89951966D01*
X109916666Y-89951966D02*
X109816666Y-89918633D01*
X109816666Y-89918633D02*
X109749999Y-89918633D01*
X109749999Y-89918633D02*
X109649999Y-89951966D01*
X109649999Y-89951966D02*
X109616666Y-89985300D01*
X108983333Y-89918633D02*
X109316666Y-89918633D01*
X109316666Y-89918633D02*
X109349999Y-90251966D01*
X109349999Y-90251966D02*
X109316666Y-90218633D01*
X109316666Y-90218633D02*
X109249999Y-90185300D01*
X109249999Y-90185300D02*
X109083333Y-90185300D01*
X109083333Y-90185300D02*
X109016666Y-90218633D01*
X109016666Y-90218633D02*
X108983333Y-90251966D01*
X108983333Y-90251966D02*
X108949999Y-90318633D01*
X108949999Y-90318633D02*
X108949999Y-90485300D01*
X108949999Y-90485300D02*
X108983333Y-90551966D01*
X108983333Y-90551966D02*
X109016666Y-90585300D01*
X109016666Y-90585300D02*
X109083333Y-90618633D01*
X109083333Y-90618633D02*
X109249999Y-90618633D01*
X109249999Y-90618633D02*
X109316666Y-90585300D01*
X109316666Y-90585300D02*
X109349999Y-90551966D01*
X109950000Y-87951966D02*
X109983333Y-87985300D01*
X109983333Y-87985300D02*
X110083333Y-88018633D01*
X110083333Y-88018633D02*
X110150000Y-88018633D01*
X110150000Y-88018633D02*
X110250000Y-87985300D01*
X110250000Y-87985300D02*
X110316667Y-87918633D01*
X110316667Y-87918633D02*
X110350000Y-87851966D01*
X110350000Y-87851966D02*
X110383333Y-87718633D01*
X110383333Y-87718633D02*
X110383333Y-87618633D01*
X110383333Y-87618633D02*
X110350000Y-87485300D01*
X110350000Y-87485300D02*
X110316667Y-87418633D01*
X110316667Y-87418633D02*
X110250000Y-87351966D01*
X110250000Y-87351966D02*
X110150000Y-87318633D01*
X110150000Y-87318633D02*
X110083333Y-87318633D01*
X110083333Y-87318633D02*
X109983333Y-87351966D01*
X109983333Y-87351966D02*
X109950000Y-87385300D01*
X109283333Y-88018633D02*
X109683333Y-88018633D01*
X109483333Y-88018633D02*
X109483333Y-87318633D01*
X109483333Y-87318633D02*
X109550000Y-87418633D01*
X109550000Y-87418633D02*
X109616667Y-87485300D01*
X109616667Y-87485300D02*
X109683333Y-87518633D01*
X108683333Y-87318633D02*
X108816666Y-87318633D01*
X108816666Y-87318633D02*
X108883333Y-87351966D01*
X108883333Y-87351966D02*
X108916666Y-87385300D01*
X108916666Y-87385300D02*
X108983333Y-87485300D01*
X108983333Y-87485300D02*
X109016666Y-87618633D01*
X109016666Y-87618633D02*
X109016666Y-87885300D01*
X109016666Y-87885300D02*
X108983333Y-87951966D01*
X108983333Y-87951966D02*
X108950000Y-87985300D01*
X108950000Y-87985300D02*
X108883333Y-88018633D01*
X108883333Y-88018633D02*
X108750000Y-88018633D01*
X108750000Y-88018633D02*
X108683333Y-87985300D01*
X108683333Y-87985300D02*
X108650000Y-87951966D01*
X108650000Y-87951966D02*
X108616666Y-87885300D01*
X108616666Y-87885300D02*
X108616666Y-87718633D01*
X108616666Y-87718633D02*
X108650000Y-87651966D01*
X108650000Y-87651966D02*
X108683333Y-87618633D01*
X108683333Y-87618633D02*
X108750000Y-87585300D01*
X108750000Y-87585300D02*
X108883333Y-87585300D01*
X108883333Y-87585300D02*
X108950000Y-87618633D01*
X108950000Y-87618633D02*
X108983333Y-87651966D01*
X108983333Y-87651966D02*
X109016666Y-87718633D01*
X116850000Y-86051966D02*
X116883333Y-86085300D01*
X116883333Y-86085300D02*
X116983333Y-86118633D01*
X116983333Y-86118633D02*
X117050000Y-86118633D01*
X117050000Y-86118633D02*
X117150000Y-86085300D01*
X117150000Y-86085300D02*
X117216667Y-86018633D01*
X117216667Y-86018633D02*
X117250000Y-85951966D01*
X117250000Y-85951966D02*
X117283333Y-85818633D01*
X117283333Y-85818633D02*
X117283333Y-85718633D01*
X117283333Y-85718633D02*
X117250000Y-85585300D01*
X117250000Y-85585300D02*
X117216667Y-85518633D01*
X117216667Y-85518633D02*
X117150000Y-85451966D01*
X117150000Y-85451966D02*
X117050000Y-85418633D01*
X117050000Y-85418633D02*
X116983333Y-85418633D01*
X116983333Y-85418633D02*
X116883333Y-85451966D01*
X116883333Y-85451966D02*
X116850000Y-85485300D01*
X116183333Y-86118633D02*
X116583333Y-86118633D01*
X116383333Y-86118633D02*
X116383333Y-85418633D01*
X116383333Y-85418633D02*
X116450000Y-85518633D01*
X116450000Y-85518633D02*
X116516667Y-85585300D01*
X116516667Y-85585300D02*
X116583333Y-85618633D01*
X115950000Y-85418633D02*
X115483333Y-85418633D01*
X115483333Y-85418633D02*
X115783333Y-86118633D01*
X136318633Y-83749999D02*
X135985300Y-83516666D01*
X136318633Y-83349999D02*
X135618633Y-83349999D01*
X135618633Y-83349999D02*
X135618633Y-83616666D01*
X135618633Y-83616666D02*
X135651966Y-83683333D01*
X135651966Y-83683333D02*
X135685300Y-83716666D01*
X135685300Y-83716666D02*
X135751966Y-83749999D01*
X135751966Y-83749999D02*
X135851966Y-83749999D01*
X135851966Y-83749999D02*
X135918633Y-83716666D01*
X135918633Y-83716666D02*
X135951966Y-83683333D01*
X135951966Y-83683333D02*
X135985300Y-83616666D01*
X135985300Y-83616666D02*
X135985300Y-83349999D01*
X135685300Y-84016666D02*
X135651966Y-84049999D01*
X135651966Y-84049999D02*
X135618633Y-84116666D01*
X135618633Y-84116666D02*
X135618633Y-84283333D01*
X135618633Y-84283333D02*
X135651966Y-84349999D01*
X135651966Y-84349999D02*
X135685300Y-84383333D01*
X135685300Y-84383333D02*
X135751966Y-84416666D01*
X135751966Y-84416666D02*
X135818633Y-84416666D01*
X135818633Y-84416666D02*
X135918633Y-84383333D01*
X135918633Y-84383333D02*
X136318633Y-83983333D01*
X136318633Y-83983333D02*
X136318633Y-84416666D01*
X135618633Y-84850000D02*
X135618633Y-84916666D01*
X135618633Y-84916666D02*
X135651966Y-84983333D01*
X135651966Y-84983333D02*
X135685300Y-85016666D01*
X135685300Y-85016666D02*
X135751966Y-85050000D01*
X135751966Y-85050000D02*
X135885300Y-85083333D01*
X135885300Y-85083333D02*
X136051966Y-85083333D01*
X136051966Y-85083333D02*
X136185300Y-85050000D01*
X136185300Y-85050000D02*
X136251966Y-85016666D01*
X136251966Y-85016666D02*
X136285300Y-84983333D01*
X136285300Y-84983333D02*
X136318633Y-84916666D01*
X136318633Y-84916666D02*
X136318633Y-84850000D01*
X136318633Y-84850000D02*
X136285300Y-84783333D01*
X136285300Y-84783333D02*
X136251966Y-84750000D01*
X136251966Y-84750000D02*
X136185300Y-84716666D01*
X136185300Y-84716666D02*
X136051966Y-84683333D01*
X136051966Y-84683333D02*
X135885300Y-84683333D01*
X135885300Y-84683333D02*
X135751966Y-84716666D01*
X135751966Y-84716666D02*
X135685300Y-84750000D01*
X135685300Y-84750000D02*
X135651966Y-84783333D01*
X135651966Y-84783333D02*
X135618633Y-84850000D01*
X131400000Y-100068633D02*
X131633333Y-99735300D01*
X131800000Y-100068633D02*
X131800000Y-99368633D01*
X131800000Y-99368633D02*
X131533333Y-99368633D01*
X131533333Y-99368633D02*
X131466667Y-99401966D01*
X131466667Y-99401966D02*
X131433333Y-99435300D01*
X131433333Y-99435300D02*
X131400000Y-99501966D01*
X131400000Y-99501966D02*
X131400000Y-99601966D01*
X131400000Y-99601966D02*
X131433333Y-99668633D01*
X131433333Y-99668633D02*
X131466667Y-99701966D01*
X131466667Y-99701966D02*
X131533333Y-99735300D01*
X131533333Y-99735300D02*
X131800000Y-99735300D01*
X131133333Y-99435300D02*
X131100000Y-99401966D01*
X131100000Y-99401966D02*
X131033333Y-99368633D01*
X131033333Y-99368633D02*
X130866667Y-99368633D01*
X130866667Y-99368633D02*
X130800000Y-99401966D01*
X130800000Y-99401966D02*
X130766667Y-99435300D01*
X130766667Y-99435300D02*
X130733333Y-99501966D01*
X130733333Y-99501966D02*
X130733333Y-99568633D01*
X130733333Y-99568633D02*
X130766667Y-99668633D01*
X130766667Y-99668633D02*
X131166667Y-100068633D01*
X131166667Y-100068633D02*
X130733333Y-100068633D01*
X130400000Y-100068633D02*
X130266666Y-100068633D01*
X130266666Y-100068633D02*
X130200000Y-100035300D01*
X130200000Y-100035300D02*
X130166666Y-100001966D01*
X130166666Y-100001966D02*
X130100000Y-99901966D01*
X130100000Y-99901966D02*
X130066666Y-99768633D01*
X130066666Y-99768633D02*
X130066666Y-99501966D01*
X130066666Y-99501966D02*
X130100000Y-99435300D01*
X130100000Y-99435300D02*
X130133333Y-99401966D01*
X130133333Y-99401966D02*
X130200000Y-99368633D01*
X130200000Y-99368633D02*
X130333333Y-99368633D01*
X130333333Y-99368633D02*
X130400000Y-99401966D01*
X130400000Y-99401966D02*
X130433333Y-99435300D01*
X130433333Y-99435300D02*
X130466666Y-99501966D01*
X130466666Y-99501966D02*
X130466666Y-99668633D01*
X130466666Y-99668633D02*
X130433333Y-99735300D01*
X130433333Y-99735300D02*
X130400000Y-99768633D01*
X130400000Y-99768633D02*
X130333333Y-99801966D01*
X130333333Y-99801966D02*
X130200000Y-99801966D01*
X130200000Y-99801966D02*
X130133333Y-99768633D01*
X130133333Y-99768633D02*
X130100000Y-99735300D01*
X130100000Y-99735300D02*
X130066666Y-99668633D01*
X141050000Y-101651966D02*
X141083333Y-101685300D01*
X141083333Y-101685300D02*
X141183333Y-101718633D01*
X141183333Y-101718633D02*
X141250000Y-101718633D01*
X141250000Y-101718633D02*
X141350000Y-101685300D01*
X141350000Y-101685300D02*
X141416667Y-101618633D01*
X141416667Y-101618633D02*
X141450000Y-101551966D01*
X141450000Y-101551966D02*
X141483333Y-101418633D01*
X141483333Y-101418633D02*
X141483333Y-101318633D01*
X141483333Y-101318633D02*
X141450000Y-101185300D01*
X141450000Y-101185300D02*
X141416667Y-101118633D01*
X141416667Y-101118633D02*
X141350000Y-101051966D01*
X141350000Y-101051966D02*
X141250000Y-101018633D01*
X141250000Y-101018633D02*
X141183333Y-101018633D01*
X141183333Y-101018633D02*
X141083333Y-101051966D01*
X141083333Y-101051966D02*
X141050000Y-101085300D01*
X140816667Y-101018633D02*
X140383333Y-101018633D01*
X140383333Y-101018633D02*
X140616667Y-101285300D01*
X140616667Y-101285300D02*
X140516667Y-101285300D01*
X140516667Y-101285300D02*
X140450000Y-101318633D01*
X140450000Y-101318633D02*
X140416667Y-101351966D01*
X140416667Y-101351966D02*
X140383333Y-101418633D01*
X140383333Y-101418633D02*
X140383333Y-101585300D01*
X140383333Y-101585300D02*
X140416667Y-101651966D01*
X140416667Y-101651966D02*
X140450000Y-101685300D01*
X140450000Y-101685300D02*
X140516667Y-101718633D01*
X140516667Y-101718633D02*
X140716667Y-101718633D01*
X140716667Y-101718633D02*
X140783333Y-101685300D01*
X140783333Y-101685300D02*
X140816667Y-101651966D01*
X140150000Y-101018633D02*
X139683333Y-101018633D01*
X139683333Y-101018633D02*
X139983333Y-101718633D01*
X110233333Y-98285300D02*
X110133333Y-98318633D01*
X110133333Y-98318633D02*
X109966667Y-98318633D01*
X109966667Y-98318633D02*
X109900000Y-98285300D01*
X109900000Y-98285300D02*
X109866667Y-98251966D01*
X109866667Y-98251966D02*
X109833333Y-98185300D01*
X109833333Y-98185300D02*
X109833333Y-98118633D01*
X109833333Y-98118633D02*
X109866667Y-98051966D01*
X109866667Y-98051966D02*
X109900000Y-98018633D01*
X109900000Y-98018633D02*
X109966667Y-97985300D01*
X109966667Y-97985300D02*
X110100000Y-97951966D01*
X110100000Y-97951966D02*
X110166667Y-97918633D01*
X110166667Y-97918633D02*
X110200000Y-97885300D01*
X110200000Y-97885300D02*
X110233333Y-97818633D01*
X110233333Y-97818633D02*
X110233333Y-97751966D01*
X110233333Y-97751966D02*
X110200000Y-97685300D01*
X110200000Y-97685300D02*
X110166667Y-97651966D01*
X110166667Y-97651966D02*
X110100000Y-97618633D01*
X110100000Y-97618633D02*
X109933333Y-97618633D01*
X109933333Y-97618633D02*
X109833333Y-97651966D01*
X109600000Y-97618633D02*
X109433333Y-98318633D01*
X109433333Y-98318633D02*
X109300000Y-97818633D01*
X109300000Y-97818633D02*
X109166666Y-98318633D01*
X109166666Y-98318633D02*
X109000000Y-97618633D01*
X108766666Y-97685300D02*
X108733333Y-97651966D01*
X108733333Y-97651966D02*
X108666666Y-97618633D01*
X108666666Y-97618633D02*
X108500000Y-97618633D01*
X108500000Y-97618633D02*
X108433333Y-97651966D01*
X108433333Y-97651966D02*
X108400000Y-97685300D01*
X108400000Y-97685300D02*
X108366666Y-97751966D01*
X108366666Y-97751966D02*
X108366666Y-97818633D01*
X108366666Y-97818633D02*
X108400000Y-97918633D01*
X108400000Y-97918633D02*
X108800000Y-98318633D01*
X108800000Y-98318633D02*
X108366666Y-98318633D01*
X121166666Y-93285300D02*
X121233333Y-93251966D01*
X121233333Y-93251966D02*
X121300000Y-93185300D01*
X121300000Y-93185300D02*
X121400000Y-93085300D01*
X121400000Y-93085300D02*
X121466666Y-93051966D01*
X121466666Y-93051966D02*
X121533333Y-93051966D01*
X121500000Y-93218633D02*
X121566666Y-93185300D01*
X121566666Y-93185300D02*
X121633333Y-93118633D01*
X121633333Y-93118633D02*
X121666666Y-92985300D01*
X121666666Y-92985300D02*
X121666666Y-92751966D01*
X121666666Y-92751966D02*
X121633333Y-92618633D01*
X121633333Y-92618633D02*
X121566666Y-92551966D01*
X121566666Y-92551966D02*
X121500000Y-92518633D01*
X121500000Y-92518633D02*
X121366666Y-92518633D01*
X121366666Y-92518633D02*
X121300000Y-92551966D01*
X121300000Y-92551966D02*
X121233333Y-92618633D01*
X121233333Y-92618633D02*
X121200000Y-92751966D01*
X121200000Y-92751966D02*
X121200000Y-92985300D01*
X121200000Y-92985300D02*
X121233333Y-93118633D01*
X121233333Y-93118633D02*
X121300000Y-93185300D01*
X121300000Y-93185300D02*
X121366666Y-93218633D01*
X121366666Y-93218633D02*
X121500000Y-93218633D01*
X120533333Y-93218633D02*
X120933333Y-93218633D01*
X120733333Y-93218633D02*
X120733333Y-92518633D01*
X120733333Y-92518633D02*
X120800000Y-92618633D01*
X120800000Y-92618633D02*
X120866667Y-92685300D01*
X120866667Y-92685300D02*
X120933333Y-92718633D01*
X131218633Y-91199999D02*
X130885300Y-90966666D01*
X131218633Y-90799999D02*
X130518633Y-90799999D01*
X130518633Y-90799999D02*
X130518633Y-91066666D01*
X130518633Y-91066666D02*
X130551966Y-91133333D01*
X130551966Y-91133333D02*
X130585300Y-91166666D01*
X130585300Y-91166666D02*
X130651966Y-91199999D01*
X130651966Y-91199999D02*
X130751966Y-91199999D01*
X130751966Y-91199999D02*
X130818633Y-91166666D01*
X130818633Y-91166666D02*
X130851966Y-91133333D01*
X130851966Y-91133333D02*
X130885300Y-91066666D01*
X130885300Y-91066666D02*
X130885300Y-90799999D01*
X130585300Y-91466666D02*
X130551966Y-91499999D01*
X130551966Y-91499999D02*
X130518633Y-91566666D01*
X130518633Y-91566666D02*
X130518633Y-91733333D01*
X130518633Y-91733333D02*
X130551966Y-91799999D01*
X130551966Y-91799999D02*
X130585300Y-91833333D01*
X130585300Y-91833333D02*
X130651966Y-91866666D01*
X130651966Y-91866666D02*
X130718633Y-91866666D01*
X130718633Y-91866666D02*
X130818633Y-91833333D01*
X130818633Y-91833333D02*
X131218633Y-91433333D01*
X131218633Y-91433333D02*
X131218633Y-91866666D01*
X130585300Y-92133333D02*
X130551966Y-92166666D01*
X130551966Y-92166666D02*
X130518633Y-92233333D01*
X130518633Y-92233333D02*
X130518633Y-92400000D01*
X130518633Y-92400000D02*
X130551966Y-92466666D01*
X130551966Y-92466666D02*
X130585300Y-92500000D01*
X130585300Y-92500000D02*
X130651966Y-92533333D01*
X130651966Y-92533333D02*
X130718633Y-92533333D01*
X130718633Y-92533333D02*
X130818633Y-92500000D01*
X130818633Y-92500000D02*
X131218633Y-92100000D01*
X131218633Y-92100000D02*
X131218633Y-92533333D01*
X132818633Y-108266666D02*
X133385300Y-108266666D01*
X133385300Y-108266666D02*
X133451966Y-108300000D01*
X133451966Y-108300000D02*
X133485300Y-108333333D01*
X133485300Y-108333333D02*
X133518633Y-108400000D01*
X133518633Y-108400000D02*
X133518633Y-108533333D01*
X133518633Y-108533333D02*
X133485300Y-108600000D01*
X133485300Y-108600000D02*
X133451966Y-108633333D01*
X133451966Y-108633333D02*
X133385300Y-108666666D01*
X133385300Y-108666666D02*
X132818633Y-108666666D01*
X133518633Y-109366666D02*
X133518633Y-108966666D01*
X133518633Y-109166666D02*
X132818633Y-109166666D01*
X132818633Y-109166666D02*
X132918633Y-109099999D01*
X132918633Y-109099999D02*
X132985300Y-109033333D01*
X132985300Y-109033333D02*
X133018633Y-108966666D01*
X143801966Y-98049999D02*
X143835300Y-98016666D01*
X143835300Y-98016666D02*
X143868633Y-97916666D01*
X143868633Y-97916666D02*
X143868633Y-97849999D01*
X143868633Y-97849999D02*
X143835300Y-97749999D01*
X143835300Y-97749999D02*
X143768633Y-97683333D01*
X143768633Y-97683333D02*
X143701966Y-97649999D01*
X143701966Y-97649999D02*
X143568633Y-97616666D01*
X143568633Y-97616666D02*
X143468633Y-97616666D01*
X143468633Y-97616666D02*
X143335300Y-97649999D01*
X143335300Y-97649999D02*
X143268633Y-97683333D01*
X143268633Y-97683333D02*
X143201966Y-97749999D01*
X143201966Y-97749999D02*
X143168633Y-97849999D01*
X143168633Y-97849999D02*
X143168633Y-97916666D01*
X143168633Y-97916666D02*
X143201966Y-98016666D01*
X143201966Y-98016666D02*
X143235300Y-98049999D01*
X143168633Y-98283333D02*
X143168633Y-98716666D01*
X143168633Y-98716666D02*
X143435300Y-98483333D01*
X143435300Y-98483333D02*
X143435300Y-98583333D01*
X143435300Y-98583333D02*
X143468633Y-98649999D01*
X143468633Y-98649999D02*
X143501966Y-98683333D01*
X143501966Y-98683333D02*
X143568633Y-98716666D01*
X143568633Y-98716666D02*
X143735300Y-98716666D01*
X143735300Y-98716666D02*
X143801966Y-98683333D01*
X143801966Y-98683333D02*
X143835300Y-98649999D01*
X143835300Y-98649999D02*
X143868633Y-98583333D01*
X143868633Y-98583333D02*
X143868633Y-98383333D01*
X143868633Y-98383333D02*
X143835300Y-98316666D01*
X143835300Y-98316666D02*
X143801966Y-98283333D01*
X143468633Y-99116666D02*
X143435300Y-99050000D01*
X143435300Y-99050000D02*
X143401966Y-99016666D01*
X143401966Y-99016666D02*
X143335300Y-98983333D01*
X143335300Y-98983333D02*
X143301966Y-98983333D01*
X143301966Y-98983333D02*
X143235300Y-99016666D01*
X143235300Y-99016666D02*
X143201966Y-99050000D01*
X143201966Y-99050000D02*
X143168633Y-99116666D01*
X143168633Y-99116666D02*
X143168633Y-99250000D01*
X143168633Y-99250000D02*
X143201966Y-99316666D01*
X143201966Y-99316666D02*
X143235300Y-99350000D01*
X143235300Y-99350000D02*
X143301966Y-99383333D01*
X143301966Y-99383333D02*
X143335300Y-99383333D01*
X143335300Y-99383333D02*
X143401966Y-99350000D01*
X143401966Y-99350000D02*
X143435300Y-99316666D01*
X143435300Y-99316666D02*
X143468633Y-99250000D01*
X143468633Y-99250000D02*
X143468633Y-99116666D01*
X143468633Y-99116666D02*
X143501966Y-99050000D01*
X143501966Y-99050000D02*
X143535300Y-99016666D01*
X143535300Y-99016666D02*
X143601966Y-98983333D01*
X143601966Y-98983333D02*
X143735300Y-98983333D01*
X143735300Y-98983333D02*
X143801966Y-99016666D01*
X143801966Y-99016666D02*
X143835300Y-99050000D01*
X143835300Y-99050000D02*
X143868633Y-99116666D01*
X143868633Y-99116666D02*
X143868633Y-99250000D01*
X143868633Y-99250000D02*
X143835300Y-99316666D01*
X143835300Y-99316666D02*
X143801966Y-99350000D01*
X143801966Y-99350000D02*
X143735300Y-99383333D01*
X143735300Y-99383333D02*
X143601966Y-99383333D01*
X143601966Y-99383333D02*
X143535300Y-99350000D01*
X143535300Y-99350000D02*
X143501966Y-99316666D01*
X143501966Y-99316666D02*
X143468633Y-99250000D01*
X147801966Y-88649999D02*
X147835300Y-88616666D01*
X147835300Y-88616666D02*
X147868633Y-88516666D01*
X147868633Y-88516666D02*
X147868633Y-88449999D01*
X147868633Y-88449999D02*
X147835300Y-88349999D01*
X147835300Y-88349999D02*
X147768633Y-88283333D01*
X147768633Y-88283333D02*
X147701966Y-88249999D01*
X147701966Y-88249999D02*
X147568633Y-88216666D01*
X147568633Y-88216666D02*
X147468633Y-88216666D01*
X147468633Y-88216666D02*
X147335300Y-88249999D01*
X147335300Y-88249999D02*
X147268633Y-88283333D01*
X147268633Y-88283333D02*
X147201966Y-88349999D01*
X147201966Y-88349999D02*
X147168633Y-88449999D01*
X147168633Y-88449999D02*
X147168633Y-88516666D01*
X147168633Y-88516666D02*
X147201966Y-88616666D01*
X147201966Y-88616666D02*
X147235300Y-88649999D01*
X147235300Y-88916666D02*
X147201966Y-88949999D01*
X147201966Y-88949999D02*
X147168633Y-89016666D01*
X147168633Y-89016666D02*
X147168633Y-89183333D01*
X147168633Y-89183333D02*
X147201966Y-89249999D01*
X147201966Y-89249999D02*
X147235300Y-89283333D01*
X147235300Y-89283333D02*
X147301966Y-89316666D01*
X147301966Y-89316666D02*
X147368633Y-89316666D01*
X147368633Y-89316666D02*
X147468633Y-89283333D01*
X147468633Y-89283333D02*
X147868633Y-88883333D01*
X147868633Y-88883333D02*
X147868633Y-89316666D01*
X147168633Y-89950000D02*
X147168633Y-89616666D01*
X147168633Y-89616666D02*
X147501966Y-89583333D01*
X147501966Y-89583333D02*
X147468633Y-89616666D01*
X147468633Y-89616666D02*
X147435300Y-89683333D01*
X147435300Y-89683333D02*
X147435300Y-89850000D01*
X147435300Y-89850000D02*
X147468633Y-89916666D01*
X147468633Y-89916666D02*
X147501966Y-89950000D01*
X147501966Y-89950000D02*
X147568633Y-89983333D01*
X147568633Y-89983333D02*
X147735300Y-89983333D01*
X147735300Y-89983333D02*
X147801966Y-89950000D01*
X147801966Y-89950000D02*
X147835300Y-89916666D01*
X147835300Y-89916666D02*
X147868633Y-89850000D01*
X147868633Y-89850000D02*
X147868633Y-89683333D01*
X147868633Y-89683333D02*
X147835300Y-89616666D01*
X147835300Y-89616666D02*
X147801966Y-89583333D01*
X147218633Y-93449999D02*
X146885300Y-93216666D01*
X147218633Y-93049999D02*
X146518633Y-93049999D01*
X146518633Y-93049999D02*
X146518633Y-93316666D01*
X146518633Y-93316666D02*
X146551966Y-93383333D01*
X146551966Y-93383333D02*
X146585300Y-93416666D01*
X146585300Y-93416666D02*
X146651966Y-93449999D01*
X146651966Y-93449999D02*
X146751966Y-93449999D01*
X146751966Y-93449999D02*
X146818633Y-93416666D01*
X146818633Y-93416666D02*
X146851966Y-93383333D01*
X146851966Y-93383333D02*
X146885300Y-93316666D01*
X146885300Y-93316666D02*
X146885300Y-93049999D01*
X146518633Y-93683333D02*
X146518633Y-94116666D01*
X146518633Y-94116666D02*
X146785300Y-93883333D01*
X146785300Y-93883333D02*
X146785300Y-93983333D01*
X146785300Y-93983333D02*
X146818633Y-94049999D01*
X146818633Y-94049999D02*
X146851966Y-94083333D01*
X146851966Y-94083333D02*
X146918633Y-94116666D01*
X146918633Y-94116666D02*
X147085300Y-94116666D01*
X147085300Y-94116666D02*
X147151966Y-94083333D01*
X147151966Y-94083333D02*
X147185300Y-94049999D01*
X147185300Y-94049999D02*
X147218633Y-93983333D01*
X147218633Y-93983333D02*
X147218633Y-93783333D01*
X147218633Y-93783333D02*
X147185300Y-93716666D01*
X147185300Y-93716666D02*
X147151966Y-93683333D01*
X146518633Y-94350000D02*
X146518633Y-94783333D01*
X146518633Y-94783333D02*
X146785300Y-94550000D01*
X146785300Y-94550000D02*
X146785300Y-94650000D01*
X146785300Y-94650000D02*
X146818633Y-94716666D01*
X146818633Y-94716666D02*
X146851966Y-94750000D01*
X146851966Y-94750000D02*
X146918633Y-94783333D01*
X146918633Y-94783333D02*
X147085300Y-94783333D01*
X147085300Y-94783333D02*
X147151966Y-94750000D01*
X147151966Y-94750000D02*
X147185300Y-94716666D01*
X147185300Y-94716666D02*
X147218633Y-94650000D01*
X147218633Y-94650000D02*
X147218633Y-94450000D01*
X147218633Y-94450000D02*
X147185300Y-94383333D01*
X147185300Y-94383333D02*
X147151966Y-94350000D01*
X116350000Y-89251966D02*
X116383333Y-89285300D01*
X116383333Y-89285300D02*
X116483333Y-89318633D01*
X116483333Y-89318633D02*
X116550000Y-89318633D01*
X116550000Y-89318633D02*
X116650000Y-89285300D01*
X116650000Y-89285300D02*
X116716667Y-89218633D01*
X116716667Y-89218633D02*
X116750000Y-89151966D01*
X116750000Y-89151966D02*
X116783333Y-89018633D01*
X116783333Y-89018633D02*
X116783333Y-88918633D01*
X116783333Y-88918633D02*
X116750000Y-88785300D01*
X116750000Y-88785300D02*
X116716667Y-88718633D01*
X116716667Y-88718633D02*
X116650000Y-88651966D01*
X116650000Y-88651966D02*
X116550000Y-88618633D01*
X116550000Y-88618633D02*
X116483333Y-88618633D01*
X116483333Y-88618633D02*
X116383333Y-88651966D01*
X116383333Y-88651966D02*
X116350000Y-88685300D01*
X115683333Y-89318633D02*
X116083333Y-89318633D01*
X115883333Y-89318633D02*
X115883333Y-88618633D01*
X115883333Y-88618633D02*
X115950000Y-88718633D01*
X115950000Y-88718633D02*
X116016667Y-88785300D01*
X116016667Y-88785300D02*
X116083333Y-88818633D01*
X115350000Y-89318633D02*
X115216666Y-89318633D01*
X115216666Y-89318633D02*
X115150000Y-89285300D01*
X115150000Y-89285300D02*
X115116666Y-89251966D01*
X115116666Y-89251966D02*
X115050000Y-89151966D01*
X115050000Y-89151966D02*
X115016666Y-89018633D01*
X115016666Y-89018633D02*
X115016666Y-88751966D01*
X115016666Y-88751966D02*
X115050000Y-88685300D01*
X115050000Y-88685300D02*
X115083333Y-88651966D01*
X115083333Y-88651966D02*
X115150000Y-88618633D01*
X115150000Y-88618633D02*
X115283333Y-88618633D01*
X115283333Y-88618633D02*
X115350000Y-88651966D01*
X115350000Y-88651966D02*
X115383333Y-88685300D01*
X115383333Y-88685300D02*
X115416666Y-88751966D01*
X115416666Y-88751966D02*
X115416666Y-88918633D01*
X115416666Y-88918633D02*
X115383333Y-88985300D01*
X115383333Y-88985300D02*
X115350000Y-89018633D01*
X115350000Y-89018633D02*
X115283333Y-89051966D01*
X115283333Y-89051966D02*
X115150000Y-89051966D01*
X115150000Y-89051966D02*
X115083333Y-89018633D01*
X115083333Y-89018633D02*
X115050000Y-88985300D01*
X115050000Y-88985300D02*
X115016666Y-88918633D01*
X147049999Y-82918633D02*
X147283332Y-82585300D01*
X147449999Y-82918633D02*
X147449999Y-82218633D01*
X147449999Y-82218633D02*
X147183332Y-82218633D01*
X147183332Y-82218633D02*
X147116666Y-82251966D01*
X147116666Y-82251966D02*
X147083332Y-82285300D01*
X147083332Y-82285300D02*
X147049999Y-82351966D01*
X147049999Y-82351966D02*
X147049999Y-82451966D01*
X147049999Y-82451966D02*
X147083332Y-82518633D01*
X147083332Y-82518633D02*
X147116666Y-82551966D01*
X147116666Y-82551966D02*
X147183332Y-82585300D01*
X147183332Y-82585300D02*
X147449999Y-82585300D01*
X146783332Y-82285300D02*
X146749999Y-82251966D01*
X146749999Y-82251966D02*
X146683332Y-82218633D01*
X146683332Y-82218633D02*
X146516666Y-82218633D01*
X146516666Y-82218633D02*
X146449999Y-82251966D01*
X146449999Y-82251966D02*
X146416666Y-82285300D01*
X146416666Y-82285300D02*
X146383332Y-82351966D01*
X146383332Y-82351966D02*
X146383332Y-82418633D01*
X146383332Y-82418633D02*
X146416666Y-82518633D01*
X146416666Y-82518633D02*
X146816666Y-82918633D01*
X146816666Y-82918633D02*
X146383332Y-82918633D01*
X145716665Y-82918633D02*
X146116665Y-82918633D01*
X145916665Y-82918633D02*
X145916665Y-82218633D01*
X145916665Y-82218633D02*
X145983332Y-82318633D01*
X145983332Y-82318633D02*
X146049999Y-82385300D01*
X146049999Y-82385300D02*
X146116665Y-82418633D01*
X103551966Y-118683333D02*
X103585300Y-118650000D01*
X103585300Y-118650000D02*
X103618633Y-118550000D01*
X103618633Y-118550000D02*
X103618633Y-118483333D01*
X103618633Y-118483333D02*
X103585300Y-118383333D01*
X103585300Y-118383333D02*
X103518633Y-118316667D01*
X103518633Y-118316667D02*
X103451966Y-118283333D01*
X103451966Y-118283333D02*
X103318633Y-118250000D01*
X103318633Y-118250000D02*
X103218633Y-118250000D01*
X103218633Y-118250000D02*
X103085300Y-118283333D01*
X103085300Y-118283333D02*
X103018633Y-118316667D01*
X103018633Y-118316667D02*
X102951966Y-118383333D01*
X102951966Y-118383333D02*
X102918633Y-118483333D01*
X102918633Y-118483333D02*
X102918633Y-118550000D01*
X102918633Y-118550000D02*
X102951966Y-118650000D01*
X102951966Y-118650000D02*
X102985300Y-118683333D01*
X102918633Y-118916667D02*
X102918633Y-119350000D01*
X102918633Y-119350000D02*
X103185300Y-119116667D01*
X103185300Y-119116667D02*
X103185300Y-119216667D01*
X103185300Y-119216667D02*
X103218633Y-119283333D01*
X103218633Y-119283333D02*
X103251966Y-119316667D01*
X103251966Y-119316667D02*
X103318633Y-119350000D01*
X103318633Y-119350000D02*
X103485300Y-119350000D01*
X103485300Y-119350000D02*
X103551966Y-119316667D01*
X103551966Y-119316667D02*
X103585300Y-119283333D01*
X103585300Y-119283333D02*
X103618633Y-119216667D01*
X103618633Y-119216667D02*
X103618633Y-119016667D01*
X103618633Y-119016667D02*
X103585300Y-118950000D01*
X103585300Y-118950000D02*
X103551966Y-118916667D01*
X102350000Y-105818633D02*
X102583333Y-105485300D01*
X102750000Y-105818633D02*
X102750000Y-105118633D01*
X102750000Y-105118633D02*
X102483333Y-105118633D01*
X102483333Y-105118633D02*
X102416667Y-105151966D01*
X102416667Y-105151966D02*
X102383333Y-105185300D01*
X102383333Y-105185300D02*
X102350000Y-105251966D01*
X102350000Y-105251966D02*
X102350000Y-105351966D01*
X102350000Y-105351966D02*
X102383333Y-105418633D01*
X102383333Y-105418633D02*
X102416667Y-105451966D01*
X102416667Y-105451966D02*
X102483333Y-105485300D01*
X102483333Y-105485300D02*
X102750000Y-105485300D01*
X102116667Y-105118633D02*
X101683333Y-105118633D01*
X101683333Y-105118633D02*
X101916667Y-105385300D01*
X101916667Y-105385300D02*
X101816667Y-105385300D01*
X101816667Y-105385300D02*
X101750000Y-105418633D01*
X101750000Y-105418633D02*
X101716667Y-105451966D01*
X101716667Y-105451966D02*
X101683333Y-105518633D01*
X101683333Y-105518633D02*
X101683333Y-105685300D01*
X101683333Y-105685300D02*
X101716667Y-105751966D01*
X101716667Y-105751966D02*
X101750000Y-105785300D01*
X101750000Y-105785300D02*
X101816667Y-105818633D01*
X101816667Y-105818633D02*
X102016667Y-105818633D01*
X102016667Y-105818633D02*
X102083333Y-105785300D01*
X102083333Y-105785300D02*
X102116667Y-105751966D01*
X101283333Y-105418633D02*
X101350000Y-105385300D01*
X101350000Y-105385300D02*
X101383333Y-105351966D01*
X101383333Y-105351966D02*
X101416666Y-105285300D01*
X101416666Y-105285300D02*
X101416666Y-105251966D01*
X101416666Y-105251966D02*
X101383333Y-105185300D01*
X101383333Y-105185300D02*
X101350000Y-105151966D01*
X101350000Y-105151966D02*
X101283333Y-105118633D01*
X101283333Y-105118633D02*
X101150000Y-105118633D01*
X101150000Y-105118633D02*
X101083333Y-105151966D01*
X101083333Y-105151966D02*
X101050000Y-105185300D01*
X101050000Y-105185300D02*
X101016666Y-105251966D01*
X101016666Y-105251966D02*
X101016666Y-105285300D01*
X101016666Y-105285300D02*
X101050000Y-105351966D01*
X101050000Y-105351966D02*
X101083333Y-105385300D01*
X101083333Y-105385300D02*
X101150000Y-105418633D01*
X101150000Y-105418633D02*
X101283333Y-105418633D01*
X101283333Y-105418633D02*
X101350000Y-105451966D01*
X101350000Y-105451966D02*
X101383333Y-105485300D01*
X101383333Y-105485300D02*
X101416666Y-105551966D01*
X101416666Y-105551966D02*
X101416666Y-105685300D01*
X101416666Y-105685300D02*
X101383333Y-105751966D01*
X101383333Y-105751966D02*
X101350000Y-105785300D01*
X101350000Y-105785300D02*
X101283333Y-105818633D01*
X101283333Y-105818633D02*
X101150000Y-105818633D01*
X101150000Y-105818633D02*
X101083333Y-105785300D01*
X101083333Y-105785300D02*
X101050000Y-105751966D01*
X101050000Y-105751966D02*
X101016666Y-105685300D01*
X101016666Y-105685300D02*
X101016666Y-105551966D01*
X101016666Y-105551966D02*
X101050000Y-105485300D01*
X101050000Y-105485300D02*
X101083333Y-105451966D01*
X101083333Y-105451966D02*
X101150000Y-105418633D01*
X120116666Y-98718633D02*
X120349999Y-98385300D01*
X120516666Y-98718633D02*
X120516666Y-98018633D01*
X120516666Y-98018633D02*
X120249999Y-98018633D01*
X120249999Y-98018633D02*
X120183333Y-98051966D01*
X120183333Y-98051966D02*
X120149999Y-98085300D01*
X120149999Y-98085300D02*
X120116666Y-98151966D01*
X120116666Y-98151966D02*
X120116666Y-98251966D01*
X120116666Y-98251966D02*
X120149999Y-98318633D01*
X120149999Y-98318633D02*
X120183333Y-98351966D01*
X120183333Y-98351966D02*
X120249999Y-98385300D01*
X120249999Y-98385300D02*
X120516666Y-98385300D01*
X119516666Y-98251966D02*
X119516666Y-98718633D01*
X119683333Y-97985300D02*
X119849999Y-98485300D01*
X119849999Y-98485300D02*
X119416666Y-98485300D01*
X103518633Y-78666666D02*
X104085300Y-78666666D01*
X104085300Y-78666666D02*
X104151966Y-78700000D01*
X104151966Y-78700000D02*
X104185300Y-78733333D01*
X104185300Y-78733333D02*
X104218633Y-78800000D01*
X104218633Y-78800000D02*
X104218633Y-78933333D01*
X104218633Y-78933333D02*
X104185300Y-79000000D01*
X104185300Y-79000000D02*
X104151966Y-79033333D01*
X104151966Y-79033333D02*
X104085300Y-79066666D01*
X104085300Y-79066666D02*
X103518633Y-79066666D01*
X103585300Y-79366666D02*
X103551966Y-79399999D01*
X103551966Y-79399999D02*
X103518633Y-79466666D01*
X103518633Y-79466666D02*
X103518633Y-79633333D01*
X103518633Y-79633333D02*
X103551966Y-79699999D01*
X103551966Y-79699999D02*
X103585300Y-79733333D01*
X103585300Y-79733333D02*
X103651966Y-79766666D01*
X103651966Y-79766666D02*
X103718633Y-79766666D01*
X103718633Y-79766666D02*
X103818633Y-79733333D01*
X103818633Y-79733333D02*
X104218633Y-79333333D01*
X104218633Y-79333333D02*
X104218633Y-79766666D01*
X148150000Y-101218633D02*
X148383333Y-100885300D01*
X148550000Y-101218633D02*
X148550000Y-100518633D01*
X148550000Y-100518633D02*
X148283333Y-100518633D01*
X148283333Y-100518633D02*
X148216667Y-100551966D01*
X148216667Y-100551966D02*
X148183333Y-100585300D01*
X148183333Y-100585300D02*
X148150000Y-100651966D01*
X148150000Y-100651966D02*
X148150000Y-100751966D01*
X148150000Y-100751966D02*
X148183333Y-100818633D01*
X148183333Y-100818633D02*
X148216667Y-100851966D01*
X148216667Y-100851966D02*
X148283333Y-100885300D01*
X148283333Y-100885300D02*
X148550000Y-100885300D01*
X147883333Y-100585300D02*
X147850000Y-100551966D01*
X147850000Y-100551966D02*
X147783333Y-100518633D01*
X147783333Y-100518633D02*
X147616667Y-100518633D01*
X147616667Y-100518633D02*
X147550000Y-100551966D01*
X147550000Y-100551966D02*
X147516667Y-100585300D01*
X147516667Y-100585300D02*
X147483333Y-100651966D01*
X147483333Y-100651966D02*
X147483333Y-100718633D01*
X147483333Y-100718633D02*
X147516667Y-100818633D01*
X147516667Y-100818633D02*
X147916667Y-101218633D01*
X147916667Y-101218633D02*
X147483333Y-101218633D01*
X147083333Y-100818633D02*
X147150000Y-100785300D01*
X147150000Y-100785300D02*
X147183333Y-100751966D01*
X147183333Y-100751966D02*
X147216666Y-100685300D01*
X147216666Y-100685300D02*
X147216666Y-100651966D01*
X147216666Y-100651966D02*
X147183333Y-100585300D01*
X147183333Y-100585300D02*
X147150000Y-100551966D01*
X147150000Y-100551966D02*
X147083333Y-100518633D01*
X147083333Y-100518633D02*
X146950000Y-100518633D01*
X146950000Y-100518633D02*
X146883333Y-100551966D01*
X146883333Y-100551966D02*
X146850000Y-100585300D01*
X146850000Y-100585300D02*
X146816666Y-100651966D01*
X146816666Y-100651966D02*
X146816666Y-100685300D01*
X146816666Y-100685300D02*
X146850000Y-100751966D01*
X146850000Y-100751966D02*
X146883333Y-100785300D01*
X146883333Y-100785300D02*
X146950000Y-100818633D01*
X146950000Y-100818633D02*
X147083333Y-100818633D01*
X147083333Y-100818633D02*
X147150000Y-100851966D01*
X147150000Y-100851966D02*
X147183333Y-100885300D01*
X147183333Y-100885300D02*
X147216666Y-100951966D01*
X147216666Y-100951966D02*
X147216666Y-101085300D01*
X147216666Y-101085300D02*
X147183333Y-101151966D01*
X147183333Y-101151966D02*
X147150000Y-101185300D01*
X147150000Y-101185300D02*
X147083333Y-101218633D01*
X147083333Y-101218633D02*
X146950000Y-101218633D01*
X146950000Y-101218633D02*
X146883333Y-101185300D01*
X146883333Y-101185300D02*
X146850000Y-101151966D01*
X146850000Y-101151966D02*
X146816666Y-101085300D01*
X146816666Y-101085300D02*
X146816666Y-100951966D01*
X146816666Y-100951966D02*
X146850000Y-100885300D01*
X146850000Y-100885300D02*
X146883333Y-100851966D01*
X146883333Y-100851966D02*
X146950000Y-100818633D01*
X114266666Y-98185300D02*
X114333333Y-98151966D01*
X114333333Y-98151966D02*
X114400000Y-98085300D01*
X114400000Y-98085300D02*
X114500000Y-97985300D01*
X114500000Y-97985300D02*
X114566666Y-97951966D01*
X114566666Y-97951966D02*
X114633333Y-97951966D01*
X114600000Y-98118633D02*
X114666666Y-98085300D01*
X114666666Y-98085300D02*
X114733333Y-98018633D01*
X114733333Y-98018633D02*
X114766666Y-97885300D01*
X114766666Y-97885300D02*
X114766666Y-97651966D01*
X114766666Y-97651966D02*
X114733333Y-97518633D01*
X114733333Y-97518633D02*
X114666666Y-97451966D01*
X114666666Y-97451966D02*
X114600000Y-97418633D01*
X114600000Y-97418633D02*
X114466666Y-97418633D01*
X114466666Y-97418633D02*
X114400000Y-97451966D01*
X114400000Y-97451966D02*
X114333333Y-97518633D01*
X114333333Y-97518633D02*
X114300000Y-97651966D01*
X114300000Y-97651966D02*
X114300000Y-97885300D01*
X114300000Y-97885300D02*
X114333333Y-98018633D01*
X114333333Y-98018633D02*
X114400000Y-98085300D01*
X114400000Y-98085300D02*
X114466666Y-98118633D01*
X114466666Y-98118633D02*
X114600000Y-98118633D01*
X114066667Y-97418633D02*
X113633333Y-97418633D01*
X113633333Y-97418633D02*
X113866667Y-97685300D01*
X113866667Y-97685300D02*
X113766667Y-97685300D01*
X113766667Y-97685300D02*
X113700000Y-97718633D01*
X113700000Y-97718633D02*
X113666667Y-97751966D01*
X113666667Y-97751966D02*
X113633333Y-97818633D01*
X113633333Y-97818633D02*
X113633333Y-97985300D01*
X113633333Y-97985300D02*
X113666667Y-98051966D01*
X113666667Y-98051966D02*
X113700000Y-98085300D01*
X113700000Y-98085300D02*
X113766667Y-98118633D01*
X113766667Y-98118633D02*
X113966667Y-98118633D01*
X113966667Y-98118633D02*
X114033333Y-98085300D01*
X114033333Y-98085300D02*
X114066667Y-98051966D01*
X148100000Y-96618633D02*
X148333333Y-96285300D01*
X148500000Y-96618633D02*
X148500000Y-95918633D01*
X148500000Y-95918633D02*
X148233333Y-95918633D01*
X148233333Y-95918633D02*
X148166667Y-95951966D01*
X148166667Y-95951966D02*
X148133333Y-95985300D01*
X148133333Y-95985300D02*
X148100000Y-96051966D01*
X148100000Y-96051966D02*
X148100000Y-96151966D01*
X148100000Y-96151966D02*
X148133333Y-96218633D01*
X148133333Y-96218633D02*
X148166667Y-96251966D01*
X148166667Y-96251966D02*
X148233333Y-96285300D01*
X148233333Y-96285300D02*
X148500000Y-96285300D01*
X147833333Y-95985300D02*
X147800000Y-95951966D01*
X147800000Y-95951966D02*
X147733333Y-95918633D01*
X147733333Y-95918633D02*
X147566667Y-95918633D01*
X147566667Y-95918633D02*
X147500000Y-95951966D01*
X147500000Y-95951966D02*
X147466667Y-95985300D01*
X147466667Y-95985300D02*
X147433333Y-96051966D01*
X147433333Y-96051966D02*
X147433333Y-96118633D01*
X147433333Y-96118633D02*
X147466667Y-96218633D01*
X147466667Y-96218633D02*
X147866667Y-96618633D01*
X147866667Y-96618633D02*
X147433333Y-96618633D01*
X147200000Y-95918633D02*
X146733333Y-95918633D01*
X146733333Y-95918633D02*
X147033333Y-96618633D01*
X106831966Y-111549999D02*
X106865300Y-111516666D01*
X106865300Y-111516666D02*
X106898633Y-111416666D01*
X106898633Y-111416666D02*
X106898633Y-111349999D01*
X106898633Y-111349999D02*
X106865300Y-111249999D01*
X106865300Y-111249999D02*
X106798633Y-111183333D01*
X106798633Y-111183333D02*
X106731966Y-111149999D01*
X106731966Y-111149999D02*
X106598633Y-111116666D01*
X106598633Y-111116666D02*
X106498633Y-111116666D01*
X106498633Y-111116666D02*
X106365300Y-111149999D01*
X106365300Y-111149999D02*
X106298633Y-111183333D01*
X106298633Y-111183333D02*
X106231966Y-111249999D01*
X106231966Y-111249999D02*
X106198633Y-111349999D01*
X106198633Y-111349999D02*
X106198633Y-111416666D01*
X106198633Y-111416666D02*
X106231966Y-111516666D01*
X106231966Y-111516666D02*
X106265300Y-111549999D01*
X106265300Y-111816666D02*
X106231966Y-111849999D01*
X106231966Y-111849999D02*
X106198633Y-111916666D01*
X106198633Y-111916666D02*
X106198633Y-112083333D01*
X106198633Y-112083333D02*
X106231966Y-112149999D01*
X106231966Y-112149999D02*
X106265300Y-112183333D01*
X106265300Y-112183333D02*
X106331966Y-112216666D01*
X106331966Y-112216666D02*
X106398633Y-112216666D01*
X106398633Y-112216666D02*
X106498633Y-112183333D01*
X106498633Y-112183333D02*
X106898633Y-111783333D01*
X106898633Y-111783333D02*
X106898633Y-112216666D01*
X106431966Y-112816666D02*
X106898633Y-112816666D01*
X106165300Y-112650000D02*
X106665300Y-112483333D01*
X106665300Y-112483333D02*
X106665300Y-112916666D01*
X106933333Y-98335300D02*
X106833333Y-98368633D01*
X106833333Y-98368633D02*
X106666667Y-98368633D01*
X106666667Y-98368633D02*
X106600000Y-98335300D01*
X106600000Y-98335300D02*
X106566667Y-98301966D01*
X106566667Y-98301966D02*
X106533333Y-98235300D01*
X106533333Y-98235300D02*
X106533333Y-98168633D01*
X106533333Y-98168633D02*
X106566667Y-98101966D01*
X106566667Y-98101966D02*
X106600000Y-98068633D01*
X106600000Y-98068633D02*
X106666667Y-98035300D01*
X106666667Y-98035300D02*
X106800000Y-98001966D01*
X106800000Y-98001966D02*
X106866667Y-97968633D01*
X106866667Y-97968633D02*
X106900000Y-97935300D01*
X106900000Y-97935300D02*
X106933333Y-97868633D01*
X106933333Y-97868633D02*
X106933333Y-97801966D01*
X106933333Y-97801966D02*
X106900000Y-97735300D01*
X106900000Y-97735300D02*
X106866667Y-97701966D01*
X106866667Y-97701966D02*
X106800000Y-97668633D01*
X106800000Y-97668633D02*
X106633333Y-97668633D01*
X106633333Y-97668633D02*
X106533333Y-97701966D01*
X106300000Y-97668633D02*
X106133333Y-98368633D01*
X106133333Y-98368633D02*
X106000000Y-97868633D01*
X106000000Y-97868633D02*
X105866666Y-98368633D01*
X105866666Y-98368633D02*
X105700000Y-97668633D01*
X105066666Y-98368633D02*
X105466666Y-98368633D01*
X105266666Y-98368633D02*
X105266666Y-97668633D01*
X105266666Y-97668633D02*
X105333333Y-97768633D01*
X105333333Y-97768633D02*
X105400000Y-97835300D01*
X105400000Y-97835300D02*
X105466666Y-97868633D01*
X131450000Y-95518633D02*
X131683333Y-95185300D01*
X131850000Y-95518633D02*
X131850000Y-94818633D01*
X131850000Y-94818633D02*
X131583333Y-94818633D01*
X131583333Y-94818633D02*
X131516667Y-94851966D01*
X131516667Y-94851966D02*
X131483333Y-94885300D01*
X131483333Y-94885300D02*
X131450000Y-94951966D01*
X131450000Y-94951966D02*
X131450000Y-95051966D01*
X131450000Y-95051966D02*
X131483333Y-95118633D01*
X131483333Y-95118633D02*
X131516667Y-95151966D01*
X131516667Y-95151966D02*
X131583333Y-95185300D01*
X131583333Y-95185300D02*
X131850000Y-95185300D01*
X131216667Y-94818633D02*
X130783333Y-94818633D01*
X130783333Y-94818633D02*
X131016667Y-95085300D01*
X131016667Y-95085300D02*
X130916667Y-95085300D01*
X130916667Y-95085300D02*
X130850000Y-95118633D01*
X130850000Y-95118633D02*
X130816667Y-95151966D01*
X130816667Y-95151966D02*
X130783333Y-95218633D01*
X130783333Y-95218633D02*
X130783333Y-95385300D01*
X130783333Y-95385300D02*
X130816667Y-95451966D01*
X130816667Y-95451966D02*
X130850000Y-95485300D01*
X130850000Y-95485300D02*
X130916667Y-95518633D01*
X130916667Y-95518633D02*
X131116667Y-95518633D01*
X131116667Y-95518633D02*
X131183333Y-95485300D01*
X131183333Y-95485300D02*
X131216667Y-95451966D01*
X130516666Y-94885300D02*
X130483333Y-94851966D01*
X130483333Y-94851966D02*
X130416666Y-94818633D01*
X130416666Y-94818633D02*
X130250000Y-94818633D01*
X130250000Y-94818633D02*
X130183333Y-94851966D01*
X130183333Y-94851966D02*
X130150000Y-94885300D01*
X130150000Y-94885300D02*
X130116666Y-94951966D01*
X130116666Y-94951966D02*
X130116666Y-95018633D01*
X130116666Y-95018633D02*
X130150000Y-95118633D01*
X130150000Y-95118633D02*
X130550000Y-95518633D01*
X130550000Y-95518633D02*
X130116666Y-95518633D01*
X124618633Y-95449999D02*
X124285300Y-95216666D01*
X124618633Y-95049999D02*
X123918633Y-95049999D01*
X123918633Y-95049999D02*
X123918633Y-95316666D01*
X123918633Y-95316666D02*
X123951966Y-95383333D01*
X123951966Y-95383333D02*
X123985300Y-95416666D01*
X123985300Y-95416666D02*
X124051966Y-95449999D01*
X124051966Y-95449999D02*
X124151966Y-95449999D01*
X124151966Y-95449999D02*
X124218633Y-95416666D01*
X124218633Y-95416666D02*
X124251966Y-95383333D01*
X124251966Y-95383333D02*
X124285300Y-95316666D01*
X124285300Y-95316666D02*
X124285300Y-95049999D01*
X123918633Y-95683333D02*
X123918633Y-96116666D01*
X123918633Y-96116666D02*
X124185300Y-95883333D01*
X124185300Y-95883333D02*
X124185300Y-95983333D01*
X124185300Y-95983333D02*
X124218633Y-96049999D01*
X124218633Y-96049999D02*
X124251966Y-96083333D01*
X124251966Y-96083333D02*
X124318633Y-96116666D01*
X124318633Y-96116666D02*
X124485300Y-96116666D01*
X124485300Y-96116666D02*
X124551966Y-96083333D01*
X124551966Y-96083333D02*
X124585300Y-96049999D01*
X124585300Y-96049999D02*
X124618633Y-95983333D01*
X124618633Y-95983333D02*
X124618633Y-95783333D01*
X124618633Y-95783333D02*
X124585300Y-95716666D01*
X124585300Y-95716666D02*
X124551966Y-95683333D01*
X123918633Y-96716666D02*
X123918633Y-96583333D01*
X123918633Y-96583333D02*
X123951966Y-96516666D01*
X123951966Y-96516666D02*
X123985300Y-96483333D01*
X123985300Y-96483333D02*
X124085300Y-96416666D01*
X124085300Y-96416666D02*
X124218633Y-96383333D01*
X124218633Y-96383333D02*
X124485300Y-96383333D01*
X124485300Y-96383333D02*
X124551966Y-96416666D01*
X124551966Y-96416666D02*
X124585300Y-96450000D01*
X124585300Y-96450000D02*
X124618633Y-96516666D01*
X124618633Y-96516666D02*
X124618633Y-96650000D01*
X124618633Y-96650000D02*
X124585300Y-96716666D01*
X124585300Y-96716666D02*
X124551966Y-96750000D01*
X124551966Y-96750000D02*
X124485300Y-96783333D01*
X124485300Y-96783333D02*
X124318633Y-96783333D01*
X124318633Y-96783333D02*
X124251966Y-96750000D01*
X124251966Y-96750000D02*
X124218633Y-96716666D01*
X124218633Y-96716666D02*
X124185300Y-96650000D01*
X124185300Y-96650000D02*
X124185300Y-96516666D01*
X124185300Y-96516666D02*
X124218633Y-96450000D01*
X124218633Y-96450000D02*
X124251966Y-96416666D01*
X124251966Y-96416666D02*
X124318633Y-96383333D01*
X102150000Y-109618633D02*
X102383333Y-109285300D01*
X102550000Y-109618633D02*
X102550000Y-108918633D01*
X102550000Y-108918633D02*
X102283333Y-108918633D01*
X102283333Y-108918633D02*
X102216667Y-108951966D01*
X102216667Y-108951966D02*
X102183333Y-108985300D01*
X102183333Y-108985300D02*
X102150000Y-109051966D01*
X102150000Y-109051966D02*
X102150000Y-109151966D01*
X102150000Y-109151966D02*
X102183333Y-109218633D01*
X102183333Y-109218633D02*
X102216667Y-109251966D01*
X102216667Y-109251966D02*
X102283333Y-109285300D01*
X102283333Y-109285300D02*
X102550000Y-109285300D01*
X101883333Y-108985300D02*
X101850000Y-108951966D01*
X101850000Y-108951966D02*
X101783333Y-108918633D01*
X101783333Y-108918633D02*
X101616667Y-108918633D01*
X101616667Y-108918633D02*
X101550000Y-108951966D01*
X101550000Y-108951966D02*
X101516667Y-108985300D01*
X101516667Y-108985300D02*
X101483333Y-109051966D01*
X101483333Y-109051966D02*
X101483333Y-109118633D01*
X101483333Y-109118633D02*
X101516667Y-109218633D01*
X101516667Y-109218633D02*
X101916667Y-109618633D01*
X101916667Y-109618633D02*
X101483333Y-109618633D01*
X101250000Y-108918633D02*
X100816666Y-108918633D01*
X100816666Y-108918633D02*
X101050000Y-109185300D01*
X101050000Y-109185300D02*
X100950000Y-109185300D01*
X100950000Y-109185300D02*
X100883333Y-109218633D01*
X100883333Y-109218633D02*
X100850000Y-109251966D01*
X100850000Y-109251966D02*
X100816666Y-109318633D01*
X100816666Y-109318633D02*
X100816666Y-109485300D01*
X100816666Y-109485300D02*
X100850000Y-109551966D01*
X100850000Y-109551966D02*
X100883333Y-109585300D01*
X100883333Y-109585300D02*
X100950000Y-109618633D01*
X100950000Y-109618633D02*
X101150000Y-109618633D01*
X101150000Y-109618633D02*
X101216666Y-109585300D01*
X101216666Y-109585300D02*
X101250000Y-109551966D01*
X105418633Y-119666666D02*
X105985300Y-119666666D01*
X105985300Y-119666666D02*
X106051966Y-119700000D01*
X106051966Y-119700000D02*
X106085300Y-119733333D01*
X106085300Y-119733333D02*
X106118633Y-119800000D01*
X106118633Y-119800000D02*
X106118633Y-119933333D01*
X106118633Y-119933333D02*
X106085300Y-120000000D01*
X106085300Y-120000000D02*
X106051966Y-120033333D01*
X106051966Y-120033333D02*
X105985300Y-120066666D01*
X105985300Y-120066666D02*
X105418633Y-120066666D01*
X105418633Y-120333333D02*
X105418633Y-120766666D01*
X105418633Y-120766666D02*
X105685300Y-120533333D01*
X105685300Y-120533333D02*
X105685300Y-120633333D01*
X105685300Y-120633333D02*
X105718633Y-120699999D01*
X105718633Y-120699999D02*
X105751966Y-120733333D01*
X105751966Y-120733333D02*
X105818633Y-120766666D01*
X105818633Y-120766666D02*
X105985300Y-120766666D01*
X105985300Y-120766666D02*
X106051966Y-120733333D01*
X106051966Y-120733333D02*
X106085300Y-120699999D01*
X106085300Y-120699999D02*
X106118633Y-120633333D01*
X106118633Y-120633333D02*
X106118633Y-120433333D01*
X106118633Y-120433333D02*
X106085300Y-120366666D01*
X106085300Y-120366666D02*
X106051966Y-120333333D01*
X113750000Y-92418633D02*
X113983333Y-92085300D01*
X114150000Y-92418633D02*
X114150000Y-91718633D01*
X114150000Y-91718633D02*
X113883333Y-91718633D01*
X113883333Y-91718633D02*
X113816667Y-91751966D01*
X113816667Y-91751966D02*
X113783333Y-91785300D01*
X113783333Y-91785300D02*
X113750000Y-91851966D01*
X113750000Y-91851966D02*
X113750000Y-91951966D01*
X113750000Y-91951966D02*
X113783333Y-92018633D01*
X113783333Y-92018633D02*
X113816667Y-92051966D01*
X113816667Y-92051966D02*
X113883333Y-92085300D01*
X113883333Y-92085300D02*
X114150000Y-92085300D01*
X113083333Y-92418633D02*
X113483333Y-92418633D01*
X113283333Y-92418633D02*
X113283333Y-91718633D01*
X113283333Y-91718633D02*
X113350000Y-91818633D01*
X113350000Y-91818633D02*
X113416667Y-91885300D01*
X113416667Y-91885300D02*
X113483333Y-91918633D01*
X112816666Y-91785300D02*
X112783333Y-91751966D01*
X112783333Y-91751966D02*
X112716666Y-91718633D01*
X112716666Y-91718633D02*
X112550000Y-91718633D01*
X112550000Y-91718633D02*
X112483333Y-91751966D01*
X112483333Y-91751966D02*
X112450000Y-91785300D01*
X112450000Y-91785300D02*
X112416666Y-91851966D01*
X112416666Y-91851966D02*
X112416666Y-91918633D01*
X112416666Y-91918633D02*
X112450000Y-92018633D01*
X112450000Y-92018633D02*
X112850000Y-92418633D01*
X112850000Y-92418633D02*
X112416666Y-92418633D01*
X146450000Y-88751966D02*
X146483333Y-88785300D01*
X146483333Y-88785300D02*
X146583333Y-88818633D01*
X146583333Y-88818633D02*
X146650000Y-88818633D01*
X146650000Y-88818633D02*
X146750000Y-88785300D01*
X146750000Y-88785300D02*
X146816667Y-88718633D01*
X146816667Y-88718633D02*
X146850000Y-88651966D01*
X146850000Y-88651966D02*
X146883333Y-88518633D01*
X146883333Y-88518633D02*
X146883333Y-88418633D01*
X146883333Y-88418633D02*
X146850000Y-88285300D01*
X146850000Y-88285300D02*
X146816667Y-88218633D01*
X146816667Y-88218633D02*
X146750000Y-88151966D01*
X146750000Y-88151966D02*
X146650000Y-88118633D01*
X146650000Y-88118633D02*
X146583333Y-88118633D01*
X146583333Y-88118633D02*
X146483333Y-88151966D01*
X146483333Y-88151966D02*
X146450000Y-88185300D01*
X146183333Y-88185300D02*
X146150000Y-88151966D01*
X146150000Y-88151966D02*
X146083333Y-88118633D01*
X146083333Y-88118633D02*
X145916667Y-88118633D01*
X145916667Y-88118633D02*
X145850000Y-88151966D01*
X145850000Y-88151966D02*
X145816667Y-88185300D01*
X145816667Y-88185300D02*
X145783333Y-88251966D01*
X145783333Y-88251966D02*
X145783333Y-88318633D01*
X145783333Y-88318633D02*
X145816667Y-88418633D01*
X145816667Y-88418633D02*
X146216667Y-88818633D01*
X146216667Y-88818633D02*
X145783333Y-88818633D01*
X145550000Y-88118633D02*
X145083333Y-88118633D01*
X145083333Y-88118633D02*
X145383333Y-88818633D01*
X134251966Y-83949999D02*
X134285300Y-83916666D01*
X134285300Y-83916666D02*
X134318633Y-83816666D01*
X134318633Y-83816666D02*
X134318633Y-83749999D01*
X134318633Y-83749999D02*
X134285300Y-83649999D01*
X134285300Y-83649999D02*
X134218633Y-83583333D01*
X134218633Y-83583333D02*
X134151966Y-83549999D01*
X134151966Y-83549999D02*
X134018633Y-83516666D01*
X134018633Y-83516666D02*
X133918633Y-83516666D01*
X133918633Y-83516666D02*
X133785300Y-83549999D01*
X133785300Y-83549999D02*
X133718633Y-83583333D01*
X133718633Y-83583333D02*
X133651966Y-83649999D01*
X133651966Y-83649999D02*
X133618633Y-83749999D01*
X133618633Y-83749999D02*
X133618633Y-83816666D01*
X133618633Y-83816666D02*
X133651966Y-83916666D01*
X133651966Y-83916666D02*
X133685300Y-83949999D01*
X133618633Y-84183333D02*
X133618633Y-84616666D01*
X133618633Y-84616666D02*
X133885300Y-84383333D01*
X133885300Y-84383333D02*
X133885300Y-84483333D01*
X133885300Y-84483333D02*
X133918633Y-84549999D01*
X133918633Y-84549999D02*
X133951966Y-84583333D01*
X133951966Y-84583333D02*
X134018633Y-84616666D01*
X134018633Y-84616666D02*
X134185300Y-84616666D01*
X134185300Y-84616666D02*
X134251966Y-84583333D01*
X134251966Y-84583333D02*
X134285300Y-84549999D01*
X134285300Y-84549999D02*
X134318633Y-84483333D01*
X134318633Y-84483333D02*
X134318633Y-84283333D01*
X134318633Y-84283333D02*
X134285300Y-84216666D01*
X134285300Y-84216666D02*
X134251966Y-84183333D01*
X134318633Y-85283333D02*
X134318633Y-84883333D01*
X134318633Y-85083333D02*
X133618633Y-85083333D01*
X133618633Y-85083333D02*
X133718633Y-85016666D01*
X133718633Y-85016666D02*
X133785300Y-84950000D01*
X133785300Y-84950000D02*
X133818633Y-84883333D01*
X140118633Y-83699999D02*
X139785300Y-83466666D01*
X140118633Y-83299999D02*
X139418633Y-83299999D01*
X139418633Y-83299999D02*
X139418633Y-83566666D01*
X139418633Y-83566666D02*
X139451966Y-83633333D01*
X139451966Y-83633333D02*
X139485300Y-83666666D01*
X139485300Y-83666666D02*
X139551966Y-83699999D01*
X139551966Y-83699999D02*
X139651966Y-83699999D01*
X139651966Y-83699999D02*
X139718633Y-83666666D01*
X139718633Y-83666666D02*
X139751966Y-83633333D01*
X139751966Y-83633333D02*
X139785300Y-83566666D01*
X139785300Y-83566666D02*
X139785300Y-83299999D01*
X139485300Y-83966666D02*
X139451966Y-83999999D01*
X139451966Y-83999999D02*
X139418633Y-84066666D01*
X139418633Y-84066666D02*
X139418633Y-84233333D01*
X139418633Y-84233333D02*
X139451966Y-84299999D01*
X139451966Y-84299999D02*
X139485300Y-84333333D01*
X139485300Y-84333333D02*
X139551966Y-84366666D01*
X139551966Y-84366666D02*
X139618633Y-84366666D01*
X139618633Y-84366666D02*
X139718633Y-84333333D01*
X139718633Y-84333333D02*
X140118633Y-83933333D01*
X140118633Y-83933333D02*
X140118633Y-84366666D01*
X139418633Y-85000000D02*
X139418633Y-84666666D01*
X139418633Y-84666666D02*
X139751966Y-84633333D01*
X139751966Y-84633333D02*
X139718633Y-84666666D01*
X139718633Y-84666666D02*
X139685300Y-84733333D01*
X139685300Y-84733333D02*
X139685300Y-84900000D01*
X139685300Y-84900000D02*
X139718633Y-84966666D01*
X139718633Y-84966666D02*
X139751966Y-85000000D01*
X139751966Y-85000000D02*
X139818633Y-85033333D01*
X139818633Y-85033333D02*
X139985300Y-85033333D01*
X139985300Y-85033333D02*
X140051966Y-85000000D01*
X140051966Y-85000000D02*
X140085300Y-84966666D01*
X140085300Y-84966666D02*
X140118633Y-84900000D01*
X140118633Y-84900000D02*
X140118633Y-84733333D01*
X140118633Y-84733333D02*
X140085300Y-84666666D01*
X140085300Y-84666666D02*
X140051966Y-84633333D01*
X124816666Y-100018633D02*
X124816666Y-99318633D01*
X124816666Y-99318633D02*
X124649999Y-99318633D01*
X124649999Y-99318633D02*
X124549999Y-99351966D01*
X124549999Y-99351966D02*
X124483333Y-99418633D01*
X124483333Y-99418633D02*
X124449999Y-99485300D01*
X124449999Y-99485300D02*
X124416666Y-99618633D01*
X124416666Y-99618633D02*
X124416666Y-99718633D01*
X124416666Y-99718633D02*
X124449999Y-99851966D01*
X124449999Y-99851966D02*
X124483333Y-99918633D01*
X124483333Y-99918633D02*
X124549999Y-99985300D01*
X124549999Y-99985300D02*
X124649999Y-100018633D01*
X124649999Y-100018633D02*
X124816666Y-100018633D01*
X124183333Y-99318633D02*
X123716666Y-99318633D01*
X123716666Y-99318633D02*
X124016666Y-100018633D01*
X143751966Y-83599999D02*
X143785300Y-83566666D01*
X143785300Y-83566666D02*
X143818633Y-83466666D01*
X143818633Y-83466666D02*
X143818633Y-83399999D01*
X143818633Y-83399999D02*
X143785300Y-83299999D01*
X143785300Y-83299999D02*
X143718633Y-83233333D01*
X143718633Y-83233333D02*
X143651966Y-83199999D01*
X143651966Y-83199999D02*
X143518633Y-83166666D01*
X143518633Y-83166666D02*
X143418633Y-83166666D01*
X143418633Y-83166666D02*
X143285300Y-83199999D01*
X143285300Y-83199999D02*
X143218633Y-83233333D01*
X143218633Y-83233333D02*
X143151966Y-83299999D01*
X143151966Y-83299999D02*
X143118633Y-83399999D01*
X143118633Y-83399999D02*
X143118633Y-83466666D01*
X143118633Y-83466666D02*
X143151966Y-83566666D01*
X143151966Y-83566666D02*
X143185300Y-83599999D01*
X143185300Y-83866666D02*
X143151966Y-83899999D01*
X143151966Y-83899999D02*
X143118633Y-83966666D01*
X143118633Y-83966666D02*
X143118633Y-84133333D01*
X143118633Y-84133333D02*
X143151966Y-84199999D01*
X143151966Y-84199999D02*
X143185300Y-84233333D01*
X143185300Y-84233333D02*
X143251966Y-84266666D01*
X143251966Y-84266666D02*
X143318633Y-84266666D01*
X143318633Y-84266666D02*
X143418633Y-84233333D01*
X143418633Y-84233333D02*
X143818633Y-83833333D01*
X143818633Y-83833333D02*
X143818633Y-84266666D01*
X143818633Y-84600000D02*
X143818633Y-84733333D01*
X143818633Y-84733333D02*
X143785300Y-84800000D01*
X143785300Y-84800000D02*
X143751966Y-84833333D01*
X143751966Y-84833333D02*
X143651966Y-84900000D01*
X143651966Y-84900000D02*
X143518633Y-84933333D01*
X143518633Y-84933333D02*
X143251966Y-84933333D01*
X143251966Y-84933333D02*
X143185300Y-84900000D01*
X143185300Y-84900000D02*
X143151966Y-84866666D01*
X143151966Y-84866666D02*
X143118633Y-84800000D01*
X143118633Y-84800000D02*
X143118633Y-84666666D01*
X143118633Y-84666666D02*
X143151966Y-84600000D01*
X143151966Y-84600000D02*
X143185300Y-84566666D01*
X143185300Y-84566666D02*
X143251966Y-84533333D01*
X143251966Y-84533333D02*
X143418633Y-84533333D01*
X143418633Y-84533333D02*
X143485300Y-84566666D01*
X143485300Y-84566666D02*
X143518633Y-84600000D01*
X143518633Y-84600000D02*
X143551966Y-84666666D01*
X143551966Y-84666666D02*
X143551966Y-84800000D01*
X143551966Y-84800000D02*
X143518633Y-84866666D01*
X143518633Y-84866666D02*
X143485300Y-84900000D01*
X143485300Y-84900000D02*
X143418633Y-84933333D01*
X142018633Y-83799999D02*
X141685300Y-83566666D01*
X142018633Y-83399999D02*
X141318633Y-83399999D01*
X141318633Y-83399999D02*
X141318633Y-83666666D01*
X141318633Y-83666666D02*
X141351966Y-83733333D01*
X141351966Y-83733333D02*
X141385300Y-83766666D01*
X141385300Y-83766666D02*
X141451966Y-83799999D01*
X141451966Y-83799999D02*
X141551966Y-83799999D01*
X141551966Y-83799999D02*
X141618633Y-83766666D01*
X141618633Y-83766666D02*
X141651966Y-83733333D01*
X141651966Y-83733333D02*
X141685300Y-83666666D01*
X141685300Y-83666666D02*
X141685300Y-83399999D01*
X141385300Y-84066666D02*
X141351966Y-84099999D01*
X141351966Y-84099999D02*
X141318633Y-84166666D01*
X141318633Y-84166666D02*
X141318633Y-84333333D01*
X141318633Y-84333333D02*
X141351966Y-84399999D01*
X141351966Y-84399999D02*
X141385300Y-84433333D01*
X141385300Y-84433333D02*
X141451966Y-84466666D01*
X141451966Y-84466666D02*
X141518633Y-84466666D01*
X141518633Y-84466666D02*
X141618633Y-84433333D01*
X141618633Y-84433333D02*
X142018633Y-84033333D01*
X142018633Y-84033333D02*
X142018633Y-84466666D01*
X141318633Y-85066666D02*
X141318633Y-84933333D01*
X141318633Y-84933333D02*
X141351966Y-84866666D01*
X141351966Y-84866666D02*
X141385300Y-84833333D01*
X141385300Y-84833333D02*
X141485300Y-84766666D01*
X141485300Y-84766666D02*
X141618633Y-84733333D01*
X141618633Y-84733333D02*
X141885300Y-84733333D01*
X141885300Y-84733333D02*
X141951966Y-84766666D01*
X141951966Y-84766666D02*
X141985300Y-84800000D01*
X141985300Y-84800000D02*
X142018633Y-84866666D01*
X142018633Y-84866666D02*
X142018633Y-85000000D01*
X142018633Y-85000000D02*
X141985300Y-85066666D01*
X141985300Y-85066666D02*
X141951966Y-85100000D01*
X141951966Y-85100000D02*
X141885300Y-85133333D01*
X141885300Y-85133333D02*
X141718633Y-85133333D01*
X141718633Y-85133333D02*
X141651966Y-85100000D01*
X141651966Y-85100000D02*
X141618633Y-85066666D01*
X141618633Y-85066666D02*
X141585300Y-85000000D01*
X141585300Y-85000000D02*
X141585300Y-84866666D01*
X141585300Y-84866666D02*
X141618633Y-84800000D01*
X141618633Y-84800000D02*
X141651966Y-84766666D01*
X141651966Y-84766666D02*
X141718633Y-84733333D01*
X118762500Y-97668633D02*
X118995833Y-97335300D01*
X119162500Y-97668633D02*
X119162500Y-96968633D01*
X119162500Y-96968633D02*
X118895833Y-96968633D01*
X118895833Y-96968633D02*
X118829167Y-97001966D01*
X118829167Y-97001966D02*
X118795833Y-97035300D01*
X118795833Y-97035300D02*
X118762500Y-97101966D01*
X118762500Y-97101966D02*
X118762500Y-97201966D01*
X118762500Y-97201966D02*
X118795833Y-97268633D01*
X118795833Y-97268633D02*
X118829167Y-97301966D01*
X118829167Y-97301966D02*
X118895833Y-97335300D01*
X118895833Y-97335300D02*
X119162500Y-97335300D01*
X118162500Y-97201966D02*
X118162500Y-97668633D01*
X118329167Y-96935300D02*
X118495833Y-97435300D01*
X118495833Y-97435300D02*
X118062500Y-97435300D01*
X117862500Y-96968633D02*
X117429166Y-96968633D01*
X117429166Y-96968633D02*
X117662500Y-97235300D01*
X117662500Y-97235300D02*
X117562500Y-97235300D01*
X117562500Y-97235300D02*
X117495833Y-97268633D01*
X117495833Y-97268633D02*
X117462500Y-97301966D01*
X117462500Y-97301966D02*
X117429166Y-97368633D01*
X117429166Y-97368633D02*
X117429166Y-97535300D01*
X117429166Y-97535300D02*
X117462500Y-97601966D01*
X117462500Y-97601966D02*
X117495833Y-97635300D01*
X117495833Y-97635300D02*
X117562500Y-97668633D01*
X117562500Y-97668633D02*
X117762500Y-97668633D01*
X117762500Y-97668633D02*
X117829166Y-97635300D01*
X117829166Y-97635300D02*
X117862500Y-97601966D01*
X105551966Y-117783333D02*
X105585300Y-117750000D01*
X105585300Y-117750000D02*
X105618633Y-117650000D01*
X105618633Y-117650000D02*
X105618633Y-117583333D01*
X105618633Y-117583333D02*
X105585300Y-117483333D01*
X105585300Y-117483333D02*
X105518633Y-117416667D01*
X105518633Y-117416667D02*
X105451966Y-117383333D01*
X105451966Y-117383333D02*
X105318633Y-117350000D01*
X105318633Y-117350000D02*
X105218633Y-117350000D01*
X105218633Y-117350000D02*
X105085300Y-117383333D01*
X105085300Y-117383333D02*
X105018633Y-117416667D01*
X105018633Y-117416667D02*
X104951966Y-117483333D01*
X104951966Y-117483333D02*
X104918633Y-117583333D01*
X104918633Y-117583333D02*
X104918633Y-117650000D01*
X104918633Y-117650000D02*
X104951966Y-117750000D01*
X104951966Y-117750000D02*
X104985300Y-117783333D01*
X105151966Y-118383333D02*
X105618633Y-118383333D01*
X104885300Y-118216667D02*
X105385300Y-118050000D01*
X105385300Y-118050000D02*
X105385300Y-118483333D01*
X109583333Y-101966633D02*
X109183333Y-101966633D01*
X109383333Y-102666633D02*
X109383333Y-101966633D01*
X108950000Y-102666633D02*
X108950000Y-101966633D01*
X108950000Y-101966633D02*
X108683333Y-101966633D01*
X108683333Y-101966633D02*
X108616667Y-101999966D01*
X108616667Y-101999966D02*
X108583333Y-102033300D01*
X108583333Y-102033300D02*
X108550000Y-102099966D01*
X108550000Y-102099966D02*
X108550000Y-102199966D01*
X108550000Y-102199966D02*
X108583333Y-102266633D01*
X108583333Y-102266633D02*
X108616667Y-102299966D01*
X108616667Y-102299966D02*
X108683333Y-102333300D01*
X108683333Y-102333300D02*
X108950000Y-102333300D01*
X107883333Y-102666633D02*
X108283333Y-102666633D01*
X108083333Y-102666633D02*
X108083333Y-101966633D01*
X108083333Y-101966633D02*
X108150000Y-102066633D01*
X108150000Y-102066633D02*
X108216667Y-102133300D01*
X108216667Y-102133300D02*
X108283333Y-102166633D01*
X117766666Y-93285300D02*
X117833333Y-93251966D01*
X117833333Y-93251966D02*
X117900000Y-93185300D01*
X117900000Y-93185300D02*
X118000000Y-93085300D01*
X118000000Y-93085300D02*
X118066666Y-93051966D01*
X118066666Y-93051966D02*
X118133333Y-93051966D01*
X118100000Y-93218633D02*
X118166666Y-93185300D01*
X118166666Y-93185300D02*
X118233333Y-93118633D01*
X118233333Y-93118633D02*
X118266666Y-92985300D01*
X118266666Y-92985300D02*
X118266666Y-92751966D01*
X118266666Y-92751966D02*
X118233333Y-92618633D01*
X118233333Y-92618633D02*
X118166666Y-92551966D01*
X118166666Y-92551966D02*
X118100000Y-92518633D01*
X118100000Y-92518633D02*
X117966666Y-92518633D01*
X117966666Y-92518633D02*
X117900000Y-92551966D01*
X117900000Y-92551966D02*
X117833333Y-92618633D01*
X117833333Y-92618633D02*
X117800000Y-92751966D01*
X117800000Y-92751966D02*
X117800000Y-92985300D01*
X117800000Y-92985300D02*
X117833333Y-93118633D01*
X117833333Y-93118633D02*
X117900000Y-93185300D01*
X117900000Y-93185300D02*
X117966666Y-93218633D01*
X117966666Y-93218633D02*
X118100000Y-93218633D01*
X117533333Y-92585300D02*
X117500000Y-92551966D01*
X117500000Y-92551966D02*
X117433333Y-92518633D01*
X117433333Y-92518633D02*
X117266667Y-92518633D01*
X117266667Y-92518633D02*
X117200000Y-92551966D01*
X117200000Y-92551966D02*
X117166667Y-92585300D01*
X117166667Y-92585300D02*
X117133333Y-92651966D01*
X117133333Y-92651966D02*
X117133333Y-92718633D01*
X117133333Y-92718633D02*
X117166667Y-92818633D01*
X117166667Y-92818633D02*
X117566667Y-93218633D01*
X117566667Y-93218633D02*
X117133333Y-93218633D01*
X102350000Y-107618633D02*
X102583333Y-107285300D01*
X102750000Y-107618633D02*
X102750000Y-106918633D01*
X102750000Y-106918633D02*
X102483333Y-106918633D01*
X102483333Y-106918633D02*
X102416667Y-106951966D01*
X102416667Y-106951966D02*
X102383333Y-106985300D01*
X102383333Y-106985300D02*
X102350000Y-107051966D01*
X102350000Y-107051966D02*
X102350000Y-107151966D01*
X102350000Y-107151966D02*
X102383333Y-107218633D01*
X102383333Y-107218633D02*
X102416667Y-107251966D01*
X102416667Y-107251966D02*
X102483333Y-107285300D01*
X102483333Y-107285300D02*
X102750000Y-107285300D01*
X102116667Y-106918633D02*
X101683333Y-106918633D01*
X101683333Y-106918633D02*
X101916667Y-107185300D01*
X101916667Y-107185300D02*
X101816667Y-107185300D01*
X101816667Y-107185300D02*
X101750000Y-107218633D01*
X101750000Y-107218633D02*
X101716667Y-107251966D01*
X101716667Y-107251966D02*
X101683333Y-107318633D01*
X101683333Y-107318633D02*
X101683333Y-107485300D01*
X101683333Y-107485300D02*
X101716667Y-107551966D01*
X101716667Y-107551966D02*
X101750000Y-107585300D01*
X101750000Y-107585300D02*
X101816667Y-107618633D01*
X101816667Y-107618633D02*
X102016667Y-107618633D01*
X102016667Y-107618633D02*
X102083333Y-107585300D01*
X102083333Y-107585300D02*
X102116667Y-107551966D01*
X101450000Y-106918633D02*
X100983333Y-106918633D01*
X100983333Y-106918633D02*
X101283333Y-107618633D01*
X135750000Y-98901966D02*
X135783333Y-98935300D01*
X135783333Y-98935300D02*
X135883333Y-98968633D01*
X135883333Y-98968633D02*
X135950000Y-98968633D01*
X135950000Y-98968633D02*
X136050000Y-98935300D01*
X136050000Y-98935300D02*
X136116667Y-98868633D01*
X136116667Y-98868633D02*
X136150000Y-98801966D01*
X136150000Y-98801966D02*
X136183333Y-98668633D01*
X136183333Y-98668633D02*
X136183333Y-98568633D01*
X136183333Y-98568633D02*
X136150000Y-98435300D01*
X136150000Y-98435300D02*
X136116667Y-98368633D01*
X136116667Y-98368633D02*
X136050000Y-98301966D01*
X136050000Y-98301966D02*
X135950000Y-98268633D01*
X135950000Y-98268633D02*
X135883333Y-98268633D01*
X135883333Y-98268633D02*
X135783333Y-98301966D01*
X135783333Y-98301966D02*
X135750000Y-98335300D01*
X135516667Y-98268633D02*
X135083333Y-98268633D01*
X135083333Y-98268633D02*
X135316667Y-98535300D01*
X135316667Y-98535300D02*
X135216667Y-98535300D01*
X135216667Y-98535300D02*
X135150000Y-98568633D01*
X135150000Y-98568633D02*
X135116667Y-98601966D01*
X135116667Y-98601966D02*
X135083333Y-98668633D01*
X135083333Y-98668633D02*
X135083333Y-98835300D01*
X135083333Y-98835300D02*
X135116667Y-98901966D01*
X135116667Y-98901966D02*
X135150000Y-98935300D01*
X135150000Y-98935300D02*
X135216667Y-98968633D01*
X135216667Y-98968633D02*
X135416667Y-98968633D01*
X135416667Y-98968633D02*
X135483333Y-98935300D01*
X135483333Y-98935300D02*
X135516667Y-98901966D01*
X134483333Y-98268633D02*
X134616666Y-98268633D01*
X134616666Y-98268633D02*
X134683333Y-98301966D01*
X134683333Y-98301966D02*
X134716666Y-98335300D01*
X134716666Y-98335300D02*
X134783333Y-98435300D01*
X134783333Y-98435300D02*
X134816666Y-98568633D01*
X134816666Y-98568633D02*
X134816666Y-98835300D01*
X134816666Y-98835300D02*
X134783333Y-98901966D01*
X134783333Y-98901966D02*
X134750000Y-98935300D01*
X134750000Y-98935300D02*
X134683333Y-98968633D01*
X134683333Y-98968633D02*
X134550000Y-98968633D01*
X134550000Y-98968633D02*
X134483333Y-98935300D01*
X134483333Y-98935300D02*
X134450000Y-98901966D01*
X134450000Y-98901966D02*
X134416666Y-98835300D01*
X134416666Y-98835300D02*
X134416666Y-98668633D01*
X134416666Y-98668633D02*
X134450000Y-98601966D01*
X134450000Y-98601966D02*
X134483333Y-98568633D01*
X134483333Y-98568633D02*
X134550000Y-98535300D01*
X134550000Y-98535300D02*
X134683333Y-98535300D01*
X134683333Y-98535300D02*
X134750000Y-98568633D01*
X134750000Y-98568633D02*
X134783333Y-98601966D01*
X134783333Y-98601966D02*
X134816666Y-98668633D01*
X138251966Y-108833333D02*
X138285300Y-108800000D01*
X138285300Y-108800000D02*
X138318633Y-108700000D01*
X138318633Y-108700000D02*
X138318633Y-108633333D01*
X138318633Y-108633333D02*
X138285300Y-108533333D01*
X138285300Y-108533333D02*
X138218633Y-108466667D01*
X138218633Y-108466667D02*
X138151966Y-108433333D01*
X138151966Y-108433333D02*
X138018633Y-108400000D01*
X138018633Y-108400000D02*
X137918633Y-108400000D01*
X137918633Y-108400000D02*
X137785300Y-108433333D01*
X137785300Y-108433333D02*
X137718633Y-108466667D01*
X137718633Y-108466667D02*
X137651966Y-108533333D01*
X137651966Y-108533333D02*
X137618633Y-108633333D01*
X137618633Y-108633333D02*
X137618633Y-108700000D01*
X137618633Y-108700000D02*
X137651966Y-108800000D01*
X137651966Y-108800000D02*
X137685300Y-108833333D01*
X137685300Y-109100000D02*
X137651966Y-109133333D01*
X137651966Y-109133333D02*
X137618633Y-109200000D01*
X137618633Y-109200000D02*
X137618633Y-109366667D01*
X137618633Y-109366667D02*
X137651966Y-109433333D01*
X137651966Y-109433333D02*
X137685300Y-109466667D01*
X137685300Y-109466667D02*
X137751966Y-109500000D01*
X137751966Y-109500000D02*
X137818633Y-109500000D01*
X137818633Y-109500000D02*
X137918633Y-109466667D01*
X137918633Y-109466667D02*
X138318633Y-109066667D01*
X138318633Y-109066667D02*
X138318633Y-109500000D01*
X107851966Y-76683333D02*
X107885300Y-76650000D01*
X107885300Y-76650000D02*
X107918633Y-76550000D01*
X107918633Y-76550000D02*
X107918633Y-76483333D01*
X107918633Y-76483333D02*
X107885300Y-76383333D01*
X107885300Y-76383333D02*
X107818633Y-76316667D01*
X107818633Y-76316667D02*
X107751966Y-76283333D01*
X107751966Y-76283333D02*
X107618633Y-76250000D01*
X107618633Y-76250000D02*
X107518633Y-76250000D01*
X107518633Y-76250000D02*
X107385300Y-76283333D01*
X107385300Y-76283333D02*
X107318633Y-76316667D01*
X107318633Y-76316667D02*
X107251966Y-76383333D01*
X107251966Y-76383333D02*
X107218633Y-76483333D01*
X107218633Y-76483333D02*
X107218633Y-76550000D01*
X107218633Y-76550000D02*
X107251966Y-76650000D01*
X107251966Y-76650000D02*
X107285300Y-76683333D01*
X107918633Y-77350000D02*
X107918633Y-76950000D01*
X107918633Y-77150000D02*
X107218633Y-77150000D01*
X107218633Y-77150000D02*
X107318633Y-77083333D01*
X107318633Y-77083333D02*
X107385300Y-77016667D01*
X107385300Y-77016667D02*
X107418633Y-76950000D01*
X138268633Y-83749999D02*
X137935300Y-83516666D01*
X138268633Y-83349999D02*
X137568633Y-83349999D01*
X137568633Y-83349999D02*
X137568633Y-83616666D01*
X137568633Y-83616666D02*
X137601966Y-83683333D01*
X137601966Y-83683333D02*
X137635300Y-83716666D01*
X137635300Y-83716666D02*
X137701966Y-83749999D01*
X137701966Y-83749999D02*
X137801966Y-83749999D01*
X137801966Y-83749999D02*
X137868633Y-83716666D01*
X137868633Y-83716666D02*
X137901966Y-83683333D01*
X137901966Y-83683333D02*
X137935300Y-83616666D01*
X137935300Y-83616666D02*
X137935300Y-83349999D01*
X137635300Y-84016666D02*
X137601966Y-84049999D01*
X137601966Y-84049999D02*
X137568633Y-84116666D01*
X137568633Y-84116666D02*
X137568633Y-84283333D01*
X137568633Y-84283333D02*
X137601966Y-84349999D01*
X137601966Y-84349999D02*
X137635300Y-84383333D01*
X137635300Y-84383333D02*
X137701966Y-84416666D01*
X137701966Y-84416666D02*
X137768633Y-84416666D01*
X137768633Y-84416666D02*
X137868633Y-84383333D01*
X137868633Y-84383333D02*
X138268633Y-83983333D01*
X138268633Y-83983333D02*
X138268633Y-84416666D01*
X137801966Y-85016666D02*
X138268633Y-85016666D01*
X137535300Y-84850000D02*
X138035300Y-84683333D01*
X138035300Y-84683333D02*
X138035300Y-85116666D01*
X133401966Y-99099999D02*
X133435300Y-99066666D01*
X133435300Y-99066666D02*
X133468633Y-98966666D01*
X133468633Y-98966666D02*
X133468633Y-98899999D01*
X133468633Y-98899999D02*
X133435300Y-98799999D01*
X133435300Y-98799999D02*
X133368633Y-98733333D01*
X133368633Y-98733333D02*
X133301966Y-98699999D01*
X133301966Y-98699999D02*
X133168633Y-98666666D01*
X133168633Y-98666666D02*
X133068633Y-98666666D01*
X133068633Y-98666666D02*
X132935300Y-98699999D01*
X132935300Y-98699999D02*
X132868633Y-98733333D01*
X132868633Y-98733333D02*
X132801966Y-98799999D01*
X132801966Y-98799999D02*
X132768633Y-98899999D01*
X132768633Y-98899999D02*
X132768633Y-98966666D01*
X132768633Y-98966666D02*
X132801966Y-99066666D01*
X132801966Y-99066666D02*
X132835300Y-99099999D01*
X132768633Y-99333333D02*
X132768633Y-99766666D01*
X132768633Y-99766666D02*
X133035300Y-99533333D01*
X133035300Y-99533333D02*
X133035300Y-99633333D01*
X133035300Y-99633333D02*
X133068633Y-99699999D01*
X133068633Y-99699999D02*
X133101966Y-99733333D01*
X133101966Y-99733333D02*
X133168633Y-99766666D01*
X133168633Y-99766666D02*
X133335300Y-99766666D01*
X133335300Y-99766666D02*
X133401966Y-99733333D01*
X133401966Y-99733333D02*
X133435300Y-99699999D01*
X133435300Y-99699999D02*
X133468633Y-99633333D01*
X133468633Y-99633333D02*
X133468633Y-99433333D01*
X133468633Y-99433333D02*
X133435300Y-99366666D01*
X133435300Y-99366666D02*
X133401966Y-99333333D01*
X133468633Y-100100000D02*
X133468633Y-100233333D01*
X133468633Y-100233333D02*
X133435300Y-100300000D01*
X133435300Y-100300000D02*
X133401966Y-100333333D01*
X133401966Y-100333333D02*
X133301966Y-100400000D01*
X133301966Y-100400000D02*
X133168633Y-100433333D01*
X133168633Y-100433333D02*
X132901966Y-100433333D01*
X132901966Y-100433333D02*
X132835300Y-100400000D01*
X132835300Y-100400000D02*
X132801966Y-100366666D01*
X132801966Y-100366666D02*
X132768633Y-100300000D01*
X132768633Y-100300000D02*
X132768633Y-100166666D01*
X132768633Y-100166666D02*
X132801966Y-100100000D01*
X132801966Y-100100000D02*
X132835300Y-100066666D01*
X132835300Y-100066666D02*
X132901966Y-100033333D01*
X132901966Y-100033333D02*
X133068633Y-100033333D01*
X133068633Y-100033333D02*
X133135300Y-100066666D01*
X133135300Y-100066666D02*
X133168633Y-100100000D01*
X133168633Y-100100000D02*
X133201966Y-100166666D01*
X133201966Y-100166666D02*
X133201966Y-100300000D01*
X133201966Y-100300000D02*
X133168633Y-100366666D01*
X133168633Y-100366666D02*
X133135300Y-100400000D01*
X133135300Y-100400000D02*
X133068633Y-100433333D01*
X117150000Y-98718633D02*
X117383333Y-98385300D01*
X117550000Y-98718633D02*
X117550000Y-98018633D01*
X117550000Y-98018633D02*
X117283333Y-98018633D01*
X117283333Y-98018633D02*
X117216667Y-98051966D01*
X117216667Y-98051966D02*
X117183333Y-98085300D01*
X117183333Y-98085300D02*
X117150000Y-98151966D01*
X117150000Y-98151966D02*
X117150000Y-98251966D01*
X117150000Y-98251966D02*
X117183333Y-98318633D01*
X117183333Y-98318633D02*
X117216667Y-98351966D01*
X117216667Y-98351966D02*
X117283333Y-98385300D01*
X117283333Y-98385300D02*
X117550000Y-98385300D01*
X116483333Y-98718633D02*
X116883333Y-98718633D01*
X116683333Y-98718633D02*
X116683333Y-98018633D01*
X116683333Y-98018633D02*
X116750000Y-98118633D01*
X116750000Y-98118633D02*
X116816667Y-98185300D01*
X116816667Y-98185300D02*
X116883333Y-98218633D01*
X115816666Y-98718633D02*
X116216666Y-98718633D01*
X116016666Y-98718633D02*
X116016666Y-98018633D01*
X116016666Y-98018633D02*
X116083333Y-98118633D01*
X116083333Y-98118633D02*
X116150000Y-98185300D01*
X116150000Y-98185300D02*
X116216666Y-98218633D01*
X138868632Y-92878974D02*
X139435299Y-92878974D01*
X139435299Y-92878974D02*
X139501965Y-92912308D01*
X139501965Y-92912308D02*
X139535299Y-92945641D01*
X139535299Y-92945641D02*
X139568632Y-93012308D01*
X139568632Y-93012308D02*
X139568632Y-93145641D01*
X139568632Y-93145641D02*
X139535299Y-93212308D01*
X139535299Y-93212308D02*
X139501965Y-93245641D01*
X139501965Y-93245641D02*
X139435299Y-93278974D01*
X139435299Y-93278974D02*
X138868632Y-93278974D01*
X138868632Y-93912307D02*
X138868632Y-93778974D01*
X138868632Y-93778974D02*
X138901965Y-93712307D01*
X138901965Y-93712307D02*
X138935299Y-93678974D01*
X138935299Y-93678974D02*
X139035299Y-93612307D01*
X139035299Y-93612307D02*
X139168632Y-93578974D01*
X139168632Y-93578974D02*
X139435299Y-93578974D01*
X139435299Y-93578974D02*
X139501965Y-93612307D01*
X139501965Y-93612307D02*
X139535299Y-93645641D01*
X139535299Y-93645641D02*
X139568632Y-93712307D01*
X139568632Y-93712307D02*
X139568632Y-93845641D01*
X139568632Y-93845641D02*
X139535299Y-93912307D01*
X139535299Y-93912307D02*
X139501965Y-93945641D01*
X139501965Y-93945641D02*
X139435299Y-93978974D01*
X139435299Y-93978974D02*
X139268632Y-93978974D01*
X139268632Y-93978974D02*
X139201965Y-93945641D01*
X139201965Y-93945641D02*
X139168632Y-93912307D01*
X139168632Y-93912307D02*
X139135299Y-93845641D01*
X139135299Y-93845641D02*
X139135299Y-93712307D01*
X139135299Y-93712307D02*
X139168632Y-93645641D01*
X139168632Y-93645641D02*
X139201965Y-93612307D01*
X139201965Y-93612307D02*
X139268632Y-93578974D01*
D10*
X144554819Y-92061905D02*
X145364342Y-92061905D01*
X145364342Y-92061905D02*
X145459580Y-92109524D01*
X145459580Y-92109524D02*
X145507200Y-92157143D01*
X145507200Y-92157143D02*
X145554819Y-92252381D01*
X145554819Y-92252381D02*
X145554819Y-92442857D01*
X145554819Y-92442857D02*
X145507200Y-92538095D01*
X145507200Y-92538095D02*
X145459580Y-92585714D01*
X145459580Y-92585714D02*
X145364342Y-92633333D01*
X145364342Y-92633333D02*
X144554819Y-92633333D01*
X145554819Y-93633333D02*
X145554819Y-93061905D01*
X145554819Y-93347619D02*
X144554819Y-93347619D01*
X144554819Y-93347619D02*
X144697676Y-93252381D01*
X144697676Y-93252381D02*
X144792914Y-93157143D01*
X144792914Y-93157143D02*
X144840533Y-93061905D01*
X144554819Y-94252381D02*
X144554819Y-94347619D01*
X144554819Y-94347619D02*
X144602438Y-94442857D01*
X144602438Y-94442857D02*
X144650057Y-94490476D01*
X144650057Y-94490476D02*
X144745295Y-94538095D01*
X144745295Y-94538095D02*
X144935771Y-94585714D01*
X144935771Y-94585714D02*
X145173866Y-94585714D01*
X145173866Y-94585714D02*
X145364342Y-94538095D01*
X145364342Y-94538095D02*
X145459580Y-94490476D01*
X145459580Y-94490476D02*
X145507200Y-94442857D01*
X145507200Y-94442857D02*
X145554819Y-94347619D01*
X145554819Y-94347619D02*
X145554819Y-94252381D01*
X145554819Y-94252381D02*
X145507200Y-94157143D01*
X145507200Y-94157143D02*
X145459580Y-94109524D01*
X145459580Y-94109524D02*
X145364342Y-94061905D01*
X145364342Y-94061905D02*
X145173866Y-94014286D01*
X145173866Y-94014286D02*
X144935771Y-94014286D01*
X144935771Y-94014286D02*
X144745295Y-94061905D01*
X144745295Y-94061905D02*
X144650057Y-94109524D01*
X144650057Y-94109524D02*
X144602438Y-94157143D01*
X144602438Y-94157143D02*
X144554819Y-94252381D01*
D11*
X147118633Y-90449999D02*
X146785300Y-90216666D01*
X147118633Y-90049999D02*
X146418633Y-90049999D01*
X146418633Y-90049999D02*
X146418633Y-90316666D01*
X146418633Y-90316666D02*
X146451966Y-90383333D01*
X146451966Y-90383333D02*
X146485300Y-90416666D01*
X146485300Y-90416666D02*
X146551966Y-90449999D01*
X146551966Y-90449999D02*
X146651966Y-90449999D01*
X146651966Y-90449999D02*
X146718633Y-90416666D01*
X146718633Y-90416666D02*
X146751966Y-90383333D01*
X146751966Y-90383333D02*
X146785300Y-90316666D01*
X146785300Y-90316666D02*
X146785300Y-90049999D01*
X146418633Y-90683333D02*
X146418633Y-91116666D01*
X146418633Y-91116666D02*
X146685300Y-90883333D01*
X146685300Y-90883333D02*
X146685300Y-90983333D01*
X146685300Y-90983333D02*
X146718633Y-91049999D01*
X146718633Y-91049999D02*
X146751966Y-91083333D01*
X146751966Y-91083333D02*
X146818633Y-91116666D01*
X146818633Y-91116666D02*
X146985300Y-91116666D01*
X146985300Y-91116666D02*
X147051966Y-91083333D01*
X147051966Y-91083333D02*
X147085300Y-91049999D01*
X147085300Y-91049999D02*
X147118633Y-90983333D01*
X147118633Y-90983333D02*
X147118633Y-90783333D01*
X147118633Y-90783333D02*
X147085300Y-90716666D01*
X147085300Y-90716666D02*
X147051966Y-90683333D01*
X146651966Y-91716666D02*
X147118633Y-91716666D01*
X146385300Y-91550000D02*
X146885300Y-91383333D01*
X146885300Y-91383333D02*
X146885300Y-91816666D01*
D12*
X110177500Y-81165000D02*
X110177500Y-80440000D01*
X110177500Y-83435000D02*
X110177500Y-84160000D01*
X110177500Y-84160000D02*
X110902500Y-84160000D01*
X113897500Y-80440000D02*
X113172500Y-80440000D01*
X113897500Y-81165000D02*
X113897500Y-80440000D01*
X113897500Y-83435000D02*
X113897500Y-84160000D01*
X113897500Y-84160000D02*
X113172500Y-84160000D01*
X118327500Y-76516922D02*
X118327500Y-77034078D01*
X119747500Y-76516922D02*
X119747500Y-77034078D01*
X112796078Y-75900000D02*
X112278922Y-75900000D01*
X112796078Y-77320000D02*
X112278922Y-77320000D01*
X122958578Y-80590000D02*
X122441422Y-80590000D01*
X122958578Y-82010000D02*
X122441422Y-82010000D01*
X116048422Y-76446500D02*
X116565578Y-76446500D01*
X116048422Y-77866500D02*
X116565578Y-77866500D01*
X114771500Y-81929422D02*
X114771500Y-82446578D01*
X116191500Y-81929422D02*
X116191500Y-82446578D01*
X116048422Y-78478500D02*
X116565578Y-78478500D01*
X116048422Y-79898500D02*
X116565578Y-79898500D01*
X122850279Y-79090000D02*
X122524721Y-79090000D01*
X122850279Y-80110000D02*
X122524721Y-80110000D01*
X106270000Y-82175000D02*
X106270000Y-83635000D01*
X106270000Y-82175000D02*
X107200000Y-82175000D01*
X109430000Y-82175000D02*
X108500000Y-82175000D01*
X109430000Y-82175000D02*
X109430000Y-84335000D01*
X110708578Y-84890000D02*
X110191422Y-84890000D01*
X110708578Y-86310000D02*
X110191422Y-86310000D01*
X117941422Y-82390000D02*
X118458578Y-82390000D01*
X117941422Y-83810000D02*
X118458578Y-83810000D01*
X118327500Y-80511578D02*
X118327500Y-79994422D01*
X119747500Y-80511578D02*
X119747500Y-79994422D01*
X123008578Y-77190000D02*
X122491422Y-77190000D01*
X123008578Y-78610000D02*
X122491422Y-78610000D01*
X104445000Y-82618578D02*
X104445000Y-82101422D01*
X105865000Y-82618578D02*
X105865000Y-82101422D01*
X108727500Y-76882936D02*
X108727500Y-78337064D01*
X110547500Y-76882936D02*
X110547500Y-78337064D01*
X112755578Y-77843500D02*
X112238422Y-77843500D01*
X112755578Y-79263500D02*
X112238422Y-79263500D01*
X116558578Y-89890000D02*
X116041422Y-89890000D01*
X116558578Y-91310000D02*
X116041422Y-91310000D01*
X112902064Y-89690000D02*
X111697936Y-89690000D01*
X112902064Y-91510000D02*
X111697936Y-91510000D01*
X111788748Y-86965000D02*
X112311252Y-86965000D01*
X111788748Y-88435000D02*
X112311252Y-88435000D01*
X114111252Y-84965000D02*
X113588748Y-84965000D01*
X114111252Y-86435000D02*
X113588748Y-86435000D01*
X135364999Y-86889372D02*
X135364999Y-86435244D01*
X136834999Y-86889372D02*
X136834999Y-86435244D01*
X130722936Y-97665000D02*
X131177064Y-97665000D01*
X130722936Y-99135000D02*
X131177064Y-99135000D01*
X140238748Y-99265000D02*
X140761252Y-99265000D01*
X140238748Y-100735000D02*
X140761252Y-100735000D01*
X108050000Y-97300000D02*
X108050000Y-92900000D01*
X109550000Y-92900000D02*
X109650000Y-92900000D01*
X109550000Y-97300000D02*
X109650000Y-97300000D01*
X111150000Y-92900000D02*
X111150000Y-97300000D01*
X118532500Y-93415000D02*
X118532500Y-94935000D01*
X118532500Y-94935000D02*
X118582500Y-94935000D01*
X119532500Y-93415000D02*
X118532500Y-93415000D01*
X119702500Y-94935000D02*
X120482500Y-94935000D01*
X121602500Y-94935000D02*
X121652500Y-94935000D01*
X121652500Y-93415000D02*
X120652500Y-93415000D01*
X121652500Y-94935000D02*
X121652500Y-93415000D01*
X120472500Y-95475000D02*
X120142500Y-95715000D01*
X120142500Y-95235000D01*
X120472500Y-95475000D01*
G36*
X120472500Y-95475000D02*
G01*
X120142500Y-95715000D01*
X120142500Y-95235000D01*
X120472500Y-95475000D01*
G37*
X131565000Y-91839564D02*
X131565000Y-91385436D01*
X133035000Y-91839564D02*
X133035000Y-91385436D01*
D11*
X133750000Y-108100000D02*
X133750000Y-109300000D01*
X133750000Y-108100000D02*
X135350000Y-108100000D01*
X133750000Y-109300000D02*
X135350000Y-109300000D01*
X135350000Y-108100000D02*
X135350000Y-109300000D01*
D12*
X144102500Y-98138748D02*
X144102500Y-98661252D01*
X145572500Y-98138748D02*
X145572500Y-98661252D01*
X146864999Y-86923560D02*
X146864999Y-86401056D01*
X148334999Y-86923560D02*
X148334999Y-86401056D01*
X144765000Y-94127064D02*
X144765000Y-93672936D01*
X146235000Y-94127064D02*
X146235000Y-93672936D01*
X115961252Y-86965000D02*
X115438748Y-86965000D01*
X115961252Y-88435000D02*
X115438748Y-88435000D01*
X146827063Y-83227308D02*
X146372935Y-83227308D01*
X146827063Y-84697308D02*
X146372935Y-84697308D01*
X102290000Y-115288748D02*
X102290000Y-116711252D01*
X104110000Y-115288748D02*
X104110000Y-116711252D01*
X104172936Y-104665000D02*
X104627064Y-104665000D01*
X104172936Y-106135000D02*
X104627064Y-106135000D01*
X119865436Y-96340000D02*
X120319564Y-96340000D01*
X119865436Y-97810000D02*
X120319564Y-97810000D01*
D11*
X104700000Y-78400000D02*
X104700000Y-79600000D01*
X104700000Y-78400000D02*
X106300000Y-78400000D01*
X104700000Y-79600000D02*
X106300000Y-79600000D01*
X106300000Y-78400000D02*
X106300000Y-79600000D01*
D12*
X147814564Y-98765000D02*
X147360436Y-98765000D01*
X147814564Y-100235000D02*
X147360436Y-100235000D01*
X111582500Y-95602500D02*
X111582500Y-97122500D01*
X111582500Y-97122500D02*
X112582500Y-97122500D01*
X111632500Y-95602500D02*
X111582500Y-95602500D01*
X113532500Y-95602500D02*
X112752500Y-95602500D01*
X113702500Y-97122500D02*
X114702500Y-97122500D01*
X114702500Y-95602500D02*
X114652500Y-95602500D01*
X114702500Y-97122500D02*
X114702500Y-95602500D01*
X113092500Y-95302500D02*
X112762500Y-95062500D01*
X113092500Y-94822500D01*
X113092500Y-95302500D01*
G36*
X113092500Y-95302500D02*
G01*
X112762500Y-95062500D01*
X113092500Y-94822500D01*
X113092500Y-95302500D01*
G37*
X147814564Y-96865000D02*
X147360436Y-96865000D01*
X147814564Y-98335000D02*
X147360436Y-98335000D01*
X104165000Y-112261252D02*
X104165000Y-111738748D01*
X105635000Y-112261252D02*
X105635000Y-111738748D01*
X104450000Y-97300000D02*
X104450000Y-92900000D01*
X106050000Y-92900000D02*
X105950000Y-92900000D01*
X106050000Y-97300000D02*
X105950000Y-97300000D01*
X107550000Y-92900000D02*
X107550000Y-97300000D01*
X130722936Y-95765000D02*
X131177064Y-95765000D01*
X130722936Y-97235000D02*
X131177064Y-97235000D01*
X122107500Y-96152064D02*
X122107500Y-95697936D01*
X123577500Y-96152064D02*
X123577500Y-95697936D01*
X104527064Y-108565000D02*
X104072936Y-108565000D01*
X104527064Y-110035000D02*
X104072936Y-110035000D01*
X106225000Y-123650000D02*
X106225000Y-121200000D01*
X106225000Y-123650000D02*
X108675000Y-123650000D01*
X106500000Y-102700000D02*
X106500000Y-123400000D01*
X106500000Y-123400000D02*
X122100000Y-123400000D01*
X122100000Y-102700000D02*
X106500000Y-102700000D01*
X122100000Y-123400000D02*
X122100000Y-102700000D01*
X106325000Y-116450000D02*
X105989000Y-116690000D01*
X105989000Y-116210000D01*
X106325000Y-116450000D01*
G36*
X106325000Y-116450000D02*
G01*
X105989000Y-116690000D01*
X105989000Y-116210000D01*
X106325000Y-116450000D01*
G37*
X112927936Y-92727500D02*
X113382064Y-92727500D01*
X112927936Y-94197500D02*
X113382064Y-94197500D01*
X145089999Y-86802888D02*
X145089999Y-86521728D01*
X146109999Y-86802888D02*
X146109999Y-86521728D01*
X133365000Y-87111252D02*
X133365000Y-86588748D01*
X134835000Y-87111252D02*
X134835000Y-86588748D01*
X139064999Y-86889372D02*
X139064999Y-86435244D01*
X140534999Y-86889372D02*
X140534999Y-86435244D01*
X121245000Y-98240000D02*
X121245000Y-99240000D01*
X121245000Y-100360000D02*
X121245000Y-101360000D01*
X121245000Y-101360000D02*
X122765000Y-101360000D01*
X122765000Y-98240000D02*
X121245000Y-98240000D01*
X122765000Y-98290000D02*
X122765000Y-98240000D01*
X122765000Y-100190000D02*
X122765000Y-99410000D01*
X122765000Y-101360000D02*
X122765000Y-101310000D01*
X123545000Y-99750000D02*
X123065000Y-99750000D01*
X123305000Y-99420000D01*
X123545000Y-99750000D01*
G36*
X123545000Y-99750000D02*
G01*
X123065000Y-99750000D01*
X123305000Y-99420000D01*
X123545000Y-99750000D01*
G37*
X142864999Y-86923560D02*
X142864999Y-86401056D01*
X144334999Y-86923560D02*
X144334999Y-86401056D01*
X141014999Y-86889372D02*
X141014999Y-86435244D01*
X142484999Y-86889372D02*
X142484999Y-86435244D01*
X118539564Y-98265000D02*
X118085436Y-98265000D01*
X118539564Y-99735000D02*
X118085436Y-99735000D01*
X104565000Y-115238748D02*
X104565000Y-115761252D01*
X106035000Y-115238748D02*
X106035000Y-115761252D01*
X107750000Y-99750000D02*
X107750000Y-101650000D01*
X107750000Y-101650000D02*
X109650000Y-101650000D01*
X109650000Y-99750000D02*
X107750000Y-99750000D01*
X109650000Y-101650000D02*
X109650000Y-99750000D01*
X114982500Y-93445000D02*
X114982500Y-94965000D01*
X114982500Y-94965000D02*
X115032500Y-94965000D01*
X115982500Y-93445000D02*
X114982500Y-93445000D01*
X116152500Y-94965000D02*
X116932500Y-94965000D01*
X118052500Y-94965000D02*
X118102500Y-94965000D01*
X118102500Y-93445000D02*
X117102500Y-93445000D01*
X118102500Y-94965000D02*
X118102500Y-93445000D01*
X116922500Y-95505000D02*
X116592500Y-95745000D01*
X116592500Y-95265000D01*
X116922500Y-95505000D01*
G36*
X116922500Y-95505000D02*
G01*
X116592500Y-95745000D01*
X116592500Y-95265000D01*
X116922500Y-95505000D01*
G37*
X104172936Y-106565000D02*
X104627064Y-106565000D01*
X104172936Y-108035000D02*
X104627064Y-108035000D01*
X135411252Y-99165000D02*
X134888748Y-99165000D01*
X135411252Y-100635000D02*
X134888748Y-100635000D01*
X135815000Y-109211252D02*
X135815000Y-108688748D01*
X137285000Y-109211252D02*
X137285000Y-108688748D01*
X106765000Y-79261252D02*
X106765000Y-78738748D01*
X108235000Y-79261252D02*
X108235000Y-78738748D01*
X137164999Y-86889372D02*
X137164999Y-86435244D01*
X138634999Y-86889372D02*
X138634999Y-86435244D01*
X132940000Y-97159420D02*
X132940000Y-97440580D01*
X133960000Y-97159420D02*
X133960000Y-97440580D01*
X116315436Y-96370000D02*
X116769564Y-96370000D01*
X116315436Y-97840000D02*
X116769564Y-97840000D01*
D10*
X134399999Y-91889639D02*
X134399999Y-94934977D01*
X144099999Y-91889639D02*
X144099999Y-94934977D01*
D13*
X134874999Y-88984209D02*
G75*
G02*
X134624997Y-88984209I-125001J0D01*
G01*
X134624997Y-88984209D02*
G75*
G02*
X134874999Y-88984209I125001J0D01*
G01*
D12*
X144765000Y-90627064D02*
X144765000Y-90172936D01*
X146235000Y-90627064D02*
X146235000Y-90172936D01*
%LPC*%
D14*
X121825000Y-83950000D03*
D15*
X124365000Y-83950000D03*
D16*
X157740000Y-70300000D03*
X157740000Y-73700000D03*
X167660000Y-70300000D03*
X167660000Y-73700000D03*
D17*
X124800000Y-108900000D03*
X116505000Y-101150000D03*
D18*
X128300000Y-71500000D03*
D17*
X119505000Y-101150000D03*
X113505000Y-101150000D03*
D18*
X167700000Y-78900000D03*
X141055000Y-71500000D03*
D17*
X132605000Y-71500000D03*
D18*
X122750000Y-87950000D03*
D17*
X105105000Y-102500000D03*
D18*
X162600000Y-78900000D03*
X122550000Y-71500000D03*
D19*
X111287500Y-80550000D03*
X111787500Y-80550000D03*
X112287500Y-80550000D03*
X112787500Y-80550000D03*
D20*
X113787500Y-81550000D03*
X113787500Y-82050000D03*
X113787500Y-82550000D03*
X113787500Y-83050000D03*
D19*
X112787500Y-84050000D03*
X112287500Y-84050000D03*
X111787500Y-84050000D03*
X111287500Y-84050000D03*
D20*
X110287500Y-83050000D03*
X110287500Y-82550000D03*
X110287500Y-82050000D03*
X110287500Y-81550000D03*
D21*
X112037500Y-82300000D03*
D22*
X119037500Y-75838000D03*
X119037500Y-77713000D03*
D23*
X113475000Y-76610000D03*
X111600000Y-76610000D03*
X123637500Y-81300000D03*
X121762500Y-81300000D03*
D24*
X115369500Y-77156500D03*
X117244500Y-77156500D03*
D22*
X115481500Y-81250500D03*
X115481500Y-83125500D03*
D24*
X115369500Y-79188500D03*
X117244500Y-79188500D03*
D25*
X123475000Y-79600000D03*
X121900000Y-79600000D03*
D26*
X108800000Y-83935000D03*
X106900000Y-83935000D03*
X107850000Y-81935000D03*
D23*
X111387500Y-85600000D03*
X109512500Y-85600000D03*
D24*
X117262500Y-83100000D03*
X119137500Y-83100000D03*
D27*
X119037500Y-81190500D03*
X119037500Y-79315500D03*
D23*
X123687500Y-77900000D03*
X121812500Y-77900000D03*
D27*
X105155000Y-83297500D03*
X105155000Y-81422500D03*
D28*
X109637500Y-76147500D03*
X109637500Y-79072500D03*
D23*
X113434500Y-78553500D03*
X111559500Y-78553500D03*
X117237500Y-90600000D03*
X115362500Y-90600000D03*
D29*
X113700000Y-90600000D03*
X110900000Y-90600000D03*
D30*
X111100000Y-87700000D03*
X113000000Y-87700000D03*
D31*
X114800000Y-85700000D03*
X112900000Y-85700000D03*
D32*
X136099999Y-87574808D03*
X136099999Y-85749808D03*
D33*
X130037500Y-98400000D03*
X131862500Y-98400000D03*
D30*
X139550000Y-100000000D03*
X141450000Y-100000000D03*
D34*
X110400000Y-97150000D03*
X110400000Y-93050000D03*
X108800000Y-97150000D03*
X108800000Y-93050000D03*
D35*
X121042500Y-95112500D03*
X119142500Y-95112500D03*
X120092500Y-93237500D03*
D32*
X132300000Y-92525000D03*
X132300000Y-90700000D03*
D36*
X134050000Y-107960000D03*
X134550000Y-107960000D03*
X135050000Y-107960000D03*
X135050000Y-109440000D03*
X134550000Y-109440000D03*
X134050000Y-109440000D03*
D37*
X144837500Y-97450000D03*
X144837500Y-99350000D03*
D38*
X147599999Y-87612308D03*
X147599999Y-85712308D03*
D32*
X145500000Y-94812500D03*
X145500000Y-92987500D03*
D31*
X116650000Y-87700000D03*
X114750000Y-87700000D03*
D39*
X147512499Y-83962308D03*
X145687499Y-83962308D03*
D40*
X103200000Y-114525000D03*
X103200000Y-117475000D03*
D33*
X103487500Y-105400000D03*
X105312500Y-105400000D03*
X119180000Y-97075000D03*
X121005000Y-97075000D03*
D36*
X105000000Y-78260000D03*
X105500000Y-78260000D03*
X106000000Y-78260000D03*
X106000000Y-79740000D03*
X105500000Y-79740000D03*
X105000000Y-79740000D03*
D39*
X148500000Y-99500000D03*
X146675000Y-99500000D03*
D41*
X112192500Y-95425000D03*
X114092500Y-95425000D03*
X113142500Y-97300000D03*
D39*
X148500000Y-97600000D03*
X146675000Y-97600000D03*
D38*
X104900000Y-112950000D03*
X104900000Y-111050000D03*
D34*
X105200000Y-93050000D03*
X105200000Y-97150000D03*
X106800000Y-93050000D03*
X106800000Y-97150000D03*
D33*
X130037500Y-96500000D03*
X131862500Y-96500000D03*
D32*
X122842500Y-96837500D03*
X122842500Y-95012500D03*
D39*
X105212500Y-109300000D03*
X103387500Y-109300000D03*
D42*
X107300000Y-116450000D03*
X107300000Y-115600000D03*
X107300000Y-114750000D03*
X107300000Y-113900000D03*
X107300000Y-113050000D03*
X107300000Y-112200000D03*
X107300000Y-111350000D03*
X107300000Y-110500000D03*
X107300000Y-109650000D03*
X107300000Y-108800000D03*
X107300000Y-107950000D03*
X107300000Y-107100000D03*
X107300000Y-106250000D03*
X107300000Y-105400000D03*
X107300000Y-104550000D03*
D43*
X108350000Y-103500000D03*
X109200000Y-103500000D03*
X110050000Y-103500000D03*
X110900000Y-103500000D03*
X111750000Y-103500000D03*
X112600000Y-103500000D03*
X113450000Y-103500000D03*
X114300000Y-103500000D03*
X115150000Y-103500000D03*
X116000000Y-103500000D03*
X116850000Y-103500000D03*
X117700000Y-103500000D03*
X118550000Y-103500000D03*
X119400000Y-103500000D03*
X120250000Y-103500000D03*
D42*
X121300000Y-104550000D03*
X121300000Y-105400000D03*
X121300000Y-106250000D03*
X121300000Y-107100000D03*
X121300000Y-107950000D03*
X121300000Y-108800000D03*
X121300000Y-109650000D03*
X121300000Y-110500000D03*
X121300000Y-111350000D03*
X121300000Y-112200000D03*
X121300000Y-113050000D03*
X121300000Y-113900000D03*
X121300000Y-114750000D03*
X121300000Y-115600000D03*
X121300000Y-116450000D03*
D43*
X120250000Y-117500000D03*
X119400000Y-117500000D03*
X118550000Y-117500000D03*
X117700000Y-117500000D03*
X116850000Y-117500000D03*
X116000000Y-117500000D03*
X115150000Y-117500000D03*
X114300000Y-117500000D03*
X113450000Y-117500000D03*
X112600000Y-117500000D03*
X111750000Y-117500000D03*
X110900000Y-117500000D03*
X110050000Y-117500000D03*
X109200000Y-117500000D03*
X108350000Y-117500000D03*
D44*
X112650000Y-108850000D03*
X112650000Y-110500000D03*
D45*
X112650000Y-112150000D03*
D44*
X114300000Y-108850000D03*
X114300000Y-110500000D03*
X114300000Y-112150000D03*
X115950000Y-108850000D03*
X115950000Y-110500000D03*
X115950000Y-112150000D03*
D46*
X107300000Y-117500000D03*
X107300000Y-103500000D03*
X121300000Y-103500000D03*
X121300000Y-117500000D03*
D33*
X112242500Y-93462500D03*
X114067500Y-93462500D03*
D47*
X145599999Y-87437308D03*
X145599999Y-85887308D03*
D38*
X134100000Y-87800000D03*
X134100000Y-85900000D03*
D32*
X139799999Y-87574808D03*
X139799999Y-85749808D03*
D48*
X122942500Y-98850000D03*
X122942500Y-100750000D03*
X121067500Y-99800000D03*
D38*
X143599999Y-87612308D03*
X143599999Y-85712308D03*
D32*
X141749999Y-87574808D03*
X141749999Y-85749808D03*
D39*
X119225000Y-99000000D03*
X117400000Y-99000000D03*
D37*
X105300000Y-114550000D03*
X105300000Y-116450000D03*
D49*
X108700000Y-100700000D03*
D35*
X117492500Y-95142500D03*
X115592500Y-95142500D03*
X116542500Y-93267500D03*
D33*
X103487500Y-107300000D03*
X105312500Y-107300000D03*
D31*
X136100000Y-99900000D03*
X134200000Y-99900000D03*
D38*
X136550000Y-109900000D03*
X136550000Y-108000000D03*
X107500000Y-79950000D03*
X107500000Y-78050000D03*
D32*
X137899999Y-87574808D03*
X137899999Y-85749808D03*
D50*
X133450000Y-96525000D03*
X133450000Y-98075000D03*
D33*
X115630000Y-97105000D03*
X117455000Y-97105000D03*
D51*
X134749998Y-90536924D03*
X135249999Y-90536924D03*
X135749998Y-90536924D03*
X136250000Y-90536924D03*
X136749999Y-90536924D03*
X137249998Y-90536924D03*
X137749999Y-90536924D03*
X138249998Y-90536924D03*
X138750000Y-90536924D03*
X139249999Y-90536924D03*
X139749998Y-90536924D03*
X140250000Y-90536924D03*
X140749999Y-90536924D03*
X141250000Y-90536924D03*
X141749999Y-90536924D03*
X142249998Y-90536924D03*
X142750000Y-90536924D03*
X143249999Y-90536924D03*
X143750000Y-90536924D03*
X143750000Y-96287692D03*
X143249999Y-96287692D03*
X142750000Y-96287692D03*
X142249998Y-96287692D03*
X141749999Y-96287692D03*
X141250000Y-96287692D03*
X140749999Y-96287692D03*
X140250000Y-96287692D03*
X139749998Y-96287692D03*
X139249999Y-96287692D03*
X138750000Y-96287692D03*
X138249998Y-96287692D03*
X137749999Y-96287692D03*
X137249998Y-96287692D03*
X136749999Y-96287692D03*
X136250000Y-96287692D03*
X135749998Y-96287692D03*
X135249999Y-96287692D03*
X134749998Y-96287692D03*
D52*
X139249999Y-93412308D03*
D32*
X145500000Y-91312500D03*
X145500000Y-89487500D03*
G36*
X152398039Y-102419685D02*
G01*
X152443794Y-102472489D01*
X152455000Y-102524000D01*
X152455000Y-123276000D01*
X152435315Y-123343039D01*
X152382511Y-123388794D01*
X152331000Y-123400000D01*
X125829000Y-123400000D01*
X125761961Y-123380315D01*
X125716206Y-123327511D01*
X125705000Y-123276000D01*
X125705000Y-102524000D01*
X125724685Y-102456961D01*
X125777489Y-102411206D01*
X125829000Y-102400000D01*
X152331000Y-102400000D01*
X152398039Y-102419685D01*
G37*
%LPD*%
M02*
