G04 #@! TF.GenerationSoftware,KiCad,Pcbnew,9.0.5*
G04 #@! TF.CreationDate,2025-12-26T12:12:57+01:00*
G04 #@! TF.ProjectId,peak-ignitor-box,7065616b-2d69-4676-9e69-746f722d626f,rev?*
G04 #@! TF.SameCoordinates,Original*
G04 #@! TF.FileFunction,Legend,Top*
G04 #@! TF.FilePolarity,Positive*
%FSLAX46Y46*%
G04 Gerber Fmt 4.6, Leading zero omitted, Abs format (unit mm)*
G04 Created by KiCad (PCBNEW 9.0.5) date 2025-12-26 12:12:57*
%MOMM*%
%LPD*%
G01*
G04 APERTURE LIST*
G04 Aperture macros list*
%AMRoundRect*
0 Rectangle with rounded corners*
0 $1 Rounding radius*
0 $2 $3 $4 $5 $6 $7 $8 $9 X,Y pos of 4 corners*
0 Add a 4 corners polygon primitive as box body*
4,1,4,$2,$3,$4,$5,$6,$7,$8,$9,$2,$3,0*
0 Add four circle primitives for the rounded corners*
1,1,$1+$1,$2,$3*
1,1,$1+$1,$4,$5*
1,1,$1+$1,$6,$7*
1,1,$1+$1,$8,$9*
0 Add four rect primitives between the rounded corners*
20,1,$1+$1,$2,$3,$4,$5,0*
20,1,$1+$1,$4,$5,$6,$7,0*
20,1,$1+$1,$6,$7,$8,$9,0*
20,1,$1+$1,$8,$9,$2,$3,0*%
%AMFreePoly0*
4,1,17,1.371000,0.720000,0.950000,0.720000,0.950000,0.580000,1.370000,0.580000,1.370000,0.080000,0.950000,0.080000,0.950000,-0.080000,1.370000,-0.080000,1.370000,-0.580000,0.950000,-0.580000,0.950000,-0.720000,1.370000,-0.720000,1.370000,-1.225000,-0.950000,-1.225000,-0.950000,1.225000,1.371000,1.225000,1.371000,0.720000,1.371000,0.720000,$1*%
%AMFreePoly1*
4,1,19,1.371000,0.720000,0.950000,0.720000,0.950000,0.580000,1.370000,0.580000,1.370000,0.080000,0.950000,0.080000,0.950000,-0.080000,1.370000,-0.080000,1.370000,-0.580000,0.950000,-0.580000,0.950000,-0.720000,1.370000,-0.720000,1.370000,-1.225000,0.949960,-1.225000,-0.949960,-1.225000,-0.950000,-1.225000,-0.950000,1.225000,1.371000,1.225000,1.371000,0.720000,1.371000,0.720000,
$1*%
G04 Aperture macros list end*
%ADD10C,0.120000*%
%ADD11C,0.100000*%
%ADD12C,0.150000*%
%ADD13C,0.000000*%
%ADD14R,2.500000X2.300000*%
%ADD15RoundRect,0.250000X-0.375000X-0.625000X0.375000X-0.625000X0.375000X0.625000X-0.375000X0.625000X0*%
%ADD16RoundRect,0.250000X0.425000X1.075000X-0.425000X1.075000X-0.425000X-1.075000X0.425000X-1.075000X0*%
%ADD17R,2.500000X3.300000*%
%ADD18R,3.175000X3.300000*%
%ADD19RoundRect,0.250000X-0.262500X-0.450000X0.262500X-0.450000X0.262500X0.450000X-0.262500X0.450000X0*%
%ADD20R,1.700000X1.700000*%
%ADD21C,1.700000*%
%ADD22RoundRect,0.250000X-0.325000X-1.100000X0.325000X-1.100000X0.325000X1.100000X-0.325000X1.100000X0*%
%ADD23RoundRect,0.250000X-0.450000X-0.800000X0.450000X-0.800000X0.450000X0.800000X-0.450000X0.800000X0*%
%ADD24RoundRect,0.125000X-0.190000X-0.125000X0.190000X-0.125000X0.190000X0.125000X-0.190000X0.125000X0*%
%ADD25FreePoly0,0.000000*%
%ADD26RoundRect,0.250000X0.450000X-0.262500X0.450000X0.262500X-0.450000X0.262500X-0.450000X-0.262500X0*%
%ADD27C,2.780000*%
%ADD28C,2.000000*%
%ADD29RoundRect,0.250000X0.325000X1.100000X-0.325000X1.100000X-0.325000X-1.100000X0.325000X-1.100000X0*%
%ADD30RoundRect,0.250000X-0.475000X0.250000X-0.475000X-0.250000X0.475000X-0.250000X0.475000X0.250000X0*%
%ADD31RoundRect,0.250000X-0.325000X-0.650000X0.325000X-0.650000X0.325000X0.650000X-0.325000X0.650000X0*%
%ADD32RoundRect,0.250000X1.950000X1.000000X-1.950000X1.000000X-1.950000X-1.000000X1.950000X-1.000000X0*%
%ADD33RoundRect,0.250000X-0.250000X-0.475000X0.250000X-0.475000X0.250000X0.475000X-0.250000X0.475000X0*%
%ADD34RoundRect,0.250000X0.325000X0.650000X-0.325000X0.650000X-0.325000X-0.650000X0.325000X-0.650000X0*%
%ADD35C,3.400000*%
%ADD36R,4.000000X1.500000*%
%ADD37RoundRect,0.250000X-0.362500X-1.075000X0.362500X-1.075000X0.362500X1.075000X-0.362500X1.075000X0*%
%ADD38RoundRect,0.125000X0.190000X0.125000X-0.190000X0.125000X-0.190000X-0.125000X0.190000X-0.125000X0*%
%ADD39FreePoly1,180.000000*%
%ADD40RoundRect,0.250000X-1.950000X-1.000000X1.950000X-1.000000X1.950000X1.000000X-1.950000X1.000000X0*%
%ADD41RoundRect,0.250000X-1.425000X0.362500X-1.425000X-0.362500X1.425000X-0.362500X1.425000X0.362500X0*%
%ADD42RoundRect,0.250000X0.475000X-0.250000X0.475000X0.250000X-0.475000X0.250000X-0.475000X-0.250000X0*%
%ADD43R,4.245000X3.810000*%
%ADD44RoundRect,0.250000X0.262500X0.450000X-0.262500X0.450000X-0.262500X-0.450000X0.262500X-0.450000X0*%
%ADD45R,2.760000X0.650000*%
%ADD46RoundRect,0.250000X-0.450000X0.262500X-0.450000X-0.262500X0.450000X-0.262500X0.450000X0.262500X0*%
%ADD47RoundRect,0.249999X6.350001X-1.340001X6.350001X1.340001X-6.350001X1.340001X-6.350001X-1.340001X0*%
%ADD48RoundRect,0.150000X0.150000X-0.512500X0.150000X0.512500X-0.150000X0.512500X-0.150000X-0.512500X0*%
G04 APERTURE END LIST*
D10*
X253100000Y-110750000D02*
G75*
G02*
X248900000Y-110750000I-2100000J0D01*
G01*
X248900000Y-110750000D02*
G75*
G02*
X253100000Y-110750000I2100000J0D01*
G01*
X253100000Y-127850000D02*
G75*
G02*
X248900000Y-127850000I-2100000J0D01*
G01*
X248900000Y-127850000D02*
G75*
G02*
X253100000Y-127850000I2100000J0D01*
G01*
X223500000Y-127850000D02*
G75*
G02*
X219300000Y-127850000I-2100000J0D01*
G01*
X219300000Y-127850000D02*
G75*
G02*
X223500000Y-127850000I2100000J0D01*
G01*
D11*
X223500000Y-110750000D02*
G75*
G02*
X219300000Y-110750000I-2100000J0D01*
G01*
X219300000Y-110750000D02*
G75*
G02*
X223500000Y-110750000I2100000J0D01*
G01*
D12*
X205336779Y-114069819D02*
X205336779Y-113069819D01*
X205336779Y-113069819D02*
X205717731Y-113069819D01*
X205717731Y-113069819D02*
X205812969Y-113117438D01*
X205812969Y-113117438D02*
X205860588Y-113165057D01*
X205860588Y-113165057D02*
X205908207Y-113260295D01*
X205908207Y-113260295D02*
X205908207Y-113403152D01*
X205908207Y-113403152D02*
X205860588Y-113498390D01*
X205860588Y-113498390D02*
X205812969Y-113546009D01*
X205812969Y-113546009D02*
X205717731Y-113593628D01*
X205717731Y-113593628D02*
X205336779Y-113593628D01*
X206908207Y-114069819D02*
X206574874Y-113593628D01*
X206336779Y-114069819D02*
X206336779Y-113069819D01*
X206336779Y-113069819D02*
X206717731Y-113069819D01*
X206717731Y-113069819D02*
X206812969Y-113117438D01*
X206812969Y-113117438D02*
X206860588Y-113165057D01*
X206860588Y-113165057D02*
X206908207Y-113260295D01*
X206908207Y-113260295D02*
X206908207Y-113403152D01*
X206908207Y-113403152D02*
X206860588Y-113498390D01*
X206860588Y-113498390D02*
X206812969Y-113546009D01*
X206812969Y-113546009D02*
X206717731Y-113593628D01*
X206717731Y-113593628D02*
X206336779Y-113593628D01*
X207527255Y-113069819D02*
X207717731Y-113069819D01*
X207717731Y-113069819D02*
X207812969Y-113117438D01*
X207812969Y-113117438D02*
X207908207Y-113212676D01*
X207908207Y-113212676D02*
X207955826Y-113403152D01*
X207955826Y-113403152D02*
X207955826Y-113736485D01*
X207955826Y-113736485D02*
X207908207Y-113926961D01*
X207908207Y-113926961D02*
X207812969Y-114022200D01*
X207812969Y-114022200D02*
X207717731Y-114069819D01*
X207717731Y-114069819D02*
X207527255Y-114069819D01*
X207527255Y-114069819D02*
X207432017Y-114022200D01*
X207432017Y-114022200D02*
X207336779Y-113926961D01*
X207336779Y-113926961D02*
X207289160Y-113736485D01*
X207289160Y-113736485D02*
X207289160Y-113403152D01*
X207289160Y-113403152D02*
X207336779Y-113212676D01*
X207336779Y-113212676D02*
X207432017Y-113117438D01*
X207432017Y-113117438D02*
X207527255Y-113069819D01*
X208908207Y-113117438D02*
X208812969Y-113069819D01*
X208812969Y-113069819D02*
X208670112Y-113069819D01*
X208670112Y-113069819D02*
X208527255Y-113117438D01*
X208527255Y-113117438D02*
X208432017Y-113212676D01*
X208432017Y-113212676D02*
X208384398Y-113307914D01*
X208384398Y-113307914D02*
X208336779Y-113498390D01*
X208336779Y-113498390D02*
X208336779Y-113641247D01*
X208336779Y-113641247D02*
X208384398Y-113831723D01*
X208384398Y-113831723D02*
X208432017Y-113926961D01*
X208432017Y-113926961D02*
X208527255Y-114022200D01*
X208527255Y-114022200D02*
X208670112Y-114069819D01*
X208670112Y-114069819D02*
X208765350Y-114069819D01*
X208765350Y-114069819D02*
X208908207Y-114022200D01*
X208908207Y-114022200D02*
X208955826Y-113974580D01*
X208955826Y-113974580D02*
X208955826Y-113641247D01*
X208955826Y-113641247D02*
X208765350Y-113641247D01*
X215322493Y-122469819D02*
X215322493Y-123184104D01*
X215322493Y-123184104D02*
X215274874Y-123326961D01*
X215274874Y-123326961D02*
X215179636Y-123422200D01*
X215179636Y-123422200D02*
X215036779Y-123469819D01*
X215036779Y-123469819D02*
X214941541Y-123469819D01*
X215655827Y-122469819D02*
X216227255Y-122469819D01*
X215941541Y-123469819D02*
X215941541Y-122469819D01*
X216512970Y-123184104D02*
X216989160Y-123184104D01*
X216417732Y-123469819D02*
X216751065Y-122469819D01*
X216751065Y-122469819D02*
X217084398Y-123469819D01*
X217941541Y-122517438D02*
X217846303Y-122469819D01*
X217846303Y-122469819D02*
X217703446Y-122469819D01*
X217703446Y-122469819D02*
X217560589Y-122517438D01*
X217560589Y-122517438D02*
X217465351Y-122612676D01*
X217465351Y-122612676D02*
X217417732Y-122707914D01*
X217417732Y-122707914D02*
X217370113Y-122898390D01*
X217370113Y-122898390D02*
X217370113Y-123041247D01*
X217370113Y-123041247D02*
X217417732Y-123231723D01*
X217417732Y-123231723D02*
X217465351Y-123326961D01*
X217465351Y-123326961D02*
X217560589Y-123422200D01*
X217560589Y-123422200D02*
X217703446Y-123469819D01*
X217703446Y-123469819D02*
X217798684Y-123469819D01*
X217798684Y-123469819D02*
X217941541Y-123422200D01*
X217941541Y-123422200D02*
X217989160Y-123374580D01*
X217989160Y-123374580D02*
X217989160Y-123041247D01*
X217989160Y-123041247D02*
X217798684Y-123041247D01*
X218165350Y-108203152D02*
X218165350Y-109012676D01*
X218165350Y-109012676D02*
X218117731Y-109107914D01*
X218117731Y-109107914D02*
X218070112Y-109155533D01*
X218070112Y-109155533D02*
X217974874Y-109203152D01*
X217974874Y-109203152D02*
X217832017Y-109203152D01*
X217832017Y-109203152D02*
X217736779Y-109155533D01*
X218165350Y-108822200D02*
X218070112Y-108869819D01*
X218070112Y-108869819D02*
X217879636Y-108869819D01*
X217879636Y-108869819D02*
X217784398Y-108822200D01*
X217784398Y-108822200D02*
X217736779Y-108774580D01*
X217736779Y-108774580D02*
X217689160Y-108679342D01*
X217689160Y-108679342D02*
X217689160Y-108393628D01*
X217689160Y-108393628D02*
X217736779Y-108298390D01*
X217736779Y-108298390D02*
X217784398Y-108250771D01*
X217784398Y-108250771D02*
X217879636Y-108203152D01*
X217879636Y-108203152D02*
X218070112Y-108203152D01*
X218070112Y-108203152D02*
X218165350Y-108250771D01*
X218641541Y-108203152D02*
X218641541Y-108869819D01*
X218641541Y-108298390D02*
X218689160Y-108250771D01*
X218689160Y-108250771D02*
X218784398Y-108203152D01*
X218784398Y-108203152D02*
X218927255Y-108203152D01*
X218927255Y-108203152D02*
X219022493Y-108250771D01*
X219022493Y-108250771D02*
X219070112Y-108346009D01*
X219070112Y-108346009D02*
X219070112Y-108869819D01*
X217593866Y-95663220D02*
X217593866Y-94901316D01*
X217974819Y-95282268D02*
X217212914Y-95282268D01*
X217070057Y-94472744D02*
X217022438Y-94425125D01*
X217022438Y-94425125D02*
X216974819Y-94329887D01*
X216974819Y-94329887D02*
X216974819Y-94091792D01*
X216974819Y-94091792D02*
X217022438Y-93996554D01*
X217022438Y-93996554D02*
X217070057Y-93948935D01*
X217070057Y-93948935D02*
X217165295Y-93901316D01*
X217165295Y-93901316D02*
X217260533Y-93901316D01*
X217260533Y-93901316D02*
X217403390Y-93948935D01*
X217403390Y-93948935D02*
X217974819Y-94520363D01*
X217974819Y-94520363D02*
X217974819Y-93901316D01*
X217308152Y-93044173D02*
X217974819Y-93044173D01*
X216927200Y-93282268D02*
X217641485Y-93520363D01*
X217641485Y-93520363D02*
X217641485Y-92901316D01*
X216974819Y-92663220D02*
X217974819Y-92329887D01*
X217974819Y-92329887D02*
X216974819Y-91996554D01*
X200036779Y-108969819D02*
X200036779Y-108303152D01*
X200036779Y-108493628D02*
X200084398Y-108398390D01*
X200084398Y-108398390D02*
X200132017Y-108350771D01*
X200132017Y-108350771D02*
X200227255Y-108303152D01*
X200227255Y-108303152D02*
X200322493Y-108303152D01*
X200512970Y-108303152D02*
X200893922Y-108303152D01*
X200655827Y-107969819D02*
X200655827Y-108826961D01*
X200655827Y-108826961D02*
X200703446Y-108922200D01*
X200703446Y-108922200D02*
X200798684Y-108969819D01*
X200798684Y-108969819D02*
X200893922Y-108969819D01*
X281993922Y-92369819D02*
X282327255Y-93369819D01*
X282327255Y-93369819D02*
X282660588Y-92369819D01*
X283517731Y-93369819D02*
X282946303Y-93369819D01*
X283232017Y-93369819D02*
X283232017Y-92369819D01*
X283232017Y-92369819D02*
X283136779Y-92512676D01*
X283136779Y-92512676D02*
X283041541Y-92607914D01*
X283041541Y-92607914D02*
X282946303Y-92655533D01*
X283946303Y-93274580D02*
X283993922Y-93322200D01*
X283993922Y-93322200D02*
X283946303Y-93369819D01*
X283946303Y-93369819D02*
X283898684Y-93322200D01*
X283898684Y-93322200D02*
X283946303Y-93274580D01*
X283946303Y-93274580D02*
X283946303Y-93369819D01*
X284612969Y-92369819D02*
X284708207Y-92369819D01*
X284708207Y-92369819D02*
X284803445Y-92417438D01*
X284803445Y-92417438D02*
X284851064Y-92465057D01*
X284851064Y-92465057D02*
X284898683Y-92560295D01*
X284898683Y-92560295D02*
X284946302Y-92750771D01*
X284946302Y-92750771D02*
X284946302Y-92988866D01*
X284946302Y-92988866D02*
X284898683Y-93179342D01*
X284898683Y-93179342D02*
X284851064Y-93274580D01*
X284851064Y-93274580D02*
X284803445Y-93322200D01*
X284803445Y-93322200D02*
X284708207Y-93369819D01*
X284708207Y-93369819D02*
X284612969Y-93369819D01*
X284612969Y-93369819D02*
X284517731Y-93322200D01*
X284517731Y-93322200D02*
X284470112Y-93274580D01*
X284470112Y-93274580D02*
X284422493Y-93179342D01*
X284422493Y-93179342D02*
X284374874Y-92988866D01*
X284374874Y-92988866D02*
X284374874Y-92750771D01*
X284374874Y-92750771D02*
X284422493Y-92560295D01*
X284422493Y-92560295D02*
X284470112Y-92465057D01*
X284470112Y-92465057D02*
X284517731Y-92417438D01*
X284517731Y-92417438D02*
X284612969Y-92369819D01*
X210036779Y-105738866D02*
X210798684Y-105738866D01*
X210417731Y-106119819D02*
X210417731Y-105357914D01*
X211179636Y-105119819D02*
X211798683Y-105119819D01*
X211798683Y-105119819D02*
X211465350Y-105500771D01*
X211465350Y-105500771D02*
X211608207Y-105500771D01*
X211608207Y-105500771D02*
X211703445Y-105548390D01*
X211703445Y-105548390D02*
X211751064Y-105596009D01*
X211751064Y-105596009D02*
X211798683Y-105691247D01*
X211798683Y-105691247D02*
X211798683Y-105929342D01*
X211798683Y-105929342D02*
X211751064Y-106024580D01*
X211751064Y-106024580D02*
X211703445Y-106072200D01*
X211703445Y-106072200D02*
X211608207Y-106119819D01*
X211608207Y-106119819D02*
X211322493Y-106119819D01*
X211322493Y-106119819D02*
X211227255Y-106072200D01*
X211227255Y-106072200D02*
X211179636Y-106024580D01*
X212084398Y-105119819D02*
X212417731Y-106119819D01*
X212417731Y-106119819D02*
X212751064Y-105119819D01*
X212989160Y-105119819D02*
X213608207Y-105119819D01*
X213608207Y-105119819D02*
X213274874Y-105500771D01*
X213274874Y-105500771D02*
X213417731Y-105500771D01*
X213417731Y-105500771D02*
X213512969Y-105548390D01*
X213512969Y-105548390D02*
X213560588Y-105596009D01*
X213560588Y-105596009D02*
X213608207Y-105691247D01*
X213608207Y-105691247D02*
X213608207Y-105929342D01*
X213608207Y-105929342D02*
X213560588Y-106024580D01*
X213560588Y-106024580D02*
X213512969Y-106072200D01*
X213512969Y-106072200D02*
X213417731Y-106119819D01*
X213417731Y-106119819D02*
X213132017Y-106119819D01*
X213132017Y-106119819D02*
X213036779Y-106072200D01*
X213036779Y-106072200D02*
X212989160Y-106024580D01*
X223186779Y-74938866D02*
X223948684Y-74938866D01*
X223567731Y-75319819D02*
X223567731Y-74557914D01*
X224758207Y-74796009D02*
X224901064Y-74843628D01*
X224901064Y-74843628D02*
X224948683Y-74891247D01*
X224948683Y-74891247D02*
X224996302Y-74986485D01*
X224996302Y-74986485D02*
X224996302Y-75129342D01*
X224996302Y-75129342D02*
X224948683Y-75224580D01*
X224948683Y-75224580D02*
X224901064Y-75272200D01*
X224901064Y-75272200D02*
X224805826Y-75319819D01*
X224805826Y-75319819D02*
X224424874Y-75319819D01*
X224424874Y-75319819D02*
X224424874Y-74319819D01*
X224424874Y-74319819D02*
X224758207Y-74319819D01*
X224758207Y-74319819D02*
X224853445Y-74367438D01*
X224853445Y-74367438D02*
X224901064Y-74415057D01*
X224901064Y-74415057D02*
X224948683Y-74510295D01*
X224948683Y-74510295D02*
X224948683Y-74605533D01*
X224948683Y-74605533D02*
X224901064Y-74700771D01*
X224901064Y-74700771D02*
X224853445Y-74748390D01*
X224853445Y-74748390D02*
X224758207Y-74796009D01*
X224758207Y-74796009D02*
X224424874Y-74796009D01*
X225377255Y-75034104D02*
X225853445Y-75034104D01*
X225282017Y-75319819D02*
X225615350Y-74319819D01*
X225615350Y-74319819D02*
X225948683Y-75319819D01*
X226139160Y-74319819D02*
X226710588Y-74319819D01*
X226424874Y-75319819D02*
X226424874Y-74319819D01*
X226901065Y-74319819D02*
X227472493Y-74319819D01*
X227186779Y-75319819D02*
X227186779Y-74319819D01*
X237060588Y-74317438D02*
X236965350Y-74269819D01*
X236965350Y-74269819D02*
X236822493Y-74269819D01*
X236822493Y-74269819D02*
X236679636Y-74317438D01*
X236679636Y-74317438D02*
X236584398Y-74412676D01*
X236584398Y-74412676D02*
X236536779Y-74507914D01*
X236536779Y-74507914D02*
X236489160Y-74698390D01*
X236489160Y-74698390D02*
X236489160Y-74841247D01*
X236489160Y-74841247D02*
X236536779Y-75031723D01*
X236536779Y-75031723D02*
X236584398Y-75126961D01*
X236584398Y-75126961D02*
X236679636Y-75222200D01*
X236679636Y-75222200D02*
X236822493Y-75269819D01*
X236822493Y-75269819D02*
X236917731Y-75269819D01*
X236917731Y-75269819D02*
X237060588Y-75222200D01*
X237060588Y-75222200D02*
X237108207Y-75174580D01*
X237108207Y-75174580D02*
X237108207Y-74841247D01*
X237108207Y-74841247D02*
X236917731Y-74841247D01*
X237536779Y-75269819D02*
X237536779Y-74269819D01*
X237536779Y-74269819D02*
X238108207Y-75269819D01*
X238108207Y-75269819D02*
X238108207Y-74269819D01*
X238584398Y-75269819D02*
X238584398Y-74269819D01*
X238584398Y-74269819D02*
X238822493Y-74269819D01*
X238822493Y-74269819D02*
X238965350Y-74317438D01*
X238965350Y-74317438D02*
X239060588Y-74412676D01*
X239060588Y-74412676D02*
X239108207Y-74507914D01*
X239108207Y-74507914D02*
X239155826Y-74698390D01*
X239155826Y-74698390D02*
X239155826Y-74841247D01*
X239155826Y-74841247D02*
X239108207Y-75031723D01*
X239108207Y-75031723D02*
X239060588Y-75126961D01*
X239060588Y-75126961D02*
X238965350Y-75222200D01*
X238965350Y-75222200D02*
X238822493Y-75269819D01*
X238822493Y-75269819D02*
X238584398Y-75269819D01*
X262936779Y-88388866D02*
X263698684Y-88388866D01*
X263317731Y-88769819D02*
X263317731Y-88007914D01*
X264698683Y-88769819D02*
X264127255Y-88769819D01*
X264412969Y-88769819D02*
X264412969Y-87769819D01*
X264412969Y-87769819D02*
X264317731Y-87912676D01*
X264317731Y-87912676D02*
X264222493Y-88007914D01*
X264222493Y-88007914D02*
X264127255Y-88055533D01*
X265079636Y-87865057D02*
X265127255Y-87817438D01*
X265127255Y-87817438D02*
X265222493Y-87769819D01*
X265222493Y-87769819D02*
X265460588Y-87769819D01*
X265460588Y-87769819D02*
X265555826Y-87817438D01*
X265555826Y-87817438D02*
X265603445Y-87865057D01*
X265603445Y-87865057D02*
X265651064Y-87960295D01*
X265651064Y-87960295D02*
X265651064Y-88055533D01*
X265651064Y-88055533D02*
X265603445Y-88198390D01*
X265603445Y-88198390D02*
X265032017Y-88769819D01*
X265032017Y-88769819D02*
X265651064Y-88769819D01*
X265936779Y-87769819D02*
X266270112Y-88769819D01*
X266270112Y-88769819D02*
X266603445Y-87769819D01*
X259060588Y-87617438D02*
X258965350Y-87569819D01*
X258965350Y-87569819D02*
X258822493Y-87569819D01*
X258822493Y-87569819D02*
X258679636Y-87617438D01*
X258679636Y-87617438D02*
X258584398Y-87712676D01*
X258584398Y-87712676D02*
X258536779Y-87807914D01*
X258536779Y-87807914D02*
X258489160Y-87998390D01*
X258489160Y-87998390D02*
X258489160Y-88141247D01*
X258489160Y-88141247D02*
X258536779Y-88331723D01*
X258536779Y-88331723D02*
X258584398Y-88426961D01*
X258584398Y-88426961D02*
X258679636Y-88522200D01*
X258679636Y-88522200D02*
X258822493Y-88569819D01*
X258822493Y-88569819D02*
X258917731Y-88569819D01*
X258917731Y-88569819D02*
X259060588Y-88522200D01*
X259060588Y-88522200D02*
X259108207Y-88474580D01*
X259108207Y-88474580D02*
X259108207Y-88141247D01*
X259108207Y-88141247D02*
X258917731Y-88141247D01*
X259536779Y-88569819D02*
X259536779Y-87569819D01*
X259536779Y-87569819D02*
X260108207Y-88569819D01*
X260108207Y-88569819D02*
X260108207Y-87569819D01*
X260584398Y-88569819D02*
X260584398Y-87569819D01*
X260584398Y-87569819D02*
X260822493Y-87569819D01*
X260822493Y-87569819D02*
X260965350Y-87617438D01*
X260965350Y-87617438D02*
X261060588Y-87712676D01*
X261060588Y-87712676D02*
X261108207Y-87807914D01*
X261108207Y-87807914D02*
X261155826Y-87998390D01*
X261155826Y-87998390D02*
X261155826Y-88141247D01*
X261155826Y-88141247D02*
X261108207Y-88331723D01*
X261108207Y-88331723D02*
X261060588Y-88426961D01*
X261060588Y-88426961D02*
X260965350Y-88522200D01*
X260965350Y-88522200D02*
X260822493Y-88569819D01*
X260822493Y-88569819D02*
X260584398Y-88569819D01*
X218560588Y-74517438D02*
X218465350Y-74469819D01*
X218465350Y-74469819D02*
X218322493Y-74469819D01*
X218322493Y-74469819D02*
X218179636Y-74517438D01*
X218179636Y-74517438D02*
X218084398Y-74612676D01*
X218084398Y-74612676D02*
X218036779Y-74707914D01*
X218036779Y-74707914D02*
X217989160Y-74898390D01*
X217989160Y-74898390D02*
X217989160Y-75041247D01*
X217989160Y-75041247D02*
X218036779Y-75231723D01*
X218036779Y-75231723D02*
X218084398Y-75326961D01*
X218084398Y-75326961D02*
X218179636Y-75422200D01*
X218179636Y-75422200D02*
X218322493Y-75469819D01*
X218322493Y-75469819D02*
X218417731Y-75469819D01*
X218417731Y-75469819D02*
X218560588Y-75422200D01*
X218560588Y-75422200D02*
X218608207Y-75374580D01*
X218608207Y-75374580D02*
X218608207Y-75041247D01*
X218608207Y-75041247D02*
X218417731Y-75041247D01*
X219036779Y-75469819D02*
X219036779Y-74469819D01*
X219036779Y-74469819D02*
X219608207Y-75469819D01*
X219608207Y-75469819D02*
X219608207Y-74469819D01*
X220084398Y-75469819D02*
X220084398Y-74469819D01*
X220084398Y-74469819D02*
X220322493Y-74469819D01*
X220322493Y-74469819D02*
X220465350Y-74517438D01*
X220465350Y-74517438D02*
X220560588Y-74612676D01*
X220560588Y-74612676D02*
X220608207Y-74707914D01*
X220608207Y-74707914D02*
X220655826Y-74898390D01*
X220655826Y-74898390D02*
X220655826Y-75041247D01*
X220655826Y-75041247D02*
X220608207Y-75231723D01*
X220608207Y-75231723D02*
X220560588Y-75326961D01*
X220560588Y-75326961D02*
X220465350Y-75422200D01*
X220465350Y-75422200D02*
X220322493Y-75469819D01*
X220322493Y-75469819D02*
X220084398Y-75469819D01*
D11*
X217208333Y-100793633D02*
X217208333Y-100093633D01*
X217208333Y-100093633D02*
X217375000Y-100093633D01*
X217375000Y-100093633D02*
X217475000Y-100126966D01*
X217475000Y-100126966D02*
X217541667Y-100193633D01*
X217541667Y-100193633D02*
X217575000Y-100260300D01*
X217575000Y-100260300D02*
X217608333Y-100393633D01*
X217608333Y-100393633D02*
X217608333Y-100493633D01*
X217608333Y-100493633D02*
X217575000Y-100626966D01*
X217575000Y-100626966D02*
X217541667Y-100693633D01*
X217541667Y-100693633D02*
X217475000Y-100760300D01*
X217475000Y-100760300D02*
X217375000Y-100793633D01*
X217375000Y-100793633D02*
X217208333Y-100793633D01*
X218275000Y-100793633D02*
X217875000Y-100793633D01*
X218075000Y-100793633D02*
X218075000Y-100093633D01*
X218075000Y-100093633D02*
X218008333Y-100193633D01*
X218008333Y-100193633D02*
X217941667Y-100260300D01*
X217941667Y-100260300D02*
X217875000Y-100293633D01*
X206861466Y-97302400D02*
X206894800Y-97335733D01*
X206894800Y-97335733D02*
X206928133Y-97435733D01*
X206928133Y-97435733D02*
X206928133Y-97502400D01*
X206928133Y-97502400D02*
X206894800Y-97602400D01*
X206894800Y-97602400D02*
X206828133Y-97669067D01*
X206828133Y-97669067D02*
X206761466Y-97702400D01*
X206761466Y-97702400D02*
X206628133Y-97735733D01*
X206628133Y-97735733D02*
X206528133Y-97735733D01*
X206528133Y-97735733D02*
X206394800Y-97702400D01*
X206394800Y-97702400D02*
X206328133Y-97669067D01*
X206328133Y-97669067D02*
X206261466Y-97602400D01*
X206261466Y-97602400D02*
X206228133Y-97502400D01*
X206228133Y-97502400D02*
X206228133Y-97435733D01*
X206228133Y-97435733D02*
X206261466Y-97335733D01*
X206261466Y-97335733D02*
X206294800Y-97302400D01*
X206928133Y-96635733D02*
X206928133Y-97035733D01*
X206928133Y-96835733D02*
X206228133Y-96835733D01*
X206228133Y-96835733D02*
X206328133Y-96902400D01*
X206328133Y-96902400D02*
X206394800Y-96969067D01*
X206394800Y-96969067D02*
X206428133Y-97035733D01*
X206294800Y-96369066D02*
X206261466Y-96335733D01*
X206261466Y-96335733D02*
X206228133Y-96269066D01*
X206228133Y-96269066D02*
X206228133Y-96102400D01*
X206228133Y-96102400D02*
X206261466Y-96035733D01*
X206261466Y-96035733D02*
X206294800Y-96002400D01*
X206294800Y-96002400D02*
X206361466Y-95969066D01*
X206361466Y-95969066D02*
X206428133Y-95969066D01*
X206428133Y-95969066D02*
X206528133Y-96002400D01*
X206528133Y-96002400D02*
X206928133Y-96402400D01*
X206928133Y-96402400D02*
X206928133Y-95969066D01*
X216949999Y-79818633D02*
X216716666Y-79485300D01*
X216549999Y-79818633D02*
X216549999Y-79118633D01*
X216549999Y-79118633D02*
X216816666Y-79118633D01*
X216816666Y-79118633D02*
X216883333Y-79151966D01*
X216883333Y-79151966D02*
X216916666Y-79185300D01*
X216916666Y-79185300D02*
X216949999Y-79251966D01*
X216949999Y-79251966D02*
X216949999Y-79351966D01*
X216949999Y-79351966D02*
X216916666Y-79418633D01*
X216916666Y-79418633D02*
X216883333Y-79451966D01*
X216883333Y-79451966D02*
X216816666Y-79485300D01*
X216816666Y-79485300D02*
X216549999Y-79485300D01*
X217616666Y-79818633D02*
X217216666Y-79818633D01*
X217416666Y-79818633D02*
X217416666Y-79118633D01*
X217416666Y-79118633D02*
X217349999Y-79218633D01*
X217349999Y-79218633D02*
X217283333Y-79285300D01*
X217283333Y-79285300D02*
X217216666Y-79318633D01*
X218250000Y-79118633D02*
X217916666Y-79118633D01*
X217916666Y-79118633D02*
X217883333Y-79451966D01*
X217883333Y-79451966D02*
X217916666Y-79418633D01*
X217916666Y-79418633D02*
X217983333Y-79385300D01*
X217983333Y-79385300D02*
X218150000Y-79385300D01*
X218150000Y-79385300D02*
X218216666Y-79418633D01*
X218216666Y-79418633D02*
X218250000Y-79451966D01*
X218250000Y-79451966D02*
X218283333Y-79518633D01*
X218283333Y-79518633D02*
X218283333Y-79685300D01*
X218283333Y-79685300D02*
X218250000Y-79751966D01*
X218250000Y-79751966D02*
X218216666Y-79785300D01*
X218216666Y-79785300D02*
X218150000Y-79818633D01*
X218150000Y-79818633D02*
X217983333Y-79818633D01*
X217983333Y-79818633D02*
X217916666Y-79785300D01*
X217916666Y-79785300D02*
X217883333Y-79751966D01*
X200399999Y-94551966D02*
X200366666Y-94585300D01*
X200366666Y-94585300D02*
X200266666Y-94618633D01*
X200266666Y-94618633D02*
X200199999Y-94618633D01*
X200199999Y-94618633D02*
X200099999Y-94585300D01*
X200099999Y-94585300D02*
X200033333Y-94518633D01*
X200033333Y-94518633D02*
X199999999Y-94451966D01*
X199999999Y-94451966D02*
X199966666Y-94318633D01*
X199966666Y-94318633D02*
X199966666Y-94218633D01*
X199966666Y-94218633D02*
X199999999Y-94085300D01*
X199999999Y-94085300D02*
X200033333Y-94018633D01*
X200033333Y-94018633D02*
X200099999Y-93951966D01*
X200099999Y-93951966D02*
X200199999Y-93918633D01*
X200199999Y-93918633D02*
X200266666Y-93918633D01*
X200266666Y-93918633D02*
X200366666Y-93951966D01*
X200366666Y-93951966D02*
X200399999Y-93985300D01*
X201066666Y-94618633D02*
X200666666Y-94618633D01*
X200866666Y-94618633D02*
X200866666Y-93918633D01*
X200866666Y-93918633D02*
X200799999Y-94018633D01*
X200799999Y-94018633D02*
X200733333Y-94085300D01*
X200733333Y-94085300D02*
X200666666Y-94118633D01*
X201500000Y-93918633D02*
X201566666Y-93918633D01*
X201566666Y-93918633D02*
X201633333Y-93951966D01*
X201633333Y-93951966D02*
X201666666Y-93985300D01*
X201666666Y-93985300D02*
X201700000Y-94051966D01*
X201700000Y-94051966D02*
X201733333Y-94185300D01*
X201733333Y-94185300D02*
X201733333Y-94351966D01*
X201733333Y-94351966D02*
X201700000Y-94485300D01*
X201700000Y-94485300D02*
X201666666Y-94551966D01*
X201666666Y-94551966D02*
X201633333Y-94585300D01*
X201633333Y-94585300D02*
X201566666Y-94618633D01*
X201566666Y-94618633D02*
X201500000Y-94618633D01*
X201500000Y-94618633D02*
X201433333Y-94585300D01*
X201433333Y-94585300D02*
X201400000Y-94551966D01*
X201400000Y-94551966D02*
X201366666Y-94485300D01*
X201366666Y-94485300D02*
X201333333Y-94351966D01*
X201333333Y-94351966D02*
X201333333Y-94185300D01*
X201333333Y-94185300D02*
X201366666Y-94051966D01*
X201366666Y-94051966D02*
X201400000Y-93985300D01*
X201400000Y-93985300D02*
X201433333Y-93951966D01*
X201433333Y-93951966D02*
X201500000Y-93918633D01*
X207733333Y-96968633D02*
X207733333Y-96268633D01*
X207733333Y-96268633D02*
X207900000Y-96268633D01*
X207900000Y-96268633D02*
X208000000Y-96301966D01*
X208000000Y-96301966D02*
X208066667Y-96368633D01*
X208066667Y-96368633D02*
X208100000Y-96435300D01*
X208100000Y-96435300D02*
X208133333Y-96568633D01*
X208133333Y-96568633D02*
X208133333Y-96668633D01*
X208133333Y-96668633D02*
X208100000Y-96801966D01*
X208100000Y-96801966D02*
X208066667Y-96868633D01*
X208066667Y-96868633D02*
X208000000Y-96935300D01*
X208000000Y-96935300D02*
X207900000Y-96968633D01*
X207900000Y-96968633D02*
X207733333Y-96968633D01*
X208366667Y-96268633D02*
X208800000Y-96268633D01*
X208800000Y-96268633D02*
X208566667Y-96535300D01*
X208566667Y-96535300D02*
X208666667Y-96535300D01*
X208666667Y-96535300D02*
X208733333Y-96568633D01*
X208733333Y-96568633D02*
X208766667Y-96601966D01*
X208766667Y-96601966D02*
X208800000Y-96668633D01*
X208800000Y-96668633D02*
X208800000Y-96835300D01*
X208800000Y-96835300D02*
X208766667Y-96901966D01*
X208766667Y-96901966D02*
X208733333Y-96935300D01*
X208733333Y-96935300D02*
X208666667Y-96968633D01*
X208666667Y-96968633D02*
X208466667Y-96968633D01*
X208466667Y-96968633D02*
X208400000Y-96935300D01*
X208400000Y-96935300D02*
X208366667Y-96901966D01*
X215233333Y-87818633D02*
X214899999Y-87818633D01*
X214899999Y-87818633D02*
X214899999Y-87118633D01*
X215833333Y-87818633D02*
X215433333Y-87818633D01*
X215633333Y-87818633D02*
X215633333Y-87118633D01*
X215633333Y-87118633D02*
X215566666Y-87218633D01*
X215566666Y-87218633D02*
X215500000Y-87285300D01*
X215500000Y-87285300D02*
X215433333Y-87318633D01*
X222099999Y-84351966D02*
X222066666Y-84385300D01*
X222066666Y-84385300D02*
X221966666Y-84418633D01*
X221966666Y-84418633D02*
X221899999Y-84418633D01*
X221899999Y-84418633D02*
X221799999Y-84385300D01*
X221799999Y-84385300D02*
X221733333Y-84318633D01*
X221733333Y-84318633D02*
X221699999Y-84251966D01*
X221699999Y-84251966D02*
X221666666Y-84118633D01*
X221666666Y-84118633D02*
X221666666Y-84018633D01*
X221666666Y-84018633D02*
X221699999Y-83885300D01*
X221699999Y-83885300D02*
X221733333Y-83818633D01*
X221733333Y-83818633D02*
X221799999Y-83751966D01*
X221799999Y-83751966D02*
X221899999Y-83718633D01*
X221899999Y-83718633D02*
X221966666Y-83718633D01*
X221966666Y-83718633D02*
X222066666Y-83751966D01*
X222066666Y-83751966D02*
X222099999Y-83785300D01*
X222366666Y-83785300D02*
X222399999Y-83751966D01*
X222399999Y-83751966D02*
X222466666Y-83718633D01*
X222466666Y-83718633D02*
X222633333Y-83718633D01*
X222633333Y-83718633D02*
X222699999Y-83751966D01*
X222699999Y-83751966D02*
X222733333Y-83785300D01*
X222733333Y-83785300D02*
X222766666Y-83851966D01*
X222766666Y-83851966D02*
X222766666Y-83918633D01*
X222766666Y-83918633D02*
X222733333Y-84018633D01*
X222733333Y-84018633D02*
X222333333Y-84418633D01*
X222333333Y-84418633D02*
X222766666Y-84418633D01*
X223200000Y-83718633D02*
X223266666Y-83718633D01*
X223266666Y-83718633D02*
X223333333Y-83751966D01*
X223333333Y-83751966D02*
X223366666Y-83785300D01*
X223366666Y-83785300D02*
X223400000Y-83851966D01*
X223400000Y-83851966D02*
X223433333Y-83985300D01*
X223433333Y-83985300D02*
X223433333Y-84151966D01*
X223433333Y-84151966D02*
X223400000Y-84285300D01*
X223400000Y-84285300D02*
X223366666Y-84351966D01*
X223366666Y-84351966D02*
X223333333Y-84385300D01*
X223333333Y-84385300D02*
X223266666Y-84418633D01*
X223266666Y-84418633D02*
X223200000Y-84418633D01*
X223200000Y-84418633D02*
X223133333Y-84385300D01*
X223133333Y-84385300D02*
X223100000Y-84351966D01*
X223100000Y-84351966D02*
X223066666Y-84285300D01*
X223066666Y-84285300D02*
X223033333Y-84151966D01*
X223033333Y-84151966D02*
X223033333Y-83985300D01*
X223033333Y-83985300D02*
X223066666Y-83851966D01*
X223066666Y-83851966D02*
X223100000Y-83785300D01*
X223100000Y-83785300D02*
X223133333Y-83751966D01*
X223133333Y-83751966D02*
X223200000Y-83718633D01*
X218899999Y-88251966D02*
X218866666Y-88285300D01*
X218866666Y-88285300D02*
X218766666Y-88318633D01*
X218766666Y-88318633D02*
X218699999Y-88318633D01*
X218699999Y-88318633D02*
X218599999Y-88285300D01*
X218599999Y-88285300D02*
X218533333Y-88218633D01*
X218533333Y-88218633D02*
X218499999Y-88151966D01*
X218499999Y-88151966D02*
X218466666Y-88018633D01*
X218466666Y-88018633D02*
X218466666Y-87918633D01*
X218466666Y-87918633D02*
X218499999Y-87785300D01*
X218499999Y-87785300D02*
X218533333Y-87718633D01*
X218533333Y-87718633D02*
X218599999Y-87651966D01*
X218599999Y-87651966D02*
X218699999Y-87618633D01*
X218699999Y-87618633D02*
X218766666Y-87618633D01*
X218766666Y-87618633D02*
X218866666Y-87651966D01*
X218866666Y-87651966D02*
X218899999Y-87685300D01*
X219166666Y-87685300D02*
X219199999Y-87651966D01*
X219199999Y-87651966D02*
X219266666Y-87618633D01*
X219266666Y-87618633D02*
X219433333Y-87618633D01*
X219433333Y-87618633D02*
X219499999Y-87651966D01*
X219499999Y-87651966D02*
X219533333Y-87685300D01*
X219533333Y-87685300D02*
X219566666Y-87751966D01*
X219566666Y-87751966D02*
X219566666Y-87818633D01*
X219566666Y-87818633D02*
X219533333Y-87918633D01*
X219533333Y-87918633D02*
X219133333Y-88318633D01*
X219133333Y-88318633D02*
X219566666Y-88318633D01*
X220233333Y-88318633D02*
X219833333Y-88318633D01*
X220033333Y-88318633D02*
X220033333Y-87618633D01*
X220033333Y-87618633D02*
X219966666Y-87718633D01*
X219966666Y-87718633D02*
X219900000Y-87785300D01*
X219900000Y-87785300D02*
X219833333Y-87818633D01*
X205954999Y-110168633D02*
X205721666Y-109835300D01*
X205554999Y-110168633D02*
X205554999Y-109468633D01*
X205554999Y-109468633D02*
X205821666Y-109468633D01*
X205821666Y-109468633D02*
X205888333Y-109501966D01*
X205888333Y-109501966D02*
X205921666Y-109535300D01*
X205921666Y-109535300D02*
X205954999Y-109601966D01*
X205954999Y-109601966D02*
X205954999Y-109701966D01*
X205954999Y-109701966D02*
X205921666Y-109768633D01*
X205921666Y-109768633D02*
X205888333Y-109801966D01*
X205888333Y-109801966D02*
X205821666Y-109835300D01*
X205821666Y-109835300D02*
X205554999Y-109835300D01*
X206554999Y-109701966D02*
X206554999Y-110168633D01*
X206388333Y-109435300D02*
X206221666Y-109935300D01*
X206221666Y-109935300D02*
X206654999Y-109935300D01*
X207288333Y-110168633D02*
X206888333Y-110168633D01*
X207088333Y-110168633D02*
X207088333Y-109468633D01*
X207088333Y-109468633D02*
X207021666Y-109568633D01*
X207021666Y-109568633D02*
X206955000Y-109635300D01*
X206955000Y-109635300D02*
X206888333Y-109668633D01*
X223218633Y-92099999D02*
X223218633Y-91699999D01*
X223918633Y-91899999D02*
X223218633Y-91899999D01*
X223918633Y-91466666D02*
X223218633Y-91466666D01*
X223551966Y-91466666D02*
X223551966Y-91066666D01*
X223918633Y-91066666D02*
X223218633Y-91066666D01*
X223918633Y-90366666D02*
X223918633Y-90766666D01*
X223918633Y-90566666D02*
X223218633Y-90566666D01*
X223218633Y-90566666D02*
X223318633Y-90633333D01*
X223318633Y-90633333D02*
X223385300Y-90700000D01*
X223385300Y-90700000D02*
X223418633Y-90766666D01*
X232899999Y-104151966D02*
X232866666Y-104185300D01*
X232866666Y-104185300D02*
X232766666Y-104218633D01*
X232766666Y-104218633D02*
X232699999Y-104218633D01*
X232699999Y-104218633D02*
X232599999Y-104185300D01*
X232599999Y-104185300D02*
X232533333Y-104118633D01*
X232533333Y-104118633D02*
X232499999Y-104051966D01*
X232499999Y-104051966D02*
X232466666Y-103918633D01*
X232466666Y-103918633D02*
X232466666Y-103818633D01*
X232466666Y-103818633D02*
X232499999Y-103685300D01*
X232499999Y-103685300D02*
X232533333Y-103618633D01*
X232533333Y-103618633D02*
X232599999Y-103551966D01*
X232599999Y-103551966D02*
X232699999Y-103518633D01*
X232699999Y-103518633D02*
X232766666Y-103518633D01*
X232766666Y-103518633D02*
X232866666Y-103551966D01*
X232866666Y-103551966D02*
X232899999Y-103585300D01*
X233133333Y-103518633D02*
X233566666Y-103518633D01*
X233566666Y-103518633D02*
X233333333Y-103785300D01*
X233333333Y-103785300D02*
X233433333Y-103785300D01*
X233433333Y-103785300D02*
X233499999Y-103818633D01*
X233499999Y-103818633D02*
X233533333Y-103851966D01*
X233533333Y-103851966D02*
X233566666Y-103918633D01*
X233566666Y-103918633D02*
X233566666Y-104085300D01*
X233566666Y-104085300D02*
X233533333Y-104151966D01*
X233533333Y-104151966D02*
X233499999Y-104185300D01*
X233499999Y-104185300D02*
X233433333Y-104218633D01*
X233433333Y-104218633D02*
X233233333Y-104218633D01*
X233233333Y-104218633D02*
X233166666Y-104185300D01*
X233166666Y-104185300D02*
X233133333Y-104151966D01*
X233833333Y-103585300D02*
X233866666Y-103551966D01*
X233866666Y-103551966D02*
X233933333Y-103518633D01*
X233933333Y-103518633D02*
X234100000Y-103518633D01*
X234100000Y-103518633D02*
X234166666Y-103551966D01*
X234166666Y-103551966D02*
X234200000Y-103585300D01*
X234200000Y-103585300D02*
X234233333Y-103651966D01*
X234233333Y-103651966D02*
X234233333Y-103718633D01*
X234233333Y-103718633D02*
X234200000Y-103818633D01*
X234200000Y-103818633D02*
X233800000Y-104218633D01*
X233800000Y-104218633D02*
X234233333Y-104218633D01*
X199183333Y-99668633D02*
X199183333Y-98968633D01*
X199183333Y-98968633D02*
X199350000Y-98968633D01*
X199350000Y-98968633D02*
X199450000Y-99001966D01*
X199450000Y-99001966D02*
X199516667Y-99068633D01*
X199516667Y-99068633D02*
X199550000Y-99135300D01*
X199550000Y-99135300D02*
X199583333Y-99268633D01*
X199583333Y-99268633D02*
X199583333Y-99368633D01*
X199583333Y-99368633D02*
X199550000Y-99501966D01*
X199550000Y-99501966D02*
X199516667Y-99568633D01*
X199516667Y-99568633D02*
X199450000Y-99635300D01*
X199450000Y-99635300D02*
X199350000Y-99668633D01*
X199350000Y-99668633D02*
X199183333Y-99668633D01*
X200216667Y-98968633D02*
X199883333Y-98968633D01*
X199883333Y-98968633D02*
X199850000Y-99301966D01*
X199850000Y-99301966D02*
X199883333Y-99268633D01*
X199883333Y-99268633D02*
X199950000Y-99235300D01*
X199950000Y-99235300D02*
X200116667Y-99235300D01*
X200116667Y-99235300D02*
X200183333Y-99268633D01*
X200183333Y-99268633D02*
X200216667Y-99301966D01*
X200216667Y-99301966D02*
X200250000Y-99368633D01*
X200250000Y-99368633D02*
X200250000Y-99535300D01*
X200250000Y-99535300D02*
X200216667Y-99601966D01*
X200216667Y-99601966D02*
X200183333Y-99635300D01*
X200183333Y-99635300D02*
X200116667Y-99668633D01*
X200116667Y-99668633D02*
X199950000Y-99668633D01*
X199950000Y-99668633D02*
X199883333Y-99635300D01*
X199883333Y-99635300D02*
X199850000Y-99601966D01*
X200433333Y-88985300D02*
X200366666Y-88951966D01*
X200366666Y-88951966D02*
X200300000Y-88885300D01*
X200300000Y-88885300D02*
X200200000Y-88785300D01*
X200200000Y-88785300D02*
X200133333Y-88751966D01*
X200133333Y-88751966D02*
X200066666Y-88751966D01*
X200100000Y-88918633D02*
X200033333Y-88885300D01*
X200033333Y-88885300D02*
X199966666Y-88818633D01*
X199966666Y-88818633D02*
X199933333Y-88685300D01*
X199933333Y-88685300D02*
X199933333Y-88451966D01*
X199933333Y-88451966D02*
X199966666Y-88318633D01*
X199966666Y-88318633D02*
X200033333Y-88251966D01*
X200033333Y-88251966D02*
X200100000Y-88218633D01*
X200100000Y-88218633D02*
X200233333Y-88218633D01*
X200233333Y-88218633D02*
X200300000Y-88251966D01*
X200300000Y-88251966D02*
X200366666Y-88318633D01*
X200366666Y-88318633D02*
X200400000Y-88451966D01*
X200400000Y-88451966D02*
X200400000Y-88685300D01*
X200400000Y-88685300D02*
X200366666Y-88818633D01*
X200366666Y-88818633D02*
X200300000Y-88885300D01*
X200300000Y-88885300D02*
X200233333Y-88918633D01*
X200233333Y-88918633D02*
X200100000Y-88918633D01*
X201033333Y-88218633D02*
X200699999Y-88218633D01*
X200699999Y-88218633D02*
X200666666Y-88551966D01*
X200666666Y-88551966D02*
X200699999Y-88518633D01*
X200699999Y-88518633D02*
X200766666Y-88485300D01*
X200766666Y-88485300D02*
X200933333Y-88485300D01*
X200933333Y-88485300D02*
X200999999Y-88518633D01*
X200999999Y-88518633D02*
X201033333Y-88551966D01*
X201033333Y-88551966D02*
X201066666Y-88618633D01*
X201066666Y-88618633D02*
X201066666Y-88785300D01*
X201066666Y-88785300D02*
X201033333Y-88851966D01*
X201033333Y-88851966D02*
X200999999Y-88885300D01*
X200999999Y-88885300D02*
X200933333Y-88918633D01*
X200933333Y-88918633D02*
X200766666Y-88918633D01*
X200766666Y-88918633D02*
X200699999Y-88885300D01*
X200699999Y-88885300D02*
X200666666Y-88851966D01*
X212649999Y-105068633D02*
X212416666Y-104735300D01*
X212249999Y-105068633D02*
X212249999Y-104368633D01*
X212249999Y-104368633D02*
X212516666Y-104368633D01*
X212516666Y-104368633D02*
X212583333Y-104401966D01*
X212583333Y-104401966D02*
X212616666Y-104435300D01*
X212616666Y-104435300D02*
X212649999Y-104501966D01*
X212649999Y-104501966D02*
X212649999Y-104601966D01*
X212649999Y-104601966D02*
X212616666Y-104668633D01*
X212616666Y-104668633D02*
X212583333Y-104701966D01*
X212583333Y-104701966D02*
X212516666Y-104735300D01*
X212516666Y-104735300D02*
X212249999Y-104735300D01*
X213316666Y-105068633D02*
X212916666Y-105068633D01*
X213116666Y-105068633D02*
X213116666Y-104368633D01*
X213116666Y-104368633D02*
X213049999Y-104468633D01*
X213049999Y-104468633D02*
X212983333Y-104535300D01*
X212983333Y-104535300D02*
X212916666Y-104568633D01*
X213550000Y-104368633D02*
X214016666Y-104368633D01*
X214016666Y-104368633D02*
X213716666Y-105068633D01*
X250616667Y-77851966D02*
X250383333Y-77851966D01*
X250383333Y-78218633D02*
X250383333Y-77518633D01*
X250383333Y-77518633D02*
X250716667Y-77518633D01*
X250916667Y-77518633D02*
X251350000Y-77518633D01*
X251350000Y-77518633D02*
X251116667Y-77785300D01*
X251116667Y-77785300D02*
X251216667Y-77785300D01*
X251216667Y-77785300D02*
X251283333Y-77818633D01*
X251283333Y-77818633D02*
X251316667Y-77851966D01*
X251316667Y-77851966D02*
X251350000Y-77918633D01*
X251350000Y-77918633D02*
X251350000Y-78085300D01*
X251350000Y-78085300D02*
X251316667Y-78151966D01*
X251316667Y-78151966D02*
X251283333Y-78185300D01*
X251283333Y-78185300D02*
X251216667Y-78218633D01*
X251216667Y-78218633D02*
X251016667Y-78218633D01*
X251016667Y-78218633D02*
X250950000Y-78185300D01*
X250950000Y-78185300D02*
X250916667Y-78151966D01*
X221233333Y-116418633D02*
X221233333Y-116918633D01*
X221233333Y-116918633D02*
X221200000Y-117018633D01*
X221200000Y-117018633D02*
X221133333Y-117085300D01*
X221133333Y-117085300D02*
X221033333Y-117118633D01*
X221033333Y-117118633D02*
X220966667Y-117118633D01*
X221933333Y-117118633D02*
X221533333Y-117118633D01*
X221733333Y-117118633D02*
X221733333Y-116418633D01*
X221733333Y-116418633D02*
X221666666Y-116518633D01*
X221666666Y-116518633D02*
X221600000Y-116585300D01*
X221600000Y-116585300D02*
X221533333Y-116618633D01*
X222366667Y-116418633D02*
X222433333Y-116418633D01*
X222433333Y-116418633D02*
X222500000Y-116451966D01*
X222500000Y-116451966D02*
X222533333Y-116485300D01*
X222533333Y-116485300D02*
X222566667Y-116551966D01*
X222566667Y-116551966D02*
X222600000Y-116685300D01*
X222600000Y-116685300D02*
X222600000Y-116851966D01*
X222600000Y-116851966D02*
X222566667Y-116985300D01*
X222566667Y-116985300D02*
X222533333Y-117051966D01*
X222533333Y-117051966D02*
X222500000Y-117085300D01*
X222500000Y-117085300D02*
X222433333Y-117118633D01*
X222433333Y-117118633D02*
X222366667Y-117118633D01*
X222366667Y-117118633D02*
X222300000Y-117085300D01*
X222300000Y-117085300D02*
X222266667Y-117051966D01*
X222266667Y-117051966D02*
X222233333Y-116985300D01*
X222233333Y-116985300D02*
X222200000Y-116851966D01*
X222200000Y-116851966D02*
X222200000Y-116685300D01*
X222200000Y-116685300D02*
X222233333Y-116551966D01*
X222233333Y-116551966D02*
X222266667Y-116485300D01*
X222266667Y-116485300D02*
X222300000Y-116451966D01*
X222300000Y-116451966D02*
X222366667Y-116418633D01*
X244749999Y-103951966D02*
X244716666Y-103985300D01*
X244716666Y-103985300D02*
X244616666Y-104018633D01*
X244616666Y-104018633D02*
X244549999Y-104018633D01*
X244549999Y-104018633D02*
X244449999Y-103985300D01*
X244449999Y-103985300D02*
X244383333Y-103918633D01*
X244383333Y-103918633D02*
X244349999Y-103851966D01*
X244349999Y-103851966D02*
X244316666Y-103718633D01*
X244316666Y-103718633D02*
X244316666Y-103618633D01*
X244316666Y-103618633D02*
X244349999Y-103485300D01*
X244349999Y-103485300D02*
X244383333Y-103418633D01*
X244383333Y-103418633D02*
X244449999Y-103351966D01*
X244449999Y-103351966D02*
X244549999Y-103318633D01*
X244549999Y-103318633D02*
X244616666Y-103318633D01*
X244616666Y-103318633D02*
X244716666Y-103351966D01*
X244716666Y-103351966D02*
X244749999Y-103385300D01*
X245349999Y-103551966D02*
X245349999Y-104018633D01*
X245183333Y-103285300D02*
X245016666Y-103785300D01*
X245016666Y-103785300D02*
X245449999Y-103785300D01*
X246083333Y-104018633D02*
X245683333Y-104018633D01*
X245883333Y-104018633D02*
X245883333Y-103318633D01*
X245883333Y-103318633D02*
X245816666Y-103418633D01*
X245816666Y-103418633D02*
X245750000Y-103485300D01*
X245750000Y-103485300D02*
X245683333Y-103518633D01*
X212301966Y-115300000D02*
X212335300Y-115333333D01*
X212335300Y-115333333D02*
X212368633Y-115433333D01*
X212368633Y-115433333D02*
X212368633Y-115500000D01*
X212368633Y-115500000D02*
X212335300Y-115600000D01*
X212335300Y-115600000D02*
X212268633Y-115666667D01*
X212268633Y-115666667D02*
X212201966Y-115700000D01*
X212201966Y-115700000D02*
X212068633Y-115733333D01*
X212068633Y-115733333D02*
X211968633Y-115733333D01*
X211968633Y-115733333D02*
X211835300Y-115700000D01*
X211835300Y-115700000D02*
X211768633Y-115666667D01*
X211768633Y-115666667D02*
X211701966Y-115600000D01*
X211701966Y-115600000D02*
X211668633Y-115500000D01*
X211668633Y-115500000D02*
X211668633Y-115433333D01*
X211668633Y-115433333D02*
X211701966Y-115333333D01*
X211701966Y-115333333D02*
X211735300Y-115300000D01*
X212368633Y-114633333D02*
X212368633Y-115033333D01*
X212368633Y-114833333D02*
X211668633Y-114833333D01*
X211668633Y-114833333D02*
X211768633Y-114900000D01*
X211768633Y-114900000D02*
X211835300Y-114966667D01*
X211835300Y-114966667D02*
X211868633Y-115033333D01*
X212368633Y-113966666D02*
X212368633Y-114366666D01*
X212368633Y-114166666D02*
X211668633Y-114166666D01*
X211668633Y-114166666D02*
X211768633Y-114233333D01*
X211768633Y-114233333D02*
X211835300Y-114300000D01*
X211835300Y-114300000D02*
X211868633Y-114366666D01*
X205199999Y-105101966D02*
X205166666Y-105135300D01*
X205166666Y-105135300D02*
X205066666Y-105168633D01*
X205066666Y-105168633D02*
X204999999Y-105168633D01*
X204999999Y-105168633D02*
X204899999Y-105135300D01*
X204899999Y-105135300D02*
X204833333Y-105068633D01*
X204833333Y-105068633D02*
X204799999Y-105001966D01*
X204799999Y-105001966D02*
X204766666Y-104868633D01*
X204766666Y-104868633D02*
X204766666Y-104768633D01*
X204766666Y-104768633D02*
X204799999Y-104635300D01*
X204799999Y-104635300D02*
X204833333Y-104568633D01*
X204833333Y-104568633D02*
X204899999Y-104501966D01*
X204899999Y-104501966D02*
X204999999Y-104468633D01*
X204999999Y-104468633D02*
X205066666Y-104468633D01*
X205066666Y-104468633D02*
X205166666Y-104501966D01*
X205166666Y-104501966D02*
X205199999Y-104535300D01*
X205466666Y-104535300D02*
X205499999Y-104501966D01*
X205499999Y-104501966D02*
X205566666Y-104468633D01*
X205566666Y-104468633D02*
X205733333Y-104468633D01*
X205733333Y-104468633D02*
X205799999Y-104501966D01*
X205799999Y-104501966D02*
X205833333Y-104535300D01*
X205833333Y-104535300D02*
X205866666Y-104601966D01*
X205866666Y-104601966D02*
X205866666Y-104668633D01*
X205866666Y-104668633D02*
X205833333Y-104768633D01*
X205833333Y-104768633D02*
X205433333Y-105168633D01*
X205433333Y-105168633D02*
X205866666Y-105168633D01*
X206133333Y-104535300D02*
X206166666Y-104501966D01*
X206166666Y-104501966D02*
X206233333Y-104468633D01*
X206233333Y-104468633D02*
X206400000Y-104468633D01*
X206400000Y-104468633D02*
X206466666Y-104501966D01*
X206466666Y-104501966D02*
X206500000Y-104535300D01*
X206500000Y-104535300D02*
X206533333Y-104601966D01*
X206533333Y-104601966D02*
X206533333Y-104668633D01*
X206533333Y-104668633D02*
X206500000Y-104768633D01*
X206500000Y-104768633D02*
X206100000Y-105168633D01*
X206100000Y-105168633D02*
X206533333Y-105168633D01*
X248749999Y-90201966D02*
X248716666Y-90235300D01*
X248716666Y-90235300D02*
X248616666Y-90268633D01*
X248616666Y-90268633D02*
X248549999Y-90268633D01*
X248549999Y-90268633D02*
X248449999Y-90235300D01*
X248449999Y-90235300D02*
X248383333Y-90168633D01*
X248383333Y-90168633D02*
X248349999Y-90101966D01*
X248349999Y-90101966D02*
X248316666Y-89968633D01*
X248316666Y-89968633D02*
X248316666Y-89868633D01*
X248316666Y-89868633D02*
X248349999Y-89735300D01*
X248349999Y-89735300D02*
X248383333Y-89668633D01*
X248383333Y-89668633D02*
X248449999Y-89601966D01*
X248449999Y-89601966D02*
X248549999Y-89568633D01*
X248549999Y-89568633D02*
X248616666Y-89568633D01*
X248616666Y-89568633D02*
X248716666Y-89601966D01*
X248716666Y-89601966D02*
X248749999Y-89635300D01*
X249349999Y-89801966D02*
X249349999Y-90268633D01*
X249183333Y-89535300D02*
X249016666Y-90035300D01*
X249016666Y-90035300D02*
X249449999Y-90035300D01*
X250050000Y-89568633D02*
X249716666Y-89568633D01*
X249716666Y-89568633D02*
X249683333Y-89901966D01*
X249683333Y-89901966D02*
X249716666Y-89868633D01*
X249716666Y-89868633D02*
X249783333Y-89835300D01*
X249783333Y-89835300D02*
X249950000Y-89835300D01*
X249950000Y-89835300D02*
X250016666Y-89868633D01*
X250016666Y-89868633D02*
X250050000Y-89901966D01*
X250050000Y-89901966D02*
X250083333Y-89968633D01*
X250083333Y-89968633D02*
X250083333Y-90135300D01*
X250083333Y-90135300D02*
X250050000Y-90201966D01*
X250050000Y-90201966D02*
X250016666Y-90235300D01*
X250016666Y-90235300D02*
X249950000Y-90268633D01*
X249950000Y-90268633D02*
X249783333Y-90268633D01*
X249783333Y-90268633D02*
X249716666Y-90235300D01*
X249716666Y-90235300D02*
X249683333Y-90201966D01*
X208199999Y-110168633D02*
X207966666Y-109835300D01*
X207799999Y-110168633D02*
X207799999Y-109468633D01*
X207799999Y-109468633D02*
X208066666Y-109468633D01*
X208066666Y-109468633D02*
X208133333Y-109501966D01*
X208133333Y-109501966D02*
X208166666Y-109535300D01*
X208166666Y-109535300D02*
X208199999Y-109601966D01*
X208199999Y-109601966D02*
X208199999Y-109701966D01*
X208199999Y-109701966D02*
X208166666Y-109768633D01*
X208166666Y-109768633D02*
X208133333Y-109801966D01*
X208133333Y-109801966D02*
X208066666Y-109835300D01*
X208066666Y-109835300D02*
X207799999Y-109835300D01*
X208866666Y-110168633D02*
X208466666Y-110168633D01*
X208666666Y-110168633D02*
X208666666Y-109468633D01*
X208666666Y-109468633D02*
X208599999Y-109568633D01*
X208599999Y-109568633D02*
X208533333Y-109635300D01*
X208533333Y-109635300D02*
X208466666Y-109668633D01*
X209100000Y-109468633D02*
X209533333Y-109468633D01*
X209533333Y-109468633D02*
X209300000Y-109735300D01*
X209300000Y-109735300D02*
X209400000Y-109735300D01*
X209400000Y-109735300D02*
X209466666Y-109768633D01*
X209466666Y-109768633D02*
X209500000Y-109801966D01*
X209500000Y-109801966D02*
X209533333Y-109868633D01*
X209533333Y-109868633D02*
X209533333Y-110035300D01*
X209533333Y-110035300D02*
X209500000Y-110101966D01*
X209500000Y-110101966D02*
X209466666Y-110135300D01*
X209466666Y-110135300D02*
X209400000Y-110168633D01*
X209400000Y-110168633D02*
X209200000Y-110168633D01*
X209200000Y-110168633D02*
X209133333Y-110135300D01*
X209133333Y-110135300D02*
X209100000Y-110101966D01*
X221133333Y-124051966D02*
X221100000Y-124085300D01*
X221100000Y-124085300D02*
X221000000Y-124118633D01*
X221000000Y-124118633D02*
X220933333Y-124118633D01*
X220933333Y-124118633D02*
X220833333Y-124085300D01*
X220833333Y-124085300D02*
X220766667Y-124018633D01*
X220766667Y-124018633D02*
X220733333Y-123951966D01*
X220733333Y-123951966D02*
X220700000Y-123818633D01*
X220700000Y-123818633D02*
X220700000Y-123718633D01*
X220700000Y-123718633D02*
X220733333Y-123585300D01*
X220733333Y-123585300D02*
X220766667Y-123518633D01*
X220766667Y-123518633D02*
X220833333Y-123451966D01*
X220833333Y-123451966D02*
X220933333Y-123418633D01*
X220933333Y-123418633D02*
X221000000Y-123418633D01*
X221000000Y-123418633D02*
X221100000Y-123451966D01*
X221100000Y-123451966D02*
X221133333Y-123485300D01*
X221733333Y-123418633D02*
X221600000Y-123418633D01*
X221600000Y-123418633D02*
X221533333Y-123451966D01*
X221533333Y-123451966D02*
X221500000Y-123485300D01*
X221500000Y-123485300D02*
X221433333Y-123585300D01*
X221433333Y-123585300D02*
X221400000Y-123718633D01*
X221400000Y-123718633D02*
X221400000Y-123985300D01*
X221400000Y-123985300D02*
X221433333Y-124051966D01*
X221433333Y-124051966D02*
X221466667Y-124085300D01*
X221466667Y-124085300D02*
X221533333Y-124118633D01*
X221533333Y-124118633D02*
X221666667Y-124118633D01*
X221666667Y-124118633D02*
X221733333Y-124085300D01*
X221733333Y-124085300D02*
X221766667Y-124051966D01*
X221766667Y-124051966D02*
X221800000Y-123985300D01*
X221800000Y-123985300D02*
X221800000Y-123818633D01*
X221800000Y-123818633D02*
X221766667Y-123751966D01*
X221766667Y-123751966D02*
X221733333Y-123718633D01*
X221733333Y-123718633D02*
X221666667Y-123685300D01*
X221666667Y-123685300D02*
X221533333Y-123685300D01*
X221533333Y-123685300D02*
X221466667Y-123718633D01*
X221466667Y-123718633D02*
X221433333Y-123751966D01*
X221433333Y-123751966D02*
X221400000Y-123818633D01*
X208849999Y-98401966D02*
X208816666Y-98435300D01*
X208816666Y-98435300D02*
X208716666Y-98468633D01*
X208716666Y-98468633D02*
X208649999Y-98468633D01*
X208649999Y-98468633D02*
X208549999Y-98435300D01*
X208549999Y-98435300D02*
X208483333Y-98368633D01*
X208483333Y-98368633D02*
X208449999Y-98301966D01*
X208449999Y-98301966D02*
X208416666Y-98168633D01*
X208416666Y-98168633D02*
X208416666Y-98068633D01*
X208416666Y-98068633D02*
X208449999Y-97935300D01*
X208449999Y-97935300D02*
X208483333Y-97868633D01*
X208483333Y-97868633D02*
X208549999Y-97801966D01*
X208549999Y-97801966D02*
X208649999Y-97768633D01*
X208649999Y-97768633D02*
X208716666Y-97768633D01*
X208716666Y-97768633D02*
X208816666Y-97801966D01*
X208816666Y-97801966D02*
X208849999Y-97835300D01*
X209516666Y-98468633D02*
X209116666Y-98468633D01*
X209316666Y-98468633D02*
X209316666Y-97768633D01*
X209316666Y-97768633D02*
X209249999Y-97868633D01*
X209249999Y-97868633D02*
X209183333Y-97935300D01*
X209183333Y-97935300D02*
X209116666Y-97968633D01*
X210150000Y-97768633D02*
X209816666Y-97768633D01*
X209816666Y-97768633D02*
X209783333Y-98101966D01*
X209783333Y-98101966D02*
X209816666Y-98068633D01*
X209816666Y-98068633D02*
X209883333Y-98035300D01*
X209883333Y-98035300D02*
X210050000Y-98035300D01*
X210050000Y-98035300D02*
X210116666Y-98068633D01*
X210116666Y-98068633D02*
X210150000Y-98101966D01*
X210150000Y-98101966D02*
X210183333Y-98168633D01*
X210183333Y-98168633D02*
X210183333Y-98335300D01*
X210183333Y-98335300D02*
X210150000Y-98401966D01*
X210150000Y-98401966D02*
X210116666Y-98435300D01*
X210116666Y-98435300D02*
X210050000Y-98468633D01*
X210050000Y-98468633D02*
X209883333Y-98468633D01*
X209883333Y-98468633D02*
X209816666Y-98435300D01*
X209816666Y-98435300D02*
X209783333Y-98401966D01*
X212683333Y-108618633D02*
X212683333Y-109118633D01*
X212683333Y-109118633D02*
X212650000Y-109218633D01*
X212650000Y-109218633D02*
X212583333Y-109285300D01*
X212583333Y-109285300D02*
X212483333Y-109318633D01*
X212483333Y-109318633D02*
X212416667Y-109318633D01*
X213383333Y-109318633D02*
X212983333Y-109318633D01*
X213183333Y-109318633D02*
X213183333Y-108618633D01*
X213183333Y-108618633D02*
X213116666Y-108718633D01*
X213116666Y-108718633D02*
X213050000Y-108785300D01*
X213050000Y-108785300D02*
X212983333Y-108818633D01*
X214050000Y-109318633D02*
X213650000Y-109318633D01*
X213850000Y-109318633D02*
X213850000Y-108618633D01*
X213850000Y-108618633D02*
X213783333Y-108718633D01*
X213783333Y-108718633D02*
X213716667Y-108785300D01*
X213716667Y-108785300D02*
X213650000Y-108818633D01*
X201099999Y-121618633D02*
X200866666Y-121285300D01*
X200699999Y-121618633D02*
X200699999Y-120918633D01*
X200699999Y-120918633D02*
X200966666Y-120918633D01*
X200966666Y-120918633D02*
X201033333Y-120951966D01*
X201033333Y-120951966D02*
X201066666Y-120985300D01*
X201066666Y-120985300D02*
X201099999Y-121051966D01*
X201099999Y-121051966D02*
X201099999Y-121151966D01*
X201099999Y-121151966D02*
X201066666Y-121218633D01*
X201066666Y-121218633D02*
X201033333Y-121251966D01*
X201033333Y-121251966D02*
X200966666Y-121285300D01*
X200966666Y-121285300D02*
X200699999Y-121285300D01*
X201699999Y-121151966D02*
X201699999Y-121618633D01*
X201533333Y-120885300D02*
X201366666Y-121385300D01*
X201366666Y-121385300D02*
X201799999Y-121385300D01*
X202033333Y-120985300D02*
X202066666Y-120951966D01*
X202066666Y-120951966D02*
X202133333Y-120918633D01*
X202133333Y-120918633D02*
X202300000Y-120918633D01*
X202300000Y-120918633D02*
X202366666Y-120951966D01*
X202366666Y-120951966D02*
X202400000Y-120985300D01*
X202400000Y-120985300D02*
X202433333Y-121051966D01*
X202433333Y-121051966D02*
X202433333Y-121118633D01*
X202433333Y-121118633D02*
X202400000Y-121218633D01*
X202400000Y-121218633D02*
X202000000Y-121618633D01*
X202000000Y-121618633D02*
X202433333Y-121618633D01*
X222518633Y-77983333D02*
X223018633Y-77983333D01*
X223018633Y-77983333D02*
X223118633Y-78016666D01*
X223118633Y-78016666D02*
X223185300Y-78083333D01*
X223185300Y-78083333D02*
X223218633Y-78183333D01*
X223218633Y-78183333D02*
X223218633Y-78250000D01*
X222518633Y-77316667D02*
X222518633Y-77650000D01*
X222518633Y-77650000D02*
X222851966Y-77683333D01*
X222851966Y-77683333D02*
X222818633Y-77650000D01*
X222818633Y-77650000D02*
X222785300Y-77583333D01*
X222785300Y-77583333D02*
X222785300Y-77416667D01*
X222785300Y-77416667D02*
X222818633Y-77350000D01*
X222818633Y-77350000D02*
X222851966Y-77316667D01*
X222851966Y-77316667D02*
X222918633Y-77283333D01*
X222918633Y-77283333D02*
X223085300Y-77283333D01*
X223085300Y-77283333D02*
X223151966Y-77316667D01*
X223151966Y-77316667D02*
X223185300Y-77350000D01*
X223185300Y-77350000D02*
X223218633Y-77416667D01*
X223218633Y-77416667D02*
X223218633Y-77583333D01*
X223218633Y-77583333D02*
X223185300Y-77650000D01*
X223185300Y-77650000D02*
X223151966Y-77683333D01*
X205618633Y-103891667D02*
X205618633Y-104225000D01*
X205618633Y-104225000D02*
X204918633Y-104225000D01*
X204985300Y-103691666D02*
X204951966Y-103658333D01*
X204951966Y-103658333D02*
X204918633Y-103591666D01*
X204918633Y-103591666D02*
X204918633Y-103425000D01*
X204918633Y-103425000D02*
X204951966Y-103358333D01*
X204951966Y-103358333D02*
X204985300Y-103325000D01*
X204985300Y-103325000D02*
X205051966Y-103291666D01*
X205051966Y-103291666D02*
X205118633Y-103291666D01*
X205118633Y-103291666D02*
X205218633Y-103325000D01*
X205218633Y-103325000D02*
X205618633Y-103725000D01*
X205618633Y-103725000D02*
X205618633Y-103291666D01*
X252049999Y-83788633D02*
X251816666Y-83455300D01*
X251649999Y-83788633D02*
X251649999Y-83088633D01*
X251649999Y-83088633D02*
X251916666Y-83088633D01*
X251916666Y-83088633D02*
X251983333Y-83121966D01*
X251983333Y-83121966D02*
X252016666Y-83155300D01*
X252016666Y-83155300D02*
X252049999Y-83221966D01*
X252049999Y-83221966D02*
X252049999Y-83321966D01*
X252049999Y-83321966D02*
X252016666Y-83388633D01*
X252016666Y-83388633D02*
X251983333Y-83421966D01*
X251983333Y-83421966D02*
X251916666Y-83455300D01*
X251916666Y-83455300D02*
X251649999Y-83455300D01*
X252283333Y-83088633D02*
X252716666Y-83088633D01*
X252716666Y-83088633D02*
X252483333Y-83355300D01*
X252483333Y-83355300D02*
X252583333Y-83355300D01*
X252583333Y-83355300D02*
X252649999Y-83388633D01*
X252649999Y-83388633D02*
X252683333Y-83421966D01*
X252683333Y-83421966D02*
X252716666Y-83488633D01*
X252716666Y-83488633D02*
X252716666Y-83655300D01*
X252716666Y-83655300D02*
X252683333Y-83721966D01*
X252683333Y-83721966D02*
X252649999Y-83755300D01*
X252649999Y-83755300D02*
X252583333Y-83788633D01*
X252583333Y-83788633D02*
X252383333Y-83788633D01*
X252383333Y-83788633D02*
X252316666Y-83755300D01*
X252316666Y-83755300D02*
X252283333Y-83721966D01*
X253350000Y-83088633D02*
X253016666Y-83088633D01*
X253016666Y-83088633D02*
X252983333Y-83421966D01*
X252983333Y-83421966D02*
X253016666Y-83388633D01*
X253016666Y-83388633D02*
X253083333Y-83355300D01*
X253083333Y-83355300D02*
X253250000Y-83355300D01*
X253250000Y-83355300D02*
X253316666Y-83388633D01*
X253316666Y-83388633D02*
X253350000Y-83421966D01*
X253350000Y-83421966D02*
X253383333Y-83488633D01*
X253383333Y-83488633D02*
X253383333Y-83655300D01*
X253383333Y-83655300D02*
X253350000Y-83721966D01*
X253350000Y-83721966D02*
X253316666Y-83755300D01*
X253316666Y-83755300D02*
X253250000Y-83788633D01*
X253250000Y-83788633D02*
X253083333Y-83788633D01*
X253083333Y-83788633D02*
X253016666Y-83755300D01*
X253016666Y-83755300D02*
X252983333Y-83721966D01*
X215233333Y-108568633D02*
X215233333Y-109068633D01*
X215233333Y-109068633D02*
X215200000Y-109168633D01*
X215200000Y-109168633D02*
X215133333Y-109235300D01*
X215133333Y-109235300D02*
X215033333Y-109268633D01*
X215033333Y-109268633D02*
X214966667Y-109268633D01*
X215933333Y-109268633D02*
X215533333Y-109268633D01*
X215733333Y-109268633D02*
X215733333Y-108568633D01*
X215733333Y-108568633D02*
X215666666Y-108668633D01*
X215666666Y-108668633D02*
X215600000Y-108735300D01*
X215600000Y-108735300D02*
X215533333Y-108768633D01*
X216200000Y-108635300D02*
X216233333Y-108601966D01*
X216233333Y-108601966D02*
X216300000Y-108568633D01*
X216300000Y-108568633D02*
X216466667Y-108568633D01*
X216466667Y-108568633D02*
X216533333Y-108601966D01*
X216533333Y-108601966D02*
X216566667Y-108635300D01*
X216566667Y-108635300D02*
X216600000Y-108701966D01*
X216600000Y-108701966D02*
X216600000Y-108768633D01*
X216600000Y-108768633D02*
X216566667Y-108868633D01*
X216566667Y-108868633D02*
X216166667Y-109268633D01*
X216166667Y-109268633D02*
X216600000Y-109268633D01*
X231283333Y-113385300D02*
X231216666Y-113351966D01*
X231216666Y-113351966D02*
X231150000Y-113285300D01*
X231150000Y-113285300D02*
X231050000Y-113185300D01*
X231050000Y-113185300D02*
X230983333Y-113151966D01*
X230983333Y-113151966D02*
X230916666Y-113151966D01*
X230950000Y-113318633D02*
X230883333Y-113285300D01*
X230883333Y-113285300D02*
X230816666Y-113218633D01*
X230816666Y-113218633D02*
X230783333Y-113085300D01*
X230783333Y-113085300D02*
X230783333Y-112851966D01*
X230783333Y-112851966D02*
X230816666Y-112718633D01*
X230816666Y-112718633D02*
X230883333Y-112651966D01*
X230883333Y-112651966D02*
X230950000Y-112618633D01*
X230950000Y-112618633D02*
X231083333Y-112618633D01*
X231083333Y-112618633D02*
X231150000Y-112651966D01*
X231150000Y-112651966D02*
X231216666Y-112718633D01*
X231216666Y-112718633D02*
X231250000Y-112851966D01*
X231250000Y-112851966D02*
X231250000Y-113085300D01*
X231250000Y-113085300D02*
X231216666Y-113218633D01*
X231216666Y-113218633D02*
X231150000Y-113285300D01*
X231150000Y-113285300D02*
X231083333Y-113318633D01*
X231083333Y-113318633D02*
X230950000Y-113318633D01*
X231483333Y-112618633D02*
X231949999Y-112618633D01*
X231949999Y-112618633D02*
X231649999Y-113318633D01*
X232399999Y-80051966D02*
X232366666Y-80085300D01*
X232366666Y-80085300D02*
X232266666Y-80118633D01*
X232266666Y-80118633D02*
X232199999Y-80118633D01*
X232199999Y-80118633D02*
X232099999Y-80085300D01*
X232099999Y-80085300D02*
X232033333Y-80018633D01*
X232033333Y-80018633D02*
X231999999Y-79951966D01*
X231999999Y-79951966D02*
X231966666Y-79818633D01*
X231966666Y-79818633D02*
X231966666Y-79718633D01*
X231966666Y-79718633D02*
X231999999Y-79585300D01*
X231999999Y-79585300D02*
X232033333Y-79518633D01*
X232033333Y-79518633D02*
X232099999Y-79451966D01*
X232099999Y-79451966D02*
X232199999Y-79418633D01*
X232199999Y-79418633D02*
X232266666Y-79418633D01*
X232266666Y-79418633D02*
X232366666Y-79451966D01*
X232366666Y-79451966D02*
X232399999Y-79485300D01*
X232666666Y-79485300D02*
X232699999Y-79451966D01*
X232699999Y-79451966D02*
X232766666Y-79418633D01*
X232766666Y-79418633D02*
X232933333Y-79418633D01*
X232933333Y-79418633D02*
X232999999Y-79451966D01*
X232999999Y-79451966D02*
X233033333Y-79485300D01*
X233033333Y-79485300D02*
X233066666Y-79551966D01*
X233066666Y-79551966D02*
X233066666Y-79618633D01*
X233066666Y-79618633D02*
X233033333Y-79718633D01*
X233033333Y-79718633D02*
X232633333Y-80118633D01*
X232633333Y-80118633D02*
X233066666Y-80118633D01*
X233666666Y-79418633D02*
X233533333Y-79418633D01*
X233533333Y-79418633D02*
X233466666Y-79451966D01*
X233466666Y-79451966D02*
X233433333Y-79485300D01*
X233433333Y-79485300D02*
X233366666Y-79585300D01*
X233366666Y-79585300D02*
X233333333Y-79718633D01*
X233333333Y-79718633D02*
X233333333Y-79985300D01*
X233333333Y-79985300D02*
X233366666Y-80051966D01*
X233366666Y-80051966D02*
X233400000Y-80085300D01*
X233400000Y-80085300D02*
X233466666Y-80118633D01*
X233466666Y-80118633D02*
X233600000Y-80118633D01*
X233600000Y-80118633D02*
X233666666Y-80085300D01*
X233666666Y-80085300D02*
X233700000Y-80051966D01*
X233700000Y-80051966D02*
X233733333Y-79985300D01*
X233733333Y-79985300D02*
X233733333Y-79818633D01*
X233733333Y-79818633D02*
X233700000Y-79751966D01*
X233700000Y-79751966D02*
X233666666Y-79718633D01*
X233666666Y-79718633D02*
X233600000Y-79685300D01*
X233600000Y-79685300D02*
X233466666Y-79685300D01*
X233466666Y-79685300D02*
X233400000Y-79718633D01*
X233400000Y-79718633D02*
X233366666Y-79751966D01*
X233366666Y-79751966D02*
X233333333Y-79818633D01*
X230168633Y-115350000D02*
X229835300Y-115583333D01*
X230168633Y-115750000D02*
X229468633Y-115750000D01*
X229468633Y-115750000D02*
X229468633Y-115483333D01*
X229468633Y-115483333D02*
X229501966Y-115416667D01*
X229501966Y-115416667D02*
X229535300Y-115383333D01*
X229535300Y-115383333D02*
X229601966Y-115350000D01*
X229601966Y-115350000D02*
X229701966Y-115350000D01*
X229701966Y-115350000D02*
X229768633Y-115383333D01*
X229768633Y-115383333D02*
X229801966Y-115416667D01*
X229801966Y-115416667D02*
X229835300Y-115483333D01*
X229835300Y-115483333D02*
X229835300Y-115750000D01*
X229468633Y-115116667D02*
X229468633Y-114683333D01*
X229468633Y-114683333D02*
X229735300Y-114916667D01*
X229735300Y-114916667D02*
X229735300Y-114816667D01*
X229735300Y-114816667D02*
X229768633Y-114750000D01*
X229768633Y-114750000D02*
X229801966Y-114716667D01*
X229801966Y-114716667D02*
X229868633Y-114683333D01*
X229868633Y-114683333D02*
X230035300Y-114683333D01*
X230035300Y-114683333D02*
X230101966Y-114716667D01*
X230101966Y-114716667D02*
X230135300Y-114750000D01*
X230135300Y-114750000D02*
X230168633Y-114816667D01*
X230168633Y-114816667D02*
X230168633Y-115016667D01*
X230168633Y-115016667D02*
X230135300Y-115083333D01*
X230135300Y-115083333D02*
X230101966Y-115116667D01*
X229468633Y-114250000D02*
X229468633Y-114183333D01*
X229468633Y-114183333D02*
X229501966Y-114116666D01*
X229501966Y-114116666D02*
X229535300Y-114083333D01*
X229535300Y-114083333D02*
X229601966Y-114050000D01*
X229601966Y-114050000D02*
X229735300Y-114016666D01*
X229735300Y-114016666D02*
X229901966Y-114016666D01*
X229901966Y-114016666D02*
X230035300Y-114050000D01*
X230035300Y-114050000D02*
X230101966Y-114083333D01*
X230101966Y-114083333D02*
X230135300Y-114116666D01*
X230135300Y-114116666D02*
X230168633Y-114183333D01*
X230168633Y-114183333D02*
X230168633Y-114250000D01*
X230168633Y-114250000D02*
X230135300Y-114316666D01*
X230135300Y-114316666D02*
X230101966Y-114350000D01*
X230101966Y-114350000D02*
X230035300Y-114383333D01*
X230035300Y-114383333D02*
X229901966Y-114416666D01*
X229901966Y-114416666D02*
X229735300Y-114416666D01*
X229735300Y-114416666D02*
X229601966Y-114383333D01*
X229601966Y-114383333D02*
X229535300Y-114350000D01*
X229535300Y-114350000D02*
X229501966Y-114316666D01*
X229501966Y-114316666D02*
X229468633Y-114250000D01*
X208618633Y-108966666D02*
X209118633Y-108966666D01*
X209118633Y-108966666D02*
X209218633Y-108999999D01*
X209218633Y-108999999D02*
X209285300Y-109066666D01*
X209285300Y-109066666D02*
X209318633Y-109166666D01*
X209318633Y-109166666D02*
X209318633Y-109233333D01*
X209318633Y-108266666D02*
X209318633Y-108666666D01*
X209318633Y-108466666D02*
X208618633Y-108466666D01*
X208618633Y-108466666D02*
X208718633Y-108533333D01*
X208718633Y-108533333D02*
X208785300Y-108600000D01*
X208785300Y-108600000D02*
X208818633Y-108666666D01*
X208618633Y-108033333D02*
X208618633Y-107599999D01*
X208618633Y-107599999D02*
X208885300Y-107833333D01*
X208885300Y-107833333D02*
X208885300Y-107733333D01*
X208885300Y-107733333D02*
X208918633Y-107666666D01*
X208918633Y-107666666D02*
X208951966Y-107633333D01*
X208951966Y-107633333D02*
X209018633Y-107599999D01*
X209018633Y-107599999D02*
X209185300Y-107599999D01*
X209185300Y-107599999D02*
X209251966Y-107633333D01*
X209251966Y-107633333D02*
X209285300Y-107666666D01*
X209285300Y-107666666D02*
X209318633Y-107733333D01*
X209318633Y-107733333D02*
X209318633Y-107933333D01*
X209318633Y-107933333D02*
X209285300Y-107999999D01*
X209285300Y-107999999D02*
X209251966Y-108033333D01*
X204321966Y-103425000D02*
X204355300Y-103458333D01*
X204355300Y-103458333D02*
X204388633Y-103558333D01*
X204388633Y-103558333D02*
X204388633Y-103625000D01*
X204388633Y-103625000D02*
X204355300Y-103725000D01*
X204355300Y-103725000D02*
X204288633Y-103791667D01*
X204288633Y-103791667D02*
X204221966Y-103825000D01*
X204221966Y-103825000D02*
X204088633Y-103858333D01*
X204088633Y-103858333D02*
X203988633Y-103858333D01*
X203988633Y-103858333D02*
X203855300Y-103825000D01*
X203855300Y-103825000D02*
X203788633Y-103791667D01*
X203788633Y-103791667D02*
X203721966Y-103725000D01*
X203721966Y-103725000D02*
X203688633Y-103625000D01*
X203688633Y-103625000D02*
X203688633Y-103558333D01*
X203688633Y-103558333D02*
X203721966Y-103458333D01*
X203721966Y-103458333D02*
X203755300Y-103425000D01*
X204388633Y-102758333D02*
X204388633Y-103158333D01*
X204388633Y-102958333D02*
X203688633Y-102958333D01*
X203688633Y-102958333D02*
X203788633Y-103025000D01*
X203788633Y-103025000D02*
X203855300Y-103091667D01*
X203855300Y-103091667D02*
X203888633Y-103158333D01*
X203988633Y-102358333D02*
X203955300Y-102425000D01*
X203955300Y-102425000D02*
X203921966Y-102458333D01*
X203921966Y-102458333D02*
X203855300Y-102491666D01*
X203855300Y-102491666D02*
X203821966Y-102491666D01*
X203821966Y-102491666D02*
X203755300Y-102458333D01*
X203755300Y-102458333D02*
X203721966Y-102425000D01*
X203721966Y-102425000D02*
X203688633Y-102358333D01*
X203688633Y-102358333D02*
X203688633Y-102225000D01*
X203688633Y-102225000D02*
X203721966Y-102158333D01*
X203721966Y-102158333D02*
X203755300Y-102125000D01*
X203755300Y-102125000D02*
X203821966Y-102091666D01*
X203821966Y-102091666D02*
X203855300Y-102091666D01*
X203855300Y-102091666D02*
X203921966Y-102125000D01*
X203921966Y-102125000D02*
X203955300Y-102158333D01*
X203955300Y-102158333D02*
X203988633Y-102225000D01*
X203988633Y-102225000D02*
X203988633Y-102358333D01*
X203988633Y-102358333D02*
X204021966Y-102425000D01*
X204021966Y-102425000D02*
X204055300Y-102458333D01*
X204055300Y-102458333D02*
X204121966Y-102491666D01*
X204121966Y-102491666D02*
X204255300Y-102491666D01*
X204255300Y-102491666D02*
X204321966Y-102458333D01*
X204321966Y-102458333D02*
X204355300Y-102425000D01*
X204355300Y-102425000D02*
X204388633Y-102358333D01*
X204388633Y-102358333D02*
X204388633Y-102225000D01*
X204388633Y-102225000D02*
X204355300Y-102158333D01*
X204355300Y-102158333D02*
X204321966Y-102125000D01*
X204321966Y-102125000D02*
X204255300Y-102091666D01*
X204255300Y-102091666D02*
X204121966Y-102091666D01*
X204121966Y-102091666D02*
X204055300Y-102125000D01*
X204055300Y-102125000D02*
X204021966Y-102158333D01*
X204021966Y-102158333D02*
X203988633Y-102225000D01*
X220133333Y-108518633D02*
X219900000Y-108185300D01*
X219733333Y-108518633D02*
X219733333Y-107818633D01*
X219733333Y-107818633D02*
X220000000Y-107818633D01*
X220000000Y-107818633D02*
X220066667Y-107851966D01*
X220066667Y-107851966D02*
X220100000Y-107885300D01*
X220100000Y-107885300D02*
X220133333Y-107951966D01*
X220133333Y-107951966D02*
X220133333Y-108051966D01*
X220133333Y-108051966D02*
X220100000Y-108118633D01*
X220100000Y-108118633D02*
X220066667Y-108151966D01*
X220066667Y-108151966D02*
X220000000Y-108185300D01*
X220000000Y-108185300D02*
X219733333Y-108185300D01*
X220800000Y-108518633D02*
X220400000Y-108518633D01*
X220600000Y-108518633D02*
X220600000Y-107818633D01*
X220600000Y-107818633D02*
X220533333Y-107918633D01*
X220533333Y-107918633D02*
X220466667Y-107985300D01*
X220466667Y-107985300D02*
X220400000Y-108018633D01*
X264716666Y-82118633D02*
X264716666Y-82618633D01*
X264716666Y-82618633D02*
X264683333Y-82718633D01*
X264683333Y-82718633D02*
X264616666Y-82785300D01*
X264616666Y-82785300D02*
X264516666Y-82818633D01*
X264516666Y-82818633D02*
X264450000Y-82818633D01*
X264983333Y-82118633D02*
X265449999Y-82118633D01*
X265449999Y-82118633D02*
X265149999Y-82818633D01*
X211616667Y-100651966D02*
X211383333Y-100651966D01*
X211383333Y-101018633D02*
X211383333Y-100318633D01*
X211383333Y-100318633D02*
X211716667Y-100318633D01*
X212350000Y-101018633D02*
X211950000Y-101018633D01*
X212150000Y-101018633D02*
X212150000Y-100318633D01*
X212150000Y-100318633D02*
X212083333Y-100418633D01*
X212083333Y-100418633D02*
X212016667Y-100485300D01*
X212016667Y-100485300D02*
X211950000Y-100518633D01*
X200318633Y-117750000D02*
X199985300Y-117983333D01*
X200318633Y-118150000D02*
X199618633Y-118150000D01*
X199618633Y-118150000D02*
X199618633Y-117883333D01*
X199618633Y-117883333D02*
X199651966Y-117816667D01*
X199651966Y-117816667D02*
X199685300Y-117783333D01*
X199685300Y-117783333D02*
X199751966Y-117750000D01*
X199751966Y-117750000D02*
X199851966Y-117750000D01*
X199851966Y-117750000D02*
X199918633Y-117783333D01*
X199918633Y-117783333D02*
X199951966Y-117816667D01*
X199951966Y-117816667D02*
X199985300Y-117883333D01*
X199985300Y-117883333D02*
X199985300Y-118150000D01*
X199618633Y-117516667D02*
X199618633Y-117083333D01*
X199618633Y-117083333D02*
X199885300Y-117316667D01*
X199885300Y-117316667D02*
X199885300Y-117216667D01*
X199885300Y-117216667D02*
X199918633Y-117150000D01*
X199918633Y-117150000D02*
X199951966Y-117116667D01*
X199951966Y-117116667D02*
X200018633Y-117083333D01*
X200018633Y-117083333D02*
X200185300Y-117083333D01*
X200185300Y-117083333D02*
X200251966Y-117116667D01*
X200251966Y-117116667D02*
X200285300Y-117150000D01*
X200285300Y-117150000D02*
X200318633Y-117216667D01*
X200318633Y-117216667D02*
X200318633Y-117416667D01*
X200318633Y-117416667D02*
X200285300Y-117483333D01*
X200285300Y-117483333D02*
X200251966Y-117516667D01*
X200318633Y-116750000D02*
X200318633Y-116616666D01*
X200318633Y-116616666D02*
X200285300Y-116550000D01*
X200285300Y-116550000D02*
X200251966Y-116516666D01*
X200251966Y-116516666D02*
X200151966Y-116450000D01*
X200151966Y-116450000D02*
X200018633Y-116416666D01*
X200018633Y-116416666D02*
X199751966Y-116416666D01*
X199751966Y-116416666D02*
X199685300Y-116450000D01*
X199685300Y-116450000D02*
X199651966Y-116483333D01*
X199651966Y-116483333D02*
X199618633Y-116550000D01*
X199618633Y-116550000D02*
X199618633Y-116683333D01*
X199618633Y-116683333D02*
X199651966Y-116750000D01*
X199651966Y-116750000D02*
X199685300Y-116783333D01*
X199685300Y-116783333D02*
X199751966Y-116816666D01*
X199751966Y-116816666D02*
X199918633Y-116816666D01*
X199918633Y-116816666D02*
X199985300Y-116783333D01*
X199985300Y-116783333D02*
X200018633Y-116750000D01*
X200018633Y-116750000D02*
X200051966Y-116683333D01*
X200051966Y-116683333D02*
X200051966Y-116550000D01*
X200051966Y-116550000D02*
X200018633Y-116483333D01*
X200018633Y-116483333D02*
X199985300Y-116450000D01*
X199985300Y-116450000D02*
X199918633Y-116416666D01*
X225633333Y-113635300D02*
X225566666Y-113601966D01*
X225566666Y-113601966D02*
X225500000Y-113535300D01*
X225500000Y-113535300D02*
X225400000Y-113435300D01*
X225400000Y-113435300D02*
X225333333Y-113401966D01*
X225333333Y-113401966D02*
X225266666Y-113401966D01*
X225300000Y-113568633D02*
X225233333Y-113535300D01*
X225233333Y-113535300D02*
X225166666Y-113468633D01*
X225166666Y-113468633D02*
X225133333Y-113335300D01*
X225133333Y-113335300D02*
X225133333Y-113101966D01*
X225133333Y-113101966D02*
X225166666Y-112968633D01*
X225166666Y-112968633D02*
X225233333Y-112901966D01*
X225233333Y-112901966D02*
X225300000Y-112868633D01*
X225300000Y-112868633D02*
X225433333Y-112868633D01*
X225433333Y-112868633D02*
X225500000Y-112901966D01*
X225500000Y-112901966D02*
X225566666Y-112968633D01*
X225566666Y-112968633D02*
X225600000Y-113101966D01*
X225600000Y-113101966D02*
X225600000Y-113335300D01*
X225600000Y-113335300D02*
X225566666Y-113468633D01*
X225566666Y-113468633D02*
X225500000Y-113535300D01*
X225500000Y-113535300D02*
X225433333Y-113568633D01*
X225433333Y-113568633D02*
X225300000Y-113568633D01*
X226199999Y-112868633D02*
X226066666Y-112868633D01*
X226066666Y-112868633D02*
X225999999Y-112901966D01*
X225999999Y-112901966D02*
X225966666Y-112935300D01*
X225966666Y-112935300D02*
X225899999Y-113035300D01*
X225899999Y-113035300D02*
X225866666Y-113168633D01*
X225866666Y-113168633D02*
X225866666Y-113435300D01*
X225866666Y-113435300D02*
X225899999Y-113501966D01*
X225899999Y-113501966D02*
X225933333Y-113535300D01*
X225933333Y-113535300D02*
X225999999Y-113568633D01*
X225999999Y-113568633D02*
X226133333Y-113568633D01*
X226133333Y-113568633D02*
X226199999Y-113535300D01*
X226199999Y-113535300D02*
X226233333Y-113501966D01*
X226233333Y-113501966D02*
X226266666Y-113435300D01*
X226266666Y-113435300D02*
X226266666Y-113268633D01*
X226266666Y-113268633D02*
X226233333Y-113201966D01*
X226233333Y-113201966D02*
X226199999Y-113168633D01*
X226199999Y-113168633D02*
X226133333Y-113135300D01*
X226133333Y-113135300D02*
X225999999Y-113135300D01*
X225999999Y-113135300D02*
X225933333Y-113168633D01*
X225933333Y-113168633D02*
X225899999Y-113201966D01*
X225899999Y-113201966D02*
X225866666Y-113268633D01*
X222101966Y-108000000D02*
X222135300Y-108033333D01*
X222135300Y-108033333D02*
X222168633Y-108133333D01*
X222168633Y-108133333D02*
X222168633Y-108200000D01*
X222168633Y-108200000D02*
X222135300Y-108300000D01*
X222135300Y-108300000D02*
X222068633Y-108366667D01*
X222068633Y-108366667D02*
X222001966Y-108400000D01*
X222001966Y-108400000D02*
X221868633Y-108433333D01*
X221868633Y-108433333D02*
X221768633Y-108433333D01*
X221768633Y-108433333D02*
X221635300Y-108400000D01*
X221635300Y-108400000D02*
X221568633Y-108366667D01*
X221568633Y-108366667D02*
X221501966Y-108300000D01*
X221501966Y-108300000D02*
X221468633Y-108200000D01*
X221468633Y-108200000D02*
X221468633Y-108133333D01*
X221468633Y-108133333D02*
X221501966Y-108033333D01*
X221501966Y-108033333D02*
X221535300Y-108000000D01*
X221468633Y-107766667D02*
X221468633Y-107333333D01*
X221468633Y-107333333D02*
X221735300Y-107566667D01*
X221735300Y-107566667D02*
X221735300Y-107466667D01*
X221735300Y-107466667D02*
X221768633Y-107400000D01*
X221768633Y-107400000D02*
X221801966Y-107366667D01*
X221801966Y-107366667D02*
X221868633Y-107333333D01*
X221868633Y-107333333D02*
X222035300Y-107333333D01*
X222035300Y-107333333D02*
X222101966Y-107366667D01*
X222101966Y-107366667D02*
X222135300Y-107400000D01*
X222135300Y-107400000D02*
X222168633Y-107466667D01*
X222168633Y-107466667D02*
X222168633Y-107666667D01*
X222168633Y-107666667D02*
X222135300Y-107733333D01*
X222135300Y-107733333D02*
X222101966Y-107766667D01*
X221468633Y-106700000D02*
X221468633Y-107033333D01*
X221468633Y-107033333D02*
X221801966Y-107066666D01*
X221801966Y-107066666D02*
X221768633Y-107033333D01*
X221768633Y-107033333D02*
X221735300Y-106966666D01*
X221735300Y-106966666D02*
X221735300Y-106800000D01*
X221735300Y-106800000D02*
X221768633Y-106733333D01*
X221768633Y-106733333D02*
X221801966Y-106700000D01*
X221801966Y-106700000D02*
X221868633Y-106666666D01*
X221868633Y-106666666D02*
X222035300Y-106666666D01*
X222035300Y-106666666D02*
X222101966Y-106700000D01*
X222101966Y-106700000D02*
X222135300Y-106733333D01*
X222135300Y-106733333D02*
X222168633Y-106800000D01*
X222168633Y-106800000D02*
X222168633Y-106966666D01*
X222168633Y-106966666D02*
X222135300Y-107033333D01*
X222135300Y-107033333D02*
X222101966Y-107066666D01*
X232999999Y-107301966D02*
X232966666Y-107335300D01*
X232966666Y-107335300D02*
X232866666Y-107368633D01*
X232866666Y-107368633D02*
X232799999Y-107368633D01*
X232799999Y-107368633D02*
X232699999Y-107335300D01*
X232699999Y-107335300D02*
X232633333Y-107268633D01*
X232633333Y-107268633D02*
X232599999Y-107201966D01*
X232599999Y-107201966D02*
X232566666Y-107068633D01*
X232566666Y-107068633D02*
X232566666Y-106968633D01*
X232566666Y-106968633D02*
X232599999Y-106835300D01*
X232599999Y-106835300D02*
X232633333Y-106768633D01*
X232633333Y-106768633D02*
X232699999Y-106701966D01*
X232699999Y-106701966D02*
X232799999Y-106668633D01*
X232799999Y-106668633D02*
X232866666Y-106668633D01*
X232866666Y-106668633D02*
X232966666Y-106701966D01*
X232966666Y-106701966D02*
X232999999Y-106735300D01*
X233233333Y-106668633D02*
X233666666Y-106668633D01*
X233666666Y-106668633D02*
X233433333Y-106935300D01*
X233433333Y-106935300D02*
X233533333Y-106935300D01*
X233533333Y-106935300D02*
X233599999Y-106968633D01*
X233599999Y-106968633D02*
X233633333Y-107001966D01*
X233633333Y-107001966D02*
X233666666Y-107068633D01*
X233666666Y-107068633D02*
X233666666Y-107235300D01*
X233666666Y-107235300D02*
X233633333Y-107301966D01*
X233633333Y-107301966D02*
X233599999Y-107335300D01*
X233599999Y-107335300D02*
X233533333Y-107368633D01*
X233533333Y-107368633D02*
X233333333Y-107368633D01*
X233333333Y-107368633D02*
X233266666Y-107335300D01*
X233266666Y-107335300D02*
X233233333Y-107301966D01*
X234266666Y-106901966D02*
X234266666Y-107368633D01*
X234100000Y-106635300D02*
X233933333Y-107135300D01*
X233933333Y-107135300D02*
X234366666Y-107135300D01*
X225868633Y-115300000D02*
X225535300Y-115533333D01*
X225868633Y-115700000D02*
X225168633Y-115700000D01*
X225168633Y-115700000D02*
X225168633Y-115433333D01*
X225168633Y-115433333D02*
X225201966Y-115366667D01*
X225201966Y-115366667D02*
X225235300Y-115333333D01*
X225235300Y-115333333D02*
X225301966Y-115300000D01*
X225301966Y-115300000D02*
X225401966Y-115300000D01*
X225401966Y-115300000D02*
X225468633Y-115333333D01*
X225468633Y-115333333D02*
X225501966Y-115366667D01*
X225501966Y-115366667D02*
X225535300Y-115433333D01*
X225535300Y-115433333D02*
X225535300Y-115700000D01*
X225168633Y-115066667D02*
X225168633Y-114633333D01*
X225168633Y-114633333D02*
X225435300Y-114866667D01*
X225435300Y-114866667D02*
X225435300Y-114766667D01*
X225435300Y-114766667D02*
X225468633Y-114700000D01*
X225468633Y-114700000D02*
X225501966Y-114666667D01*
X225501966Y-114666667D02*
X225568633Y-114633333D01*
X225568633Y-114633333D02*
X225735300Y-114633333D01*
X225735300Y-114633333D02*
X225801966Y-114666667D01*
X225801966Y-114666667D02*
X225835300Y-114700000D01*
X225835300Y-114700000D02*
X225868633Y-114766667D01*
X225868633Y-114766667D02*
X225868633Y-114966667D01*
X225868633Y-114966667D02*
X225835300Y-115033333D01*
X225835300Y-115033333D02*
X225801966Y-115066667D01*
X225868633Y-113966666D02*
X225868633Y-114366666D01*
X225868633Y-114166666D02*
X225168633Y-114166666D01*
X225168633Y-114166666D02*
X225268633Y-114233333D01*
X225268633Y-114233333D02*
X225335300Y-114300000D01*
X225335300Y-114300000D02*
X225368633Y-114366666D01*
X246183333Y-108685300D02*
X246116666Y-108651966D01*
X246116666Y-108651966D02*
X246050000Y-108585300D01*
X246050000Y-108585300D02*
X245950000Y-108485300D01*
X245950000Y-108485300D02*
X245883333Y-108451966D01*
X245883333Y-108451966D02*
X245816666Y-108451966D01*
X245850000Y-108618633D02*
X245783333Y-108585300D01*
X245783333Y-108585300D02*
X245716666Y-108518633D01*
X245716666Y-108518633D02*
X245683333Y-108385300D01*
X245683333Y-108385300D02*
X245683333Y-108151966D01*
X245683333Y-108151966D02*
X245716666Y-108018633D01*
X245716666Y-108018633D02*
X245783333Y-107951966D01*
X245783333Y-107951966D02*
X245850000Y-107918633D01*
X245850000Y-107918633D02*
X245983333Y-107918633D01*
X245983333Y-107918633D02*
X246050000Y-107951966D01*
X246050000Y-107951966D02*
X246116666Y-108018633D01*
X246116666Y-108018633D02*
X246150000Y-108151966D01*
X246150000Y-108151966D02*
X246150000Y-108385300D01*
X246150000Y-108385300D02*
X246116666Y-108518633D01*
X246116666Y-108518633D02*
X246050000Y-108585300D01*
X246050000Y-108585300D02*
X245983333Y-108618633D01*
X245983333Y-108618633D02*
X245850000Y-108618633D01*
X246549999Y-108218633D02*
X246483333Y-108185300D01*
X246483333Y-108185300D02*
X246449999Y-108151966D01*
X246449999Y-108151966D02*
X246416666Y-108085300D01*
X246416666Y-108085300D02*
X246416666Y-108051966D01*
X246416666Y-108051966D02*
X246449999Y-107985300D01*
X246449999Y-107985300D02*
X246483333Y-107951966D01*
X246483333Y-107951966D02*
X246549999Y-107918633D01*
X246549999Y-107918633D02*
X246683333Y-107918633D01*
X246683333Y-107918633D02*
X246749999Y-107951966D01*
X246749999Y-107951966D02*
X246783333Y-107985300D01*
X246783333Y-107985300D02*
X246816666Y-108051966D01*
X246816666Y-108051966D02*
X246816666Y-108085300D01*
X246816666Y-108085300D02*
X246783333Y-108151966D01*
X246783333Y-108151966D02*
X246749999Y-108185300D01*
X246749999Y-108185300D02*
X246683333Y-108218633D01*
X246683333Y-108218633D02*
X246549999Y-108218633D01*
X246549999Y-108218633D02*
X246483333Y-108251966D01*
X246483333Y-108251966D02*
X246449999Y-108285300D01*
X246449999Y-108285300D02*
X246416666Y-108351966D01*
X246416666Y-108351966D02*
X246416666Y-108485300D01*
X246416666Y-108485300D02*
X246449999Y-108551966D01*
X246449999Y-108551966D02*
X246483333Y-108585300D01*
X246483333Y-108585300D02*
X246549999Y-108618633D01*
X246549999Y-108618633D02*
X246683333Y-108618633D01*
X246683333Y-108618633D02*
X246749999Y-108585300D01*
X246749999Y-108585300D02*
X246783333Y-108551966D01*
X246783333Y-108551966D02*
X246816666Y-108485300D01*
X246816666Y-108485300D02*
X246816666Y-108351966D01*
X246816666Y-108351966D02*
X246783333Y-108285300D01*
X246783333Y-108285300D02*
X246749999Y-108251966D01*
X246749999Y-108251966D02*
X246683333Y-108218633D01*
X206633333Y-93985300D02*
X206566666Y-93951966D01*
X206566666Y-93951966D02*
X206500000Y-93885300D01*
X206500000Y-93885300D02*
X206400000Y-93785300D01*
X206400000Y-93785300D02*
X206333333Y-93751966D01*
X206333333Y-93751966D02*
X206266666Y-93751966D01*
X206300000Y-93918633D02*
X206233333Y-93885300D01*
X206233333Y-93885300D02*
X206166666Y-93818633D01*
X206166666Y-93818633D02*
X206133333Y-93685300D01*
X206133333Y-93685300D02*
X206133333Y-93451966D01*
X206133333Y-93451966D02*
X206166666Y-93318633D01*
X206166666Y-93318633D02*
X206233333Y-93251966D01*
X206233333Y-93251966D02*
X206300000Y-93218633D01*
X206300000Y-93218633D02*
X206433333Y-93218633D01*
X206433333Y-93218633D02*
X206500000Y-93251966D01*
X206500000Y-93251966D02*
X206566666Y-93318633D01*
X206566666Y-93318633D02*
X206600000Y-93451966D01*
X206600000Y-93451966D02*
X206600000Y-93685300D01*
X206600000Y-93685300D02*
X206566666Y-93818633D01*
X206566666Y-93818633D02*
X206500000Y-93885300D01*
X206500000Y-93885300D02*
X206433333Y-93918633D01*
X206433333Y-93918633D02*
X206300000Y-93918633D01*
X207199999Y-93451966D02*
X207199999Y-93918633D01*
X207033333Y-93185300D02*
X206866666Y-93685300D01*
X206866666Y-93685300D02*
X207299999Y-93685300D01*
X237649999Y-102951966D02*
X237616666Y-102985300D01*
X237616666Y-102985300D02*
X237516666Y-103018633D01*
X237516666Y-103018633D02*
X237449999Y-103018633D01*
X237449999Y-103018633D02*
X237349999Y-102985300D01*
X237349999Y-102985300D02*
X237283333Y-102918633D01*
X237283333Y-102918633D02*
X237249999Y-102851966D01*
X237249999Y-102851966D02*
X237216666Y-102718633D01*
X237216666Y-102718633D02*
X237216666Y-102618633D01*
X237216666Y-102618633D02*
X237249999Y-102485300D01*
X237249999Y-102485300D02*
X237283333Y-102418633D01*
X237283333Y-102418633D02*
X237349999Y-102351966D01*
X237349999Y-102351966D02*
X237449999Y-102318633D01*
X237449999Y-102318633D02*
X237516666Y-102318633D01*
X237516666Y-102318633D02*
X237616666Y-102351966D01*
X237616666Y-102351966D02*
X237649999Y-102385300D01*
X238249999Y-102551966D02*
X238249999Y-103018633D01*
X238083333Y-102285300D02*
X237916666Y-102785300D01*
X237916666Y-102785300D02*
X238349999Y-102785300D01*
X238916666Y-102551966D02*
X238916666Y-103018633D01*
X238750000Y-102285300D02*
X238583333Y-102785300D01*
X238583333Y-102785300D02*
X239016666Y-102785300D01*
X221183333Y-119168633D02*
X220950000Y-118835300D01*
X220783333Y-119168633D02*
X220783333Y-118468633D01*
X220783333Y-118468633D02*
X221050000Y-118468633D01*
X221050000Y-118468633D02*
X221116667Y-118501966D01*
X221116667Y-118501966D02*
X221150000Y-118535300D01*
X221150000Y-118535300D02*
X221183333Y-118601966D01*
X221183333Y-118601966D02*
X221183333Y-118701966D01*
X221183333Y-118701966D02*
X221150000Y-118768633D01*
X221150000Y-118768633D02*
X221116667Y-118801966D01*
X221116667Y-118801966D02*
X221050000Y-118835300D01*
X221050000Y-118835300D02*
X220783333Y-118835300D01*
X221416667Y-118468633D02*
X221850000Y-118468633D01*
X221850000Y-118468633D02*
X221616667Y-118735300D01*
X221616667Y-118735300D02*
X221716667Y-118735300D01*
X221716667Y-118735300D02*
X221783333Y-118768633D01*
X221783333Y-118768633D02*
X221816667Y-118801966D01*
X221816667Y-118801966D02*
X221850000Y-118868633D01*
X221850000Y-118868633D02*
X221850000Y-119035300D01*
X221850000Y-119035300D02*
X221816667Y-119101966D01*
X221816667Y-119101966D02*
X221783333Y-119135300D01*
X221783333Y-119135300D02*
X221716667Y-119168633D01*
X221716667Y-119168633D02*
X221516667Y-119168633D01*
X221516667Y-119168633D02*
X221450000Y-119135300D01*
X221450000Y-119135300D02*
X221416667Y-119101966D01*
X207166666Y-112768633D02*
X207166666Y-113268633D01*
X207166666Y-113268633D02*
X207133333Y-113368633D01*
X207133333Y-113368633D02*
X207066666Y-113435300D01*
X207066666Y-113435300D02*
X206966666Y-113468633D01*
X206966666Y-113468633D02*
X206900000Y-113468633D01*
X207433333Y-112768633D02*
X207866666Y-112768633D01*
X207866666Y-112768633D02*
X207633333Y-113035300D01*
X207633333Y-113035300D02*
X207733333Y-113035300D01*
X207733333Y-113035300D02*
X207799999Y-113068633D01*
X207799999Y-113068633D02*
X207833333Y-113101966D01*
X207833333Y-113101966D02*
X207866666Y-113168633D01*
X207866666Y-113168633D02*
X207866666Y-113335300D01*
X207866666Y-113335300D02*
X207833333Y-113401966D01*
X207833333Y-113401966D02*
X207799999Y-113435300D01*
X207799999Y-113435300D02*
X207733333Y-113468633D01*
X207733333Y-113468633D02*
X207533333Y-113468633D01*
X207533333Y-113468633D02*
X207466666Y-113435300D01*
X207466666Y-113435300D02*
X207433333Y-113401966D01*
X213018633Y-121933333D02*
X213518633Y-121933333D01*
X213518633Y-121933333D02*
X213618633Y-121966666D01*
X213618633Y-121966666D02*
X213685300Y-122033333D01*
X213685300Y-122033333D02*
X213718633Y-122133333D01*
X213718633Y-122133333D02*
X213718633Y-122200000D01*
X213251966Y-121300000D02*
X213718633Y-121300000D01*
X212985300Y-121466667D02*
X213485300Y-121633333D01*
X213485300Y-121633333D02*
X213485300Y-121200000D01*
X249299999Y-102151966D02*
X249266666Y-102185300D01*
X249266666Y-102185300D02*
X249166666Y-102218633D01*
X249166666Y-102218633D02*
X249099999Y-102218633D01*
X249099999Y-102218633D02*
X248999999Y-102185300D01*
X248999999Y-102185300D02*
X248933333Y-102118633D01*
X248933333Y-102118633D02*
X248899999Y-102051966D01*
X248899999Y-102051966D02*
X248866666Y-101918633D01*
X248866666Y-101918633D02*
X248866666Y-101818633D01*
X248866666Y-101818633D02*
X248899999Y-101685300D01*
X248899999Y-101685300D02*
X248933333Y-101618633D01*
X248933333Y-101618633D02*
X248999999Y-101551966D01*
X248999999Y-101551966D02*
X249099999Y-101518633D01*
X249099999Y-101518633D02*
X249166666Y-101518633D01*
X249166666Y-101518633D02*
X249266666Y-101551966D01*
X249266666Y-101551966D02*
X249299999Y-101585300D01*
X249899999Y-101751966D02*
X249899999Y-102218633D01*
X249733333Y-101485300D02*
X249566666Y-101985300D01*
X249566666Y-101985300D02*
X249999999Y-101985300D01*
X250400000Y-101518633D02*
X250466666Y-101518633D01*
X250466666Y-101518633D02*
X250533333Y-101551966D01*
X250533333Y-101551966D02*
X250566666Y-101585300D01*
X250566666Y-101585300D02*
X250600000Y-101651966D01*
X250600000Y-101651966D02*
X250633333Y-101785300D01*
X250633333Y-101785300D02*
X250633333Y-101951966D01*
X250633333Y-101951966D02*
X250600000Y-102085300D01*
X250600000Y-102085300D02*
X250566666Y-102151966D01*
X250566666Y-102151966D02*
X250533333Y-102185300D01*
X250533333Y-102185300D02*
X250466666Y-102218633D01*
X250466666Y-102218633D02*
X250400000Y-102218633D01*
X250400000Y-102218633D02*
X250333333Y-102185300D01*
X250333333Y-102185300D02*
X250300000Y-102151966D01*
X250300000Y-102151966D02*
X250266666Y-102085300D01*
X250266666Y-102085300D02*
X250233333Y-101951966D01*
X250233333Y-101951966D02*
X250233333Y-101785300D01*
X250233333Y-101785300D02*
X250266666Y-101651966D01*
X250266666Y-101651966D02*
X250300000Y-101585300D01*
X250300000Y-101585300D02*
X250333333Y-101551966D01*
X250333333Y-101551966D02*
X250400000Y-101518633D01*
X235368633Y-77783333D02*
X235868633Y-77783333D01*
X235868633Y-77783333D02*
X235968633Y-77816666D01*
X235968633Y-77816666D02*
X236035300Y-77883333D01*
X236035300Y-77883333D02*
X236068633Y-77983333D01*
X236068633Y-77983333D02*
X236068633Y-78050000D01*
X235368633Y-77150000D02*
X235368633Y-77283333D01*
X235368633Y-77283333D02*
X235401966Y-77350000D01*
X235401966Y-77350000D02*
X235435300Y-77383333D01*
X235435300Y-77383333D02*
X235535300Y-77450000D01*
X235535300Y-77450000D02*
X235668633Y-77483333D01*
X235668633Y-77483333D02*
X235935300Y-77483333D01*
X235935300Y-77483333D02*
X236001966Y-77450000D01*
X236001966Y-77450000D02*
X236035300Y-77416667D01*
X236035300Y-77416667D02*
X236068633Y-77350000D01*
X236068633Y-77350000D02*
X236068633Y-77216667D01*
X236068633Y-77216667D02*
X236035300Y-77150000D01*
X236035300Y-77150000D02*
X236001966Y-77116667D01*
X236001966Y-77116667D02*
X235935300Y-77083333D01*
X235935300Y-77083333D02*
X235768633Y-77083333D01*
X235768633Y-77083333D02*
X235701966Y-77116667D01*
X235701966Y-77116667D02*
X235668633Y-77150000D01*
X235668633Y-77150000D02*
X235635300Y-77216667D01*
X235635300Y-77216667D02*
X235635300Y-77350000D01*
X235635300Y-77350000D02*
X235668633Y-77416667D01*
X235668633Y-77416667D02*
X235701966Y-77450000D01*
X235701966Y-77450000D02*
X235768633Y-77483333D01*
X238833333Y-108685300D02*
X238766666Y-108651966D01*
X238766666Y-108651966D02*
X238700000Y-108585300D01*
X238700000Y-108585300D02*
X238600000Y-108485300D01*
X238600000Y-108485300D02*
X238533333Y-108451966D01*
X238533333Y-108451966D02*
X238466666Y-108451966D01*
X238500000Y-108618633D02*
X238433333Y-108585300D01*
X238433333Y-108585300D02*
X238366666Y-108518633D01*
X238366666Y-108518633D02*
X238333333Y-108385300D01*
X238333333Y-108385300D02*
X238333333Y-108151966D01*
X238333333Y-108151966D02*
X238366666Y-108018633D01*
X238366666Y-108018633D02*
X238433333Y-107951966D01*
X238433333Y-107951966D02*
X238500000Y-107918633D01*
X238500000Y-107918633D02*
X238633333Y-107918633D01*
X238633333Y-107918633D02*
X238700000Y-107951966D01*
X238700000Y-107951966D02*
X238766666Y-108018633D01*
X238766666Y-108018633D02*
X238800000Y-108151966D01*
X238800000Y-108151966D02*
X238800000Y-108385300D01*
X238800000Y-108385300D02*
X238766666Y-108518633D01*
X238766666Y-108518633D02*
X238700000Y-108585300D01*
X238700000Y-108585300D02*
X238633333Y-108618633D01*
X238633333Y-108618633D02*
X238500000Y-108618633D01*
X239133333Y-108618633D02*
X239266666Y-108618633D01*
X239266666Y-108618633D02*
X239333333Y-108585300D01*
X239333333Y-108585300D02*
X239366666Y-108551966D01*
X239366666Y-108551966D02*
X239433333Y-108451966D01*
X239433333Y-108451966D02*
X239466666Y-108318633D01*
X239466666Y-108318633D02*
X239466666Y-108051966D01*
X239466666Y-108051966D02*
X239433333Y-107985300D01*
X239433333Y-107985300D02*
X239399999Y-107951966D01*
X239399999Y-107951966D02*
X239333333Y-107918633D01*
X239333333Y-107918633D02*
X239199999Y-107918633D01*
X239199999Y-107918633D02*
X239133333Y-107951966D01*
X239133333Y-107951966D02*
X239099999Y-107985300D01*
X239099999Y-107985300D02*
X239066666Y-108051966D01*
X239066666Y-108051966D02*
X239066666Y-108218633D01*
X239066666Y-108218633D02*
X239099999Y-108285300D01*
X239099999Y-108285300D02*
X239133333Y-108318633D01*
X239133333Y-108318633D02*
X239199999Y-108351966D01*
X239199999Y-108351966D02*
X239333333Y-108351966D01*
X239333333Y-108351966D02*
X239399999Y-108318633D01*
X239399999Y-108318633D02*
X239433333Y-108285300D01*
X239433333Y-108285300D02*
X239466666Y-108218633D01*
X229366666Y-75418633D02*
X229366666Y-75918633D01*
X229366666Y-75918633D02*
X229333333Y-76018633D01*
X229333333Y-76018633D02*
X229266666Y-76085300D01*
X229266666Y-76085300D02*
X229166666Y-76118633D01*
X229166666Y-76118633D02*
X229100000Y-76118633D01*
X229733333Y-76118633D02*
X229866666Y-76118633D01*
X229866666Y-76118633D02*
X229933333Y-76085300D01*
X229933333Y-76085300D02*
X229966666Y-76051966D01*
X229966666Y-76051966D02*
X230033333Y-75951966D01*
X230033333Y-75951966D02*
X230066666Y-75818633D01*
X230066666Y-75818633D02*
X230066666Y-75551966D01*
X230066666Y-75551966D02*
X230033333Y-75485300D01*
X230033333Y-75485300D02*
X229999999Y-75451966D01*
X229999999Y-75451966D02*
X229933333Y-75418633D01*
X229933333Y-75418633D02*
X229799999Y-75418633D01*
X229799999Y-75418633D02*
X229733333Y-75451966D01*
X229733333Y-75451966D02*
X229699999Y-75485300D01*
X229699999Y-75485300D02*
X229666666Y-75551966D01*
X229666666Y-75551966D02*
X229666666Y-75718633D01*
X229666666Y-75718633D02*
X229699999Y-75785300D01*
X229699999Y-75785300D02*
X229733333Y-75818633D01*
X229733333Y-75818633D02*
X229799999Y-75851966D01*
X229799999Y-75851966D02*
X229933333Y-75851966D01*
X229933333Y-75851966D02*
X229999999Y-75818633D01*
X229999999Y-75818633D02*
X230033333Y-75785300D01*
X230033333Y-75785300D02*
X230066666Y-75718633D01*
X222051966Y-104450000D02*
X222085300Y-104483333D01*
X222085300Y-104483333D02*
X222118633Y-104583333D01*
X222118633Y-104583333D02*
X222118633Y-104650000D01*
X222118633Y-104650000D02*
X222085300Y-104750000D01*
X222085300Y-104750000D02*
X222018633Y-104816667D01*
X222018633Y-104816667D02*
X221951966Y-104850000D01*
X221951966Y-104850000D02*
X221818633Y-104883333D01*
X221818633Y-104883333D02*
X221718633Y-104883333D01*
X221718633Y-104883333D02*
X221585300Y-104850000D01*
X221585300Y-104850000D02*
X221518633Y-104816667D01*
X221518633Y-104816667D02*
X221451966Y-104750000D01*
X221451966Y-104750000D02*
X221418633Y-104650000D01*
X221418633Y-104650000D02*
X221418633Y-104583333D01*
X221418633Y-104583333D02*
X221451966Y-104483333D01*
X221451966Y-104483333D02*
X221485300Y-104450000D01*
X221418633Y-104216667D02*
X221418633Y-103783333D01*
X221418633Y-103783333D02*
X221685300Y-104016667D01*
X221685300Y-104016667D02*
X221685300Y-103916667D01*
X221685300Y-103916667D02*
X221718633Y-103850000D01*
X221718633Y-103850000D02*
X221751966Y-103816667D01*
X221751966Y-103816667D02*
X221818633Y-103783333D01*
X221818633Y-103783333D02*
X221985300Y-103783333D01*
X221985300Y-103783333D02*
X222051966Y-103816667D01*
X222051966Y-103816667D02*
X222085300Y-103850000D01*
X222085300Y-103850000D02*
X222118633Y-103916667D01*
X222118633Y-103916667D02*
X222118633Y-104116667D01*
X222118633Y-104116667D02*
X222085300Y-104183333D01*
X222085300Y-104183333D02*
X222051966Y-104216667D01*
X221418633Y-103550000D02*
X221418633Y-103116666D01*
X221418633Y-103116666D02*
X221685300Y-103350000D01*
X221685300Y-103350000D02*
X221685300Y-103250000D01*
X221685300Y-103250000D02*
X221718633Y-103183333D01*
X221718633Y-103183333D02*
X221751966Y-103150000D01*
X221751966Y-103150000D02*
X221818633Y-103116666D01*
X221818633Y-103116666D02*
X221985300Y-103116666D01*
X221985300Y-103116666D02*
X222051966Y-103150000D01*
X222051966Y-103150000D02*
X222085300Y-103183333D01*
X222085300Y-103183333D02*
X222118633Y-103250000D01*
X222118633Y-103250000D02*
X222118633Y-103450000D01*
X222118633Y-103450000D02*
X222085300Y-103516666D01*
X222085300Y-103516666D02*
X222051966Y-103550000D01*
X236299999Y-104001966D02*
X236266666Y-104035300D01*
X236266666Y-104035300D02*
X236166666Y-104068633D01*
X236166666Y-104068633D02*
X236099999Y-104068633D01*
X236099999Y-104068633D02*
X235999999Y-104035300D01*
X235999999Y-104035300D02*
X235933333Y-103968633D01*
X235933333Y-103968633D02*
X235899999Y-103901966D01*
X235899999Y-103901966D02*
X235866666Y-103768633D01*
X235866666Y-103768633D02*
X235866666Y-103668633D01*
X235866666Y-103668633D02*
X235899999Y-103535300D01*
X235899999Y-103535300D02*
X235933333Y-103468633D01*
X235933333Y-103468633D02*
X235999999Y-103401966D01*
X235999999Y-103401966D02*
X236099999Y-103368633D01*
X236099999Y-103368633D02*
X236166666Y-103368633D01*
X236166666Y-103368633D02*
X236266666Y-103401966D01*
X236266666Y-103401966D02*
X236299999Y-103435300D01*
X236533333Y-103368633D02*
X236966666Y-103368633D01*
X236966666Y-103368633D02*
X236733333Y-103635300D01*
X236733333Y-103635300D02*
X236833333Y-103635300D01*
X236833333Y-103635300D02*
X236899999Y-103668633D01*
X236899999Y-103668633D02*
X236933333Y-103701966D01*
X236933333Y-103701966D02*
X236966666Y-103768633D01*
X236966666Y-103768633D02*
X236966666Y-103935300D01*
X236966666Y-103935300D02*
X236933333Y-104001966D01*
X236933333Y-104001966D02*
X236899999Y-104035300D01*
X236899999Y-104035300D02*
X236833333Y-104068633D01*
X236833333Y-104068633D02*
X236633333Y-104068633D01*
X236633333Y-104068633D02*
X236566666Y-104035300D01*
X236566666Y-104035300D02*
X236533333Y-104001966D01*
X237400000Y-103368633D02*
X237466666Y-103368633D01*
X237466666Y-103368633D02*
X237533333Y-103401966D01*
X237533333Y-103401966D02*
X237566666Y-103435300D01*
X237566666Y-103435300D02*
X237600000Y-103501966D01*
X237600000Y-103501966D02*
X237633333Y-103635300D01*
X237633333Y-103635300D02*
X237633333Y-103801966D01*
X237633333Y-103801966D02*
X237600000Y-103935300D01*
X237600000Y-103935300D02*
X237566666Y-104001966D01*
X237566666Y-104001966D02*
X237533333Y-104035300D01*
X237533333Y-104035300D02*
X237466666Y-104068633D01*
X237466666Y-104068633D02*
X237400000Y-104068633D01*
X237400000Y-104068633D02*
X237333333Y-104035300D01*
X237333333Y-104035300D02*
X237300000Y-104001966D01*
X237300000Y-104001966D02*
X237266666Y-103935300D01*
X237266666Y-103935300D02*
X237233333Y-103801966D01*
X237233333Y-103801966D02*
X237233333Y-103635300D01*
X237233333Y-103635300D02*
X237266666Y-103501966D01*
X237266666Y-103501966D02*
X237300000Y-103435300D01*
X237300000Y-103435300D02*
X237333333Y-103401966D01*
X237333333Y-103401966D02*
X237400000Y-103368633D01*
X210818633Y-115350000D02*
X210485300Y-115583333D01*
X210818633Y-115750000D02*
X210118633Y-115750000D01*
X210118633Y-115750000D02*
X210118633Y-115483333D01*
X210118633Y-115483333D02*
X210151966Y-115416667D01*
X210151966Y-115416667D02*
X210185300Y-115383333D01*
X210185300Y-115383333D02*
X210251966Y-115350000D01*
X210251966Y-115350000D02*
X210351966Y-115350000D01*
X210351966Y-115350000D02*
X210418633Y-115383333D01*
X210418633Y-115383333D02*
X210451966Y-115416667D01*
X210451966Y-115416667D02*
X210485300Y-115483333D01*
X210485300Y-115483333D02*
X210485300Y-115750000D01*
X210818633Y-114683333D02*
X210818633Y-115083333D01*
X210818633Y-114883333D02*
X210118633Y-114883333D01*
X210118633Y-114883333D02*
X210218633Y-114950000D01*
X210218633Y-114950000D02*
X210285300Y-115016667D01*
X210285300Y-115016667D02*
X210318633Y-115083333D01*
X210351966Y-114083333D02*
X210818633Y-114083333D01*
X210085300Y-114250000D02*
X210585300Y-114416666D01*
X210585300Y-114416666D02*
X210585300Y-113983333D01*
X231568633Y-128566667D02*
X231568633Y-128900000D01*
X231568633Y-128900000D02*
X230868633Y-128900000D01*
X230868633Y-128400000D02*
X230868633Y-127966666D01*
X230868633Y-127966666D02*
X231135300Y-128200000D01*
X231135300Y-128200000D02*
X231135300Y-128100000D01*
X231135300Y-128100000D02*
X231168633Y-128033333D01*
X231168633Y-128033333D02*
X231201966Y-128000000D01*
X231201966Y-128000000D02*
X231268633Y-127966666D01*
X231268633Y-127966666D02*
X231435300Y-127966666D01*
X231435300Y-127966666D02*
X231501966Y-128000000D01*
X231501966Y-128000000D02*
X231535300Y-128033333D01*
X231535300Y-128033333D02*
X231568633Y-128100000D01*
X231568633Y-128100000D02*
X231568633Y-128300000D01*
X231568633Y-128300000D02*
X231535300Y-128366666D01*
X231535300Y-128366666D02*
X231501966Y-128400000D01*
X278383334Y-83151966D02*
X278316667Y-83118633D01*
X278316667Y-83118633D02*
X278216667Y-83118633D01*
X278216667Y-83118633D02*
X278116667Y-83151966D01*
X278116667Y-83151966D02*
X278050001Y-83218633D01*
X278050001Y-83218633D02*
X278016667Y-83285300D01*
X278016667Y-83285300D02*
X277983334Y-83418633D01*
X277983334Y-83418633D02*
X277983334Y-83518633D01*
X277983334Y-83518633D02*
X278016667Y-83651966D01*
X278016667Y-83651966D02*
X278050001Y-83718633D01*
X278050001Y-83718633D02*
X278116667Y-83785300D01*
X278116667Y-83785300D02*
X278216667Y-83818633D01*
X278216667Y-83818633D02*
X278283334Y-83818633D01*
X278283334Y-83818633D02*
X278383334Y-83785300D01*
X278383334Y-83785300D02*
X278416667Y-83751966D01*
X278416667Y-83751966D02*
X278416667Y-83518633D01*
X278416667Y-83518633D02*
X278283334Y-83518633D01*
X278816667Y-83118633D02*
X278816667Y-83285300D01*
X278650001Y-83218633D02*
X278816667Y-83285300D01*
X278816667Y-83285300D02*
X278983334Y-83218633D01*
X278716667Y-83418633D02*
X278816667Y-83285300D01*
X278816667Y-83285300D02*
X278916667Y-83418633D01*
X279350000Y-83118633D02*
X279350000Y-83285300D01*
X279183334Y-83218633D02*
X279350000Y-83285300D01*
X279350000Y-83285300D02*
X279516667Y-83218633D01*
X279250000Y-83418633D02*
X279350000Y-83285300D01*
X279350000Y-83285300D02*
X279450000Y-83418633D01*
X279883333Y-83118633D02*
X279883333Y-83285300D01*
X279716667Y-83218633D02*
X279883333Y-83285300D01*
X279883333Y-83285300D02*
X280050000Y-83218633D01*
X279783333Y-83418633D02*
X279883333Y-83285300D01*
X279883333Y-83285300D02*
X279983333Y-83418633D01*
X210449999Y-105018633D02*
X210216666Y-104685300D01*
X210049999Y-105018633D02*
X210049999Y-104318633D01*
X210049999Y-104318633D02*
X210316666Y-104318633D01*
X210316666Y-104318633D02*
X210383333Y-104351966D01*
X210383333Y-104351966D02*
X210416666Y-104385300D01*
X210416666Y-104385300D02*
X210449999Y-104451966D01*
X210449999Y-104451966D02*
X210449999Y-104551966D01*
X210449999Y-104551966D02*
X210416666Y-104618633D01*
X210416666Y-104618633D02*
X210383333Y-104651966D01*
X210383333Y-104651966D02*
X210316666Y-104685300D01*
X210316666Y-104685300D02*
X210049999Y-104685300D01*
X211116666Y-105018633D02*
X210716666Y-105018633D01*
X210916666Y-105018633D02*
X210916666Y-104318633D01*
X210916666Y-104318633D02*
X210849999Y-104418633D01*
X210849999Y-104418633D02*
X210783333Y-104485300D01*
X210783333Y-104485300D02*
X210716666Y-104518633D01*
X211716666Y-104318633D02*
X211583333Y-104318633D01*
X211583333Y-104318633D02*
X211516666Y-104351966D01*
X211516666Y-104351966D02*
X211483333Y-104385300D01*
X211483333Y-104385300D02*
X211416666Y-104485300D01*
X211416666Y-104485300D02*
X211383333Y-104618633D01*
X211383333Y-104618633D02*
X211383333Y-104885300D01*
X211383333Y-104885300D02*
X211416666Y-104951966D01*
X211416666Y-104951966D02*
X211450000Y-104985300D01*
X211450000Y-104985300D02*
X211516666Y-105018633D01*
X211516666Y-105018633D02*
X211650000Y-105018633D01*
X211650000Y-105018633D02*
X211716666Y-104985300D01*
X211716666Y-104985300D02*
X211750000Y-104951966D01*
X211750000Y-104951966D02*
X211783333Y-104885300D01*
X211783333Y-104885300D02*
X211783333Y-104718633D01*
X211783333Y-104718633D02*
X211750000Y-104651966D01*
X211750000Y-104651966D02*
X211716666Y-104618633D01*
X211716666Y-104618633D02*
X211650000Y-104585300D01*
X211650000Y-104585300D02*
X211516666Y-104585300D01*
X211516666Y-104585300D02*
X211450000Y-104618633D01*
X211450000Y-104618633D02*
X211416666Y-104651966D01*
X211416666Y-104651966D02*
X211383333Y-104718633D01*
X244699999Y-106751966D02*
X244666666Y-106785300D01*
X244666666Y-106785300D02*
X244566666Y-106818633D01*
X244566666Y-106818633D02*
X244499999Y-106818633D01*
X244499999Y-106818633D02*
X244399999Y-106785300D01*
X244399999Y-106785300D02*
X244333333Y-106718633D01*
X244333333Y-106718633D02*
X244299999Y-106651966D01*
X244299999Y-106651966D02*
X244266666Y-106518633D01*
X244266666Y-106518633D02*
X244266666Y-106418633D01*
X244266666Y-106418633D02*
X244299999Y-106285300D01*
X244299999Y-106285300D02*
X244333333Y-106218633D01*
X244333333Y-106218633D02*
X244399999Y-106151966D01*
X244399999Y-106151966D02*
X244499999Y-106118633D01*
X244499999Y-106118633D02*
X244566666Y-106118633D01*
X244566666Y-106118633D02*
X244666666Y-106151966D01*
X244666666Y-106151966D02*
X244699999Y-106185300D01*
X245299999Y-106351966D02*
X245299999Y-106818633D01*
X245133333Y-106085300D02*
X244966666Y-106585300D01*
X244966666Y-106585300D02*
X245399999Y-106585300D01*
X245633333Y-106185300D02*
X245666666Y-106151966D01*
X245666666Y-106151966D02*
X245733333Y-106118633D01*
X245733333Y-106118633D02*
X245900000Y-106118633D01*
X245900000Y-106118633D02*
X245966666Y-106151966D01*
X245966666Y-106151966D02*
X246000000Y-106185300D01*
X246000000Y-106185300D02*
X246033333Y-106251966D01*
X246033333Y-106251966D02*
X246033333Y-106318633D01*
X246033333Y-106318633D02*
X246000000Y-106418633D01*
X246000000Y-106418633D02*
X245600000Y-106818633D01*
X245600000Y-106818633D02*
X246033333Y-106818633D01*
X221668633Y-92883333D02*
X222168633Y-92883333D01*
X222168633Y-92883333D02*
X222268633Y-92916666D01*
X222268633Y-92916666D02*
X222335300Y-92983333D01*
X222335300Y-92983333D02*
X222368633Y-93083333D01*
X222368633Y-93083333D02*
X222368633Y-93150000D01*
X222368633Y-92183333D02*
X222368633Y-92583333D01*
X222368633Y-92383333D02*
X221668633Y-92383333D01*
X221668633Y-92383333D02*
X221768633Y-92450000D01*
X221768633Y-92450000D02*
X221835300Y-92516667D01*
X221835300Y-92516667D02*
X221868633Y-92583333D01*
X201738333Y-110468633D02*
X201738333Y-110968633D01*
X201738333Y-110968633D02*
X201705000Y-111068633D01*
X201705000Y-111068633D02*
X201638333Y-111135300D01*
X201638333Y-111135300D02*
X201538333Y-111168633D01*
X201538333Y-111168633D02*
X201471667Y-111168633D01*
X202438333Y-111168633D02*
X202038333Y-111168633D01*
X202238333Y-111168633D02*
X202238333Y-110468633D01*
X202238333Y-110468633D02*
X202171666Y-110568633D01*
X202171666Y-110568633D02*
X202105000Y-110635300D01*
X202105000Y-110635300D02*
X202038333Y-110668633D01*
X203038333Y-110701966D02*
X203038333Y-111168633D01*
X202871667Y-110435300D02*
X202705000Y-110935300D01*
X202705000Y-110935300D02*
X203138333Y-110935300D01*
X204349999Y-111568633D02*
X204116666Y-111235300D01*
X203949999Y-111568633D02*
X203949999Y-110868633D01*
X203949999Y-110868633D02*
X204216666Y-110868633D01*
X204216666Y-110868633D02*
X204283333Y-110901966D01*
X204283333Y-110901966D02*
X204316666Y-110935300D01*
X204316666Y-110935300D02*
X204349999Y-111001966D01*
X204349999Y-111001966D02*
X204349999Y-111101966D01*
X204349999Y-111101966D02*
X204316666Y-111168633D01*
X204316666Y-111168633D02*
X204283333Y-111201966D01*
X204283333Y-111201966D02*
X204216666Y-111235300D01*
X204216666Y-111235300D02*
X203949999Y-111235300D01*
X204949999Y-111101966D02*
X204949999Y-111568633D01*
X204783333Y-110835300D02*
X204616666Y-111335300D01*
X204616666Y-111335300D02*
X205049999Y-111335300D01*
X205450000Y-110868633D02*
X205516666Y-110868633D01*
X205516666Y-110868633D02*
X205583333Y-110901966D01*
X205583333Y-110901966D02*
X205616666Y-110935300D01*
X205616666Y-110935300D02*
X205650000Y-111001966D01*
X205650000Y-111001966D02*
X205683333Y-111135300D01*
X205683333Y-111135300D02*
X205683333Y-111301966D01*
X205683333Y-111301966D02*
X205650000Y-111435300D01*
X205650000Y-111435300D02*
X205616666Y-111501966D01*
X205616666Y-111501966D02*
X205583333Y-111535300D01*
X205583333Y-111535300D02*
X205516666Y-111568633D01*
X205516666Y-111568633D02*
X205450000Y-111568633D01*
X205450000Y-111568633D02*
X205383333Y-111535300D01*
X205383333Y-111535300D02*
X205350000Y-111501966D01*
X205350000Y-111501966D02*
X205316666Y-111435300D01*
X205316666Y-111435300D02*
X205283333Y-111301966D01*
X205283333Y-111301966D02*
X205283333Y-111135300D01*
X205283333Y-111135300D02*
X205316666Y-111001966D01*
X205316666Y-111001966D02*
X205350000Y-110935300D01*
X205350000Y-110935300D02*
X205383333Y-110901966D01*
X205383333Y-110901966D02*
X205450000Y-110868633D01*
X222449999Y-102001966D02*
X222416666Y-102035300D01*
X222416666Y-102035300D02*
X222316666Y-102068633D01*
X222316666Y-102068633D02*
X222249999Y-102068633D01*
X222249999Y-102068633D02*
X222149999Y-102035300D01*
X222149999Y-102035300D02*
X222083333Y-101968633D01*
X222083333Y-101968633D02*
X222049999Y-101901966D01*
X222049999Y-101901966D02*
X222016666Y-101768633D01*
X222016666Y-101768633D02*
X222016666Y-101668633D01*
X222016666Y-101668633D02*
X222049999Y-101535300D01*
X222049999Y-101535300D02*
X222083333Y-101468633D01*
X222083333Y-101468633D02*
X222149999Y-101401966D01*
X222149999Y-101401966D02*
X222249999Y-101368633D01*
X222249999Y-101368633D02*
X222316666Y-101368633D01*
X222316666Y-101368633D02*
X222416666Y-101401966D01*
X222416666Y-101401966D02*
X222449999Y-101435300D01*
X222716666Y-101435300D02*
X222749999Y-101401966D01*
X222749999Y-101401966D02*
X222816666Y-101368633D01*
X222816666Y-101368633D02*
X222983333Y-101368633D01*
X222983333Y-101368633D02*
X223049999Y-101401966D01*
X223049999Y-101401966D02*
X223083333Y-101435300D01*
X223083333Y-101435300D02*
X223116666Y-101501966D01*
X223116666Y-101501966D02*
X223116666Y-101568633D01*
X223116666Y-101568633D02*
X223083333Y-101668633D01*
X223083333Y-101668633D02*
X222683333Y-102068633D01*
X222683333Y-102068633D02*
X223116666Y-102068633D01*
X223516666Y-101668633D02*
X223450000Y-101635300D01*
X223450000Y-101635300D02*
X223416666Y-101601966D01*
X223416666Y-101601966D02*
X223383333Y-101535300D01*
X223383333Y-101535300D02*
X223383333Y-101501966D01*
X223383333Y-101501966D02*
X223416666Y-101435300D01*
X223416666Y-101435300D02*
X223450000Y-101401966D01*
X223450000Y-101401966D02*
X223516666Y-101368633D01*
X223516666Y-101368633D02*
X223650000Y-101368633D01*
X223650000Y-101368633D02*
X223716666Y-101401966D01*
X223716666Y-101401966D02*
X223750000Y-101435300D01*
X223750000Y-101435300D02*
X223783333Y-101501966D01*
X223783333Y-101501966D02*
X223783333Y-101535300D01*
X223783333Y-101535300D02*
X223750000Y-101601966D01*
X223750000Y-101601966D02*
X223716666Y-101635300D01*
X223716666Y-101635300D02*
X223650000Y-101668633D01*
X223650000Y-101668633D02*
X223516666Y-101668633D01*
X223516666Y-101668633D02*
X223450000Y-101701966D01*
X223450000Y-101701966D02*
X223416666Y-101735300D01*
X223416666Y-101735300D02*
X223383333Y-101801966D01*
X223383333Y-101801966D02*
X223383333Y-101935300D01*
X223383333Y-101935300D02*
X223416666Y-102001966D01*
X223416666Y-102001966D02*
X223450000Y-102035300D01*
X223450000Y-102035300D02*
X223516666Y-102068633D01*
X223516666Y-102068633D02*
X223650000Y-102068633D01*
X223650000Y-102068633D02*
X223716666Y-102035300D01*
X223716666Y-102035300D02*
X223750000Y-102001966D01*
X223750000Y-102001966D02*
X223783333Y-101935300D01*
X223783333Y-101935300D02*
X223783333Y-101801966D01*
X223783333Y-101801966D02*
X223750000Y-101735300D01*
X223750000Y-101735300D02*
X223716666Y-101701966D01*
X223716666Y-101701966D02*
X223650000Y-101668633D01*
X205668633Y-103608333D02*
X206235300Y-103608333D01*
X206235300Y-103608333D02*
X206301966Y-103575000D01*
X206301966Y-103575000D02*
X206335300Y-103541666D01*
X206335300Y-103541666D02*
X206368633Y-103475000D01*
X206368633Y-103475000D02*
X206368633Y-103341666D01*
X206368633Y-103341666D02*
X206335300Y-103275000D01*
X206335300Y-103275000D02*
X206301966Y-103241666D01*
X206301966Y-103241666D02*
X206235300Y-103208333D01*
X206235300Y-103208333D02*
X205668633Y-103208333D01*
X205668633Y-102541667D02*
X205668633Y-102875000D01*
X205668633Y-102875000D02*
X206001966Y-102908333D01*
X206001966Y-102908333D02*
X205968633Y-102875000D01*
X205968633Y-102875000D02*
X205935300Y-102808333D01*
X205935300Y-102808333D02*
X205935300Y-102641667D01*
X205935300Y-102641667D02*
X205968633Y-102575000D01*
X205968633Y-102575000D02*
X206001966Y-102541667D01*
X206001966Y-102541667D02*
X206068633Y-102508333D01*
X206068633Y-102508333D02*
X206235300Y-102508333D01*
X206235300Y-102508333D02*
X206301966Y-102541667D01*
X206301966Y-102541667D02*
X206335300Y-102575000D01*
X206335300Y-102575000D02*
X206368633Y-102641667D01*
X206368633Y-102641667D02*
X206368633Y-102808333D01*
X206368633Y-102808333D02*
X206335300Y-102875000D01*
X206335300Y-102875000D02*
X206301966Y-102908333D01*
X259183333Y-82218633D02*
X259183333Y-82718633D01*
X259183333Y-82718633D02*
X259150000Y-82818633D01*
X259150000Y-82818633D02*
X259083333Y-82885300D01*
X259083333Y-82885300D02*
X258983333Y-82918633D01*
X258983333Y-82918633D02*
X258916667Y-82918633D01*
X259883333Y-82918633D02*
X259483333Y-82918633D01*
X259683333Y-82918633D02*
X259683333Y-82218633D01*
X259683333Y-82218633D02*
X259616666Y-82318633D01*
X259616666Y-82318633D02*
X259550000Y-82385300D01*
X259550000Y-82385300D02*
X259483333Y-82418633D01*
X260516667Y-82218633D02*
X260183333Y-82218633D01*
X260183333Y-82218633D02*
X260150000Y-82551966D01*
X260150000Y-82551966D02*
X260183333Y-82518633D01*
X260183333Y-82518633D02*
X260250000Y-82485300D01*
X260250000Y-82485300D02*
X260416667Y-82485300D01*
X260416667Y-82485300D02*
X260483333Y-82518633D01*
X260483333Y-82518633D02*
X260516667Y-82551966D01*
X260516667Y-82551966D02*
X260550000Y-82618633D01*
X260550000Y-82618633D02*
X260550000Y-82785300D01*
X260550000Y-82785300D02*
X260516667Y-82851966D01*
X260516667Y-82851966D02*
X260483333Y-82885300D01*
X260483333Y-82885300D02*
X260416667Y-82918633D01*
X260416667Y-82918633D02*
X260250000Y-82918633D01*
X260250000Y-82918633D02*
X260183333Y-82885300D01*
X260183333Y-82885300D02*
X260150000Y-82851966D01*
X252399999Y-107551966D02*
X252366666Y-107585300D01*
X252366666Y-107585300D02*
X252266666Y-107618633D01*
X252266666Y-107618633D02*
X252199999Y-107618633D01*
X252199999Y-107618633D02*
X252099999Y-107585300D01*
X252099999Y-107585300D02*
X252033333Y-107518633D01*
X252033333Y-107518633D02*
X251999999Y-107451966D01*
X251999999Y-107451966D02*
X251966666Y-107318633D01*
X251966666Y-107318633D02*
X251966666Y-107218633D01*
X251966666Y-107218633D02*
X251999999Y-107085300D01*
X251999999Y-107085300D02*
X252033333Y-107018633D01*
X252033333Y-107018633D02*
X252099999Y-106951966D01*
X252099999Y-106951966D02*
X252199999Y-106918633D01*
X252199999Y-106918633D02*
X252266666Y-106918633D01*
X252266666Y-106918633D02*
X252366666Y-106951966D01*
X252366666Y-106951966D02*
X252399999Y-106985300D01*
X252999999Y-107151966D02*
X252999999Y-107618633D01*
X252833333Y-106885300D02*
X252666666Y-107385300D01*
X252666666Y-107385300D02*
X253099999Y-107385300D01*
X253300000Y-106918633D02*
X253733333Y-106918633D01*
X253733333Y-106918633D02*
X253500000Y-107185300D01*
X253500000Y-107185300D02*
X253600000Y-107185300D01*
X253600000Y-107185300D02*
X253666666Y-107218633D01*
X253666666Y-107218633D02*
X253700000Y-107251966D01*
X253700000Y-107251966D02*
X253733333Y-107318633D01*
X253733333Y-107318633D02*
X253733333Y-107485300D01*
X253733333Y-107485300D02*
X253700000Y-107551966D01*
X253700000Y-107551966D02*
X253666666Y-107585300D01*
X253666666Y-107585300D02*
X253600000Y-107618633D01*
X253600000Y-107618633D02*
X253400000Y-107618633D01*
X253400000Y-107618633D02*
X253333333Y-107585300D01*
X253333333Y-107585300D02*
X253300000Y-107551966D01*
X216768633Y-77833333D02*
X217268633Y-77833333D01*
X217268633Y-77833333D02*
X217368633Y-77866666D01*
X217368633Y-77866666D02*
X217435300Y-77933333D01*
X217435300Y-77933333D02*
X217468633Y-78033333D01*
X217468633Y-78033333D02*
X217468633Y-78100000D01*
X216835300Y-77533333D02*
X216801966Y-77500000D01*
X216801966Y-77500000D02*
X216768633Y-77433333D01*
X216768633Y-77433333D02*
X216768633Y-77266667D01*
X216768633Y-77266667D02*
X216801966Y-77200000D01*
X216801966Y-77200000D02*
X216835300Y-77166667D01*
X216835300Y-77166667D02*
X216901966Y-77133333D01*
X216901966Y-77133333D02*
X216968633Y-77133333D01*
X216968633Y-77133333D02*
X217068633Y-77166667D01*
X217068633Y-77166667D02*
X217468633Y-77566667D01*
X217468633Y-77566667D02*
X217468633Y-77133333D01*
D10*
X214175000Y-101325000D02*
X214175000Y-105625000D01*
X214175000Y-101325000D02*
X219875000Y-101325000D01*
X214175000Y-105625000D02*
X219875000Y-105625000D01*
X203222936Y-95690000D02*
X204427064Y-95690000D01*
X203222936Y-97510000D02*
X204427064Y-97510000D01*
X220452064Y-80090000D02*
X217647936Y-80090000D01*
X220452064Y-82810000D02*
X217647936Y-82810000D01*
X203247936Y-93440000D02*
X204452064Y-93440000D01*
X203247936Y-95260000D02*
X204452064Y-95260000D01*
X207550000Y-89450000D02*
X215950000Y-89450000D01*
X207550000Y-95950000D02*
X207550000Y-89450000D01*
X207550000Y-95950000D02*
X215950000Y-95950000D01*
X201700000Y-76200000D02*
X214600000Y-76200000D01*
X201700000Y-80700000D02*
X201700000Y-76200000D01*
X201700000Y-84600000D02*
X201700000Y-89100000D01*
X201700000Y-89100000D02*
X214600000Y-89100000D01*
X214600000Y-76200000D02*
X214600000Y-80700000D01*
X214600000Y-89100000D02*
X214600000Y-84600000D01*
X219097936Y-83240000D02*
X220302064Y-83240000D01*
X219097936Y-85060000D02*
X220302064Y-85060000D01*
X219147936Y-85490000D02*
X220352064Y-85490000D01*
X219147936Y-87310000D02*
X220352064Y-87310000D01*
X206177936Y-107765000D02*
X206632064Y-107765000D01*
X206177936Y-109235000D02*
X206632064Y-109235000D01*
X217645000Y-91430000D02*
X217645000Y-90050000D01*
X219025000Y-91430000D02*
X217645000Y-91430000D01*
X220295000Y-88670000D02*
X222945000Y-88670000D01*
X220295000Y-91430000D02*
X220295000Y-88670000D01*
X220295000Y-91430000D02*
X222945000Y-91430000D01*
X222945000Y-91430000D02*
X222945000Y-88670000D01*
X229563748Y-102540000D02*
X230986252Y-102540000D01*
X229563748Y-105260000D02*
X230986252Y-105260000D01*
X200490000Y-98115000D02*
X200490000Y-100835000D01*
X200490000Y-98115000D02*
X205550000Y-98115000D01*
X200490000Y-100835000D02*
X205550000Y-100835000D01*
X199600000Y-92690000D02*
X199600000Y-92950000D01*
X199600000Y-92950000D02*
X203100000Y-92950000D01*
X199920000Y-89450000D02*
X203100000Y-89450000D01*
X203100000Y-89450000D02*
X203100000Y-89710000D01*
X203100000Y-92690000D02*
X203100000Y-92950000D01*
X199600000Y-89710000D02*
X199120000Y-89710000D01*
X199600000Y-89230000D01*
X199600000Y-89710000D01*
G36*
X199600000Y-89710000D02*
G01*
X199120000Y-89710000D01*
X199600000Y-89230000D01*
X199600000Y-89710000D01*
G37*
X212290000Y-103252064D02*
X212290000Y-102797936D01*
X213760000Y-103252064D02*
X213760000Y-102797936D01*
X251800000Y-74630000D02*
X251800000Y-81570000D01*
X251800000Y-81570000D02*
X268000000Y-81570000D01*
X258300000Y-76100000D02*
X261500000Y-76100000D01*
X259150000Y-78100000D02*
X260650000Y-78100000D01*
X261500000Y-80100000D02*
X258300000Y-80100000D01*
X268000000Y-74630000D02*
X251800000Y-74630000D01*
X268000000Y-81570000D02*
X268000000Y-74630000D01*
X223251000Y-115000000D02*
G75*
G02*
X220749000Y-115000000I-1251000J0D01*
G01*
X220749000Y-115000000D02*
G75*
G02*
X223251000Y-115000000I1251000J0D01*
G01*
X242711252Y-102540000D02*
X241288748Y-102540000D01*
X242711252Y-105260000D02*
X241288748Y-105260000D01*
X211345000Y-112088748D02*
X211345000Y-112611252D01*
X212815000Y-112088748D02*
X212815000Y-112611252D01*
X206193748Y-105390000D02*
X207616252Y-105390000D01*
X206193748Y-107210000D02*
X207616252Y-107210000D01*
X237150000Y-80410000D02*
X237150000Y-84260000D01*
X237150000Y-91130000D02*
X237150000Y-87280000D01*
X246805563Y-80410000D02*
X237150000Y-80410000D01*
X246805563Y-91130000D02*
X237150000Y-91130000D01*
X247870000Y-81474437D02*
X246805563Y-80410000D01*
X247870000Y-81474437D02*
X247870000Y-84260000D01*
X247870000Y-90065563D02*
X246805563Y-91130000D01*
X247870000Y-90065563D02*
X247870000Y-87280000D01*
X248735000Y-89155000D02*
X248735000Y-87905000D01*
X249360000Y-88530000D02*
X248110000Y-88530000D01*
X210877936Y-108965000D02*
X211332064Y-108965000D01*
X210877936Y-110435000D02*
X211332064Y-110435000D01*
X220988748Y-121765000D02*
X221511252Y-121765000D01*
X220988748Y-123235000D02*
X221511252Y-123235000D01*
X209861252Y-98765000D02*
X208438748Y-98765000D01*
X209861252Y-100585000D02*
X208438748Y-100585000D01*
X214956000Y-107250000D02*
G75*
G02*
X212454000Y-107250000I-1251000J0D01*
G01*
X212454000Y-107250000D02*
G75*
G02*
X214956000Y-107250000I1251000J0D01*
G01*
X201360436Y-119265000D02*
X201814564Y-119265000D01*
X201360436Y-120735000D02*
X201814564Y-120735000D01*
X227400000Y-77600000D02*
G75*
G02*
X223600000Y-77600000I-1900000J0D01*
G01*
X223600000Y-77600000D02*
G75*
G02*
X227400000Y-77600000I1900000J0D01*
G01*
X199300000Y-101225000D02*
X199300000Y-106325000D01*
X204400000Y-101225000D02*
X204400000Y-106325000D01*
X250972936Y-84390000D02*
X254027064Y-84390000D01*
X250972936Y-87110000D02*
X254027064Y-87110000D01*
X217956000Y-107250000D02*
G75*
G02*
X215454000Y-107250000I-1251000J0D01*
G01*
X215454000Y-107250000D02*
G75*
G02*
X217956000Y-107250000I1251000J0D01*
G01*
X230810000Y-109170000D02*
X230810000Y-108910000D01*
X230810000Y-112410000D02*
X230810000Y-112150000D01*
X233990000Y-112410000D02*
X230810000Y-112410000D01*
X234310000Y-108910000D02*
X230810000Y-108910000D01*
X234310000Y-109170000D02*
X234310000Y-108910000D01*
X234310000Y-112630000D02*
X234310000Y-112150000D01*
X234790000Y-112150000D01*
X234310000Y-112630000D01*
G36*
X234310000Y-112630000D02*
G01*
X234310000Y-112150000D01*
X234790000Y-112150000D01*
X234310000Y-112630000D01*
G37*
X222350000Y-83040000D02*
X223600000Y-83040000D01*
X222975000Y-82415000D02*
X222975000Y-83665000D01*
X223840000Y-81504437D02*
X223840000Y-84290000D01*
X223840000Y-81504437D02*
X224904437Y-80440000D01*
X223840000Y-90095563D02*
X223840000Y-87310000D01*
X223840000Y-90095563D02*
X224904437Y-91160000D01*
X224904437Y-80440000D02*
X234560000Y-80440000D01*
X224904437Y-91160000D02*
X234560000Y-91160000D01*
X234560000Y-80440000D02*
X234560000Y-84290000D01*
X234560000Y-91160000D02*
X234560000Y-87310000D01*
X228097500Y-117372936D02*
X228097500Y-121727064D01*
X231517500Y-117372936D02*
X231517500Y-121727064D01*
X211956000Y-107250000D02*
G75*
G02*
X209454000Y-107250000I-1251000J0D01*
G01*
X209454000Y-107250000D02*
G75*
G02*
X211956000Y-107250000I1251000J0D01*
G01*
X205015000Y-103236252D02*
X205015000Y-102713748D01*
X206485000Y-103236252D02*
X206485000Y-102713748D01*
X219677936Y-106165000D02*
X220132064Y-106165000D01*
X219677936Y-107635000D02*
X220132064Y-107635000D01*
X266800000Y-85000000D02*
G75*
G02*
X263000000Y-85000000I-1900000J0D01*
G01*
X263000000Y-85000000D02*
G75*
G02*
X266800000Y-85000000I1900000J0D01*
G01*
D12*
X212435000Y-96135000D02*
X222165000Y-96135000D01*
X212435000Y-101165000D02*
X212435000Y-96135000D01*
X212435000Y-101165000D02*
X222165000Y-101165000D01*
X222165000Y-101165000D02*
X222165000Y-96135000D01*
D10*
X200615000Y-117527064D02*
X200615000Y-117072936D01*
X202085000Y-117527064D02*
X202085000Y-117072936D01*
X224185000Y-109242500D02*
X224185000Y-108982500D01*
X224185000Y-112482500D02*
X224185000Y-112222500D01*
X227365000Y-112482500D02*
X224185000Y-112482500D01*
X227685000Y-108982500D02*
X224185000Y-108982500D01*
X227685000Y-109242500D02*
X227685000Y-108982500D01*
X227685000Y-112702500D02*
X227685000Y-112222500D01*
X228165000Y-112222500D01*
X227685000Y-112702500D01*
G36*
X227685000Y-112702500D02*
G01*
X227685000Y-112222500D01*
X228165000Y-112222500D01*
X227685000Y-112702500D01*
G37*
X225061252Y-105740000D02*
X223638748Y-105740000D01*
X225061252Y-108460000D02*
X223638748Y-108460000D01*
X229563748Y-105740000D02*
X230986252Y-105740000D01*
X229563748Y-108460000D02*
X230986252Y-108460000D01*
X223797500Y-117372936D02*
X223797500Y-121727064D01*
X227217500Y-117372936D02*
X227217500Y-121727064D01*
X244560000Y-112340000D02*
X244560000Y-112600000D01*
X244560000Y-112600000D02*
X248060000Y-112600000D01*
X244880000Y-109100000D02*
X248060000Y-109100000D01*
X248060000Y-109100000D02*
X248060000Y-109360000D01*
X248060000Y-112340000D02*
X248060000Y-112600000D01*
X244560000Y-109360000D02*
X244080000Y-109360000D01*
X244560000Y-108880000D01*
X244560000Y-109360000D01*
G36*
X244560000Y-109360000D02*
G01*
X244080000Y-109360000D01*
X244560000Y-108880000D01*
X244560000Y-109360000D01*
G37*
X203640000Y-92800000D02*
X203640000Y-93060000D01*
X203640000Y-93060000D02*
X207140000Y-93060000D01*
X203960000Y-89560000D02*
X207140000Y-89560000D01*
X207140000Y-89560000D02*
X207140000Y-89820000D01*
X207140000Y-92800000D02*
X207140000Y-93060000D01*
X203640000Y-89820000D02*
X203160000Y-89820000D01*
X203640000Y-89340000D01*
X203640000Y-89820000D01*
G36*
X203640000Y-89820000D02*
G01*
X203160000Y-89820000D01*
X203640000Y-89340000D01*
X203640000Y-89820000D01*
G37*
X237132500Y-91420000D02*
X237132500Y-95270000D01*
X237132500Y-102140000D02*
X237132500Y-98290000D01*
X246788063Y-91420000D02*
X237132500Y-91420000D01*
X246788063Y-102140000D02*
X237132500Y-102140000D01*
X247852500Y-92484437D02*
X246788063Y-91420000D01*
X247852500Y-92484437D02*
X247852500Y-95270000D01*
X247852500Y-101075563D02*
X246788063Y-102140000D01*
X247852500Y-101075563D02*
X247852500Y-98290000D01*
X248717500Y-100165000D02*
X248717500Y-98915000D01*
X249342500Y-99540000D02*
X248092500Y-99540000D01*
X221477064Y-119515000D02*
X221022936Y-119515000D01*
X221477064Y-120985000D02*
X221022936Y-120985000D01*
X204900000Y-114420000D02*
X204900000Y-124580000D01*
X204900000Y-114420000D02*
X209900000Y-114420000D01*
X204900000Y-118300000D02*
X205700000Y-118300000D01*
X204900000Y-120700000D02*
X205700000Y-120700000D01*
X204900000Y-124580000D02*
X209900000Y-124580000D01*
X205700000Y-115220000D02*
X205700000Y-118300000D01*
X205700000Y-115220000D02*
X209100000Y-115220000D01*
X205700000Y-120700000D02*
X205700000Y-123780000D01*
X205700000Y-123780000D02*
X209100000Y-123780000D01*
X209100000Y-115220000D02*
X209100000Y-123780000D01*
X209900000Y-114420000D02*
X209900000Y-124580000D01*
X213870763Y-109450000D02*
X213870763Y-122150000D01*
X213870763Y-109450000D02*
X218870763Y-109450000D01*
X213870763Y-114600000D02*
X214670763Y-114600000D01*
X213870763Y-117000000D02*
X214670763Y-117000000D01*
X213870763Y-122150000D02*
X218870763Y-122150000D01*
X214670763Y-110250000D02*
X214670763Y-114600000D01*
X214670763Y-110250000D02*
X218070763Y-110250000D01*
X214670763Y-117000000D02*
X214670763Y-121350000D01*
X214670763Y-121350000D02*
X218070763Y-121350000D01*
X218070763Y-110250000D02*
X218070763Y-121350000D01*
X218870763Y-109450000D02*
X218870763Y-122150000D01*
X249038748Y-102540000D02*
X250461252Y-102540000D01*
X249038748Y-105260000D02*
X250461252Y-105260000D01*
X240155000Y-77600000D02*
G75*
G02*
X236355000Y-77600000I-1900000J0D01*
G01*
X236355000Y-77600000D02*
G75*
G02*
X240155000Y-77600000I1900000J0D01*
G01*
X237560000Y-112202500D02*
X237560000Y-112462500D01*
X237560000Y-112462500D02*
X241060000Y-112462500D01*
X237880000Y-108962500D02*
X241060000Y-108962500D01*
X241060000Y-108962500D02*
X241060000Y-109222500D01*
X241060000Y-112202500D02*
X241060000Y-112462500D01*
X237560000Y-109222500D02*
X237080000Y-109222500D01*
X237560000Y-108742500D01*
X237560000Y-109222500D01*
G36*
X237560000Y-109222500D02*
G01*
X237080000Y-109222500D01*
X237560000Y-108742500D01*
X237560000Y-109222500D01*
G37*
X231056000Y-77600000D02*
G75*
G02*
X228554000Y-77600000I-1251000J0D01*
G01*
X228554000Y-77600000D02*
G75*
G02*
X231056000Y-77600000I1251000J0D01*
G01*
X225061252Y-102540000D02*
X223638748Y-102540000D01*
X225061252Y-105260000D02*
X223638748Y-105260000D01*
X236001248Y-104390000D02*
X237423752Y-104390000D01*
X236001248Y-106210000D02*
X237423752Y-106210000D01*
X209345000Y-112210436D02*
X209345000Y-112664564D01*
X210815000Y-112210436D02*
X210815000Y-112664564D01*
X231947500Y-113090000D02*
X248567500Y-113090000D01*
X231947500Y-128710000D02*
X231947500Y-113090000D01*
X248567500Y-113090000D02*
X248567500Y-128710000D01*
X248567500Y-128710000D02*
X231947500Y-128710000D01*
D13*
G36*
X278913049Y-89975716D02*
G01*
X278913073Y-90157101D01*
X278912747Y-90327928D01*
X278912106Y-90483904D01*
X278911181Y-90620739D01*
X278910007Y-90734144D01*
X278908617Y-90819826D01*
X278907045Y-90873496D01*
X278905947Y-90889139D01*
X278897872Y-90944154D01*
X278694743Y-90944154D01*
X278491613Y-90944154D01*
X278496691Y-90030731D01*
X278501769Y-89117308D01*
X278706923Y-89117308D01*
X278912077Y-89117308D01*
X278913049Y-89975716D01*
G37*
G36*
X274149770Y-90030731D02*
G01*
X274150797Y-90251502D01*
X274151173Y-90435988D01*
X274150838Y-90586978D01*
X274149732Y-90707259D01*
X274147796Y-90799619D01*
X274144970Y-90866847D01*
X274141195Y-90911729D01*
X274136411Y-90937054D01*
X274130559Y-90945611D01*
X274130231Y-90945649D01*
X274088152Y-90949249D01*
X274076308Y-90950533D01*
X274043914Y-90951454D01*
X273983902Y-90950891D01*
X273907697Y-90948981D01*
X273885615Y-90948245D01*
X273724230Y-90942567D01*
X273729307Y-90029937D01*
X273734384Y-89117308D01*
X273939538Y-89117308D01*
X274144692Y-89117308D01*
X274149770Y-90030731D01*
G37*
G36*
X280676373Y-89263616D02*
G01*
X280680055Y-89355727D01*
X280678677Y-89419980D01*
X280666490Y-89461372D01*
X280637742Y-89484903D01*
X280586684Y-89495572D01*
X280507565Y-89498376D01*
X280406397Y-89498308D01*
X280152769Y-89498308D01*
X280152769Y-90219627D01*
X280152769Y-90940947D01*
X280020884Y-90947435D01*
X279935048Y-90949987D01*
X279849020Y-90949895D01*
X279796192Y-90947968D01*
X279703384Y-90942013D01*
X279703384Y-90220160D01*
X279703384Y-89498308D01*
X279448677Y-89498308D01*
X279193969Y-89498308D01*
X279199562Y-89307808D01*
X279205154Y-89117308D01*
X279937846Y-89117308D01*
X280670538Y-89117308D01*
X280676373Y-89263616D01*
G37*
G36*
X278384538Y-86381923D02*
G01*
X278384538Y-86635923D01*
X277822209Y-86641108D01*
X277259879Y-86646293D01*
X277265362Y-86885339D01*
X277270846Y-87124384D01*
X277749538Y-87134154D01*
X278228231Y-87143923D01*
X278228231Y-87388154D01*
X278228231Y-87632384D01*
X277744105Y-87637612D01*
X277259978Y-87642839D01*
X277265412Y-87911150D01*
X277270846Y-88179461D01*
X277827692Y-88189231D01*
X278384538Y-88199000D01*
X278384538Y-88443231D01*
X278384538Y-88687461D01*
X277519426Y-88692550D01*
X277304216Y-88693596D01*
X277125207Y-88693936D01*
X276979531Y-88693506D01*
X276864315Y-88692241D01*
X276776692Y-88690079D01*
X276713790Y-88686953D01*
X276672741Y-88682801D01*
X276650672Y-88677558D01*
X276644902Y-88673011D01*
X276643347Y-88649666D01*
X276642027Y-88590587D01*
X276640952Y-88499117D01*
X276640133Y-88378597D01*
X276639583Y-88232371D01*
X276639312Y-88063780D01*
X276639332Y-87876168D01*
X276639654Y-87672876D01*
X276640289Y-87457247D01*
X276640552Y-87388154D01*
X276645615Y-86127923D01*
X277515077Y-86127923D01*
X278384538Y-86127923D01*
X278384538Y-86381923D01*
G37*
G36*
X276914371Y-89216910D02*
G01*
X276960669Y-89277823D01*
X277022051Y-89358383D01*
X277089840Y-89447212D01*
X277143846Y-89517878D01*
X277213856Y-89609438D01*
X277297306Y-89718611D01*
X277383920Y-89831952D01*
X277463422Y-89936018D01*
X277466231Y-89939694D01*
X277642077Y-90169915D01*
X277651846Y-89643611D01*
X277661615Y-89117308D01*
X277866769Y-89117308D01*
X278071923Y-89117308D01*
X278077007Y-90014900D01*
X278077764Y-90216562D01*
X278077683Y-90399436D01*
X278076810Y-90560410D01*
X278075187Y-90696372D01*
X278072858Y-90804210D01*
X278069867Y-90880813D01*
X278066257Y-90923068D01*
X278064156Y-90930429D01*
X278036444Y-90941260D01*
X277982169Y-90951574D01*
X277922302Y-90958281D01*
X277848818Y-90961859D01*
X277801607Y-90956770D01*
X277768445Y-90941055D01*
X277756829Y-90931752D01*
X277729615Y-90902777D01*
X277684948Y-90849636D01*
X277628692Y-90779521D01*
X277566717Y-90699621D01*
X277557412Y-90687396D01*
X277488253Y-90596708D01*
X277403881Y-90486683D01*
X277313119Y-90368793D01*
X277224792Y-90254510D01*
X277188660Y-90207923D01*
X277117475Y-90115959D01*
X277052595Y-90031586D01*
X276998711Y-89960945D01*
X276960510Y-89910175D01*
X276944602Y-89888296D01*
X276934928Y-89876025D01*
X276927327Y-89873062D01*
X276921540Y-89883239D01*
X276917305Y-89910387D01*
X276914365Y-89958339D01*
X276912457Y-90030927D01*
X276911322Y-90131982D01*
X276910701Y-90265336D01*
X276910409Y-90392192D01*
X276909384Y-90944154D01*
X276704231Y-90944154D01*
X276499077Y-90944154D01*
X276499077Y-90025846D01*
X276499077Y-89107538D01*
X276665256Y-89107538D01*
X276831435Y-89107538D01*
X276914371Y-89216910D01*
G37*
G36*
X281861659Y-89086400D02*
G01*
X281913614Y-89096565D01*
X282098032Y-89153592D01*
X282257837Y-89240172D01*
X282391490Y-89354316D01*
X282497452Y-89494039D01*
X282574182Y-89657354D01*
X282620141Y-89842273D01*
X282633922Y-90025908D01*
X282618009Y-90228178D01*
X282569467Y-90409079D01*
X282487982Y-90569210D01*
X282373241Y-90709172D01*
X282224929Y-90829567D01*
X282208674Y-90840272D01*
X282080815Y-90904220D01*
X281929107Y-90950020D01*
X281765114Y-90976043D01*
X281600401Y-90980658D01*
X281446534Y-90962233D01*
X281408399Y-90953110D01*
X281227958Y-90886413D01*
X281073919Y-90791495D01*
X280947465Y-90669989D01*
X280849781Y-90523523D01*
X280782050Y-90353730D01*
X280745457Y-90162239D01*
X280739154Y-90035615D01*
X281198077Y-90035615D01*
X281199397Y-90124424D01*
X281205158Y-90187321D01*
X281218063Y-90237431D01*
X281240814Y-90287880D01*
X281255695Y-90315475D01*
X281336949Y-90427952D01*
X281438820Y-90513726D01*
X281545729Y-90564157D01*
X281643821Y-90586666D01*
X281735704Y-90587047D01*
X281839558Y-90565154D01*
X281851469Y-90561684D01*
X281966626Y-90507934D01*
X282064261Y-90423599D01*
X282137667Y-90315646D01*
X282171058Y-90229706D01*
X282197505Y-90107793D01*
X282201296Y-89999009D01*
X282182497Y-89884690D01*
X282172353Y-89846141D01*
X282122651Y-89730479D01*
X282045423Y-89624978D01*
X281950161Y-89541427D01*
X281905934Y-89515144D01*
X281832676Y-89490696D01*
X281739017Y-89476771D01*
X281641143Y-89474244D01*
X281555238Y-89483992D01*
X281520461Y-89494286D01*
X281406858Y-89559385D01*
X281311132Y-89652112D01*
X281250106Y-89748778D01*
X281223588Y-89811586D01*
X281207802Y-89869803D01*
X281200161Y-89937686D01*
X281198081Y-90029491D01*
X281198077Y-90035615D01*
X280739154Y-90035615D01*
X280738923Y-90030979D01*
X280756026Y-89830620D01*
X280806088Y-89648511D01*
X280887232Y-89487036D01*
X280997587Y-89348583D01*
X281135278Y-89235536D01*
X281298430Y-89150284D01*
X281471615Y-89097982D01*
X281609990Y-89075312D01*
X281733543Y-89071472D01*
X281861659Y-89086400D01*
G37*
G36*
X275619088Y-89091453D02*
G01*
X275782068Y-89132281D01*
X275928938Y-89194837D01*
X276044808Y-89272334D01*
X276084099Y-89310522D01*
X276106078Y-89341650D01*
X276107798Y-89348621D01*
X276096427Y-89373173D01*
X276066288Y-89420564D01*
X276022637Y-89482813D01*
X275993481Y-89522207D01*
X275879674Y-89673107D01*
X275837396Y-89628104D01*
X275753772Y-89563859D01*
X275645044Y-89515899D01*
X275522614Y-89486567D01*
X275397881Y-89478204D01*
X275282248Y-89493151D01*
X275242015Y-89505828D01*
X275143806Y-89561237D01*
X275053820Y-89645052D01*
X274983011Y-89746693D01*
X274973741Y-89764836D01*
X274946538Y-89849548D01*
X274931721Y-89956575D01*
X274929887Y-90070977D01*
X274941633Y-90177814D01*
X274955093Y-90231000D01*
X275015915Y-90359103D01*
X275102229Y-90460545D01*
X275209178Y-90533283D01*
X275331906Y-90575272D01*
X275465555Y-90584470D01*
X275605272Y-90558833D01*
X275673577Y-90533330D01*
X275756615Y-90496966D01*
X275756615Y-90388406D01*
X275756615Y-90279846D01*
X275593079Y-90279846D01*
X275429543Y-90279846D01*
X275420139Y-90196406D01*
X275416426Y-90127240D01*
X275417441Y-90043925D01*
X275420051Y-90000608D01*
X275429369Y-89888250D01*
X275803030Y-89893548D01*
X276176692Y-89898846D01*
X276176692Y-90303439D01*
X276177054Y-90440355D01*
X276176707Y-90544170D01*
X276173501Y-90620834D01*
X276165286Y-90676294D01*
X276149912Y-90716502D01*
X276125229Y-90747405D01*
X276089087Y-90774954D01*
X276039337Y-90805097D01*
X275983545Y-90837922D01*
X275903523Y-90880209D01*
X275816129Y-90917809D01*
X275758853Y-90937075D01*
X275688703Y-90951155D01*
X275595422Y-90962926D01*
X275491127Y-90971617D01*
X275387937Y-90976459D01*
X275297969Y-90976681D01*
X275233341Y-90971515D01*
X275229077Y-90970738D01*
X275079819Y-90926714D01*
X274932227Y-90856471D01*
X274799042Y-90767135D01*
X274701488Y-90675690D01*
X274605957Y-90543633D01*
X274539013Y-90395065D01*
X274499199Y-90225431D01*
X274485057Y-90030176D01*
X274485050Y-89999541D01*
X274503256Y-89798048D01*
X274553712Y-89618125D01*
X274635210Y-89461157D01*
X274746537Y-89328531D01*
X274886485Y-89221632D01*
X275053843Y-89141847D01*
X275247402Y-89090562D01*
X275283865Y-89084622D01*
X275449764Y-89074764D01*
X275619088Y-89091453D01*
G37*
G36*
X283527172Y-89118090D02*
G01*
X283663733Y-89121172D01*
X283772284Y-89127655D01*
X283858348Y-89138643D01*
X283927449Y-89155238D01*
X283985112Y-89178542D01*
X284036861Y-89209658D01*
X284088219Y-89249687D01*
X284108571Y-89267280D01*
X284202676Y-89369919D01*
X284261684Y-89484022D01*
X284289368Y-89617028D01*
X284290065Y-89625137D01*
X284287545Y-89788691D01*
X284252531Y-89932111D01*
X284185559Y-90054198D01*
X284087164Y-90153753D01*
X284039636Y-90186681D01*
X283987844Y-90220363D01*
X283952850Y-90245965D01*
X283943231Y-90256037D01*
X283952169Y-90277825D01*
X283979609Y-90325388D01*
X284026483Y-90400211D01*
X284093727Y-90503777D01*
X284182274Y-90637572D01*
X284202199Y-90667454D01*
X284260437Y-90755892D01*
X284309375Y-90832487D01*
X284345548Y-90891624D01*
X284365488Y-90927690D01*
X284368104Y-90936100D01*
X284346563Y-90939820D01*
X284293930Y-90943963D01*
X284218177Y-90948018D01*
X284129697Y-90951398D01*
X283899328Y-90958657D01*
X283832601Y-90848828D01*
X283793406Y-90783776D01*
X283742407Y-90698388D01*
X283687576Y-90606033D01*
X283656475Y-90553384D01*
X283609682Y-90475302D01*
X283568051Y-90408216D01*
X283536749Y-90360313D01*
X283522742Y-90341440D01*
X283489443Y-90324323D01*
X283434027Y-90312024D01*
X283408204Y-90309434D01*
X283318000Y-90303756D01*
X283318000Y-90621299D01*
X283318000Y-90938842D01*
X283227350Y-90951267D01*
X283165927Y-90958072D01*
X283117395Y-90960658D01*
X283105234Y-90960170D01*
X283067480Y-90956569D01*
X283008725Y-90951569D01*
X282980769Y-90949323D01*
X282887769Y-90941997D01*
X282892846Y-90029652D01*
X282893302Y-89947692D01*
X283316760Y-89947692D01*
X283488341Y-89947404D01*
X283575828Y-89944483D01*
X283650261Y-89936887D01*
X283700017Y-89925915D01*
X283706886Y-89922981D01*
X283774899Y-89869328D01*
X283818172Y-89796967D01*
X283835016Y-89715729D01*
X283823740Y-89635445D01*
X283782655Y-89565946D01*
X283770318Y-89553852D01*
X283721493Y-89519993D01*
X283659948Y-89499378D01*
X283588281Y-89488590D01*
X283509998Y-89482491D01*
X283436507Y-89480446D01*
X283396154Y-89481976D01*
X283327769Y-89488538D01*
X283322264Y-89718115D01*
X283316760Y-89947692D01*
X282893302Y-89947692D01*
X282897923Y-89117308D01*
X283357077Y-89117308D01*
X283527172Y-89118090D01*
G37*
G36*
X283641147Y-86118478D02*
G01*
X283730536Y-86121001D01*
X283788381Y-86128046D01*
X283818450Y-86141937D01*
X283824508Y-86164998D01*
X283810323Y-86199551D01*
X283779661Y-86247922D01*
X283764113Y-86270941D01*
X283734090Y-86313464D01*
X283684363Y-86381796D01*
X283618884Y-86470650D01*
X283541610Y-86574735D01*
X283456495Y-86688763D01*
X283367493Y-86807443D01*
X283278561Y-86925486D01*
X283193651Y-87037603D01*
X283116720Y-87138505D01*
X283069976Y-87199317D01*
X282966857Y-87332866D01*
X283020313Y-87404182D01*
X283047032Y-87439285D01*
X283093746Y-87500081D01*
X283156471Y-87581409D01*
X283231224Y-87678109D01*
X283314020Y-87785019D01*
X283377260Y-87866557D01*
X283514608Y-88043656D01*
X283629760Y-88192482D01*
X283724571Y-88315557D01*
X283800899Y-88415404D01*
X283860600Y-88494547D01*
X283905532Y-88555508D01*
X283937551Y-88600809D01*
X283958514Y-88632974D01*
X283970278Y-88654526D01*
X283974699Y-88667987D01*
X283973636Y-88675880D01*
X283973329Y-88676413D01*
X283948254Y-88684827D01*
X283885752Y-88691147D01*
X283787421Y-88695279D01*
X283654862Y-88697132D01*
X283610769Y-88697231D01*
X283261075Y-88697231D01*
X283094889Y-88477423D01*
X283030470Y-88391911D01*
X282949597Y-88284089D01*
X282859073Y-88163052D01*
X282765698Y-88037894D01*
X282676274Y-87917711D01*
X282669082Y-87908029D01*
X282409461Y-87558442D01*
X282399692Y-88122952D01*
X282389923Y-88687461D01*
X282091544Y-88692857D01*
X281970338Y-88694242D01*
X281883526Y-88693139D01*
X281826485Y-88689254D01*
X281794595Y-88682296D01*
X281783635Y-88673319D01*
X281782060Y-88649919D01*
X281780720Y-88590787D01*
X281779627Y-88499265D01*
X281778793Y-88378698D01*
X281778228Y-88232428D01*
X281777946Y-88063799D01*
X281777957Y-87876155D01*
X281778272Y-87672838D01*
X281778905Y-87457194D01*
X281779168Y-87388154D01*
X281784231Y-86127923D01*
X282087077Y-86127923D01*
X282389923Y-86127923D01*
X282395132Y-86640808D01*
X282397045Y-86777717D01*
X282399766Y-86900787D01*
X282403102Y-87004923D01*
X282406858Y-87085031D01*
X282410840Y-87136017D01*
X282414670Y-87152838D01*
X282429426Y-87137580D01*
X282464712Y-87094664D01*
X282517679Y-87027747D01*
X282585481Y-86940485D01*
X282665269Y-86836535D01*
X282754196Y-86719551D01*
X282817948Y-86635069D01*
X283206896Y-86118154D01*
X283516448Y-86118154D01*
X283641147Y-86118478D01*
G37*
G36*
X275039452Y-86118552D02*
G01*
X275198668Y-86120098D01*
X275328609Y-86123320D01*
X275434174Y-86128746D01*
X275520261Y-86136904D01*
X275591769Y-86148322D01*
X275653596Y-86163527D01*
X275710641Y-86183048D01*
X275767802Y-86207412D01*
X275795692Y-86220491D01*
X275854086Y-86256006D01*
X275923819Y-86309288D01*
X275990126Y-86369022D01*
X275992189Y-86371077D01*
X276094141Y-86499505D01*
X276166536Y-86647219D01*
X276209342Y-86807909D01*
X276222530Y-86975263D01*
X276206069Y-87142972D01*
X276159928Y-87304725D01*
X276084078Y-87454211D01*
X275997971Y-87565052D01*
X275910656Y-87649427D01*
X275820413Y-87716002D01*
X275721063Y-87766894D01*
X275606432Y-87804223D01*
X275470344Y-87830105D01*
X275306621Y-87846659D01*
X275153897Y-87854526D01*
X274814948Y-87866846D01*
X274811974Y-88277154D01*
X274809000Y-88687461D01*
X274513319Y-88692843D01*
X274398243Y-88694461D01*
X274316384Y-88694124D01*
X274261907Y-88691339D01*
X274228980Y-88685611D01*
X274211770Y-88676448D01*
X274205588Y-88666821D01*
X274203271Y-88641595D01*
X274201205Y-88581367D01*
X274199392Y-88490213D01*
X274197832Y-88372207D01*
X274196524Y-88231425D01*
X274195470Y-88071942D01*
X274194670Y-87897831D01*
X274194124Y-87713168D01*
X274193832Y-87522027D01*
X274193794Y-87328484D01*
X274194011Y-87136614D01*
X274194398Y-86984359D01*
X274194484Y-86950490D01*
X274195212Y-86774188D01*
X274195991Y-86645692D01*
X274799231Y-86645692D01*
X274799231Y-86984359D01*
X274799948Y-87095648D01*
X274801936Y-87193087D01*
X274804950Y-87270065D01*
X274808747Y-87319974D01*
X274812256Y-87336051D01*
X274839418Y-87343671D01*
X274896527Y-87348298D01*
X274974587Y-87350147D01*
X275064599Y-87349432D01*
X275157567Y-87346369D01*
X275244494Y-87341172D01*
X275316381Y-87334058D01*
X275364231Y-87325240D01*
X275371663Y-87322679D01*
X275442425Y-87277882D01*
X275507429Y-87210859D01*
X275555295Y-87135112D01*
X275572440Y-87084505D01*
X275579437Y-86978268D01*
X275563547Y-86875116D01*
X275527286Y-86790077D01*
X275521803Y-86781969D01*
X275478038Y-86731403D01*
X275425120Y-86694532D01*
X275356628Y-86669477D01*
X275266140Y-86654354D01*
X275147233Y-86647284D01*
X275058115Y-86646121D01*
X274799231Y-86645692D01*
X274195991Y-86645692D01*
X274196196Y-86611783D01*
X274197436Y-86467349D01*
X274198933Y-86344962D01*
X274200686Y-86248695D01*
X274202696Y-86182625D01*
X274204964Y-86150825D01*
X274205398Y-86149059D01*
X274212329Y-86140458D01*
X274228433Y-86133592D01*
X274257650Y-86128272D01*
X274303919Y-86124308D01*
X274371181Y-86121510D01*
X274463375Y-86119688D01*
X274584441Y-86118652D01*
X274738319Y-86118211D01*
X274846062Y-86118154D01*
X275039452Y-86118552D01*
G37*
G36*
X280117841Y-86122605D02*
G01*
X280469559Y-86127923D01*
X280614873Y-86508923D01*
X280660214Y-86627857D01*
X280702342Y-86738460D01*
X280738703Y-86834024D01*
X280766748Y-86907843D01*
X280783923Y-86953211D01*
X280785840Y-86958308D01*
X280800725Y-86997701D01*
X280826886Y-87066640D01*
X280861674Y-87158157D01*
X280902440Y-87265286D01*
X280946537Y-87381061D01*
X280949240Y-87388154D01*
X281049242Y-87650888D01*
X281135811Y-87879054D01*
X281209633Y-88074524D01*
X281271396Y-88239164D01*
X281321788Y-88374846D01*
X281361495Y-88483438D01*
X281391205Y-88566810D01*
X281411605Y-88626830D01*
X281423382Y-88665369D01*
X281427224Y-88684296D01*
X281426687Y-88686800D01*
X281404551Y-88690361D01*
X281350232Y-88693399D01*
X281270624Y-88695689D01*
X281172619Y-88697004D01*
X281108608Y-88697231D01*
X280800959Y-88697231D01*
X280738967Y-88536038D01*
X280704769Y-88446915D01*
X280670404Y-88357025D01*
X280642336Y-88283285D01*
X280638037Y-88271937D01*
X280599097Y-88169028D01*
X280110183Y-88174244D01*
X279621268Y-88179461D01*
X279519631Y-88433461D01*
X279417994Y-88687461D01*
X279122537Y-88692847D01*
X279019061Y-88693628D01*
X278929955Y-88692208D01*
X278862269Y-88688862D01*
X278823055Y-88683868D01*
X278816325Y-88680832D01*
X278817549Y-88667788D01*
X278826470Y-88635536D01*
X278843648Y-88582557D01*
X278869642Y-88507332D01*
X278905009Y-88408344D01*
X278950310Y-88284072D01*
X279006102Y-88132999D01*
X279072946Y-87953605D01*
X279151399Y-87744372D01*
X279197905Y-87620905D01*
X279825079Y-87620905D01*
X279834281Y-87630109D01*
X279859222Y-87636204D01*
X279905331Y-87639820D01*
X279978040Y-87641586D01*
X280082779Y-87642133D01*
X280120897Y-87642154D01*
X280425737Y-87642154D01*
X280389338Y-87549346D01*
X280370126Y-87499148D01*
X280340747Y-87420892D01*
X280304424Y-87323228D01*
X280264380Y-87214810D01*
X280239876Y-87148108D01*
X280201827Y-87047525D01*
X280167396Y-86962505D01*
X280139057Y-86898683D01*
X280119280Y-86861697D01*
X280111392Y-86855100D01*
X280101205Y-86876225D01*
X280080151Y-86927299D01*
X280050788Y-87001570D01*
X280015673Y-87092287D01*
X279977364Y-87192700D01*
X279938417Y-87296058D01*
X279901391Y-87395610D01*
X279868842Y-87484606D01*
X279843328Y-87556295D01*
X279827406Y-87603925D01*
X279826185Y-87607961D01*
X279825079Y-87620905D01*
X279197905Y-87620905D01*
X279242021Y-87503782D01*
X279345370Y-87230315D01*
X279462005Y-86922453D01*
X279507699Y-86802000D01*
X279562338Y-86657955D01*
X279613256Y-86523611D01*
X279658592Y-86403883D01*
X279696489Y-86303687D01*
X279725084Y-86227938D01*
X279742520Y-86181553D01*
X279746272Y-86171452D01*
X279766124Y-86117288D01*
X280117841Y-86122605D01*
G37*
G36*
X279089768Y-74775317D02*
G01*
X279111753Y-74781580D01*
X279121677Y-74807401D01*
X279131481Y-74870869D01*
X279141085Y-74970553D01*
X279150406Y-75105022D01*
X279159364Y-75272846D01*
X279167877Y-75472595D01*
X279175863Y-75702838D01*
X279183241Y-75962144D01*
X279186505Y-76094923D01*
X279190068Y-76238985D01*
X279193729Y-76372780D01*
X279197303Y-76490569D01*
X279200606Y-76586616D01*
X279203452Y-76655181D01*
X279205657Y-76690527D01*
X279205693Y-76690846D01*
X279210273Y-76749154D01*
X279213286Y-76819450D01*
X279213604Y-76834747D01*
X279214923Y-76920033D01*
X279265033Y-76887199D01*
X279291755Y-76866663D01*
X279344008Y-76823844D01*
X279417831Y-76762087D01*
X279509257Y-76684738D01*
X279614324Y-76595145D01*
X279729066Y-76496654D01*
X279794229Y-76440452D01*
X279962180Y-76295481D01*
X280103256Y-76174106D01*
X280220049Y-76074257D01*
X280315151Y-75993862D01*
X280391153Y-75930850D01*
X280450647Y-75883152D01*
X280496223Y-75848696D01*
X280530474Y-75825411D01*
X280555991Y-75811226D01*
X280575364Y-75804071D01*
X280591187Y-75801876D01*
X280593394Y-75801846D01*
X280650055Y-75818908D01*
X280696254Y-75861448D01*
X280718839Y-75916494D01*
X280719384Y-75926096D01*
X280717363Y-75945261D01*
X280709629Y-75967432D01*
X280693675Y-75995687D01*
X280666993Y-76033102D01*
X280627078Y-76082754D01*
X280571422Y-76147720D01*
X280497518Y-76231078D01*
X280402860Y-76335905D01*
X280284941Y-76465277D01*
X280240692Y-76513666D01*
X280085679Y-76683584D01*
X279955896Y-76826995D01*
X279849735Y-76945794D01*
X279765586Y-77041875D01*
X279701840Y-77117134D01*
X279656888Y-77173464D01*
X279629121Y-77212761D01*
X279616930Y-77236920D01*
X279617789Y-77247143D01*
X279629804Y-77252546D01*
X279656539Y-77258356D01*
X279700792Y-77264835D01*
X279765362Y-77272250D01*
X279853048Y-77280864D01*
X279966650Y-77290942D01*
X280108965Y-77302747D01*
X280282793Y-77316546D01*
X280490932Y-77332601D01*
X280650792Y-77344739D01*
X280801122Y-77356187D01*
X280917395Y-77365539D01*
X281004524Y-77373614D01*
X281067420Y-77381234D01*
X281110996Y-77389220D01*
X281140163Y-77398391D01*
X281159832Y-77409568D01*
X281174916Y-77423573D01*
X281183925Y-77433808D01*
X281214690Y-77492234D01*
X281210093Y-77548425D01*
X281173711Y-77596877D01*
X281109123Y-77632084D01*
X281045812Y-77646309D01*
X281006998Y-77649834D01*
X280934381Y-77655272D01*
X280833169Y-77662279D01*
X280708572Y-77670508D01*
X280565797Y-77679613D01*
X280410053Y-77689248D01*
X280292486Y-77696340D01*
X280133667Y-77706185D01*
X279986744Y-77716002D01*
X279856404Y-77725423D01*
X279747337Y-77734080D01*
X279664229Y-77741604D01*
X279611769Y-77747629D01*
X279595109Y-77751069D01*
X279593931Y-77766047D01*
X279613626Y-77800001D01*
X279655828Y-77855042D01*
X279722170Y-77933282D01*
X279814286Y-78036835D01*
X279826623Y-78050481D01*
X280001820Y-78244859D01*
X280154359Y-78415888D01*
X280283584Y-78562806D01*
X280388842Y-78684848D01*
X280469479Y-78781254D01*
X280524842Y-78851258D01*
X280554277Y-78894099D01*
X280559118Y-78905381D01*
X280550919Y-78957959D01*
X280515136Y-78999059D01*
X280462745Y-79023534D01*
X280404720Y-79026238D01*
X280352391Y-79002320D01*
X280327522Y-78981437D01*
X280277854Y-78939783D01*
X280208545Y-78881680D01*
X280124750Y-78811451D01*
X280031627Y-78733418D01*
X280017348Y-78721454D01*
X279905961Y-78627810D01*
X279786884Y-78527156D01*
X279670111Y-78427977D01*
X279565636Y-78338756D01*
X279499578Y-78281937D01*
X279420209Y-78214453D01*
X279349026Y-78155985D01*
X279292268Y-78111507D01*
X279256176Y-78085993D01*
X279249115Y-78082281D01*
X279237127Y-78080309D01*
X279228233Y-78087924D01*
X279221911Y-78110084D01*
X279217640Y-78151753D01*
X279214898Y-78217889D01*
X279213162Y-78313454D01*
X279211976Y-78435267D01*
X279210691Y-78581306D01*
X279210281Y-78693981D01*
X279211937Y-78779005D01*
X279216849Y-78842089D01*
X279226210Y-78888946D01*
X279241209Y-78925286D01*
X279263036Y-78956824D01*
X279292884Y-78989269D01*
X279331943Y-79028334D01*
X279336587Y-79033013D01*
X279376625Y-79075351D01*
X279438474Y-79143212D01*
X279518508Y-79232456D01*
X279613098Y-79338943D01*
X279718619Y-79458535D01*
X279831441Y-79587092D01*
X279947937Y-79720473D01*
X280064481Y-79854541D01*
X280177444Y-79985155D01*
X280283199Y-80108176D01*
X280378119Y-80219465D01*
X280427984Y-80278437D01*
X280556402Y-80430993D01*
X280687967Y-80587399D01*
X280819953Y-80744402D01*
X280949632Y-80898753D01*
X281074277Y-81047200D01*
X281191159Y-81186493D01*
X281297552Y-81313380D01*
X281390728Y-81424611D01*
X281467959Y-81516935D01*
X281526518Y-81587101D01*
X281563678Y-81631858D01*
X281571624Y-81641532D01*
X281587404Y-81632177D01*
X281625345Y-81601058D01*
X281679326Y-81553379D01*
X281728161Y-81508478D01*
X281820095Y-81425511D01*
X281892042Y-81368411D01*
X281949915Y-81333785D01*
X281999627Y-81318241D01*
X282047092Y-81318384D01*
X282056720Y-81319975D01*
X282080683Y-81325511D01*
X282103441Y-81334758D01*
X282128196Y-81351104D01*
X282158151Y-81377939D01*
X282196507Y-81418651D01*
X282246467Y-81476627D01*
X282311233Y-81555255D01*
X282394008Y-81657925D01*
X282492082Y-81780615D01*
X282709633Y-82052209D01*
X282931003Y-82326662D01*
X283147349Y-82593053D01*
X283349832Y-82840461D01*
X283370679Y-82865805D01*
X283474990Y-82992750D01*
X283598522Y-83143419D01*
X283735870Y-83311194D01*
X283881630Y-83489459D01*
X284030397Y-83671596D01*
X284176768Y-83850988D01*
X284315336Y-84021017D01*
X284440698Y-84175066D01*
X284547448Y-84306519D01*
X284558692Y-84320387D01*
X284689205Y-84481254D01*
X284797450Y-84614248D01*
X284885640Y-84721953D01*
X284955990Y-84806955D01*
X285010714Y-84871838D01*
X285052026Y-84919185D01*
X285082140Y-84951582D01*
X285103269Y-84971612D01*
X285117629Y-84981861D01*
X285127432Y-84984912D01*
X285128000Y-84984923D01*
X285131728Y-84980006D01*
X285135103Y-84964097D01*
X285138143Y-84935454D01*
X285140863Y-84892339D01*
X285143280Y-84833011D01*
X285145410Y-84755730D01*
X285147270Y-84658756D01*
X285148876Y-84540351D01*
X285150244Y-84398773D01*
X285151392Y-84232283D01*
X285152334Y-84039140D01*
X285153089Y-83817606D01*
X285153672Y-83565940D01*
X285154100Y-83282403D01*
X285154388Y-82965253D01*
X285154554Y-82612752D01*
X285154614Y-82223160D01*
X285154615Y-82165096D01*
X285154663Y-81768532D01*
X285154747Y-81409144D01*
X285154778Y-81085033D01*
X285154665Y-80794298D01*
X285154320Y-80535040D01*
X285153653Y-80305357D01*
X285152574Y-80103350D01*
X285150993Y-79927118D01*
X285148821Y-79774762D01*
X285145969Y-79644381D01*
X285142346Y-79534075D01*
X285137863Y-79441945D01*
X285132431Y-79366088D01*
X285125960Y-79304607D01*
X285118360Y-79255600D01*
X285109541Y-79217167D01*
X285099415Y-79187408D01*
X285087891Y-79164424D01*
X285074880Y-79146313D01*
X285060292Y-79131175D01*
X285044038Y-79117111D01*
X285026028Y-79102221D01*
X285009493Y-79087699D01*
X284927882Y-79026717D01*
X284837868Y-78991908D01*
X284820435Y-78987849D01*
X284787839Y-78983568D01*
X284731212Y-78979822D01*
X284649029Y-78976594D01*
X284539764Y-78973868D01*
X284401893Y-78971627D01*
X284233891Y-78969854D01*
X284034232Y-78968533D01*
X283801392Y-78967648D01*
X283533845Y-78967181D01*
X283230067Y-78967116D01*
X282937000Y-78967372D01*
X282676507Y-78967694D01*
X282427010Y-78967974D01*
X282191298Y-78968211D01*
X281972160Y-78968404D01*
X281772386Y-78968551D01*
X281594764Y-78968651D01*
X281442084Y-78968701D01*
X281317134Y-78968702D01*
X281222705Y-78968649D01*
X281161584Y-78968544D01*
X281136562Y-78968383D01*
X281136241Y-78968370D01*
X281113799Y-78952915D01*
X281077634Y-78913846D01*
X281039218Y-78864500D01*
X280989206Y-78797175D01*
X280927262Y-78716230D01*
X280866151Y-78638329D01*
X280861708Y-78632762D01*
X280814677Y-78572547D01*
X280778866Y-78524069D01*
X280760001Y-78495185D01*
X280758461Y-78491108D01*
X280777575Y-78489408D01*
X280833216Y-78487776D01*
X280922836Y-78486228D01*
X281043884Y-78484779D01*
X281193813Y-78483445D01*
X281370072Y-78482241D01*
X281570112Y-78481182D01*
X281791384Y-78480285D01*
X282031340Y-78479564D01*
X282287428Y-78479035D01*
X282557101Y-78478714D01*
X282815664Y-78478615D01*
X283152950Y-78478606D01*
X283453479Y-78478651D01*
X283719571Y-78478855D01*
X283953545Y-78479325D01*
X284157721Y-78480166D01*
X284334419Y-78481485D01*
X284485959Y-78483389D01*
X284614660Y-78485983D01*
X284722843Y-78489374D01*
X284812826Y-78493667D01*
X284886930Y-78498970D01*
X284947475Y-78505387D01*
X284996780Y-78513026D01*
X285037164Y-78521992D01*
X285070949Y-78532392D01*
X285100453Y-78544332D01*
X285127996Y-78557918D01*
X285155898Y-78573256D01*
X285180006Y-78586842D01*
X285302929Y-78673879D01*
X285415513Y-78787781D01*
X285510152Y-78918623D01*
X285579237Y-79056483D01*
X285606321Y-79142923D01*
X285608085Y-79169927D01*
X285609757Y-79234161D01*
X285611338Y-79333777D01*
X285612829Y-79466927D01*
X285614229Y-79631765D01*
X285615539Y-79826443D01*
X285616759Y-80049113D01*
X285617889Y-80297928D01*
X285618930Y-80571040D01*
X285619882Y-80866603D01*
X285620745Y-81182769D01*
X285621519Y-81517690D01*
X285622206Y-81869519D01*
X285622804Y-82236409D01*
X285623315Y-82616512D01*
X285623738Y-83007981D01*
X285624075Y-83408968D01*
X285624324Y-83817627D01*
X285624487Y-84232109D01*
X285624564Y-84650567D01*
X285624555Y-85071155D01*
X285624460Y-85492023D01*
X285624280Y-85911326D01*
X285624015Y-86327216D01*
X285623665Y-86737844D01*
X285623230Y-87141365D01*
X285622712Y-87535930D01*
X285622109Y-87919692D01*
X285621423Y-88290804D01*
X285620653Y-88647418D01*
X285619800Y-88987688D01*
X285618864Y-89309764D01*
X285617846Y-89611801D01*
X285616745Y-89891950D01*
X285615563Y-90148365D01*
X285614299Y-90379198D01*
X285612953Y-90582601D01*
X285611526Y-90756727D01*
X285610019Y-90899729D01*
X285608431Y-91009759D01*
X285606762Y-91084970D01*
X285605014Y-91123515D01*
X285604480Y-91127626D01*
X285546800Y-91297650D01*
X285454751Y-91452363D01*
X285331000Y-91588912D01*
X285178216Y-91704447D01*
X284999067Y-91796113D01*
X284967439Y-91808640D01*
X284851769Y-91852692D01*
X279009769Y-91856389D01*
X278433839Y-91856733D01*
X277895728Y-91857008D01*
X277394181Y-91857210D01*
X276927940Y-91857333D01*
X276495748Y-91857371D01*
X276096349Y-91857321D01*
X275728486Y-91857177D01*
X275390901Y-91856934D01*
X275082337Y-91856587D01*
X274801539Y-91856131D01*
X274547249Y-91855560D01*
X274318210Y-91854870D01*
X274113165Y-91854056D01*
X273930858Y-91853113D01*
X273770031Y-91852035D01*
X273629428Y-91850817D01*
X273507791Y-91849455D01*
X273403865Y-91847944D01*
X273316391Y-91846278D01*
X273244114Y-91844452D01*
X273185776Y-91842462D01*
X273140120Y-91840301D01*
X273105889Y-91837966D01*
X273081827Y-91835451D01*
X273066677Y-91832751D01*
X273065671Y-91832489D01*
X272881651Y-91762958D01*
X272713456Y-91659723D01*
X272598859Y-91559390D01*
X272484967Y-91422076D01*
X272406162Y-91275828D01*
X272358481Y-91113263D01*
X272357901Y-91110231D01*
X272355601Y-91087046D01*
X272353469Y-91042021D01*
X272353269Y-91035148D01*
X272835615Y-91035148D01*
X272894532Y-91130441D01*
X272956670Y-91209764D01*
X273037573Y-91269217D01*
X273057956Y-91280328D01*
X273162462Y-91334923D01*
X278983320Y-91334923D01*
X279561322Y-91334899D01*
X280101462Y-91334825D01*
X280604956Y-91334695D01*
X281073017Y-91334504D01*
X281506862Y-91334245D01*
X281907704Y-91333915D01*
X282276760Y-91333506D01*
X282615244Y-91333014D01*
X282924371Y-91332434D01*
X283205356Y-91331760D01*
X283459414Y-91330986D01*
X283687760Y-91330107D01*
X283891609Y-91329117D01*
X284072176Y-91328012D01*
X284230676Y-91326785D01*
X284368325Y-91325432D01*
X284486336Y-91323947D01*
X284585925Y-91322323D01*
X284668308Y-91320557D01*
X284734698Y-91318643D01*
X284786312Y-91316574D01*
X284824364Y-91314346D01*
X284850068Y-91311953D01*
X284864641Y-91309390D01*
X284867050Y-91308576D01*
X284969202Y-91247396D01*
X285057418Y-91159954D01*
X285101741Y-91093119D01*
X285144846Y-91012538D01*
X285144846Y-88345538D01*
X285144846Y-85678538D01*
X278990231Y-85678538D01*
X272835615Y-85678538D01*
X272835615Y-88356843D01*
X272835615Y-91035148D01*
X272353269Y-91035148D01*
X272351502Y-90974280D01*
X272349698Y-90882947D01*
X272348054Y-90767145D01*
X272346568Y-90625997D01*
X272345238Y-90458628D01*
X272344061Y-90264162D01*
X272343034Y-90041721D01*
X272342157Y-89790430D01*
X272341425Y-89509412D01*
X272340836Y-89197791D01*
X272340389Y-88854691D01*
X272340081Y-88479235D01*
X272340029Y-88356843D01*
X272339909Y-88070547D01*
X272339871Y-87627751D01*
X272339965Y-87149971D01*
X272340187Y-86636329D01*
X272340537Y-86085951D01*
X272341011Y-85497959D01*
X272341364Y-85118205D01*
X273167538Y-85118205D01*
X273174630Y-85119615D01*
X273190164Y-85114505D01*
X273217535Y-85100874D01*
X273260142Y-85076719D01*
X273321382Y-85040039D01*
X273404650Y-84988834D01*
X273513345Y-84921103D01*
X273650864Y-84834843D01*
X273685538Y-84813046D01*
X273800269Y-84740692D01*
X276323231Y-84740692D01*
X276333000Y-84750461D01*
X276342769Y-84740692D01*
X276333000Y-84730923D01*
X276323231Y-84740692D01*
X273800269Y-84740692D01*
X273912336Y-84670018D01*
X274134392Y-84529082D01*
X274358322Y-84385985D01*
X274590746Y-84236476D01*
X274838280Y-84076303D01*
X275107542Y-83901216D01*
X275287692Y-83783702D01*
X275367026Y-83732385D01*
X275438439Y-83687071D01*
X275493146Y-83653282D01*
X275519199Y-83638145D01*
X275549527Y-83624187D01*
X275558800Y-83632575D01*
X275552698Y-83670633D01*
X275550883Y-83679010D01*
X275539862Y-83717865D01*
X275517848Y-83786307D01*
X275487237Y-83877210D01*
X275450427Y-83983452D01*
X275411395Y-84093507D01*
X275372813Y-84202985D01*
X275340110Y-84299479D01*
X275315160Y-84377145D01*
X275299839Y-84430137D01*
X275296019Y-84452612D01*
X275296177Y-84452844D01*
X275317076Y-84446775D01*
X275363183Y-84414632D01*
X275432315Y-84358207D01*
X275522285Y-84279294D01*
X275630910Y-84179686D01*
X275644891Y-84166618D01*
X275722343Y-84094661D01*
X275817341Y-84007259D01*
X275918307Y-83915021D01*
X276013666Y-83828558D01*
X276021348Y-83821628D01*
X276106029Y-83745152D01*
X276210541Y-83650561D01*
X276325829Y-83546060D01*
X276442843Y-83439854D01*
X276548886Y-83343463D01*
X276870831Y-83052194D01*
X277186959Y-82769385D01*
X277491839Y-82499839D01*
X277780042Y-82248356D01*
X278046136Y-82019736D01*
X278047620Y-82018473D01*
X278077792Y-81999359D01*
X278091499Y-81998832D01*
X278089600Y-82010215D01*
X278079651Y-82041332D01*
X278061142Y-82093498D01*
X278033562Y-82168032D01*
X277996400Y-82266251D01*
X277949145Y-82389472D01*
X277891287Y-82539012D01*
X277822316Y-82716188D01*
X277741720Y-82922318D01*
X277648989Y-83158718D01*
X277543612Y-83426707D01*
X277425079Y-83727601D01*
X277292879Y-84062717D01*
X277210338Y-84271769D01*
X277148679Y-84427488D01*
X277090023Y-84574868D01*
X277036275Y-84709175D01*
X276989340Y-84825679D01*
X276951125Y-84919648D01*
X276923535Y-84986349D01*
X276909140Y-85019638D01*
X276886010Y-85073216D01*
X276872111Y-85112754D01*
X276870308Y-85122412D01*
X276889667Y-85127279D01*
X276947052Y-85131223D01*
X277041422Y-85134227D01*
X277171734Y-85136275D01*
X277336949Y-85137349D01*
X277536026Y-85137435D01*
X277762855Y-85136543D01*
X278655402Y-85131461D01*
X278741263Y-84936077D01*
X278784367Y-84836785D01*
X278828755Y-84732543D01*
X278867608Y-84639443D01*
X278883496Y-84600438D01*
X278917089Y-84518326D01*
X278951048Y-84437683D01*
X278978041Y-84375920D01*
X278978120Y-84375746D01*
X278998181Y-84330282D01*
X279030125Y-84256489D01*
X279070655Y-84162049D01*
X279116473Y-84054640D01*
X279156999Y-83959154D01*
X279205333Y-83845969D01*
X279251952Y-83738564D01*
X279293372Y-83644842D01*
X279326105Y-83572702D01*
X279344198Y-83534842D01*
X279364604Y-83494872D01*
X279380140Y-83462788D01*
X279388234Y-83439816D01*
X279386315Y-83427182D01*
X279371811Y-83426110D01*
X279342151Y-83437827D01*
X279294764Y-83463557D01*
X279227078Y-83504528D01*
X279136522Y-83561964D01*
X279020525Y-83637091D01*
X278876515Y-83731134D01*
X278726461Y-83829278D01*
X278588468Y-83918885D01*
X278458972Y-84001814D01*
X278341754Y-84075736D01*
X278240597Y-84138322D01*
X278159280Y-84187242D01*
X278101584Y-84220169D01*
X278071291Y-84234772D01*
X278067759Y-84235041D01*
X278075727Y-84217336D01*
X278102498Y-84173233D01*
X278144470Y-84108351D01*
X278198040Y-84028310D01*
X278233662Y-83976203D01*
X278297657Y-83882911D01*
X278377212Y-83766346D01*
X278466096Y-83635675D01*
X278558078Y-83500061D01*
X278646926Y-83368670D01*
X278670368Y-83333923D01*
X278763984Y-83195640D01*
X278868894Y-83041608D01*
X278977041Y-82883598D01*
X279080367Y-82733380D01*
X279128772Y-82663456D01*
X281406591Y-82663456D01*
X281416455Y-82682059D01*
X281447364Y-82728137D01*
X281496705Y-82798067D01*
X281561859Y-82888225D01*
X281640212Y-82994988D01*
X281729147Y-83114734D01*
X281816392Y-83231033D01*
X281917505Y-83365261D01*
X282014925Y-83494695D01*
X282105197Y-83614741D01*
X282184871Y-83720803D01*
X282250492Y-83808285D01*
X282298608Y-83872591D01*
X282321031Y-83902713D01*
X282369838Y-83964157D01*
X282401555Y-83993930D01*
X282415007Y-83990935D01*
X282415068Y-83990610D01*
X282409400Y-83965247D01*
X282390682Y-83908367D01*
X282360639Y-83824627D01*
X282320998Y-83718685D01*
X282273486Y-83595198D01*
X282219830Y-83458825D01*
X282193720Y-83393447D01*
X282136405Y-83251102D01*
X282082555Y-83118312D01*
X282034202Y-83000016D01*
X281993378Y-82901152D01*
X281962115Y-82826658D01*
X281942446Y-82781472D01*
X281938163Y-82772483D01*
X281927052Y-82746138D01*
X281921374Y-82715284D01*
X281921395Y-82672484D01*
X281927381Y-82610299D01*
X281939597Y-82521293D01*
X281949473Y-82455550D01*
X281969557Y-82326099D01*
X281983024Y-82230659D01*
X281986883Y-82168177D01*
X281978144Y-82137601D01*
X281953817Y-82137876D01*
X281910912Y-82167950D01*
X281846438Y-82226770D01*
X281757406Y-82313282D01*
X281701192Y-82368103D01*
X281614106Y-82453152D01*
X281536955Y-82529304D01*
X281474021Y-82592267D01*
X281429588Y-82637747D01*
X281407937Y-82661450D01*
X281406591Y-82663456D01*
X279128772Y-82663456D01*
X279170814Y-82602724D01*
X279178649Y-82591461D01*
X279259184Y-82475390D01*
X279340142Y-82358045D01*
X279416017Y-82247453D01*
X279481303Y-82151644D01*
X279530494Y-82078646D01*
X279536014Y-82070356D01*
X279648573Y-81900943D01*
X279595606Y-81718664D01*
X279573675Y-81643840D01*
X279543678Y-81542455D01*
X279506889Y-81418745D01*
X279464581Y-81276944D01*
X279418029Y-81121287D01*
X279368506Y-80956008D01*
X279317286Y-80785343D01*
X279265644Y-80613525D01*
X279214852Y-80444789D01*
X279166184Y-80283369D01*
X279120915Y-80133502D01*
X279080319Y-79999420D01*
X279045668Y-79885359D01*
X279018238Y-79795553D01*
X278999301Y-79734237D01*
X278990132Y-79705645D01*
X278989764Y-79704654D01*
X278970401Y-79674917D01*
X278946437Y-79679886D01*
X278913752Y-79720588D01*
X278911421Y-79724192D01*
X278872911Y-79782548D01*
X278828149Y-79846893D01*
X278775252Y-79919611D01*
X278712331Y-80003091D01*
X278637502Y-80099718D01*
X278548878Y-80211879D01*
X278444573Y-80341961D01*
X278322701Y-80492350D01*
X278181375Y-80665433D01*
X278018710Y-80863597D01*
X277832820Y-81089227D01*
X277828502Y-81094460D01*
X277710477Y-81237571D01*
X277596291Y-81376137D01*
X277489195Y-81506202D01*
X277392443Y-81623813D01*
X277309288Y-81725014D01*
X277242980Y-81805852D01*
X277196773Y-81862371D01*
X277182923Y-81879412D01*
X277136645Y-81936230D01*
X277071321Y-82015969D01*
X276992838Y-82111466D01*
X276907087Y-82215554D01*
X276819955Y-82321069D01*
X276811692Y-82331062D01*
X276725915Y-82434947D01*
X276642069Y-82536803D01*
X276565731Y-82629832D01*
X276502476Y-82707237D01*
X276457881Y-82762223D01*
X276453830Y-82767264D01*
X276383873Y-82849009D01*
X276327604Y-82900662D01*
X276279355Y-82926081D01*
X276233462Y-82929122D01*
X276220004Y-82926424D01*
X276188567Y-82907630D01*
X276135602Y-82863558D01*
X276065469Y-82798202D01*
X275982530Y-82715555D01*
X275929005Y-82659930D01*
X275850996Y-82578403D01*
X275782049Y-82507728D01*
X275726687Y-82452432D01*
X275689434Y-82417039D01*
X275675118Y-82405944D01*
X275658670Y-82419771D01*
X275620286Y-82458437D01*
X275564050Y-82517627D01*
X275494048Y-82593027D01*
X275414363Y-82680322D01*
X275393129Y-82703808D01*
X275273997Y-82835352D01*
X275138520Y-82984139D01*
X274992759Y-83143575D01*
X274842776Y-83307063D01*
X274694631Y-83468006D01*
X274554387Y-83619809D01*
X274428106Y-83755876D01*
X274321847Y-83869610D01*
X274320538Y-83871004D01*
X274264073Y-83931312D01*
X274186578Y-84014326D01*
X274093595Y-84114100D01*
X273990663Y-84224683D01*
X273883322Y-84340129D01*
X273793000Y-84437375D01*
X273688155Y-84550192D01*
X273584722Y-84661260D01*
X273487834Y-84765084D01*
X273402624Y-84856170D01*
X273334225Y-84929023D01*
X273291327Y-84974413D01*
X273236400Y-85033468D01*
X273194331Y-85081216D01*
X273170621Y-85111271D01*
X273167538Y-85118205D01*
X272341364Y-85118205D01*
X272341397Y-85082615D01*
X272347154Y-79172231D01*
X272394170Y-79055000D01*
X272479293Y-78882933D01*
X272585035Y-78742876D01*
X272714390Y-78631961D01*
X272870349Y-78547321D01*
X272958877Y-78514078D01*
X272977644Y-78508441D01*
X272999312Y-78503432D01*
X273026175Y-78499016D01*
X273060523Y-78495155D01*
X273104650Y-78491811D01*
X273160847Y-78488949D01*
X273231407Y-78486530D01*
X273318620Y-78484519D01*
X273424780Y-78482877D01*
X273552179Y-78481568D01*
X273703108Y-78480555D01*
X273879860Y-78479801D01*
X274084726Y-78479269D01*
X274320000Y-78478921D01*
X274587972Y-78478721D01*
X274890935Y-78478632D01*
X275153956Y-78478615D01*
X275435995Y-78478699D01*
X275706820Y-78478942D01*
X275963900Y-78479333D01*
X276204705Y-78479862D01*
X276426703Y-78480518D01*
X276627364Y-78481289D01*
X276804157Y-78482164D01*
X276954552Y-78483132D01*
X277076018Y-78484183D01*
X277166025Y-78485305D01*
X277222041Y-78486487D01*
X277241536Y-78487718D01*
X277241538Y-78487730D01*
X277229676Y-78508803D01*
X277197596Y-78552647D01*
X277150561Y-78612918D01*
X277093831Y-78683272D01*
X277032668Y-78757365D01*
X276972333Y-78828855D01*
X276918088Y-78891396D01*
X276875193Y-78938645D01*
X276848911Y-78964259D01*
X276844012Y-78967041D01*
X276821623Y-78967088D01*
X276762900Y-78967232D01*
X276670584Y-78967466D01*
X276547419Y-78967785D01*
X276396147Y-78968179D01*
X276219509Y-78968643D01*
X276020249Y-78969169D01*
X275801108Y-78969749D01*
X275564830Y-78970377D01*
X275314156Y-78971045D01*
X275051828Y-78971747D01*
X274984846Y-78971926D01*
X274675159Y-78972783D01*
X274402137Y-78973628D01*
X274163370Y-78974514D01*
X273956446Y-78975492D01*
X273778954Y-78976615D01*
X273628483Y-78977936D01*
X273502622Y-78979506D01*
X273398959Y-78981379D01*
X273315084Y-78983606D01*
X273248585Y-78986241D01*
X273197050Y-78989335D01*
X273158070Y-78992940D01*
X273129232Y-78997110D01*
X273108125Y-79001897D01*
X273092339Y-79007352D01*
X273079846Y-79013324D01*
X272978404Y-79081465D01*
X272905970Y-79165017D01*
X272882490Y-79205781D01*
X272877237Y-79216948D01*
X272872508Y-79230230D01*
X272868280Y-79247609D01*
X272864530Y-79271067D01*
X272861235Y-79302587D01*
X272858370Y-79344151D01*
X272855914Y-79397741D01*
X272853842Y-79465339D01*
X272852130Y-79548928D01*
X272850757Y-79650489D01*
X272849698Y-79772006D01*
X272848930Y-79915460D01*
X272848430Y-80082834D01*
X272848174Y-80276110D01*
X272848140Y-80497271D01*
X272848303Y-80748297D01*
X272848640Y-81031173D01*
X272849128Y-81347879D01*
X272849744Y-81700399D01*
X272850199Y-81948245D01*
X272855154Y-84618083D01*
X273375790Y-84034618D01*
X273508660Y-83885955D01*
X273649760Y-83728512D01*
X273793169Y-83568868D01*
X273932969Y-83413597D01*
X274063239Y-83269277D01*
X274178059Y-83142485D01*
X274252722Y-83060384D01*
X274367732Y-82934148D01*
X274492897Y-82796595D01*
X274620074Y-82656687D01*
X274741121Y-82523384D01*
X274847892Y-82405646D01*
X274891946Y-82357000D01*
X275057234Y-82175843D01*
X275201272Y-82021075D01*
X275323380Y-81893388D01*
X275422882Y-81793472D01*
X275499101Y-81722018D01*
X275551357Y-81679714D01*
X275565145Y-81671241D01*
X275622945Y-81647713D01*
X275677870Y-81641929D01*
X275734717Y-81656330D01*
X275798282Y-81693353D01*
X275873359Y-81755436D01*
X275964747Y-81845018D01*
X276019196Y-81902097D01*
X276208013Y-82103000D01*
X276270507Y-82033644D01*
X276297722Y-82001632D01*
X276345741Y-81943211D01*
X276411136Y-81862631D01*
X276490482Y-81764139D01*
X276580349Y-81651984D01*
X276677312Y-81530415D01*
X276735457Y-81457259D01*
X276861158Y-81299178D01*
X277007254Y-81115931D01*
X277169564Y-80912739D01*
X277343906Y-80694817D01*
X277526102Y-80467385D01*
X277711970Y-80235659D01*
X277897330Y-80004858D01*
X278078001Y-79780199D01*
X278249803Y-79566900D01*
X278284457Y-79523923D01*
X278362536Y-79427503D01*
X278453391Y-79315916D01*
X278544854Y-79204075D01*
X278613556Y-79120478D01*
X278785077Y-78912418D01*
X278785077Y-78500132D01*
X278784763Y-78361590D01*
X278783596Y-78257427D01*
X278781233Y-78182947D01*
X278777332Y-78133455D01*
X278771552Y-78104256D01*
X278763552Y-78090654D01*
X278755084Y-78087846D01*
X278733718Y-78100092D01*
X278686245Y-78134929D01*
X278616215Y-78189507D01*
X278527183Y-78260978D01*
X278422700Y-78346490D01*
X278306319Y-78443194D01*
X278188820Y-78542115D01*
X278063563Y-78647624D01*
X277946108Y-78745429D01*
X277840152Y-78832534D01*
X277749393Y-78905948D01*
X277677529Y-78962677D01*
X277628258Y-78999726D01*
X277606095Y-79013845D01*
X277535578Y-79022783D01*
X277473539Y-78998818D01*
X277436180Y-78955920D01*
X277420380Y-78917595D01*
X277424303Y-78883847D01*
X277447251Y-78840148D01*
X277469490Y-78810384D01*
X277514747Y-78755804D01*
X277579581Y-78680349D01*
X277660549Y-78587956D01*
X277754209Y-78482567D01*
X277857119Y-78368121D01*
X277925384Y-78292888D01*
X278050740Y-78155171D01*
X278152185Y-78043503D01*
X278232146Y-77955067D01*
X278293050Y-77887043D01*
X278337325Y-77836615D01*
X278367396Y-77800965D01*
X278385691Y-77777273D01*
X278394637Y-77762723D01*
X278396662Y-77754496D01*
X278394192Y-77749775D01*
X278393616Y-77749225D01*
X278370279Y-77743329D01*
X278311445Y-77736314D01*
X278216396Y-77728125D01*
X278084410Y-77718705D01*
X277914769Y-77707999D01*
X277720231Y-77696705D01*
X277507772Y-77684781D01*
X277330925Y-77674795D01*
X277186292Y-77666404D01*
X277070474Y-77659260D01*
X276980073Y-77653018D01*
X276911691Y-77647331D01*
X276861929Y-77641856D01*
X276827389Y-77636244D01*
X276804673Y-77630151D01*
X276790383Y-77623231D01*
X276781120Y-77615138D01*
X276773486Y-77605525D01*
X276769116Y-77599915D01*
X276737891Y-77536308D01*
X276741180Y-77472207D01*
X276770066Y-77426087D01*
X276782080Y-77415171D01*
X276796856Y-77405866D01*
X276818106Y-77397728D01*
X276849543Y-77390312D01*
X276894878Y-77383173D01*
X276957825Y-77375866D01*
X277042096Y-77367946D01*
X277151403Y-77358969D01*
X277289459Y-77348490D01*
X277459977Y-77336062D01*
X277612769Y-77325099D01*
X277808550Y-77310884D01*
X277968809Y-77298697D01*
X278097028Y-77288130D01*
X278196686Y-77278775D01*
X278271264Y-77270224D01*
X278324240Y-77262072D01*
X278359096Y-77253909D01*
X278379312Y-77245329D01*
X278388367Y-77235924D01*
X278389045Y-77234218D01*
X278383888Y-77220298D01*
X278363178Y-77190724D01*
X278325627Y-77144044D01*
X278269944Y-77078805D01*
X278194839Y-76993556D01*
X278099022Y-76886843D01*
X277981202Y-76757214D01*
X277840090Y-76603218D01*
X277674394Y-76423401D01*
X277530353Y-76267631D01*
X277450639Y-76179508D01*
X277380056Y-76097651D01*
X277323128Y-76027617D01*
X277284379Y-75974962D01*
X277268510Y-75946034D01*
X277265631Y-75902657D01*
X277287824Y-75866205D01*
X277308054Y-75847344D01*
X277328174Y-75829276D01*
X277345493Y-75815134D01*
X277363056Y-75806856D01*
X277383907Y-75806378D01*
X277411092Y-75815637D01*
X277447655Y-75836573D01*
X277496640Y-75871120D01*
X277561094Y-75921219D01*
X277644060Y-75988804D01*
X277748584Y-76075815D01*
X277877710Y-76184187D01*
X278003445Y-76289814D01*
X278118090Y-76386347D01*
X278235051Y-76485363D01*
X278346936Y-76580562D01*
X278446350Y-76665649D01*
X278525900Y-76734324D01*
X278548855Y-76754346D01*
X278620177Y-76815691D01*
X278681448Y-76866292D01*
X278726488Y-76901193D01*
X278749120Y-76915439D01*
X278749830Y-76915538D01*
X278770332Y-76900056D01*
X278774257Y-76891115D01*
X278776278Y-76867144D01*
X278779124Y-76808081D01*
X278782660Y-76717898D01*
X278786754Y-76600569D01*
X278791273Y-76460066D01*
X278796083Y-76300363D01*
X278801051Y-76125432D01*
X278805550Y-75958154D01*
X278810715Y-75767952D01*
X278816021Y-75585290D01*
X278821310Y-75414811D01*
X278826423Y-75261157D01*
X278831199Y-75128970D01*
X278835480Y-75022894D01*
X278839107Y-74947571D01*
X278841406Y-74912846D01*
X278853461Y-74776077D01*
X278970692Y-74771024D01*
X279037473Y-74770772D01*
X279089768Y-74775317D01*
G37*
D10*
X210415000Y-102747936D02*
X210415000Y-103202064D01*
X211885000Y-102747936D02*
X211885000Y-103202064D01*
X242686252Y-105740000D02*
X241263748Y-105740000D01*
X242686252Y-108460000D02*
X241263748Y-108460000D01*
X221850000Y-94050000D02*
G75*
G02*
X218050000Y-94050000I-1900000J0D01*
G01*
X218050000Y-94050000D02*
G75*
G02*
X221850000Y-94050000I1900000J0D01*
G01*
X203556000Y-108600000D02*
G75*
G02*
X201054000Y-108600000I-1251000J0D01*
G01*
X201054000Y-108600000D02*
G75*
G02*
X203556000Y-108600000I1251000J0D01*
G01*
X207427064Y-110365000D02*
X206972936Y-110365000D01*
X207427064Y-111835000D02*
X206972936Y-111835000D01*
X222350000Y-94040000D02*
X223600000Y-94040000D01*
X222975000Y-93415000D02*
X222975000Y-94665000D01*
X223840000Y-92504437D02*
X223840000Y-95290000D01*
X223840000Y-92504437D02*
X224904437Y-91440000D01*
X223840000Y-101095563D02*
X223840000Y-98310000D01*
X223840000Y-101095563D02*
X224904437Y-102160000D01*
X224904437Y-91440000D02*
X234560000Y-91440000D01*
X224904437Y-102160000D02*
X234560000Y-102160000D01*
X234560000Y-91440000D02*
X234560000Y-95290000D01*
X234560000Y-102160000D02*
X234560000Y-98310000D01*
X206890000Y-102165000D02*
X206940000Y-102165000D01*
X206890000Y-103985000D02*
X206890000Y-102165000D01*
X206940000Y-103985000D02*
X206890000Y-103985000D01*
X209960000Y-102165000D02*
X210010000Y-102165000D01*
X210010000Y-102165000D02*
X210010000Y-103985000D01*
X210010000Y-103985000D02*
X209960000Y-103985000D01*
X206940000Y-104525000D02*
X206610000Y-104765000D01*
X206610000Y-104285000D01*
X206940000Y-104525000D01*
G36*
X206940000Y-104525000D02*
G01*
X206610000Y-104765000D01*
X206610000Y-104285000D01*
X206940000Y-104525000D01*
G37*
X261700000Y-85000000D02*
G75*
G02*
X257900000Y-85000000I-1900000J0D01*
G01*
X257900000Y-85000000D02*
G75*
G02*
X261700000Y-85000000I1900000J0D01*
G01*
X249063748Y-105740000D02*
X250486252Y-105740000D01*
X249063748Y-108460000D02*
X250486252Y-108460000D01*
X221650000Y-77600000D02*
G75*
G02*
X217850000Y-77600000I-1900000J0D01*
G01*
X217850000Y-77600000D02*
G75*
G02*
X221650000Y-77600000I1900000J0D01*
G01*
%LPC*%
D14*
X215575000Y-103475000D03*
X219875000Y-103475000D03*
D15*
X202425000Y-96600000D03*
X205225000Y-96600000D03*
D16*
X221300000Y-81450000D03*
X216800000Y-81450000D03*
D15*
X202450000Y-94350000D03*
X205250000Y-94350000D03*
D17*
X208950000Y-92700000D03*
X215750000Y-92700000D03*
D18*
X202435000Y-82650000D03*
X213865000Y-82650000D03*
D15*
X218300000Y-84150000D03*
X221100000Y-84150000D03*
X218350000Y-86400000D03*
X221150000Y-86400000D03*
D19*
X205492500Y-108500000D03*
X207317500Y-108500000D03*
D20*
X219025000Y-90050000D03*
D21*
X221565000Y-90050000D03*
D22*
X228800000Y-103900000D03*
X231750000Y-103900000D03*
D23*
X201450000Y-99475000D03*
X205850000Y-99475000D03*
D24*
X199910000Y-90220000D03*
X199910000Y-90860000D03*
X199910000Y-91520000D03*
X199910000Y-92160000D03*
D25*
X201735000Y-91190000D03*
D26*
X213025000Y-103937500D03*
X213025000Y-102112500D03*
D27*
X254940000Y-76400000D03*
X254940000Y-79800000D03*
X264860000Y-76400000D03*
X264860000Y-79800000D03*
D28*
X222000000Y-115000000D03*
D29*
X243475000Y-103900000D03*
X240525000Y-103900000D03*
D30*
X212080000Y-111400000D03*
X212080000Y-113300000D03*
D31*
X205430000Y-106300000D03*
X208380000Y-106300000D03*
D32*
X246710000Y-85770000D03*
X238310000Y-85770000D03*
D19*
X210192500Y-109700000D03*
X212017500Y-109700000D03*
D33*
X220300000Y-122500000D03*
X222200000Y-122500000D03*
D34*
X210625000Y-99675000D03*
X207675000Y-99675000D03*
D28*
X213705000Y-107250000D03*
D19*
X200675000Y-120000000D03*
X202500000Y-120000000D03*
D35*
X225500000Y-77600000D03*
D36*
X201850000Y-101975000D03*
X201850000Y-105575000D03*
D37*
X250187500Y-85750000D03*
X254812500Y-85750000D03*
D28*
X216705000Y-107250000D03*
D38*
X234000000Y-111640000D03*
X234000000Y-111000000D03*
X234000000Y-110340000D03*
X234000000Y-109700000D03*
D39*
X232175000Y-110670000D03*
D40*
X225000000Y-85800000D03*
X233400000Y-85800000D03*
D41*
X229807500Y-116587500D03*
X229807500Y-122512500D03*
D28*
X210705000Y-107250000D03*
D42*
X205750000Y-103925000D03*
X205750000Y-102025000D03*
D19*
X218992500Y-106900000D03*
X220817500Y-106900000D03*
D35*
X264900000Y-85000000D03*
D43*
X214112500Y-98650000D03*
X220487500Y-98650000D03*
D26*
X201350000Y-118212500D03*
X201350000Y-116387500D03*
D38*
X227375000Y-111712500D03*
X227375000Y-111072500D03*
X227375000Y-110412500D03*
X227375000Y-109772500D03*
D39*
X225550000Y-110742500D03*
D29*
X225825000Y-107100000D03*
X222875000Y-107100000D03*
D22*
X228800000Y-107100000D03*
X231750000Y-107100000D03*
D41*
X225507500Y-116587500D03*
X225507500Y-122512500D03*
D24*
X244870000Y-109870000D03*
X244870000Y-110510000D03*
X244870000Y-111170000D03*
X244870000Y-111810000D03*
D25*
X246695000Y-110840000D03*
D24*
X203950000Y-90330000D03*
X203950000Y-90970000D03*
X203950000Y-91630000D03*
X203950000Y-92270000D03*
D25*
X205775000Y-91300000D03*
D32*
X246692500Y-96780000D03*
X238292500Y-96780000D03*
D44*
X222162500Y-120250000D03*
X220337500Y-120250000D03*
D45*
X205380000Y-118230000D03*
X209420000Y-118230000D03*
X205380000Y-119500000D03*
X209420000Y-119500000D03*
X205380000Y-120770000D03*
X209420000Y-120770000D03*
X214350763Y-113260000D03*
X218390763Y-113260000D03*
X214350763Y-114530000D03*
X218390763Y-114530000D03*
X214350763Y-115800000D03*
X218390763Y-115800000D03*
X214350763Y-117070000D03*
X218390763Y-117070000D03*
X214350763Y-118340000D03*
X218390763Y-118340000D03*
D22*
X248275000Y-103900000D03*
X251225000Y-103900000D03*
D35*
X238255000Y-77600000D03*
D24*
X237870000Y-109732500D03*
X237870000Y-110372500D03*
X237870000Y-111032500D03*
X237870000Y-111672500D03*
D25*
X239695000Y-110702500D03*
D28*
X229805000Y-77600000D03*
D29*
X225825000Y-103900000D03*
X222875000Y-103900000D03*
D31*
X235237500Y-105300000D03*
X238187500Y-105300000D03*
D46*
X210080000Y-111525000D03*
X210080000Y-113350000D03*
D47*
X240257500Y-126200000D03*
X240257500Y-115600000D03*
D46*
X211150000Y-102062500D03*
X211150000Y-103887500D03*
D29*
X243450000Y-107100000D03*
X240500000Y-107100000D03*
D35*
X219950000Y-94050000D03*
D28*
X202305000Y-108600000D03*
D44*
X208112500Y-111100000D03*
X206287500Y-111100000D03*
D40*
X225000000Y-96800000D03*
X233400000Y-96800000D03*
D48*
X207500000Y-104212500D03*
X208450000Y-104212500D03*
X209400000Y-104212500D03*
X209400000Y-101937500D03*
X208450000Y-101937500D03*
X207500000Y-101937500D03*
D35*
X259800000Y-85000000D03*
D22*
X248300000Y-107100000D03*
X251250000Y-107100000D03*
D35*
X219750000Y-77600000D03*
%LPD*%
M02*
