G04 #@! TF.GenerationSoftware,KiCad,Pcbnew,9.0.5*
G04 #@! TF.CreationDate,2026-01-02T14:21:27+01:00*
G04 #@! TF.ProjectId,peak-ignitor-box,7065616b-2d69-4676-9e69-746f722d626f,rev?*
G04 #@! TF.SameCoordinates,Original*
G04 #@! TF.FileFunction,Copper,L2,Inr*
G04 #@! TF.FilePolarity,Positive*
%FSLAX46Y46*%
G04 Gerber Fmt 4.6, Leading zero omitted, Abs format (unit mm)*
G04 Created by KiCad (PCBNEW 9.0.5) date 2026-01-02 14:21:27*
%MOMM*%
%LPD*%
G01*
G04 APERTURE LIST*
G04 #@! TA.AperFunction,ComponentPad*
%ADD10R,1.700000X1.700000*%
G04 #@! TD*
G04 #@! TA.AperFunction,ComponentPad*
%ADD11C,1.700000*%
G04 #@! TD*
G04 #@! TA.AperFunction,ComponentPad*
%ADD12C,2.780000*%
G04 #@! TD*
G04 #@! TA.AperFunction,ComponentPad*
%ADD13C,2.000000*%
G04 #@! TD*
G04 #@! TA.AperFunction,ComponentPad*
%ADD14C,3.400000*%
G04 #@! TD*
G04 #@! TA.AperFunction,ViaPad*
%ADD15C,0.600000*%
G04 #@! TD*
G04 #@! TA.AperFunction,Conductor*
%ADD16C,0.250000*%
G04 #@! TD*
G04 #@! TA.AperFunction,Conductor*
%ADD17C,0.500000*%
G04 #@! TD*
G04 APERTURE END LIST*
D10*
X121825000Y-83950000D03*
D11*
X124365000Y-83950000D03*
D12*
X157740000Y-70300000D03*
X157740000Y-73700000D03*
X167660000Y-70300000D03*
X167660000Y-73700000D03*
D13*
X124800000Y-108900000D03*
X116505000Y-101150000D03*
D14*
X128300000Y-71500000D03*
D13*
X119505000Y-101150000D03*
X113505000Y-101150000D03*
D14*
X167700000Y-78900000D03*
X141055000Y-71500000D03*
D13*
X132605000Y-71500000D03*
D14*
X122750000Y-87950000D03*
D13*
X105105000Y-102500000D03*
D14*
X162600000Y-78900000D03*
X122550000Y-71500000D03*
D15*
X114682000Y-82050000D03*
X111787500Y-79700000D03*
X126350000Y-81500000D03*
X123150000Y-75400000D03*
X127350000Y-101000000D03*
X129050000Y-105650000D03*
X130550000Y-100900000D03*
X129350000Y-89000000D03*
X130550000Y-99900000D03*
X129050000Y-104650000D03*
X128350000Y-78500000D03*
X126300000Y-89000000D03*
X127300000Y-92500000D03*
X129350000Y-92500000D03*
X129350000Y-78500000D03*
X127350000Y-102000000D03*
X129550000Y-100900000D03*
X129550000Y-99900000D03*
X128350000Y-81500000D03*
X131231153Y-88031153D03*
X127300000Y-89000000D03*
X127550000Y-104650000D03*
X128350000Y-89000000D03*
X127350000Y-78500000D03*
X127550000Y-105650000D03*
X128300000Y-103650000D03*
X128350000Y-92500000D03*
X126350000Y-78500000D03*
X129550000Y-101900000D03*
X127350000Y-81500000D03*
X123900000Y-79100000D03*
X129050000Y-103650000D03*
X130550000Y-101900000D03*
X128300000Y-105650000D03*
X127550000Y-103650000D03*
X128300000Y-104650000D03*
X127350000Y-100000000D03*
X129350000Y-81500000D03*
X126300000Y-92500000D03*
X113755000Y-104900000D03*
X107865251Y-84065251D03*
X107875000Y-86230000D03*
X109205000Y-88900000D03*
X109205000Y-89900000D03*
X108575000Y-85530000D03*
X111205000Y-88900000D03*
X112205000Y-88900000D03*
X109205000Y-90900000D03*
X109550000Y-77000000D03*
X110205000Y-88900000D03*
X107875000Y-84830000D03*
X108575000Y-86230000D03*
X108575000Y-84830000D03*
X107875000Y-85530000D03*
X112605000Y-96700000D03*
X113337171Y-98888487D03*
X108755000Y-99050000D03*
X104400000Y-114800000D03*
X107205000Y-99100000D03*
X117100000Y-106600000D03*
X107205000Y-99900000D03*
X123468599Y-117578648D03*
X106300000Y-114750000D03*
X103650000Y-112750000D03*
X110800000Y-104450002D03*
X107955000Y-99100000D03*
X110500000Y-111950000D03*
X105316853Y-94491413D03*
X103487500Y-106500000D03*
X113352800Y-95300000D03*
X124800000Y-113150000D03*
X107205000Y-100700000D03*
X113450000Y-89133013D03*
X121400000Y-76550000D03*
X114300000Y-89133013D03*
X122350000Y-76550000D03*
X125300000Y-102000000D03*
X144350000Y-93500000D03*
X135405000Y-78450000D03*
X141350000Y-94500000D03*
X137550000Y-102650000D03*
X139516824Y-94425856D03*
X159900000Y-85375000D03*
X111237500Y-82310000D03*
X105300000Y-89250000D03*
X140550000Y-85749808D03*
X137300000Y-116000000D03*
X155300000Y-98000000D03*
X140350000Y-92500000D03*
X105800000Y-91000000D03*
X150305000Y-116000000D03*
X141305000Y-114000000D03*
X111237500Y-81510000D03*
X139305000Y-115000000D03*
X113475000Y-77600000D03*
X143350000Y-93500000D03*
X115825000Y-95225000D03*
X155300000Y-101000000D03*
X153400000Y-101000000D03*
X110835000Y-91770000D03*
X138300000Y-115000000D03*
X139800000Y-106400000D03*
X140550000Y-102650000D03*
X143599999Y-85712308D03*
X147305000Y-115000000D03*
X137405000Y-78450000D03*
X153400000Y-100000000D03*
X141300000Y-101900000D03*
X134405000Y-80950000D03*
X149305000Y-116000000D03*
X138300000Y-113000000D03*
X135350000Y-93412308D03*
X143305000Y-116000000D03*
X113550000Y-109750000D03*
X154450000Y-99000000D03*
X148305000Y-116000000D03*
X105800000Y-90000000D03*
X153400000Y-97000000D03*
X138300000Y-104150000D03*
X154450000Y-100000000D03*
X139905000Y-80950000D03*
X141305000Y-115000000D03*
X146305000Y-115000000D03*
X138300000Y-116000000D03*
X142305000Y-113000000D03*
X135000000Y-85900000D03*
X113550000Y-108000000D03*
X120420763Y-114000000D03*
X142305000Y-114000000D03*
X120420763Y-114750000D03*
X147305000Y-116000000D03*
X140350000Y-94500000D03*
X134550000Y-102650000D03*
X140305000Y-116000000D03*
X135300000Y-101900000D03*
X142350000Y-94500000D03*
X144305000Y-114000000D03*
X108150000Y-104350000D03*
X107300000Y-118250000D03*
X112837500Y-81510000D03*
X138300000Y-102650000D03*
X143350000Y-94319276D03*
X116570763Y-112800000D03*
X147305000Y-114000000D03*
X106800000Y-93800000D03*
X111205000Y-97000000D03*
X122550000Y-117650000D03*
X136350000Y-92500000D03*
X138150000Y-93500000D03*
X144500000Y-89200000D03*
X136050000Y-101900000D03*
X145305000Y-116000000D03*
X141905000Y-78450000D03*
X139050000Y-101900000D03*
X143350000Y-92500000D03*
X139800000Y-104150000D03*
X111938593Y-108666002D03*
X139050000Y-106400000D03*
X154450000Y-97000000D03*
X140905000Y-78450000D03*
X140305000Y-114000000D03*
X115050000Y-111250000D03*
X135350000Y-92500000D03*
X149305000Y-113000000D03*
X138750000Y-85749808D03*
X138300000Y-114000000D03*
X138125000Y-94500000D03*
X144350000Y-94319276D03*
X153400000Y-102000000D03*
X136405000Y-78450000D03*
X126800000Y-114000000D03*
X148305000Y-113000000D03*
X142350000Y-93500000D03*
X141300000Y-102650000D03*
X153400000Y-99000000D03*
X153400000Y-98000000D03*
X146305000Y-114000000D03*
X137550000Y-106400000D03*
X147305000Y-113000000D03*
X146305000Y-113000000D03*
X137550000Y-105650000D03*
X116050000Y-118250000D03*
X140550000Y-101900000D03*
X121300000Y-118250000D03*
X142550000Y-85712308D03*
X139305000Y-116000000D03*
X145305000Y-115000000D03*
X141305000Y-116000000D03*
X116570763Y-111500000D03*
X133350000Y-93412308D03*
X140305000Y-113000000D03*
X142305000Y-115000000D03*
X106400000Y-116412500D03*
X118505000Y-95350000D03*
X135350000Y-94500000D03*
X149305000Y-114000000D03*
X139050000Y-103400000D03*
X142350000Y-92500000D03*
X137300000Y-115000000D03*
X111237500Y-83110000D03*
X110800000Y-118250000D03*
X140305000Y-115000000D03*
X125300000Y-100000000D03*
X155300000Y-102000000D03*
X155300000Y-100000000D03*
X133350000Y-94500000D03*
X142905000Y-78450000D03*
X139050000Y-105650000D03*
X158200000Y-86200000D03*
X110000000Y-92400000D03*
X125050000Y-115400000D03*
X133800000Y-114000000D03*
X135300000Y-102650000D03*
X108500000Y-77800000D03*
X144305000Y-115000000D03*
X154450000Y-98000000D03*
X154450000Y-102000000D03*
X143305000Y-113000000D03*
X139305000Y-114000000D03*
X109300000Y-118250000D03*
X145305000Y-114000000D03*
X121905000Y-98750000D03*
X144350000Y-92500000D03*
X154450000Y-101000000D03*
X141350000Y-93500000D03*
X144305000Y-116000000D03*
X143305000Y-115000000D03*
X105300000Y-91500000D03*
X139050000Y-104900000D03*
X137350000Y-93500000D03*
X148305000Y-115000000D03*
X134350000Y-92500000D03*
X134350000Y-93412308D03*
X136405000Y-80950000D03*
X115050000Y-108000000D03*
X150305000Y-113000000D03*
X124050000Y-97500000D03*
X142305000Y-116000000D03*
X138300000Y-104900000D03*
X137405000Y-80950000D03*
X138300000Y-101900000D03*
X149305000Y-115000000D03*
X141350000Y-92500000D03*
X112037500Y-82310000D03*
X139575000Y-92500000D03*
X135405000Y-80950000D03*
X139800000Y-104900000D03*
X137350000Y-94500000D03*
X141905000Y-80950000D03*
X139050000Y-102650000D03*
X143305000Y-114000000D03*
X136050000Y-102650000D03*
X114300000Y-118250000D03*
X111800000Y-109750000D03*
X139800000Y-105650000D03*
X133350000Y-92500000D03*
X116570763Y-110200000D03*
X138300000Y-105650000D03*
X110305000Y-97000000D03*
X144305000Y-113000000D03*
X139905000Y-78450000D03*
X155300000Y-97000000D03*
X113550000Y-113000000D03*
X121600000Y-82300000D03*
X116570763Y-109000000D03*
X112837500Y-82310000D03*
X136350000Y-93412308D03*
X111800000Y-113000000D03*
X105800000Y-88750000D03*
X148305000Y-114000000D03*
X115050000Y-109750000D03*
X138300000Y-103400000D03*
X137300000Y-114000000D03*
X137550000Y-104150000D03*
X134350000Y-94500000D03*
X106206482Y-111038923D03*
X137550000Y-103400000D03*
X113550000Y-111250000D03*
X142905000Y-80950000D03*
X139550000Y-93500000D03*
X112550000Y-118250000D03*
X118555000Y-83350000D03*
X138300000Y-106400000D03*
X112837500Y-83110000D03*
X139050000Y-104150000D03*
X118555000Y-82550000D03*
X141305000Y-113000000D03*
X137550000Y-101900000D03*
X142800000Y-101900000D03*
X124050000Y-96500000D03*
X134405000Y-78450000D03*
X142800000Y-102650000D03*
X139305000Y-113000000D03*
X146305000Y-116000000D03*
X155300000Y-99000000D03*
X111800000Y-111250000D03*
X137350000Y-92500000D03*
X138150000Y-92500000D03*
X136350000Y-94500000D03*
X137550000Y-104900000D03*
X137300000Y-113000000D03*
X119550000Y-118250000D03*
X104556250Y-117156250D03*
X145305000Y-113000000D03*
X134550000Y-101900000D03*
X112037500Y-81510000D03*
X137000000Y-85749808D03*
X132350000Y-94500000D03*
X115050000Y-113000000D03*
X117550000Y-118250000D03*
X150305000Y-115000000D03*
X125300000Y-101000000D03*
X112037500Y-83110000D03*
X140350000Y-93500000D03*
X120170763Y-104400000D03*
X150305000Y-114000000D03*
X133800000Y-113000000D03*
X140905000Y-80950000D03*
X101939700Y-103100000D03*
X106507021Y-104120478D03*
X106400000Y-110300000D03*
X102700000Y-110600000D03*
X138760000Y-88980000D03*
X138423793Y-97735633D03*
X141300000Y-111500000D03*
X144300000Y-111500000D03*
X148300000Y-111500000D03*
X144800000Y-104650000D03*
X143245000Y-103650000D03*
X149300000Y-107500000D03*
X146300000Y-111500000D03*
X146800000Y-105400000D03*
X144800000Y-106150000D03*
X141300000Y-107500000D03*
X147300000Y-111500000D03*
X139300000Y-107500000D03*
X146800000Y-103900000D03*
X138300000Y-107500000D03*
X142300000Y-107500000D03*
X145800000Y-103900000D03*
X143300000Y-111500000D03*
X145300000Y-111500000D03*
X142495000Y-104650000D03*
X141745000Y-105650000D03*
X142495000Y-103650000D03*
X145800000Y-106150000D03*
X146800000Y-106150000D03*
X142495000Y-105650000D03*
X145800000Y-105400000D03*
X145800000Y-104650000D03*
X139300000Y-111500000D03*
X144800000Y-103900000D03*
X147300000Y-107500000D03*
X145300000Y-107500000D03*
X146800000Y-104650000D03*
X144300000Y-107500000D03*
X141745000Y-103650000D03*
X143245000Y-105650000D03*
X148300000Y-107500000D03*
X140300000Y-107500000D03*
X141745000Y-104650000D03*
X140300000Y-111500000D03*
X138300000Y-111500000D03*
X144800000Y-105400000D03*
X143245000Y-104650000D03*
X143300000Y-107500000D03*
X142300000Y-111500000D03*
X149300000Y-111500000D03*
X146300000Y-107500000D03*
X120400000Y-75450000D03*
X147550000Y-106150000D03*
X140004516Y-98240889D03*
X139300000Y-98650000D03*
X140550000Y-106150000D03*
X120000000Y-80400000D03*
X108950000Y-82536204D03*
X104705000Y-85060000D03*
X105405000Y-85760000D03*
X105405000Y-84360000D03*
X104705000Y-84360000D03*
X104705000Y-85760000D03*
X105405000Y-85060000D03*
X105415000Y-82670000D03*
X130650000Y-113075000D03*
X130650000Y-113925000D03*
X137460773Y-97731521D03*
X136800000Y-102900000D03*
X130050000Y-103150000D03*
X136799999Y-98253184D03*
X109376540Y-81543256D03*
X106850000Y-86750000D03*
X105318771Y-86825000D03*
X110338532Y-83551836D03*
X154925000Y-82355849D03*
X155775000Y-82355849D03*
X123905000Y-95150000D03*
X106050000Y-109250000D03*
X118920763Y-104750000D03*
X122191558Y-102979205D03*
X109190700Y-106238292D03*
X121920763Y-116400000D03*
X109590141Y-98818221D03*
X108200000Y-111450000D03*
X109151144Y-115248856D03*
X106448238Y-113988821D03*
X107100000Y-101600000D03*
X109900000Y-113400000D03*
X119371354Y-111898954D03*
X119470763Y-108400000D03*
X119575000Y-111000000D03*
X119470763Y-109700000D03*
X119470763Y-106500000D03*
X122139702Y-106395298D03*
X119270763Y-105700000D03*
X104300000Y-108400000D03*
X106062500Y-106250000D03*
X122203611Y-105658361D03*
X110925202Y-102379798D03*
X116800000Y-104300000D03*
X117800000Y-89600000D03*
X150250000Y-103742500D03*
X146800000Y-81500000D03*
X147800000Y-92000000D03*
X147050000Y-100900000D03*
X149050000Y-100900000D03*
X150250000Y-105742500D03*
X150050000Y-101900000D03*
X148800000Y-92000000D03*
X147800000Y-81500000D03*
X148800000Y-81500000D03*
X146800000Y-92000000D03*
X148750000Y-105742500D03*
X148800000Y-89500000D03*
X148050000Y-100900000D03*
X147800000Y-78500000D03*
X150800000Y-78500000D03*
X150800000Y-81500000D03*
X148800000Y-78500000D03*
X149500000Y-103742500D03*
X148050000Y-101900000D03*
X149800000Y-92000000D03*
X150050000Y-100900000D03*
X148750000Y-104742500D03*
X150800000Y-92000000D03*
X150250000Y-104742500D03*
X149800000Y-81500000D03*
X149800000Y-78500000D03*
X147800000Y-89500000D03*
X149500000Y-104742500D03*
X148750000Y-103742500D03*
X149050000Y-101900000D03*
X146800000Y-78500000D03*
X150800000Y-89500000D03*
X149500000Y-105742500D03*
X149800000Y-89500000D03*
X146800000Y-89500000D03*
X156600000Y-78000000D03*
X158600000Y-81000000D03*
X158600000Y-78000000D03*
X159500000Y-80000000D03*
X159500000Y-81000000D03*
X156600000Y-79000000D03*
X158600000Y-79000000D03*
X159500000Y-78000000D03*
X157600000Y-78000000D03*
X159500000Y-79000000D03*
X158600000Y-80000000D03*
X133400000Y-111500000D03*
X133050000Y-105900000D03*
X131800000Y-109500000D03*
X132050000Y-106650000D03*
X131050000Y-105900000D03*
X131700000Y-111500000D03*
X132050000Y-105150000D03*
X130800000Y-109500000D03*
X135675000Y-104562500D03*
X128050000Y-107400000D03*
X134175000Y-105562500D03*
X134925000Y-105562500D03*
X127800000Y-109500000D03*
X128800000Y-109500000D03*
X131050000Y-107400000D03*
X131050000Y-104400000D03*
X131050000Y-105150000D03*
X132800000Y-109500000D03*
X129800000Y-111500000D03*
X133050000Y-104400000D03*
X134925000Y-104562500D03*
X134175000Y-104562500D03*
X128050000Y-106650000D03*
X130050000Y-107400000D03*
X135675000Y-103562500D03*
X131050000Y-103650000D03*
X130050000Y-106650000D03*
X133050000Y-106650000D03*
X135675000Y-105562500D03*
X132050000Y-103650000D03*
X129800000Y-109500000D03*
X134175000Y-103562500D03*
X133050000Y-103650000D03*
X131050000Y-106650000D03*
X129050000Y-107400000D03*
X133050000Y-105150000D03*
X128800000Y-111500000D03*
X132050000Y-107400000D03*
X130800000Y-111500000D03*
X132050000Y-104400000D03*
X134925000Y-103562500D03*
X127800000Y-111500000D03*
X129050000Y-106650000D03*
X132050000Y-105900000D03*
X133050000Y-107400000D03*
X129800000Y-115500000D03*
X131800000Y-117500000D03*
X131800000Y-115500000D03*
X146300000Y-118000000D03*
X133400000Y-115500000D03*
X133800000Y-117500000D03*
X137300000Y-118000000D03*
X144300000Y-118000000D03*
X128800000Y-120400000D03*
X127800000Y-118900000D03*
X128800000Y-117500000D03*
X149300000Y-122000000D03*
X138300000Y-122000000D03*
X131800000Y-118900000D03*
X132800000Y-118900000D03*
X145300000Y-122000000D03*
X137300000Y-122000000D03*
X138300000Y-118000000D03*
X146300000Y-122000000D03*
X129800000Y-118900000D03*
X129800000Y-120400000D03*
X143300000Y-122000000D03*
X140300000Y-118000000D03*
X147300000Y-118000000D03*
X128800000Y-115500000D03*
X127800000Y-117500000D03*
X140300000Y-122000000D03*
X133800000Y-120400000D03*
X139300000Y-118000000D03*
X130800000Y-115500000D03*
X132800000Y-117500000D03*
X130800000Y-118900000D03*
X141300000Y-122000000D03*
X130800000Y-120400000D03*
X149300000Y-118000000D03*
X142300000Y-118000000D03*
X148300000Y-118000000D03*
X148300000Y-122000000D03*
X144300000Y-122000000D03*
X128800000Y-118900000D03*
X147300000Y-122000000D03*
X127800000Y-115500000D03*
X134300000Y-115500000D03*
X132800000Y-120400000D03*
X130800000Y-117500000D03*
X141300000Y-118000000D03*
X145300000Y-118000000D03*
X131800000Y-120400000D03*
X139300000Y-122000000D03*
X142300000Y-122000000D03*
X143300000Y-118000000D03*
X133800000Y-118900000D03*
X129800000Y-117500000D03*
D16*
X138900000Y-95400000D02*
X138423793Y-95876207D01*
X138760000Y-89260000D02*
X138900000Y-89400000D01*
X138760000Y-88980000D02*
X138760000Y-89260000D01*
X138900000Y-89400000D02*
X138900000Y-95400000D01*
X138423793Y-95876207D02*
X138423793Y-97735633D01*
D17*
X147550000Y-103150000D02*
X147550000Y-106150000D01*
X140004516Y-98604516D02*
X141800000Y-100400000D01*
X144800000Y-100400000D02*
X147550000Y-103150000D01*
X141800000Y-100400000D02*
X144800000Y-100400000D01*
X140004516Y-98240889D02*
X140004516Y-98604516D01*
X139300000Y-98650000D02*
X139300000Y-100650000D01*
X139300000Y-100650000D02*
X139800000Y-101150000D01*
X139800000Y-102900000D02*
X140550000Y-103650000D01*
X140550000Y-103650000D02*
X140550000Y-106150000D01*
X139800000Y-101150000D02*
X139800000Y-102900000D01*
X137583056Y-97853804D02*
X137460773Y-97731521D01*
X137583056Y-100116944D02*
X137583056Y-97853804D01*
X136800000Y-102900000D02*
X136800000Y-100900000D01*
X136800000Y-100900000D02*
X137583056Y-100116944D01*
X135050000Y-100650000D02*
X134550000Y-100650000D01*
X136799999Y-98900001D02*
X135050000Y-100650000D01*
X134550000Y-100650000D02*
X132300000Y-102900000D01*
X136799999Y-98253184D02*
X136799999Y-98900001D01*
X132300000Y-102900000D02*
X130300000Y-102900000D01*
X130300000Y-102900000D02*
X130050000Y-103150000D01*
G04 #@! TA.AperFunction,Conductor*
G36*
X159743039Y-68419685D02*
G01*
X159788794Y-68472489D01*
X159800000Y-68524000D01*
X159800000Y-83076000D01*
X159780315Y-83143039D01*
X159727511Y-83188794D01*
X159676000Y-83200000D01*
X155924000Y-83200000D01*
X155915314Y-83197449D01*
X155906353Y-83198738D01*
X155882312Y-83187759D01*
X155856961Y-83180315D01*
X155851033Y-83173474D01*
X155842797Y-83169713D01*
X155828507Y-83147478D01*
X155811206Y-83127511D01*
X155808918Y-83116996D01*
X155805023Y-83110935D01*
X155800000Y-83076000D01*
X155800000Y-83070951D01*
X155819685Y-83003912D01*
X155872489Y-82958157D01*
X155891901Y-82951178D01*
X156008637Y-82919899D01*
X156146663Y-82840209D01*
X156259360Y-82727512D01*
X156339050Y-82589486D01*
X156380300Y-82435538D01*
X156380300Y-82276160D01*
X156339050Y-82122212D01*
X156259360Y-81984186D01*
X156146663Y-81871489D01*
X156008637Y-81791799D01*
X155917591Y-81767403D01*
X155891906Y-81760521D01*
X155832246Y-81724155D01*
X155801717Y-81661308D01*
X155800000Y-81640746D01*
X155800000Y-68524000D01*
X155819685Y-68456961D01*
X155872489Y-68411206D01*
X155924000Y-68400000D01*
X159676000Y-68400000D01*
X159743039Y-68419685D01*
G37*
G04 #@! TD.AperFunction*
G04 #@! TA.AperFunction,Conductor*
G36*
X153743039Y-76419685D02*
G01*
X153788794Y-76472489D01*
X153800000Y-76524000D01*
X153800000Y-94102136D01*
X153780315Y-94169175D01*
X153767842Y-94185449D01*
X152500000Y-95583073D01*
X152500000Y-106126000D01*
X152480315Y-106193039D01*
X152427511Y-106238794D01*
X152376000Y-106250000D01*
X148519000Y-106250000D01*
X148451961Y-106230315D01*
X148406206Y-106177511D01*
X148395000Y-106126000D01*
X148395000Y-103050000D01*
X148193243Y-103050000D01*
X148126204Y-103030315D01*
X148080449Y-102977511D01*
X148073468Y-102958093D01*
X148067457Y-102935660D01*
X148057662Y-102918694D01*
X147994351Y-102809038D01*
X147890962Y-102705649D01*
X145481319Y-100296006D01*
X145447834Y-100234683D01*
X145445000Y-100208325D01*
X145445000Y-76622137D01*
X145464685Y-76555098D01*
X145517489Y-76509343D01*
X145567122Y-76498151D01*
X152049075Y-76400013D01*
X152050952Y-76400000D01*
X153676000Y-76400000D01*
X153743039Y-76419685D01*
G37*
G04 #@! TD.AperFunction*
G04 #@! TA.AperFunction,Conductor*
G36*
X170043039Y-68445599D02*
G01*
X170088794Y-68498403D01*
X170100000Y-68549914D01*
X170100000Y-86551914D01*
X170080315Y-86618953D01*
X170027511Y-86664708D01*
X169976000Y-86675914D01*
X164974000Y-86675914D01*
X164906961Y-86656229D01*
X164861206Y-86603425D01*
X164850000Y-86551914D01*
X164850000Y-68549914D01*
X164869685Y-68482875D01*
X164922489Y-68437120D01*
X164974000Y-68425914D01*
X169976000Y-68425914D01*
X170043039Y-68445599D01*
G37*
G04 #@! TD.AperFunction*
G04 #@! TA.AperFunction,Conductor*
G36*
X135148039Y-69019685D02*
G01*
X135193794Y-69072489D01*
X135205000Y-69124000D01*
X135205000Y-73778792D01*
X135185315Y-73845831D01*
X135132511Y-73891586D01*
X135080876Y-73902792D01*
X132307664Y-73900007D01*
X132300000Y-73900000D01*
X132299999Y-73900000D01*
X132265805Y-93800971D01*
X132246005Y-93867977D01*
X132193123Y-93913641D01*
X132173900Y-93920533D01*
X132116361Y-93935950D01*
X131978337Y-94015640D01*
X131978334Y-94015642D01*
X131865642Y-94128334D01*
X131865640Y-94128337D01*
X131785950Y-94266361D01*
X131744700Y-94420311D01*
X131744700Y-94579688D01*
X131785950Y-94733638D01*
X131825795Y-94802650D01*
X131865640Y-94871663D01*
X131978337Y-94984360D01*
X132116363Y-95064050D01*
X132171498Y-95078823D01*
X132231156Y-95115186D01*
X132261686Y-95178033D01*
X132263403Y-95198810D01*
X132251525Y-102112012D01*
X132242856Y-102141347D01*
X132236357Y-102171225D01*
X132232508Y-102176366D01*
X132231725Y-102179018D01*
X132215207Y-102199480D01*
X132106304Y-102308382D01*
X132044984Y-102341866D01*
X132018625Y-102344700D01*
X130226893Y-102344700D01*
X130085660Y-102382542D01*
X129959038Y-102455649D01*
X129959034Y-102455652D01*
X129854924Y-102559760D01*
X129822958Y-102581123D01*
X129823400Y-102581887D01*
X129678340Y-102665637D01*
X129678334Y-102665642D01*
X129565642Y-102778334D01*
X129565640Y-102778337D01*
X129485949Y-102916363D01*
X129477094Y-102949409D01*
X129477095Y-102949410D01*
X129463539Y-103000000D01*
X129450000Y-103000000D01*
X129450000Y-103050529D01*
X129447740Y-103058965D01*
X129444700Y-103070311D01*
X129444700Y-103229689D01*
X129445774Y-103233699D01*
X129450000Y-103265792D01*
X129450000Y-105876000D01*
X129430315Y-105943039D01*
X129377511Y-105988794D01*
X129326000Y-106000000D01*
X125754520Y-106000000D01*
X125687481Y-105980315D01*
X125641726Y-105927511D01*
X125630520Y-105876216D01*
X125630279Y-105738117D01*
X125630104Y-105637456D01*
X125629896Y-105626647D01*
X125629575Y-105617876D01*
X125610218Y-105520785D01*
X125585407Y-105454265D01*
X125557804Y-105398244D01*
X125534031Y-105372386D01*
X125503151Y-105309712D01*
X125501318Y-105288246D01*
X125503693Y-104005475D01*
X125523502Y-103938474D01*
X125537321Y-103920802D01*
X125542848Y-103914921D01*
X125594358Y-103813182D01*
X125614242Y-103745027D01*
X125626660Y-103657582D01*
X125624789Y-102581687D01*
X125644356Y-102514619D01*
X125666413Y-102490604D01*
X125665916Y-102490107D01*
X125721339Y-102434684D01*
X125784360Y-102371663D01*
X125864050Y-102233637D01*
X125905300Y-102079689D01*
X125905300Y-101920311D01*
X125864050Y-101766363D01*
X125784360Y-101628337D01*
X125743704Y-101587681D01*
X125710219Y-101526358D01*
X125715203Y-101456666D01*
X125743704Y-101412319D01*
X125784360Y-101371663D01*
X125864050Y-101233637D01*
X125905300Y-101079689D01*
X125905300Y-100920311D01*
X125864050Y-100766363D01*
X125784360Y-100628337D01*
X125743704Y-100587681D01*
X125710219Y-100526358D01*
X125715203Y-100456666D01*
X125743704Y-100412319D01*
X125784360Y-100371663D01*
X125864050Y-100233637D01*
X125905300Y-100079689D01*
X125905300Y-99920311D01*
X125864050Y-99766363D01*
X125784360Y-99628337D01*
X125671663Y-99515640D01*
X125667789Y-99512667D01*
X125626590Y-99456237D01*
X125619282Y-99414512D01*
X125618215Y-98801119D01*
X125610518Y-94375239D01*
X125603370Y-94309560D01*
X125591985Y-94257439D01*
X125580912Y-94218892D01*
X125539026Y-94147271D01*
X125522065Y-94084447D01*
X125550000Y-79000000D01*
X125541749Y-78999971D01*
X123423568Y-78992584D01*
X123356597Y-78972666D01*
X123311027Y-78919703D01*
X123300000Y-78868585D01*
X123300000Y-73874000D01*
X123319685Y-73806961D01*
X123372489Y-73761206D01*
X123424000Y-73750000D01*
X125500000Y-73750000D01*
X125500000Y-69124000D01*
X125519685Y-69056961D01*
X125572489Y-69011206D01*
X125624000Y-69000000D01*
X135081000Y-69000000D01*
X135148039Y-69019685D01*
G37*
G04 #@! TD.AperFunction*
G04 #@! TA.AperFunction,Conductor*
G36*
X134234664Y-103166880D02*
G01*
X134316363Y-103214050D01*
X134470311Y-103255300D01*
X134470313Y-103255300D01*
X134629687Y-103255300D01*
X134629689Y-103255300D01*
X134783637Y-103214050D01*
X134862002Y-103168805D01*
X134930994Y-103152068D01*
X134987996Y-103168804D01*
X135066363Y-103214050D01*
X135220311Y-103255300D01*
X135220313Y-103255300D01*
X135379687Y-103255300D01*
X135379689Y-103255300D01*
X135533637Y-103214050D01*
X135612002Y-103168805D01*
X135680994Y-103152068D01*
X135737996Y-103168804D01*
X135816363Y-103214050D01*
X135956614Y-103251629D01*
X136017233Y-103288579D01*
X136048255Y-103352440D01*
X136050000Y-103373335D01*
X136050000Y-106463700D01*
X136029998Y-106531821D01*
X135976342Y-106578314D01*
X135954322Y-106585997D01*
X135939387Y-106589700D01*
X135924000Y-106589700D01*
X135858038Y-106596792D01*
X135806527Y-106607998D01*
X135767722Y-106619127D01*
X135728735Y-106641928D01*
X135711115Y-106646297D01*
X135696721Y-106645683D01*
X135680793Y-106650000D01*
X134550000Y-106650000D01*
X134598828Y-111972320D01*
X134579451Y-112040621D01*
X134526225Y-112087605D01*
X134472315Y-112099475D01*
X126874407Y-112068266D01*
X126806369Y-112047984D01*
X126760097Y-111994138D01*
X126748930Y-111943353D01*
X126701610Y-106437381D01*
X126721026Y-106369093D01*
X126774280Y-106322140D01*
X126827605Y-106310300D01*
X129325995Y-106310300D01*
X129326000Y-106310300D01*
X129391962Y-106303208D01*
X129443473Y-106292002D01*
X129482278Y-106280873D01*
X129490364Y-106276143D01*
X129505596Y-106267236D01*
X129569207Y-106250000D01*
X129800000Y-106250000D01*
X129800000Y-103873871D01*
X129820002Y-103805750D01*
X129873658Y-103759257D01*
X129943932Y-103749153D01*
X129958600Y-103752162D01*
X129970311Y-103755300D01*
X129970313Y-103755300D01*
X130129687Y-103755300D01*
X130129689Y-103755300D01*
X130283637Y-103714050D01*
X130421663Y-103634360D01*
X130534360Y-103521663D01*
X130534462Y-103521486D01*
X130536303Y-103518299D01*
X130538679Y-103516033D01*
X130539387Y-103515111D01*
X130539530Y-103515221D01*
X130587686Y-103469306D01*
X130645421Y-103455300D01*
X132373105Y-103455300D01*
X132373107Y-103455300D01*
X132514338Y-103417458D01*
X132640962Y-103344351D01*
X132798409Y-103186903D01*
X132860719Y-103152880D01*
X132887503Y-103150000D01*
X134171665Y-103150000D01*
X134234664Y-103166880D01*
G37*
G04 #@! TD.AperFunction*
G04 #@! TA.AperFunction,Conductor*
G36*
X142484199Y-103166612D02*
G01*
X142566363Y-103214050D01*
X142720311Y-103255300D01*
X142720313Y-103255300D01*
X142879687Y-103255300D01*
X142879689Y-103255300D01*
X143033637Y-103214050D01*
X143115800Y-103166612D01*
X143177800Y-103150000D01*
X145138454Y-103150000D01*
X145205493Y-103169685D01*
X145232166Y-103192796D01*
X145267452Y-103233518D01*
X145312888Y-103276359D01*
X145414537Y-103328045D01*
X145481576Y-103347730D01*
X145569000Y-103360300D01*
X145569003Y-103360300D01*
X146365330Y-103360300D01*
X146366169Y-103360284D01*
X146376403Y-103360102D01*
X146385249Y-103359786D01*
X146482610Y-103340419D01*
X146548074Y-103316002D01*
X146604090Y-103288403D01*
X146672347Y-103225653D01*
X146678106Y-103222815D01*
X146681956Y-103217674D01*
X146709062Y-103207563D01*
X146735019Y-103194775D01*
X146741401Y-103195501D01*
X146747420Y-103193257D01*
X146775689Y-103199406D01*
X146804440Y-103202681D01*
X146810986Y-103207085D01*
X146815693Y-103208109D01*
X146843947Y-103229260D01*
X146958381Y-103343694D01*
X146991866Y-103405017D01*
X146994700Y-103431375D01*
X146994700Y-105870574D01*
X146987199Y-105908285D01*
X146988054Y-105908514D01*
X146985951Y-105916360D01*
X146985950Y-105916363D01*
X146944700Y-106070311D01*
X146944700Y-106070313D01*
X146944700Y-106229688D01*
X146985950Y-106383638D01*
X147011065Y-106427137D01*
X147065640Y-106521663D01*
X147178337Y-106634360D01*
X147316363Y-106714050D01*
X147470311Y-106755300D01*
X147470313Y-106755300D01*
X147629687Y-106755300D01*
X147629689Y-106755300D01*
X147783637Y-106714050D01*
X147921663Y-106634360D01*
X148034360Y-106521663D01*
X148053462Y-106488576D01*
X148104027Y-106440361D01*
X148172634Y-106427137D01*
X148237499Y-106453104D01*
X148245911Y-106460352D01*
X148262888Y-106476359D01*
X148364537Y-106528045D01*
X148431576Y-106547730D01*
X148519000Y-106560300D01*
X148519003Y-106560300D01*
X151676000Y-106560300D01*
X151743039Y-106579985D01*
X151788794Y-106632789D01*
X151800000Y-106684300D01*
X151800000Y-112026000D01*
X151780315Y-112093039D01*
X151727511Y-112138794D01*
X151676000Y-112150000D01*
X135924000Y-112150000D01*
X135856961Y-112130315D01*
X135811206Y-112077511D01*
X135800000Y-112026000D01*
X135800000Y-107024000D01*
X135819685Y-106956961D01*
X135872489Y-106911206D01*
X135924000Y-106900000D01*
X137172200Y-106900000D01*
X137234199Y-106916612D01*
X137291628Y-106949769D01*
X137316359Y-106964048D01*
X137316363Y-106964050D01*
X137470311Y-107005300D01*
X137470313Y-107005300D01*
X137629687Y-107005300D01*
X137629689Y-107005300D01*
X137783637Y-106964050D01*
X137862999Y-106918230D01*
X137930899Y-106901756D01*
X137987001Y-106918230D01*
X138066357Y-106964047D01*
X138066358Y-106964047D01*
X138066363Y-106964050D01*
X138220311Y-107005300D01*
X138220313Y-107005300D01*
X138379687Y-107005300D01*
X138379689Y-107005300D01*
X138533637Y-106964050D01*
X138612999Y-106918230D01*
X138680899Y-106901756D01*
X138737001Y-106918230D01*
X138816357Y-106964047D01*
X138816358Y-106964047D01*
X138816363Y-106964050D01*
X138970311Y-107005300D01*
X138970313Y-107005300D01*
X139129687Y-107005300D01*
X139129689Y-107005300D01*
X139283637Y-106964050D01*
X139362999Y-106918230D01*
X139430899Y-106901756D01*
X139487001Y-106918230D01*
X139566357Y-106964047D01*
X139566358Y-106964047D01*
X139566363Y-106964050D01*
X139720311Y-107005300D01*
X139720313Y-107005300D01*
X139879687Y-107005300D01*
X139879689Y-107005300D01*
X140033637Y-106964050D01*
X140115800Y-106916612D01*
X140177800Y-106900000D01*
X141300000Y-106900000D01*
X141300000Y-103371800D01*
X141319685Y-103304761D01*
X141372489Y-103259006D01*
X141391893Y-103252029D01*
X141533637Y-103214050D01*
X141615800Y-103166612D01*
X141677800Y-103150000D01*
X142422200Y-103150000D01*
X142484199Y-103166612D01*
G37*
G04 #@! TD.AperFunction*
G04 #@! TA.AperFunction,Conductor*
G36*
X164796203Y-67945502D02*
G01*
X164842696Y-67999158D01*
X164852800Y-68069432D01*
X164823306Y-68134012D01*
X164791693Y-68160263D01*
X164763605Y-68176691D01*
X164719287Y-68202610D01*
X164666487Y-68248361D01*
X164666484Y-68248364D01*
X164623639Y-68293804D01*
X164571955Y-68395447D01*
X164571955Y-68395448D01*
X164552271Y-68462484D01*
X164552267Y-68462501D01*
X164539700Y-68549907D01*
X164539700Y-86551921D01*
X164546792Y-86617880D01*
X164551458Y-86639326D01*
X164557998Y-86669387D01*
X164569127Y-86708192D01*
X164572736Y-86714362D01*
X164626695Y-86806626D01*
X164649997Y-86833518D01*
X164672452Y-86859432D01*
X164717888Y-86902273D01*
X164717890Y-86902274D01*
X164819534Y-86953958D01*
X164819536Y-86953958D01*
X164819537Y-86953959D01*
X164886576Y-86973644D01*
X164886582Y-86973644D01*
X164886587Y-86973646D01*
X164973993Y-86986213D01*
X164973998Y-86986214D01*
X164974000Y-86986214D01*
X169975995Y-86986214D01*
X169976000Y-86986214D01*
X170041962Y-86979122D01*
X170093473Y-86967916D01*
X170132278Y-86956787D01*
X170230714Y-86899217D01*
X170283518Y-86853462D01*
X170326359Y-86808026D01*
X170352202Y-86757201D01*
X170378044Y-86706380D01*
X170378044Y-86706379D01*
X170381484Y-86694664D01*
X170397730Y-86639338D01*
X170410300Y-86551914D01*
X170410300Y-68549914D01*
X170403208Y-68483952D01*
X170392002Y-68432441D01*
X170380873Y-68393636D01*
X170323303Y-68295200D01*
X170277548Y-68242396D01*
X170232112Y-68199555D01*
X170232110Y-68199554D01*
X170232109Y-68199553D01*
X170161823Y-68163814D01*
X170110167Y-68115109D01*
X170093043Y-68046209D01*
X170115888Y-67978988D01*
X170171449Y-67934789D01*
X170218932Y-67925500D01*
X190148500Y-67925500D01*
X190216621Y-67945502D01*
X190263114Y-67999158D01*
X190274500Y-68051500D01*
X190274500Y-124748500D01*
X190254498Y-124816621D01*
X190200842Y-124863114D01*
X190148500Y-124874500D01*
X177951500Y-124874500D01*
X177883379Y-124854498D01*
X177836886Y-124800842D01*
X177825500Y-124748500D01*
X177825500Y-113889438D01*
X177825499Y-113889436D01*
X177810563Y-113874500D01*
X177810562Y-113874500D01*
X155810562Y-113874500D01*
X155789438Y-113874500D01*
X155789436Y-113874500D01*
X155774500Y-113889436D01*
X155774500Y-124748500D01*
X155754498Y-124816621D01*
X155700842Y-124863114D01*
X155648500Y-124874500D01*
X124926000Y-124874500D01*
X124857879Y-124854498D01*
X124811386Y-124800842D01*
X124800000Y-124748500D01*
X124800000Y-124436300D01*
X124820002Y-124368179D01*
X124873658Y-124321686D01*
X124926000Y-124310300D01*
X125225523Y-124310300D01*
X125225523Y-124310299D01*
X125276840Y-124304759D01*
X125291726Y-124303153D01*
X125291732Y-124303152D01*
X125291743Y-124303151D01*
X125344285Y-124291673D01*
X125383337Y-124280418D01*
X125481673Y-124222676D01*
X125503734Y-124203492D01*
X125535236Y-124176100D01*
X125535239Y-124176096D01*
X125535247Y-124176090D01*
X125578007Y-124130581D01*
X125629517Y-124028842D01*
X125649401Y-123960687D01*
X125661819Y-123873241D01*
X125660994Y-123399440D01*
X125680878Y-123331286D01*
X125734452Y-123284700D01*
X125804708Y-123274473D01*
X125822486Y-123278324D01*
X125888579Y-123297731D01*
X125976000Y-123310300D01*
X125976003Y-123310300D01*
X151723996Y-123310300D01*
X151724000Y-123310300D01*
X151789957Y-123303209D01*
X151842299Y-123291823D01*
X151881108Y-123280693D01*
X151979545Y-123223124D01*
X152033201Y-123176631D01*
X152076044Y-123131192D01*
X152127729Y-123029542D01*
X152147731Y-122961421D01*
X152160300Y-122874000D01*
X152160300Y-121649616D01*
X152524500Y-121649616D01*
X152524500Y-121653927D01*
X152524500Y-121850384D01*
X152555907Y-122048680D01*
X152617948Y-122239622D01*
X152709095Y-122418508D01*
X152827103Y-122580932D01*
X152827105Y-122580934D01*
X152827107Y-122580937D01*
X152969062Y-122722892D01*
X152969065Y-122722894D01*
X152969068Y-122722897D01*
X153131492Y-122840905D01*
X153310378Y-122932052D01*
X153501320Y-122994093D01*
X153699616Y-123025500D01*
X153699619Y-123025500D01*
X153900381Y-123025500D01*
X153900384Y-123025500D01*
X154098680Y-122994093D01*
X154289622Y-122932052D01*
X154468508Y-122840905D01*
X154630932Y-122722897D01*
X154772897Y-122580932D01*
X154890905Y-122418508D01*
X154982052Y-122239622D01*
X155044093Y-122048680D01*
X155075500Y-121850384D01*
X155075500Y-121649616D01*
X155044093Y-121451320D01*
X154982052Y-121260378D01*
X154890905Y-121081492D01*
X154772897Y-120919068D01*
X154772894Y-120919065D01*
X154772892Y-120919062D01*
X154630937Y-120777107D01*
X154630934Y-120777105D01*
X154630932Y-120777103D01*
X154468508Y-120659095D01*
X154289622Y-120567948D01*
X154098680Y-120505907D01*
X153900384Y-120474500D01*
X153699616Y-120474500D01*
X153501320Y-120505907D01*
X153501317Y-120505907D01*
X153501316Y-120505908D01*
X153310378Y-120567948D01*
X153310376Y-120567949D01*
X153131488Y-120659097D01*
X152969065Y-120777105D01*
X152969062Y-120777107D01*
X152827107Y-120919062D01*
X152827105Y-120919065D01*
X152709097Y-121081488D01*
X152709095Y-121081492D01*
X152617948Y-121260378D01*
X152555907Y-121451320D01*
X152524500Y-121649616D01*
X152160300Y-121649616D01*
X152160300Y-117126000D01*
X152153209Y-117060043D01*
X152141823Y-117007701D01*
X152130693Y-116968892D01*
X152073124Y-116870455D01*
X152026631Y-116816799D01*
X151981192Y-116773956D01*
X151981191Y-116773955D01*
X151932859Y-116749380D01*
X151879542Y-116722271D01*
X151879539Y-116722270D01*
X151879537Y-116722269D01*
X151811429Y-116702271D01*
X151811424Y-116702269D01*
X151811421Y-116702269D01*
X151724000Y-116689700D01*
X151723997Y-116689700D01*
X135236300Y-116689700D01*
X135168179Y-116669698D01*
X135121686Y-116616042D01*
X135110300Y-116563700D01*
X135110300Y-115124600D01*
X135103572Y-115060332D01*
X135092765Y-115009285D01*
X135092758Y-115009254D01*
X135082423Y-114972047D01*
X135082423Y-114972045D01*
X135082422Y-114972044D01*
X135082422Y-114972042D01*
X135025956Y-114872969D01*
X134980066Y-114818798D01*
X134935112Y-114775454D01*
X134935107Y-114775451D01*
X134834048Y-114722635D01*
X134834044Y-114722633D01*
X134766167Y-114701875D01*
X134766155Y-114701872D01*
X134698522Y-114691375D01*
X134678878Y-114688326D01*
X134678876Y-114688325D01*
X134678871Y-114688325D01*
X131077001Y-114648081D01*
X131009108Y-114627319D01*
X130963218Y-114573147D01*
X130953900Y-114502765D01*
X130984112Y-114438518D01*
X131015409Y-114412970D01*
X131021663Y-114409360D01*
X131134360Y-114296663D01*
X131214050Y-114158637D01*
X131255300Y-114004689D01*
X131255300Y-113845311D01*
X131214050Y-113691363D01*
X131139939Y-113563000D01*
X131123201Y-113494005D01*
X131139939Y-113437000D01*
X131141894Y-113433612D01*
X131214050Y-113308637D01*
X131255300Y-113154689D01*
X131255300Y-112995311D01*
X131214050Y-112841363D01*
X131144119Y-112720240D01*
X131134362Y-112703340D01*
X131134354Y-112703330D01*
X131042173Y-112611149D01*
X131008147Y-112548837D01*
X131013212Y-112478022D01*
X131055759Y-112421186D01*
X131122279Y-112396375D01*
X131131766Y-112396055D01*
X134471040Y-112409772D01*
X134539039Y-112402516D01*
X134592949Y-112390646D01*
X134633672Y-112378708D01*
X134731575Y-112320237D01*
X134784801Y-112273253D01*
X134827218Y-112227430D01*
X134877970Y-112125311D01*
X134897347Y-112057010D01*
X134909115Y-111969473D01*
X134873430Y-108079758D01*
X134864327Y-107087456D01*
X134883704Y-107019155D01*
X134936930Y-106972171D01*
X134990322Y-106960300D01*
X135363700Y-106960300D01*
X135431821Y-106980302D01*
X135478314Y-107033958D01*
X135489700Y-107086300D01*
X135489700Y-112026007D01*
X135496792Y-112091966D01*
X135501458Y-112113412D01*
X135507998Y-112143473D01*
X135519127Y-112182278D01*
X135519128Y-112182279D01*
X135576695Y-112280712D01*
X135602906Y-112310961D01*
X135622452Y-112333518D01*
X135667888Y-112376359D01*
X135667890Y-112376360D01*
X135769534Y-112428044D01*
X135769536Y-112428044D01*
X135769537Y-112428045D01*
X135836576Y-112447730D01*
X135836582Y-112447730D01*
X135836587Y-112447732D01*
X135923993Y-112460299D01*
X135923998Y-112460300D01*
X135924000Y-112460300D01*
X151675995Y-112460300D01*
X151676000Y-112460300D01*
X151741962Y-112453208D01*
X151793473Y-112442002D01*
X151832278Y-112430873D01*
X151930714Y-112373303D01*
X151983518Y-112327548D01*
X152026359Y-112282112D01*
X152077122Y-112182279D01*
X152078044Y-112180466D01*
X152078044Y-112180465D01*
X152088904Y-112143481D01*
X152097730Y-112113424D01*
X152110300Y-112026000D01*
X152110300Y-106686300D01*
X152130302Y-106618179D01*
X152183958Y-106571686D01*
X152236300Y-106560300D01*
X152375995Y-106560300D01*
X152376000Y-106560300D01*
X152441962Y-106553208D01*
X152493473Y-106542002D01*
X152532278Y-106530873D01*
X152630714Y-106473303D01*
X152683518Y-106427548D01*
X152726359Y-106382112D01*
X152762874Y-106310300D01*
X152778044Y-106280466D01*
X152778044Y-106280465D01*
X152792954Y-106229689D01*
X152797730Y-106213424D01*
X152810300Y-106126000D01*
X152810300Y-105754834D01*
X152830302Y-105686713D01*
X152883958Y-105640220D01*
X152954232Y-105630116D01*
X153010360Y-105652897D01*
X153131492Y-105740905D01*
X153310378Y-105832052D01*
X153501320Y-105894093D01*
X153699616Y-105925500D01*
X153699619Y-105925500D01*
X153900381Y-105925500D01*
X153900384Y-105925500D01*
X154098680Y-105894093D01*
X154289622Y-105832052D01*
X154468508Y-105740905D01*
X154630932Y-105622897D01*
X154772897Y-105480932D01*
X154890905Y-105318508D01*
X154982052Y-105139622D01*
X155044093Y-104948680D01*
X155075500Y-104750384D01*
X155075500Y-104549616D01*
X155044093Y-104351320D01*
X154982052Y-104160378D01*
X154890905Y-103981492D01*
X154772897Y-103819068D01*
X154772894Y-103819065D01*
X154772892Y-103819062D01*
X154630937Y-103677107D01*
X154630934Y-103677105D01*
X154630932Y-103677103D01*
X154508668Y-103588273D01*
X154468511Y-103559097D01*
X154468510Y-103559096D01*
X154468508Y-103559095D01*
X154289622Y-103467948D01*
X154098680Y-103405907D01*
X153900384Y-103374500D01*
X153699616Y-103374500D01*
X153501320Y-103405907D01*
X153501317Y-103405907D01*
X153501316Y-103405908D01*
X153310378Y-103467948D01*
X153310376Y-103467949D01*
X153131488Y-103559097D01*
X153010361Y-103647101D01*
X152943493Y-103670960D01*
X152874341Y-103654879D01*
X152824861Y-103603965D01*
X152810300Y-103545165D01*
X152810300Y-95751481D01*
X152830302Y-95683360D01*
X152842977Y-95666824D01*
X152965389Y-95531881D01*
X153997668Y-94393934D01*
X154014125Y-94374210D01*
X154026598Y-94357936D01*
X154078045Y-94256599D01*
X154097730Y-94189560D01*
X154110300Y-94102136D01*
X154110300Y-82611111D01*
X154130302Y-82542990D01*
X154183958Y-82496497D01*
X154254232Y-82486393D01*
X154318812Y-82515887D01*
X154357196Y-82575613D01*
X154358007Y-82578501D01*
X154360949Y-82589482D01*
X154360952Y-82589490D01*
X154440637Y-82727508D01*
X154440645Y-82727518D01*
X154553330Y-82840203D01*
X154553335Y-82840207D01*
X154553337Y-82840209D01*
X154553338Y-82840210D01*
X154553340Y-82840211D01*
X154562998Y-82845787D01*
X154691363Y-82919899D01*
X154845311Y-82961149D01*
X154845313Y-82961149D01*
X155004687Y-82961149D01*
X155004689Y-82961149D01*
X155158637Y-82919899D01*
X155287001Y-82845787D01*
X155298851Y-82842912D01*
X155308786Y-82835838D01*
X155332714Y-82834697D01*
X155355994Y-82829050D01*
X155369290Y-82832954D01*
X155379702Y-82832458D01*
X155412997Y-82845787D01*
X155439857Y-82861294D01*
X155488851Y-82912675D01*
X155502289Y-82982389D01*
X155501577Y-82988345D01*
X155489700Y-83070951D01*
X155489700Y-83076000D01*
X155491435Y-83100251D01*
X155492860Y-83120176D01*
X155497881Y-83155095D01*
X155501005Y-83173061D01*
X155501006Y-83173062D01*
X155506489Y-83186540D01*
X155508001Y-83193487D01*
X155519126Y-83232274D01*
X155538738Y-83265810D01*
X155543979Y-83278691D01*
X155543980Y-83278693D01*
X155563145Y-83308515D01*
X155563149Y-83308520D01*
X155568037Y-83316127D01*
X155570798Y-83320630D01*
X155576692Y-83330708D01*
X155578976Y-83333896D01*
X155581340Y-83336894D01*
X155581754Y-83337472D01*
X155581758Y-83337477D01*
X155620640Y-83386352D01*
X155620641Y-83386353D01*
X155620643Y-83386355D01*
X155632252Y-83394523D01*
X155639625Y-83399711D01*
X155667888Y-83426358D01*
X155702526Y-83443971D01*
X155713901Y-83451975D01*
X155713909Y-83451979D01*
X155713980Y-83452019D01*
X155753410Y-83470019D01*
X155756766Y-83471551D01*
X155769536Y-83478045D01*
X155773593Y-83479236D01*
X155777451Y-83480998D01*
X155836599Y-83501096D01*
X155857330Y-83501965D01*
X155863276Y-83502215D01*
X155875931Y-83503386D01*
X155905507Y-83507640D01*
X155923999Y-83510300D01*
X155924000Y-83510300D01*
X159675995Y-83510300D01*
X159676000Y-83510300D01*
X159741962Y-83503208D01*
X159793473Y-83492002D01*
X159832278Y-83480873D01*
X159930714Y-83423303D01*
X159983518Y-83377548D01*
X160026359Y-83332112D01*
X160053522Y-83278691D01*
X160078044Y-83230466D01*
X160078044Y-83230465D01*
X160092811Y-83180176D01*
X160097730Y-83163424D01*
X160098928Y-83155096D01*
X160110299Y-83076006D01*
X160110300Y-83076002D01*
X160110300Y-68524004D01*
X160110299Y-68523992D01*
X160105994Y-68483952D01*
X160103208Y-68458038D01*
X160092002Y-68406527D01*
X160080873Y-68367722D01*
X160023303Y-68269286D01*
X159977548Y-68216482D01*
X159932112Y-68173641D01*
X159912786Y-68163814D01*
X159861131Y-68115109D01*
X159844007Y-68046208D01*
X159866852Y-67978988D01*
X159922413Y-67934789D01*
X159969896Y-67925500D01*
X164728082Y-67925500D01*
X164796203Y-67945502D01*
G37*
G04 #@! TD.AperFunction*
G04 #@! TA.AperFunction,Conductor*
G36*
X155701893Y-67945502D02*
G01*
X155748386Y-67999158D01*
X155758490Y-68069432D01*
X155728996Y-68134012D01*
X155697382Y-68160264D01*
X155669292Y-68176691D01*
X155669289Y-68176694D01*
X155616487Y-68222447D01*
X155616484Y-68222450D01*
X155573639Y-68267890D01*
X155521955Y-68369533D01*
X155521955Y-68369534D01*
X155502271Y-68436570D01*
X155502267Y-68436587D01*
X155489700Y-68523993D01*
X155489700Y-68524000D01*
X155489700Y-81640746D01*
X155490776Y-81666567D01*
X155490777Y-81666576D01*
X155492493Y-81687130D01*
X155498227Y-81708031D01*
X155497715Y-81736686D01*
X155500439Y-81765211D01*
X155497089Y-81771707D01*
X155496959Y-81779016D01*
X155481037Y-81802843D01*
X155467906Y-81828315D01*
X155459712Y-81834758D01*
X155457515Y-81838047D01*
X155439716Y-81850484D01*
X155412999Y-81865909D01*
X155344003Y-81882647D01*
X155286999Y-81865909D01*
X155158641Y-81791801D01*
X155158638Y-81791800D01*
X155158637Y-81791799D01*
X155158635Y-81791798D01*
X155158634Y-81791798D01*
X155110930Y-81779016D01*
X155004689Y-81750549D01*
X154845311Y-81750549D01*
X154766348Y-81771707D01*
X154691365Y-81791798D01*
X154691358Y-81791801D01*
X154553340Y-81871486D01*
X154553330Y-81871494D01*
X154440645Y-81984179D01*
X154440637Y-81984189D01*
X154360952Y-82122207D01*
X154360947Y-82122219D01*
X154358006Y-82133198D01*
X154321055Y-82193820D01*
X154257194Y-82224842D01*
X154186699Y-82216412D01*
X154131953Y-82171209D01*
X154110336Y-82103584D01*
X154110300Y-82100586D01*
X154110300Y-76524004D01*
X154110299Y-76523992D01*
X154109401Y-76515637D01*
X154103208Y-76458038D01*
X154092002Y-76406527D01*
X154080873Y-76367722D01*
X154023303Y-76269286D01*
X153977548Y-76216482D01*
X153932112Y-76173641D01*
X153932110Y-76173640D01*
X153932109Y-76173639D01*
X153830465Y-76121955D01*
X153763429Y-76102271D01*
X153763412Y-76102267D01*
X153676006Y-76089700D01*
X153676000Y-76089700D01*
X152050952Y-76089700D01*
X152050814Y-76089700D01*
X152048950Y-76089705D01*
X152047157Y-76089718D01*
X152046926Y-76089720D01*
X152045950Y-76089731D01*
X152044440Y-76089748D01*
X145562419Y-76187887D01*
X145562414Y-76187888D01*
X145498863Y-76195451D01*
X145449242Y-76206640D01*
X145449232Y-76206643D01*
X145412722Y-76217264D01*
X145412720Y-76217264D01*
X145412720Y-76217265D01*
X145314287Y-76274833D01*
X145261487Y-76320584D01*
X145261484Y-76320587D01*
X145218639Y-76366027D01*
X145166955Y-76467670D01*
X145166955Y-76467671D01*
X145147271Y-76534707D01*
X145147267Y-76534724D01*
X145134700Y-76622130D01*
X145134700Y-99750586D01*
X145114698Y-99818707D01*
X145061042Y-99865200D01*
X144990768Y-99875304D01*
X144976090Y-99872293D01*
X144873107Y-99844700D01*
X142082203Y-99844700D01*
X142014082Y-99824698D01*
X141993108Y-99807795D01*
X140639293Y-98453980D01*
X140605267Y-98391668D01*
X140606681Y-98332274D01*
X140609816Y-98320578D01*
X140609816Y-98161200D01*
X140568566Y-98007252D01*
X140510592Y-97906839D01*
X140488878Y-97869229D01*
X140488870Y-97869219D01*
X140376185Y-97756534D01*
X140376175Y-97756526D01*
X140238157Y-97676841D01*
X140238154Y-97676840D01*
X140238153Y-97676839D01*
X140238151Y-97676838D01*
X140238150Y-97676838D01*
X140196899Y-97665785D01*
X140084205Y-97635589D01*
X139924827Y-97635589D01*
X139848861Y-97655944D01*
X139770881Y-97676838D01*
X139770874Y-97676841D01*
X139632856Y-97756526D01*
X139632846Y-97756534D01*
X139520161Y-97869219D01*
X139520155Y-97869226D01*
X139455218Y-97981701D01*
X139450703Y-97986005D01*
X139448657Y-97991898D01*
X139425312Y-98010215D01*
X139403835Y-98030694D01*
X139396459Y-98032855D01*
X139392802Y-98035725D01*
X139374973Y-98039151D01*
X139357941Y-98044142D01*
X139352030Y-98044700D01*
X139220311Y-98044700D01*
X139148664Y-98063897D01*
X139138119Y-98064893D01*
X139113244Y-98060071D01*
X139087911Y-98059468D01*
X139078992Y-98053431D01*
X139068420Y-98051382D01*
X139050100Y-98033876D01*
X139029115Y-98019673D01*
X139024875Y-98009772D01*
X139017090Y-98002333D01*
X139011142Y-97977701D01*
X139001168Y-97954408D01*
X139002161Y-97940509D01*
X139000426Y-97933320D01*
X139003259Y-97925161D01*
X139004569Y-97906845D01*
X139029093Y-97815322D01*
X139029093Y-97655944D01*
X138987843Y-97501996D01*
X138916166Y-97377848D01*
X138908155Y-97363973D01*
X138908147Y-97363963D01*
X138890998Y-97346814D01*
X138856972Y-97284502D01*
X138854093Y-97257719D01*
X138854093Y-96106633D01*
X138874095Y-96038512D01*
X138890993Y-96017542D01*
X139244325Y-95664211D01*
X139300976Y-95566090D01*
X139330300Y-95456651D01*
X139330300Y-95343350D01*
X139330300Y-89343350D01*
X139317810Y-89296737D01*
X139319500Y-89225762D01*
X139323112Y-89215900D01*
X139324045Y-89213645D01*
X139324050Y-89213637D01*
X139365300Y-89059689D01*
X139365300Y-88900311D01*
X139324050Y-88746363D01*
X139244360Y-88608337D01*
X139244358Y-88608335D01*
X139244354Y-88608330D01*
X139131669Y-88495645D01*
X139131659Y-88495637D01*
X138993641Y-88415952D01*
X138993638Y-88415951D01*
X138993637Y-88415950D01*
X138993635Y-88415949D01*
X138993634Y-88415949D01*
X138952383Y-88404896D01*
X138839689Y-88374700D01*
X138680311Y-88374700D01*
X138597813Y-88396805D01*
X138526365Y-88415949D01*
X138526358Y-88415952D01*
X138388340Y-88495637D01*
X138388330Y-88495645D01*
X138275645Y-88608330D01*
X138275637Y-88608340D01*
X138195952Y-88746358D01*
X138195949Y-88746365D01*
X138171175Y-88838825D01*
X138154700Y-88900311D01*
X138154700Y-89059689D01*
X138174514Y-89133637D01*
X138195949Y-89213634D01*
X138195952Y-89213641D01*
X138275637Y-89351659D01*
X138275639Y-89351662D01*
X138275640Y-89351663D01*
X138359530Y-89435553D01*
X138379549Y-89461641D01*
X138400163Y-89497344D01*
X138415674Y-89524210D01*
X138432795Y-89541331D01*
X138466820Y-89603640D01*
X138469700Y-89630426D01*
X138469700Y-95169574D01*
X138449698Y-95237695D01*
X138432795Y-95258669D01*
X138159583Y-95531881D01*
X138125377Y-95566087D01*
X138079468Y-95611995D01*
X138079464Y-95612000D01*
X138022819Y-95710112D01*
X138022816Y-95710119D01*
X137993493Y-95819558D01*
X137993493Y-97121908D01*
X137973491Y-97190029D01*
X137919835Y-97236522D01*
X137849561Y-97246626D01*
X137804493Y-97231027D01*
X137694414Y-97167473D01*
X137694411Y-97167472D01*
X137694410Y-97167471D01*
X137694408Y-97167470D01*
X137694407Y-97167470D01*
X137653156Y-97156417D01*
X137540462Y-97126221D01*
X137381084Y-97126221D01*
X137298586Y-97148326D01*
X137227138Y-97167470D01*
X137227131Y-97167473D01*
X137089113Y-97247158D01*
X137089103Y-97247166D01*
X136976418Y-97359851D01*
X136976410Y-97359861D01*
X136896725Y-97497879D01*
X136896724Y-97497882D01*
X136896723Y-97497884D01*
X136881553Y-97554497D01*
X136844604Y-97615118D01*
X136780743Y-97646139D01*
X136759848Y-97647884D01*
X136720310Y-97647884D01*
X136637812Y-97669989D01*
X136566364Y-97689133D01*
X136566357Y-97689136D01*
X136428339Y-97768821D01*
X136428329Y-97768829D01*
X136315644Y-97881514D01*
X136315636Y-97881524D01*
X136235951Y-98019542D01*
X136235948Y-98019549D01*
X136218156Y-98085950D01*
X136194699Y-98173495D01*
X136194699Y-98332873D01*
X136235949Y-98486821D01*
X136238087Y-98494799D01*
X136237887Y-98494852D01*
X136239595Y-98497510D01*
X136244699Y-98533008D01*
X136244699Y-98617798D01*
X136224697Y-98685919D01*
X136207794Y-98706893D01*
X134856892Y-100057795D01*
X134794580Y-100091821D01*
X134767797Y-100094700D01*
X134623107Y-100094700D01*
X134476893Y-100094700D01*
X134335662Y-100132542D01*
X134335660Y-100132543D01*
X134335657Y-100132544D01*
X134209041Y-100205646D01*
X134209031Y-100205654D01*
X132777889Y-101636796D01*
X132715577Y-101670822D01*
X132644761Y-101665757D01*
X132587926Y-101623210D01*
X132563115Y-101556690D01*
X132562794Y-101547510D01*
X132573703Y-95199343D01*
X132572649Y-95173254D01*
X132570932Y-95152477D01*
X132570928Y-95152428D01*
X132540796Y-95042446D01*
X132510266Y-94979599D01*
X132510265Y-94979598D01*
X132510263Y-94979593D01*
X132477464Y-94926457D01*
X132477465Y-94926457D01*
X132392662Y-94850230D01*
X132392655Y-94850225D01*
X132332998Y-94813862D01*
X132251808Y-94779096D01*
X132247547Y-94777621D01*
X132247650Y-94777322D01*
X132221767Y-94766601D01*
X132183229Y-94744351D01*
X132157134Y-94724327D01*
X132125671Y-94692864D01*
X132105650Y-94666774D01*
X132083394Y-94628225D01*
X132070810Y-94597845D01*
X132059291Y-94554855D01*
X132055000Y-94522250D01*
X132055000Y-94477748D01*
X132059293Y-94445139D01*
X132060565Y-94440390D01*
X132070810Y-94402153D01*
X132083394Y-94371771D01*
X132105650Y-94333223D01*
X132125667Y-94307137D01*
X132157137Y-94275667D01*
X132183217Y-94255653D01*
X132221770Y-94233395D01*
X132252167Y-94220807D01*
X132254209Y-94220260D01*
X132278624Y-94212627D01*
X132297847Y-94205735D01*
X132395924Y-94148498D01*
X132448806Y-94102834D01*
X132491725Y-94057471D01*
X132543585Y-93955911D01*
X132563385Y-93888905D01*
X132576105Y-93801504D01*
X132609549Y-74336518D01*
X132629668Y-74268434D01*
X132683404Y-74222034D01*
X132735674Y-74210737D01*
X135080564Y-74213092D01*
X135146686Y-74206033D01*
X135198321Y-74194827D01*
X135237278Y-74183665D01*
X135335714Y-74126095D01*
X135388518Y-74080340D01*
X135431359Y-74034904D01*
X135457202Y-73984079D01*
X135483044Y-73933258D01*
X135483044Y-73933257D01*
X135500446Y-73873993D01*
X135502730Y-73866216D01*
X135515300Y-73778792D01*
X135515300Y-69124000D01*
X135508208Y-69058038D01*
X135497002Y-69006527D01*
X135485873Y-68967722D01*
X135428303Y-68869286D01*
X135382548Y-68816482D01*
X135337112Y-68773641D01*
X135337110Y-68773640D01*
X135337109Y-68773639D01*
X135235465Y-68721955D01*
X135168429Y-68702271D01*
X135168412Y-68702267D01*
X135081006Y-68689700D01*
X135081000Y-68689700D01*
X125624000Y-68689700D01*
X125623992Y-68689700D01*
X125558033Y-68696792D01*
X125506518Y-68708000D01*
X125484140Y-68714418D01*
X125467722Y-68719127D01*
X125467720Y-68719127D01*
X125467720Y-68719128D01*
X125369287Y-68776695D01*
X125316487Y-68822447D01*
X125316484Y-68822450D01*
X125273639Y-68867890D01*
X125221955Y-68969533D01*
X125221955Y-68969534D01*
X125202271Y-69036570D01*
X125202267Y-69036587D01*
X125189700Y-69123993D01*
X125189700Y-73313700D01*
X125169698Y-73381821D01*
X125116042Y-73428314D01*
X125063700Y-73439700D01*
X123423992Y-73439700D01*
X123358033Y-73446792D01*
X123306518Y-73458000D01*
X123284140Y-73464418D01*
X123267722Y-73469127D01*
X123267720Y-73469127D01*
X123267720Y-73469128D01*
X123169287Y-73526695D01*
X123116487Y-73572447D01*
X123116484Y-73572450D01*
X123073639Y-73617890D01*
X123021955Y-73719533D01*
X123021955Y-73719534D01*
X123002271Y-73786570D01*
X123002267Y-73786587D01*
X122989700Y-73873993D01*
X122989700Y-74721382D01*
X122969698Y-74789503D01*
X122922629Y-74830287D01*
X122923515Y-74831821D01*
X122778340Y-74915637D01*
X122778330Y-74915645D01*
X122665645Y-75028330D01*
X122665637Y-75028340D01*
X122585952Y-75166358D01*
X122585949Y-75166365D01*
X122572552Y-75216365D01*
X122544700Y-75320311D01*
X122544700Y-75479689D01*
X122574896Y-75592383D01*
X122585949Y-75633634D01*
X122585952Y-75633641D01*
X122665639Y-75771662D01*
X122667888Y-75774593D01*
X122669015Y-75777510D01*
X122669769Y-75778815D01*
X122669565Y-75778932D01*
X122693487Y-75840814D01*
X122679221Y-75910362D01*
X122629619Y-75961157D01*
X122560429Y-75977072D01*
X122535315Y-75973002D01*
X122429689Y-75944700D01*
X122270311Y-75944700D01*
X122187813Y-75966805D01*
X122116365Y-75985949D01*
X122116358Y-75985952D01*
X121978340Y-76065637D01*
X121978330Y-76065645D01*
X121964095Y-76079881D01*
X121901783Y-76113907D01*
X121830968Y-76108842D01*
X121785905Y-76079881D01*
X121771669Y-76065645D01*
X121771659Y-76065637D01*
X121633641Y-75985952D01*
X121633638Y-75985951D01*
X121633637Y-75985950D01*
X121633635Y-75985949D01*
X121633634Y-75985949D01*
X121585314Y-75973002D01*
X121479689Y-75944700D01*
X121320311Y-75944700D01*
X121237813Y-75966805D01*
X121166365Y-75985949D01*
X121166358Y-75985952D01*
X121028340Y-76065637D01*
X121028330Y-76065645D01*
X120915645Y-76178330D01*
X120915637Y-76178340D01*
X120835952Y-76316358D01*
X120835949Y-76316365D01*
X120822189Y-76367720D01*
X120794700Y-76470311D01*
X120794700Y-76629689D01*
X120824896Y-76742383D01*
X120835949Y-76783634D01*
X120835952Y-76783641D01*
X120915637Y-76921659D01*
X120915645Y-76921669D01*
X121028330Y-77034354D01*
X121028335Y-77034358D01*
X121028337Y-77034360D01*
X121166363Y-77114050D01*
X121320311Y-77155300D01*
X121320313Y-77155300D01*
X121479687Y-77155300D01*
X121479689Y-77155300D01*
X121633637Y-77114050D01*
X121771663Y-77034360D01*
X121785904Y-77020118D01*
X121848214Y-76986093D01*
X121919030Y-76991156D01*
X121964095Y-77020118D01*
X121978337Y-77034360D01*
X122116363Y-77114050D01*
X122270311Y-77155300D01*
X122270313Y-77155300D01*
X122429687Y-77155300D01*
X122429689Y-77155300D01*
X122583637Y-77114050D01*
X122721663Y-77034360D01*
X122735903Y-77020120D01*
X122774605Y-76981419D01*
X122836917Y-76947393D01*
X122907732Y-76952458D01*
X122964568Y-76995005D01*
X122989379Y-77061525D01*
X122989700Y-77070514D01*
X122989700Y-78868589D01*
X122996677Y-78934017D01*
X123007708Y-78985154D01*
X123018581Y-79023442D01*
X123018582Y-79023445D01*
X123018584Y-79023450D01*
X123075810Y-79122086D01*
X123121380Y-79175049D01*
X123121385Y-79175054D01*
X123121387Y-79175056D01*
X123166672Y-79218052D01*
X123268131Y-79270086D01*
X123268139Y-79270090D01*
X123268146Y-79270092D01*
X123268669Y-79270302D01*
X123268888Y-79270474D01*
X123273323Y-79272749D01*
X123272878Y-79273615D01*
X123324453Y-79314220D01*
X123331382Y-79326738D01*
X123331821Y-79326485D01*
X123415637Y-79471659D01*
X123415645Y-79471669D01*
X123528330Y-79584354D01*
X123528335Y-79584358D01*
X123528337Y-79584360D01*
X123666363Y-79664050D01*
X123820311Y-79705300D01*
X123820313Y-79705300D01*
X123979687Y-79705300D01*
X123979689Y-79705300D01*
X124133637Y-79664050D01*
X124271663Y-79584360D01*
X124384360Y-79471663D01*
X124443160Y-79369819D01*
X124494540Y-79320828D01*
X124552713Y-79306822D01*
X125113334Y-79308778D01*
X125181384Y-79329017D01*
X125227690Y-79382835D01*
X125238894Y-79435010D01*
X125212265Y-93813933D01*
X125192137Y-93882017D01*
X125138395Y-93928410D01*
X125086265Y-93939700D01*
X105605336Y-93939700D01*
X105557117Y-93930108D01*
X105550494Y-93927364D01*
X105532306Y-93922490D01*
X105396542Y-93886113D01*
X105237164Y-93886113D01*
X105142944Y-93911358D01*
X105083211Y-93927364D01*
X105076589Y-93930108D01*
X105028370Y-93939700D01*
X101926212Y-93939700D01*
X101860010Y-93946846D01*
X101859994Y-93946848D01*
X101807440Y-93958329D01*
X101768405Y-93969580D01*
X101768403Y-93969581D01*
X101670071Y-94027319D01*
X101670064Y-94027324D01*
X101616493Y-94073906D01*
X101573731Y-94119416D01*
X101573731Y-94119417D01*
X101522225Y-94221148D01*
X101522219Y-94221161D01*
X101502339Y-94289300D01*
X101502335Y-94289321D01*
X101489919Y-94376752D01*
X101489918Y-94376758D01*
X101491294Y-95167587D01*
X101491364Y-95207897D01*
X101493581Y-96482897D01*
X101493929Y-96682898D01*
X101494381Y-96942587D01*
X101494451Y-96982897D01*
X101495321Y-97482897D01*
X101497543Y-98760808D01*
X101497613Y-98801119D01*
X101501543Y-101060802D01*
X101501585Y-101084684D01*
X101501585Y-101084687D01*
X101502451Y-101582897D01*
X101503886Y-102408480D01*
X101503887Y-102408505D01*
X101503891Y-102410804D01*
X101503932Y-102434684D01*
X101504106Y-102534564D01*
X101507343Y-102578731D01*
X101511601Y-102607981D01*
X101511860Y-102614662D01*
X101504749Y-102642867D01*
X101500660Y-102671671D01*
X101495674Y-102678864D01*
X101494505Y-102683505D01*
X101488676Y-102688963D01*
X101475053Y-102708623D01*
X101455339Y-102728338D01*
X101455338Y-102728339D01*
X101375652Y-102866358D01*
X101375649Y-102866365D01*
X101358426Y-102930643D01*
X101334400Y-103020311D01*
X101334400Y-103179689D01*
X101359043Y-103271659D01*
X101375649Y-103333634D01*
X101375652Y-103333641D01*
X101455337Y-103471659D01*
X101455339Y-103471662D01*
X101455340Y-103471663D01*
X101479550Y-103495873D01*
X101513575Y-103558183D01*
X101515203Y-103602683D01*
X101506076Y-103666952D01*
X101506075Y-103666958D01*
X101506765Y-104063065D01*
X101506835Y-104103375D01*
X101507234Y-104332897D01*
X101507930Y-104732897D01*
X101508121Y-104842587D01*
X101508191Y-104882897D01*
X101509582Y-105682897D01*
X101510469Y-106192587D01*
X101510539Y-106232897D01*
X101510974Y-106482900D01*
X101513512Y-107942587D01*
X101513582Y-107982897D01*
X101514208Y-108342587D01*
X101514278Y-108382897D01*
X101514741Y-108648900D01*
X101515322Y-108982897D01*
X101515686Y-109192587D01*
X101515756Y-109232898D01*
X101516555Y-109692586D01*
X101516625Y-109732897D01*
X101517582Y-110282897D01*
X101518034Y-110542587D01*
X101518104Y-110582897D01*
X101518867Y-111021820D01*
X101519234Y-111232897D01*
X101519582Y-111432897D01*
X101520363Y-111881851D01*
X101521930Y-112782897D01*
X101522208Y-112942587D01*
X101522278Y-112982898D01*
X101522904Y-113342587D01*
X101522974Y-113382897D01*
X101523928Y-113931408D01*
X101523998Y-113971718D01*
X101525322Y-114732898D01*
X101526119Y-115191443D01*
X101526189Y-115231753D01*
X101528143Y-116355087D01*
X101528213Y-116395398D01*
X101529436Y-117098836D01*
X101529506Y-117139148D01*
X101530783Y-117873781D01*
X101510899Y-117941936D01*
X101457324Y-117988522D01*
X101404783Y-118000000D01*
X99951500Y-118000000D01*
X99883379Y-117979998D01*
X99836886Y-117926342D01*
X99825500Y-117874000D01*
X99825500Y-88820311D01*
X108599700Y-88820311D01*
X108599700Y-88979689D01*
X108619431Y-89053325D01*
X108640949Y-89133634D01*
X108640952Y-89133641D01*
X108720637Y-89271659D01*
X108720645Y-89271669D01*
X108759881Y-89310905D01*
X108793907Y-89373217D01*
X108788842Y-89444032D01*
X108759881Y-89489095D01*
X108720645Y-89528330D01*
X108720637Y-89528340D01*
X108640952Y-89666358D01*
X108640949Y-89666365D01*
X108632724Y-89697063D01*
X108599700Y-89820311D01*
X108599700Y-89979689D01*
X108627745Y-90084354D01*
X108640949Y-90133634D01*
X108640952Y-90133641D01*
X108720637Y-90271659D01*
X108720645Y-90271669D01*
X108759881Y-90310905D01*
X108793907Y-90373217D01*
X108788842Y-90444032D01*
X108759881Y-90489095D01*
X108720645Y-90528330D01*
X108720637Y-90528340D01*
X108640952Y-90666358D01*
X108640950Y-90666363D01*
X108599700Y-90820311D01*
X108599700Y-90979689D01*
X108629896Y-91092383D01*
X108640949Y-91133634D01*
X108640952Y-91133641D01*
X108720637Y-91271659D01*
X108720645Y-91271669D01*
X108833330Y-91384354D01*
X108833335Y-91384358D01*
X108833337Y-91384360D01*
X108971363Y-91464050D01*
X109125311Y-91505300D01*
X109125313Y-91505300D01*
X109284687Y-91505300D01*
X109284689Y-91505300D01*
X109438637Y-91464050D01*
X109576663Y-91384360D01*
X109689360Y-91271663D01*
X109769050Y-91133637D01*
X109810300Y-90979689D01*
X109810300Y-90820311D01*
X109769050Y-90666363D01*
X109689360Y-90528337D01*
X109689358Y-90528335D01*
X109689354Y-90528330D01*
X109650119Y-90489095D01*
X109616093Y-90426783D01*
X109621158Y-90355968D01*
X109650119Y-90310905D01*
X109689354Y-90271669D01*
X109689360Y-90271663D01*
X109769050Y-90133637D01*
X109810300Y-89979689D01*
X109810300Y-89820311D01*
X109769050Y-89666363D01*
X109727802Y-89594921D01*
X109711065Y-89525927D01*
X109734285Y-89458835D01*
X109790092Y-89414948D01*
X109860767Y-89408199D01*
X109899921Y-89422802D01*
X109971363Y-89464050D01*
X110125311Y-89505300D01*
X110125313Y-89505300D01*
X110284687Y-89505300D01*
X110284689Y-89505300D01*
X110438637Y-89464050D01*
X110576663Y-89384360D01*
X110594665Y-89366358D01*
X110615905Y-89345119D01*
X110678217Y-89311093D01*
X110749032Y-89316158D01*
X110794095Y-89345119D01*
X110833330Y-89384354D01*
X110833335Y-89384358D01*
X110833337Y-89384360D01*
X110833338Y-89384361D01*
X110833340Y-89384362D01*
X110887515Y-89415640D01*
X110971363Y-89464050D01*
X111125311Y-89505300D01*
X111125313Y-89505300D01*
X111284687Y-89505300D01*
X111284689Y-89505300D01*
X111438637Y-89464050D01*
X111576663Y-89384360D01*
X111594665Y-89366358D01*
X111615905Y-89345119D01*
X111678217Y-89311093D01*
X111749032Y-89316158D01*
X111794095Y-89345119D01*
X111833330Y-89384354D01*
X111833335Y-89384358D01*
X111833337Y-89384360D01*
X111833338Y-89384361D01*
X111833340Y-89384362D01*
X111887515Y-89415640D01*
X111971363Y-89464050D01*
X112125311Y-89505300D01*
X112125313Y-89505300D01*
X112284687Y-89505300D01*
X112284689Y-89505300D01*
X112438637Y-89464050D01*
X112576663Y-89384360D01*
X112670016Y-89291006D01*
X112732326Y-89256983D01*
X112803142Y-89262047D01*
X112859978Y-89304594D01*
X112880816Y-89347491D01*
X112885947Y-89366642D01*
X112885952Y-89366654D01*
X112965637Y-89504672D01*
X112965645Y-89504682D01*
X113078330Y-89617367D01*
X113078335Y-89617371D01*
X113078337Y-89617373D01*
X113216363Y-89697063D01*
X113370311Y-89738313D01*
X113370313Y-89738313D01*
X113529687Y-89738313D01*
X113529689Y-89738313D01*
X113683637Y-89697063D01*
X113812000Y-89622952D01*
X113880995Y-89606214D01*
X113938000Y-89622952D01*
X114066363Y-89697063D01*
X114220311Y-89738313D01*
X114220313Y-89738313D01*
X114379687Y-89738313D01*
X114379689Y-89738313D01*
X114533637Y-89697063D01*
X114671663Y-89617373D01*
X114768725Y-89520311D01*
X117194700Y-89520311D01*
X117194700Y-89679689D01*
X117224896Y-89792383D01*
X117235949Y-89833634D01*
X117235952Y-89833641D01*
X117315637Y-89971659D01*
X117315645Y-89971669D01*
X117428330Y-90084354D01*
X117428335Y-90084358D01*
X117428337Y-90084360D01*
X117566363Y-90164050D01*
X117720311Y-90205300D01*
X117720313Y-90205300D01*
X117879687Y-90205300D01*
X117879689Y-90205300D01*
X118033637Y-90164050D01*
X118171663Y-90084360D01*
X118284360Y-89971663D01*
X118364050Y-89833637D01*
X118405300Y-89679689D01*
X118405300Y-89520311D01*
X118364050Y-89366363D01*
X118323852Y-89296738D01*
X118284362Y-89228340D01*
X118284354Y-89228330D01*
X118171669Y-89115645D01*
X118171659Y-89115637D01*
X118033641Y-89035952D01*
X118033638Y-89035951D01*
X118033637Y-89035950D01*
X118033635Y-89035949D01*
X118033634Y-89035949D01*
X117992383Y-89024896D01*
X117879689Y-88994700D01*
X117720311Y-88994700D01*
X117637813Y-89016805D01*
X117566365Y-89035949D01*
X117566358Y-89035952D01*
X117428340Y-89115637D01*
X117428330Y-89115645D01*
X117315645Y-89228330D01*
X117315637Y-89228340D01*
X117235952Y-89366358D01*
X117235949Y-89366365D01*
X117231127Y-89384362D01*
X117194700Y-89520311D01*
X114768725Y-89520311D01*
X114784360Y-89504676D01*
X114864050Y-89366650D01*
X114905300Y-89212702D01*
X114905300Y-89053324D01*
X114864050Y-88899376D01*
X114818402Y-88820312D01*
X114784362Y-88761353D01*
X114784354Y-88761343D01*
X114671669Y-88648658D01*
X114671659Y-88648650D01*
X114533641Y-88568965D01*
X114533638Y-88568964D01*
X114533637Y-88568963D01*
X114533635Y-88568962D01*
X114533634Y-88568962D01*
X114483116Y-88555426D01*
X114379689Y-88527713D01*
X114220311Y-88527713D01*
X114137813Y-88549818D01*
X114066365Y-88568962D01*
X114066358Y-88568965D01*
X113938000Y-88643073D01*
X113869004Y-88659811D01*
X113812000Y-88643073D01*
X113683641Y-88568965D01*
X113683638Y-88568964D01*
X113683637Y-88568963D01*
X113683635Y-88568962D01*
X113683634Y-88568962D01*
X113633116Y-88555426D01*
X113529689Y-88527713D01*
X113370311Y-88527713D01*
X113287813Y-88549818D01*
X113216365Y-88568962D01*
X113216358Y-88568965D01*
X113078340Y-88648650D01*
X113078334Y-88648655D01*
X112984984Y-88742005D01*
X112922672Y-88776030D01*
X112851856Y-88770964D01*
X112795020Y-88728417D01*
X112774183Y-88685520D01*
X112769050Y-88666363D01*
X112689360Y-88528337D01*
X112689358Y-88528335D01*
X112689354Y-88528330D01*
X112576669Y-88415645D01*
X112576659Y-88415637D01*
X112438641Y-88335952D01*
X112438638Y-88335951D01*
X112438637Y-88335950D01*
X112438635Y-88335949D01*
X112438634Y-88335949D01*
X112397383Y-88324896D01*
X112284689Y-88294700D01*
X112125311Y-88294700D01*
X112042813Y-88316805D01*
X111971365Y-88335949D01*
X111971358Y-88335952D01*
X111833340Y-88415637D01*
X111833330Y-88415645D01*
X111794095Y-88454881D01*
X111731783Y-88488907D01*
X111660968Y-88483842D01*
X111615905Y-88454881D01*
X111576669Y-88415645D01*
X111576659Y-88415637D01*
X111438641Y-88335952D01*
X111438638Y-88335951D01*
X111438637Y-88335950D01*
X111438635Y-88335949D01*
X111438634Y-88335949D01*
X111397383Y-88324896D01*
X111284689Y-88294700D01*
X111125311Y-88294700D01*
X111042813Y-88316805D01*
X110971365Y-88335949D01*
X110971358Y-88335952D01*
X110833340Y-88415637D01*
X110833330Y-88415645D01*
X110794095Y-88454881D01*
X110731783Y-88488907D01*
X110660968Y-88483842D01*
X110615905Y-88454881D01*
X110576669Y-88415645D01*
X110576659Y-88415637D01*
X110438641Y-88335952D01*
X110438638Y-88335951D01*
X110438637Y-88335950D01*
X110438635Y-88335949D01*
X110438634Y-88335949D01*
X110397383Y-88324896D01*
X110284689Y-88294700D01*
X110125311Y-88294700D01*
X110042813Y-88316805D01*
X109971365Y-88335949D01*
X109971358Y-88335952D01*
X109833340Y-88415637D01*
X109833330Y-88415645D01*
X109794095Y-88454881D01*
X109731783Y-88488907D01*
X109660968Y-88483842D01*
X109615905Y-88454881D01*
X109576669Y-88415645D01*
X109576659Y-88415637D01*
X109438641Y-88335952D01*
X109438638Y-88335951D01*
X109438637Y-88335950D01*
X109438635Y-88335949D01*
X109438634Y-88335949D01*
X109397383Y-88324896D01*
X109284689Y-88294700D01*
X109125311Y-88294700D01*
X109042813Y-88316805D01*
X108971365Y-88335949D01*
X108971358Y-88335952D01*
X108833340Y-88415637D01*
X108833330Y-88415645D01*
X108720645Y-88528330D01*
X108720637Y-88528340D01*
X108640952Y-88666358D01*
X108640949Y-88666365D01*
X108619514Y-88746363D01*
X108599700Y-88820311D01*
X99825500Y-88820311D01*
X99825500Y-87818563D01*
X120744700Y-87818563D01*
X120744700Y-88081436D01*
X120779009Y-88342047D01*
X120779011Y-88342054D01*
X120847046Y-88595966D01*
X120947642Y-88838825D01*
X120947643Y-88838826D01*
X120947648Y-88838837D01*
X121079078Y-89066481D01*
X121239095Y-89275017D01*
X121239114Y-89275038D01*
X121424961Y-89460885D01*
X121424971Y-89460894D01*
X121424977Y-89460900D01*
X121424980Y-89460902D01*
X121424982Y-89460904D01*
X121633518Y-89620921D01*
X121861162Y-89752351D01*
X121861166Y-89752352D01*
X121861175Y-89752358D01*
X122104034Y-89852954D01*
X122357946Y-89920989D01*
X122357950Y-89920989D01*
X122357952Y-89920990D01*
X122425121Y-89929832D01*
X122618566Y-89955300D01*
X122618573Y-89955300D01*
X122881427Y-89955300D01*
X122881434Y-89955300D01*
X123116968Y-89924291D01*
X123142047Y-89920990D01*
X123142047Y-89920989D01*
X123142054Y-89920989D01*
X123395966Y-89852954D01*
X123638825Y-89752358D01*
X123866476Y-89620924D01*
X123866476Y-89620923D01*
X123866481Y-89620921D01*
X123992516Y-89524210D01*
X124075023Y-89460900D01*
X124260900Y-89275023D01*
X124327990Y-89187589D01*
X124420921Y-89066481D01*
X124471032Y-88979687D01*
X124552358Y-88838825D01*
X124652954Y-88595966D01*
X124720989Y-88342054D01*
X124755300Y-88081434D01*
X124755300Y-87818566D01*
X124720989Y-87557946D01*
X124652954Y-87304034D01*
X124552358Y-87061175D01*
X124552352Y-87061166D01*
X124552351Y-87061162D01*
X124420921Y-86833518D01*
X124260904Y-86624982D01*
X124260902Y-86624980D01*
X124260900Y-86624977D01*
X124260894Y-86624971D01*
X124260885Y-86624961D01*
X124075038Y-86439114D01*
X124075017Y-86439095D01*
X123866481Y-86279078D01*
X123638837Y-86147648D01*
X123638829Y-86147644D01*
X123638825Y-86147642D01*
X123395966Y-86047046D01*
X123196654Y-85993641D01*
X123142047Y-85979009D01*
X122881436Y-85944700D01*
X122881434Y-85944700D01*
X122618566Y-85944700D01*
X122618563Y-85944700D01*
X122357952Y-85979009D01*
X122104034Y-86047046D01*
X121899762Y-86131659D01*
X121861173Y-86147643D01*
X121861162Y-86147648D01*
X121633518Y-86279078D01*
X121424982Y-86439095D01*
X121424961Y-86439114D01*
X121239114Y-86624961D01*
X121239095Y-86624982D01*
X121079078Y-86833518D01*
X120947648Y-87061162D01*
X120947643Y-87061173D01*
X120947642Y-87061175D01*
X120891522Y-87196659D01*
X120847046Y-87304034D01*
X120779009Y-87557952D01*
X120744700Y-87818563D01*
X99825500Y-87818563D01*
X99825500Y-84280311D01*
X104099700Y-84280311D01*
X104099700Y-84439689D01*
X104136077Y-84575453D01*
X104140951Y-84593641D01*
X104171758Y-84647000D01*
X104188496Y-84715996D01*
X104171758Y-84773000D01*
X104140951Y-84826358D01*
X104118624Y-84909687D01*
X104099700Y-84980311D01*
X104099700Y-85139689D01*
X104112108Y-85185996D01*
X104140951Y-85293641D01*
X104171758Y-85347000D01*
X104188496Y-85415996D01*
X104171758Y-85473000D01*
X104140951Y-85526358D01*
X104140950Y-85526363D01*
X104099700Y-85680311D01*
X104099700Y-85839689D01*
X104112108Y-85885996D01*
X104140949Y-85993634D01*
X104140952Y-85993641D01*
X104220637Y-86131659D01*
X104220645Y-86131669D01*
X104333330Y-86244354D01*
X104333335Y-86244358D01*
X104333337Y-86244360D01*
X104333338Y-86244361D01*
X104333340Y-86244362D01*
X104393466Y-86279076D01*
X104471363Y-86324050D01*
X104625311Y-86365300D01*
X104625313Y-86365300D01*
X104667001Y-86365300D01*
X104735122Y-86385302D01*
X104781615Y-86438958D01*
X104791719Y-86509232D01*
X104776121Y-86554296D01*
X104754724Y-86591358D01*
X104754722Y-86591362D01*
X104754720Y-86591365D01*
X104733567Y-86670311D01*
X104713471Y-86745311D01*
X104713471Y-86904689D01*
X104743667Y-87017383D01*
X104754720Y-87058634D01*
X104754723Y-87058641D01*
X104834408Y-87196659D01*
X104834416Y-87196669D01*
X104947101Y-87309354D01*
X104947106Y-87309358D01*
X104947108Y-87309360D01*
X105085134Y-87389050D01*
X105239082Y-87430300D01*
X105239084Y-87430300D01*
X105398458Y-87430300D01*
X105398460Y-87430300D01*
X105552408Y-87389050D01*
X105690434Y-87309360D01*
X105803131Y-87196663D01*
X105882821Y-87058637D01*
X105924071Y-86904689D01*
X105924071Y-86745311D01*
X105903975Y-86670311D01*
X106244700Y-86670311D01*
X106244700Y-86829689D01*
X106251071Y-86853466D01*
X106285949Y-86983634D01*
X106285952Y-86983641D01*
X106365637Y-87121659D01*
X106365645Y-87121669D01*
X106478330Y-87234354D01*
X106478335Y-87234358D01*
X106478337Y-87234360D01*
X106616363Y-87314050D01*
X106770311Y-87355300D01*
X106770313Y-87355300D01*
X106929687Y-87355300D01*
X106929689Y-87355300D01*
X107083637Y-87314050D01*
X107221663Y-87234360D01*
X107334360Y-87121663D01*
X107414050Y-86983637D01*
X107445998Y-86864402D01*
X107482948Y-86803782D01*
X107546809Y-86772760D01*
X107617303Y-86781188D01*
X107630697Y-86787892D01*
X107641363Y-86794050D01*
X107795311Y-86835300D01*
X107795313Y-86835300D01*
X107954687Y-86835300D01*
X107954689Y-86835300D01*
X108108637Y-86794050D01*
X108162002Y-86763239D01*
X108230994Y-86746502D01*
X108287997Y-86763238D01*
X108341363Y-86794050D01*
X108495311Y-86835300D01*
X108495313Y-86835300D01*
X108654687Y-86835300D01*
X108654689Y-86835300D01*
X108808637Y-86794050D01*
X108946663Y-86714360D01*
X109059360Y-86601663D01*
X109139050Y-86463637D01*
X109180300Y-86309689D01*
X109180300Y-86150311D01*
X109139050Y-85996363D01*
X109108239Y-85942997D01*
X109091502Y-85874006D01*
X109108240Y-85817000D01*
X109139050Y-85763637D01*
X109180300Y-85609689D01*
X109180300Y-85450311D01*
X109139050Y-85296363D01*
X109108239Y-85242997D01*
X109091502Y-85174006D01*
X109108240Y-85117000D01*
X109139050Y-85063637D01*
X109180300Y-84909689D01*
X109180300Y-84750311D01*
X109139050Y-84596363D01*
X109059360Y-84458337D01*
X109059358Y-84458335D01*
X109059354Y-84458330D01*
X108946669Y-84345645D01*
X108946659Y-84345637D01*
X108808641Y-84265952D01*
X108808638Y-84265951D01*
X108808637Y-84265950D01*
X108808635Y-84265949D01*
X108808634Y-84265949D01*
X108767383Y-84254896D01*
X108654689Y-84224700D01*
X108596551Y-84224700D01*
X108528430Y-84204698D01*
X108481937Y-84151042D01*
X108470551Y-84098700D01*
X108470551Y-83985563D01*
X108441099Y-83875645D01*
X108429301Y-83831614D01*
X108349611Y-83693588D01*
X108349609Y-83693586D01*
X108349605Y-83693581D01*
X108236920Y-83580896D01*
X108236916Y-83580893D01*
X108236914Y-83580891D01*
X108223259Y-83573007D01*
X108223258Y-83573006D01*
X108098892Y-83501203D01*
X108098889Y-83501202D01*
X108098888Y-83501201D01*
X108098886Y-83501200D01*
X108098885Y-83501200D01*
X108057634Y-83490147D01*
X107990456Y-83472147D01*
X109733232Y-83472147D01*
X109733232Y-83631525D01*
X109763428Y-83744219D01*
X109774481Y-83785470D01*
X109774484Y-83785477D01*
X109854169Y-83923495D01*
X109854177Y-83923505D01*
X109966862Y-84036190D01*
X109966867Y-84036194D01*
X109966869Y-84036196D01*
X110104895Y-84115886D01*
X110258843Y-84157136D01*
X110258845Y-84157136D01*
X110418219Y-84157136D01*
X110418221Y-84157136D01*
X110572169Y-84115886D01*
X110710195Y-84036196D01*
X110822892Y-83923499D01*
X110902582Y-83785473D01*
X110943832Y-83631525D01*
X110943832Y-83472147D01*
X110902582Y-83318199D01*
X110853998Y-83234050D01*
X110822894Y-83180176D01*
X110822886Y-83180166D01*
X110710201Y-83067481D01*
X110710191Y-83067473D01*
X110687576Y-83054416D01*
X120669700Y-83054416D01*
X120669700Y-84845574D01*
X120669701Y-84845578D01*
X120672662Y-84871108D01*
X120672663Y-84871112D01*
X120718765Y-84975525D01*
X120799472Y-85056232D01*
X120799474Y-85056233D01*
X120799475Y-85056234D01*
X120903891Y-85102338D01*
X120929421Y-85105300D01*
X122720578Y-85105299D01*
X122746109Y-85102338D01*
X122850525Y-85056234D01*
X122931234Y-84975525D01*
X122977338Y-84871109D01*
X122980300Y-84845579D01*
X122980299Y-83054422D01*
X122977338Y-83028891D01*
X122957308Y-82983527D01*
X122931234Y-82924474D01*
X122850527Y-82843767D01*
X122850525Y-82843766D01*
X122746107Y-82797661D01*
X122746108Y-82797661D01*
X122720582Y-82794700D01*
X120929425Y-82794700D01*
X120929421Y-82794701D01*
X120903891Y-82797662D01*
X120903887Y-82797663D01*
X120799474Y-82843765D01*
X120718767Y-82924472D01*
X120718766Y-82924474D01*
X120672661Y-83028892D01*
X120669700Y-83054416D01*
X110687576Y-83054416D01*
X110572173Y-82987788D01*
X110572170Y-82987787D01*
X110572169Y-82987786D01*
X110572167Y-82987785D01*
X110572166Y-82987785D01*
X110530915Y-82976732D01*
X110418221Y-82946536D01*
X110258843Y-82946536D01*
X110176345Y-82968641D01*
X110104897Y-82987785D01*
X110104890Y-82987788D01*
X109966872Y-83067473D01*
X109966862Y-83067481D01*
X109854177Y-83180166D01*
X109854169Y-83180176D01*
X109774484Y-83318194D01*
X109774481Y-83318201D01*
X109756220Y-83386355D01*
X109733232Y-83472147D01*
X107990456Y-83472147D01*
X107944940Y-83459951D01*
X107785562Y-83459951D01*
X107718034Y-83478045D01*
X107631616Y-83501200D01*
X107631609Y-83501203D01*
X107493591Y-83580888D01*
X107493581Y-83580896D01*
X107380896Y-83693581D01*
X107380888Y-83693591D01*
X107301203Y-83831609D01*
X107301201Y-83831614D01*
X107259951Y-83985562D01*
X107259951Y-84144940D01*
X107290147Y-84257634D01*
X107301200Y-84298885D01*
X107301203Y-84298892D01*
X107355576Y-84393068D01*
X107372314Y-84462063D01*
X107355576Y-84519068D01*
X107310952Y-84596358D01*
X107310950Y-84596363D01*
X107269700Y-84750311D01*
X107269700Y-84909689D01*
X107306077Y-85045453D01*
X107310951Y-85063641D01*
X107341758Y-85117000D01*
X107358496Y-85185996D01*
X107341758Y-85243000D01*
X107310951Y-85296358D01*
X107310950Y-85296363D01*
X107269700Y-85450311D01*
X107269700Y-85609689D01*
X107306077Y-85745453D01*
X107310951Y-85763641D01*
X107341758Y-85817000D01*
X107358496Y-85885996D01*
X107350764Y-85923846D01*
X107347066Y-85933806D01*
X107310950Y-85996363D01*
X107277475Y-86121292D01*
X107275420Y-86126830D01*
X107257580Y-86150739D01*
X107242050Y-86176218D01*
X107236591Y-86178869D01*
X107232963Y-86183733D01*
X107205025Y-86194203D01*
X107178189Y-86207240D01*
X107172163Y-86206519D01*
X107166482Y-86208649D01*
X107137319Y-86202353D01*
X107107695Y-86198811D01*
X107097672Y-86193793D01*
X107097084Y-86193667D01*
X107096746Y-86193330D01*
X107094298Y-86192105D01*
X107083641Y-86185952D01*
X107083638Y-86185951D01*
X107083637Y-86185950D01*
X107083635Y-86185949D01*
X107083634Y-86185949D01*
X107042383Y-86174896D01*
X106929689Y-86144700D01*
X106770311Y-86144700D01*
X106687813Y-86166805D01*
X106616365Y-86185949D01*
X106616358Y-86185952D01*
X106478340Y-86265637D01*
X106478330Y-86265645D01*
X106365645Y-86378330D01*
X106365637Y-86378340D01*
X106285952Y-86516358D01*
X106285949Y-86516365D01*
X106265855Y-86591358D01*
X106244700Y-86670311D01*
X105903975Y-86670311D01*
X105882821Y-86591363D01*
X105839519Y-86516363D01*
X105803133Y-86453340D01*
X105803125Y-86453330D01*
X105774504Y-86424709D01*
X105740478Y-86362397D01*
X105745543Y-86291582D01*
X105774504Y-86246518D01*
X105776660Y-86244361D01*
X105776663Y-86244360D01*
X105889360Y-86131663D01*
X105969050Y-85993637D01*
X106010300Y-85839689D01*
X106010300Y-85680311D01*
X105969050Y-85526363D01*
X105938239Y-85472997D01*
X105921502Y-85404006D01*
X105938240Y-85347000D01*
X105969050Y-85293637D01*
X106010300Y-85139689D01*
X106010300Y-84980311D01*
X105969050Y-84826363D01*
X105938239Y-84772997D01*
X105921502Y-84704006D01*
X105938240Y-84647000D01*
X105969050Y-84593637D01*
X106010300Y-84439689D01*
X106010300Y-84280311D01*
X105969050Y-84126363D01*
X105889360Y-83988337D01*
X105889358Y-83988335D01*
X105889354Y-83988330D01*
X105776669Y-83875645D01*
X105776659Y-83875637D01*
X105638641Y-83795952D01*
X105638638Y-83795951D01*
X105638637Y-83795950D01*
X105638635Y-83795949D01*
X105638634Y-83795949D01*
X105597383Y-83784896D01*
X105484689Y-83754700D01*
X105325311Y-83754700D01*
X105231091Y-83779945D01*
X105171358Y-83795951D01*
X105118000Y-83826758D01*
X105049004Y-83843496D01*
X104992000Y-83826758D01*
X104938641Y-83795951D01*
X104899525Y-83785470D01*
X104784689Y-83754700D01*
X104625311Y-83754700D01*
X104542813Y-83776805D01*
X104471365Y-83795949D01*
X104471358Y-83795952D01*
X104333340Y-83875637D01*
X104333330Y-83875645D01*
X104220645Y-83988330D01*
X104220637Y-83988340D01*
X104140952Y-84126358D01*
X104140949Y-84126365D01*
X104135972Y-84144940D01*
X104099700Y-84280311D01*
X99825500Y-84280311D01*
X99825500Y-82590311D01*
X104809700Y-82590311D01*
X104809700Y-82749689D01*
X104839604Y-82861294D01*
X104850949Y-82903634D01*
X104850952Y-82903641D01*
X104930637Y-83041659D01*
X104930645Y-83041669D01*
X105043330Y-83154354D01*
X105043335Y-83154358D01*
X105043337Y-83154360D01*
X105043338Y-83154361D01*
X105043340Y-83154362D01*
X105075731Y-83173063D01*
X105181363Y-83234050D01*
X105335311Y-83275300D01*
X105335313Y-83275300D01*
X105494687Y-83275300D01*
X105494689Y-83275300D01*
X105648637Y-83234050D01*
X105786663Y-83154360D01*
X105899360Y-83041663D01*
X105979050Y-82903637D01*
X106020300Y-82749689D01*
X106020300Y-82590311D01*
X105984450Y-82456515D01*
X108344700Y-82456515D01*
X108344700Y-82615893D01*
X108355259Y-82655300D01*
X108385949Y-82769838D01*
X108385952Y-82769845D01*
X108465637Y-82907863D01*
X108465645Y-82907873D01*
X108578330Y-83020558D01*
X108578335Y-83020562D01*
X108578337Y-83020564D01*
X108578338Y-83020565D01*
X108578340Y-83020566D01*
X108636980Y-83054422D01*
X108716363Y-83100254D01*
X108870311Y-83141504D01*
X108870313Y-83141504D01*
X109029687Y-83141504D01*
X109029689Y-83141504D01*
X109183637Y-83100254D01*
X109321663Y-83020564D01*
X109434360Y-82907867D01*
X109514050Y-82769841D01*
X109555300Y-82615893D01*
X109555300Y-82456515D01*
X109514050Y-82302567D01*
X109511401Y-82297980D01*
X109494661Y-82228991D01*
X109517878Y-82161898D01*
X109573683Y-82118007D01*
X109587898Y-82113275D01*
X109610177Y-82107306D01*
X109748203Y-82027616D01*
X109805508Y-81970311D01*
X114076700Y-81970311D01*
X114076700Y-82129689D01*
X114093884Y-82193820D01*
X114117949Y-82283634D01*
X114117952Y-82283641D01*
X114197637Y-82421659D01*
X114197645Y-82421669D01*
X114310330Y-82534354D01*
X114310335Y-82534358D01*
X114310337Y-82534360D01*
X114448363Y-82614050D01*
X114602311Y-82655300D01*
X114602313Y-82655300D01*
X114761687Y-82655300D01*
X114761689Y-82655300D01*
X114915637Y-82614050D01*
X115053663Y-82534360D01*
X115166360Y-82421663D01*
X115246050Y-82283637D01*
X115287300Y-82129689D01*
X115287300Y-81970311D01*
X115246050Y-81816363D01*
X115166360Y-81678337D01*
X115166358Y-81678335D01*
X115166354Y-81678330D01*
X115053669Y-81565645D01*
X115053659Y-81565637D01*
X114915641Y-81485952D01*
X114915638Y-81485951D01*
X114915637Y-81485950D01*
X114915635Y-81485949D01*
X114915634Y-81485949D01*
X114874383Y-81474896D01*
X114761689Y-81444700D01*
X114602311Y-81444700D01*
X114519813Y-81466805D01*
X114448365Y-81485949D01*
X114448358Y-81485952D01*
X114310340Y-81565637D01*
X114310330Y-81565645D01*
X114197645Y-81678330D01*
X114197637Y-81678340D01*
X114117952Y-81816358D01*
X114117949Y-81816365D01*
X114108811Y-81850471D01*
X114076700Y-81970311D01*
X109805508Y-81970311D01*
X109860900Y-81914919D01*
X109940590Y-81776893D01*
X109981840Y-81622945D01*
X109981840Y-81463567D01*
X109940590Y-81309619D01*
X109860900Y-81171593D01*
X109860898Y-81171591D01*
X109860894Y-81171586D01*
X109748209Y-81058901D01*
X109748199Y-81058893D01*
X109610181Y-80979208D01*
X109610178Y-80979207D01*
X109610177Y-80979206D01*
X109610175Y-80979205D01*
X109610174Y-80979205D01*
X109568923Y-80968152D01*
X109456229Y-80937956D01*
X109296851Y-80937956D01*
X109214353Y-80960061D01*
X109142905Y-80979205D01*
X109142898Y-80979208D01*
X109004880Y-81058893D01*
X109004870Y-81058901D01*
X108892185Y-81171586D01*
X108892177Y-81171596D01*
X108812492Y-81309614D01*
X108812490Y-81309619D01*
X108771240Y-81463567D01*
X108771240Y-81622945D01*
X108786082Y-81678337D01*
X108812489Y-81776890D01*
X108812492Y-81776897D01*
X108815137Y-81781477D01*
X108831877Y-81850471D01*
X108808659Y-81917564D01*
X108752853Y-81961453D01*
X108738634Y-81966186D01*
X108716368Y-81972152D01*
X108716358Y-81972156D01*
X108578340Y-82051841D01*
X108578330Y-82051849D01*
X108465645Y-82164534D01*
X108465637Y-82164544D01*
X108385952Y-82302562D01*
X108385950Y-82302568D01*
X108344700Y-82456515D01*
X105984450Y-82456515D01*
X105979050Y-82436363D01*
X105955376Y-82395359D01*
X105899362Y-82298340D01*
X105899354Y-82298330D01*
X105786669Y-82185645D01*
X105786659Y-82185637D01*
X105648641Y-82105952D01*
X105648638Y-82105951D01*
X105648637Y-82105950D01*
X105648635Y-82105949D01*
X105648634Y-82105949D01*
X105607383Y-82094896D01*
X105494689Y-82064700D01*
X105335311Y-82064700D01*
X105252813Y-82086805D01*
X105181365Y-82105949D01*
X105181358Y-82105952D01*
X105043340Y-82185637D01*
X105043330Y-82185645D01*
X104930645Y-82298330D01*
X104930637Y-82298340D01*
X104850952Y-82436358D01*
X104850949Y-82436365D01*
X104834837Y-82496497D01*
X104809700Y-82590311D01*
X99825500Y-82590311D01*
X99825500Y-80320311D01*
X119394700Y-80320311D01*
X119394700Y-80479689D01*
X119424896Y-80592383D01*
X119435949Y-80633634D01*
X119435952Y-80633641D01*
X119515637Y-80771659D01*
X119515645Y-80771669D01*
X119628330Y-80884354D01*
X119628335Y-80884358D01*
X119628337Y-80884360D01*
X119766363Y-80964050D01*
X119920311Y-81005300D01*
X119920313Y-81005300D01*
X120079687Y-81005300D01*
X120079689Y-81005300D01*
X120233637Y-80964050D01*
X120371663Y-80884360D01*
X120484360Y-80771663D01*
X120564050Y-80633637D01*
X120605300Y-80479689D01*
X120605300Y-80320311D01*
X120564050Y-80166363D01*
X120509378Y-80071669D01*
X120484362Y-80028340D01*
X120484354Y-80028330D01*
X120371669Y-79915645D01*
X120371659Y-79915637D01*
X120233641Y-79835952D01*
X120233638Y-79835951D01*
X120233637Y-79835950D01*
X120233635Y-79835949D01*
X120233634Y-79835949D01*
X120192383Y-79824896D01*
X120079689Y-79794700D01*
X119920311Y-79794700D01*
X119837813Y-79816805D01*
X119766365Y-79835949D01*
X119766358Y-79835952D01*
X119628340Y-79915637D01*
X119628330Y-79915645D01*
X119515645Y-80028330D01*
X119515637Y-80028340D01*
X119435952Y-80166358D01*
X119435949Y-80166365D01*
X119431127Y-80184362D01*
X119394700Y-80320311D01*
X99825500Y-80320311D01*
X99825500Y-79620311D01*
X111182200Y-79620311D01*
X111182200Y-79779689D01*
X111197275Y-79835949D01*
X111223449Y-79933634D01*
X111223452Y-79933641D01*
X111303137Y-80071659D01*
X111303145Y-80071669D01*
X111415830Y-80184354D01*
X111415835Y-80184358D01*
X111415837Y-80184360D01*
X111553863Y-80264050D01*
X111707811Y-80305300D01*
X111707813Y-80305300D01*
X111867187Y-80305300D01*
X111867189Y-80305300D01*
X112021137Y-80264050D01*
X112159163Y-80184360D01*
X112271860Y-80071663D01*
X112351550Y-79933637D01*
X112392800Y-79779689D01*
X112392800Y-79620311D01*
X112351550Y-79466363D01*
X112271860Y-79328337D01*
X112271858Y-79328335D01*
X112271854Y-79328330D01*
X112159169Y-79215645D01*
X112159159Y-79215637D01*
X112021141Y-79135952D01*
X112021138Y-79135951D01*
X112021137Y-79135950D01*
X112021135Y-79135949D01*
X112021134Y-79135949D01*
X111969399Y-79122087D01*
X111867189Y-79094700D01*
X111707811Y-79094700D01*
X111625313Y-79116805D01*
X111553865Y-79135949D01*
X111553858Y-79135952D01*
X111415840Y-79215637D01*
X111415830Y-79215645D01*
X111303145Y-79328330D01*
X111303137Y-79328340D01*
X111223452Y-79466358D01*
X111223449Y-79466365D01*
X111222028Y-79471669D01*
X111182200Y-79620311D01*
X99825500Y-79620311D01*
X99825500Y-76920311D01*
X108944700Y-76920311D01*
X108944700Y-77079689D01*
X108953907Y-77114050D01*
X108985949Y-77233634D01*
X108985952Y-77233641D01*
X109065637Y-77371659D01*
X109065645Y-77371669D01*
X109178330Y-77484354D01*
X109178335Y-77484358D01*
X109178337Y-77484360D01*
X109316363Y-77564050D01*
X109470311Y-77605300D01*
X109470313Y-77605300D01*
X109629687Y-77605300D01*
X109629689Y-77605300D01*
X109783637Y-77564050D01*
X109921663Y-77484360D01*
X110034360Y-77371663D01*
X110114050Y-77233637D01*
X110155300Y-77079689D01*
X110155300Y-76920311D01*
X110114050Y-76766363D01*
X110035141Y-76629689D01*
X110034362Y-76628340D01*
X110034354Y-76628330D01*
X109921669Y-76515645D01*
X109921659Y-76515637D01*
X109783641Y-76435952D01*
X109783638Y-76435951D01*
X109783637Y-76435950D01*
X109783635Y-76435949D01*
X109783634Y-76435949D01*
X109742383Y-76424896D01*
X109629689Y-76394700D01*
X109470311Y-76394700D01*
X109387813Y-76416805D01*
X109316365Y-76435949D01*
X109316358Y-76435952D01*
X109178340Y-76515637D01*
X109178330Y-76515645D01*
X109065645Y-76628330D01*
X109065637Y-76628340D01*
X108985952Y-76766358D01*
X108985950Y-76766363D01*
X108944700Y-76920311D01*
X99825500Y-76920311D01*
X99825500Y-75370311D01*
X119794700Y-75370311D01*
X119794700Y-75529689D01*
X119822552Y-75633634D01*
X119835949Y-75683634D01*
X119835952Y-75683641D01*
X119915637Y-75821659D01*
X119915645Y-75821669D01*
X120028330Y-75934354D01*
X120028335Y-75934358D01*
X120028337Y-75934360D01*
X120166363Y-76014050D01*
X120320311Y-76055300D01*
X120320313Y-76055300D01*
X120479687Y-76055300D01*
X120479689Y-76055300D01*
X120633637Y-76014050D01*
X120771663Y-75934360D01*
X120884360Y-75821663D01*
X120964050Y-75683637D01*
X121005300Y-75529689D01*
X121005300Y-75370311D01*
X120964050Y-75216363D01*
X120884360Y-75078337D01*
X120884358Y-75078335D01*
X120884354Y-75078330D01*
X120771669Y-74965645D01*
X120771659Y-74965637D01*
X120633641Y-74885952D01*
X120633638Y-74885951D01*
X120633637Y-74885950D01*
X120633635Y-74885949D01*
X120633634Y-74885949D01*
X120592383Y-74874896D01*
X120479689Y-74844700D01*
X120320311Y-74844700D01*
X120237813Y-74866805D01*
X120166365Y-74885949D01*
X120166358Y-74885952D01*
X120028340Y-74965637D01*
X120028330Y-74965645D01*
X119915645Y-75078330D01*
X119915637Y-75078340D01*
X119835952Y-75216358D01*
X119835950Y-75216363D01*
X119794700Y-75370311D01*
X99825500Y-75370311D01*
X99825500Y-68051500D01*
X99845502Y-67983379D01*
X99899158Y-67936886D01*
X99951500Y-67925500D01*
X155633772Y-67925500D01*
X155701893Y-67945502D01*
G37*
G04 #@! TD.AperFunction*
G04 #@! TA.AperFunction,Conductor*
G36*
X126333429Y-106330302D02*
G01*
X126379922Y-106383958D01*
X126389446Y-106435563D01*
X126391282Y-106435548D01*
X126438640Y-111946020D01*
X126445870Y-112009993D01*
X126457039Y-112060789D01*
X126467587Y-112097697D01*
X126467589Y-112097702D01*
X126467590Y-112097704D01*
X126516587Y-112182278D01*
X126524756Y-112196377D01*
X126571021Y-112250216D01*
X126571027Y-112250222D01*
X126616288Y-112293250D01*
X126717724Y-112345353D01*
X126785762Y-112365635D01*
X126873125Y-112378562D01*
X126873132Y-112378563D01*
X130173191Y-112392118D01*
X130241225Y-112412399D01*
X130287497Y-112466245D01*
X130297312Y-112536560D01*
X130267554Y-112601019D01*
X130261765Y-112607211D01*
X130165642Y-112703334D01*
X130165637Y-112703340D01*
X130085952Y-112841358D01*
X130085949Y-112841365D01*
X130071295Y-112896056D01*
X130044700Y-112995311D01*
X130044700Y-113154689D01*
X130074896Y-113267383D01*
X130085949Y-113308634D01*
X130085952Y-113308641D01*
X130160060Y-113437000D01*
X130176798Y-113505996D01*
X130160060Y-113563000D01*
X130085952Y-113691358D01*
X130085950Y-113691363D01*
X130044700Y-113845311D01*
X130044700Y-114004689D01*
X130067836Y-114091035D01*
X130085949Y-114158634D01*
X130085952Y-114158641D01*
X130165637Y-114296659D01*
X130165645Y-114296669D01*
X130278333Y-114409357D01*
X130282267Y-114412376D01*
X130324133Y-114469715D01*
X130328353Y-114540586D01*
X130293588Y-114602489D01*
X130230874Y-114635768D01*
X130204153Y-114638329D01*
X125980869Y-114591141D01*
X125913146Y-114597850D01*
X125913136Y-114597851D01*
X125859395Y-114609228D01*
X125859392Y-114609229D01*
X125837104Y-114615553D01*
X125818892Y-114620722D01*
X125818891Y-114620722D01*
X125811225Y-114622898D01*
X125810704Y-114621065D01*
X125750385Y-114628157D01*
X125686585Y-114597010D01*
X125649753Y-114536315D01*
X125645523Y-114504168D01*
X125637865Y-110100126D01*
X125636703Y-110073834D01*
X125634857Y-110052566D01*
X125634836Y-110052325D01*
X125623819Y-110012849D01*
X125624772Y-109941863D01*
X125656082Y-109889890D01*
X125795627Y-109750346D01*
X125916392Y-109584126D01*
X126009669Y-109401061D01*
X126073159Y-109205658D01*
X126105300Y-109002729D01*
X126105300Y-108797271D01*
X126073159Y-108594342D01*
X126009669Y-108398939D01*
X125916392Y-108215874D01*
X125795627Y-108049654D01*
X125795624Y-108049651D01*
X125795622Y-108049648D01*
X125653507Y-107907533D01*
X125619481Y-107845221D01*
X125621447Y-107789084D01*
X125620319Y-107788841D01*
X125621264Y-107784456D01*
X125621268Y-107784443D01*
X125633686Y-107696997D01*
X125632533Y-107033958D01*
X125631494Y-106436519D01*
X125651378Y-106368364D01*
X125704952Y-106321778D01*
X125757494Y-106310300D01*
X126265308Y-106310300D01*
X126333429Y-106330302D01*
G37*
G04 #@! TD.AperFunction*
G04 #@! TA.AperFunction,Conductor*
G36*
X138606149Y-98325456D02*
G01*
X138635879Y-98326164D01*
X138640987Y-98329621D01*
X138647114Y-98330354D01*
X138670047Y-98349289D01*
X138694675Y-98365957D01*
X138697103Y-98371628D01*
X138701861Y-98375556D01*
X138710915Y-98403881D01*
X138722624Y-98431221D01*
X138722081Y-98438808D01*
X138723479Y-98443181D01*
X138719222Y-98478791D01*
X138713010Y-98501976D01*
X138694700Y-98570311D01*
X138694700Y-98729689D01*
X138732577Y-98871047D01*
X138738088Y-98891615D01*
X138737148Y-98891866D01*
X138744700Y-98929824D01*
X138744700Y-100576893D01*
X138744700Y-100723107D01*
X138782542Y-100864338D01*
X138782543Y-100864340D01*
X138782544Y-100864342D01*
X138855646Y-100990958D01*
X138855648Y-100990960D01*
X138855649Y-100990962D01*
X139207796Y-101343109D01*
X139241820Y-101405420D01*
X139244700Y-101432203D01*
X139244700Y-102826893D01*
X139244700Y-102973107D01*
X139282542Y-103114338D01*
X139282543Y-103114340D01*
X139282544Y-103114342D01*
X139355646Y-103240958D01*
X139355648Y-103240960D01*
X139355649Y-103240962D01*
X139957796Y-103843109D01*
X139991820Y-103905420D01*
X139994700Y-103932203D01*
X139994700Y-105870176D01*
X139987149Y-105908134D01*
X139988088Y-105908386D01*
X139985951Y-105916361D01*
X139985950Y-105916363D01*
X139944700Y-106070311D01*
X139944700Y-106229689D01*
X139966300Y-106310300D01*
X139985949Y-106383634D01*
X139985954Y-106383645D01*
X140032349Y-106464004D01*
X140035108Y-106475378D01*
X140041973Y-106484860D01*
X140043326Y-106509255D01*
X140049087Y-106532999D01*
X140045258Y-106544060D01*
X140045907Y-106555748D01*
X140033857Y-106577001D01*
X140025866Y-106600091D01*
X140015765Y-106608912D01*
X140010892Y-106617509D01*
X139990861Y-106630663D01*
X139981843Y-106638540D01*
X139976754Y-106641214D01*
X139960647Y-106647886D01*
X139926074Y-106667846D01*
X139923841Y-106669020D01*
X139921027Y-106669585D01*
X139897842Y-106679189D01*
X139886092Y-106682337D01*
X139854860Y-106690706D01*
X139822250Y-106695000D01*
X139777752Y-106695000D01*
X139745141Y-106690707D01*
X139702153Y-106679188D01*
X139671767Y-106666601D01*
X139657775Y-106658523D01*
X139642153Y-106649503D01*
X139642150Y-106649502D01*
X139574427Y-106620501D01*
X139574424Y-106620500D01*
X139518311Y-106604023D01*
X139471613Y-106594138D01*
X139471610Y-106594138D01*
X139455164Y-106595014D01*
X139357737Y-106600204D01*
X139289840Y-106616677D01*
X139289834Y-106616679D01*
X139207854Y-106649499D01*
X139207844Y-106649504D01*
X139178229Y-106666602D01*
X139147846Y-106679187D01*
X139104860Y-106690706D01*
X139072246Y-106695000D01*
X139027752Y-106695000D01*
X138995141Y-106690707D01*
X138952153Y-106679188D01*
X138921767Y-106666601D01*
X138907775Y-106658523D01*
X138892153Y-106649503D01*
X138892150Y-106649502D01*
X138824427Y-106620501D01*
X138824424Y-106620500D01*
X138768311Y-106604023D01*
X138721613Y-106594138D01*
X138721610Y-106594138D01*
X138705164Y-106595014D01*
X138607737Y-106600204D01*
X138539840Y-106616677D01*
X138539834Y-106616679D01*
X138457854Y-106649499D01*
X138457844Y-106649504D01*
X138428229Y-106666602D01*
X138397846Y-106679187D01*
X138354860Y-106690706D01*
X138322246Y-106695000D01*
X138277752Y-106695000D01*
X138245141Y-106690707D01*
X138202153Y-106679188D01*
X138171767Y-106666601D01*
X138157775Y-106658523D01*
X138142153Y-106649503D01*
X138142150Y-106649502D01*
X138074427Y-106620501D01*
X138074424Y-106620500D01*
X138018311Y-106604023D01*
X137971613Y-106594138D01*
X137971610Y-106594138D01*
X137955164Y-106595014D01*
X137857737Y-106600204D01*
X137789840Y-106616677D01*
X137789834Y-106616679D01*
X137707854Y-106649499D01*
X137707844Y-106649504D01*
X137678229Y-106666602D01*
X137647846Y-106679187D01*
X137604860Y-106690706D01*
X137572246Y-106695000D01*
X137527752Y-106695000D01*
X137495142Y-106690707D01*
X137452153Y-106679188D01*
X137421765Y-106666600D01*
X137389355Y-106647887D01*
X137389342Y-106647881D01*
X137314514Y-106616887D01*
X137314510Y-106616886D01*
X137314508Y-106616885D01*
X137252509Y-106600273D01*
X137252504Y-106600272D01*
X137252494Y-106600270D01*
X137172204Y-106589700D01*
X137172200Y-106589700D01*
X136486300Y-106589700D01*
X136418179Y-106569698D01*
X136371686Y-106516042D01*
X136360300Y-106463700D01*
X136360300Y-103563317D01*
X136380302Y-103495196D01*
X136433958Y-103448703D01*
X136504232Y-103438599D01*
X136549298Y-103454197D01*
X136566363Y-103464050D01*
X136720311Y-103505300D01*
X136720313Y-103505300D01*
X136879687Y-103505300D01*
X136879689Y-103505300D01*
X137033637Y-103464050D01*
X137171663Y-103384360D01*
X137284360Y-103271663D01*
X137364050Y-103133637D01*
X137405300Y-102979689D01*
X137405300Y-102820311D01*
X137364050Y-102666363D01*
X137364048Y-102666361D01*
X137361912Y-102658386D01*
X137362850Y-102658134D01*
X137355300Y-102620176D01*
X137355300Y-101182203D01*
X137375302Y-101114082D01*
X137392200Y-101093112D01*
X138027407Y-100457906D01*
X138100514Y-100331283D01*
X138138356Y-100190051D01*
X138138356Y-100043837D01*
X138138356Y-98450009D01*
X138158358Y-98381888D01*
X138212014Y-98335395D01*
X138282288Y-98325291D01*
X138296951Y-98328298D01*
X138344104Y-98340933D01*
X138344107Y-98340933D01*
X138503481Y-98340933D01*
X138503482Y-98340933D01*
X138564904Y-98324475D01*
X138571069Y-98324621D01*
X138576619Y-98321926D01*
X138606149Y-98325456D01*
G37*
G04 #@! TD.AperFunction*
G04 #@! TA.AperFunction,Conductor*
G36*
X140063812Y-99449579D02*
G01*
X140070395Y-99455708D01*
X141355649Y-100740962D01*
X141459038Y-100844351D01*
X141585662Y-100917458D01*
X141726893Y-100955300D01*
X144517797Y-100955300D01*
X144585918Y-100975302D01*
X144606892Y-100992205D01*
X145263066Y-101648379D01*
X145297092Y-101710691D01*
X145292027Y-101781506D01*
X145263187Y-101825370D01*
X145263661Y-101825817D01*
X145261486Y-101828122D01*
X145261482Y-101828127D01*
X145223555Y-101868350D01*
X145218639Y-101873565D01*
X145166955Y-101975208D01*
X145166955Y-101975209D01*
X145147271Y-102042245D01*
X145147267Y-102042262D01*
X145134700Y-102129668D01*
X145134700Y-102713700D01*
X145114698Y-102781821D01*
X145061042Y-102828314D01*
X145008700Y-102839700D01*
X143177791Y-102839700D01*
X143097498Y-102850270D01*
X143097491Y-102850272D01*
X143082339Y-102854332D01*
X143035492Y-102866884D01*
X142960650Y-102897885D01*
X142960645Y-102897887D01*
X142960639Y-102897890D01*
X142928227Y-102916603D01*
X142897847Y-102929187D01*
X142897842Y-102929189D01*
X142886092Y-102932337D01*
X142854860Y-102940706D01*
X142822250Y-102945000D01*
X142777752Y-102945000D01*
X142745142Y-102940707D01*
X142702153Y-102929188D01*
X142671765Y-102916600D01*
X142639355Y-102897887D01*
X142639342Y-102897881D01*
X142564514Y-102866887D01*
X142564510Y-102866886D01*
X142564508Y-102866885D01*
X142502509Y-102850273D01*
X142502504Y-102850272D01*
X142502494Y-102850270D01*
X142422204Y-102839700D01*
X142422200Y-102839700D01*
X141677800Y-102839700D01*
X141677791Y-102839700D01*
X141597498Y-102850270D01*
X141597491Y-102850272D01*
X141582339Y-102854332D01*
X141535492Y-102866884D01*
X141525386Y-102871070D01*
X141460650Y-102897884D01*
X141460646Y-102897886D01*
X141443368Y-102907862D01*
X141428227Y-102916603D01*
X141397843Y-102929189D01*
X141340381Y-102944586D01*
X141311569Y-102952306D01*
X141286905Y-102960028D01*
X141267496Y-102967008D01*
X141169287Y-103024496D01*
X141169282Y-103024500D01*
X141116485Y-103070249D01*
X141116484Y-103070250D01*
X141073640Y-103115689D01*
X141060410Y-103141707D01*
X141011703Y-103193361D01*
X140942802Y-103210483D01*
X140875582Y-103187635D01*
X140859002Y-103173689D01*
X140392205Y-102706892D01*
X140358179Y-102644580D01*
X140355300Y-102617797D01*
X140355300Y-101076894D01*
X140350989Y-101060804D01*
X140317458Y-100935662D01*
X140244351Y-100809038D01*
X140140962Y-100705649D01*
X139892205Y-100456892D01*
X139858179Y-100394580D01*
X139855300Y-100367797D01*
X139855300Y-99544803D01*
X139875302Y-99476682D01*
X139928958Y-99430189D01*
X139999232Y-99420085D01*
X140063812Y-99449579D01*
G37*
G04 #@! TD.AperFunction*
G04 #@! TA.AperFunction,Conductor*
G36*
X136945788Y-99643691D02*
G01*
X137002624Y-99686238D01*
X137027435Y-99752758D01*
X137027756Y-99761747D01*
X137027756Y-99834741D01*
X137007754Y-99902862D01*
X136990851Y-99923836D01*
X136459038Y-100455649D01*
X136407344Y-100507343D01*
X136355650Y-100559036D01*
X136355646Y-100559041D01*
X136282544Y-100685657D01*
X136282543Y-100685660D01*
X136282542Y-100685662D01*
X136246851Y-100818865D01*
X136244700Y-100826894D01*
X136244700Y-102620176D01*
X136241267Y-102649387D01*
X136238114Y-102662613D01*
X136235950Y-102666363D01*
X136194700Y-102820311D01*
X136194700Y-102844778D01*
X136191267Y-102859183D01*
X136180696Y-102877663D01*
X136174698Y-102898093D01*
X136163423Y-102907862D01*
X136156017Y-102920811D01*
X136137132Y-102930643D01*
X136121042Y-102944586D01*
X136106276Y-102946709D01*
X136093045Y-102953598D01*
X136071844Y-102951659D01*
X136050768Y-102954690D01*
X136036099Y-102951681D01*
X135952158Y-102929189D01*
X135921771Y-102916602D01*
X135893150Y-102900077D01*
X135825421Y-102871075D01*
X135825408Y-102871070D01*
X135768400Y-102854332D01*
X135721714Y-102844451D01*
X135721713Y-102844451D01*
X135607835Y-102850515D01*
X135538844Y-102867252D01*
X135538843Y-102867253D01*
X135456858Y-102900074D01*
X135456847Y-102900080D01*
X135428233Y-102916601D01*
X135397850Y-102929187D01*
X135397846Y-102929188D01*
X135354857Y-102940707D01*
X135322248Y-102945000D01*
X135277752Y-102945000D01*
X135245140Y-102940706D01*
X135202159Y-102929189D01*
X135171771Y-102916602D01*
X135143150Y-102900077D01*
X135075421Y-102871075D01*
X135075408Y-102871070D01*
X135018400Y-102854332D01*
X134971714Y-102844451D01*
X134971713Y-102844451D01*
X134857835Y-102850515D01*
X134788844Y-102867252D01*
X134788843Y-102867253D01*
X134706858Y-102900074D01*
X134706847Y-102900080D01*
X134678233Y-102916601D01*
X134647850Y-102929187D01*
X134647846Y-102929188D01*
X134604857Y-102940707D01*
X134572248Y-102945000D01*
X134527754Y-102945000D01*
X134495140Y-102940706D01*
X134452154Y-102929187D01*
X134421771Y-102916602D01*
X134393151Y-102900079D01*
X134389817Y-102898154D01*
X134324442Y-102871075D01*
X134314974Y-102867153D01*
X134293973Y-102861526D01*
X134251974Y-102850273D01*
X134251969Y-102850272D01*
X134251959Y-102850270D01*
X134171669Y-102839700D01*
X134171665Y-102839700D01*
X133449803Y-102839700D01*
X133381682Y-102819698D01*
X133335189Y-102766042D01*
X133325085Y-102695768D01*
X133354579Y-102631188D01*
X133360708Y-102624605D01*
X134743108Y-101242205D01*
X134805420Y-101208179D01*
X134832203Y-101205300D01*
X135123105Y-101205300D01*
X135123107Y-101205300D01*
X135264338Y-101167458D01*
X135390962Y-101094351D01*
X136812661Y-99672652D01*
X136874973Y-99638627D01*
X136945788Y-99643691D01*
G37*
G04 #@! TD.AperFunction*
G04 #@! TA.AperFunction,Conductor*
G36*
X134675411Y-114998607D02*
G01*
X134743301Y-115019369D01*
X134789191Y-115073540D01*
X134800000Y-115124599D01*
X134800000Y-117000000D01*
X151724000Y-117000000D01*
X151792121Y-117020002D01*
X151838614Y-117073658D01*
X151850000Y-117126000D01*
X151850000Y-122874000D01*
X151829998Y-122942121D01*
X151776342Y-122988614D01*
X151724000Y-123000000D01*
X125976000Y-123000000D01*
X125907879Y-122979998D01*
X125861386Y-122926342D01*
X125850000Y-122874000D01*
X125850000Y-115027415D01*
X125870002Y-114959294D01*
X125923658Y-114912801D01*
X125977405Y-114901423D01*
X134675411Y-114998607D01*
G37*
G04 #@! TD.AperFunction*
G04 #@! TA.AperFunction,Conductor*
G36*
X125242340Y-94270002D02*
G01*
X125288833Y-94323658D01*
X125300218Y-94375779D01*
X125303147Y-96059800D01*
X125309034Y-99444948D01*
X125289150Y-99513103D01*
X125235576Y-99559689D01*
X125215646Y-99566873D01*
X125130096Y-99589796D01*
X125130084Y-99589801D01*
X125029714Y-99647750D01*
X125029704Y-99647758D01*
X124947758Y-99729704D01*
X124947750Y-99729714D01*
X124889801Y-99830084D01*
X124889799Y-99830089D01*
X124859800Y-99942047D01*
X124859800Y-100057953D01*
X124869281Y-100093335D01*
X124889798Y-100169908D01*
X124889801Y-100169915D01*
X124947750Y-100270285D01*
X124947758Y-100270295D01*
X125029704Y-100352241D01*
X125029709Y-100352245D01*
X125029711Y-100352247D01*
X125029712Y-100352248D01*
X125029714Y-100352249D01*
X125096626Y-100390881D01*
X125145619Y-100442264D01*
X125159055Y-100511978D01*
X125132668Y-100577888D01*
X125096626Y-100609119D01*
X125029714Y-100647750D01*
X125029704Y-100647758D01*
X124947758Y-100729704D01*
X124947750Y-100729714D01*
X124889801Y-100830084D01*
X124889799Y-100830089D01*
X124859800Y-100942047D01*
X124859800Y-101057953D01*
X124860420Y-101060266D01*
X124889798Y-101169908D01*
X124889801Y-101169915D01*
X124947750Y-101270285D01*
X124947758Y-101270295D01*
X125029704Y-101352241D01*
X125029709Y-101352245D01*
X125029711Y-101352247D01*
X125029712Y-101352248D01*
X125029714Y-101352249D01*
X125096626Y-101390881D01*
X125145619Y-101442264D01*
X125159055Y-101511978D01*
X125132668Y-101577888D01*
X125096626Y-101609119D01*
X125029714Y-101647750D01*
X125029704Y-101647758D01*
X124947758Y-101729704D01*
X124947750Y-101729714D01*
X124889801Y-101830084D01*
X124889798Y-101830091D01*
X124872997Y-101892796D01*
X124859800Y-101942047D01*
X124859800Y-102057953D01*
X124877815Y-102125187D01*
X124889798Y-102169908D01*
X124889801Y-102169915D01*
X124947750Y-102270285D01*
X124947758Y-102270295D01*
X125029704Y-102352241D01*
X125029709Y-102352245D01*
X125029711Y-102352247D01*
X125130089Y-102410201D01*
X125221056Y-102434575D01*
X125281677Y-102471525D01*
X125312699Y-102535386D01*
X125314444Y-102556062D01*
X125316360Y-103658121D01*
X125296476Y-103726276D01*
X125242901Y-103772862D01*
X125172645Y-103783088D01*
X125108013Y-103753708D01*
X125101265Y-103747435D01*
X125030937Y-103677107D01*
X125030934Y-103677105D01*
X125030932Y-103677103D01*
X124868508Y-103559095D01*
X124689622Y-103467948D01*
X124498680Y-103405907D01*
X124300384Y-103374500D01*
X124099616Y-103374500D01*
X123901320Y-103405907D01*
X123901317Y-103405907D01*
X123901316Y-103405908D01*
X123710378Y-103467948D01*
X123710376Y-103467949D01*
X123531488Y-103559097D01*
X123369065Y-103677105D01*
X123369062Y-103677107D01*
X123227107Y-103819062D01*
X123227105Y-103819065D01*
X123109097Y-103981488D01*
X123017949Y-104160376D01*
X123017948Y-104160378D01*
X122958920Y-104342048D01*
X122955907Y-104351320D01*
X122924500Y-104549616D01*
X122924500Y-104553927D01*
X122924500Y-104750384D01*
X122955907Y-104948680D01*
X123017948Y-105139622D01*
X123109095Y-105318508D01*
X123227103Y-105480932D01*
X123227105Y-105480934D01*
X123227107Y-105480937D01*
X123369062Y-105622892D01*
X123369065Y-105622894D01*
X123369068Y-105622897D01*
X123531492Y-105740905D01*
X123710378Y-105832052D01*
X123901320Y-105894093D01*
X124099616Y-105925500D01*
X124099619Y-105925500D01*
X124300381Y-105925500D01*
X124300384Y-105925500D01*
X124498680Y-105894093D01*
X124689622Y-105832052D01*
X124868508Y-105740905D01*
X125030932Y-105622897D01*
X125104710Y-105549118D01*
X125167020Y-105515095D01*
X125237836Y-105520159D01*
X125294672Y-105562705D01*
X125319483Y-105629225D01*
X125319804Y-105637996D01*
X125323386Y-107697537D01*
X125303502Y-107765692D01*
X125249928Y-107812278D01*
X125179671Y-107822505D01*
X125158450Y-107817589D01*
X125067002Y-107787876D01*
X125067003Y-107787876D01*
X125066999Y-107787875D01*
X125066998Y-107787875D01*
X124889736Y-107759800D01*
X124710264Y-107759800D01*
X124639359Y-107771030D01*
X124532999Y-107787875D01*
X124362316Y-107843334D01*
X124202401Y-107924815D01*
X124057206Y-108030306D01*
X124057203Y-108030308D01*
X123930308Y-108157203D01*
X123930306Y-108157206D01*
X123824815Y-108302401D01*
X123743334Y-108462316D01*
X123687875Y-108632999D01*
X123685538Y-108647758D01*
X123659800Y-108810264D01*
X123659800Y-108989736D01*
X123674110Y-109080089D01*
X123687875Y-109167000D01*
X123743334Y-109337683D01*
X123743335Y-109337685D01*
X123815702Y-109479714D01*
X123824815Y-109497598D01*
X123848418Y-109530084D01*
X123930304Y-109642791D01*
X123930306Y-109642793D01*
X123930308Y-109642796D01*
X124057203Y-109769691D01*
X124057206Y-109769693D01*
X124057209Y-109769696D01*
X124202405Y-109875187D01*
X124362315Y-109956665D01*
X124533002Y-110012125D01*
X124710264Y-110040200D01*
X124710266Y-110040200D01*
X124889734Y-110040200D01*
X124889736Y-110040200D01*
X125066998Y-110012125D01*
X125162630Y-109981051D01*
X125233596Y-109979024D01*
X125294394Y-110015686D01*
X125325719Y-110079398D01*
X125327565Y-110100666D01*
X125335836Y-114856436D01*
X125315952Y-114924591D01*
X125262378Y-114971177D01*
X125192121Y-114981403D01*
X125177235Y-114978364D01*
X125107953Y-114959800D01*
X124992047Y-114959800D01*
X124932051Y-114975875D01*
X124880091Y-114989798D01*
X124880084Y-114989801D01*
X124779714Y-115047750D01*
X124779704Y-115047758D01*
X124697758Y-115129704D01*
X124697750Y-115129714D01*
X124639801Y-115230084D01*
X124639799Y-115230089D01*
X124609800Y-115342047D01*
X124609800Y-115457953D01*
X124626195Y-115519141D01*
X124639798Y-115569908D01*
X124639801Y-115569915D01*
X124697750Y-115670285D01*
X124697758Y-115670295D01*
X124779704Y-115752241D01*
X124779709Y-115752245D01*
X124779711Y-115752247D01*
X124880089Y-115810201D01*
X124992047Y-115840200D01*
X124992049Y-115840200D01*
X125107950Y-115840200D01*
X125107953Y-115840200D01*
X125179115Y-115821132D01*
X125250089Y-115822822D01*
X125308885Y-115862616D01*
X125336833Y-115927880D01*
X125337724Y-115942620D01*
X125346151Y-120787912D01*
X125326267Y-120856067D01*
X125272693Y-120902653D01*
X125202436Y-120912880D01*
X125137804Y-120883499D01*
X125131056Y-120877226D01*
X125030937Y-120777107D01*
X125030934Y-120777105D01*
X125030932Y-120777103D01*
X124905076Y-120685663D01*
X124868506Y-120659093D01*
X124864290Y-120656510D01*
X124864879Y-120655548D01*
X124817173Y-120610478D01*
X124800000Y-120546975D01*
X124800000Y-118000000D01*
X123074178Y-118000000D01*
X123006057Y-117979998D01*
X122959564Y-117926342D01*
X122949460Y-117856068D01*
X122957768Y-117825784D01*
X122960197Y-117819917D01*
X122960201Y-117819911D01*
X122990200Y-117707953D01*
X122990200Y-117592047D01*
X122960201Y-117480089D01*
X122902247Y-117379711D01*
X122902245Y-117379709D01*
X122902241Y-117379704D01*
X122820295Y-117297758D01*
X122820285Y-117297750D01*
X122719915Y-117239801D01*
X122719912Y-117239800D01*
X122719911Y-117239799D01*
X122719909Y-117239798D01*
X122719908Y-117239798D01*
X122689909Y-117231760D01*
X122607953Y-117209800D01*
X122492047Y-117209800D01*
X122432051Y-117225875D01*
X122380091Y-117239798D01*
X122380084Y-117239801D01*
X122279714Y-117297750D01*
X122279704Y-117297758D01*
X122197758Y-117379704D01*
X122197750Y-117379714D01*
X122139801Y-117480084D01*
X122139798Y-117480091D01*
X122120780Y-117551068D01*
X122109800Y-117592047D01*
X122109800Y-117707953D01*
X122137090Y-117809800D01*
X122139799Y-117819911D01*
X122142232Y-117825784D01*
X122149820Y-117896374D01*
X122118039Y-117959860D01*
X122056980Y-117996087D01*
X122025822Y-118000000D01*
X121724727Y-118000000D01*
X121656606Y-117979998D01*
X121635632Y-117963095D01*
X121570295Y-117897758D01*
X121570285Y-117897750D01*
X121469915Y-117839801D01*
X121469912Y-117839800D01*
X121469911Y-117839799D01*
X121469909Y-117839798D01*
X121469908Y-117839798D01*
X121417606Y-117825784D01*
X121357953Y-117809800D01*
X121242047Y-117809800D01*
X121182394Y-117825784D01*
X121130091Y-117839798D01*
X121130084Y-117839801D01*
X121029714Y-117897750D01*
X121029704Y-117897758D01*
X120964368Y-117963095D01*
X120902056Y-117997121D01*
X120875273Y-118000000D01*
X119974727Y-118000000D01*
X119906606Y-117979998D01*
X119885632Y-117963095D01*
X119820295Y-117897758D01*
X119820285Y-117897750D01*
X119719915Y-117839801D01*
X119719912Y-117839800D01*
X119719911Y-117839799D01*
X119719909Y-117839798D01*
X119719908Y-117839798D01*
X119667606Y-117825784D01*
X119607953Y-117809800D01*
X119492047Y-117809800D01*
X119432394Y-117825784D01*
X119380091Y-117839798D01*
X119380084Y-117839801D01*
X119279714Y-117897750D01*
X119279704Y-117897758D01*
X119214368Y-117963095D01*
X119152056Y-117997121D01*
X119125273Y-118000000D01*
X117974727Y-118000000D01*
X117906606Y-117979998D01*
X117885632Y-117963095D01*
X117820295Y-117897758D01*
X117820285Y-117897750D01*
X117719915Y-117839801D01*
X117719912Y-117839800D01*
X117719911Y-117839799D01*
X117719909Y-117839798D01*
X117719908Y-117839798D01*
X117667606Y-117825784D01*
X117607953Y-117809800D01*
X117492047Y-117809800D01*
X117432394Y-117825784D01*
X117380091Y-117839798D01*
X117380084Y-117839801D01*
X117279714Y-117897750D01*
X117279704Y-117897758D01*
X117214368Y-117963095D01*
X117152056Y-117997121D01*
X117125273Y-118000000D01*
X116474727Y-118000000D01*
X116406606Y-117979998D01*
X116385632Y-117963095D01*
X116320295Y-117897758D01*
X116320285Y-117897750D01*
X116219915Y-117839801D01*
X116219912Y-117839800D01*
X116219911Y-117839799D01*
X116219909Y-117839798D01*
X116219908Y-117839798D01*
X116167606Y-117825784D01*
X116107953Y-117809800D01*
X115992047Y-117809800D01*
X115932394Y-117825784D01*
X115880091Y-117839798D01*
X115880084Y-117839801D01*
X115779714Y-117897750D01*
X115779704Y-117897758D01*
X115714368Y-117963095D01*
X115652056Y-117997121D01*
X115625273Y-118000000D01*
X114724727Y-118000000D01*
X114656606Y-117979998D01*
X114635632Y-117963095D01*
X114570295Y-117897758D01*
X114570285Y-117897750D01*
X114469915Y-117839801D01*
X114469912Y-117839800D01*
X114469911Y-117839799D01*
X114469909Y-117839798D01*
X114469908Y-117839798D01*
X114417606Y-117825784D01*
X114357953Y-117809800D01*
X114242047Y-117809800D01*
X114182394Y-117825784D01*
X114130091Y-117839798D01*
X114130084Y-117839801D01*
X114029714Y-117897750D01*
X114029704Y-117897758D01*
X113964368Y-117963095D01*
X113902056Y-117997121D01*
X113875273Y-118000000D01*
X112974727Y-118000000D01*
X112906606Y-117979998D01*
X112885632Y-117963095D01*
X112820295Y-117897758D01*
X112820285Y-117897750D01*
X112719915Y-117839801D01*
X112719912Y-117839800D01*
X112719911Y-117839799D01*
X112719909Y-117839798D01*
X112719908Y-117839798D01*
X112667606Y-117825784D01*
X112607953Y-117809800D01*
X112492047Y-117809800D01*
X112432394Y-117825784D01*
X112380091Y-117839798D01*
X112380084Y-117839801D01*
X112279714Y-117897750D01*
X112279704Y-117897758D01*
X112214368Y-117963095D01*
X112152056Y-117997121D01*
X112125273Y-118000000D01*
X111224727Y-118000000D01*
X111156606Y-117979998D01*
X111135632Y-117963095D01*
X111070295Y-117897758D01*
X111070285Y-117897750D01*
X110969915Y-117839801D01*
X110969912Y-117839800D01*
X110969911Y-117839799D01*
X110969909Y-117839798D01*
X110969908Y-117839798D01*
X110917606Y-117825784D01*
X110857953Y-117809800D01*
X110742047Y-117809800D01*
X110682394Y-117825784D01*
X110630091Y-117839798D01*
X110630084Y-117839801D01*
X110529714Y-117897750D01*
X110529704Y-117897758D01*
X110464368Y-117963095D01*
X110402056Y-117997121D01*
X110375273Y-118000000D01*
X109724727Y-118000000D01*
X109656606Y-117979998D01*
X109635632Y-117963095D01*
X109570295Y-117897758D01*
X109570285Y-117897750D01*
X109469915Y-117839801D01*
X109469912Y-117839800D01*
X109469911Y-117839799D01*
X109469909Y-117839798D01*
X109469908Y-117839798D01*
X109417606Y-117825784D01*
X109357953Y-117809800D01*
X109242047Y-117809800D01*
X109182394Y-117825784D01*
X109130091Y-117839798D01*
X109130084Y-117839801D01*
X109029714Y-117897750D01*
X109029704Y-117897758D01*
X108964368Y-117963095D01*
X108902056Y-117997121D01*
X108875273Y-118000000D01*
X107724727Y-118000000D01*
X107656606Y-117979998D01*
X107635632Y-117963095D01*
X107570295Y-117897758D01*
X107570285Y-117897750D01*
X107469915Y-117839801D01*
X107469912Y-117839800D01*
X107469911Y-117839799D01*
X107469909Y-117839798D01*
X107469908Y-117839798D01*
X107417606Y-117825784D01*
X107357953Y-117809800D01*
X107242047Y-117809800D01*
X107182394Y-117825784D01*
X107130091Y-117839798D01*
X107130084Y-117839801D01*
X107029714Y-117897750D01*
X107029704Y-117897758D01*
X106964368Y-117963095D01*
X106902056Y-117997121D01*
X106875273Y-118000000D01*
X101967085Y-118000000D01*
X101898964Y-117979998D01*
X101852471Y-117926342D01*
X101841085Y-117874219D01*
X101841053Y-117856068D01*
X101839736Y-117098297D01*
X104116050Y-117098297D01*
X104116050Y-117214203D01*
X104122909Y-117239801D01*
X104146048Y-117326158D01*
X104146051Y-117326165D01*
X104204000Y-117426535D01*
X104204008Y-117426545D01*
X104285954Y-117508491D01*
X104285959Y-117508495D01*
X104285961Y-117508497D01*
X104386339Y-117566451D01*
X104498297Y-117596450D01*
X104498299Y-117596450D01*
X104614201Y-117596450D01*
X104614203Y-117596450D01*
X104726161Y-117566451D01*
X104826539Y-117508497D01*
X104908497Y-117426539D01*
X104966451Y-117326161D01*
X104996450Y-117214203D01*
X104996450Y-117098297D01*
X104966451Y-116986339D01*
X104908497Y-116885961D01*
X104908495Y-116885959D01*
X104908491Y-116885954D01*
X104826545Y-116804008D01*
X104826535Y-116804000D01*
X104726165Y-116746051D01*
X104726162Y-116746050D01*
X104726161Y-116746049D01*
X104726159Y-116746048D01*
X104726158Y-116746048D01*
X104696159Y-116738010D01*
X104614203Y-116716050D01*
X104498297Y-116716050D01*
X104438301Y-116732125D01*
X104386341Y-116746048D01*
X104386334Y-116746051D01*
X104285964Y-116804000D01*
X104285954Y-116804008D01*
X104204008Y-116885954D01*
X104204000Y-116885964D01*
X104146051Y-116986334D01*
X104146049Y-116986339D01*
X104116050Y-117098297D01*
X101839736Y-117098297D01*
X101839134Y-116752241D01*
X101838443Y-116354547D01*
X105959800Y-116354547D01*
X105959800Y-116470453D01*
X105981760Y-116552409D01*
X105989798Y-116582408D01*
X105989801Y-116582415D01*
X106047750Y-116682785D01*
X106047758Y-116682795D01*
X106129704Y-116764741D01*
X106129709Y-116764745D01*
X106129711Y-116764747D01*
X106230089Y-116822701D01*
X106342047Y-116852700D01*
X106342049Y-116852700D01*
X106457951Y-116852700D01*
X106457953Y-116852700D01*
X106569911Y-116822701D01*
X106670289Y-116764747D01*
X106752247Y-116682789D01*
X106810201Y-116582411D01*
X106840200Y-116470453D01*
X106840200Y-116354547D01*
X106836851Y-116342047D01*
X121480563Y-116342047D01*
X121480563Y-116457953D01*
X121502523Y-116539909D01*
X121510561Y-116569908D01*
X121510564Y-116569915D01*
X121568513Y-116670285D01*
X121568521Y-116670295D01*
X121650467Y-116752241D01*
X121650472Y-116752245D01*
X121650474Y-116752247D01*
X121750852Y-116810201D01*
X121862810Y-116840200D01*
X121862812Y-116840200D01*
X121978714Y-116840200D01*
X121978716Y-116840200D01*
X122090674Y-116810201D01*
X122191052Y-116752247D01*
X122273010Y-116670289D01*
X122330964Y-116569911D01*
X122360963Y-116457953D01*
X122360963Y-116342047D01*
X122330964Y-116230089D01*
X122273010Y-116129711D01*
X122273008Y-116129709D01*
X122273004Y-116129704D01*
X122191058Y-116047758D01*
X122191048Y-116047750D01*
X122090678Y-115989801D01*
X122090675Y-115989800D01*
X122090674Y-115989799D01*
X122090672Y-115989798D01*
X122090671Y-115989798D01*
X122060672Y-115981760D01*
X121978716Y-115959800D01*
X121862810Y-115959800D01*
X121802814Y-115975875D01*
X121750854Y-115989798D01*
X121750847Y-115989801D01*
X121650477Y-116047750D01*
X121650467Y-116047758D01*
X121568521Y-116129704D01*
X121568513Y-116129714D01*
X121510564Y-116230084D01*
X121510561Y-116230091D01*
X121507212Y-116242591D01*
X121480563Y-116342047D01*
X106836851Y-116342047D01*
X106810201Y-116242589D01*
X106752247Y-116142211D01*
X106752245Y-116142209D01*
X106752241Y-116142204D01*
X106670295Y-116060258D01*
X106670285Y-116060250D01*
X106569915Y-116002301D01*
X106569912Y-116002300D01*
X106569911Y-116002299D01*
X106569909Y-116002298D01*
X106569908Y-116002298D01*
X106539909Y-115994260D01*
X106457953Y-115972300D01*
X106342047Y-115972300D01*
X106282051Y-115988375D01*
X106230091Y-116002298D01*
X106230084Y-116002301D01*
X106129714Y-116060250D01*
X106129704Y-116060258D01*
X106047758Y-116142204D01*
X106047750Y-116142214D01*
X105989801Y-116242584D01*
X105989799Y-116242589D01*
X105959800Y-116354547D01*
X101838443Y-116354547D01*
X101838429Y-116346508D01*
X101836419Y-115190903D01*
X108710944Y-115190903D01*
X108710944Y-115306809D01*
X108732904Y-115388765D01*
X108740942Y-115418764D01*
X108740945Y-115418771D01*
X108798894Y-115519141D01*
X108798902Y-115519151D01*
X108880848Y-115601097D01*
X108880853Y-115601101D01*
X108880855Y-115601103D01*
X108981233Y-115659057D01*
X109093191Y-115689056D01*
X109093193Y-115689056D01*
X109209095Y-115689056D01*
X109209097Y-115689056D01*
X109321055Y-115659057D01*
X109421433Y-115601103D01*
X109503391Y-115519145D01*
X109561345Y-115418767D01*
X109591344Y-115306809D01*
X109591344Y-115190903D01*
X109561345Y-115078945D01*
X109509876Y-114989799D01*
X109503393Y-114978570D01*
X109503385Y-114978560D01*
X109421439Y-114896614D01*
X109421429Y-114896606D01*
X109321059Y-114838657D01*
X109321056Y-114838656D01*
X109321055Y-114838655D01*
X109321053Y-114838654D01*
X109321052Y-114838654D01*
X109291053Y-114830616D01*
X109209097Y-114808656D01*
X109093191Y-114808656D01*
X109033195Y-114824731D01*
X108981235Y-114838654D01*
X108981228Y-114838657D01*
X108880858Y-114896606D01*
X108880848Y-114896614D01*
X108798902Y-114978560D01*
X108798894Y-114978570D01*
X108740945Y-115078940D01*
X108740942Y-115078947D01*
X108721924Y-115149924D01*
X108710944Y-115190903D01*
X101836419Y-115190903D01*
X101836405Y-115182864D01*
X101834228Y-113930868D01*
X106008038Y-113930868D01*
X106008038Y-114046774D01*
X106029998Y-114128730D01*
X106038036Y-114158729D01*
X106038039Y-114158736D01*
X106095988Y-114259106D01*
X106095996Y-114259116D01*
X106177942Y-114341062D01*
X106177947Y-114341066D01*
X106177949Y-114341068D01*
X106278327Y-114399022D01*
X106390285Y-114429021D01*
X106390287Y-114429021D01*
X106506189Y-114429021D01*
X106506191Y-114429021D01*
X106618149Y-114399022D01*
X106718527Y-114341068D01*
X106800485Y-114259110D01*
X106858439Y-114158732D01*
X106888438Y-114046774D01*
X106888438Y-113942047D01*
X119980563Y-113942047D01*
X119980563Y-114057953D01*
X120002523Y-114139909D01*
X120010561Y-114169908D01*
X120010564Y-114169915D01*
X120068513Y-114270285D01*
X120068521Y-114270295D01*
X120084131Y-114285905D01*
X120118157Y-114348217D01*
X120113092Y-114419032D01*
X120084131Y-114464095D01*
X120068521Y-114479704D01*
X120068513Y-114479714D01*
X120010564Y-114580084D01*
X120010562Y-114580089D01*
X119980563Y-114692047D01*
X119980563Y-114807953D01*
X119988790Y-114838655D01*
X120010561Y-114919908D01*
X120010564Y-114919915D01*
X120068513Y-115020285D01*
X120068521Y-115020295D01*
X120150467Y-115102241D01*
X120150472Y-115102245D01*
X120150474Y-115102247D01*
X120150475Y-115102248D01*
X120150477Y-115102249D01*
X120221033Y-115142985D01*
X120250852Y-115160201D01*
X120362810Y-115190200D01*
X120362812Y-115190200D01*
X120478714Y-115190200D01*
X120478716Y-115190200D01*
X120590674Y-115160201D01*
X120691052Y-115102247D01*
X120773010Y-115020289D01*
X120830964Y-114919911D01*
X120860963Y-114807953D01*
X120860963Y-114692047D01*
X120830964Y-114580089D01*
X120773010Y-114479711D01*
X120773008Y-114479709D01*
X120773004Y-114479704D01*
X120757395Y-114464095D01*
X120723369Y-114401783D01*
X120728434Y-114330968D01*
X120757395Y-114285905D01*
X120773004Y-114270295D01*
X120773010Y-114270289D01*
X120830964Y-114169911D01*
X120860963Y-114057953D01*
X120860963Y-113942047D01*
X120830964Y-113830089D01*
X120813748Y-113800270D01*
X120773012Y-113729714D01*
X120773004Y-113729704D01*
X120691058Y-113647758D01*
X120691048Y-113647750D01*
X120590678Y-113589801D01*
X120590675Y-113589800D01*
X120590674Y-113589799D01*
X120590672Y-113589798D01*
X120590671Y-113589798D01*
X120548953Y-113578620D01*
X120478716Y-113559800D01*
X120362810Y-113559800D01*
X120302814Y-113575875D01*
X120250854Y-113589798D01*
X120250847Y-113589801D01*
X120150477Y-113647750D01*
X120150467Y-113647758D01*
X120068521Y-113729704D01*
X120068513Y-113729714D01*
X120010564Y-113830084D01*
X120010561Y-113830091D01*
X119991543Y-113901068D01*
X119980563Y-113942047D01*
X106888438Y-113942047D01*
X106888438Y-113930868D01*
X106858439Y-113818910D01*
X106806941Y-113729714D01*
X106800487Y-113718535D01*
X106800479Y-113718525D01*
X106718533Y-113636579D01*
X106718523Y-113636571D01*
X106618153Y-113578622D01*
X106618150Y-113578621D01*
X106618149Y-113578620D01*
X106618147Y-113578619D01*
X106618146Y-113578619D01*
X106585661Y-113569915D01*
X106506191Y-113548621D01*
X106390285Y-113548621D01*
X106330289Y-113564696D01*
X106278329Y-113578619D01*
X106278322Y-113578622D01*
X106177952Y-113636571D01*
X106177942Y-113636579D01*
X106095996Y-113718525D01*
X106095988Y-113718535D01*
X106038039Y-113818905D01*
X106038036Y-113818912D01*
X106035041Y-113830091D01*
X106008038Y-113930868D01*
X101834228Y-113930868D01*
X101834214Y-113922829D01*
X101833204Y-113342047D01*
X109459800Y-113342047D01*
X109459800Y-113457953D01*
X109481760Y-113539909D01*
X109489798Y-113569908D01*
X109489801Y-113569915D01*
X109547750Y-113670285D01*
X109547758Y-113670295D01*
X109629704Y-113752241D01*
X109629709Y-113752245D01*
X109629711Y-113752247D01*
X109730089Y-113810201D01*
X109842047Y-113840200D01*
X109842049Y-113840200D01*
X109957951Y-113840200D01*
X109957953Y-113840200D01*
X110069911Y-113810201D01*
X110170289Y-113752247D01*
X110252247Y-113670289D01*
X110310201Y-113569911D01*
X110340200Y-113457953D01*
X110340200Y-113342047D01*
X110310201Y-113230089D01*
X110275455Y-113169908D01*
X110252249Y-113129714D01*
X110252241Y-113129704D01*
X110170295Y-113047758D01*
X110170282Y-113047748D01*
X110161899Y-113042908D01*
X110161898Y-113042908D01*
X110069915Y-112989801D01*
X110069912Y-112989800D01*
X110069911Y-112989799D01*
X110069909Y-112989798D01*
X110069908Y-112989798D01*
X110039909Y-112981760D01*
X109957953Y-112959800D01*
X109842047Y-112959800D01*
X109782051Y-112975875D01*
X109730091Y-112989798D01*
X109730084Y-112989801D01*
X109629714Y-113047750D01*
X109629704Y-113047758D01*
X109547758Y-113129704D01*
X109547750Y-113129714D01*
X109489801Y-113230084D01*
X109489798Y-113230091D01*
X109479027Y-113270289D01*
X109459800Y-113342047D01*
X101833204Y-113342047D01*
X101833190Y-113334008D01*
X101832508Y-112942047D01*
X111359800Y-112942047D01*
X111359800Y-113057953D01*
X111379028Y-113129714D01*
X111389798Y-113169908D01*
X111389801Y-113169915D01*
X111447750Y-113270285D01*
X111447758Y-113270295D01*
X111529704Y-113352241D01*
X111529709Y-113352245D01*
X111529711Y-113352247D01*
X111630089Y-113410201D01*
X111742047Y-113440200D01*
X111742049Y-113440200D01*
X111857951Y-113440200D01*
X111857953Y-113440200D01*
X111969911Y-113410201D01*
X112070289Y-113352247D01*
X112152247Y-113270289D01*
X112210201Y-113169911D01*
X112240200Y-113057953D01*
X112240200Y-112942047D01*
X113109800Y-112942047D01*
X113109800Y-113057953D01*
X113129028Y-113129714D01*
X113139798Y-113169908D01*
X113139801Y-113169915D01*
X113197750Y-113270285D01*
X113197758Y-113270295D01*
X113279704Y-113352241D01*
X113279709Y-113352245D01*
X113279711Y-113352247D01*
X113380089Y-113410201D01*
X113492047Y-113440200D01*
X113492049Y-113440200D01*
X113607951Y-113440200D01*
X113607953Y-113440200D01*
X113719911Y-113410201D01*
X113820289Y-113352247D01*
X113902247Y-113270289D01*
X113960201Y-113169911D01*
X113990200Y-113057953D01*
X113990200Y-112942047D01*
X114609800Y-112942047D01*
X114609800Y-113057953D01*
X114629028Y-113129714D01*
X114639798Y-113169908D01*
X114639801Y-113169915D01*
X114697750Y-113270285D01*
X114697758Y-113270295D01*
X114779704Y-113352241D01*
X114779709Y-113352245D01*
X114779711Y-113352247D01*
X114880089Y-113410201D01*
X114992047Y-113440200D01*
X114992049Y-113440200D01*
X115107951Y-113440200D01*
X115107953Y-113440200D01*
X115219911Y-113410201D01*
X115320289Y-113352247D01*
X115402247Y-113270289D01*
X115460201Y-113169911D01*
X115490200Y-113057953D01*
X115490200Y-112942047D01*
X115460201Y-112830089D01*
X115409370Y-112742048D01*
X115409369Y-112742047D01*
X116130563Y-112742047D01*
X116130563Y-112857953D01*
X116152523Y-112939909D01*
X116160561Y-112969908D01*
X116160564Y-112969915D01*
X116218513Y-113070285D01*
X116218521Y-113070295D01*
X116300467Y-113152241D01*
X116300472Y-113152245D01*
X116300474Y-113152247D01*
X116300475Y-113152248D01*
X116300477Y-113152249D01*
X116331075Y-113169915D01*
X116400852Y-113210201D01*
X116512810Y-113240200D01*
X116512812Y-113240200D01*
X116628714Y-113240200D01*
X116628716Y-113240200D01*
X116740674Y-113210201D01*
X116841052Y-113152247D01*
X116923010Y-113070289D01*
X116980964Y-112969911D01*
X117010963Y-112857953D01*
X117010963Y-112742047D01*
X116980964Y-112630089D01*
X116923010Y-112529711D01*
X116923008Y-112529709D01*
X116923004Y-112529704D01*
X116841058Y-112447758D01*
X116841048Y-112447750D01*
X116740678Y-112389801D01*
X116740675Y-112389800D01*
X116740674Y-112389799D01*
X116740672Y-112389798D01*
X116740671Y-112389798D01*
X116710672Y-112381760D01*
X116628716Y-112359800D01*
X116512810Y-112359800D01*
X116452814Y-112375875D01*
X116400854Y-112389798D01*
X116400847Y-112389801D01*
X116300477Y-112447750D01*
X116300467Y-112447758D01*
X116218521Y-112529704D01*
X116218513Y-112529714D01*
X116160564Y-112630084D01*
X116160561Y-112630091D01*
X116141543Y-112701068D01*
X116130563Y-112742047D01*
X115409369Y-112742047D01*
X115402249Y-112729714D01*
X115402241Y-112729704D01*
X115320295Y-112647758D01*
X115320285Y-112647750D01*
X115219915Y-112589801D01*
X115219912Y-112589800D01*
X115219911Y-112589799D01*
X115219909Y-112589798D01*
X115219908Y-112589798D01*
X115189909Y-112581760D01*
X115107953Y-112559800D01*
X114992047Y-112559800D01*
X114932051Y-112575875D01*
X114880091Y-112589798D01*
X114880084Y-112589801D01*
X114779714Y-112647750D01*
X114779704Y-112647758D01*
X114697758Y-112729704D01*
X114697750Y-112729714D01*
X114639801Y-112830084D01*
X114639799Y-112830089D01*
X114609800Y-112942047D01*
X113990200Y-112942047D01*
X113960201Y-112830089D01*
X113909370Y-112742048D01*
X113902249Y-112729714D01*
X113902241Y-112729704D01*
X113820295Y-112647758D01*
X113820285Y-112647750D01*
X113719915Y-112589801D01*
X113719912Y-112589800D01*
X113719911Y-112589799D01*
X113719909Y-112589798D01*
X113719908Y-112589798D01*
X113689909Y-112581760D01*
X113607953Y-112559800D01*
X113492047Y-112559800D01*
X113432051Y-112575875D01*
X113380091Y-112589798D01*
X113380084Y-112589801D01*
X113279714Y-112647750D01*
X113279704Y-112647758D01*
X113197758Y-112729704D01*
X113197750Y-112729714D01*
X113139801Y-112830084D01*
X113139799Y-112830089D01*
X113109800Y-112942047D01*
X112240200Y-112942047D01*
X112210201Y-112830089D01*
X112159370Y-112742048D01*
X112152249Y-112729714D01*
X112152241Y-112729704D01*
X112070295Y-112647758D01*
X112070285Y-112647750D01*
X111969915Y-112589801D01*
X111969912Y-112589800D01*
X111969911Y-112589799D01*
X111969909Y-112589798D01*
X111969908Y-112589798D01*
X111939909Y-112581760D01*
X111857953Y-112559800D01*
X111742047Y-112559800D01*
X111682051Y-112575875D01*
X111630091Y-112589798D01*
X111630084Y-112589801D01*
X111529714Y-112647750D01*
X111529704Y-112647758D01*
X111447758Y-112729704D01*
X111447750Y-112729714D01*
X111389801Y-112830084D01*
X111389799Y-112830089D01*
X111359800Y-112942047D01*
X101832508Y-112942047D01*
X101828334Y-110542047D01*
X102259800Y-110542047D01*
X102259800Y-110657953D01*
X102279028Y-110729714D01*
X102289798Y-110769908D01*
X102289801Y-110769915D01*
X102347750Y-110870285D01*
X102347758Y-110870295D01*
X102429704Y-110952241D01*
X102429709Y-110952245D01*
X102429711Y-110952247D01*
X102429712Y-110952248D01*
X102429714Y-110952249D01*
X102479460Y-110980970D01*
X102530089Y-111010201D01*
X102642047Y-111040200D01*
X102642049Y-111040200D01*
X102757951Y-111040200D01*
X102757953Y-111040200D01*
X102869911Y-111010201D01*
X102920540Y-110980970D01*
X105766282Y-110980970D01*
X105766282Y-111096876D01*
X105779916Y-111147758D01*
X105796280Y-111208831D01*
X105796283Y-111208838D01*
X105854232Y-111309208D01*
X105854240Y-111309218D01*
X105936186Y-111391164D01*
X105936191Y-111391168D01*
X105936193Y-111391170D01*
X105936194Y-111391171D01*
X105936196Y-111391172D01*
X105985973Y-111419911D01*
X106036571Y-111449124D01*
X106148529Y-111479123D01*
X106148531Y-111479123D01*
X106264433Y-111479123D01*
X106264435Y-111479123D01*
X106376393Y-111449124D01*
X106475252Y-111392047D01*
X107759800Y-111392047D01*
X107759800Y-111507953D01*
X107781760Y-111589909D01*
X107789798Y-111619908D01*
X107789801Y-111619915D01*
X107847750Y-111720285D01*
X107847758Y-111720295D01*
X107929704Y-111802241D01*
X107929709Y-111802245D01*
X107929711Y-111802247D01*
X108030089Y-111860201D01*
X108142047Y-111890200D01*
X108142049Y-111890200D01*
X108257951Y-111890200D01*
X108257953Y-111890200D01*
X108369911Y-111860201D01*
X108470289Y-111802247D01*
X108552247Y-111720289D01*
X108610201Y-111619911D01*
X108640200Y-111507953D01*
X108640200Y-111392047D01*
X108610201Y-111280089D01*
X108569064Y-111208838D01*
X108559370Y-111192047D01*
X111359800Y-111192047D01*
X111359800Y-111307953D01*
X111371667Y-111352241D01*
X111389798Y-111419908D01*
X111389801Y-111419915D01*
X111447750Y-111520285D01*
X111447758Y-111520295D01*
X111529704Y-111602241D01*
X111529709Y-111602245D01*
X111529711Y-111602247D01*
X111529712Y-111602248D01*
X111529714Y-111602249D01*
X111575468Y-111628665D01*
X111630089Y-111660201D01*
X111742047Y-111690200D01*
X111742049Y-111690200D01*
X111857951Y-111690200D01*
X111857953Y-111690200D01*
X111969911Y-111660201D01*
X112070289Y-111602247D01*
X112152247Y-111520289D01*
X112210201Y-111419911D01*
X112240200Y-111307953D01*
X112240200Y-111192047D01*
X113109800Y-111192047D01*
X113109800Y-111307953D01*
X113121667Y-111352241D01*
X113139798Y-111419908D01*
X113139801Y-111419915D01*
X113197750Y-111520285D01*
X113197758Y-111520295D01*
X113279704Y-111602241D01*
X113279709Y-111602245D01*
X113279711Y-111602247D01*
X113279712Y-111602248D01*
X113279714Y-111602249D01*
X113325468Y-111628665D01*
X113380089Y-111660201D01*
X113492047Y-111690200D01*
X113492049Y-111690200D01*
X113607951Y-111690200D01*
X113607953Y-111690200D01*
X113719911Y-111660201D01*
X113820289Y-111602247D01*
X113902247Y-111520289D01*
X113960201Y-111419911D01*
X113990200Y-111307953D01*
X113990200Y-111192047D01*
X114609800Y-111192047D01*
X114609800Y-111307953D01*
X114621667Y-111352241D01*
X114639798Y-111419908D01*
X114639801Y-111419915D01*
X114697750Y-111520285D01*
X114697758Y-111520295D01*
X114779704Y-111602241D01*
X114779709Y-111602245D01*
X114779711Y-111602247D01*
X114779712Y-111602248D01*
X114779714Y-111602249D01*
X114825468Y-111628665D01*
X114880089Y-111660201D01*
X114992047Y-111690200D01*
X114992049Y-111690200D01*
X115107951Y-111690200D01*
X115107953Y-111690200D01*
X115219911Y-111660201D01*
X115320289Y-111602247D01*
X115402247Y-111520289D01*
X115447421Y-111442047D01*
X116130563Y-111442047D01*
X116130563Y-111557953D01*
X116142430Y-111602241D01*
X116160561Y-111669908D01*
X116160564Y-111669915D01*
X116218513Y-111770285D01*
X116218521Y-111770295D01*
X116300467Y-111852241D01*
X116300472Y-111852245D01*
X116300474Y-111852247D01*
X116300475Y-111852248D01*
X116300477Y-111852249D01*
X116366210Y-111890200D01*
X116400852Y-111910201D01*
X116512810Y-111940200D01*
X116512812Y-111940200D01*
X116628714Y-111940200D01*
X116628716Y-111940200D01*
X116740674Y-111910201D01*
X116841052Y-111852247D01*
X116852298Y-111841001D01*
X118931154Y-111841001D01*
X118931154Y-111956907D01*
X118953114Y-112038863D01*
X118961152Y-112068862D01*
X118961155Y-112068869D01*
X119019104Y-112169239D01*
X119019112Y-112169249D01*
X119101058Y-112251195D01*
X119101063Y-112251199D01*
X119101065Y-112251201D01*
X119201443Y-112309155D01*
X119313401Y-112339154D01*
X119313403Y-112339154D01*
X119429305Y-112339154D01*
X119429307Y-112339154D01*
X119541265Y-112309155D01*
X119641643Y-112251201D01*
X119723601Y-112169243D01*
X119781555Y-112068865D01*
X119811554Y-111956907D01*
X119811554Y-111841001D01*
X119781555Y-111729043D01*
X119723601Y-111628665D01*
X119723599Y-111628663D01*
X119723595Y-111628658D01*
X119708706Y-111613769D01*
X119674680Y-111551457D01*
X119679745Y-111480642D01*
X119722292Y-111423806D01*
X119738049Y-111414833D01*
X119737759Y-111414330D01*
X119744911Y-111410201D01*
X119845289Y-111352247D01*
X119927247Y-111270289D01*
X119985201Y-111169911D01*
X120015200Y-111057953D01*
X120015200Y-110942047D01*
X119985201Y-110830089D01*
X119949721Y-110768637D01*
X119927249Y-110729714D01*
X119927241Y-110729704D01*
X119845295Y-110647758D01*
X119845285Y-110647750D01*
X119744915Y-110589801D01*
X119744912Y-110589800D01*
X119744911Y-110589799D01*
X119744909Y-110589798D01*
X119744908Y-110589798D01*
X119714909Y-110581760D01*
X119632953Y-110559800D01*
X119517047Y-110559800D01*
X119457051Y-110575875D01*
X119405091Y-110589798D01*
X119405084Y-110589801D01*
X119304714Y-110647750D01*
X119304704Y-110647758D01*
X119222758Y-110729704D01*
X119222750Y-110729714D01*
X119164801Y-110830084D01*
X119164798Y-110830091D01*
X119146667Y-110897758D01*
X119134800Y-110942047D01*
X119134800Y-111057953D01*
X119145466Y-111097758D01*
X119164798Y-111169908D01*
X119164801Y-111169915D01*
X119222750Y-111270285D01*
X119222758Y-111270295D01*
X119237647Y-111285184D01*
X119271673Y-111347496D01*
X119266608Y-111418311D01*
X119224061Y-111475147D01*
X119208305Y-111484122D01*
X119208595Y-111484624D01*
X119101068Y-111546704D01*
X119101058Y-111546712D01*
X119019112Y-111628658D01*
X119019104Y-111628668D01*
X118961155Y-111729038D01*
X118961152Y-111729045D01*
X118942134Y-111800022D01*
X118931154Y-111841001D01*
X116852298Y-111841001D01*
X116923010Y-111770289D01*
X116980964Y-111669911D01*
X117010963Y-111557953D01*
X117010963Y-111442047D01*
X116980964Y-111330089D01*
X116952093Y-111280084D01*
X116923012Y-111229714D01*
X116923004Y-111229704D01*
X116841058Y-111147758D01*
X116841048Y-111147750D01*
X116740678Y-111089801D01*
X116740675Y-111089800D01*
X116740674Y-111089799D01*
X116740672Y-111089798D01*
X116740671Y-111089798D01*
X116704417Y-111080084D01*
X116628716Y-111059800D01*
X116512810Y-111059800D01*
X116452814Y-111075875D01*
X116400854Y-111089798D01*
X116400847Y-111089801D01*
X116300477Y-111147750D01*
X116300467Y-111147758D01*
X116218521Y-111229704D01*
X116218513Y-111229714D01*
X116160564Y-111330084D01*
X116160561Y-111330091D01*
X116154624Y-111352249D01*
X116130563Y-111442047D01*
X115447421Y-111442047D01*
X115460201Y-111419911D01*
X115490200Y-111307953D01*
X115490200Y-111192047D01*
X115460201Y-111080089D01*
X115419619Y-111009800D01*
X115402249Y-110979714D01*
X115402241Y-110979704D01*
X115320295Y-110897758D01*
X115320285Y-110897750D01*
X115219915Y-110839801D01*
X115219912Y-110839800D01*
X115219911Y-110839799D01*
X115219909Y-110839798D01*
X115219908Y-110839798D01*
X115183654Y-110830084D01*
X115107953Y-110809800D01*
X114992047Y-110809800D01*
X114932051Y-110825875D01*
X114880091Y-110839798D01*
X114880084Y-110839801D01*
X114779714Y-110897750D01*
X114779704Y-110897758D01*
X114697758Y-110979704D01*
X114697750Y-110979714D01*
X114639801Y-111080084D01*
X114639798Y-111080091D01*
X114621667Y-111147758D01*
X114609800Y-111192047D01*
X113990200Y-111192047D01*
X113960201Y-111080089D01*
X113919619Y-111009800D01*
X113902249Y-110979714D01*
X113902241Y-110979704D01*
X113820295Y-110897758D01*
X113820285Y-110897750D01*
X113719915Y-110839801D01*
X113719912Y-110839800D01*
X113719911Y-110839799D01*
X113719909Y-110839798D01*
X113719908Y-110839798D01*
X113683654Y-110830084D01*
X113607953Y-110809800D01*
X113492047Y-110809800D01*
X113432051Y-110825875D01*
X113380091Y-110839798D01*
X113380084Y-110839801D01*
X113279714Y-110897750D01*
X113279704Y-110897758D01*
X113197758Y-110979704D01*
X113197750Y-110979714D01*
X113139801Y-111080084D01*
X113139798Y-111080091D01*
X113121667Y-111147758D01*
X113109800Y-111192047D01*
X112240200Y-111192047D01*
X112210201Y-111080089D01*
X112169619Y-111009800D01*
X112152249Y-110979714D01*
X112152241Y-110979704D01*
X112070295Y-110897758D01*
X112070285Y-110897750D01*
X111969915Y-110839801D01*
X111969912Y-110839800D01*
X111969911Y-110839799D01*
X111969909Y-110839798D01*
X111969908Y-110839798D01*
X111933654Y-110830084D01*
X111857953Y-110809800D01*
X111742047Y-110809800D01*
X111682051Y-110825875D01*
X111630091Y-110839798D01*
X111630084Y-110839801D01*
X111529714Y-110897750D01*
X111529704Y-110897758D01*
X111447758Y-110979704D01*
X111447750Y-110979714D01*
X111389801Y-111080084D01*
X111389798Y-111080091D01*
X111371667Y-111147758D01*
X111359800Y-111192047D01*
X108559370Y-111192047D01*
X108552249Y-111179714D01*
X108552241Y-111179704D01*
X108470295Y-111097758D01*
X108470285Y-111097750D01*
X108369915Y-111039801D01*
X108369912Y-111039800D01*
X108369911Y-111039799D01*
X108369909Y-111039798D01*
X108369908Y-111039798D01*
X108339909Y-111031760D01*
X108257953Y-111009800D01*
X108142047Y-111009800D01*
X108082051Y-111025875D01*
X108030091Y-111039798D01*
X108030084Y-111039801D01*
X107929714Y-111097750D01*
X107929704Y-111097758D01*
X107847758Y-111179704D01*
X107847750Y-111179714D01*
X107789801Y-111280084D01*
X107789798Y-111280091D01*
X107776401Y-111330091D01*
X107759800Y-111392047D01*
X106475252Y-111392047D01*
X106476771Y-111391170D01*
X106558729Y-111309212D01*
X106616683Y-111208834D01*
X106646682Y-111096876D01*
X106646682Y-110980970D01*
X106616683Y-110869012D01*
X106599222Y-110838769D01*
X106582484Y-110769774D01*
X106605704Y-110702682D01*
X106645337Y-110666652D01*
X106670289Y-110652247D01*
X106752247Y-110570289D01*
X106810201Y-110469911D01*
X106840200Y-110357953D01*
X106840200Y-110242047D01*
X106810201Y-110130089D01*
X106780934Y-110079398D01*
X106752249Y-110029714D01*
X106752241Y-110029704D01*
X106670295Y-109947758D01*
X106670285Y-109947750D01*
X106569915Y-109889801D01*
X106569912Y-109889800D01*
X106569911Y-109889799D01*
X106569909Y-109889798D01*
X106569908Y-109889798D01*
X106515378Y-109875187D01*
X106457953Y-109859800D01*
X106342047Y-109859800D01*
X106230089Y-109889799D01*
X106158093Y-109931366D01*
X106158091Y-109931367D01*
X106129714Y-109947750D01*
X106129704Y-109947758D01*
X106047758Y-110029704D01*
X106047750Y-110029714D01*
X105989801Y-110130084D01*
X105989798Y-110130091D01*
X105973800Y-110189798D01*
X105959800Y-110242047D01*
X105959800Y-110357953D01*
X105979127Y-110430084D01*
X105989798Y-110469908D01*
X105989800Y-110469913D01*
X106007260Y-110500154D01*
X106023997Y-110569149D01*
X106000776Y-110636241D01*
X105961142Y-110672271D01*
X105936196Y-110686673D01*
X105936186Y-110686681D01*
X105854240Y-110768627D01*
X105854232Y-110768637D01*
X105796283Y-110869007D01*
X105796280Y-110869014D01*
X105777262Y-110939991D01*
X105766282Y-110980970D01*
X102920540Y-110980970D01*
X102970289Y-110952247D01*
X103052247Y-110870289D01*
X103110201Y-110769911D01*
X103140200Y-110657953D01*
X103140200Y-110542047D01*
X103110201Y-110430089D01*
X103052247Y-110329711D01*
X103052245Y-110329709D01*
X103052241Y-110329704D01*
X102970295Y-110247758D01*
X102970285Y-110247750D01*
X102869915Y-110189801D01*
X102869912Y-110189800D01*
X102869911Y-110189799D01*
X102869909Y-110189798D01*
X102869908Y-110189798D01*
X102839909Y-110181760D01*
X102757953Y-110159800D01*
X102642047Y-110159800D01*
X102582051Y-110175875D01*
X102530091Y-110189798D01*
X102530084Y-110189801D01*
X102429714Y-110247750D01*
X102429704Y-110247758D01*
X102347758Y-110329704D01*
X102347750Y-110329714D01*
X102289801Y-110430084D01*
X102289798Y-110430091D01*
X102279027Y-110470289D01*
X102259800Y-110542047D01*
X101828334Y-110542047D01*
X101828320Y-110534008D01*
X101826855Y-109692047D01*
X111359800Y-109692047D01*
X111359800Y-109807953D01*
X111377815Y-109875187D01*
X111389798Y-109919908D01*
X111389801Y-109919915D01*
X111447750Y-110020285D01*
X111447758Y-110020295D01*
X111529704Y-110102241D01*
X111529709Y-110102245D01*
X111529711Y-110102247D01*
X111529712Y-110102248D01*
X111529714Y-110102249D01*
X111595447Y-110140200D01*
X111630089Y-110160201D01*
X111742047Y-110190200D01*
X111742049Y-110190200D01*
X111857951Y-110190200D01*
X111857953Y-110190200D01*
X111969911Y-110160201D01*
X112070289Y-110102247D01*
X112152247Y-110020289D01*
X112210201Y-109919911D01*
X112240200Y-109807953D01*
X112240200Y-109692047D01*
X113109800Y-109692047D01*
X113109800Y-109807953D01*
X113127815Y-109875187D01*
X113139798Y-109919908D01*
X113139801Y-109919915D01*
X113197750Y-110020285D01*
X113197758Y-110020295D01*
X113279704Y-110102241D01*
X113279709Y-110102245D01*
X113279711Y-110102247D01*
X113279712Y-110102248D01*
X113279714Y-110102249D01*
X113345447Y-110140200D01*
X113380089Y-110160201D01*
X113492047Y-110190200D01*
X113492049Y-110190200D01*
X113607951Y-110190200D01*
X113607953Y-110190200D01*
X113719911Y-110160201D01*
X113820289Y-110102247D01*
X113902247Y-110020289D01*
X113960201Y-109919911D01*
X113990200Y-109807953D01*
X113990200Y-109692047D01*
X114609800Y-109692047D01*
X114609800Y-109807953D01*
X114627815Y-109875187D01*
X114639798Y-109919908D01*
X114639801Y-109919915D01*
X114697750Y-110020285D01*
X114697758Y-110020295D01*
X114779704Y-110102241D01*
X114779709Y-110102245D01*
X114779711Y-110102247D01*
X114779712Y-110102248D01*
X114779714Y-110102249D01*
X114845447Y-110140200D01*
X114880089Y-110160201D01*
X114992047Y-110190200D01*
X114992049Y-110190200D01*
X115107951Y-110190200D01*
X115107953Y-110190200D01*
X115219911Y-110160201D01*
X115251354Y-110142047D01*
X116130563Y-110142047D01*
X116130563Y-110257953D01*
X116149791Y-110329714D01*
X116160561Y-110369908D01*
X116160564Y-110369915D01*
X116218513Y-110470285D01*
X116218521Y-110470295D01*
X116300467Y-110552241D01*
X116300472Y-110552245D01*
X116300474Y-110552247D01*
X116300475Y-110552248D01*
X116300477Y-110552249D01*
X116365513Y-110589798D01*
X116400852Y-110610201D01*
X116512810Y-110640200D01*
X116512812Y-110640200D01*
X116628714Y-110640200D01*
X116628716Y-110640200D01*
X116740674Y-110610201D01*
X116841052Y-110552247D01*
X116923010Y-110470289D01*
X116980964Y-110369911D01*
X117010963Y-110257953D01*
X117010963Y-110142047D01*
X116980964Y-110030089D01*
X116951481Y-109979024D01*
X116923012Y-109929714D01*
X116923004Y-109929704D01*
X116841058Y-109847758D01*
X116841048Y-109847750D01*
X116740678Y-109789801D01*
X116740675Y-109789800D01*
X116740674Y-109789799D01*
X116740672Y-109789798D01*
X116740671Y-109789798D01*
X116710672Y-109781760D01*
X116628716Y-109759800D01*
X116512810Y-109759800D01*
X116475878Y-109769696D01*
X116400854Y-109789798D01*
X116400847Y-109789801D01*
X116300477Y-109847750D01*
X116300467Y-109847758D01*
X116218521Y-109929704D01*
X116218513Y-109929714D01*
X116160564Y-110030084D01*
X116160561Y-110030091D01*
X116154624Y-110052249D01*
X116130563Y-110142047D01*
X115251354Y-110142047D01*
X115320289Y-110102247D01*
X115343138Y-110079398D01*
X115377843Y-110044694D01*
X115402241Y-110020295D01*
X115402247Y-110020289D01*
X115460201Y-109919911D01*
X115490200Y-109807953D01*
X115490200Y-109692047D01*
X115476803Y-109642047D01*
X119030563Y-109642047D01*
X119030563Y-109757953D01*
X119052523Y-109839909D01*
X119060561Y-109869908D01*
X119060564Y-109869915D01*
X119118513Y-109970285D01*
X119118521Y-109970295D01*
X119200467Y-110052241D01*
X119200472Y-110052245D01*
X119200474Y-110052247D01*
X119300852Y-110110201D01*
X119412810Y-110140200D01*
X119412812Y-110140200D01*
X119528714Y-110140200D01*
X119528716Y-110140200D01*
X119640674Y-110110201D01*
X119741052Y-110052247D01*
X119823010Y-109970289D01*
X119880964Y-109869911D01*
X119910963Y-109757953D01*
X119910963Y-109642047D01*
X119880964Y-109530089D01*
X119823010Y-109429711D01*
X119823008Y-109429709D01*
X119823004Y-109429704D01*
X119741058Y-109347758D01*
X119741048Y-109347750D01*
X119640678Y-109289801D01*
X119640675Y-109289800D01*
X119640674Y-109289799D01*
X119640672Y-109289798D01*
X119640671Y-109289798D01*
X119610672Y-109281760D01*
X119528716Y-109259800D01*
X119412810Y-109259800D01*
X119352814Y-109275875D01*
X119300854Y-109289798D01*
X119300847Y-109289801D01*
X119200477Y-109347750D01*
X119200467Y-109347758D01*
X119118521Y-109429704D01*
X119118513Y-109429714D01*
X119060564Y-109530084D01*
X119060561Y-109530091D01*
X119047164Y-109580091D01*
X119030563Y-109642047D01*
X115476803Y-109642047D01*
X115460201Y-109580089D01*
X115431330Y-109530084D01*
X115402249Y-109479714D01*
X115402241Y-109479704D01*
X115320295Y-109397758D01*
X115320285Y-109397750D01*
X115219915Y-109339801D01*
X115219912Y-109339800D01*
X115219911Y-109339799D01*
X115219909Y-109339798D01*
X115219908Y-109339798D01*
X115189909Y-109331760D01*
X115107953Y-109309800D01*
X114992047Y-109309800D01*
X114932051Y-109325875D01*
X114880091Y-109339798D01*
X114880084Y-109339801D01*
X114779714Y-109397750D01*
X114779704Y-109397758D01*
X114697758Y-109479704D01*
X114697750Y-109479714D01*
X114639801Y-109580084D01*
X114639798Y-109580091D01*
X114622997Y-109642796D01*
X114609800Y-109692047D01*
X113990200Y-109692047D01*
X113960201Y-109580089D01*
X113931330Y-109530084D01*
X113902249Y-109479714D01*
X113902241Y-109479704D01*
X113820295Y-109397758D01*
X113820285Y-109397750D01*
X113719915Y-109339801D01*
X113719912Y-109339800D01*
X113719911Y-109339799D01*
X113719909Y-109339798D01*
X113719908Y-109339798D01*
X113689909Y-109331760D01*
X113607953Y-109309800D01*
X113492047Y-109309800D01*
X113432051Y-109325875D01*
X113380091Y-109339798D01*
X113380084Y-109339801D01*
X113279714Y-109397750D01*
X113279704Y-109397758D01*
X113197758Y-109479704D01*
X113197750Y-109479714D01*
X113139801Y-109580084D01*
X113139798Y-109580091D01*
X113122997Y-109642796D01*
X113109800Y-109692047D01*
X112240200Y-109692047D01*
X112210201Y-109580089D01*
X112181330Y-109530084D01*
X112152249Y-109479714D01*
X112152241Y-109479704D01*
X112070295Y-109397758D01*
X112070285Y-109397750D01*
X111983696Y-109347758D01*
X111969911Y-109339799D01*
X111969910Y-109339798D01*
X111965442Y-109337219D01*
X111916449Y-109285836D01*
X111903013Y-109216123D01*
X111929399Y-109150212D01*
X111987232Y-109109030D01*
X111995831Y-109106393D01*
X111996544Y-109106202D01*
X111996546Y-109106202D01*
X112108504Y-109076203D01*
X112208882Y-109018249D01*
X112285084Y-108942047D01*
X116130563Y-108942047D01*
X116130563Y-109057953D01*
X116144249Y-109109030D01*
X116160561Y-109169908D01*
X116160564Y-109169915D01*
X116218513Y-109270285D01*
X116218521Y-109270295D01*
X116300467Y-109352241D01*
X116300472Y-109352245D01*
X116300474Y-109352247D01*
X116400852Y-109410201D01*
X116512810Y-109440200D01*
X116512812Y-109440200D01*
X116628714Y-109440200D01*
X116628716Y-109440200D01*
X116740674Y-109410201D01*
X116841052Y-109352247D01*
X116923010Y-109270289D01*
X116980964Y-109169911D01*
X117010963Y-109057953D01*
X117010963Y-108942047D01*
X116980964Y-108830089D01*
X116963748Y-108800270D01*
X116923012Y-108729714D01*
X116923004Y-108729704D01*
X116841058Y-108647758D01*
X116841048Y-108647750D01*
X116740678Y-108589801D01*
X116740675Y-108589800D01*
X116740674Y-108589799D01*
X116740672Y-108589798D01*
X116740671Y-108589798D01*
X116710672Y-108581760D01*
X116628716Y-108559800D01*
X116512810Y-108559800D01*
X116452814Y-108575875D01*
X116400854Y-108589798D01*
X116400847Y-108589801D01*
X116300477Y-108647750D01*
X116300467Y-108647758D01*
X116218521Y-108729704D01*
X116218513Y-108729714D01*
X116160564Y-108830084D01*
X116160561Y-108830091D01*
X116142430Y-108897758D01*
X116130563Y-108942047D01*
X112285084Y-108942047D01*
X112290840Y-108936291D01*
X112348794Y-108835913D01*
X112378793Y-108723955D01*
X112378793Y-108608049D01*
X112348794Y-108496091D01*
X112290840Y-108395713D01*
X112290838Y-108395711D01*
X112290834Y-108395706D01*
X112208888Y-108313760D01*
X112208878Y-108313752D01*
X112108508Y-108255803D01*
X112108505Y-108255802D01*
X112108504Y-108255801D01*
X112108502Y-108255800D01*
X112108501Y-108255800D01*
X112078502Y-108247762D01*
X111996546Y-108225802D01*
X111880640Y-108225802D01*
X111820644Y-108241877D01*
X111768684Y-108255800D01*
X111768677Y-108255803D01*
X111668307Y-108313752D01*
X111668297Y-108313760D01*
X111586351Y-108395706D01*
X111586343Y-108395716D01*
X111528394Y-108496086D01*
X111528392Y-108496091D01*
X111498393Y-108608049D01*
X111498393Y-108723955D01*
X111520353Y-108805911D01*
X111528391Y-108835910D01*
X111528394Y-108835917D01*
X111586343Y-108936287D01*
X111586351Y-108936297D01*
X111668297Y-109018243D01*
X111668302Y-109018247D01*
X111668304Y-109018249D01*
X111768682Y-109076203D01*
X111768683Y-109076203D01*
X111773150Y-109078782D01*
X111822143Y-109130164D01*
X111835579Y-109199878D01*
X111809193Y-109265789D01*
X111751361Y-109306971D01*
X111742762Y-109309607D01*
X111630096Y-109339796D01*
X111630084Y-109339801D01*
X111529714Y-109397750D01*
X111529704Y-109397758D01*
X111447758Y-109479704D01*
X111447750Y-109479714D01*
X111389801Y-109580084D01*
X111389798Y-109580091D01*
X111372997Y-109642796D01*
X111359800Y-109692047D01*
X101826855Y-109692047D01*
X101826382Y-109419908D01*
X101825986Y-109192047D01*
X105609800Y-109192047D01*
X105609800Y-109307953D01*
X105620466Y-109347758D01*
X105639798Y-109419908D01*
X105639801Y-109419915D01*
X105697750Y-109520285D01*
X105697758Y-109520295D01*
X105779704Y-109602241D01*
X105779709Y-109602245D01*
X105779711Y-109602247D01*
X105880089Y-109660201D01*
X105992047Y-109690200D01*
X105992049Y-109690200D01*
X106084445Y-109690200D01*
X106107953Y-109690200D01*
X106219911Y-109660201D01*
X106320289Y-109602247D01*
X106320295Y-109602241D01*
X106327843Y-109594694D01*
X106402241Y-109520295D01*
X106402247Y-109520289D01*
X106460201Y-109419911D01*
X106490200Y-109307953D01*
X106490200Y-109192047D01*
X106460201Y-109080089D01*
X106408035Y-108989736D01*
X106402249Y-108979714D01*
X106402241Y-108979704D01*
X106320295Y-108897758D01*
X106320285Y-108897750D01*
X106219915Y-108839801D01*
X106219912Y-108839800D01*
X106219911Y-108839799D01*
X106219909Y-108839798D01*
X106219908Y-108839798D01*
X106183654Y-108830084D01*
X106107953Y-108809800D01*
X105992047Y-108809800D01*
X105932051Y-108825875D01*
X105880091Y-108839798D01*
X105880084Y-108839801D01*
X105779714Y-108897750D01*
X105779704Y-108897758D01*
X105697758Y-108979704D01*
X105697750Y-108979714D01*
X105639801Y-109080084D01*
X105639799Y-109080089D01*
X105609800Y-109192047D01*
X101825986Y-109192047D01*
X101825014Y-108632999D01*
X101824508Y-108342047D01*
X103859800Y-108342047D01*
X103859800Y-108457953D01*
X103870018Y-108496086D01*
X103889798Y-108569908D01*
X103889801Y-108569915D01*
X103947750Y-108670285D01*
X103947758Y-108670295D01*
X104029704Y-108752241D01*
X104029709Y-108752245D01*
X104029711Y-108752247D01*
X104130089Y-108810201D01*
X104242047Y-108840200D01*
X104242049Y-108840200D01*
X104357951Y-108840200D01*
X104357953Y-108840200D01*
X104469911Y-108810201D01*
X104570289Y-108752247D01*
X104652247Y-108670289D01*
X104710201Y-108569911D01*
X104740200Y-108457953D01*
X104740200Y-108342047D01*
X104710201Y-108230089D01*
X104668123Y-108157209D01*
X104652249Y-108129714D01*
X104652241Y-108129704D01*
X104570295Y-108047758D01*
X104570282Y-108047748D01*
X104561899Y-108042908D01*
X104561898Y-108042908D01*
X104469915Y-107989801D01*
X104469912Y-107989800D01*
X104469911Y-107989799D01*
X104469909Y-107989798D01*
X104469908Y-107989798D01*
X104439909Y-107981760D01*
X104357953Y-107959800D01*
X104242047Y-107959800D01*
X104182051Y-107975875D01*
X104130091Y-107989798D01*
X104130084Y-107989801D01*
X104029714Y-108047750D01*
X104029704Y-108047758D01*
X103947758Y-108129704D01*
X103947750Y-108129714D01*
X103889801Y-108230084D01*
X103889798Y-108230091D01*
X103879027Y-108270289D01*
X103859800Y-108342047D01*
X101824508Y-108342047D01*
X101824494Y-108334008D01*
X101823812Y-107942047D01*
X113109800Y-107942047D01*
X113109800Y-108057953D01*
X113129028Y-108129714D01*
X113139798Y-108169908D01*
X113139801Y-108169915D01*
X113197750Y-108270285D01*
X113197758Y-108270295D01*
X113279704Y-108352241D01*
X113279709Y-108352245D01*
X113279711Y-108352247D01*
X113380089Y-108410201D01*
X113492047Y-108440200D01*
X113492049Y-108440200D01*
X113607951Y-108440200D01*
X113607953Y-108440200D01*
X113719911Y-108410201D01*
X113820289Y-108352247D01*
X113902247Y-108270289D01*
X113960201Y-108169911D01*
X113990200Y-108057953D01*
X113990200Y-107942047D01*
X114609800Y-107942047D01*
X114609800Y-108057953D01*
X114629028Y-108129714D01*
X114639798Y-108169908D01*
X114639801Y-108169915D01*
X114697750Y-108270285D01*
X114697758Y-108270295D01*
X114779704Y-108352241D01*
X114779709Y-108352245D01*
X114779711Y-108352247D01*
X114880089Y-108410201D01*
X114992047Y-108440200D01*
X114992049Y-108440200D01*
X115107951Y-108440200D01*
X115107953Y-108440200D01*
X115219911Y-108410201D01*
X115320289Y-108352247D01*
X115330489Y-108342047D01*
X119030563Y-108342047D01*
X119030563Y-108457953D01*
X119040781Y-108496086D01*
X119060561Y-108569908D01*
X119060564Y-108569915D01*
X119118513Y-108670285D01*
X119118521Y-108670295D01*
X119200467Y-108752241D01*
X119200472Y-108752245D01*
X119200474Y-108752247D01*
X119300852Y-108810201D01*
X119412810Y-108840200D01*
X119412812Y-108840200D01*
X119528714Y-108840200D01*
X119528716Y-108840200D01*
X119640674Y-108810201D01*
X119741052Y-108752247D01*
X119823010Y-108670289D01*
X119880964Y-108569911D01*
X119910963Y-108457953D01*
X119910963Y-108342047D01*
X119880964Y-108230089D01*
X119838886Y-108157209D01*
X119823012Y-108129714D01*
X119823004Y-108129704D01*
X119741058Y-108047758D01*
X119741048Y-108047750D01*
X119640678Y-107989801D01*
X119640675Y-107989800D01*
X119640674Y-107989799D01*
X119640672Y-107989798D01*
X119640671Y-107989798D01*
X119610672Y-107981760D01*
X119528716Y-107959800D01*
X119412810Y-107959800D01*
X119352814Y-107975875D01*
X119300854Y-107989798D01*
X119300847Y-107989801D01*
X119200477Y-108047750D01*
X119200467Y-108047758D01*
X119118521Y-108129704D01*
X119118513Y-108129714D01*
X119060564Y-108230084D01*
X119060561Y-108230091D01*
X119049790Y-108270289D01*
X119030563Y-108342047D01*
X115330489Y-108342047D01*
X115402247Y-108270289D01*
X115460201Y-108169911D01*
X115490200Y-108057953D01*
X115490200Y-107942047D01*
X115460201Y-107830089D01*
X115402247Y-107729711D01*
X115402245Y-107729709D01*
X115402241Y-107729704D01*
X115320295Y-107647758D01*
X115320285Y-107647750D01*
X115219915Y-107589801D01*
X115219912Y-107589800D01*
X115219911Y-107589799D01*
X115219909Y-107589798D01*
X115219908Y-107589798D01*
X115189909Y-107581760D01*
X115107953Y-107559800D01*
X114992047Y-107559800D01*
X114932051Y-107575875D01*
X114880091Y-107589798D01*
X114880084Y-107589801D01*
X114779714Y-107647750D01*
X114779704Y-107647758D01*
X114697758Y-107729704D01*
X114697750Y-107729714D01*
X114639801Y-107830084D01*
X114639798Y-107830091D01*
X114620780Y-107901068D01*
X114609800Y-107942047D01*
X113990200Y-107942047D01*
X113960201Y-107830089D01*
X113902247Y-107729711D01*
X113902245Y-107729709D01*
X113902241Y-107729704D01*
X113820295Y-107647758D01*
X113820285Y-107647750D01*
X113719915Y-107589801D01*
X113719912Y-107589800D01*
X113719911Y-107589799D01*
X113719909Y-107589798D01*
X113719908Y-107589798D01*
X113689909Y-107581760D01*
X113607953Y-107559800D01*
X113492047Y-107559800D01*
X113432051Y-107575875D01*
X113380091Y-107589798D01*
X113380084Y-107589801D01*
X113279714Y-107647750D01*
X113279704Y-107647758D01*
X113197758Y-107729704D01*
X113197750Y-107729714D01*
X113139801Y-107830084D01*
X113139798Y-107830091D01*
X113120780Y-107901068D01*
X113109800Y-107942047D01*
X101823812Y-107942047D01*
X101820769Y-106192047D01*
X105622300Y-106192047D01*
X105622300Y-106307953D01*
X105628232Y-106330091D01*
X105652298Y-106419908D01*
X105652301Y-106419915D01*
X105710250Y-106520285D01*
X105710258Y-106520295D01*
X105792204Y-106602241D01*
X105792209Y-106602245D01*
X105792211Y-106602247D01*
X105892589Y-106660201D01*
X106004547Y-106690200D01*
X106004549Y-106690200D01*
X106120451Y-106690200D01*
X106120453Y-106690200D01*
X106232411Y-106660201D01*
X106332789Y-106602247D01*
X106414747Y-106520289D01*
X106472701Y-106419911D01*
X106502700Y-106307953D01*
X106502700Y-106192047D01*
X106499563Y-106180339D01*
X108750500Y-106180339D01*
X108750500Y-106296245D01*
X108759569Y-106330091D01*
X108780498Y-106408200D01*
X108780501Y-106408207D01*
X108838450Y-106508577D01*
X108838458Y-106508587D01*
X108920404Y-106590533D01*
X108920409Y-106590537D01*
X108920411Y-106590539D01*
X108920412Y-106590540D01*
X108920414Y-106590541D01*
X108940693Y-106602249D01*
X109020789Y-106648493D01*
X109132747Y-106678492D01*
X109132749Y-106678492D01*
X109248651Y-106678492D01*
X109248653Y-106678492D01*
X109360611Y-106648493D01*
X109460989Y-106590539D01*
X109542947Y-106508581D01*
X109600901Y-106408203D01*
X109630900Y-106296245D01*
X109630900Y-106180339D01*
X109600901Y-106068381D01*
X109554887Y-105988683D01*
X109542949Y-105968006D01*
X109542941Y-105967996D01*
X109460995Y-105886050D01*
X109460985Y-105886042D01*
X109360615Y-105828093D01*
X109360612Y-105828092D01*
X109360611Y-105828091D01*
X109360609Y-105828090D01*
X109360608Y-105828090D01*
X109330609Y-105820052D01*
X109248653Y-105798092D01*
X109132747Y-105798092D01*
X109072751Y-105814167D01*
X109020791Y-105828090D01*
X109020784Y-105828093D01*
X108920414Y-105886042D01*
X108920404Y-105886050D01*
X108838458Y-105967996D01*
X108838450Y-105968006D01*
X108780501Y-106068376D01*
X108780498Y-106068383D01*
X108774760Y-106089799D01*
X108750500Y-106180339D01*
X106499563Y-106180339D01*
X106472701Y-106080089D01*
X106430955Y-106007783D01*
X106414749Y-105979714D01*
X106414741Y-105979704D01*
X106332795Y-105897758D01*
X106332785Y-105897750D01*
X106232415Y-105839801D01*
X106232412Y-105839800D01*
X106232411Y-105839799D01*
X106232409Y-105839798D01*
X106232408Y-105839798D01*
X106189406Y-105828276D01*
X106120453Y-105809800D01*
X106004547Y-105809800D01*
X105944551Y-105825875D01*
X105892591Y-105839798D01*
X105892584Y-105839801D01*
X105792214Y-105897750D01*
X105792204Y-105897758D01*
X105710258Y-105979704D01*
X105710250Y-105979714D01*
X105652301Y-106080084D01*
X105652298Y-106080091D01*
X105634167Y-106147758D01*
X105622300Y-106192047D01*
X101820769Y-106192047D01*
X101820755Y-106184008D01*
X101818421Y-104842047D01*
X113314800Y-104842047D01*
X113314800Y-104957953D01*
X113336760Y-105039909D01*
X113344798Y-105069908D01*
X113344801Y-105069915D01*
X113402750Y-105170285D01*
X113402758Y-105170295D01*
X113484704Y-105252241D01*
X113484709Y-105252245D01*
X113484711Y-105252247D01*
X113484712Y-105252248D01*
X113484714Y-105252249D01*
X113549750Y-105289798D01*
X113585089Y-105310201D01*
X113697047Y-105340200D01*
X113697049Y-105340200D01*
X113812951Y-105340200D01*
X113812953Y-105340200D01*
X113924911Y-105310201D01*
X114025289Y-105252247D01*
X114107247Y-105170289D01*
X114165201Y-105069911D01*
X114195200Y-104957953D01*
X114195200Y-104842047D01*
X114165201Y-104730089D01*
X114143237Y-104692047D01*
X114107249Y-104629714D01*
X114107241Y-104629704D01*
X114025295Y-104547758D01*
X114025285Y-104547750D01*
X113924915Y-104489801D01*
X113924912Y-104489800D01*
X113924911Y-104489799D01*
X113924909Y-104489798D01*
X113924908Y-104489798D01*
X113887236Y-104479704D01*
X113812953Y-104459800D01*
X113697047Y-104459800D01*
X113648803Y-104472727D01*
X113585091Y-104489798D01*
X113585084Y-104489801D01*
X113484714Y-104547750D01*
X113484704Y-104547758D01*
X113402758Y-104629704D01*
X113402750Y-104629714D01*
X113344801Y-104730084D01*
X113344798Y-104730091D01*
X113328692Y-104790200D01*
X113314800Y-104842047D01*
X101818421Y-104842047D01*
X101818418Y-104840200D01*
X101817065Y-104062525D01*
X106066821Y-104062525D01*
X106066821Y-104178431D01*
X106088781Y-104260387D01*
X106096819Y-104290386D01*
X106096822Y-104290393D01*
X106154771Y-104390763D01*
X106154779Y-104390773D01*
X106236725Y-104472719D01*
X106236730Y-104472723D01*
X106236732Y-104472725D01*
X106236733Y-104472726D01*
X106236735Y-104472727D01*
X106266308Y-104489801D01*
X106337110Y-104530679D01*
X106449068Y-104560678D01*
X106449070Y-104560678D01*
X106564972Y-104560678D01*
X106564974Y-104560678D01*
X106676932Y-104530679D01*
X106777310Y-104472725D01*
X106859268Y-104390767D01*
X106916265Y-104292047D01*
X107709800Y-104292047D01*
X107709800Y-104407953D01*
X107729028Y-104479714D01*
X107739798Y-104519908D01*
X107739801Y-104519915D01*
X107797750Y-104620285D01*
X107797758Y-104620295D01*
X107879704Y-104702241D01*
X107879709Y-104702245D01*
X107879711Y-104702247D01*
X107879712Y-104702248D01*
X107879714Y-104702249D01*
X107945447Y-104740200D01*
X107980089Y-104760201D01*
X108092047Y-104790200D01*
X108092049Y-104790200D01*
X108207951Y-104790200D01*
X108207953Y-104790200D01*
X108319911Y-104760201D01*
X108420289Y-104702247D01*
X108502247Y-104620289D01*
X108560201Y-104519911D01*
X108590200Y-104407953D01*
X108590200Y-104292047D01*
X108576803Y-104242047D01*
X116359800Y-104242047D01*
X116359800Y-104357953D01*
X116381760Y-104439909D01*
X116389798Y-104469908D01*
X116389801Y-104469915D01*
X116447750Y-104570285D01*
X116447758Y-104570295D01*
X116529704Y-104652241D01*
X116529709Y-104652245D01*
X116529711Y-104652247D01*
X116529712Y-104652248D01*
X116529714Y-104652249D01*
X116598646Y-104692047D01*
X116630089Y-104710201D01*
X116742047Y-104740200D01*
X116742049Y-104740200D01*
X116857951Y-104740200D01*
X116857953Y-104740200D01*
X116969911Y-104710201D01*
X117001354Y-104692047D01*
X118480563Y-104692047D01*
X118480563Y-104807953D01*
X118489699Y-104842048D01*
X118510561Y-104919908D01*
X118510564Y-104919915D01*
X118568513Y-105020285D01*
X118568521Y-105020295D01*
X118650467Y-105102241D01*
X118650472Y-105102245D01*
X118650474Y-105102247D01*
X118750852Y-105160201D01*
X118862810Y-105190200D01*
X118862822Y-105190200D01*
X118870361Y-105191193D01*
X118935289Y-105219913D01*
X118974383Y-105279177D01*
X118975230Y-105350169D01*
X118943016Y-105405210D01*
X118918518Y-105429708D01*
X118918513Y-105429714D01*
X118860564Y-105530084D01*
X118860561Y-105530091D01*
X118846889Y-105581117D01*
X118830563Y-105642047D01*
X118830563Y-105757953D01*
X118850418Y-105832052D01*
X118860561Y-105869908D01*
X118860564Y-105869915D01*
X118918513Y-105970285D01*
X118918521Y-105970295D01*
X119000467Y-106052241D01*
X119000471Y-106052244D01*
X119000474Y-106052247D01*
X119056731Y-106084727D01*
X119105723Y-106136108D01*
X119119160Y-106205821D01*
X119102850Y-106256844D01*
X119060563Y-106330086D01*
X119060561Y-106330091D01*
X119058617Y-106337346D01*
X119030563Y-106442047D01*
X119030563Y-106557953D01*
X119039295Y-106590541D01*
X119060561Y-106669908D01*
X119060564Y-106669915D01*
X119118513Y-106770285D01*
X119118521Y-106770295D01*
X119200467Y-106852241D01*
X119200472Y-106852245D01*
X119200474Y-106852247D01*
X119300852Y-106910201D01*
X119412810Y-106940200D01*
X119412812Y-106940200D01*
X119528714Y-106940200D01*
X119528716Y-106940200D01*
X119640674Y-106910201D01*
X119741052Y-106852247D01*
X119823010Y-106770289D01*
X119880964Y-106669911D01*
X119910963Y-106557953D01*
X119910963Y-106442047D01*
X119882908Y-106337345D01*
X121699502Y-106337345D01*
X121699502Y-106453251D01*
X121714327Y-106508577D01*
X121729500Y-106565206D01*
X121729503Y-106565213D01*
X121787452Y-106665583D01*
X121787460Y-106665593D01*
X121869406Y-106747539D01*
X121869411Y-106747543D01*
X121869413Y-106747545D01*
X121869414Y-106747546D01*
X121869416Y-106747547D01*
X121939972Y-106788283D01*
X121969791Y-106805499D01*
X122081749Y-106835498D01*
X122081751Y-106835498D01*
X122197653Y-106835498D01*
X122197655Y-106835498D01*
X122309613Y-106805499D01*
X122409991Y-106747545D01*
X122491949Y-106665587D01*
X122549903Y-106565209D01*
X122579902Y-106453251D01*
X122579902Y-106337345D01*
X122549903Y-106225387D01*
X122491949Y-106125009D01*
X122491946Y-106125006D01*
X122491810Y-106124770D01*
X122475072Y-106055775D01*
X122498292Y-105988683D01*
X122511828Y-105972679D01*
X122555858Y-105928650D01*
X122613812Y-105828272D01*
X122643811Y-105716314D01*
X122643811Y-105600408D01*
X122613812Y-105488450D01*
X122555858Y-105388072D01*
X122555856Y-105388070D01*
X122555852Y-105388065D01*
X122473906Y-105306119D01*
X122473896Y-105306111D01*
X122373526Y-105248162D01*
X122373523Y-105248161D01*
X122373522Y-105248160D01*
X122373520Y-105248159D01*
X122373519Y-105248159D01*
X122343520Y-105240121D01*
X122261564Y-105218161D01*
X122145658Y-105218161D01*
X122101172Y-105230081D01*
X122033702Y-105248159D01*
X122033695Y-105248162D01*
X121933325Y-105306111D01*
X121933315Y-105306119D01*
X121851369Y-105388065D01*
X121851361Y-105388075D01*
X121793412Y-105488445D01*
X121793409Y-105488452D01*
X121774391Y-105559429D01*
X121763411Y-105600408D01*
X121763411Y-105716314D01*
X121774568Y-105757951D01*
X121793409Y-105828269D01*
X121793412Y-105828276D01*
X121851502Y-105928889D01*
X121868240Y-105997884D01*
X121845020Y-106064976D01*
X121831479Y-106080984D01*
X121787457Y-106125006D01*
X121787452Y-106125012D01*
X121729503Y-106225382D01*
X121729500Y-106225389D01*
X121721072Y-106256844D01*
X121699502Y-106337345D01*
X119882908Y-106337345D01*
X119880964Y-106330089D01*
X119861423Y-106296243D01*
X119823012Y-106229714D01*
X119823004Y-106229704D01*
X119741058Y-106147758D01*
X119741048Y-106147750D01*
X119701659Y-106125009D01*
X119684794Y-106115272D01*
X119635802Y-106063891D01*
X119622366Y-105994177D01*
X119638674Y-105943157D01*
X119680964Y-105869911D01*
X119710963Y-105757953D01*
X119710963Y-105642047D01*
X119680964Y-105530089D01*
X119623010Y-105429711D01*
X119623007Y-105429708D01*
X119623004Y-105429704D01*
X119541058Y-105347758D01*
X119541048Y-105347750D01*
X119440678Y-105289801D01*
X119440675Y-105289800D01*
X119440674Y-105289799D01*
X119440672Y-105289798D01*
X119440671Y-105289798D01*
X119328713Y-105259799D01*
X119321158Y-105258805D01*
X119256231Y-105230081D01*
X119217140Y-105170815D01*
X119216297Y-105099824D01*
X119248510Y-105044788D01*
X119273010Y-105020289D01*
X119330964Y-104919911D01*
X119360963Y-104807953D01*
X119360963Y-104692047D01*
X119330964Y-104580089D01*
X119278836Y-104489801D01*
X119273012Y-104479714D01*
X119273004Y-104479704D01*
X119191058Y-104397758D01*
X119191048Y-104397750D01*
X119094568Y-104342047D01*
X119730563Y-104342047D01*
X119730563Y-104457953D01*
X119736393Y-104479711D01*
X119760561Y-104569908D01*
X119760564Y-104569915D01*
X119818513Y-104670285D01*
X119818521Y-104670295D01*
X119900467Y-104752241D01*
X119900472Y-104752245D01*
X119900474Y-104752247D01*
X119900475Y-104752248D01*
X119900477Y-104752249D01*
X119966210Y-104790200D01*
X120000852Y-104810201D01*
X120112810Y-104840200D01*
X120112812Y-104840200D01*
X120228714Y-104840200D01*
X120228716Y-104840200D01*
X120340674Y-104810201D01*
X120441052Y-104752247D01*
X120523010Y-104670289D01*
X120580964Y-104569911D01*
X120610963Y-104457953D01*
X120610963Y-104342047D01*
X120580964Y-104230089D01*
X120540715Y-104160376D01*
X120523012Y-104129714D01*
X120523004Y-104129704D01*
X120441058Y-104047758D01*
X120441048Y-104047750D01*
X120340678Y-103989801D01*
X120340675Y-103989800D01*
X120340674Y-103989799D01*
X120340672Y-103989798D01*
X120340671Y-103989798D01*
X120309657Y-103981488D01*
X120228716Y-103959800D01*
X120112810Y-103959800D01*
X120052814Y-103975875D01*
X120000854Y-103989798D01*
X120000847Y-103989801D01*
X119900477Y-104047750D01*
X119900467Y-104047758D01*
X119818521Y-104129704D01*
X119818513Y-104129714D01*
X119760564Y-104230084D01*
X119760561Y-104230091D01*
X119750832Y-104266402D01*
X119730563Y-104342047D01*
X119094568Y-104342047D01*
X119090678Y-104339801D01*
X119090675Y-104339800D01*
X119090674Y-104339799D01*
X119090672Y-104339798D01*
X119090671Y-104339798D01*
X119060672Y-104331760D01*
X118978716Y-104309800D01*
X118862810Y-104309800D01*
X118802814Y-104325875D01*
X118750854Y-104339798D01*
X118750847Y-104339801D01*
X118650477Y-104397750D01*
X118650467Y-104397758D01*
X118568521Y-104479704D01*
X118568513Y-104479714D01*
X118510564Y-104580084D01*
X118510561Y-104580091D01*
X118499790Y-104620289D01*
X118480563Y-104692047D01*
X117001354Y-104692047D01*
X117070289Y-104652247D01*
X117092832Y-104629704D01*
X117127843Y-104594694D01*
X117152241Y-104570295D01*
X117152247Y-104570289D01*
X117210201Y-104469911D01*
X117240200Y-104357953D01*
X117240200Y-104242047D01*
X117210201Y-104130089D01*
X117171193Y-104062526D01*
X117152249Y-104029714D01*
X117152241Y-104029704D01*
X117070295Y-103947758D01*
X117070285Y-103947750D01*
X116969915Y-103889801D01*
X116969912Y-103889800D01*
X116969911Y-103889799D01*
X116969909Y-103889798D01*
X116969908Y-103889798D01*
X116939909Y-103881760D01*
X116857953Y-103859800D01*
X116742047Y-103859800D01*
X116682051Y-103875875D01*
X116630091Y-103889798D01*
X116630084Y-103889801D01*
X116529714Y-103947750D01*
X116529704Y-103947758D01*
X116447758Y-104029704D01*
X116447750Y-104029714D01*
X116389801Y-104130084D01*
X116389798Y-104130091D01*
X116376401Y-104180091D01*
X116359800Y-104242047D01*
X108576803Y-104242047D01*
X108560201Y-104180089D01*
X108502247Y-104079711D01*
X108502245Y-104079709D01*
X108502241Y-104079704D01*
X108420295Y-103997758D01*
X108420285Y-103997750D01*
X108319915Y-103939801D01*
X108319912Y-103939800D01*
X108319911Y-103939799D01*
X108319909Y-103939798D01*
X108319908Y-103939798D01*
X108289909Y-103931760D01*
X108207953Y-103909800D01*
X108092047Y-103909800D01*
X108032051Y-103925875D01*
X107980091Y-103939798D01*
X107980084Y-103939801D01*
X107879714Y-103997750D01*
X107879704Y-103997758D01*
X107797758Y-104079704D01*
X107797750Y-104079714D01*
X107739801Y-104180084D01*
X107739798Y-104180091D01*
X107726401Y-104230091D01*
X107709800Y-104292047D01*
X106916265Y-104292047D01*
X106917222Y-104290389D01*
X106947221Y-104178431D01*
X106947221Y-104062525D01*
X106917222Y-103950567D01*
X106859268Y-103850189D01*
X106859266Y-103850187D01*
X106859262Y-103850182D01*
X106777316Y-103768236D01*
X106777306Y-103768228D01*
X106676936Y-103710279D01*
X106676933Y-103710278D01*
X106676932Y-103710277D01*
X106676930Y-103710276D01*
X106676929Y-103710276D01*
X106646930Y-103702238D01*
X106564974Y-103680278D01*
X106449068Y-103680278D01*
X106389072Y-103696353D01*
X106337112Y-103710276D01*
X106337105Y-103710279D01*
X106236735Y-103768228D01*
X106236725Y-103768236D01*
X106154779Y-103850182D01*
X106154771Y-103850192D01*
X106096822Y-103950562D01*
X106096819Y-103950569D01*
X106084175Y-103997758D01*
X106066821Y-104062525D01*
X101817065Y-104062525D01*
X101816376Y-103666417D01*
X101836260Y-103598264D01*
X101889834Y-103551678D01*
X101942376Y-103540200D01*
X101997651Y-103540200D01*
X101997653Y-103540200D01*
X102109611Y-103510201D01*
X102209989Y-103452247D01*
X102291947Y-103370289D01*
X102349901Y-103269911D01*
X102379900Y-103157953D01*
X102379900Y-103042047D01*
X102349901Y-102930089D01*
X102291947Y-102829711D01*
X102291945Y-102829709D01*
X102291941Y-102829704D01*
X102209995Y-102747758D01*
X102209985Y-102747750D01*
X102109615Y-102689801D01*
X102109612Y-102689800D01*
X102109611Y-102689799D01*
X102109609Y-102689798D01*
X102109608Y-102689798D01*
X102079609Y-102681760D01*
X101997653Y-102659800D01*
X101940406Y-102659800D01*
X101931684Y-102657239D01*
X101922691Y-102658548D01*
X101898151Y-102647393D01*
X101872285Y-102639798D01*
X101866333Y-102632929D01*
X101858059Y-102629168D01*
X101843445Y-102606515D01*
X101825792Y-102586142D01*
X101823482Y-102575569D01*
X101819572Y-102569508D01*
X101814406Y-102534025D01*
X101814191Y-102410264D01*
X103964800Y-102410264D01*
X103964800Y-102589736D01*
X103975491Y-102657239D01*
X103992875Y-102767000D01*
X104048334Y-102937683D01*
X104048335Y-102937685D01*
X104129813Y-103097595D01*
X104235304Y-103242791D01*
X104235306Y-103242793D01*
X104235308Y-103242796D01*
X104362203Y-103369691D01*
X104362206Y-103369693D01*
X104362209Y-103369696D01*
X104507405Y-103475187D01*
X104667315Y-103556665D01*
X104838002Y-103612125D01*
X105015264Y-103640200D01*
X105015266Y-103640200D01*
X105194734Y-103640200D01*
X105194736Y-103640200D01*
X105371998Y-103612125D01*
X105542685Y-103556665D01*
X105702595Y-103475187D01*
X105847791Y-103369696D01*
X105974696Y-103242791D01*
X106080187Y-103097595D01*
X106161665Y-102937685D01*
X106167004Y-102921252D01*
X121751358Y-102921252D01*
X121751358Y-103037158D01*
X121767552Y-103097595D01*
X121781356Y-103149113D01*
X121781359Y-103149120D01*
X121839308Y-103249490D01*
X121839316Y-103249500D01*
X121921262Y-103331446D01*
X121921267Y-103331450D01*
X121921269Y-103331452D01*
X121921270Y-103331453D01*
X121921272Y-103331454D01*
X121987509Y-103369696D01*
X122021647Y-103389406D01*
X122133605Y-103419405D01*
X122133607Y-103419405D01*
X122249509Y-103419405D01*
X122249511Y-103419405D01*
X122361469Y-103389406D01*
X122461847Y-103331452D01*
X122543805Y-103249494D01*
X122601759Y-103149116D01*
X122631758Y-103037158D01*
X122631758Y-102921252D01*
X122601759Y-102809294D01*
X122543805Y-102708916D01*
X122543803Y-102708914D01*
X122543799Y-102708909D01*
X122461853Y-102626963D01*
X122461843Y-102626955D01*
X122361473Y-102569006D01*
X122361470Y-102569005D01*
X122361469Y-102569004D01*
X122361467Y-102569003D01*
X122361466Y-102569003D01*
X122331467Y-102560965D01*
X122249511Y-102539005D01*
X122133605Y-102539005D01*
X122073609Y-102555080D01*
X122021649Y-102569003D01*
X122021642Y-102569006D01*
X121921272Y-102626955D01*
X121921262Y-102626963D01*
X121839316Y-102708909D01*
X121839308Y-102708919D01*
X121781359Y-102809289D01*
X121781356Y-102809296D01*
X121775888Y-102829704D01*
X121751358Y-102921252D01*
X106167004Y-102921252D01*
X106217125Y-102766998D01*
X106245200Y-102589736D01*
X106245200Y-102410264D01*
X106231196Y-102321845D01*
X110485002Y-102321845D01*
X110485002Y-102437751D01*
X110494052Y-102471525D01*
X110515000Y-102549706D01*
X110515003Y-102549713D01*
X110572952Y-102650083D01*
X110572960Y-102650093D01*
X110654906Y-102732039D01*
X110654911Y-102732043D01*
X110654913Y-102732045D01*
X110654914Y-102732046D01*
X110654916Y-102732047D01*
X110682128Y-102747758D01*
X110755291Y-102789999D01*
X110867249Y-102819998D01*
X110867251Y-102819998D01*
X110983153Y-102819998D01*
X110983155Y-102819998D01*
X111095113Y-102789999D01*
X111195491Y-102732045D01*
X111277449Y-102650087D01*
X111335403Y-102549709D01*
X111365402Y-102437751D01*
X111365402Y-102321845D01*
X111335403Y-102209887D01*
X111277449Y-102109509D01*
X111277447Y-102109507D01*
X111277443Y-102109502D01*
X111195497Y-102027556D01*
X111195487Y-102027548D01*
X111095117Y-101969599D01*
X111095114Y-101969598D01*
X111095113Y-101969597D01*
X111095111Y-101969596D01*
X111095110Y-101969596D01*
X111065111Y-101961558D01*
X110983155Y-101939598D01*
X110867249Y-101939598D01*
X110820035Y-101952249D01*
X110755293Y-101969596D01*
X110755286Y-101969599D01*
X110654916Y-102027548D01*
X110654906Y-102027556D01*
X110572960Y-102109502D01*
X110572952Y-102109512D01*
X110515003Y-102209882D01*
X110515001Y-102209887D01*
X110485002Y-102321845D01*
X106231196Y-102321845D01*
X106217125Y-102233002D01*
X106161665Y-102062315D01*
X106080187Y-101902405D01*
X105974696Y-101757209D01*
X105974693Y-101757206D01*
X105974691Y-101757203D01*
X105847799Y-101630311D01*
X105847790Y-101630303D01*
X105726316Y-101542047D01*
X106659800Y-101542047D01*
X106659800Y-101657953D01*
X106679028Y-101729714D01*
X106689798Y-101769908D01*
X106689801Y-101769915D01*
X106747750Y-101870285D01*
X106747758Y-101870295D01*
X106829704Y-101952241D01*
X106829709Y-101952245D01*
X106829711Y-101952247D01*
X106829712Y-101952248D01*
X106829714Y-101952249D01*
X106859765Y-101969599D01*
X106930089Y-102010201D01*
X107042047Y-102040200D01*
X107042049Y-102040200D01*
X107157951Y-102040200D01*
X107157953Y-102040200D01*
X107269911Y-102010201D01*
X107370289Y-101952247D01*
X107452247Y-101870289D01*
X107510201Y-101769911D01*
X107540200Y-101657953D01*
X107540200Y-101542047D01*
X107510201Y-101430089D01*
X107469619Y-101359800D01*
X107452249Y-101329714D01*
X107452241Y-101329704D01*
X107370295Y-101247758D01*
X107370285Y-101247750D01*
X107269915Y-101189801D01*
X107269912Y-101189800D01*
X107269911Y-101189799D01*
X107269909Y-101189798D01*
X107269908Y-101189798D01*
X107255934Y-101186054D01*
X107157953Y-101159800D01*
X107042047Y-101159800D01*
X106982051Y-101175875D01*
X106930091Y-101189798D01*
X106930084Y-101189801D01*
X106829714Y-101247750D01*
X106829704Y-101247758D01*
X106747758Y-101329704D01*
X106747750Y-101329714D01*
X106689801Y-101430084D01*
X106689798Y-101430091D01*
X106670780Y-101501068D01*
X106659800Y-101542047D01*
X105726316Y-101542047D01*
X105702598Y-101524815D01*
X105702597Y-101524814D01*
X105702595Y-101524813D01*
X105542685Y-101443335D01*
X105542684Y-101443334D01*
X105542683Y-101443334D01*
X105372000Y-101387875D01*
X105283367Y-101373837D01*
X105194736Y-101359800D01*
X105015264Y-101359800D01*
X104944359Y-101371030D01*
X104837999Y-101387875D01*
X104667316Y-101443334D01*
X104507401Y-101524815D01*
X104362206Y-101630306D01*
X104362203Y-101630308D01*
X104235308Y-101757203D01*
X104235306Y-101757206D01*
X104129815Y-101902401D01*
X104048334Y-102062316D01*
X103992875Y-102232999D01*
X103988262Y-102262125D01*
X103964800Y-102410264D01*
X101814191Y-102410264D01*
X101811843Y-101060264D01*
X118364800Y-101060264D01*
X118364800Y-101239736D01*
X118369639Y-101270289D01*
X118392875Y-101417000D01*
X118448334Y-101587683D01*
X118448335Y-101587685D01*
X118520702Y-101729714D01*
X118529815Y-101747598D01*
X118546029Y-101769915D01*
X118635304Y-101892791D01*
X118635306Y-101892793D01*
X118635308Y-101892796D01*
X118762203Y-102019691D01*
X118762206Y-102019693D01*
X118762209Y-102019696D01*
X118907405Y-102125187D01*
X119067315Y-102206665D01*
X119238002Y-102262125D01*
X119415264Y-102290200D01*
X119415266Y-102290200D01*
X119594734Y-102290200D01*
X119594736Y-102290200D01*
X119771998Y-102262125D01*
X119942685Y-102206665D01*
X120102595Y-102125187D01*
X120247791Y-102019696D01*
X120374696Y-101892791D01*
X120480187Y-101747595D01*
X120561665Y-101587685D01*
X120617125Y-101416998D01*
X120645200Y-101239736D01*
X120645200Y-101060264D01*
X120617125Y-100883002D01*
X120561665Y-100712315D01*
X120480187Y-100552405D01*
X120374696Y-100407209D01*
X120374693Y-100407206D01*
X120374691Y-100407203D01*
X120247796Y-100280308D01*
X120247793Y-100280306D01*
X120247791Y-100280304D01*
X120102595Y-100174813D01*
X119942685Y-100093335D01*
X119942684Y-100093334D01*
X119942683Y-100093334D01*
X119772000Y-100037875D01*
X119683367Y-100023837D01*
X119594736Y-100009800D01*
X119415264Y-100009800D01*
X119344359Y-100021030D01*
X119237999Y-100037875D01*
X119067316Y-100093334D01*
X118907401Y-100174815D01*
X118762206Y-100280306D01*
X118762203Y-100280308D01*
X118635308Y-100407203D01*
X118635306Y-100407206D01*
X118529815Y-100552401D01*
X118448334Y-100712316D01*
X118392875Y-100882999D01*
X118392875Y-100883002D01*
X118364800Y-101060264D01*
X101811843Y-101060264D01*
X101807843Y-98760268D01*
X109149941Y-98760268D01*
X109149941Y-98876174D01*
X109168768Y-98946438D01*
X109179939Y-98988129D01*
X109179942Y-98988136D01*
X109237891Y-99088506D01*
X109237899Y-99088516D01*
X109319845Y-99170462D01*
X109319850Y-99170466D01*
X109319852Y-99170468D01*
X109420230Y-99228422D01*
X109532188Y-99258421D01*
X109532190Y-99258421D01*
X109648092Y-99258421D01*
X109648094Y-99258421D01*
X109760052Y-99228422D01*
X109860430Y-99170468D01*
X109942388Y-99088510D01*
X110000342Y-98988132D01*
X110030341Y-98876174D01*
X110030341Y-98830534D01*
X112896971Y-98830534D01*
X112896971Y-98946440D01*
X112916758Y-99020285D01*
X112926969Y-99058395D01*
X112926972Y-99058402D01*
X112984921Y-99158772D01*
X112984929Y-99158782D01*
X113066875Y-99240728D01*
X113066880Y-99240732D01*
X113066882Y-99240734D01*
X113167260Y-99298688D01*
X113279218Y-99328687D01*
X113279220Y-99328687D01*
X113395122Y-99328687D01*
X113395124Y-99328687D01*
X113507082Y-99298688D01*
X113607460Y-99240734D01*
X113689418Y-99158776D01*
X113747372Y-99058398D01*
X113777371Y-98946440D01*
X113777371Y-98830534D01*
X113747372Y-98718576D01*
X113732055Y-98692047D01*
X121464800Y-98692047D01*
X121464800Y-98807953D01*
X121470851Y-98830534D01*
X121494798Y-98919908D01*
X121494801Y-98919915D01*
X121552750Y-99020285D01*
X121552758Y-99020295D01*
X121634704Y-99102241D01*
X121634709Y-99102245D01*
X121634711Y-99102247D01*
X121735089Y-99160201D01*
X121847047Y-99190200D01*
X121847049Y-99190200D01*
X121962951Y-99190200D01*
X121962953Y-99190200D01*
X122074911Y-99160201D01*
X122175289Y-99102247D01*
X122257247Y-99020289D01*
X122315201Y-98919911D01*
X122345200Y-98807953D01*
X122345200Y-98692047D01*
X122315201Y-98580089D01*
X122289887Y-98536245D01*
X122257249Y-98479714D01*
X122257241Y-98479704D01*
X122175295Y-98397758D01*
X122175285Y-98397750D01*
X122074915Y-98339801D01*
X122074912Y-98339800D01*
X122074911Y-98339799D01*
X122074909Y-98339798D01*
X122074908Y-98339798D01*
X122044909Y-98331760D01*
X121962953Y-98309800D01*
X121847047Y-98309800D01*
X121787051Y-98325875D01*
X121735091Y-98339798D01*
X121735084Y-98339801D01*
X121634714Y-98397750D01*
X121634704Y-98397758D01*
X121552758Y-98479704D01*
X121552750Y-98479714D01*
X121494801Y-98580084D01*
X121494798Y-98580091D01*
X121484588Y-98618198D01*
X121464800Y-98692047D01*
X113732055Y-98692047D01*
X113706805Y-98648312D01*
X113689420Y-98618201D01*
X113689412Y-98618191D01*
X113607466Y-98536245D01*
X113607456Y-98536237D01*
X113507086Y-98478288D01*
X113507083Y-98478287D01*
X113507082Y-98478286D01*
X113507080Y-98478285D01*
X113507079Y-98478285D01*
X113477080Y-98470247D01*
X113395124Y-98448287D01*
X113279218Y-98448287D01*
X113219222Y-98464362D01*
X113167262Y-98478285D01*
X113167255Y-98478288D01*
X113066885Y-98536237D01*
X113066875Y-98536245D01*
X112984929Y-98618191D01*
X112984921Y-98618201D01*
X112926972Y-98718571D01*
X112926969Y-98718578D01*
X112915798Y-98760269D01*
X112896971Y-98830534D01*
X110030341Y-98830534D01*
X110030341Y-98760268D01*
X110000342Y-98648310D01*
X109942388Y-98547932D01*
X109942386Y-98547930D01*
X109942382Y-98547925D01*
X109860436Y-98465979D01*
X109860426Y-98465971D01*
X109760056Y-98408022D01*
X109760053Y-98408021D01*
X109760052Y-98408020D01*
X109760050Y-98408019D01*
X109760049Y-98408019D01*
X109730050Y-98399981D01*
X109648094Y-98378021D01*
X109532188Y-98378021D01*
X109472192Y-98394096D01*
X109420232Y-98408019D01*
X109420225Y-98408022D01*
X109319855Y-98465971D01*
X109319845Y-98465979D01*
X109237899Y-98547925D01*
X109237891Y-98547935D01*
X109179942Y-98648305D01*
X109179940Y-98648310D01*
X109149941Y-98760268D01*
X101807843Y-98760268D01*
X101804681Y-96942047D01*
X109864800Y-96942047D01*
X109864800Y-97057953D01*
X109865295Y-97059800D01*
X109894798Y-97169908D01*
X109894801Y-97169915D01*
X109952750Y-97270285D01*
X109952758Y-97270295D01*
X110034704Y-97352241D01*
X110034709Y-97352245D01*
X110034711Y-97352247D01*
X110135089Y-97410201D01*
X110247047Y-97440200D01*
X110247049Y-97440200D01*
X110362951Y-97440200D01*
X110362953Y-97440200D01*
X110474911Y-97410201D01*
X110575289Y-97352247D01*
X110597452Y-97330084D01*
X110663087Y-97264450D01*
X110664729Y-97266092D01*
X110712367Y-97231304D01*
X110783238Y-97227077D01*
X110845143Y-97261837D01*
X110850617Y-97268154D01*
X110934704Y-97352241D01*
X110934709Y-97352245D01*
X110934711Y-97352247D01*
X111035089Y-97410201D01*
X111147047Y-97440200D01*
X111147049Y-97440200D01*
X111262951Y-97440200D01*
X111262953Y-97440200D01*
X111374911Y-97410201D01*
X111475289Y-97352247D01*
X111557247Y-97270289D01*
X111615201Y-97169911D01*
X111645200Y-97057953D01*
X111645200Y-96942047D01*
X111615201Y-96830089D01*
X111582193Y-96772918D01*
X111557249Y-96729714D01*
X111557241Y-96729704D01*
X111475295Y-96647758D01*
X111475285Y-96647750D01*
X111465407Y-96642047D01*
X112164800Y-96642047D01*
X112164800Y-96757953D01*
X112168107Y-96770295D01*
X112194798Y-96869908D01*
X112194801Y-96869915D01*
X112252750Y-96970285D01*
X112252758Y-96970295D01*
X112334704Y-97052241D01*
X112334709Y-97052245D01*
X112334711Y-97052247D01*
X112334712Y-97052248D01*
X112334714Y-97052249D01*
X112344590Y-97057951D01*
X112435089Y-97110201D01*
X112547047Y-97140200D01*
X112547049Y-97140200D01*
X112662951Y-97140200D01*
X112662953Y-97140200D01*
X112774911Y-97110201D01*
X112875289Y-97052247D01*
X112957247Y-96970289D01*
X113015201Y-96869911D01*
X113045200Y-96757953D01*
X113045200Y-96642047D01*
X113015201Y-96530089D01*
X112964370Y-96442048D01*
X112964369Y-96442047D01*
X123609800Y-96442047D01*
X123609800Y-96557953D01*
X123610295Y-96559800D01*
X123639798Y-96669908D01*
X123639801Y-96669915D01*
X123697750Y-96770285D01*
X123697758Y-96770295D01*
X123779704Y-96852241D01*
X123779709Y-96852245D01*
X123779711Y-96852247D01*
X123779712Y-96852248D01*
X123779714Y-96852249D01*
X123846626Y-96890881D01*
X123895619Y-96942264D01*
X123909055Y-97011978D01*
X123882668Y-97077888D01*
X123846626Y-97109119D01*
X123779714Y-97147750D01*
X123779704Y-97147758D01*
X123697758Y-97229704D01*
X123697750Y-97229714D01*
X123639801Y-97330084D01*
X123639798Y-97330091D01*
X123633861Y-97352249D01*
X123609800Y-97442047D01*
X123609800Y-97557953D01*
X123631760Y-97639909D01*
X123639798Y-97669908D01*
X123639801Y-97669915D01*
X123697750Y-97770285D01*
X123697758Y-97770295D01*
X123779704Y-97852241D01*
X123779709Y-97852245D01*
X123779711Y-97852247D01*
X123880089Y-97910201D01*
X123992047Y-97940200D01*
X123992049Y-97940200D01*
X124107951Y-97940200D01*
X124107953Y-97940200D01*
X124219911Y-97910201D01*
X124320289Y-97852247D01*
X124402247Y-97770289D01*
X124460201Y-97669911D01*
X124490200Y-97557953D01*
X124490200Y-97442047D01*
X124460201Y-97330089D01*
X124442985Y-97300270D01*
X124402249Y-97229714D01*
X124402241Y-97229704D01*
X124320295Y-97147758D01*
X124320285Y-97147750D01*
X124280137Y-97124571D01*
X124253372Y-97109117D01*
X124204380Y-97057737D01*
X124190944Y-96988023D01*
X124217330Y-96922112D01*
X124253371Y-96890882D01*
X124320289Y-96852247D01*
X124402247Y-96770289D01*
X124460201Y-96669911D01*
X124490200Y-96557953D01*
X124490200Y-96442047D01*
X124460201Y-96330089D01*
X124402247Y-96229711D01*
X124402245Y-96229709D01*
X124402241Y-96229704D01*
X124320295Y-96147758D01*
X124320285Y-96147750D01*
X124219915Y-96089801D01*
X124219912Y-96089800D01*
X124219911Y-96089799D01*
X124219909Y-96089798D01*
X124219908Y-96089798D01*
X124189909Y-96081760D01*
X124107953Y-96059800D01*
X123992047Y-96059800D01*
X123932051Y-96075875D01*
X123880091Y-96089798D01*
X123880084Y-96089801D01*
X123779714Y-96147750D01*
X123779704Y-96147758D01*
X123697758Y-96229704D01*
X123697750Y-96229714D01*
X123639801Y-96330084D01*
X123639798Y-96330091D01*
X123620780Y-96401068D01*
X123609800Y-96442047D01*
X112964369Y-96442047D01*
X112957249Y-96429714D01*
X112957241Y-96429704D01*
X112875295Y-96347758D01*
X112875285Y-96347750D01*
X112774915Y-96289801D01*
X112774912Y-96289800D01*
X112774911Y-96289799D01*
X112774909Y-96289798D01*
X112774908Y-96289798D01*
X112744909Y-96281760D01*
X112662953Y-96259800D01*
X112547047Y-96259800D01*
X112487051Y-96275875D01*
X112435091Y-96289798D01*
X112435084Y-96289801D01*
X112334714Y-96347750D01*
X112334704Y-96347758D01*
X112252758Y-96429704D01*
X112252750Y-96429714D01*
X112194801Y-96530084D01*
X112194799Y-96530089D01*
X112164800Y-96642047D01*
X111465407Y-96642047D01*
X111374915Y-96589801D01*
X111374912Y-96589800D01*
X111374911Y-96589799D01*
X111374909Y-96589798D01*
X111374908Y-96589798D01*
X111344909Y-96581760D01*
X111262953Y-96559800D01*
X111147047Y-96559800D01*
X111087051Y-96575875D01*
X111035091Y-96589798D01*
X111035084Y-96589801D01*
X110934714Y-96647750D01*
X110934704Y-96647758D01*
X110846913Y-96735550D01*
X110845271Y-96733908D01*
X110797617Y-96768701D01*
X110726746Y-96772918D01*
X110664845Y-96738150D01*
X110659378Y-96731841D01*
X110575295Y-96647758D01*
X110575285Y-96647750D01*
X110474915Y-96589801D01*
X110474912Y-96589800D01*
X110474911Y-96589799D01*
X110474909Y-96589798D01*
X110474908Y-96589798D01*
X110444909Y-96581760D01*
X110362953Y-96559800D01*
X110247047Y-96559800D01*
X110187051Y-96575875D01*
X110135091Y-96589798D01*
X110135084Y-96589801D01*
X110034714Y-96647750D01*
X110034704Y-96647758D01*
X109952758Y-96729704D01*
X109952750Y-96729714D01*
X109894801Y-96830084D01*
X109894798Y-96830091D01*
X109878510Y-96890881D01*
X109864800Y-96942047D01*
X101804681Y-96942047D01*
X101801594Y-95167047D01*
X115384800Y-95167047D01*
X115384800Y-95282953D01*
X115387237Y-95292047D01*
X115414798Y-95394908D01*
X115414801Y-95394915D01*
X115472750Y-95495285D01*
X115472758Y-95495295D01*
X115554704Y-95577241D01*
X115554709Y-95577245D01*
X115554711Y-95577247D01*
X115655089Y-95635201D01*
X115767047Y-95665200D01*
X115767049Y-95665200D01*
X115882951Y-95665200D01*
X115882953Y-95665200D01*
X115994911Y-95635201D01*
X116095289Y-95577247D01*
X116177247Y-95495289D01*
X116235201Y-95394911D01*
X116262763Y-95292047D01*
X118064800Y-95292047D01*
X118064800Y-95407953D01*
X118068107Y-95420295D01*
X118094798Y-95519908D01*
X118094801Y-95519915D01*
X118152750Y-95620285D01*
X118152758Y-95620295D01*
X118234704Y-95702241D01*
X118234709Y-95702245D01*
X118234711Y-95702247D01*
X118335089Y-95760201D01*
X118447047Y-95790200D01*
X118447049Y-95790200D01*
X118562951Y-95790200D01*
X118562953Y-95790200D01*
X118674911Y-95760201D01*
X118775289Y-95702247D01*
X118857247Y-95620289D01*
X118915201Y-95519911D01*
X118945200Y-95407953D01*
X118945200Y-95292047D01*
X118915201Y-95180089D01*
X118864370Y-95092048D01*
X118864369Y-95092047D01*
X123464800Y-95092047D01*
X123464800Y-95207953D01*
X123484896Y-95282951D01*
X123494798Y-95319908D01*
X123494801Y-95319915D01*
X123552750Y-95420285D01*
X123552758Y-95420295D01*
X123634704Y-95502241D01*
X123634709Y-95502245D01*
X123634711Y-95502247D01*
X123634712Y-95502248D01*
X123634714Y-95502249D01*
X123665312Y-95519915D01*
X123735089Y-95560201D01*
X123847047Y-95590200D01*
X123847049Y-95590200D01*
X123962951Y-95590200D01*
X123962953Y-95590200D01*
X124074911Y-95560201D01*
X124175289Y-95502247D01*
X124257247Y-95420289D01*
X124315201Y-95319911D01*
X124345200Y-95207953D01*
X124345200Y-95092047D01*
X124315201Y-94980089D01*
X124257247Y-94879711D01*
X124257245Y-94879709D01*
X124257241Y-94879704D01*
X124175295Y-94797758D01*
X124175285Y-94797750D01*
X124074915Y-94739801D01*
X124074912Y-94739800D01*
X124074911Y-94739799D01*
X124074909Y-94739798D01*
X124074908Y-94739798D01*
X124044909Y-94731760D01*
X123962953Y-94709800D01*
X123847047Y-94709800D01*
X123787051Y-94725875D01*
X123735091Y-94739798D01*
X123735084Y-94739801D01*
X123634714Y-94797750D01*
X123634704Y-94797758D01*
X123552758Y-94879704D01*
X123552750Y-94879714D01*
X123494801Y-94980084D01*
X123494798Y-94980091D01*
X123475780Y-95051068D01*
X123464800Y-95092047D01*
X118864369Y-95092047D01*
X118857249Y-95079714D01*
X118857241Y-95079704D01*
X118775295Y-94997758D01*
X118775285Y-94997750D01*
X118674915Y-94939801D01*
X118674912Y-94939800D01*
X118674911Y-94939799D01*
X118674909Y-94939798D01*
X118674908Y-94939798D01*
X118644909Y-94931760D01*
X118562953Y-94909800D01*
X118447047Y-94909800D01*
X118387051Y-94925875D01*
X118335091Y-94939798D01*
X118335084Y-94939801D01*
X118234714Y-94997750D01*
X118234704Y-94997758D01*
X118152758Y-95079704D01*
X118152750Y-95079714D01*
X118094801Y-95180084D01*
X118094799Y-95180089D01*
X118064800Y-95292047D01*
X116262763Y-95292047D01*
X116265200Y-95282953D01*
X116265200Y-95167047D01*
X116235201Y-95055089D01*
X116202096Y-94997750D01*
X116177249Y-94954714D01*
X116177241Y-94954704D01*
X116095295Y-94872758D01*
X116095285Y-94872750D01*
X115994915Y-94814801D01*
X115994912Y-94814800D01*
X115994911Y-94814799D01*
X115994909Y-94814798D01*
X115994908Y-94814798D01*
X115964909Y-94806760D01*
X115882953Y-94784800D01*
X115767047Y-94784800D01*
X115718717Y-94797750D01*
X115655091Y-94814798D01*
X115655084Y-94814801D01*
X115554714Y-94872750D01*
X115554704Y-94872758D01*
X115472758Y-94954704D01*
X115472750Y-94954714D01*
X115414801Y-95055084D01*
X115414798Y-95055091D01*
X115404896Y-95092047D01*
X115384800Y-95167047D01*
X101801594Y-95167047D01*
X101800219Y-94376217D01*
X101820103Y-94308064D01*
X101873678Y-94261478D01*
X101926219Y-94250000D01*
X125174219Y-94250000D01*
X125242340Y-94270002D01*
G37*
G04 #@! TD.AperFunction*
M02*
