M48
; DRILL file {KiCad 9.0.5} date 2026-01-02T14:21:29+0100
; FORMAT={-:-/ absolute / metric / decimal}
; #@! TF.CreationDate,2026-01-02T14:21:29+01:00
; #@! TF.GenerationSoftware,Kicad,Pcbnew,9.0.5
; #@! TF.FileFunction,Plated,1,4,PTH
FMAT,2
METRIC
; #@! TA.AperFunction,Plated,PTH,ViaDrill
T1C0.300
; #@! TA.AperFunction,Plated,PTH,ComponentDrill
T2C1.000
; #@! TA.AperFunction,Plated,PTH,ComponentDrill
T3C1.780
; #@! TA.AperFunction,Plated,PTH,ComponentDrill
T4C1.850
%
G90
G05
T1
X101.94Y-103.1
X102.7Y-110.6
X103.487Y-106.5
X103.65Y-112.75
X104.3Y-108.4
X104.4Y-114.8
X104.556Y-117.156
X104.705Y-84.36
X104.705Y-85.06
X104.705Y-85.76
X105.3Y-89.25
X105.3Y-91.5
X105.317Y-94.491
X105.319Y-86.825
X105.405Y-84.36
X105.405Y-85.06
X105.405Y-85.76
X105.415Y-82.67
X105.8Y-88.75
X105.8Y-90.0
X105.8Y-91.0
X106.05Y-109.25
X106.062Y-106.25
X106.206Y-111.039
X106.3Y-114.75
X106.4Y-110.3
X106.4Y-116.412
X106.448Y-113.989
X106.507Y-104.12
X106.8Y-93.8
X106.85Y-86.75
X107.1Y-101.6
X107.205Y-99.1
X107.205Y-99.9
X107.205Y-100.7
X107.3Y-118.25
X107.865Y-84.065
X107.875Y-84.83
X107.875Y-85.53
X107.875Y-86.23
X107.955Y-99.1
X108.15Y-104.35
X108.2Y-111.45
X108.5Y-77.8
X108.575Y-84.83
X108.575Y-85.53
X108.575Y-86.23
X108.755Y-99.05
X108.95Y-82.536
X109.151Y-115.249
X109.191Y-106.238
X109.205Y-88.9
X109.205Y-89.9
X109.205Y-90.9
X109.3Y-118.25
X109.377Y-81.543
X109.55Y-77.0
X109.59Y-98.818
X109.9Y-113.4
X110.0Y-92.4
X110.205Y-88.9
X110.305Y-97.0
X110.339Y-83.552
X110.5Y-111.95
X110.8Y-104.45
X110.8Y-118.25
X110.835Y-91.77
X110.925Y-102.38
X111.205Y-88.9
X111.205Y-97.0
X111.237Y-81.51
X111.237Y-82.31
X111.237Y-83.11
X111.787Y-79.7
X111.8Y-109.75
X111.8Y-111.25
X111.8Y-113.0
X111.939Y-108.666
X112.037Y-81.51
X112.037Y-82.31
X112.037Y-83.11
X112.205Y-88.9
X112.55Y-118.25
X112.605Y-96.7
X112.837Y-81.51
X112.837Y-82.31
X112.837Y-83.11
X113.337Y-98.888
X113.353Y-95.3
X113.45Y-89.133
X113.475Y-77.6
X113.55Y-108.0
X113.55Y-109.75
X113.55Y-111.25
X113.55Y-113.0
X113.755Y-104.9
X114.3Y-89.133
X114.3Y-118.25
X114.682Y-82.05
X115.05Y-108.0
X115.05Y-109.75
X115.05Y-111.25
X115.05Y-113.0
X115.825Y-95.225
X116.05Y-118.25
X116.571Y-109.0
X116.571Y-110.2
X116.571Y-111.5
X116.571Y-112.8
X116.8Y-104.3
X117.1Y-106.6
X117.55Y-118.25
X117.8Y-89.6
X118.505Y-95.35
X118.555Y-82.55
X118.555Y-83.35
X118.921Y-104.75
X119.271Y-105.7
X119.371Y-111.899
X119.471Y-106.5
X119.471Y-108.4
X119.471Y-109.7
X119.55Y-118.25
X119.575Y-111.0
X120.0Y-80.4
X120.171Y-104.4
X120.4Y-75.45
X120.421Y-114.0
X120.421Y-114.75
X121.3Y-118.25
X121.4Y-76.55
X121.6Y-82.3
X121.905Y-98.75
X121.921Y-116.4
X122.14Y-106.395
X122.192Y-102.979
X122.204Y-105.658
X122.35Y-76.55
X122.55Y-117.65
X123.15Y-75.4
X123.469Y-117.579
X123.9Y-79.1
X123.905Y-95.15
X124.05Y-96.5
X124.05Y-97.5
X124.8Y-113.15
X125.05Y-115.4
X125.3Y-100.0
X125.3Y-101.0
X125.3Y-102.0
X126.3Y-89.0
X126.3Y-92.5
X126.35Y-78.5
X126.35Y-81.5
X126.8Y-114.0
X127.3Y-89.0
X127.3Y-92.5
X127.35Y-78.5
X127.35Y-81.5
X127.35Y-100.0
X127.35Y-101.0
X127.35Y-102.0
X127.55Y-103.65
X127.55Y-104.65
X127.55Y-105.65
X127.8Y-109.5
X127.8Y-111.5
X127.8Y-115.5
X127.8Y-117.5
X127.8Y-118.9
X128.05Y-106.65
X128.05Y-107.4
X128.3Y-103.65
X128.3Y-104.65
X128.3Y-105.65
X128.35Y-78.5
X128.35Y-81.5
X128.35Y-89.0
X128.35Y-92.5
X128.8Y-109.5
X128.8Y-111.5
X128.8Y-115.5
X128.8Y-117.5
X128.8Y-118.9
X128.8Y-120.4
X129.05Y-103.65
X129.05Y-104.65
X129.05Y-105.65
X129.05Y-106.65
X129.05Y-107.4
X129.35Y-78.5
X129.35Y-81.5
X129.35Y-89.0
X129.35Y-92.5
X129.55Y-99.9
X129.55Y-100.9
X129.55Y-101.9
X129.8Y-109.5
X129.8Y-111.5
X129.8Y-115.5
X129.8Y-117.5
X129.8Y-118.9
X129.8Y-120.4
X130.05Y-103.15
X130.05Y-106.65
X130.05Y-107.4
X130.55Y-99.9
X130.55Y-100.9
X130.55Y-101.9
X130.65Y-113.075
X130.65Y-113.925
X130.8Y-109.5
X130.8Y-111.5
X130.8Y-115.5
X130.8Y-117.5
X130.8Y-118.9
X130.8Y-120.4
X131.05Y-103.65
X131.05Y-104.4
X131.05Y-105.15
X131.05Y-105.9
X131.05Y-106.65
X131.05Y-107.4
X131.231Y-88.031
X131.7Y-111.5
X131.8Y-109.5
X131.8Y-115.5
X131.8Y-117.5
X131.8Y-118.9
X131.8Y-120.4
X132.05Y-103.65
X132.05Y-104.4
X132.05Y-105.15
X132.05Y-105.9
X132.05Y-106.65
X132.05Y-107.4
X132.35Y-94.5
X132.8Y-109.5
X132.8Y-117.5
X132.8Y-118.9
X132.8Y-120.4
X133.05Y-103.65
X133.05Y-104.4
X133.05Y-105.15
X133.05Y-105.9
X133.05Y-106.65
X133.05Y-107.4
X133.35Y-92.5
X133.35Y-93.412
X133.35Y-94.5
X133.4Y-111.5
X133.4Y-115.5
X133.8Y-113.0
X133.8Y-114.0
X133.8Y-117.5
X133.8Y-118.9
X133.8Y-120.4
X134.175Y-103.562
X134.175Y-104.562
X134.175Y-105.562
X134.3Y-115.5
X134.35Y-92.5
X134.35Y-93.412
X134.35Y-94.5
X134.405Y-78.45
X134.405Y-80.95
X134.55Y-101.9
X134.55Y-102.65
X134.925Y-103.562
X134.925Y-104.562
X134.925Y-105.562
X135.0Y-85.9
X135.3Y-101.9
X135.3Y-102.65
X135.35Y-92.5
X135.35Y-93.412
X135.35Y-94.5
X135.405Y-78.45
X135.405Y-80.95
X135.675Y-103.562
X135.675Y-104.562
X135.675Y-105.562
X136.05Y-101.9
X136.05Y-102.65
X136.35Y-92.5
X136.35Y-93.412
X136.35Y-94.5
X136.405Y-78.45
X136.405Y-80.95
X136.8Y-98.253
X136.8Y-102.9
X137.0Y-85.75
X137.3Y-113.0
X137.3Y-114.0
X137.3Y-115.0
X137.3Y-116.0
X137.3Y-118.0
X137.3Y-122.0
X137.35Y-92.5
X137.35Y-93.5
X137.35Y-94.5
X137.405Y-78.45
X137.405Y-80.95
X137.461Y-97.732
X137.55Y-101.9
X137.55Y-102.65
X137.55Y-103.4
X137.55Y-104.15
X137.55Y-104.9
X137.55Y-105.65
X137.55Y-106.4
X138.125Y-94.5
X138.15Y-92.5
X138.15Y-93.5
X138.3Y-101.9
X138.3Y-102.65
X138.3Y-103.4
X138.3Y-104.15
X138.3Y-104.9
X138.3Y-105.65
X138.3Y-106.4
X138.3Y-107.5
X138.3Y-111.5
X138.3Y-113.0
X138.3Y-114.0
X138.3Y-115.0
X138.3Y-116.0
X138.3Y-118.0
X138.3Y-122.0
X138.424Y-97.736
X138.75Y-85.75
X138.76Y-88.98
X139.05Y-101.9
X139.05Y-102.65
X139.05Y-103.4
X139.05Y-104.15
X139.05Y-104.9
X139.05Y-105.65
X139.05Y-106.4
X139.3Y-98.65
X139.3Y-107.5
X139.3Y-111.5
X139.3Y-118.0
X139.3Y-122.0
X139.305Y-113.0
X139.305Y-114.0
X139.305Y-115.0
X139.305Y-116.0
X139.517Y-94.426
X139.55Y-93.5
X139.575Y-92.5
X139.8Y-104.15
X139.8Y-104.9
X139.8Y-105.65
X139.8Y-106.4
X139.905Y-78.45
X139.905Y-80.95
X140.005Y-98.241
X140.3Y-107.5
X140.3Y-111.5
X140.3Y-118.0
X140.3Y-122.0
X140.305Y-113.0
X140.305Y-114.0
X140.305Y-115.0
X140.305Y-116.0
X140.35Y-92.5
X140.35Y-93.5
X140.35Y-94.5
X140.55Y-85.75
X140.55Y-101.9
X140.55Y-102.65
X140.55Y-106.15
X140.905Y-78.45
X140.905Y-80.95
X141.3Y-101.9
X141.3Y-102.65
X141.3Y-107.5
X141.3Y-111.5
X141.3Y-118.0
X141.3Y-122.0
X141.305Y-113.0
X141.305Y-114.0
X141.305Y-115.0
X141.305Y-116.0
X141.35Y-92.5
X141.35Y-93.5
X141.35Y-94.5
X141.745Y-103.65
X141.745Y-104.65
X141.745Y-105.65
X141.905Y-78.45
X141.905Y-80.95
X142.3Y-107.5
X142.3Y-111.5
X142.3Y-118.0
X142.3Y-122.0
X142.305Y-113.0
X142.305Y-114.0
X142.305Y-115.0
X142.305Y-116.0
X142.35Y-92.5
X142.35Y-93.5
X142.35Y-94.5
X142.495Y-103.65
X142.495Y-104.65
X142.495Y-105.65
X142.55Y-85.712
X142.8Y-101.9
X142.8Y-102.65
X142.905Y-78.45
X142.905Y-80.95
X143.245Y-103.65
X143.245Y-104.65
X143.245Y-105.65
X143.3Y-107.5
X143.3Y-111.5
X143.3Y-118.0
X143.3Y-122.0
X143.305Y-113.0
X143.305Y-114.0
X143.305Y-115.0
X143.305Y-116.0
X143.35Y-92.5
X143.35Y-93.5
X143.35Y-94.319
X143.6Y-85.712
X144.3Y-107.5
X144.3Y-111.5
X144.3Y-118.0
X144.3Y-122.0
X144.305Y-113.0
X144.305Y-114.0
X144.305Y-115.0
X144.305Y-116.0
X144.35Y-92.5
X144.35Y-93.5
X144.35Y-94.319
X144.5Y-89.2
X144.8Y-103.9
X144.8Y-104.65
X144.8Y-105.4
X144.8Y-106.15
X145.3Y-107.5
X145.3Y-111.5
X145.3Y-118.0
X145.3Y-122.0
X145.305Y-113.0
X145.305Y-114.0
X145.305Y-115.0
X145.305Y-116.0
X145.8Y-103.9
X145.8Y-104.65
X145.8Y-105.4
X145.8Y-106.15
X146.3Y-107.5
X146.3Y-111.5
X146.3Y-118.0
X146.3Y-122.0
X146.305Y-113.0
X146.305Y-114.0
X146.305Y-115.0
X146.305Y-116.0
X146.8Y-78.5
X146.8Y-81.5
X146.8Y-89.5
X146.8Y-92.0
X146.8Y-103.9
X146.8Y-104.65
X146.8Y-105.4
X146.8Y-106.15
X147.05Y-100.9
X147.3Y-107.5
X147.3Y-111.5
X147.3Y-118.0
X147.3Y-122.0
X147.305Y-113.0
X147.305Y-114.0
X147.305Y-115.0
X147.305Y-116.0
X147.55Y-106.15
X147.8Y-78.5
X147.8Y-81.5
X147.8Y-89.5
X147.8Y-92.0
X148.05Y-100.9
X148.05Y-101.9
X148.3Y-107.5
X148.3Y-111.5
X148.3Y-118.0
X148.3Y-122.0
X148.305Y-113.0
X148.305Y-114.0
X148.305Y-115.0
X148.305Y-116.0
X148.75Y-103.742
X148.75Y-104.742
X148.75Y-105.742
X148.8Y-78.5
X148.8Y-81.5
X148.8Y-89.5
X148.8Y-92.0
X149.05Y-100.9
X149.05Y-101.9
X149.3Y-107.5
X149.3Y-111.5
X149.3Y-118.0
X149.3Y-122.0
X149.305Y-113.0
X149.305Y-114.0
X149.305Y-115.0
X149.305Y-116.0
X149.5Y-103.742
X149.5Y-104.742
X149.5Y-105.742
X149.8Y-78.5
X149.8Y-81.5
X149.8Y-89.5
X149.8Y-92.0
X150.05Y-100.9
X150.05Y-101.9
X150.25Y-103.742
X150.25Y-104.742
X150.25Y-105.742
X150.305Y-113.0
X150.305Y-114.0
X150.305Y-115.0
X150.305Y-116.0
X150.8Y-78.5
X150.8Y-81.5
X150.8Y-89.5
X150.8Y-92.0
X153.4Y-97.0
X153.4Y-98.0
X153.4Y-99.0
X153.4Y-100.0
X153.4Y-101.0
X153.4Y-102.0
X154.45Y-97.0
X154.45Y-98.0
X154.45Y-99.0
X154.45Y-100.0
X154.45Y-101.0
X154.45Y-102.0
X154.925Y-82.356
X155.3Y-97.0
X155.3Y-98.0
X155.3Y-99.0
X155.3Y-100.0
X155.3Y-101.0
X155.3Y-102.0
X155.775Y-82.356
X156.6Y-78.0
X156.6Y-79.0
X157.6Y-78.0
X158.2Y-86.2
X158.6Y-78.0
X158.6Y-79.0
X158.6Y-80.0
X158.6Y-81.0
X159.5Y-78.0
X159.5Y-79.0
X159.5Y-80.0
X159.5Y-81.0
X159.9Y-85.375
T2
X105.105Y-102.5
X113.505Y-101.15
X116.505Y-101.15
X119.505Y-101.15
X121.825Y-83.95
X124.365Y-83.95
X124.8Y-108.9
X132.605Y-71.5
T3
X157.74Y-70.3
X157.74Y-73.7
X167.66Y-70.3
X167.66Y-73.7
T4
X122.55Y-71.5
X122.75Y-87.95
X128.3Y-71.5
X141.055Y-71.5
X162.6Y-78.9
X167.7Y-78.9
M30
