G04 #@! TF.GenerationSoftware,KiCad,Pcbnew,9.0.5*
G04 #@! TF.CreationDate,2025-12-20T13:11:22+01:00*
G04 #@! TF.ProjectId,peak-ignitor-box,7065616b-2d69-4676-9e69-746f722d626f,rev?*
G04 #@! TF.SameCoordinates,Original*
G04 #@! TF.FileFunction,Paste,Top*
G04 #@! TF.FilePolarity,Positive*
%FSLAX46Y46*%
G04 Gerber Fmt 4.6, Leading zero omitted, Abs format (unit mm)*
G04 Created by KiCad (PCBNEW 9.0.5) date 2025-12-20 13:11:22*
%MOMM*%
%LPD*%
G01*
G04 APERTURE LIST*
G04 Aperture macros list*
%AMRoundRect*
0 Rectangle with rounded corners*
0 $1 Rounding radius*
0 $2 $3 $4 $5 $6 $7 $8 $9 X,Y pos of 4 corners*
0 Add a 4 corners polygon primitive as box body*
4,1,4,$2,$3,$4,$5,$6,$7,$8,$9,$2,$3,0*
0 Add four circle primitives for the rounded corners*
1,1,$1+$1,$2,$3*
1,1,$1+$1,$4,$5*
1,1,$1+$1,$6,$7*
1,1,$1+$1,$8,$9*
0 Add four rect primitives between the rounded corners*
20,1,$1+$1,$2,$3,$4,$5,0*
20,1,$1+$1,$4,$5,$6,$7,0*
20,1,$1+$1,$6,$7,$8,$9,0*
20,1,$1+$1,$8,$9,$2,$3,0*%
G04 Aperture macros list end*
%ADD10R,2.000000X1.840000*%
%ADD11RoundRect,0.200000X-0.300000X-0.500000X0.300000X-0.500000X0.300000X0.500000X-0.300000X0.500000X0*%
%ADD12RoundRect,0.200000X0.340000X0.860000X-0.340000X0.860000X-0.340000X-0.860000X0.340000X-0.860000X0*%
%ADD13R,2.000000X2.640000*%
%ADD14R,2.540000X2.640000*%
%ADD15RoundRect,0.200000X-0.210000X-0.360000X0.210000X-0.360000X0.210000X0.360000X-0.210000X0.360000X0*%
%ADD16RoundRect,0.200000X-0.260000X-0.880000X0.260000X-0.880000X0.260000X0.880000X-0.260000X0.880000X0*%
%ADD17RoundRect,0.200000X-0.360000X-0.640000X0.360000X-0.640000X0.360000X0.640000X-0.360000X0.640000X0*%
%ADD18R,0.570000X0.738000*%
%ADD19RoundRect,0.125000X-0.190000X-0.125000X0.190000X-0.125000X0.190000X0.125000X-0.190000X0.125000X0*%
%ADD20RoundRect,0.100000X-0.152000X-0.100000X0.152000X-0.100000X0.152000X0.100000X-0.152000X0.100000X0*%
%ADD21RoundRect,0.200000X0.360000X-0.210000X0.360000X0.210000X-0.360000X0.210000X-0.360000X-0.210000X0*%
%ADD22RoundRect,0.200000X0.260000X0.880000X-0.260000X0.880000X-0.260000X-0.880000X0.260000X-0.880000X0*%
%ADD23RoundRect,0.200000X-0.380000X0.200000X-0.380000X-0.200000X0.380000X-0.200000X0.380000X0.200000X0*%
%ADD24RoundRect,0.200000X-0.260000X-0.520000X0.260000X-0.520000X0.260000X0.520000X-0.260000X0.520000X0*%
%ADD25RoundRect,0.200000X1.560000X0.800000X-1.560000X0.800000X-1.560000X-0.800000X1.560000X-0.800000X0*%
%ADD26RoundRect,0.200000X-0.200000X-0.380000X0.200000X-0.380000X0.200000X0.380000X-0.200000X0.380000X0*%
%ADD27RoundRect,0.200000X0.260000X0.520000X-0.260000X0.520000X-0.260000X-0.520000X0.260000X-0.520000X0*%
%ADD28R,3.200000X1.200000*%
%ADD29RoundRect,0.200000X-0.290000X-0.860000X0.290000X-0.860000X0.290000X0.860000X-0.290000X0.860000X0*%
%ADD30RoundRect,0.125000X0.190000X0.125000X-0.190000X0.125000X-0.190000X-0.125000X0.190000X-0.125000X0*%
%ADD31RoundRect,0.100000X0.152000X0.100000X-0.152000X0.100000X-0.152000X-0.100000X0.152000X-0.100000X0*%
%ADD32RoundRect,0.200000X-1.560000X-0.800000X1.560000X-0.800000X1.560000X0.800000X-1.560000X0.800000X0*%
%ADD33RoundRect,0.200000X-1.140000X0.290000X-1.140000X-0.290000X1.140000X-0.290000X1.140000X0.290000X0*%
%ADD34RoundRect,0.200000X0.380000X-0.200000X0.380000X0.200000X-0.380000X0.200000X-0.380000X-0.200000X0*%
%ADD35R,3.396000X3.048000*%
%ADD36RoundRect,0.200000X0.210000X0.360000X-0.210000X0.360000X-0.210000X-0.360000X0.210000X-0.360000X0*%
%ADD37R,2.208000X0.520000*%
%ADD38RoundRect,0.200000X-0.360000X0.210000X-0.360000X-0.210000X0.360000X-0.210000X0.360000X0.210000X0*%
%ADD39RoundRect,0.199999X5.080001X-1.072001X5.080001X1.072001X-5.080001X1.072001X-5.080001X-1.072001X0*%
%ADD40RoundRect,0.120000X0.120000X-0.410000X0.120000X0.410000X-0.120000X0.410000X-0.120000X-0.410000X0*%
G04 APERTURE END LIST*
D10*
X215575000Y-103475000D03*
X219875000Y-103475000D03*
D11*
X202425000Y-96600000D03*
X205225000Y-96600000D03*
D12*
X221300000Y-81450000D03*
X216800000Y-81450000D03*
D11*
X202450000Y-94350000D03*
X205250000Y-94350000D03*
D13*
X208950000Y-92700000D03*
X215750000Y-92700000D03*
D14*
X202435000Y-82650000D03*
X213865000Y-82650000D03*
D11*
X218300000Y-84150000D03*
X221100000Y-84150000D03*
X218350000Y-86400000D03*
X221150000Y-86400000D03*
D15*
X205492500Y-108500000D03*
X207317500Y-108500000D03*
D16*
X228800000Y-103900000D03*
X231750000Y-103900000D03*
D17*
X201450000Y-99475000D03*
X205850000Y-99475000D03*
D18*
X201260000Y-90580000D03*
X201260000Y-91800000D03*
X202210000Y-90580000D03*
X202210000Y-91800000D03*
D19*
X202790000Y-90217500D03*
X202790000Y-90860000D03*
X202790000Y-91520000D03*
X202790000Y-92162500D03*
D20*
X199910000Y-90220000D03*
X199910000Y-90860000D03*
X199910000Y-91520000D03*
X199910000Y-92160000D03*
D21*
X213025000Y-103937500D03*
X213025000Y-102112500D03*
D22*
X243475000Y-103900000D03*
X240525000Y-103900000D03*
D23*
X212080000Y-111400000D03*
X212080000Y-113300000D03*
D24*
X205430000Y-106300000D03*
X208380000Y-106300000D03*
D25*
X246710000Y-85770000D03*
X238310000Y-85770000D03*
D15*
X210192500Y-109700000D03*
X212017500Y-109700000D03*
D26*
X220300000Y-122500000D03*
X222200000Y-122500000D03*
D27*
X210625000Y-99675000D03*
X207675000Y-99675000D03*
D15*
X200675000Y-120000000D03*
X202500000Y-120000000D03*
D28*
X201850000Y-101975000D03*
X201850000Y-105575000D03*
D29*
X250187500Y-85750000D03*
X254812500Y-85750000D03*
D18*
X232650000Y-111280000D03*
X232650000Y-110060000D03*
X231700000Y-111280000D03*
X231700000Y-110060000D03*
D30*
X231120000Y-111642500D03*
X231120000Y-111000000D03*
X231120000Y-110340000D03*
X231120000Y-109697500D03*
D31*
X234000000Y-111640000D03*
X234000000Y-111000000D03*
X234000000Y-110340000D03*
X234000000Y-109700000D03*
D32*
X225000000Y-85800000D03*
X233400000Y-85800000D03*
D33*
X229807500Y-116587500D03*
X229807500Y-122512500D03*
D34*
X205750000Y-103925000D03*
X205750000Y-102025000D03*
D15*
X218992500Y-106900000D03*
X220817500Y-106900000D03*
D35*
X214112500Y-98650000D03*
X220487500Y-98650000D03*
D21*
X201350000Y-118212500D03*
X201350000Y-116387500D03*
D18*
X226025000Y-111352500D03*
X226025000Y-110132500D03*
X225075000Y-111352500D03*
X225075000Y-110132500D03*
D30*
X224495000Y-111715000D03*
X224495000Y-111072500D03*
X224495000Y-110412500D03*
X224495000Y-109770000D03*
D31*
X227375000Y-111712500D03*
X227375000Y-111072500D03*
X227375000Y-110412500D03*
X227375000Y-109772500D03*
D22*
X225825000Y-107100000D03*
X222875000Y-107100000D03*
D16*
X228800000Y-107100000D03*
X231750000Y-107100000D03*
D33*
X225507500Y-116587500D03*
X225507500Y-122512500D03*
D18*
X246220000Y-110230000D03*
X246220000Y-111450000D03*
X247170000Y-110230000D03*
X247170000Y-111450000D03*
D19*
X247750000Y-109867500D03*
X247750000Y-110510000D03*
X247750000Y-111170000D03*
X247750000Y-111812500D03*
D20*
X244870000Y-109870000D03*
X244870000Y-110510000D03*
X244870000Y-111170000D03*
X244870000Y-111810000D03*
D18*
X205300000Y-90690000D03*
X205300000Y-91910000D03*
X206250000Y-90690000D03*
X206250000Y-91910000D03*
D19*
X206830000Y-90327500D03*
X206830000Y-90970000D03*
X206830000Y-91630000D03*
X206830000Y-92272500D03*
D20*
X203950000Y-90330000D03*
X203950000Y-90970000D03*
X203950000Y-91630000D03*
X203950000Y-92270000D03*
D25*
X246692500Y-96780000D03*
X238292500Y-96780000D03*
D36*
X222162500Y-120250000D03*
X220337500Y-120250000D03*
D37*
X205380000Y-118230000D03*
X209420000Y-118230000D03*
X205380000Y-119500000D03*
X209420000Y-119500000D03*
X205380000Y-120770000D03*
X209420000Y-120770000D03*
X214350763Y-113260000D03*
X218390763Y-113260000D03*
X214350763Y-114530000D03*
X218390763Y-114530000D03*
X214350763Y-115800000D03*
X218390763Y-115800000D03*
X214350763Y-117070000D03*
X218390763Y-117070000D03*
X214350763Y-118340000D03*
X218390763Y-118340000D03*
D16*
X248275000Y-103900000D03*
X251225000Y-103900000D03*
D18*
X239220000Y-110092500D03*
X239220000Y-111312500D03*
X240170000Y-110092500D03*
X240170000Y-111312500D03*
D19*
X240750000Y-109730000D03*
X240750000Y-110372500D03*
X240750000Y-111032500D03*
X240750000Y-111675000D03*
D20*
X237870000Y-109732500D03*
X237870000Y-110372500D03*
X237870000Y-111032500D03*
X237870000Y-111672500D03*
D22*
X225825000Y-103900000D03*
X222875000Y-103900000D03*
D24*
X235237500Y-105300000D03*
X238187500Y-105300000D03*
D38*
X210080000Y-111525000D03*
X210080000Y-113350000D03*
D39*
X240257500Y-126200000D03*
X240257500Y-115600000D03*
D38*
X211150000Y-102062500D03*
X211150000Y-103887500D03*
D22*
X243450000Y-107100000D03*
X240500000Y-107100000D03*
D36*
X208112500Y-111100000D03*
X206287500Y-111100000D03*
D32*
X225000000Y-96800000D03*
X233400000Y-96800000D03*
D40*
X207500000Y-104212500D03*
X208450000Y-104212500D03*
X209400000Y-104212500D03*
X209400000Y-101937500D03*
X208450000Y-101937500D03*
X207500000Y-101937500D03*
D16*
X248300000Y-107100000D03*
X251250000Y-107100000D03*
M02*
