G04 #@! TF.GenerationSoftware,KiCad,Pcbnew,9.0.5*
G04 #@! TF.CreationDate,2025-12-26T12:12:57+01:00*
G04 #@! TF.ProjectId,peak-ignitor-box,7065616b-2d69-4676-9e69-746f722d626f,rev?*
G04 #@! TF.SameCoordinates,Original*
G04 #@! TF.FileFunction,Paste,Bot*
G04 #@! TF.FilePolarity,Positive*
%FSLAX46Y46*%
G04 Gerber Fmt 4.6, Leading zero omitted, Abs format (unit mm)*
G04 Created by KiCad (PCBNEW 9.0.5) date 2025-12-26 12:12:57*
%MOMM*%
%LPD*%
G01*
G04 APERTURE LIST*
G04 Aperture macros list*
%AMRoundRect*
0 Rectangle with rounded corners*
0 $1 Rounding radius*
0 $2 $3 $4 $5 $6 $7 $8 $9 X,Y pos of 4 corners*
0 Add a 4 corners polygon primitive as box body*
4,1,4,$2,$3,$4,$5,$6,$7,$8,$9,$2,$3,0*
0 Add four circle primitives for the rounded corners*
1,1,$1+$1,$2,$3*
1,1,$1+$1,$4,$5*
1,1,$1+$1,$6,$7*
1,1,$1+$1,$8,$9*
0 Add four rect primitives between the rounded corners*
20,1,$1+$1,$2,$3,$4,$5,0*
20,1,$1+$1,$4,$5,$6,$7,0*
20,1,$1+$1,$6,$7,$8,$9,0*
20,1,$1+$1,$8,$9,$2,$3,0*%
%AMFreePoly0*
4,1,6,0.480000,-0.480000,-0.154294,-0.480000,-0.480000,-0.154294,-0.480000,0.480000,0.480000,0.480000,0.480000,-0.480000,0.480000,-0.480000,$1*%
G04 Aperture macros list end*
%ADD10C,0.000000*%
%ADD11RoundRect,0.200000X0.380000X-0.200000X0.380000X0.200000X-0.380000X0.200000X-0.380000X-0.200000X0*%
%ADD12RoundRect,0.212500X-0.212500X0.212500X-0.212500X-0.212500X0.212500X-0.212500X0.212500X0.212500X0*%
%ADD13RoundRect,0.050000X-0.050000X0.270000X-0.050000X-0.270000X0.050000X-0.270000X0.050000X0.270000X0*%
%ADD14RoundRect,0.050000X-0.270000X0.050000X-0.270000X-0.050000X0.270000X-0.050000X0.270000X0.050000X0*%
%ADD15RoundRect,0.195000X-0.365000X0.195000X-0.365000X-0.195000X0.365000X-0.195000X0.365000X0.195000X0*%
%ADD16RoundRect,0.195000X0.195000X0.365000X-0.195000X0.365000X-0.195000X-0.365000X0.195000X-0.365000X0*%
%ADD17RoundRect,0.195000X-0.195000X-0.365000X0.195000X-0.365000X0.195000X0.365000X-0.195000X0.365000X0*%
%ADD18RoundRect,0.175000X0.175000X0.205000X-0.175000X0.205000X-0.175000X-0.205000X0.175000X-0.205000X0*%
%ADD19R,0.640000X0.720000*%
%ADD20RoundRect,0.195000X0.365000X-0.195000X0.365000X0.195000X-0.365000X0.195000X-0.365000X-0.195000X0*%
%ADD21RoundRect,0.200000X-0.500000X0.250000X-0.500000X-0.250000X0.500000X-0.250000X0.500000X0.250000X0*%
%ADD22RoundRect,0.200000X0.300000X0.500000X-0.300000X0.500000X-0.300000X-0.500000X0.300000X-0.500000X0*%
%ADD23RoundRect,0.200000X-0.200000X-0.380000X0.200000X-0.380000X0.200000X0.380000X-0.200000X0.380000X0*%
%ADD24RoundRect,0.200000X0.200000X0.380000X-0.200000X0.380000X-0.200000X-0.380000X0.200000X-0.380000X0*%
%ADD25RoundRect,0.200000X0.360000X-0.210000X0.360000X0.210000X-0.360000X0.210000X-0.360000X-0.210000X0*%
%ADD26RoundRect,0.200000X-0.210000X-0.360000X0.210000X-0.360000X0.210000X0.360000X-0.210000X0.360000X0*%
%ADD27R,0.800000X0.720000*%
%ADD28RoundRect,0.120000X0.120000X-0.470000X0.120000X0.470000X-0.120000X0.470000X-0.120000X-0.470000X0*%
%ADD29RoundRect,0.040000X-0.080000X0.228000X-0.080000X-0.228000X0.080000X-0.228000X0.080000X0.228000X0*%
%ADD30RoundRect,0.200000X-0.380000X0.200000X-0.380000X-0.200000X0.380000X-0.200000X0.380000X0.200000X0*%
%ADD31RoundRect,0.200000X0.210000X0.360000X-0.210000X0.360000X-0.210000X-0.360000X0.210000X-0.360000X0*%
%ADD32RoundRect,0.200000X-0.520000X0.260000X-0.520000X-0.260000X0.520000X-0.260000X0.520000X0.260000X0*%
%ADD33RoundRect,0.120000X-0.120000X0.470000X-0.120000X-0.470000X0.120000X-0.470000X0.120000X0.470000X0*%
%ADD34R,0.640000X0.320000*%
%ADD35R,0.320000X0.640000*%
%ADD36R,0.960000X0.960000*%
%ADD37FreePoly0,0.000000*%
%ADD38R,0.640000X0.640000*%
%ADD39RoundRect,0.180000X0.200000X-0.180000X0.200000X0.180000X-0.200000X0.180000X-0.200000X-0.180000X0*%
%ADD40RoundRect,0.120000X0.470000X0.120000X-0.470000X0.120000X-0.470000X-0.120000X0.470000X-0.120000X0*%
%ADD41RoundRect,0.180000X-0.200000X0.180000X-0.200000X-0.180000X0.200000X-0.180000X0.200000X0.180000X0*%
%ADD42R,0.249979X1.564346*%
G04 APERTURE END LIST*
D10*
G36*
X236209700Y-100481714D02*
G01*
X234580592Y-100481714D01*
X234580592Y-98542902D01*
X236209700Y-98542902D01*
X236209700Y-100481714D01*
G37*
G36*
X238319403Y-100481714D02*
G01*
X236690296Y-100481714D01*
X236690296Y-98542902D01*
X238319403Y-98542902D01*
X238319403Y-100481714D01*
G37*
D11*
X202100000Y-119050000D03*
X202100000Y-117150000D03*
D12*
X209847500Y-87790000D03*
X208627500Y-87790000D03*
X209847500Y-89010000D03*
X208627500Y-89010000D03*
D13*
X208487500Y-86650000D03*
X208987500Y-86650000D03*
X209487500Y-86650000D03*
X209987500Y-86650000D03*
D14*
X210987500Y-87650000D03*
X210987500Y-88150000D03*
X210987500Y-88650000D03*
X210987500Y-89150000D03*
D13*
X209987500Y-90150000D03*
X209487500Y-90150000D03*
X208987500Y-90150000D03*
X208487500Y-90150000D03*
D14*
X207487500Y-89150000D03*
X207487500Y-88650000D03*
X207487500Y-88150000D03*
X207487500Y-87650000D03*
D15*
X216237500Y-81938000D03*
X216237500Y-83813000D03*
D16*
X210675000Y-82710000D03*
X208800000Y-82710000D03*
X220837500Y-87400000D03*
X218962500Y-87400000D03*
D17*
X212569500Y-83256500D03*
X214444500Y-83256500D03*
D15*
X212681500Y-87350500D03*
X212681500Y-89225500D03*
D17*
X212569500Y-85288500D03*
X214444500Y-85288500D03*
D18*
X220675000Y-85700000D03*
X219100000Y-85700000D03*
D19*
X206000000Y-90035000D03*
X204100000Y-90035000D03*
X205050000Y-88035000D03*
D16*
X208587500Y-91700000D03*
X206712500Y-91700000D03*
D17*
X214462500Y-89200000D03*
X216337500Y-89200000D03*
D20*
X216237500Y-87290500D03*
X216237500Y-85415500D03*
D16*
X220887500Y-84000000D03*
X219012500Y-84000000D03*
D20*
X202355000Y-89397500D03*
X202355000Y-87522500D03*
D21*
X206837500Y-82247500D03*
X206837500Y-85172500D03*
D16*
X210634500Y-84653500D03*
X208759500Y-84653500D03*
X214437500Y-96700000D03*
X212562500Y-96700000D03*
D22*
X210900000Y-96700000D03*
X208100000Y-96700000D03*
D23*
X208300000Y-93800000D03*
X210200000Y-93800000D03*
D24*
X212000000Y-91800000D03*
X210100000Y-91800000D03*
D25*
X233299999Y-93674808D03*
X233299999Y-91849808D03*
D26*
X227237500Y-104500000D03*
X229062500Y-104500000D03*
D23*
X236750000Y-106100000D03*
X238650000Y-106100000D03*
D27*
X207600000Y-103250000D03*
X207600000Y-99150000D03*
X206000000Y-103250000D03*
X206000000Y-99150000D03*
D28*
X218242500Y-101212500D03*
X216342500Y-101212500D03*
X217292500Y-99337500D03*
D25*
X229500000Y-98625000D03*
X229500000Y-96800000D03*
D29*
X231250000Y-114060000D03*
X231750000Y-114060000D03*
X232250000Y-114060000D03*
X232250000Y-115540000D03*
X231750000Y-115540000D03*
X231250000Y-115540000D03*
D30*
X242037500Y-103550000D03*
X242037500Y-105450000D03*
D11*
X244799999Y-93712308D03*
X244799999Y-91812308D03*
D31*
X245075000Y-85750000D03*
X243250000Y-85750000D03*
D24*
X213850000Y-93800000D03*
X211950000Y-93800000D03*
D31*
X244712499Y-90062308D03*
X242887499Y-90062308D03*
D32*
X200400000Y-120625000D03*
X200400000Y-123575000D03*
D26*
X200687500Y-111500000D03*
X202512500Y-111500000D03*
X216380000Y-103175000D03*
X218205000Y-103175000D03*
D29*
X202200000Y-84360000D03*
X202700000Y-84360000D03*
X203200000Y-84360000D03*
X203200000Y-85840000D03*
X202700000Y-85840000D03*
X202200000Y-85840000D03*
D31*
X245700000Y-105600000D03*
X243875000Y-105600000D03*
D33*
X209392500Y-101525000D03*
X211292500Y-101525000D03*
X210342500Y-103400000D03*
D31*
X245700000Y-103700000D03*
X243875000Y-103700000D03*
D27*
X202400000Y-99150000D03*
X202400000Y-103250000D03*
X204000000Y-99150000D03*
X204000000Y-103250000D03*
D26*
X227237500Y-102600000D03*
X229062500Y-102600000D03*
D25*
X220042500Y-102937500D03*
X220042500Y-101112500D03*
D31*
X202412500Y-115400000D03*
X200587500Y-115400000D03*
D34*
X204500000Y-122550000D03*
X204500000Y-121700000D03*
X204500000Y-120850000D03*
X204500000Y-120000000D03*
X204500000Y-119150000D03*
X204500000Y-118300000D03*
X204500000Y-117450000D03*
X204500000Y-116600000D03*
X204500000Y-115750000D03*
X204500000Y-114900000D03*
X204500000Y-114050000D03*
X204500000Y-113200000D03*
X204500000Y-112350000D03*
X204500000Y-111500000D03*
X204500000Y-110650000D03*
D35*
X205550000Y-109600000D03*
X206400000Y-109600000D03*
X207250000Y-109600000D03*
X208100000Y-109600000D03*
X208950000Y-109600000D03*
X209800000Y-109600000D03*
X210650000Y-109600000D03*
X211500000Y-109600000D03*
X212350000Y-109600000D03*
X213200000Y-109600000D03*
X214050000Y-109600000D03*
X214900000Y-109600000D03*
X215750000Y-109600000D03*
X216600000Y-109600000D03*
X217450000Y-109600000D03*
D34*
X218500000Y-110650000D03*
X218500000Y-111500000D03*
X218500000Y-112350000D03*
X218500000Y-113200000D03*
X218500000Y-114050000D03*
X218500000Y-114900000D03*
X218500000Y-115750000D03*
X218500000Y-116600000D03*
X218500000Y-117450000D03*
X218500000Y-118300000D03*
X218500000Y-119150000D03*
X218500000Y-120000000D03*
X218500000Y-120850000D03*
X218500000Y-121700000D03*
X218500000Y-122550000D03*
D35*
X217450000Y-123600000D03*
X216600000Y-123600000D03*
X215750000Y-123600000D03*
X214900000Y-123600000D03*
X214050000Y-123600000D03*
X213200000Y-123600000D03*
X212350000Y-123600000D03*
X211500000Y-123600000D03*
X210650000Y-123600000D03*
X209800000Y-123600000D03*
X208950000Y-123600000D03*
X208100000Y-123600000D03*
X207250000Y-123600000D03*
X206400000Y-123600000D03*
X205550000Y-123600000D03*
D36*
X209850000Y-114950000D03*
X209850000Y-116600000D03*
D37*
X209850000Y-118250000D03*
D36*
X211500000Y-114950000D03*
X211500000Y-116600000D03*
X211500000Y-118250000D03*
X213150000Y-114950000D03*
X213150000Y-116600000D03*
X213150000Y-118250000D03*
D38*
X204500000Y-123600000D03*
X204500000Y-109600000D03*
X218500000Y-109600000D03*
X218500000Y-123600000D03*
D26*
X209442500Y-99562500D03*
X211267500Y-99562500D03*
D39*
X242799999Y-93537308D03*
X242799999Y-91987308D03*
D11*
X231300000Y-93900000D03*
X231300000Y-92000000D03*
D25*
X236999999Y-93674808D03*
X236999999Y-91849808D03*
D40*
X220142500Y-104950000D03*
X220142500Y-106850000D03*
X218267500Y-105900000D03*
D11*
X240799999Y-93712308D03*
X240799999Y-91812308D03*
D25*
X238949999Y-93674808D03*
X238949999Y-91849808D03*
D31*
X216425000Y-105100000D03*
X214600000Y-105100000D03*
D30*
X202500000Y-120650000D03*
X202500000Y-122550000D03*
D28*
X214692500Y-101242500D03*
X212792500Y-101242500D03*
X213742500Y-99367500D03*
D26*
X200687500Y-113400000D03*
X202512500Y-113400000D03*
D24*
X233300000Y-106000000D03*
X231400000Y-106000000D03*
D11*
X233750000Y-116000000D03*
X233750000Y-114100000D03*
X204700000Y-86050000D03*
X204700000Y-84150000D03*
D25*
X235099999Y-93674808D03*
X235099999Y-91849808D03*
D41*
X230650000Y-102625000D03*
X230650000Y-104175000D03*
D26*
X212830000Y-103205000D03*
X214655000Y-103205000D03*
D42*
X231949998Y-96636924D03*
X232449999Y-96636924D03*
X232949998Y-96636924D03*
X233450000Y-96636924D03*
X233949999Y-96636924D03*
X234449998Y-96636924D03*
X234949999Y-96636924D03*
X235449998Y-96636924D03*
X235950000Y-96636924D03*
X236449999Y-96636924D03*
X236949998Y-96636924D03*
X237450000Y-96636924D03*
X237949999Y-96636924D03*
X238450000Y-96636924D03*
X238949999Y-96636924D03*
X239449998Y-96636924D03*
X239950000Y-96636924D03*
X240449999Y-96636924D03*
X240950000Y-96636924D03*
X240950000Y-102387692D03*
X240449999Y-102387692D03*
X239950000Y-102387692D03*
X239449998Y-102387692D03*
X238949999Y-102387692D03*
X238450000Y-102387692D03*
X237949999Y-102387692D03*
X237450000Y-102387692D03*
X236949998Y-102387692D03*
X236449999Y-102387692D03*
X235950000Y-102387692D03*
X235449998Y-102387692D03*
X234949999Y-102387692D03*
X234449998Y-102387692D03*
X233949999Y-102387692D03*
X233450000Y-102387692D03*
X232949998Y-102387692D03*
X232449999Y-102387692D03*
X231949998Y-102387692D03*
D31*
X241575000Y-85750000D03*
X239750000Y-85750000D03*
M02*
