G04 #@! TF.GenerationSoftware,KiCad,Pcbnew,9.0.5*
G04 #@! TF.CreationDate,2026-01-02T14:21:27+01:00*
G04 #@! TF.ProjectId,peak-ignitor-box,7065616b-2d69-4676-9e69-746f722d626f,rev?*
G04 #@! TF.SameCoordinates,Original*
G04 #@! TF.FileFunction,Soldermask,Top*
G04 #@! TF.FilePolarity,Negative*
%FSLAX46Y46*%
G04 Gerber Fmt 4.6, Leading zero omitted, Abs format (unit mm)*
G04 Created by KiCad (PCBNEW 9.0.5) date 2026-01-02 14:21:27*
%MOMM*%
%LPD*%
G01*
G04 APERTURE LIST*
G04 Aperture macros list*
%AMRoundRect*
0 Rectangle with rounded corners*
0 $1 Rounding radius*
0 $2 $3 $4 $5 $6 $7 $8 $9 X,Y pos of 4 corners*
0 Add a 4 corners polygon primitive as box body*
4,1,4,$2,$3,$4,$5,$6,$7,$8,$9,$2,$3,0*
0 Add four circle primitives for the rounded corners*
1,1,$1+$1,$2,$3*
1,1,$1+$1,$4,$5*
1,1,$1+$1,$6,$7*
1,1,$1+$1,$8,$9*
0 Add four rect primitives between the rounded corners*
20,1,$1+$1,$2,$3,$4,$5,0*
20,1,$1+$1,$4,$5,$6,$7,0*
20,1,$1+$1,$6,$7,$8,$9,0*
20,1,$1+$1,$8,$9,$2,$3,0*%
%AMFreePoly0*
4,1,17,1.371000,0.720000,0.950000,0.720000,0.950000,0.580000,1.370000,0.580000,1.370000,0.080000,0.950000,0.080000,0.950000,-0.080000,1.370000,-0.080000,1.370000,-0.580000,0.950000,-0.580000,0.950000,-0.720000,1.370000,-0.720000,1.370000,-1.225000,-0.950000,-1.225000,-0.950000,1.225000,1.371000,1.225000,1.371000,0.720000,1.371000,0.720000,$1*%
%AMFreePoly1*
4,1,19,1.371000,0.720000,0.950000,0.720000,0.950000,0.580000,1.370000,0.580000,1.370000,0.080000,0.950000,0.080000,0.950000,-0.080000,1.370000,-0.080000,1.370000,-0.580000,0.950000,-0.580000,0.950000,-0.720000,1.370000,-0.720000,1.370000,-1.225000,0.949960,-1.225000,-0.949960,-1.225000,-0.950000,-1.225000,-0.950000,1.225000,1.371000,1.225000,1.371000,0.720000,1.371000,0.720000,
$1*%
G04 Aperture macros list end*
%ADD10R,2.500000X2.300000*%
%ADD11RoundRect,0.250000X-0.375000X-0.625000X0.375000X-0.625000X0.375000X0.625000X-0.375000X0.625000X0*%
%ADD12RoundRect,0.250000X0.425000X1.075000X-0.425000X1.075000X-0.425000X-1.075000X0.425000X-1.075000X0*%
%ADD13R,2.500000X3.300000*%
%ADD14R,3.175000X3.300000*%
%ADD15RoundRect,0.250000X-0.262500X-0.450000X0.262500X-0.450000X0.262500X0.450000X-0.262500X0.450000X0*%
%ADD16RoundRect,0.250000X-1.000000X1.400000X-1.000000X-1.400000X1.000000X-1.400000X1.000000X1.400000X0*%
%ADD17R,1.700000X1.700000*%
%ADD18C,1.700000*%
%ADD19RoundRect,0.250000X-0.325000X-1.100000X0.325000X-1.100000X0.325000X1.100000X-0.325000X1.100000X0*%
%ADD20RoundRect,0.250000X-0.450000X-0.800000X0.450000X-0.800000X0.450000X0.800000X-0.450000X0.800000X0*%
%ADD21RoundRect,0.125000X-0.190000X-0.125000X0.190000X-0.125000X0.190000X0.125000X-0.190000X0.125000X0*%
%ADD22FreePoly0,0.000000*%
%ADD23RoundRect,0.250000X0.450000X-0.262500X0.450000X0.262500X-0.450000X0.262500X-0.450000X-0.262500X0*%
%ADD24C,2.780000*%
%ADD25C,2.000000*%
%ADD26RoundRect,0.250000X0.325000X1.100000X-0.325000X1.100000X-0.325000X-1.100000X0.325000X-1.100000X0*%
%ADD27RoundRect,0.250000X-0.475000X0.250000X-0.475000X-0.250000X0.475000X-0.250000X0.475000X0.250000X0*%
%ADD28RoundRect,0.250000X-0.325000X-0.650000X0.325000X-0.650000X0.325000X0.650000X-0.325000X0.650000X0*%
%ADD29RoundRect,0.250000X1.950000X1.000000X-1.950000X1.000000X-1.950000X-1.000000X1.950000X-1.000000X0*%
%ADD30RoundRect,0.250000X-0.250000X-0.475000X0.250000X-0.475000X0.250000X0.475000X-0.250000X0.475000X0*%
%ADD31RoundRect,0.250000X0.325000X0.650000X-0.325000X0.650000X-0.325000X-0.650000X0.325000X-0.650000X0*%
%ADD32C,3.400000*%
%ADD33R,4.000000X1.500000*%
%ADD34RoundRect,0.250000X-0.362500X-1.075000X0.362500X-1.075000X0.362500X1.075000X-0.362500X1.075000X0*%
%ADD35RoundRect,0.125000X0.190000X0.125000X-0.190000X0.125000X-0.190000X-0.125000X0.190000X-0.125000X0*%
%ADD36FreePoly1,180.000000*%
%ADD37RoundRect,0.250000X-1.950000X-1.000000X1.950000X-1.000000X1.950000X1.000000X-1.950000X1.000000X0*%
%ADD38RoundRect,0.250000X-1.425000X0.362500X-1.425000X-0.362500X1.425000X-0.362500X1.425000X0.362500X0*%
%ADD39RoundRect,0.250000X0.475000X-0.250000X0.475000X0.250000X-0.475000X0.250000X-0.475000X-0.250000X0*%
%ADD40R,4.245000X3.810000*%
%ADD41RoundRect,0.250000X-1.100000X0.325000X-1.100000X-0.325000X1.100000X-0.325000X1.100000X0.325000X0*%
%ADD42RoundRect,0.250000X0.262500X0.450000X-0.262500X0.450000X-0.262500X-0.450000X0.262500X-0.450000X0*%
%ADD43R,2.760000X0.650000*%
%ADD44RoundRect,0.250000X-0.450000X0.262500X-0.450000X-0.262500X0.450000X-0.262500X0.450000X0.262500X0*%
%ADD45RoundRect,0.249999X6.350001X-1.340001X6.350001X1.340001X-6.350001X1.340001X-6.350001X-1.340001X0*%
%ADD46RoundRect,0.150000X0.150000X-0.512500X0.150000X0.512500X-0.150000X0.512500X-0.150000X-0.512500X0*%
G04 APERTURE END LIST*
D10*
X118375000Y-97375000D03*
X122675000Y-97375000D03*
D11*
X105225000Y-90500000D03*
X108025000Y-90500000D03*
D12*
X124100000Y-75350000D03*
X119600000Y-75350000D03*
D11*
X105250000Y-88250000D03*
X108050000Y-88250000D03*
D13*
X111750000Y-86600000D03*
X118550000Y-86600000D03*
D14*
X105235000Y-76550000D03*
X116665000Y-76550000D03*
D11*
X121100000Y-78050000D03*
X123900000Y-78050000D03*
X121150000Y-80300000D03*
X123950000Y-80300000D03*
D15*
X108292500Y-102400000D03*
X110117500Y-102400000D03*
D16*
X168478063Y-84589011D03*
X161678063Y-84589011D03*
D17*
X121825000Y-83950000D03*
D18*
X124365000Y-83950000D03*
D19*
X131600000Y-97800000D03*
X134550000Y-97800000D03*
D20*
X104250000Y-93375000D03*
X108650000Y-93375000D03*
D21*
X102710000Y-84120000D03*
X102710000Y-84760000D03*
X102710000Y-85420000D03*
X102710000Y-86060000D03*
D22*
X104535000Y-85090000D03*
D23*
X115825000Y-97837500D03*
X115825000Y-96012500D03*
D24*
X157740000Y-70300000D03*
X157740000Y-73700000D03*
X167660000Y-70300000D03*
X167660000Y-73700000D03*
D25*
X124800000Y-108900000D03*
D26*
X146275000Y-97800000D03*
X143325000Y-97800000D03*
D27*
X114880000Y-105300000D03*
X114880000Y-107200000D03*
D28*
X108230000Y-100200000D03*
X111180000Y-100200000D03*
D29*
X149510000Y-79670000D03*
X141110000Y-79670000D03*
D15*
X112992500Y-103600000D03*
X114817500Y-103600000D03*
D30*
X123100000Y-116400000D03*
X125000000Y-116400000D03*
D31*
X113425000Y-93575000D03*
X110475000Y-93575000D03*
D25*
X116505000Y-101150000D03*
D15*
X103475000Y-113900000D03*
X105300000Y-113900000D03*
D32*
X128300000Y-71500000D03*
D33*
X104650000Y-95875000D03*
X104650000Y-99475000D03*
D34*
X152987500Y-79650000D03*
X157612500Y-79650000D03*
D25*
X119505000Y-101150000D03*
D35*
X136800000Y-105540000D03*
X136800000Y-104900000D03*
X136800000Y-104240000D03*
X136800000Y-103600000D03*
D36*
X134975000Y-104570000D03*
D37*
X127800000Y-79700000D03*
X136200000Y-79700000D03*
D38*
X132607500Y-110487500D03*
X132607500Y-116412500D03*
D25*
X113505000Y-101150000D03*
D39*
X108550000Y-97825000D03*
X108550000Y-95925000D03*
D15*
X121792500Y-100800000D03*
X123617500Y-100800000D03*
D32*
X167700000Y-78900000D03*
D40*
X116912500Y-92550000D03*
X123287500Y-92550000D03*
D23*
X104150000Y-112112500D03*
X104150000Y-110287500D03*
D35*
X130175000Y-105612500D03*
X130175000Y-104972500D03*
X130175000Y-104312500D03*
X130175000Y-103672500D03*
D36*
X128350000Y-104642500D03*
D26*
X128625000Y-101000000D03*
X125675000Y-101000000D03*
D19*
X131600000Y-101000000D03*
X134550000Y-101000000D03*
D38*
X128307500Y-110487500D03*
X128307500Y-116412500D03*
D21*
X147670000Y-103770000D03*
X147670000Y-104410000D03*
X147670000Y-105070000D03*
X147670000Y-105710000D03*
D22*
X149495000Y-104740000D03*
D41*
X158200000Y-82425000D03*
X158200000Y-85375000D03*
D21*
X106750000Y-84230000D03*
X106750000Y-84870000D03*
X106750000Y-85530000D03*
X106750000Y-86170000D03*
D22*
X108575000Y-85200000D03*
D29*
X149492500Y-90680000D03*
X141092500Y-90680000D03*
D42*
X124962500Y-114150000D03*
X123137500Y-114150000D03*
D43*
X108180000Y-112130000D03*
X112220000Y-112130000D03*
X108180000Y-113400000D03*
X112220000Y-113400000D03*
X108180000Y-114670000D03*
X112220000Y-114670000D03*
X117150763Y-107160000D03*
X121190763Y-107160000D03*
X117150763Y-108430000D03*
X121190763Y-108430000D03*
X117150763Y-109700000D03*
X121190763Y-109700000D03*
X117150763Y-110970000D03*
X121190763Y-110970000D03*
X117150763Y-112240000D03*
X121190763Y-112240000D03*
D19*
X151075000Y-97800000D03*
X154025000Y-97800000D03*
D32*
X141055000Y-71500000D03*
D21*
X140670000Y-103632500D03*
X140670000Y-104272500D03*
X140670000Y-104932500D03*
X140670000Y-105572500D03*
D22*
X142495000Y-104602500D03*
D25*
X132605000Y-71500000D03*
D26*
X128625000Y-97800000D03*
X125675000Y-97800000D03*
D28*
X138037500Y-99200000D03*
X140987500Y-99200000D03*
D44*
X112880000Y-105425000D03*
X112880000Y-107250000D03*
D45*
X143057500Y-120100000D03*
X143057500Y-109500000D03*
D44*
X113950000Y-95962500D03*
X113950000Y-97787500D03*
D26*
X146250000Y-101000000D03*
X143300000Y-101000000D03*
D32*
X122750000Y-87950000D03*
D25*
X105105000Y-102500000D03*
D42*
X110912500Y-105000000D03*
X109087500Y-105000000D03*
D37*
X127800000Y-90700000D03*
X136200000Y-90700000D03*
D46*
X110300000Y-98112500D03*
X111250000Y-98112500D03*
X112200000Y-98112500D03*
X112200000Y-95837500D03*
X111250000Y-95837500D03*
X110300000Y-95837500D03*
D32*
X162600000Y-78900000D03*
D19*
X151100000Y-101000000D03*
X154050000Y-101000000D03*
D32*
X122550000Y-71500000D03*
M02*
