M48
; DRILL file {KiCad 9.0.5} date 2025-12-20T13:11:26+0100
; FORMAT={-:-/ absolute / metric / decimal}
; #@! TF.CreationDate,2025-12-20T13:11:26+01:00
; #@! TF.GenerationSoftware,Kicad,Pcbnew,9.0.5
; #@! TF.FileFunction,Plated,1,4,PTH
FMAT,2
METRIC
; #@! TA.AperFunction,Plated,PTH,ViaDrill
T1C0.300
; #@! TA.AperFunction,Plated,PTH,ComponentDrill
T2C1.000
; #@! TA.AperFunction,Plated,PTH,ComponentDrill
T3C1.780
; #@! TA.AperFunction,Plated,PTH,ComponentDrill
T4C1.850
%
G90
G05
T1
X199.14Y-109.2
X199.9Y-116.7
X200.688Y-112.6
X200.85Y-118.85
X201.5Y-114.5
X201.6Y-120.9
X201.756Y-123.256
X201.905Y-90.46
X201.905Y-91.16
X201.905Y-91.86
X202.5Y-95.35
X202.5Y-97.6
X202.517Y-100.591
X202.519Y-92.925
X202.605Y-90.46
X202.605Y-91.16
X202.605Y-91.86
X202.615Y-88.77
X203.0Y-94.85
X203.0Y-96.1
X203.0Y-97.1
X203.25Y-115.35
X203.262Y-112.35
X203.406Y-117.139
X203.5Y-120.85
X203.6Y-116.4
X203.6Y-122.512
X203.648Y-120.089
X203.707Y-110.22
X204.0Y-99.9
X204.05Y-92.85
X204.3Y-107.7
X204.405Y-105.2
X204.405Y-106.0
X204.405Y-106.8
X204.5Y-124.35
X205.065Y-90.165
X205.075Y-90.93
X205.075Y-91.63
X205.075Y-92.33
X205.155Y-105.2
X205.35Y-110.45
X205.4Y-117.55
X205.7Y-83.9
X205.775Y-90.93
X205.775Y-91.63
X205.775Y-92.33
X205.955Y-105.15
X206.15Y-88.636
X206.351Y-121.349
X206.391Y-112.338
X206.405Y-95.0
X206.405Y-96.0
X206.405Y-97.0
X206.5Y-124.35
X206.577Y-87.643
X206.75Y-83.1
X206.79Y-104.918
X207.1Y-119.5
X207.2Y-98.5
X207.405Y-95.0
X207.505Y-103.1
X207.539Y-89.652
X207.7Y-118.05
X208.0Y-110.55
X208.0Y-124.35
X208.035Y-97.87
X208.125Y-108.48
X208.405Y-95.0
X208.405Y-103.1
X208.438Y-87.61
X208.438Y-88.41
X208.438Y-89.21
X208.987Y-85.8
X209.0Y-115.85
X209.0Y-117.35
X209.0Y-119.1
X209.139Y-114.766
X209.237Y-87.61
X209.237Y-88.41
X209.237Y-89.21
X209.405Y-95.0
X209.75Y-124.35
X209.805Y-102.8
X210.037Y-87.61
X210.037Y-88.41
X210.037Y-89.21
X210.537Y-104.988
X210.553Y-101.4
X210.65Y-95.233
X210.675Y-83.7
X210.75Y-114.1
X210.75Y-115.85
X210.75Y-117.35
X210.75Y-119.1
X210.955Y-111.0
X211.5Y-95.233
X211.5Y-124.35
X211.882Y-88.15
X212.25Y-114.1
X212.25Y-115.85
X212.25Y-117.35
X212.25Y-119.1
X213.025Y-101.325
X213.25Y-124.35
X213.771Y-115.1
X213.771Y-116.3
X213.771Y-117.6
X213.771Y-118.9
X214.0Y-110.4
X214.3Y-112.7
X214.75Y-124.35
X215.0Y-95.7
X215.705Y-101.45
X215.755Y-88.65
X215.755Y-89.45
X216.121Y-110.85
X216.471Y-111.8
X216.571Y-117.999
X216.671Y-112.6
X216.671Y-114.5
X216.671Y-115.8
X216.75Y-124.35
X216.775Y-117.1
X217.2Y-86.5
X217.371Y-110.5
X217.6Y-81.55
X217.621Y-120.1
X217.621Y-120.85
X218.5Y-124.35
X218.6Y-82.65
X218.8Y-88.4
X219.105Y-104.85
X219.121Y-122.5
X219.34Y-112.495
X219.392Y-109.079
X219.404Y-111.758
X219.55Y-82.65
X219.75Y-123.75
X220.35Y-81.5
X220.669Y-123.679
X221.1Y-85.2
X221.105Y-101.25
X221.25Y-102.6
X221.25Y-103.6
X222.0Y-119.25
X222.25Y-121.5
X222.5Y-106.1
X222.5Y-107.1
X222.5Y-108.1
X223.5Y-95.1
X223.5Y-98.6
X223.55Y-84.6
X223.55Y-87.6
X224.0Y-120.1
X224.5Y-95.1
X224.5Y-98.6
X224.55Y-84.6
X224.55Y-87.6
X224.55Y-106.1
X224.55Y-107.1
X224.55Y-108.1
X224.75Y-109.75
X224.75Y-110.75
X224.75Y-111.75
X225.0Y-115.6
X225.0Y-117.6
X225.0Y-121.6
X225.0Y-123.6
X225.0Y-125.0
X225.25Y-112.75
X225.25Y-113.5
X225.5Y-109.75
X225.5Y-110.75
X225.5Y-111.75
X225.55Y-84.6
X225.55Y-87.6
X225.55Y-95.1
X225.55Y-98.6
X226.0Y-115.6
X226.0Y-117.6
X226.0Y-121.6
X226.0Y-123.6
X226.0Y-125.0
X226.0Y-126.5
X226.25Y-109.75
X226.25Y-110.75
X226.25Y-111.75
X226.25Y-112.75
X226.25Y-113.5
X226.55Y-84.6
X226.55Y-87.6
X226.55Y-95.1
X226.55Y-98.6
X226.75Y-106.0
X226.75Y-107.0
X226.75Y-108.0
X227.0Y-115.6
X227.0Y-117.6
X227.0Y-121.6
X227.0Y-123.6
X227.0Y-125.0
X227.0Y-126.5
X227.25Y-109.25
X227.25Y-112.75
X227.25Y-113.5
X227.75Y-106.0
X227.75Y-107.0
X227.75Y-108.0
X227.85Y-119.175
X227.85Y-120.025
X228.0Y-115.6
X228.0Y-117.6
X228.0Y-121.6
X228.0Y-123.6
X228.0Y-125.0
X228.0Y-126.5
X228.25Y-109.75
X228.25Y-110.5
X228.25Y-111.25
X228.25Y-112.0
X228.25Y-112.75
X228.25Y-113.5
X228.431Y-94.131
X228.9Y-117.6
X229.0Y-115.6
X229.0Y-121.6
X229.0Y-123.6
X229.0Y-125.0
X229.0Y-126.5
X229.25Y-109.75
X229.25Y-110.5
X229.25Y-111.25
X229.25Y-112.0
X229.25Y-112.75
X229.25Y-113.5
X229.55Y-100.6
X230.0Y-115.6
X230.0Y-123.6
X230.0Y-125.0
X230.0Y-126.5
X230.25Y-109.75
X230.25Y-110.5
X230.25Y-111.25
X230.25Y-112.0
X230.25Y-112.75
X230.25Y-113.5
X230.55Y-98.6
X230.55Y-99.512
X230.55Y-100.6
X230.6Y-117.6
X230.6Y-121.6
X231.0Y-119.1
X231.0Y-120.1
X231.0Y-123.6
X231.0Y-125.0
X231.0Y-126.5
X231.375Y-109.662
X231.375Y-110.662
X231.375Y-111.662
X231.5Y-121.6
X231.55Y-98.6
X231.55Y-99.512
X231.55Y-100.6
X231.605Y-84.55
X231.605Y-87.05
X231.75Y-108.0
X231.75Y-108.75
X232.125Y-109.662
X232.125Y-110.662
X232.125Y-111.662
X232.2Y-92.0
X232.5Y-108.0
X232.5Y-108.75
X232.55Y-98.6
X232.55Y-99.512
X232.55Y-100.6
X232.605Y-84.55
X232.605Y-87.05
X232.875Y-109.662
X232.875Y-110.662
X232.875Y-111.662
X233.25Y-108.0
X233.25Y-108.75
X233.55Y-98.6
X233.55Y-99.512
X233.55Y-100.6
X233.605Y-84.55
X233.605Y-87.05
X234.0Y-104.353
X234.0Y-109.0
X234.2Y-91.85
X234.5Y-119.1
X234.5Y-120.1
X234.5Y-121.1
X234.5Y-122.1
X234.5Y-124.1
X234.5Y-128.1
X234.55Y-98.6
X234.55Y-99.6
X234.55Y-100.6
X234.605Y-84.55
X234.605Y-87.05
X234.661Y-103.832
X234.75Y-108.0
X234.75Y-108.75
X234.75Y-109.5
X234.75Y-110.25
X234.75Y-111.0
X234.75Y-111.75
X234.75Y-112.5
X235.325Y-100.6
X235.35Y-98.6
X235.35Y-99.6
X235.5Y-108.0
X235.5Y-108.75
X235.5Y-109.5
X235.5Y-110.25
X235.5Y-111.0
X235.5Y-111.75
X235.5Y-112.5
X235.5Y-113.6
X235.5Y-117.6
X235.5Y-119.1
X235.5Y-120.1
X235.5Y-121.1
X235.5Y-122.1
X235.5Y-124.1
X235.5Y-128.1
X235.624Y-103.836
X235.95Y-91.85
X235.96Y-95.08
X236.25Y-108.0
X236.25Y-108.75
X236.25Y-109.5
X236.25Y-110.25
X236.25Y-111.0
X236.25Y-111.75
X236.25Y-112.5
X236.5Y-104.75
X236.5Y-113.6
X236.5Y-117.6
X236.5Y-124.1
X236.5Y-128.1
X236.505Y-119.1
X236.505Y-120.1
X236.505Y-121.1
X236.505Y-122.1
X236.717Y-100.526
X236.75Y-99.6
X236.775Y-98.6
X237.0Y-110.25
X237.0Y-111.0
X237.0Y-111.75
X237.0Y-112.5
X237.105Y-84.55
X237.105Y-87.05
X237.205Y-104.341
X237.5Y-113.6
X237.5Y-117.6
X237.5Y-124.1
X237.5Y-128.1
X237.505Y-119.1
X237.505Y-120.1
X237.505Y-121.1
X237.505Y-122.1
X237.55Y-98.6
X237.55Y-99.6
X237.55Y-100.6
X237.75Y-91.85
X237.75Y-108.0
X237.75Y-108.75
X237.75Y-112.25
X238.105Y-84.55
X238.105Y-87.05
X238.5Y-108.0
X238.5Y-108.75
X238.5Y-113.6
X238.5Y-117.6
X238.5Y-124.1
X238.5Y-128.1
X238.505Y-119.1
X238.505Y-120.1
X238.505Y-121.1
X238.505Y-122.1
X238.55Y-98.6
X238.55Y-99.6
X238.55Y-100.6
X238.945Y-109.75
X238.945Y-110.75
X238.945Y-111.75
X239.105Y-84.55
X239.105Y-87.05
X239.5Y-113.6
X239.5Y-117.6
X239.5Y-124.1
X239.5Y-128.1
X239.505Y-119.1
X239.505Y-120.1
X239.505Y-121.1
X239.505Y-122.1
X239.55Y-98.6
X239.55Y-99.6
X239.55Y-100.6
X239.695Y-109.75
X239.695Y-110.75
X239.695Y-111.75
X239.75Y-91.812
X240.0Y-108.0
X240.0Y-108.75
X240.105Y-84.55
X240.105Y-87.05
X240.445Y-109.75
X240.445Y-110.75
X240.445Y-111.75
X240.5Y-113.6
X240.5Y-117.6
X240.5Y-124.1
X240.5Y-128.1
X240.505Y-119.1
X240.505Y-120.1
X240.505Y-121.1
X240.505Y-122.1
X240.55Y-98.6
X240.55Y-99.6
X240.55Y-100.419
X240.8Y-91.812
X241.5Y-113.6
X241.5Y-117.6
X241.5Y-124.1
X241.5Y-128.1
X241.505Y-119.1
X241.505Y-120.1
X241.505Y-121.1
X241.505Y-122.1
X241.55Y-98.6
X241.55Y-99.6
X241.55Y-100.419
X242.0Y-110.0
X242.0Y-110.75
X242.0Y-111.5
X242.0Y-112.25
X242.5Y-113.6
X242.5Y-117.6
X242.5Y-124.1
X242.5Y-128.1
X242.505Y-119.1
X242.505Y-120.1
X242.505Y-121.1
X242.505Y-122.1
X243.0Y-110.0
X243.0Y-110.75
X243.0Y-111.5
X243.0Y-112.25
X243.5Y-113.6
X243.5Y-117.6
X243.5Y-124.1
X243.5Y-128.1
X243.505Y-119.1
X243.505Y-120.1
X243.505Y-121.1
X243.505Y-122.1
X244.0Y-84.6
X244.0Y-87.6
X244.0Y-95.6
X244.0Y-98.1
X244.0Y-110.0
X244.0Y-110.75
X244.0Y-111.5
X244.0Y-112.25
X244.25Y-107.0
X244.5Y-113.6
X244.5Y-117.6
X244.5Y-124.1
X244.5Y-128.1
X244.505Y-119.1
X244.505Y-120.1
X244.505Y-121.1
X244.505Y-122.1
X244.75Y-112.25
X245.0Y-84.6
X245.0Y-87.6
X245.0Y-95.6
X245.0Y-98.1
X245.25Y-107.0
X245.25Y-108.0
X245.5Y-113.6
X245.5Y-117.6
X245.5Y-124.1
X245.5Y-128.1
X245.505Y-119.1
X245.505Y-120.1
X245.505Y-121.1
X245.505Y-122.1
X245.95Y-109.843
X245.95Y-110.843
X245.95Y-111.843
X246.0Y-84.6
X246.0Y-87.6
X246.0Y-95.6
X246.0Y-98.1
X246.25Y-107.0
X246.25Y-108.0
X246.5Y-113.6
X246.5Y-117.6
X246.5Y-124.1
X246.5Y-128.1
X246.505Y-119.1
X246.505Y-120.1
X246.505Y-121.1
X246.505Y-122.1
X246.7Y-109.843
X246.7Y-110.843
X246.7Y-111.843
X247.0Y-84.6
X247.0Y-87.6
X247.0Y-95.6
X247.0Y-98.1
X247.25Y-107.0
X247.25Y-108.0
X247.45Y-109.843
X247.45Y-110.843
X247.45Y-111.843
X247.505Y-119.1
X247.505Y-120.1
X247.505Y-121.1
X247.505Y-122.1
X248.0Y-84.6
X248.0Y-87.6
X248.0Y-95.6
X248.0Y-98.1
X250.2Y-88.8
X250.6Y-103.1
X250.6Y-104.1
X250.6Y-105.1
X250.6Y-106.1
X250.6Y-107.1
X250.6Y-108.1
X251.65Y-103.1
X251.65Y-104.1
X251.65Y-105.1
X251.65Y-106.1
X251.65Y-107.1
X251.65Y-108.1
X252.125Y-88.456
X252.5Y-103.1
X252.5Y-104.1
X252.5Y-105.1
X252.5Y-106.1
X252.5Y-107.1
X252.5Y-108.1
X252.975Y-88.456
X253.8Y-84.1
X253.8Y-85.1
X254.8Y-84.1
X255.8Y-84.1
X255.8Y-85.1
X255.8Y-86.1
X255.8Y-87.1
X256.7Y-84.1
X256.7Y-85.1
X256.7Y-86.1
X256.7Y-87.1
T2
X202.305Y-108.6
X210.705Y-107.25
X213.705Y-107.25
X216.705Y-107.25
X219.025Y-90.05
X221.565Y-90.05
X222.0Y-115.0
X229.805Y-77.6
T3
X254.94Y-76.4
X254.94Y-79.8
X264.86Y-76.4
X264.86Y-79.8
T4
X219.75Y-77.6
X219.95Y-94.05
X225.5Y-77.6
X238.255Y-77.6
X259.8Y-85.0
X264.9Y-85.0
M30
