G04 #@! TF.GenerationSoftware,KiCad,Pcbnew,9.0.5*
G04 #@! TF.CreationDate,2025-12-20T13:11:22+01:00*
G04 #@! TF.ProjectId,peak-ignitor-box,7065616b-2d69-4676-9e69-746f722d626f,rev?*
G04 #@! TF.SameCoordinates,Original*
G04 #@! TF.FileFunction,Soldermask,Bot*
G04 #@! TF.FilePolarity,Negative*
%FSLAX46Y46*%
G04 Gerber Fmt 4.6, Leading zero omitted, Abs format (unit mm)*
G04 Created by KiCad (PCBNEW 9.0.5) date 2025-12-20 13:11:22*
%MOMM*%
%LPD*%
G01*
G04 APERTURE LIST*
G04 Aperture macros list*
%AMRoundRect*
0 Rectangle with rounded corners*
0 $1 Rounding radius*
0 $2 $3 $4 $5 $6 $7 $8 $9 X,Y pos of 4 corners*
0 Add a 4 corners polygon primitive as box body*
4,1,4,$2,$3,$4,$5,$6,$7,$8,$9,$2,$3,0*
0 Add four circle primitives for the rounded corners*
1,1,$1+$1,$2,$3*
1,1,$1+$1,$4,$5*
1,1,$1+$1,$6,$7*
1,1,$1+$1,$8,$9*
0 Add four rect primitives between the rounded corners*
20,1,$1+$1,$2,$3,$4,$5,0*
20,1,$1+$1,$4,$5,$6,$7,0*
20,1,$1+$1,$6,$7,$8,$9,0*
20,1,$1+$1,$8,$9,$2,$3,0*%
%AMOutline5P*
0 Free polygon, 5 corners , with rotation*
0 The origin of the aperture is its center*
0 number of corners: always 5*
0 $1 to $10 corner X, Y*
0 $11 Rotation angle, in degrees counterclockwise*
0 create outline with 5 corners*
4,1,5,$1,$2,$3,$4,$5,$6,$7,$8,$9,$10,$1,$2,$11*%
%AMOutline6P*
0 Free polygon, 6 corners , with rotation*
0 The origin of the aperture is its center*
0 number of corners: always 6*
0 $1 to $12 corner X, Y*
0 $13 Rotation angle, in degrees counterclockwise*
0 create outline with 6 corners*
4,1,6,$1,$2,$3,$4,$5,$6,$7,$8,$9,$10,$11,$12,$1,$2,$13*%
%AMOutline7P*
0 Free polygon, 7 corners , with rotation*
0 The origin of the aperture is its center*
0 number of corners: always 7*
0 $1 to $14 corner X, Y*
0 $15 Rotation angle, in degrees counterclockwise*
0 create outline with 7 corners*
4,1,7,$1,$2,$3,$4,$5,$6,$7,$8,$9,$10,$11,$12,$13,$14,$1,$2,$15*%
%AMOutline8P*
0 Free polygon, 8 corners , with rotation*
0 The origin of the aperture is its center*
0 number of corners: always 8*
0 $1 to $16 corner X, Y*
0 $17 Rotation angle, in degrees counterclockwise*
0 create outline with 8 corners*
4,1,8,$1,$2,$3,$4,$5,$6,$7,$8,$9,$10,$11,$12,$13,$14,$15,$16,$1,$2,$17*%
G04 Aperture macros list end*
%ADD10R,1.700000X1.700000*%
%ADD11C,1.700000*%
%ADD12C,2.780000*%
%ADD13C,2.000000*%
%ADD14C,3.400000*%
%ADD15RoundRect,0.062500X-0.062500X0.337500X-0.062500X-0.337500X0.062500X-0.337500X0.062500X0.337500X0*%
%ADD16RoundRect,0.062500X-0.337500X0.062500X-0.337500X-0.062500X0.337500X-0.062500X0.337500X0.062500X0*%
%ADD17R,2.140000X2.140000*%
%ADD18RoundRect,0.243750X-0.456250X0.243750X-0.456250X-0.243750X0.456250X-0.243750X0.456250X0.243750X0*%
%ADD19RoundRect,0.243750X0.243750X0.456250X-0.243750X0.456250X-0.243750X-0.456250X0.243750X-0.456250X0*%
%ADD20RoundRect,0.243750X-0.243750X-0.456250X0.243750X-0.456250X0.243750X0.456250X-0.243750X0.456250X0*%
%ADD21RoundRect,0.218750X0.218750X0.256250X-0.218750X0.256250X-0.218750X-0.256250X0.218750X-0.256250X0*%
%ADD22R,0.800000X0.900000*%
%ADD23RoundRect,0.243750X0.456250X-0.243750X0.456250X0.243750X-0.456250X0.243750X-0.456250X-0.243750X0*%
%ADD24RoundRect,0.250000X-0.625000X0.312500X-0.625000X-0.312500X0.625000X-0.312500X0.625000X0.312500X0*%
%ADD25RoundRect,0.250000X0.375000X0.625000X-0.375000X0.625000X-0.375000X-0.625000X0.375000X-0.625000X0*%
%ADD26RoundRect,0.250000X-0.250000X-0.475000X0.250000X-0.475000X0.250000X0.475000X-0.250000X0.475000X0*%
%ADD27RoundRect,0.250000X0.250000X0.475000X-0.250000X0.475000X-0.250000X-0.475000X0.250000X-0.475000X0*%
%ADD28RoundRect,0.150000X0.587500X0.150000X-0.587500X0.150000X-0.587500X-0.150000X0.587500X-0.150000X0*%
%ADD29RoundRect,0.250000X0.450000X-0.262500X0.450000X0.262500X-0.450000X0.262500X-0.450000X-0.262500X0*%
%ADD30RoundRect,0.250000X-0.262500X-0.450000X0.262500X-0.450000X0.262500X0.450000X-0.262500X0.450000X0*%
%ADD31R,1.000000X0.900000*%
%ADD32RoundRect,0.150000X0.150000X-0.587500X0.150000X0.587500X-0.150000X0.587500X-0.150000X-0.587500X0*%
%ADD33RoundRect,0.050000X-0.100000X0.285000X-0.100000X-0.285000X0.100000X-0.285000X0.100000X0.285000X0*%
%ADD34RoundRect,0.250000X-0.475000X0.250000X-0.475000X-0.250000X0.475000X-0.250000X0.475000X0.250000X0*%
%ADD35RoundRect,0.250000X0.475000X-0.250000X0.475000X0.250000X-0.475000X0.250000X-0.475000X-0.250000X0*%
%ADD36RoundRect,0.250000X0.262500X0.450000X-0.262500X0.450000X-0.262500X-0.450000X0.262500X-0.450000X0*%
%ADD37RoundRect,0.250000X-0.650000X0.325000X-0.650000X-0.325000X0.650000X-0.325000X0.650000X0.325000X0*%
%ADD38RoundRect,0.150000X-0.150000X0.587500X-0.150000X-0.587500X0.150000X-0.587500X0.150000X0.587500X0*%
%ADD39R,0.800000X0.400000*%
%ADD40R,0.400000X0.800000*%
%ADD41R,1.200000X1.200000*%
%ADD42Outline5P,-0.600000X0.600000X0.600000X0.600000X0.600000X-0.600000X-0.204000X-0.600000X-0.600000X-0.204000X0.000000*%
%ADD43R,0.800000X0.800000*%
%ADD44RoundRect,0.225000X0.250000X-0.225000X0.250000X0.225000X-0.250000X0.225000X-0.250000X-0.225000X0*%
%ADD45R,1.500000X1.500000*%
%ADD46RoundRect,0.225000X-0.250000X0.225000X-0.250000X-0.225000X0.250000X-0.225000X0.250000X0.225000X0*%
%ADD47R,0.312473X1.955432*%
%ADD48R,4.700001X2.899999*%
G04 APERTURE END LIST*
D10*
X219025000Y-90050000D03*
D11*
X221565000Y-90050000D03*
D12*
X254940000Y-76400000D03*
X254940000Y-79800000D03*
X264860000Y-76400000D03*
X264860000Y-79800000D03*
D13*
X222000000Y-115000000D03*
X213705000Y-107250000D03*
D14*
X225500000Y-77600000D03*
D13*
X216705000Y-107250000D03*
X210705000Y-107250000D03*
D14*
X264900000Y-85000000D03*
X238255000Y-77600000D03*
D13*
X229805000Y-77600000D03*
D14*
X219950000Y-94050000D03*
D13*
X202305000Y-108600000D03*
D14*
X259800000Y-85000000D03*
X219750000Y-77600000D03*
D15*
X208487500Y-86650000D03*
X208987500Y-86650000D03*
X209487500Y-86650000D03*
X209987500Y-86650000D03*
D16*
X210987500Y-87650000D03*
X210987500Y-88150000D03*
X210987500Y-88650000D03*
X210987500Y-89150000D03*
D15*
X209987500Y-90150000D03*
X209487500Y-90150000D03*
X208987500Y-90150000D03*
X208487500Y-90150000D03*
D16*
X207487500Y-89150000D03*
X207487500Y-88650000D03*
X207487500Y-88150000D03*
X207487500Y-87650000D03*
D17*
X209237500Y-88400000D03*
D18*
X216237500Y-81938000D03*
X216237500Y-83813000D03*
D19*
X210675000Y-82710000D03*
X208800000Y-82710000D03*
X220837500Y-87400000D03*
X218962500Y-87400000D03*
D20*
X212569500Y-83256500D03*
X214444500Y-83256500D03*
D18*
X212681500Y-87350500D03*
X212681500Y-89225500D03*
D20*
X212569500Y-85288500D03*
X214444500Y-85288500D03*
D21*
X220675000Y-85700000D03*
X219100000Y-85700000D03*
D22*
X206000000Y-90035000D03*
X204100000Y-90035000D03*
X205050000Y-88035000D03*
D19*
X208587500Y-91700000D03*
X206712500Y-91700000D03*
D20*
X214462500Y-89200000D03*
X216337500Y-89200000D03*
D23*
X216237500Y-87290500D03*
X216237500Y-85415500D03*
D19*
X220887500Y-84000000D03*
X219012500Y-84000000D03*
D23*
X202355000Y-89397500D03*
X202355000Y-87522500D03*
D24*
X206837500Y-82247500D03*
X206837500Y-85172500D03*
D19*
X210634500Y-84653500D03*
X208759500Y-84653500D03*
X214437500Y-96700000D03*
X212562500Y-96700000D03*
D25*
X210900000Y-96700000D03*
X208100000Y-96700000D03*
D26*
X208300000Y-93800000D03*
X210200000Y-93800000D03*
D27*
X212000000Y-91800000D03*
X210100000Y-91800000D03*
D28*
X202475000Y-117100000D03*
X202475000Y-119000000D03*
X200600000Y-118050000D03*
D29*
X233299999Y-93674808D03*
X233299999Y-91849808D03*
D30*
X227237500Y-104500000D03*
X229062500Y-104500000D03*
D26*
X236750000Y-106100000D03*
X238650000Y-106100000D03*
D31*
X207600000Y-103250000D03*
X207600000Y-99150000D03*
X206000000Y-103250000D03*
X206000000Y-99150000D03*
D32*
X218242500Y-101212500D03*
X216342500Y-101212500D03*
X217292500Y-99337500D03*
D29*
X229500000Y-98625000D03*
X229500000Y-96800000D03*
D33*
X231250000Y-114060000D03*
X231750000Y-114060000D03*
X232250000Y-114060000D03*
X232250000Y-115540000D03*
X231750000Y-115540000D03*
X231250000Y-115540000D03*
D34*
X242037500Y-103550000D03*
X242037500Y-105450000D03*
D35*
X244799999Y-93712308D03*
X244799999Y-91812308D03*
D36*
X245075000Y-85750000D03*
X243250000Y-85750000D03*
D27*
X213850000Y-93800000D03*
X211950000Y-93800000D03*
D36*
X244712499Y-90062308D03*
X242887499Y-90062308D03*
D37*
X200400000Y-120625000D03*
X200400000Y-123575000D03*
D30*
X200687500Y-111500000D03*
X202512500Y-111500000D03*
X216380000Y-103175000D03*
X218205000Y-103175000D03*
D33*
X202200000Y-84360000D03*
X202700000Y-84360000D03*
X203200000Y-84360000D03*
X203200000Y-85840000D03*
X202700000Y-85840000D03*
X202200000Y-85840000D03*
D36*
X245700000Y-105600000D03*
X243875000Y-105600000D03*
D38*
X209392500Y-101525000D03*
X211292500Y-101525000D03*
X210342500Y-103400000D03*
D36*
X245700000Y-103700000D03*
X243875000Y-103700000D03*
D31*
X202400000Y-99150000D03*
X202400000Y-103250000D03*
X204000000Y-99150000D03*
X204000000Y-103250000D03*
D30*
X227237500Y-102600000D03*
X229062500Y-102600000D03*
D29*
X220042500Y-102937500D03*
X220042500Y-101112500D03*
D36*
X202412500Y-115400000D03*
X200587500Y-115400000D03*
D39*
X204500000Y-122550000D03*
X204500000Y-121700000D03*
X204500000Y-120850000D03*
X204500000Y-120000000D03*
X204500000Y-119150000D03*
X204500000Y-118300000D03*
X204500000Y-117450000D03*
X204500000Y-116600000D03*
X204500000Y-115750000D03*
X204500000Y-114900000D03*
X204500000Y-114050000D03*
X204500000Y-113200000D03*
X204500000Y-112350000D03*
X204500000Y-111500000D03*
X204500000Y-110650000D03*
D40*
X205550000Y-109600000D03*
X206400000Y-109600000D03*
X207250000Y-109600000D03*
X208100000Y-109600000D03*
X208950000Y-109600000D03*
X209800000Y-109600000D03*
X210650000Y-109600000D03*
X211500000Y-109600000D03*
X212350000Y-109600000D03*
X213200000Y-109600000D03*
X214050000Y-109600000D03*
X214900000Y-109600000D03*
X215750000Y-109600000D03*
X216600000Y-109600000D03*
X217450000Y-109600000D03*
D39*
X218500000Y-110650000D03*
X218500000Y-111500000D03*
X218500000Y-112350000D03*
X218500000Y-113200000D03*
X218500000Y-114050000D03*
X218500000Y-114900000D03*
X218500000Y-115750000D03*
X218500000Y-116600000D03*
X218500000Y-117450000D03*
X218500000Y-118300000D03*
X218500000Y-119150000D03*
X218500000Y-120000000D03*
X218500000Y-120850000D03*
X218500000Y-121700000D03*
X218500000Y-122550000D03*
D40*
X217450000Y-123600000D03*
X216600000Y-123600000D03*
X215750000Y-123600000D03*
X214900000Y-123600000D03*
X214050000Y-123600000D03*
X213200000Y-123600000D03*
X212350000Y-123600000D03*
X211500000Y-123600000D03*
X210650000Y-123600000D03*
X209800000Y-123600000D03*
X208950000Y-123600000D03*
X208100000Y-123600000D03*
X207250000Y-123600000D03*
X206400000Y-123600000D03*
X205550000Y-123600000D03*
D41*
X209850000Y-114950000D03*
X209850000Y-116600000D03*
D42*
X209850000Y-118250000D03*
D41*
X211500000Y-114950000D03*
X211500000Y-116600000D03*
X211500000Y-118250000D03*
X213150000Y-114950000D03*
X213150000Y-116600000D03*
X213150000Y-118250000D03*
D43*
X204500000Y-123600000D03*
X204500000Y-109600000D03*
X218500000Y-109600000D03*
X218500000Y-123600000D03*
D30*
X209442500Y-99562500D03*
X211267500Y-99562500D03*
D44*
X242799999Y-93537308D03*
X242799999Y-91987308D03*
D35*
X231300000Y-93900000D03*
X231300000Y-92000000D03*
D29*
X236999999Y-93674808D03*
X236999999Y-91849808D03*
D28*
X220142500Y-104950000D03*
X220142500Y-106850000D03*
X218267500Y-105900000D03*
D35*
X240799999Y-93712308D03*
X240799999Y-91812308D03*
D29*
X238949999Y-93674808D03*
X238949999Y-91849808D03*
D36*
X216425000Y-105100000D03*
X214600000Y-105100000D03*
D34*
X202500000Y-120650000D03*
X202500000Y-122550000D03*
D45*
X205900000Y-106800000D03*
D32*
X214692500Y-101242500D03*
X212792500Y-101242500D03*
X213742500Y-99367500D03*
D30*
X200687500Y-113400000D03*
X202512500Y-113400000D03*
D27*
X233300000Y-106000000D03*
X231400000Y-106000000D03*
D35*
X233750000Y-116000000D03*
X233750000Y-114100000D03*
X204700000Y-86050000D03*
X204700000Y-84150000D03*
D29*
X235099999Y-93674808D03*
X235099999Y-91849808D03*
D46*
X230650000Y-102625000D03*
X230650000Y-104175000D03*
D30*
X212830000Y-103205000D03*
X214655000Y-103205000D03*
D47*
X231949998Y-96636924D03*
X232449999Y-96636924D03*
X232949998Y-96636924D03*
X233450000Y-96636924D03*
X233949999Y-96636924D03*
X234449998Y-96636924D03*
X234949999Y-96636924D03*
X235449998Y-96636924D03*
X235950000Y-96636924D03*
X236449999Y-96636924D03*
X236949998Y-96636924D03*
X237450000Y-96636924D03*
X237949999Y-96636924D03*
X238450000Y-96636924D03*
X238949999Y-96636924D03*
X239449998Y-96636924D03*
X239950000Y-96636924D03*
X240449999Y-96636924D03*
X240950000Y-96636924D03*
X240950000Y-102387692D03*
X240449999Y-102387692D03*
X239950000Y-102387692D03*
X239449998Y-102387692D03*
X238949999Y-102387692D03*
X238450000Y-102387692D03*
X237949999Y-102387692D03*
X237450000Y-102387692D03*
X236949998Y-102387692D03*
X236449999Y-102387692D03*
X235950000Y-102387692D03*
X235449998Y-102387692D03*
X234949999Y-102387692D03*
X234449998Y-102387692D03*
X233949999Y-102387692D03*
X233450000Y-102387692D03*
X232949998Y-102387692D03*
X232449999Y-102387692D03*
X231949998Y-102387692D03*
D48*
X236449999Y-99512308D03*
D36*
X241575000Y-85750000D03*
X239750000Y-85750000D03*
G36*
X249598039Y-108519685D02*
G01*
X249643794Y-108572489D01*
X249655000Y-108624000D01*
X249655000Y-129376000D01*
X249635315Y-129443039D01*
X249582511Y-129488794D01*
X249531000Y-129500000D01*
X223029000Y-129500000D01*
X222961961Y-129480315D01*
X222916206Y-129427511D01*
X222905000Y-129376000D01*
X222905000Y-108624000D01*
X222924685Y-108556961D01*
X222977489Y-108511206D01*
X223029000Y-108500000D01*
X249531000Y-108500000D01*
X249598039Y-108519685D01*
G37*
M02*
