G04 #@! TF.GenerationSoftware,KiCad,Pcbnew,9.0.5*
G04 #@! TF.CreationDate,2025-12-26T12:12:57+01:00*
G04 #@! TF.ProjectId,peak-ignitor-box,7065616b-2d69-4676-9e69-746f722d626f,rev?*
G04 #@! TF.SameCoordinates,Original*
G04 #@! TF.FileFunction,Legend,Bot*
G04 #@! TF.FilePolarity,Positive*
%FSLAX46Y46*%
G04 Gerber Fmt 4.6, Leading zero omitted, Abs format (unit mm)*
G04 Created by KiCad (PCBNEW 9.0.5) date 2025-12-26 12:12:57*
%MOMM*%
%LPD*%
G01*
G04 APERTURE LIST*
G04 Aperture macros list*
%AMRoundRect*
0 Rectangle with rounded corners*
0 $1 Rounding radius*
0 $2 $3 $4 $5 $6 $7 $8 $9 X,Y pos of 4 corners*
0 Add a 4 corners polygon primitive as box body*
4,1,4,$2,$3,$4,$5,$6,$7,$8,$9,$2,$3,0*
0 Add four circle primitives for the rounded corners*
1,1,$1+$1,$2,$3*
1,1,$1+$1,$4,$5*
1,1,$1+$1,$6,$7*
1,1,$1+$1,$8,$9*
0 Add four rect primitives between the rounded corners*
20,1,$1+$1,$2,$3,$4,$5,0*
20,1,$1+$1,$4,$5,$6,$7,0*
20,1,$1+$1,$6,$7,$8,$9,0*
20,1,$1+$1,$8,$9,$2,$3,0*%
%AMOutline5P*
0 Free polygon, 5 corners , with rotation*
0 The origin of the aperture is its center*
0 number of corners: always 5*
0 $1 to $10 corner X, Y*
0 $11 Rotation angle, in degrees counterclockwise*
0 create outline with 5 corners*
4,1,5,$1,$2,$3,$4,$5,$6,$7,$8,$9,$10,$1,$2,$11*%
%AMOutline6P*
0 Free polygon, 6 corners , with rotation*
0 The origin of the aperture is its center*
0 number of corners: always 6*
0 $1 to $12 corner X, Y*
0 $13 Rotation angle, in degrees counterclockwise*
0 create outline with 6 corners*
4,1,6,$1,$2,$3,$4,$5,$6,$7,$8,$9,$10,$11,$12,$1,$2,$13*%
%AMOutline7P*
0 Free polygon, 7 corners , with rotation*
0 The origin of the aperture is its center*
0 number of corners: always 7*
0 $1 to $14 corner X, Y*
0 $15 Rotation angle, in degrees counterclockwise*
0 create outline with 7 corners*
4,1,7,$1,$2,$3,$4,$5,$6,$7,$8,$9,$10,$11,$12,$13,$14,$1,$2,$15*%
%AMOutline8P*
0 Free polygon, 8 corners , with rotation*
0 The origin of the aperture is its center*
0 number of corners: always 8*
0 $1 to $16 corner X, Y*
0 $17 Rotation angle, in degrees counterclockwise*
0 create outline with 8 corners*
4,1,8,$1,$2,$3,$4,$5,$6,$7,$8,$9,$10,$11,$12,$13,$14,$15,$16,$1,$2,$17*%
G04 Aperture macros list end*
%ADD10C,0.150000*%
%ADD11C,0.100000*%
%ADD12C,0.120000*%
%ADD13C,0.250000*%
%ADD14RoundRect,0.250000X0.475000X-0.250000X0.475000X0.250000X-0.475000X0.250000X-0.475000X-0.250000X0*%
%ADD15R,1.700000X1.700000*%
%ADD16C,1.700000*%
%ADD17C,2.780000*%
%ADD18C,2.000000*%
%ADD19C,3.400000*%
%ADD20RoundRect,0.062500X-0.062500X0.337500X-0.062500X-0.337500X0.062500X-0.337500X0.062500X0.337500X0*%
%ADD21RoundRect,0.062500X-0.337500X0.062500X-0.337500X-0.062500X0.337500X-0.062500X0.337500X0.062500X0*%
%ADD22R,2.140000X2.140000*%
%ADD23RoundRect,0.243750X-0.456250X0.243750X-0.456250X-0.243750X0.456250X-0.243750X0.456250X0.243750X0*%
%ADD24RoundRect,0.243750X0.243750X0.456250X-0.243750X0.456250X-0.243750X-0.456250X0.243750X-0.456250X0*%
%ADD25RoundRect,0.243750X-0.243750X-0.456250X0.243750X-0.456250X0.243750X0.456250X-0.243750X0.456250X0*%
%ADD26RoundRect,0.218750X0.218750X0.256250X-0.218750X0.256250X-0.218750X-0.256250X0.218750X-0.256250X0*%
%ADD27R,0.800000X0.900000*%
%ADD28RoundRect,0.243750X0.456250X-0.243750X0.456250X0.243750X-0.456250X0.243750X-0.456250X-0.243750X0*%
%ADD29RoundRect,0.250000X-0.625000X0.312500X-0.625000X-0.312500X0.625000X-0.312500X0.625000X0.312500X0*%
%ADD30RoundRect,0.250000X0.375000X0.625000X-0.375000X0.625000X-0.375000X-0.625000X0.375000X-0.625000X0*%
%ADD31RoundRect,0.250000X-0.250000X-0.475000X0.250000X-0.475000X0.250000X0.475000X-0.250000X0.475000X0*%
%ADD32RoundRect,0.250000X0.250000X0.475000X-0.250000X0.475000X-0.250000X-0.475000X0.250000X-0.475000X0*%
%ADD33RoundRect,0.250000X0.450000X-0.262500X0.450000X0.262500X-0.450000X0.262500X-0.450000X-0.262500X0*%
%ADD34RoundRect,0.250000X-0.262500X-0.450000X0.262500X-0.450000X0.262500X0.450000X-0.262500X0.450000X0*%
%ADD35R,1.000000X0.900000*%
%ADD36RoundRect,0.150000X0.150000X-0.587500X0.150000X0.587500X-0.150000X0.587500X-0.150000X-0.587500X0*%
%ADD37RoundRect,0.050000X-0.100000X0.285000X-0.100000X-0.285000X0.100000X-0.285000X0.100000X0.285000X0*%
%ADD38RoundRect,0.250000X-0.475000X0.250000X-0.475000X-0.250000X0.475000X-0.250000X0.475000X0.250000X0*%
%ADD39RoundRect,0.250000X0.262500X0.450000X-0.262500X0.450000X-0.262500X-0.450000X0.262500X-0.450000X0*%
%ADD40RoundRect,0.250000X-0.650000X0.325000X-0.650000X-0.325000X0.650000X-0.325000X0.650000X0.325000X0*%
%ADD41RoundRect,0.150000X-0.150000X0.587500X-0.150000X-0.587500X0.150000X-0.587500X0.150000X0.587500X0*%
%ADD42R,0.800000X0.400000*%
%ADD43R,0.400000X0.800000*%
%ADD44R,1.200000X1.200000*%
%ADD45Outline5P,-0.600000X0.600000X0.600000X0.600000X0.600000X-0.600000X-0.204000X-0.600000X-0.600000X-0.204000X0.000000*%
%ADD46R,0.800000X0.800000*%
%ADD47RoundRect,0.225000X0.250000X-0.225000X0.250000X0.225000X-0.250000X0.225000X-0.250000X-0.225000X0*%
%ADD48RoundRect,0.150000X0.587500X0.150000X-0.587500X0.150000X-0.587500X-0.150000X0.587500X-0.150000X0*%
%ADD49R,1.500000X1.500000*%
%ADD50RoundRect,0.225000X-0.250000X0.225000X-0.250000X-0.225000X0.250000X-0.225000X0.250000X0.225000X0*%
%ADD51R,0.312473X1.955432*%
%ADD52R,4.700001X2.899999*%
G04 APERTURE END LIST*
D10*
X206391792Y-98469819D02*
X206725125Y-97993628D01*
X206963220Y-98469819D02*
X206963220Y-97469819D01*
X206963220Y-97469819D02*
X206582268Y-97469819D01*
X206582268Y-97469819D02*
X206487030Y-97517438D01*
X206487030Y-97517438D02*
X206439411Y-97565057D01*
X206439411Y-97565057D02*
X206391792Y-97660295D01*
X206391792Y-97660295D02*
X206391792Y-97803152D01*
X206391792Y-97803152D02*
X206439411Y-97898390D01*
X206439411Y-97898390D02*
X206487030Y-97946009D01*
X206487030Y-97946009D02*
X206582268Y-97993628D01*
X206582268Y-97993628D02*
X206963220Y-97993628D01*
X203229887Y-97846009D02*
X203087030Y-97893628D01*
X203087030Y-97893628D02*
X203039411Y-97941247D01*
X203039411Y-97941247D02*
X202991792Y-98036485D01*
X202991792Y-98036485D02*
X202991792Y-98179342D01*
X202991792Y-98179342D02*
X203039411Y-98274580D01*
X203039411Y-98274580D02*
X203087030Y-98322200D01*
X203087030Y-98322200D02*
X203182268Y-98369819D01*
X203182268Y-98369819D02*
X203563220Y-98369819D01*
X203563220Y-98369819D02*
X203563220Y-97369819D01*
X203563220Y-97369819D02*
X203229887Y-97369819D01*
X203229887Y-97369819D02*
X203134649Y-97417438D01*
X203134649Y-97417438D02*
X203087030Y-97465057D01*
X203087030Y-97465057D02*
X203039411Y-97560295D01*
X203039411Y-97560295D02*
X203039411Y-97655533D01*
X203039411Y-97655533D02*
X203087030Y-97750771D01*
X203087030Y-97750771D02*
X203134649Y-97798390D01*
X203134649Y-97798390D02*
X203229887Y-97846009D01*
X203229887Y-97846009D02*
X203563220Y-97846009D01*
X204139580Y-117457142D02*
X204187200Y-117409523D01*
X204187200Y-117409523D02*
X204234819Y-117266666D01*
X204234819Y-117266666D02*
X204234819Y-117171428D01*
X204234819Y-117171428D02*
X204187200Y-117028571D01*
X204187200Y-117028571D02*
X204091961Y-116933333D01*
X204091961Y-116933333D02*
X203996723Y-116885714D01*
X203996723Y-116885714D02*
X203806247Y-116838095D01*
X203806247Y-116838095D02*
X203663390Y-116838095D01*
X203663390Y-116838095D02*
X203472914Y-116885714D01*
X203472914Y-116885714D02*
X203377676Y-116933333D01*
X203377676Y-116933333D02*
X203282438Y-117028571D01*
X203282438Y-117028571D02*
X203234819Y-117171428D01*
X203234819Y-117171428D02*
X203234819Y-117266666D01*
X203234819Y-117266666D02*
X203282438Y-117409523D01*
X203282438Y-117409523D02*
X203330057Y-117457142D01*
X203330057Y-117838095D02*
X203282438Y-117885714D01*
X203282438Y-117885714D02*
X203234819Y-117980952D01*
X203234819Y-117980952D02*
X203234819Y-118219047D01*
X203234819Y-118219047D02*
X203282438Y-118314285D01*
X203282438Y-118314285D02*
X203330057Y-118361904D01*
X203330057Y-118361904D02*
X203425295Y-118409523D01*
X203425295Y-118409523D02*
X203520533Y-118409523D01*
X203520533Y-118409523D02*
X203663390Y-118361904D01*
X203663390Y-118361904D02*
X204234819Y-117790476D01*
X204234819Y-117790476D02*
X204234819Y-118409523D01*
X203568152Y-119266666D02*
X204234819Y-119266666D01*
X203187200Y-119028571D02*
X203901485Y-118790476D01*
X203901485Y-118790476D02*
X203901485Y-119409523D01*
D11*
X207033333Y-86418633D02*
X207033333Y-86985300D01*
X207033333Y-86985300D02*
X207000000Y-87051966D01*
X207000000Y-87051966D02*
X206966666Y-87085300D01*
X206966666Y-87085300D02*
X206900000Y-87118633D01*
X206900000Y-87118633D02*
X206766666Y-87118633D01*
X206766666Y-87118633D02*
X206700000Y-87085300D01*
X206700000Y-87085300D02*
X206666666Y-87051966D01*
X206666666Y-87051966D02*
X206633333Y-86985300D01*
X206633333Y-86985300D02*
X206633333Y-86418633D01*
X206000000Y-86651966D02*
X206000000Y-87118633D01*
X206166667Y-86385300D02*
X206333333Y-86885300D01*
X206333333Y-86885300D02*
X205900000Y-86885300D01*
X217818633Y-82783333D02*
X217485300Y-82550000D01*
X217818633Y-82383333D02*
X217118633Y-82383333D01*
X217118633Y-82383333D02*
X217118633Y-82650000D01*
X217118633Y-82650000D02*
X217151966Y-82716667D01*
X217151966Y-82716667D02*
X217185300Y-82750000D01*
X217185300Y-82750000D02*
X217251966Y-82783333D01*
X217251966Y-82783333D02*
X217351966Y-82783333D01*
X217351966Y-82783333D02*
X217418633Y-82750000D01*
X217418633Y-82750000D02*
X217451966Y-82716667D01*
X217451966Y-82716667D02*
X217485300Y-82650000D01*
X217485300Y-82650000D02*
X217485300Y-82383333D01*
X217418633Y-83183333D02*
X217385300Y-83116667D01*
X217385300Y-83116667D02*
X217351966Y-83083333D01*
X217351966Y-83083333D02*
X217285300Y-83050000D01*
X217285300Y-83050000D02*
X217251966Y-83050000D01*
X217251966Y-83050000D02*
X217185300Y-83083333D01*
X217185300Y-83083333D02*
X217151966Y-83116667D01*
X217151966Y-83116667D02*
X217118633Y-83183333D01*
X217118633Y-83183333D02*
X217118633Y-83316667D01*
X217118633Y-83316667D02*
X217151966Y-83383333D01*
X217151966Y-83383333D02*
X217185300Y-83416667D01*
X217185300Y-83416667D02*
X217251966Y-83450000D01*
X217251966Y-83450000D02*
X217285300Y-83450000D01*
X217285300Y-83450000D02*
X217351966Y-83416667D01*
X217351966Y-83416667D02*
X217385300Y-83383333D01*
X217385300Y-83383333D02*
X217418633Y-83316667D01*
X217418633Y-83316667D02*
X217418633Y-83183333D01*
X217418633Y-83183333D02*
X217451966Y-83116667D01*
X217451966Y-83116667D02*
X217485300Y-83083333D01*
X217485300Y-83083333D02*
X217551966Y-83050000D01*
X217551966Y-83050000D02*
X217685300Y-83050000D01*
X217685300Y-83050000D02*
X217751966Y-83083333D01*
X217751966Y-83083333D02*
X217785300Y-83116667D01*
X217785300Y-83116667D02*
X217818633Y-83183333D01*
X217818633Y-83183333D02*
X217818633Y-83316667D01*
X217818633Y-83316667D02*
X217785300Y-83383333D01*
X217785300Y-83383333D02*
X217751966Y-83416667D01*
X217751966Y-83416667D02*
X217685300Y-83450000D01*
X217685300Y-83450000D02*
X217551966Y-83450000D01*
X217551966Y-83450000D02*
X217485300Y-83416667D01*
X217485300Y-83416667D02*
X217451966Y-83383333D01*
X217451966Y-83383333D02*
X217418633Y-83316667D01*
X209816666Y-81751966D02*
X209849999Y-81785300D01*
X209849999Y-81785300D02*
X209949999Y-81818633D01*
X209949999Y-81818633D02*
X210016666Y-81818633D01*
X210016666Y-81818633D02*
X210116666Y-81785300D01*
X210116666Y-81785300D02*
X210183333Y-81718633D01*
X210183333Y-81718633D02*
X210216666Y-81651966D01*
X210216666Y-81651966D02*
X210249999Y-81518633D01*
X210249999Y-81518633D02*
X210249999Y-81418633D01*
X210249999Y-81418633D02*
X210216666Y-81285300D01*
X210216666Y-81285300D02*
X210183333Y-81218633D01*
X210183333Y-81218633D02*
X210116666Y-81151966D01*
X210116666Y-81151966D02*
X210016666Y-81118633D01*
X210016666Y-81118633D02*
X209949999Y-81118633D01*
X209949999Y-81118633D02*
X209849999Y-81151966D01*
X209849999Y-81151966D02*
X209816666Y-81185300D01*
X209416666Y-81418633D02*
X209483333Y-81385300D01*
X209483333Y-81385300D02*
X209516666Y-81351966D01*
X209516666Y-81351966D02*
X209549999Y-81285300D01*
X209549999Y-81285300D02*
X209549999Y-81251966D01*
X209549999Y-81251966D02*
X209516666Y-81185300D01*
X209516666Y-81185300D02*
X209483333Y-81151966D01*
X209483333Y-81151966D02*
X209416666Y-81118633D01*
X209416666Y-81118633D02*
X209283333Y-81118633D01*
X209283333Y-81118633D02*
X209216666Y-81151966D01*
X209216666Y-81151966D02*
X209183333Y-81185300D01*
X209183333Y-81185300D02*
X209149999Y-81251966D01*
X209149999Y-81251966D02*
X209149999Y-81285300D01*
X209149999Y-81285300D02*
X209183333Y-81351966D01*
X209183333Y-81351966D02*
X209216666Y-81385300D01*
X209216666Y-81385300D02*
X209283333Y-81418633D01*
X209283333Y-81418633D02*
X209416666Y-81418633D01*
X209416666Y-81418633D02*
X209483333Y-81451966D01*
X209483333Y-81451966D02*
X209516666Y-81485300D01*
X209516666Y-81485300D02*
X209549999Y-81551966D01*
X209549999Y-81551966D02*
X209549999Y-81685300D01*
X209549999Y-81685300D02*
X209516666Y-81751966D01*
X209516666Y-81751966D02*
X209483333Y-81785300D01*
X209483333Y-81785300D02*
X209416666Y-81818633D01*
X209416666Y-81818633D02*
X209283333Y-81818633D01*
X209283333Y-81818633D02*
X209216666Y-81785300D01*
X209216666Y-81785300D02*
X209183333Y-81751966D01*
X209183333Y-81751966D02*
X209149999Y-81685300D01*
X209149999Y-81685300D02*
X209149999Y-81551966D01*
X209149999Y-81551966D02*
X209183333Y-81485300D01*
X209183333Y-81485300D02*
X209216666Y-81451966D01*
X209216666Y-81451966D02*
X209283333Y-81418633D01*
X222750000Y-87818633D02*
X222983333Y-87485300D01*
X223150000Y-87818633D02*
X223150000Y-87118633D01*
X223150000Y-87118633D02*
X222883333Y-87118633D01*
X222883333Y-87118633D02*
X222816667Y-87151966D01*
X222816667Y-87151966D02*
X222783333Y-87185300D01*
X222783333Y-87185300D02*
X222750000Y-87251966D01*
X222750000Y-87251966D02*
X222750000Y-87351966D01*
X222750000Y-87351966D02*
X222783333Y-87418633D01*
X222783333Y-87418633D02*
X222816667Y-87451966D01*
X222816667Y-87451966D02*
X222883333Y-87485300D01*
X222883333Y-87485300D02*
X223150000Y-87485300D01*
X222083333Y-87818633D02*
X222483333Y-87818633D01*
X222283333Y-87818633D02*
X222283333Y-87118633D01*
X222283333Y-87118633D02*
X222350000Y-87218633D01*
X222350000Y-87218633D02*
X222416667Y-87285300D01*
X222416667Y-87285300D02*
X222483333Y-87318633D01*
X221750000Y-87818633D02*
X221616666Y-87818633D01*
X221616666Y-87818633D02*
X221550000Y-87785300D01*
X221550000Y-87785300D02*
X221516666Y-87751966D01*
X221516666Y-87751966D02*
X221450000Y-87651966D01*
X221450000Y-87651966D02*
X221416666Y-87518633D01*
X221416666Y-87518633D02*
X221416666Y-87251966D01*
X221416666Y-87251966D02*
X221450000Y-87185300D01*
X221450000Y-87185300D02*
X221483333Y-87151966D01*
X221483333Y-87151966D02*
X221550000Y-87118633D01*
X221550000Y-87118633D02*
X221683333Y-87118633D01*
X221683333Y-87118633D02*
X221750000Y-87151966D01*
X221750000Y-87151966D02*
X221783333Y-87185300D01*
X221783333Y-87185300D02*
X221816666Y-87251966D01*
X221816666Y-87251966D02*
X221816666Y-87418633D01*
X221816666Y-87418633D02*
X221783333Y-87485300D01*
X221783333Y-87485300D02*
X221750000Y-87518633D01*
X221750000Y-87518633D02*
X221683333Y-87551966D01*
X221683333Y-87551966D02*
X221550000Y-87551966D01*
X221550000Y-87551966D02*
X221483333Y-87518633D01*
X221483333Y-87518633D02*
X221450000Y-87485300D01*
X221450000Y-87485300D02*
X221416666Y-87418633D01*
X213566666Y-82301966D02*
X213599999Y-82335300D01*
X213599999Y-82335300D02*
X213699999Y-82368633D01*
X213699999Y-82368633D02*
X213766666Y-82368633D01*
X213766666Y-82368633D02*
X213866666Y-82335300D01*
X213866666Y-82335300D02*
X213933333Y-82268633D01*
X213933333Y-82268633D02*
X213966666Y-82201966D01*
X213966666Y-82201966D02*
X213999999Y-82068633D01*
X213999999Y-82068633D02*
X213999999Y-81968633D01*
X213999999Y-81968633D02*
X213966666Y-81835300D01*
X213966666Y-81835300D02*
X213933333Y-81768633D01*
X213933333Y-81768633D02*
X213866666Y-81701966D01*
X213866666Y-81701966D02*
X213766666Y-81668633D01*
X213766666Y-81668633D02*
X213699999Y-81668633D01*
X213699999Y-81668633D02*
X213599999Y-81701966D01*
X213599999Y-81701966D02*
X213566666Y-81735300D01*
X213233333Y-82368633D02*
X213099999Y-82368633D01*
X213099999Y-82368633D02*
X213033333Y-82335300D01*
X213033333Y-82335300D02*
X212999999Y-82301966D01*
X212999999Y-82301966D02*
X212933333Y-82201966D01*
X212933333Y-82201966D02*
X212899999Y-82068633D01*
X212899999Y-82068633D02*
X212899999Y-81801966D01*
X212899999Y-81801966D02*
X212933333Y-81735300D01*
X212933333Y-81735300D02*
X212966666Y-81701966D01*
X212966666Y-81701966D02*
X213033333Y-81668633D01*
X213033333Y-81668633D02*
X213166666Y-81668633D01*
X213166666Y-81668633D02*
X213233333Y-81701966D01*
X213233333Y-81701966D02*
X213266666Y-81735300D01*
X213266666Y-81735300D02*
X213299999Y-81801966D01*
X213299999Y-81801966D02*
X213299999Y-81968633D01*
X213299999Y-81968633D02*
X213266666Y-82035300D01*
X213266666Y-82035300D02*
X213233333Y-82068633D01*
X213233333Y-82068633D02*
X213166666Y-82101966D01*
X213166666Y-82101966D02*
X213033333Y-82101966D01*
X213033333Y-82101966D02*
X212966666Y-82068633D01*
X212966666Y-82068633D02*
X212933333Y-82035300D01*
X212933333Y-82035300D02*
X212899999Y-81968633D01*
X213316666Y-90618633D02*
X213549999Y-90285300D01*
X213716666Y-90618633D02*
X213716666Y-89918633D01*
X213716666Y-89918633D02*
X213449999Y-89918633D01*
X213449999Y-89918633D02*
X213383333Y-89951966D01*
X213383333Y-89951966D02*
X213349999Y-89985300D01*
X213349999Y-89985300D02*
X213316666Y-90051966D01*
X213316666Y-90051966D02*
X213316666Y-90151966D01*
X213316666Y-90151966D02*
X213349999Y-90218633D01*
X213349999Y-90218633D02*
X213383333Y-90251966D01*
X213383333Y-90251966D02*
X213449999Y-90285300D01*
X213449999Y-90285300D02*
X213716666Y-90285300D01*
X212683333Y-89918633D02*
X213016666Y-89918633D01*
X213016666Y-89918633D02*
X213049999Y-90251966D01*
X213049999Y-90251966D02*
X213016666Y-90218633D01*
X213016666Y-90218633D02*
X212949999Y-90185300D01*
X212949999Y-90185300D02*
X212783333Y-90185300D01*
X212783333Y-90185300D02*
X212716666Y-90218633D01*
X212716666Y-90218633D02*
X212683333Y-90251966D01*
X212683333Y-90251966D02*
X212649999Y-90318633D01*
X212649999Y-90318633D02*
X212649999Y-90485300D01*
X212649999Y-90485300D02*
X212683333Y-90551966D01*
X212683333Y-90551966D02*
X212716666Y-90585300D01*
X212716666Y-90585300D02*
X212783333Y-90618633D01*
X212783333Y-90618633D02*
X212949999Y-90618633D01*
X212949999Y-90618633D02*
X213016666Y-90585300D01*
X213016666Y-90585300D02*
X213049999Y-90551966D01*
X214016666Y-86918633D02*
X214249999Y-86585300D01*
X214416666Y-86918633D02*
X214416666Y-86218633D01*
X214416666Y-86218633D02*
X214149999Y-86218633D01*
X214149999Y-86218633D02*
X214083333Y-86251966D01*
X214083333Y-86251966D02*
X214049999Y-86285300D01*
X214049999Y-86285300D02*
X214016666Y-86351966D01*
X214016666Y-86351966D02*
X214016666Y-86451966D01*
X214016666Y-86451966D02*
X214049999Y-86518633D01*
X214049999Y-86518633D02*
X214083333Y-86551966D01*
X214083333Y-86551966D02*
X214149999Y-86585300D01*
X214149999Y-86585300D02*
X214416666Y-86585300D01*
X213683333Y-86918633D02*
X213549999Y-86918633D01*
X213549999Y-86918633D02*
X213483333Y-86885300D01*
X213483333Y-86885300D02*
X213449999Y-86851966D01*
X213449999Y-86851966D02*
X213383333Y-86751966D01*
X213383333Y-86751966D02*
X213349999Y-86618633D01*
X213349999Y-86618633D02*
X213349999Y-86351966D01*
X213349999Y-86351966D02*
X213383333Y-86285300D01*
X213383333Y-86285300D02*
X213416666Y-86251966D01*
X213416666Y-86251966D02*
X213483333Y-86218633D01*
X213483333Y-86218633D02*
X213616666Y-86218633D01*
X213616666Y-86218633D02*
X213683333Y-86251966D01*
X213683333Y-86251966D02*
X213716666Y-86285300D01*
X213716666Y-86285300D02*
X213749999Y-86351966D01*
X213749999Y-86351966D02*
X213749999Y-86518633D01*
X213749999Y-86518633D02*
X213716666Y-86585300D01*
X213716666Y-86585300D02*
X213683333Y-86618633D01*
X213683333Y-86618633D02*
X213616666Y-86651966D01*
X213616666Y-86651966D02*
X213483333Y-86651966D01*
X213483333Y-86651966D02*
X213416666Y-86618633D01*
X213416666Y-86618633D02*
X213383333Y-86585300D01*
X213383333Y-86585300D02*
X213349999Y-86518633D01*
X222650000Y-86051966D02*
X222683333Y-86085300D01*
X222683333Y-86085300D02*
X222783333Y-86118633D01*
X222783333Y-86118633D02*
X222850000Y-86118633D01*
X222850000Y-86118633D02*
X222950000Y-86085300D01*
X222950000Y-86085300D02*
X223016667Y-86018633D01*
X223016667Y-86018633D02*
X223050000Y-85951966D01*
X223050000Y-85951966D02*
X223083333Y-85818633D01*
X223083333Y-85818633D02*
X223083333Y-85718633D01*
X223083333Y-85718633D02*
X223050000Y-85585300D01*
X223050000Y-85585300D02*
X223016667Y-85518633D01*
X223016667Y-85518633D02*
X222950000Y-85451966D01*
X222950000Y-85451966D02*
X222850000Y-85418633D01*
X222850000Y-85418633D02*
X222783333Y-85418633D01*
X222783333Y-85418633D02*
X222683333Y-85451966D01*
X222683333Y-85451966D02*
X222650000Y-85485300D01*
X222383333Y-85485300D02*
X222350000Y-85451966D01*
X222350000Y-85451966D02*
X222283333Y-85418633D01*
X222283333Y-85418633D02*
X222116667Y-85418633D01*
X222116667Y-85418633D02*
X222050000Y-85451966D01*
X222050000Y-85451966D02*
X222016667Y-85485300D01*
X222016667Y-85485300D02*
X221983333Y-85551966D01*
X221983333Y-85551966D02*
X221983333Y-85618633D01*
X221983333Y-85618633D02*
X222016667Y-85718633D01*
X222016667Y-85718633D02*
X222416667Y-86118633D01*
X222416667Y-86118633D02*
X221983333Y-86118633D01*
X221750000Y-85418633D02*
X221316666Y-85418633D01*
X221316666Y-85418633D02*
X221550000Y-85685300D01*
X221550000Y-85685300D02*
X221450000Y-85685300D01*
X221450000Y-85685300D02*
X221383333Y-85718633D01*
X221383333Y-85718633D02*
X221350000Y-85751966D01*
X221350000Y-85751966D02*
X221316666Y-85818633D01*
X221316666Y-85818633D02*
X221316666Y-85985300D01*
X221316666Y-85985300D02*
X221350000Y-86051966D01*
X221350000Y-86051966D02*
X221383333Y-86085300D01*
X221383333Y-86085300D02*
X221450000Y-86118633D01*
X221450000Y-86118633D02*
X221650000Y-86118633D01*
X221650000Y-86118633D02*
X221716666Y-86085300D01*
X221716666Y-86085300D02*
X221750000Y-86051966D01*
X204316666Y-88018633D02*
X204316666Y-87318633D01*
X204316666Y-87318633D02*
X204149999Y-87318633D01*
X204149999Y-87318633D02*
X204049999Y-87351966D01*
X204049999Y-87351966D02*
X203983333Y-87418633D01*
X203983333Y-87418633D02*
X203949999Y-87485300D01*
X203949999Y-87485300D02*
X203916666Y-87618633D01*
X203916666Y-87618633D02*
X203916666Y-87718633D01*
X203916666Y-87718633D02*
X203949999Y-87851966D01*
X203949999Y-87851966D02*
X203983333Y-87918633D01*
X203983333Y-87918633D02*
X204049999Y-87985300D01*
X204049999Y-87985300D02*
X204149999Y-88018633D01*
X204149999Y-88018633D02*
X204316666Y-88018633D01*
X203316666Y-87551966D02*
X203316666Y-88018633D01*
X203483333Y-87285300D02*
X203649999Y-87785300D01*
X203649999Y-87785300D02*
X203216666Y-87785300D01*
X205450000Y-92051966D02*
X205483333Y-92085300D01*
X205483333Y-92085300D02*
X205583333Y-92118633D01*
X205583333Y-92118633D02*
X205650000Y-92118633D01*
X205650000Y-92118633D02*
X205750000Y-92085300D01*
X205750000Y-92085300D02*
X205816667Y-92018633D01*
X205816667Y-92018633D02*
X205850000Y-91951966D01*
X205850000Y-91951966D02*
X205883333Y-91818633D01*
X205883333Y-91818633D02*
X205883333Y-91718633D01*
X205883333Y-91718633D02*
X205850000Y-91585300D01*
X205850000Y-91585300D02*
X205816667Y-91518633D01*
X205816667Y-91518633D02*
X205750000Y-91451966D01*
X205750000Y-91451966D02*
X205650000Y-91418633D01*
X205650000Y-91418633D02*
X205583333Y-91418633D01*
X205583333Y-91418633D02*
X205483333Y-91451966D01*
X205483333Y-91451966D02*
X205450000Y-91485300D01*
X204783333Y-92118633D02*
X205183333Y-92118633D01*
X204983333Y-92118633D02*
X204983333Y-91418633D01*
X204983333Y-91418633D02*
X205050000Y-91518633D01*
X205050000Y-91518633D02*
X205116667Y-91585300D01*
X205116667Y-91585300D02*
X205183333Y-91618633D01*
X204183333Y-91651966D02*
X204183333Y-92118633D01*
X204350000Y-91385300D02*
X204516666Y-91885300D01*
X204516666Y-91885300D02*
X204083333Y-91885300D01*
X215816666Y-90818633D02*
X216049999Y-90485300D01*
X216216666Y-90818633D02*
X216216666Y-90118633D01*
X216216666Y-90118633D02*
X215949999Y-90118633D01*
X215949999Y-90118633D02*
X215883333Y-90151966D01*
X215883333Y-90151966D02*
X215849999Y-90185300D01*
X215849999Y-90185300D02*
X215816666Y-90251966D01*
X215816666Y-90251966D02*
X215816666Y-90351966D01*
X215816666Y-90351966D02*
X215849999Y-90418633D01*
X215849999Y-90418633D02*
X215883333Y-90451966D01*
X215883333Y-90451966D02*
X215949999Y-90485300D01*
X215949999Y-90485300D02*
X216216666Y-90485300D01*
X215216666Y-90118633D02*
X215349999Y-90118633D01*
X215349999Y-90118633D02*
X215416666Y-90151966D01*
X215416666Y-90151966D02*
X215449999Y-90185300D01*
X215449999Y-90185300D02*
X215516666Y-90285300D01*
X215516666Y-90285300D02*
X215549999Y-90418633D01*
X215549999Y-90418633D02*
X215549999Y-90685300D01*
X215549999Y-90685300D02*
X215516666Y-90751966D01*
X215516666Y-90751966D02*
X215483333Y-90785300D01*
X215483333Y-90785300D02*
X215416666Y-90818633D01*
X215416666Y-90818633D02*
X215283333Y-90818633D01*
X215283333Y-90818633D02*
X215216666Y-90785300D01*
X215216666Y-90785300D02*
X215183333Y-90751966D01*
X215183333Y-90751966D02*
X215149999Y-90685300D01*
X215149999Y-90685300D02*
X215149999Y-90518633D01*
X215149999Y-90518633D02*
X215183333Y-90451966D01*
X215183333Y-90451966D02*
X215216666Y-90418633D01*
X215216666Y-90418633D02*
X215283333Y-90385300D01*
X215283333Y-90385300D02*
X215416666Y-90385300D01*
X215416666Y-90385300D02*
X215483333Y-90418633D01*
X215483333Y-90418633D02*
X215516666Y-90451966D01*
X215516666Y-90451966D02*
X215549999Y-90518633D01*
X217918633Y-86133333D02*
X217585300Y-85900000D01*
X217918633Y-85733333D02*
X217218633Y-85733333D01*
X217218633Y-85733333D02*
X217218633Y-86000000D01*
X217218633Y-86000000D02*
X217251966Y-86066667D01*
X217251966Y-86066667D02*
X217285300Y-86100000D01*
X217285300Y-86100000D02*
X217351966Y-86133333D01*
X217351966Y-86133333D02*
X217451966Y-86133333D01*
X217451966Y-86133333D02*
X217518633Y-86100000D01*
X217518633Y-86100000D02*
X217551966Y-86066667D01*
X217551966Y-86066667D02*
X217585300Y-86000000D01*
X217585300Y-86000000D02*
X217585300Y-85733333D01*
X217218633Y-86366667D02*
X217218633Y-86833333D01*
X217218633Y-86833333D02*
X217918633Y-86533333D01*
X222850000Y-84218633D02*
X223083333Y-83885300D01*
X223250000Y-84218633D02*
X223250000Y-83518633D01*
X223250000Y-83518633D02*
X222983333Y-83518633D01*
X222983333Y-83518633D02*
X222916667Y-83551966D01*
X222916667Y-83551966D02*
X222883333Y-83585300D01*
X222883333Y-83585300D02*
X222850000Y-83651966D01*
X222850000Y-83651966D02*
X222850000Y-83751966D01*
X222850000Y-83751966D02*
X222883333Y-83818633D01*
X222883333Y-83818633D02*
X222916667Y-83851966D01*
X222916667Y-83851966D02*
X222983333Y-83885300D01*
X222983333Y-83885300D02*
X223250000Y-83885300D01*
X222183333Y-84218633D02*
X222583333Y-84218633D01*
X222383333Y-84218633D02*
X222383333Y-83518633D01*
X222383333Y-83518633D02*
X222450000Y-83618633D01*
X222450000Y-83618633D02*
X222516667Y-83685300D01*
X222516667Y-83685300D02*
X222583333Y-83718633D01*
X221783333Y-83818633D02*
X221850000Y-83785300D01*
X221850000Y-83785300D02*
X221883333Y-83751966D01*
X221883333Y-83751966D02*
X221916666Y-83685300D01*
X221916666Y-83685300D02*
X221916666Y-83651966D01*
X221916666Y-83651966D02*
X221883333Y-83585300D01*
X221883333Y-83585300D02*
X221850000Y-83551966D01*
X221850000Y-83551966D02*
X221783333Y-83518633D01*
X221783333Y-83518633D02*
X221650000Y-83518633D01*
X221650000Y-83518633D02*
X221583333Y-83551966D01*
X221583333Y-83551966D02*
X221550000Y-83585300D01*
X221550000Y-83585300D02*
X221516666Y-83651966D01*
X221516666Y-83651966D02*
X221516666Y-83685300D01*
X221516666Y-83685300D02*
X221550000Y-83751966D01*
X221550000Y-83751966D02*
X221583333Y-83785300D01*
X221583333Y-83785300D02*
X221650000Y-83818633D01*
X221650000Y-83818633D02*
X221783333Y-83818633D01*
X221783333Y-83818633D02*
X221850000Y-83851966D01*
X221850000Y-83851966D02*
X221883333Y-83885300D01*
X221883333Y-83885300D02*
X221916666Y-83951966D01*
X221916666Y-83951966D02*
X221916666Y-84085300D01*
X221916666Y-84085300D02*
X221883333Y-84151966D01*
X221883333Y-84151966D02*
X221850000Y-84185300D01*
X221850000Y-84185300D02*
X221783333Y-84218633D01*
X221783333Y-84218633D02*
X221650000Y-84218633D01*
X221650000Y-84218633D02*
X221583333Y-84185300D01*
X221583333Y-84185300D02*
X221550000Y-84151966D01*
X221550000Y-84151966D02*
X221516666Y-84085300D01*
X221516666Y-84085300D02*
X221516666Y-83951966D01*
X221516666Y-83951966D02*
X221550000Y-83885300D01*
X221550000Y-83885300D02*
X221583333Y-83851966D01*
X221583333Y-83851966D02*
X221650000Y-83818633D01*
X201337166Y-88163999D02*
X201370500Y-88130666D01*
X201370500Y-88130666D02*
X201403833Y-88030666D01*
X201403833Y-88030666D02*
X201403833Y-87963999D01*
X201403833Y-87963999D02*
X201370500Y-87863999D01*
X201370500Y-87863999D02*
X201303833Y-87797333D01*
X201303833Y-87797333D02*
X201237166Y-87763999D01*
X201237166Y-87763999D02*
X201103833Y-87730666D01*
X201103833Y-87730666D02*
X201003833Y-87730666D01*
X201003833Y-87730666D02*
X200870500Y-87763999D01*
X200870500Y-87763999D02*
X200803833Y-87797333D01*
X200803833Y-87797333D02*
X200737166Y-87863999D01*
X200737166Y-87863999D02*
X200703833Y-87963999D01*
X200703833Y-87963999D02*
X200703833Y-88030666D01*
X200703833Y-88030666D02*
X200737166Y-88130666D01*
X200737166Y-88130666D02*
X200770500Y-88163999D01*
X201403833Y-88830666D02*
X201403833Y-88430666D01*
X201403833Y-88630666D02*
X200703833Y-88630666D01*
X200703833Y-88630666D02*
X200803833Y-88563999D01*
X200803833Y-88563999D02*
X200870500Y-88497333D01*
X200870500Y-88497333D02*
X200903833Y-88430666D01*
X200703833Y-89064000D02*
X200703833Y-89497333D01*
X200703833Y-89497333D02*
X200970500Y-89264000D01*
X200970500Y-89264000D02*
X200970500Y-89364000D01*
X200970500Y-89364000D02*
X201003833Y-89430666D01*
X201003833Y-89430666D02*
X201037166Y-89464000D01*
X201037166Y-89464000D02*
X201103833Y-89497333D01*
X201103833Y-89497333D02*
X201270500Y-89497333D01*
X201270500Y-89497333D02*
X201337166Y-89464000D01*
X201337166Y-89464000D02*
X201370500Y-89430666D01*
X201370500Y-89430666D02*
X201403833Y-89364000D01*
X201403833Y-89364000D02*
X201403833Y-89164000D01*
X201403833Y-89164000D02*
X201370500Y-89097333D01*
X201370500Y-89097333D02*
X201337166Y-89064000D01*
X207318633Y-80149999D02*
X206985300Y-79916666D01*
X207318633Y-79749999D02*
X206618633Y-79749999D01*
X206618633Y-79749999D02*
X206618633Y-80016666D01*
X206618633Y-80016666D02*
X206651966Y-80083333D01*
X206651966Y-80083333D02*
X206685300Y-80116666D01*
X206685300Y-80116666D02*
X206751966Y-80149999D01*
X206751966Y-80149999D02*
X206851966Y-80149999D01*
X206851966Y-80149999D02*
X206918633Y-80116666D01*
X206918633Y-80116666D02*
X206951966Y-80083333D01*
X206951966Y-80083333D02*
X206985300Y-80016666D01*
X206985300Y-80016666D02*
X206985300Y-79749999D01*
X207318633Y-80816666D02*
X207318633Y-80416666D01*
X207318633Y-80616666D02*
X206618633Y-80616666D01*
X206618633Y-80616666D02*
X206718633Y-80549999D01*
X206718633Y-80549999D02*
X206785300Y-80483333D01*
X206785300Y-80483333D02*
X206818633Y-80416666D01*
X206618633Y-81250000D02*
X206618633Y-81316666D01*
X206618633Y-81316666D02*
X206651966Y-81383333D01*
X206651966Y-81383333D02*
X206685300Y-81416666D01*
X206685300Y-81416666D02*
X206751966Y-81450000D01*
X206751966Y-81450000D02*
X206885300Y-81483333D01*
X206885300Y-81483333D02*
X207051966Y-81483333D01*
X207051966Y-81483333D02*
X207185300Y-81450000D01*
X207185300Y-81450000D02*
X207251966Y-81416666D01*
X207251966Y-81416666D02*
X207285300Y-81383333D01*
X207285300Y-81383333D02*
X207318633Y-81316666D01*
X207318633Y-81316666D02*
X207318633Y-81250000D01*
X207318633Y-81250000D02*
X207285300Y-81183333D01*
X207285300Y-81183333D02*
X207251966Y-81150000D01*
X207251966Y-81150000D02*
X207185300Y-81116666D01*
X207185300Y-81116666D02*
X207051966Y-81083333D01*
X207051966Y-81083333D02*
X206885300Y-81083333D01*
X206885300Y-81083333D02*
X206751966Y-81116666D01*
X206751966Y-81116666D02*
X206685300Y-81150000D01*
X206685300Y-81150000D02*
X206651966Y-81183333D01*
X206651966Y-81183333D02*
X206618633Y-81250000D01*
X210116666Y-86151966D02*
X210149999Y-86185300D01*
X210149999Y-86185300D02*
X210249999Y-86218633D01*
X210249999Y-86218633D02*
X210316666Y-86218633D01*
X210316666Y-86218633D02*
X210416666Y-86185300D01*
X210416666Y-86185300D02*
X210483333Y-86118633D01*
X210483333Y-86118633D02*
X210516666Y-86051966D01*
X210516666Y-86051966D02*
X210549999Y-85918633D01*
X210549999Y-85918633D02*
X210549999Y-85818633D01*
X210549999Y-85818633D02*
X210516666Y-85685300D01*
X210516666Y-85685300D02*
X210483333Y-85618633D01*
X210483333Y-85618633D02*
X210416666Y-85551966D01*
X210416666Y-85551966D02*
X210316666Y-85518633D01*
X210316666Y-85518633D02*
X210249999Y-85518633D01*
X210249999Y-85518633D02*
X210149999Y-85551966D01*
X210149999Y-85551966D02*
X210116666Y-85585300D01*
X209883333Y-85518633D02*
X209416666Y-85518633D01*
X209416666Y-85518633D02*
X209716666Y-86218633D01*
X215816666Y-97018633D02*
X216049999Y-96685300D01*
X216216666Y-97018633D02*
X216216666Y-96318633D01*
X216216666Y-96318633D02*
X215949999Y-96318633D01*
X215949999Y-96318633D02*
X215883333Y-96351966D01*
X215883333Y-96351966D02*
X215849999Y-96385300D01*
X215849999Y-96385300D02*
X215816666Y-96451966D01*
X215816666Y-96451966D02*
X215816666Y-96551966D01*
X215816666Y-96551966D02*
X215849999Y-96618633D01*
X215849999Y-96618633D02*
X215883333Y-96651966D01*
X215883333Y-96651966D02*
X215949999Y-96685300D01*
X215949999Y-96685300D02*
X216216666Y-96685300D01*
X215549999Y-96385300D02*
X215516666Y-96351966D01*
X215516666Y-96351966D02*
X215449999Y-96318633D01*
X215449999Y-96318633D02*
X215283333Y-96318633D01*
X215283333Y-96318633D02*
X215216666Y-96351966D01*
X215216666Y-96351966D02*
X215183333Y-96385300D01*
X215183333Y-96385300D02*
X215149999Y-96451966D01*
X215149999Y-96451966D02*
X215149999Y-96518633D01*
X215149999Y-96518633D02*
X215183333Y-96618633D01*
X215183333Y-96618633D02*
X215583333Y-97018633D01*
X215583333Y-97018633D02*
X215149999Y-97018633D01*
X206816666Y-96651966D02*
X206849999Y-96685300D01*
X206849999Y-96685300D02*
X206949999Y-96718633D01*
X206949999Y-96718633D02*
X207016666Y-96718633D01*
X207016666Y-96718633D02*
X207116666Y-96685300D01*
X207116666Y-96685300D02*
X207183333Y-96618633D01*
X207183333Y-96618633D02*
X207216666Y-96551966D01*
X207216666Y-96551966D02*
X207249999Y-96418633D01*
X207249999Y-96418633D02*
X207249999Y-96318633D01*
X207249999Y-96318633D02*
X207216666Y-96185300D01*
X207216666Y-96185300D02*
X207183333Y-96118633D01*
X207183333Y-96118633D02*
X207116666Y-96051966D01*
X207116666Y-96051966D02*
X207016666Y-96018633D01*
X207016666Y-96018633D02*
X206949999Y-96018633D01*
X206949999Y-96018633D02*
X206849999Y-96051966D01*
X206849999Y-96051966D02*
X206816666Y-96085300D01*
X206183333Y-96018633D02*
X206516666Y-96018633D01*
X206516666Y-96018633D02*
X206549999Y-96351966D01*
X206549999Y-96351966D02*
X206516666Y-96318633D01*
X206516666Y-96318633D02*
X206449999Y-96285300D01*
X206449999Y-96285300D02*
X206283333Y-96285300D01*
X206283333Y-96285300D02*
X206216666Y-96318633D01*
X206216666Y-96318633D02*
X206183333Y-96351966D01*
X206183333Y-96351966D02*
X206149999Y-96418633D01*
X206149999Y-96418633D02*
X206149999Y-96585300D01*
X206149999Y-96585300D02*
X206183333Y-96651966D01*
X206183333Y-96651966D02*
X206216666Y-96685300D01*
X206216666Y-96685300D02*
X206283333Y-96718633D01*
X206283333Y-96718633D02*
X206449999Y-96718633D01*
X206449999Y-96718633D02*
X206516666Y-96685300D01*
X206516666Y-96685300D02*
X206549999Y-96651966D01*
X207150000Y-94051966D02*
X207183333Y-94085300D01*
X207183333Y-94085300D02*
X207283333Y-94118633D01*
X207283333Y-94118633D02*
X207350000Y-94118633D01*
X207350000Y-94118633D02*
X207450000Y-94085300D01*
X207450000Y-94085300D02*
X207516667Y-94018633D01*
X207516667Y-94018633D02*
X207550000Y-93951966D01*
X207550000Y-93951966D02*
X207583333Y-93818633D01*
X207583333Y-93818633D02*
X207583333Y-93718633D01*
X207583333Y-93718633D02*
X207550000Y-93585300D01*
X207550000Y-93585300D02*
X207516667Y-93518633D01*
X207516667Y-93518633D02*
X207450000Y-93451966D01*
X207450000Y-93451966D02*
X207350000Y-93418633D01*
X207350000Y-93418633D02*
X207283333Y-93418633D01*
X207283333Y-93418633D02*
X207183333Y-93451966D01*
X207183333Y-93451966D02*
X207150000Y-93485300D01*
X206483333Y-94118633D02*
X206883333Y-94118633D01*
X206683333Y-94118633D02*
X206683333Y-93418633D01*
X206683333Y-93418633D02*
X206750000Y-93518633D01*
X206750000Y-93518633D02*
X206816667Y-93585300D01*
X206816667Y-93585300D02*
X206883333Y-93618633D01*
X205883333Y-93418633D02*
X206016666Y-93418633D01*
X206016666Y-93418633D02*
X206083333Y-93451966D01*
X206083333Y-93451966D02*
X206116666Y-93485300D01*
X206116666Y-93485300D02*
X206183333Y-93585300D01*
X206183333Y-93585300D02*
X206216666Y-93718633D01*
X206216666Y-93718633D02*
X206216666Y-93985300D01*
X206216666Y-93985300D02*
X206183333Y-94051966D01*
X206183333Y-94051966D02*
X206150000Y-94085300D01*
X206150000Y-94085300D02*
X206083333Y-94118633D01*
X206083333Y-94118633D02*
X205950000Y-94118633D01*
X205950000Y-94118633D02*
X205883333Y-94085300D01*
X205883333Y-94085300D02*
X205850000Y-94051966D01*
X205850000Y-94051966D02*
X205816666Y-93985300D01*
X205816666Y-93985300D02*
X205816666Y-93818633D01*
X205816666Y-93818633D02*
X205850000Y-93751966D01*
X205850000Y-93751966D02*
X205883333Y-93718633D01*
X205883333Y-93718633D02*
X205950000Y-93685300D01*
X205950000Y-93685300D02*
X206083333Y-93685300D01*
X206083333Y-93685300D02*
X206150000Y-93718633D01*
X206150000Y-93718633D02*
X206183333Y-93751966D01*
X206183333Y-93751966D02*
X206216666Y-93818633D01*
X214050000Y-92151966D02*
X214083333Y-92185300D01*
X214083333Y-92185300D02*
X214183333Y-92218633D01*
X214183333Y-92218633D02*
X214250000Y-92218633D01*
X214250000Y-92218633D02*
X214350000Y-92185300D01*
X214350000Y-92185300D02*
X214416667Y-92118633D01*
X214416667Y-92118633D02*
X214450000Y-92051966D01*
X214450000Y-92051966D02*
X214483333Y-91918633D01*
X214483333Y-91918633D02*
X214483333Y-91818633D01*
X214483333Y-91818633D02*
X214450000Y-91685300D01*
X214450000Y-91685300D02*
X214416667Y-91618633D01*
X214416667Y-91618633D02*
X214350000Y-91551966D01*
X214350000Y-91551966D02*
X214250000Y-91518633D01*
X214250000Y-91518633D02*
X214183333Y-91518633D01*
X214183333Y-91518633D02*
X214083333Y-91551966D01*
X214083333Y-91551966D02*
X214050000Y-91585300D01*
X213383333Y-92218633D02*
X213783333Y-92218633D01*
X213583333Y-92218633D02*
X213583333Y-91518633D01*
X213583333Y-91518633D02*
X213650000Y-91618633D01*
X213650000Y-91618633D02*
X213716667Y-91685300D01*
X213716667Y-91685300D02*
X213783333Y-91718633D01*
X213150000Y-91518633D02*
X212683333Y-91518633D01*
X212683333Y-91518633D02*
X212983333Y-92218633D01*
X233518633Y-89849999D02*
X233185300Y-89616666D01*
X233518633Y-89449999D02*
X232818633Y-89449999D01*
X232818633Y-89449999D02*
X232818633Y-89716666D01*
X232818633Y-89716666D02*
X232851966Y-89783333D01*
X232851966Y-89783333D02*
X232885300Y-89816666D01*
X232885300Y-89816666D02*
X232951966Y-89849999D01*
X232951966Y-89849999D02*
X233051966Y-89849999D01*
X233051966Y-89849999D02*
X233118633Y-89816666D01*
X233118633Y-89816666D02*
X233151966Y-89783333D01*
X233151966Y-89783333D02*
X233185300Y-89716666D01*
X233185300Y-89716666D02*
X233185300Y-89449999D01*
X232885300Y-90116666D02*
X232851966Y-90149999D01*
X232851966Y-90149999D02*
X232818633Y-90216666D01*
X232818633Y-90216666D02*
X232818633Y-90383333D01*
X232818633Y-90383333D02*
X232851966Y-90449999D01*
X232851966Y-90449999D02*
X232885300Y-90483333D01*
X232885300Y-90483333D02*
X232951966Y-90516666D01*
X232951966Y-90516666D02*
X233018633Y-90516666D01*
X233018633Y-90516666D02*
X233118633Y-90483333D01*
X233118633Y-90483333D02*
X233518633Y-90083333D01*
X233518633Y-90083333D02*
X233518633Y-90516666D01*
X232818633Y-90950000D02*
X232818633Y-91016666D01*
X232818633Y-91016666D02*
X232851966Y-91083333D01*
X232851966Y-91083333D02*
X232885300Y-91116666D01*
X232885300Y-91116666D02*
X232951966Y-91150000D01*
X232951966Y-91150000D02*
X233085300Y-91183333D01*
X233085300Y-91183333D02*
X233251966Y-91183333D01*
X233251966Y-91183333D02*
X233385300Y-91150000D01*
X233385300Y-91150000D02*
X233451966Y-91116666D01*
X233451966Y-91116666D02*
X233485300Y-91083333D01*
X233485300Y-91083333D02*
X233518633Y-91016666D01*
X233518633Y-91016666D02*
X233518633Y-90950000D01*
X233518633Y-90950000D02*
X233485300Y-90883333D01*
X233485300Y-90883333D02*
X233451966Y-90850000D01*
X233451966Y-90850000D02*
X233385300Y-90816666D01*
X233385300Y-90816666D02*
X233251966Y-90783333D01*
X233251966Y-90783333D02*
X233085300Y-90783333D01*
X233085300Y-90783333D02*
X232951966Y-90816666D01*
X232951966Y-90816666D02*
X232885300Y-90850000D01*
X232885300Y-90850000D02*
X232851966Y-90883333D01*
X232851966Y-90883333D02*
X232818633Y-90950000D01*
X228600000Y-106168633D02*
X228833333Y-105835300D01*
X229000000Y-106168633D02*
X229000000Y-105468633D01*
X229000000Y-105468633D02*
X228733333Y-105468633D01*
X228733333Y-105468633D02*
X228666667Y-105501966D01*
X228666667Y-105501966D02*
X228633333Y-105535300D01*
X228633333Y-105535300D02*
X228600000Y-105601966D01*
X228600000Y-105601966D02*
X228600000Y-105701966D01*
X228600000Y-105701966D02*
X228633333Y-105768633D01*
X228633333Y-105768633D02*
X228666667Y-105801966D01*
X228666667Y-105801966D02*
X228733333Y-105835300D01*
X228733333Y-105835300D02*
X229000000Y-105835300D01*
X228333333Y-105535300D02*
X228300000Y-105501966D01*
X228300000Y-105501966D02*
X228233333Y-105468633D01*
X228233333Y-105468633D02*
X228066667Y-105468633D01*
X228066667Y-105468633D02*
X228000000Y-105501966D01*
X228000000Y-105501966D02*
X227966667Y-105535300D01*
X227966667Y-105535300D02*
X227933333Y-105601966D01*
X227933333Y-105601966D02*
X227933333Y-105668633D01*
X227933333Y-105668633D02*
X227966667Y-105768633D01*
X227966667Y-105768633D02*
X228366667Y-106168633D01*
X228366667Y-106168633D02*
X227933333Y-106168633D01*
X227600000Y-106168633D02*
X227466666Y-106168633D01*
X227466666Y-106168633D02*
X227400000Y-106135300D01*
X227400000Y-106135300D02*
X227366666Y-106101966D01*
X227366666Y-106101966D02*
X227300000Y-106001966D01*
X227300000Y-106001966D02*
X227266666Y-105868633D01*
X227266666Y-105868633D02*
X227266666Y-105601966D01*
X227266666Y-105601966D02*
X227300000Y-105535300D01*
X227300000Y-105535300D02*
X227333333Y-105501966D01*
X227333333Y-105501966D02*
X227400000Y-105468633D01*
X227400000Y-105468633D02*
X227533333Y-105468633D01*
X227533333Y-105468633D02*
X227600000Y-105501966D01*
X227600000Y-105501966D02*
X227633333Y-105535300D01*
X227633333Y-105535300D02*
X227666666Y-105601966D01*
X227666666Y-105601966D02*
X227666666Y-105768633D01*
X227666666Y-105768633D02*
X227633333Y-105835300D01*
X227633333Y-105835300D02*
X227600000Y-105868633D01*
X227600000Y-105868633D02*
X227533333Y-105901966D01*
X227533333Y-105901966D02*
X227400000Y-105901966D01*
X227400000Y-105901966D02*
X227333333Y-105868633D01*
X227333333Y-105868633D02*
X227300000Y-105835300D01*
X227300000Y-105835300D02*
X227266666Y-105768633D01*
X238250000Y-107751966D02*
X238283333Y-107785300D01*
X238283333Y-107785300D02*
X238383333Y-107818633D01*
X238383333Y-107818633D02*
X238450000Y-107818633D01*
X238450000Y-107818633D02*
X238550000Y-107785300D01*
X238550000Y-107785300D02*
X238616667Y-107718633D01*
X238616667Y-107718633D02*
X238650000Y-107651966D01*
X238650000Y-107651966D02*
X238683333Y-107518633D01*
X238683333Y-107518633D02*
X238683333Y-107418633D01*
X238683333Y-107418633D02*
X238650000Y-107285300D01*
X238650000Y-107285300D02*
X238616667Y-107218633D01*
X238616667Y-107218633D02*
X238550000Y-107151966D01*
X238550000Y-107151966D02*
X238450000Y-107118633D01*
X238450000Y-107118633D02*
X238383333Y-107118633D01*
X238383333Y-107118633D02*
X238283333Y-107151966D01*
X238283333Y-107151966D02*
X238250000Y-107185300D01*
X238016667Y-107118633D02*
X237583333Y-107118633D01*
X237583333Y-107118633D02*
X237816667Y-107385300D01*
X237816667Y-107385300D02*
X237716667Y-107385300D01*
X237716667Y-107385300D02*
X237650000Y-107418633D01*
X237650000Y-107418633D02*
X237616667Y-107451966D01*
X237616667Y-107451966D02*
X237583333Y-107518633D01*
X237583333Y-107518633D02*
X237583333Y-107685300D01*
X237583333Y-107685300D02*
X237616667Y-107751966D01*
X237616667Y-107751966D02*
X237650000Y-107785300D01*
X237650000Y-107785300D02*
X237716667Y-107818633D01*
X237716667Y-107818633D02*
X237916667Y-107818633D01*
X237916667Y-107818633D02*
X237983333Y-107785300D01*
X237983333Y-107785300D02*
X238016667Y-107751966D01*
X237350000Y-107118633D02*
X236883333Y-107118633D01*
X236883333Y-107118633D02*
X237183333Y-107818633D01*
X207433333Y-104385300D02*
X207333333Y-104418633D01*
X207333333Y-104418633D02*
X207166667Y-104418633D01*
X207166667Y-104418633D02*
X207100000Y-104385300D01*
X207100000Y-104385300D02*
X207066667Y-104351966D01*
X207066667Y-104351966D02*
X207033333Y-104285300D01*
X207033333Y-104285300D02*
X207033333Y-104218633D01*
X207033333Y-104218633D02*
X207066667Y-104151966D01*
X207066667Y-104151966D02*
X207100000Y-104118633D01*
X207100000Y-104118633D02*
X207166667Y-104085300D01*
X207166667Y-104085300D02*
X207300000Y-104051966D01*
X207300000Y-104051966D02*
X207366667Y-104018633D01*
X207366667Y-104018633D02*
X207400000Y-103985300D01*
X207400000Y-103985300D02*
X207433333Y-103918633D01*
X207433333Y-103918633D02*
X207433333Y-103851966D01*
X207433333Y-103851966D02*
X207400000Y-103785300D01*
X207400000Y-103785300D02*
X207366667Y-103751966D01*
X207366667Y-103751966D02*
X207300000Y-103718633D01*
X207300000Y-103718633D02*
X207133333Y-103718633D01*
X207133333Y-103718633D02*
X207033333Y-103751966D01*
X206800000Y-103718633D02*
X206633333Y-104418633D01*
X206633333Y-104418633D02*
X206500000Y-103918633D01*
X206500000Y-103918633D02*
X206366666Y-104418633D01*
X206366666Y-104418633D02*
X206200000Y-103718633D01*
X205966666Y-103785300D02*
X205933333Y-103751966D01*
X205933333Y-103751966D02*
X205866666Y-103718633D01*
X205866666Y-103718633D02*
X205700000Y-103718633D01*
X205700000Y-103718633D02*
X205633333Y-103751966D01*
X205633333Y-103751966D02*
X205600000Y-103785300D01*
X205600000Y-103785300D02*
X205566666Y-103851966D01*
X205566666Y-103851966D02*
X205566666Y-103918633D01*
X205566666Y-103918633D02*
X205600000Y-104018633D01*
X205600000Y-104018633D02*
X206000000Y-104418633D01*
X206000000Y-104418633D02*
X205566666Y-104418633D01*
X218366666Y-99385300D02*
X218433333Y-99351966D01*
X218433333Y-99351966D02*
X218500000Y-99285300D01*
X218500000Y-99285300D02*
X218600000Y-99185300D01*
X218600000Y-99185300D02*
X218666666Y-99151966D01*
X218666666Y-99151966D02*
X218733333Y-99151966D01*
X218700000Y-99318633D02*
X218766666Y-99285300D01*
X218766666Y-99285300D02*
X218833333Y-99218633D01*
X218833333Y-99218633D02*
X218866666Y-99085300D01*
X218866666Y-99085300D02*
X218866666Y-98851966D01*
X218866666Y-98851966D02*
X218833333Y-98718633D01*
X218833333Y-98718633D02*
X218766666Y-98651966D01*
X218766666Y-98651966D02*
X218700000Y-98618633D01*
X218700000Y-98618633D02*
X218566666Y-98618633D01*
X218566666Y-98618633D02*
X218500000Y-98651966D01*
X218500000Y-98651966D02*
X218433333Y-98718633D01*
X218433333Y-98718633D02*
X218400000Y-98851966D01*
X218400000Y-98851966D02*
X218400000Y-99085300D01*
X218400000Y-99085300D02*
X218433333Y-99218633D01*
X218433333Y-99218633D02*
X218500000Y-99285300D01*
X218500000Y-99285300D02*
X218566666Y-99318633D01*
X218566666Y-99318633D02*
X218700000Y-99318633D01*
X217733333Y-99318633D02*
X218133333Y-99318633D01*
X217933333Y-99318633D02*
X217933333Y-98618633D01*
X217933333Y-98618633D02*
X218000000Y-98718633D01*
X218000000Y-98718633D02*
X218066667Y-98785300D01*
X218066667Y-98785300D02*
X218133333Y-98818633D01*
X228418633Y-97299999D02*
X228085300Y-97066666D01*
X228418633Y-96899999D02*
X227718633Y-96899999D01*
X227718633Y-96899999D02*
X227718633Y-97166666D01*
X227718633Y-97166666D02*
X227751966Y-97233333D01*
X227751966Y-97233333D02*
X227785300Y-97266666D01*
X227785300Y-97266666D02*
X227851966Y-97299999D01*
X227851966Y-97299999D02*
X227951966Y-97299999D01*
X227951966Y-97299999D02*
X228018633Y-97266666D01*
X228018633Y-97266666D02*
X228051966Y-97233333D01*
X228051966Y-97233333D02*
X228085300Y-97166666D01*
X228085300Y-97166666D02*
X228085300Y-96899999D01*
X227785300Y-97566666D02*
X227751966Y-97599999D01*
X227751966Y-97599999D02*
X227718633Y-97666666D01*
X227718633Y-97666666D02*
X227718633Y-97833333D01*
X227718633Y-97833333D02*
X227751966Y-97899999D01*
X227751966Y-97899999D02*
X227785300Y-97933333D01*
X227785300Y-97933333D02*
X227851966Y-97966666D01*
X227851966Y-97966666D02*
X227918633Y-97966666D01*
X227918633Y-97966666D02*
X228018633Y-97933333D01*
X228018633Y-97933333D02*
X228418633Y-97533333D01*
X228418633Y-97533333D02*
X228418633Y-97966666D01*
X227785300Y-98233333D02*
X227751966Y-98266666D01*
X227751966Y-98266666D02*
X227718633Y-98333333D01*
X227718633Y-98333333D02*
X227718633Y-98500000D01*
X227718633Y-98500000D02*
X227751966Y-98566666D01*
X227751966Y-98566666D02*
X227785300Y-98600000D01*
X227785300Y-98600000D02*
X227851966Y-98633333D01*
X227851966Y-98633333D02*
X227918633Y-98633333D01*
X227918633Y-98633333D02*
X228018633Y-98600000D01*
X228018633Y-98600000D02*
X228418633Y-98200000D01*
X228418633Y-98200000D02*
X228418633Y-98633333D01*
X230018633Y-114366666D02*
X230585300Y-114366666D01*
X230585300Y-114366666D02*
X230651966Y-114400000D01*
X230651966Y-114400000D02*
X230685300Y-114433333D01*
X230685300Y-114433333D02*
X230718633Y-114500000D01*
X230718633Y-114500000D02*
X230718633Y-114633333D01*
X230718633Y-114633333D02*
X230685300Y-114700000D01*
X230685300Y-114700000D02*
X230651966Y-114733333D01*
X230651966Y-114733333D02*
X230585300Y-114766666D01*
X230585300Y-114766666D02*
X230018633Y-114766666D01*
X230718633Y-115466666D02*
X230718633Y-115066666D01*
X230718633Y-115266666D02*
X230018633Y-115266666D01*
X230018633Y-115266666D02*
X230118633Y-115199999D01*
X230118633Y-115199999D02*
X230185300Y-115133333D01*
X230185300Y-115133333D02*
X230218633Y-115066666D01*
X241001966Y-104149999D02*
X241035300Y-104116666D01*
X241035300Y-104116666D02*
X241068633Y-104016666D01*
X241068633Y-104016666D02*
X241068633Y-103949999D01*
X241068633Y-103949999D02*
X241035300Y-103849999D01*
X241035300Y-103849999D02*
X240968633Y-103783333D01*
X240968633Y-103783333D02*
X240901966Y-103749999D01*
X240901966Y-103749999D02*
X240768633Y-103716666D01*
X240768633Y-103716666D02*
X240668633Y-103716666D01*
X240668633Y-103716666D02*
X240535300Y-103749999D01*
X240535300Y-103749999D02*
X240468633Y-103783333D01*
X240468633Y-103783333D02*
X240401966Y-103849999D01*
X240401966Y-103849999D02*
X240368633Y-103949999D01*
X240368633Y-103949999D02*
X240368633Y-104016666D01*
X240368633Y-104016666D02*
X240401966Y-104116666D01*
X240401966Y-104116666D02*
X240435300Y-104149999D01*
X240368633Y-104383333D02*
X240368633Y-104816666D01*
X240368633Y-104816666D02*
X240635300Y-104583333D01*
X240635300Y-104583333D02*
X240635300Y-104683333D01*
X240635300Y-104683333D02*
X240668633Y-104749999D01*
X240668633Y-104749999D02*
X240701966Y-104783333D01*
X240701966Y-104783333D02*
X240768633Y-104816666D01*
X240768633Y-104816666D02*
X240935300Y-104816666D01*
X240935300Y-104816666D02*
X241001966Y-104783333D01*
X241001966Y-104783333D02*
X241035300Y-104749999D01*
X241035300Y-104749999D02*
X241068633Y-104683333D01*
X241068633Y-104683333D02*
X241068633Y-104483333D01*
X241068633Y-104483333D02*
X241035300Y-104416666D01*
X241035300Y-104416666D02*
X241001966Y-104383333D01*
X240668633Y-105216666D02*
X240635300Y-105150000D01*
X240635300Y-105150000D02*
X240601966Y-105116666D01*
X240601966Y-105116666D02*
X240535300Y-105083333D01*
X240535300Y-105083333D02*
X240501966Y-105083333D01*
X240501966Y-105083333D02*
X240435300Y-105116666D01*
X240435300Y-105116666D02*
X240401966Y-105150000D01*
X240401966Y-105150000D02*
X240368633Y-105216666D01*
X240368633Y-105216666D02*
X240368633Y-105350000D01*
X240368633Y-105350000D02*
X240401966Y-105416666D01*
X240401966Y-105416666D02*
X240435300Y-105450000D01*
X240435300Y-105450000D02*
X240501966Y-105483333D01*
X240501966Y-105483333D02*
X240535300Y-105483333D01*
X240535300Y-105483333D02*
X240601966Y-105450000D01*
X240601966Y-105450000D02*
X240635300Y-105416666D01*
X240635300Y-105416666D02*
X240668633Y-105350000D01*
X240668633Y-105350000D02*
X240668633Y-105216666D01*
X240668633Y-105216666D02*
X240701966Y-105150000D01*
X240701966Y-105150000D02*
X240735300Y-105116666D01*
X240735300Y-105116666D02*
X240801966Y-105083333D01*
X240801966Y-105083333D02*
X240935300Y-105083333D01*
X240935300Y-105083333D02*
X241001966Y-105116666D01*
X241001966Y-105116666D02*
X241035300Y-105150000D01*
X241035300Y-105150000D02*
X241068633Y-105216666D01*
X241068633Y-105216666D02*
X241068633Y-105350000D01*
X241068633Y-105350000D02*
X241035300Y-105416666D01*
X241035300Y-105416666D02*
X241001966Y-105450000D01*
X241001966Y-105450000D02*
X240935300Y-105483333D01*
X240935300Y-105483333D02*
X240801966Y-105483333D01*
X240801966Y-105483333D02*
X240735300Y-105450000D01*
X240735300Y-105450000D02*
X240701966Y-105416666D01*
X240701966Y-105416666D02*
X240668633Y-105350000D01*
X245001966Y-94749999D02*
X245035300Y-94716666D01*
X245035300Y-94716666D02*
X245068633Y-94616666D01*
X245068633Y-94616666D02*
X245068633Y-94549999D01*
X245068633Y-94549999D02*
X245035300Y-94449999D01*
X245035300Y-94449999D02*
X244968633Y-94383333D01*
X244968633Y-94383333D02*
X244901966Y-94349999D01*
X244901966Y-94349999D02*
X244768633Y-94316666D01*
X244768633Y-94316666D02*
X244668633Y-94316666D01*
X244668633Y-94316666D02*
X244535300Y-94349999D01*
X244535300Y-94349999D02*
X244468633Y-94383333D01*
X244468633Y-94383333D02*
X244401966Y-94449999D01*
X244401966Y-94449999D02*
X244368633Y-94549999D01*
X244368633Y-94549999D02*
X244368633Y-94616666D01*
X244368633Y-94616666D02*
X244401966Y-94716666D01*
X244401966Y-94716666D02*
X244435300Y-94749999D01*
X244435300Y-95016666D02*
X244401966Y-95049999D01*
X244401966Y-95049999D02*
X244368633Y-95116666D01*
X244368633Y-95116666D02*
X244368633Y-95283333D01*
X244368633Y-95283333D02*
X244401966Y-95349999D01*
X244401966Y-95349999D02*
X244435300Y-95383333D01*
X244435300Y-95383333D02*
X244501966Y-95416666D01*
X244501966Y-95416666D02*
X244568633Y-95416666D01*
X244568633Y-95416666D02*
X244668633Y-95383333D01*
X244668633Y-95383333D02*
X245068633Y-94983333D01*
X245068633Y-94983333D02*
X245068633Y-95416666D01*
X244368633Y-96050000D02*
X244368633Y-95716666D01*
X244368633Y-95716666D02*
X244701966Y-95683333D01*
X244701966Y-95683333D02*
X244668633Y-95716666D01*
X244668633Y-95716666D02*
X244635300Y-95783333D01*
X244635300Y-95783333D02*
X244635300Y-95950000D01*
X244635300Y-95950000D02*
X244668633Y-96016666D01*
X244668633Y-96016666D02*
X244701966Y-96050000D01*
X244701966Y-96050000D02*
X244768633Y-96083333D01*
X244768633Y-96083333D02*
X244935300Y-96083333D01*
X244935300Y-96083333D02*
X245001966Y-96050000D01*
X245001966Y-96050000D02*
X245035300Y-96016666D01*
X245035300Y-96016666D02*
X245068633Y-95950000D01*
X245068633Y-95950000D02*
X245068633Y-95783333D01*
X245068633Y-95783333D02*
X245035300Y-95716666D01*
X245035300Y-95716666D02*
X245001966Y-95683333D01*
X244650000Y-84768633D02*
X244883333Y-84435300D01*
X245050000Y-84768633D02*
X245050000Y-84068633D01*
X245050000Y-84068633D02*
X244783333Y-84068633D01*
X244783333Y-84068633D02*
X244716667Y-84101966D01*
X244716667Y-84101966D02*
X244683333Y-84135300D01*
X244683333Y-84135300D02*
X244650000Y-84201966D01*
X244650000Y-84201966D02*
X244650000Y-84301966D01*
X244650000Y-84301966D02*
X244683333Y-84368633D01*
X244683333Y-84368633D02*
X244716667Y-84401966D01*
X244716667Y-84401966D02*
X244783333Y-84435300D01*
X244783333Y-84435300D02*
X245050000Y-84435300D01*
X244416667Y-84068633D02*
X243983333Y-84068633D01*
X243983333Y-84068633D02*
X244216667Y-84335300D01*
X244216667Y-84335300D02*
X244116667Y-84335300D01*
X244116667Y-84335300D02*
X244050000Y-84368633D01*
X244050000Y-84368633D02*
X244016667Y-84401966D01*
X244016667Y-84401966D02*
X243983333Y-84468633D01*
X243983333Y-84468633D02*
X243983333Y-84635300D01*
X243983333Y-84635300D02*
X244016667Y-84701966D01*
X244016667Y-84701966D02*
X244050000Y-84735300D01*
X244050000Y-84735300D02*
X244116667Y-84768633D01*
X244116667Y-84768633D02*
X244316667Y-84768633D01*
X244316667Y-84768633D02*
X244383333Y-84735300D01*
X244383333Y-84735300D02*
X244416667Y-84701966D01*
X243750000Y-84068633D02*
X243316666Y-84068633D01*
X243316666Y-84068633D02*
X243550000Y-84335300D01*
X243550000Y-84335300D02*
X243450000Y-84335300D01*
X243450000Y-84335300D02*
X243383333Y-84368633D01*
X243383333Y-84368633D02*
X243350000Y-84401966D01*
X243350000Y-84401966D02*
X243316666Y-84468633D01*
X243316666Y-84468633D02*
X243316666Y-84635300D01*
X243316666Y-84635300D02*
X243350000Y-84701966D01*
X243350000Y-84701966D02*
X243383333Y-84735300D01*
X243383333Y-84735300D02*
X243450000Y-84768633D01*
X243450000Y-84768633D02*
X243650000Y-84768633D01*
X243650000Y-84768633D02*
X243716666Y-84735300D01*
X243716666Y-84735300D02*
X243750000Y-84701966D01*
X213550000Y-95351966D02*
X213583333Y-95385300D01*
X213583333Y-95385300D02*
X213683333Y-95418633D01*
X213683333Y-95418633D02*
X213750000Y-95418633D01*
X213750000Y-95418633D02*
X213850000Y-95385300D01*
X213850000Y-95385300D02*
X213916667Y-95318633D01*
X213916667Y-95318633D02*
X213950000Y-95251966D01*
X213950000Y-95251966D02*
X213983333Y-95118633D01*
X213983333Y-95118633D02*
X213983333Y-95018633D01*
X213983333Y-95018633D02*
X213950000Y-94885300D01*
X213950000Y-94885300D02*
X213916667Y-94818633D01*
X213916667Y-94818633D02*
X213850000Y-94751966D01*
X213850000Y-94751966D02*
X213750000Y-94718633D01*
X213750000Y-94718633D02*
X213683333Y-94718633D01*
X213683333Y-94718633D02*
X213583333Y-94751966D01*
X213583333Y-94751966D02*
X213550000Y-94785300D01*
X212883333Y-95418633D02*
X213283333Y-95418633D01*
X213083333Y-95418633D02*
X213083333Y-94718633D01*
X213083333Y-94718633D02*
X213150000Y-94818633D01*
X213150000Y-94818633D02*
X213216667Y-94885300D01*
X213216667Y-94885300D02*
X213283333Y-94918633D01*
X212550000Y-95418633D02*
X212416666Y-95418633D01*
X212416666Y-95418633D02*
X212350000Y-95385300D01*
X212350000Y-95385300D02*
X212316666Y-95351966D01*
X212316666Y-95351966D02*
X212250000Y-95251966D01*
X212250000Y-95251966D02*
X212216666Y-95118633D01*
X212216666Y-95118633D02*
X212216666Y-94851966D01*
X212216666Y-94851966D02*
X212250000Y-94785300D01*
X212250000Y-94785300D02*
X212283333Y-94751966D01*
X212283333Y-94751966D02*
X212350000Y-94718633D01*
X212350000Y-94718633D02*
X212483333Y-94718633D01*
X212483333Y-94718633D02*
X212550000Y-94751966D01*
X212550000Y-94751966D02*
X212583333Y-94785300D01*
X212583333Y-94785300D02*
X212616666Y-94851966D01*
X212616666Y-94851966D02*
X212616666Y-95018633D01*
X212616666Y-95018633D02*
X212583333Y-95085300D01*
X212583333Y-95085300D02*
X212550000Y-95118633D01*
X212550000Y-95118633D02*
X212483333Y-95151966D01*
X212483333Y-95151966D02*
X212350000Y-95151966D01*
X212350000Y-95151966D02*
X212283333Y-95118633D01*
X212283333Y-95118633D02*
X212250000Y-95085300D01*
X212250000Y-95085300D02*
X212216666Y-95018633D01*
X244249999Y-89018633D02*
X244483332Y-88685300D01*
X244649999Y-89018633D02*
X244649999Y-88318633D01*
X244649999Y-88318633D02*
X244383332Y-88318633D01*
X244383332Y-88318633D02*
X244316666Y-88351966D01*
X244316666Y-88351966D02*
X244283332Y-88385300D01*
X244283332Y-88385300D02*
X244249999Y-88451966D01*
X244249999Y-88451966D02*
X244249999Y-88551966D01*
X244249999Y-88551966D02*
X244283332Y-88618633D01*
X244283332Y-88618633D02*
X244316666Y-88651966D01*
X244316666Y-88651966D02*
X244383332Y-88685300D01*
X244383332Y-88685300D02*
X244649999Y-88685300D01*
X243983332Y-88385300D02*
X243949999Y-88351966D01*
X243949999Y-88351966D02*
X243883332Y-88318633D01*
X243883332Y-88318633D02*
X243716666Y-88318633D01*
X243716666Y-88318633D02*
X243649999Y-88351966D01*
X243649999Y-88351966D02*
X243616666Y-88385300D01*
X243616666Y-88385300D02*
X243583332Y-88451966D01*
X243583332Y-88451966D02*
X243583332Y-88518633D01*
X243583332Y-88518633D02*
X243616666Y-88618633D01*
X243616666Y-88618633D02*
X244016666Y-89018633D01*
X244016666Y-89018633D02*
X243583332Y-89018633D01*
X242916665Y-89018633D02*
X243316665Y-89018633D01*
X243116665Y-89018633D02*
X243116665Y-88318633D01*
X243116665Y-88318633D02*
X243183332Y-88418633D01*
X243183332Y-88418633D02*
X243249999Y-88485300D01*
X243249999Y-88485300D02*
X243316665Y-88518633D01*
X200751966Y-124783333D02*
X200785300Y-124750000D01*
X200785300Y-124750000D02*
X200818633Y-124650000D01*
X200818633Y-124650000D02*
X200818633Y-124583333D01*
X200818633Y-124583333D02*
X200785300Y-124483333D01*
X200785300Y-124483333D02*
X200718633Y-124416667D01*
X200718633Y-124416667D02*
X200651966Y-124383333D01*
X200651966Y-124383333D02*
X200518633Y-124350000D01*
X200518633Y-124350000D02*
X200418633Y-124350000D01*
X200418633Y-124350000D02*
X200285300Y-124383333D01*
X200285300Y-124383333D02*
X200218633Y-124416667D01*
X200218633Y-124416667D02*
X200151966Y-124483333D01*
X200151966Y-124483333D02*
X200118633Y-124583333D01*
X200118633Y-124583333D02*
X200118633Y-124650000D01*
X200118633Y-124650000D02*
X200151966Y-124750000D01*
X200151966Y-124750000D02*
X200185300Y-124783333D01*
X200118633Y-125016667D02*
X200118633Y-125450000D01*
X200118633Y-125450000D02*
X200385300Y-125216667D01*
X200385300Y-125216667D02*
X200385300Y-125316667D01*
X200385300Y-125316667D02*
X200418633Y-125383333D01*
X200418633Y-125383333D02*
X200451966Y-125416667D01*
X200451966Y-125416667D02*
X200518633Y-125450000D01*
X200518633Y-125450000D02*
X200685300Y-125450000D01*
X200685300Y-125450000D02*
X200751966Y-125416667D01*
X200751966Y-125416667D02*
X200785300Y-125383333D01*
X200785300Y-125383333D02*
X200818633Y-125316667D01*
X200818633Y-125316667D02*
X200818633Y-125116667D01*
X200818633Y-125116667D02*
X200785300Y-125050000D01*
X200785300Y-125050000D02*
X200751966Y-125016667D01*
X199550000Y-111918633D02*
X199783333Y-111585300D01*
X199950000Y-111918633D02*
X199950000Y-111218633D01*
X199950000Y-111218633D02*
X199683333Y-111218633D01*
X199683333Y-111218633D02*
X199616667Y-111251966D01*
X199616667Y-111251966D02*
X199583333Y-111285300D01*
X199583333Y-111285300D02*
X199550000Y-111351966D01*
X199550000Y-111351966D02*
X199550000Y-111451966D01*
X199550000Y-111451966D02*
X199583333Y-111518633D01*
X199583333Y-111518633D02*
X199616667Y-111551966D01*
X199616667Y-111551966D02*
X199683333Y-111585300D01*
X199683333Y-111585300D02*
X199950000Y-111585300D01*
X199316667Y-111218633D02*
X198883333Y-111218633D01*
X198883333Y-111218633D02*
X199116667Y-111485300D01*
X199116667Y-111485300D02*
X199016667Y-111485300D01*
X199016667Y-111485300D02*
X198950000Y-111518633D01*
X198950000Y-111518633D02*
X198916667Y-111551966D01*
X198916667Y-111551966D02*
X198883333Y-111618633D01*
X198883333Y-111618633D02*
X198883333Y-111785300D01*
X198883333Y-111785300D02*
X198916667Y-111851966D01*
X198916667Y-111851966D02*
X198950000Y-111885300D01*
X198950000Y-111885300D02*
X199016667Y-111918633D01*
X199016667Y-111918633D02*
X199216667Y-111918633D01*
X199216667Y-111918633D02*
X199283333Y-111885300D01*
X199283333Y-111885300D02*
X199316667Y-111851966D01*
X198483333Y-111518633D02*
X198550000Y-111485300D01*
X198550000Y-111485300D02*
X198583333Y-111451966D01*
X198583333Y-111451966D02*
X198616666Y-111385300D01*
X198616666Y-111385300D02*
X198616666Y-111351966D01*
X198616666Y-111351966D02*
X198583333Y-111285300D01*
X198583333Y-111285300D02*
X198550000Y-111251966D01*
X198550000Y-111251966D02*
X198483333Y-111218633D01*
X198483333Y-111218633D02*
X198350000Y-111218633D01*
X198350000Y-111218633D02*
X198283333Y-111251966D01*
X198283333Y-111251966D02*
X198250000Y-111285300D01*
X198250000Y-111285300D02*
X198216666Y-111351966D01*
X198216666Y-111351966D02*
X198216666Y-111385300D01*
X198216666Y-111385300D02*
X198250000Y-111451966D01*
X198250000Y-111451966D02*
X198283333Y-111485300D01*
X198283333Y-111485300D02*
X198350000Y-111518633D01*
X198350000Y-111518633D02*
X198483333Y-111518633D01*
X198483333Y-111518633D02*
X198550000Y-111551966D01*
X198550000Y-111551966D02*
X198583333Y-111585300D01*
X198583333Y-111585300D02*
X198616666Y-111651966D01*
X198616666Y-111651966D02*
X198616666Y-111785300D01*
X198616666Y-111785300D02*
X198583333Y-111851966D01*
X198583333Y-111851966D02*
X198550000Y-111885300D01*
X198550000Y-111885300D02*
X198483333Y-111918633D01*
X198483333Y-111918633D02*
X198350000Y-111918633D01*
X198350000Y-111918633D02*
X198283333Y-111885300D01*
X198283333Y-111885300D02*
X198250000Y-111851966D01*
X198250000Y-111851966D02*
X198216666Y-111785300D01*
X198216666Y-111785300D02*
X198216666Y-111651966D01*
X198216666Y-111651966D02*
X198250000Y-111585300D01*
X198250000Y-111585300D02*
X198283333Y-111551966D01*
X198283333Y-111551966D02*
X198350000Y-111518633D01*
X217316666Y-104818633D02*
X217549999Y-104485300D01*
X217716666Y-104818633D02*
X217716666Y-104118633D01*
X217716666Y-104118633D02*
X217449999Y-104118633D01*
X217449999Y-104118633D02*
X217383333Y-104151966D01*
X217383333Y-104151966D02*
X217349999Y-104185300D01*
X217349999Y-104185300D02*
X217316666Y-104251966D01*
X217316666Y-104251966D02*
X217316666Y-104351966D01*
X217316666Y-104351966D02*
X217349999Y-104418633D01*
X217349999Y-104418633D02*
X217383333Y-104451966D01*
X217383333Y-104451966D02*
X217449999Y-104485300D01*
X217449999Y-104485300D02*
X217716666Y-104485300D01*
X216716666Y-104351966D02*
X216716666Y-104818633D01*
X216883333Y-104085300D02*
X217049999Y-104585300D01*
X217049999Y-104585300D02*
X216616666Y-104585300D01*
X200718633Y-84766666D02*
X201285300Y-84766666D01*
X201285300Y-84766666D02*
X201351966Y-84800000D01*
X201351966Y-84800000D02*
X201385300Y-84833333D01*
X201385300Y-84833333D02*
X201418633Y-84900000D01*
X201418633Y-84900000D02*
X201418633Y-85033333D01*
X201418633Y-85033333D02*
X201385300Y-85100000D01*
X201385300Y-85100000D02*
X201351966Y-85133333D01*
X201351966Y-85133333D02*
X201285300Y-85166666D01*
X201285300Y-85166666D02*
X200718633Y-85166666D01*
X200785300Y-85466666D02*
X200751966Y-85499999D01*
X200751966Y-85499999D02*
X200718633Y-85566666D01*
X200718633Y-85566666D02*
X200718633Y-85733333D01*
X200718633Y-85733333D02*
X200751966Y-85799999D01*
X200751966Y-85799999D02*
X200785300Y-85833333D01*
X200785300Y-85833333D02*
X200851966Y-85866666D01*
X200851966Y-85866666D02*
X200918633Y-85866666D01*
X200918633Y-85866666D02*
X201018633Y-85833333D01*
X201018633Y-85833333D02*
X201418633Y-85433333D01*
X201418633Y-85433333D02*
X201418633Y-85866666D01*
X245350000Y-107318633D02*
X245583333Y-106985300D01*
X245750000Y-107318633D02*
X245750000Y-106618633D01*
X245750000Y-106618633D02*
X245483333Y-106618633D01*
X245483333Y-106618633D02*
X245416667Y-106651966D01*
X245416667Y-106651966D02*
X245383333Y-106685300D01*
X245383333Y-106685300D02*
X245350000Y-106751966D01*
X245350000Y-106751966D02*
X245350000Y-106851966D01*
X245350000Y-106851966D02*
X245383333Y-106918633D01*
X245383333Y-106918633D02*
X245416667Y-106951966D01*
X245416667Y-106951966D02*
X245483333Y-106985300D01*
X245483333Y-106985300D02*
X245750000Y-106985300D01*
X245083333Y-106685300D02*
X245050000Y-106651966D01*
X245050000Y-106651966D02*
X244983333Y-106618633D01*
X244983333Y-106618633D02*
X244816667Y-106618633D01*
X244816667Y-106618633D02*
X244750000Y-106651966D01*
X244750000Y-106651966D02*
X244716667Y-106685300D01*
X244716667Y-106685300D02*
X244683333Y-106751966D01*
X244683333Y-106751966D02*
X244683333Y-106818633D01*
X244683333Y-106818633D02*
X244716667Y-106918633D01*
X244716667Y-106918633D02*
X245116667Y-107318633D01*
X245116667Y-107318633D02*
X244683333Y-107318633D01*
X244283333Y-106918633D02*
X244350000Y-106885300D01*
X244350000Y-106885300D02*
X244383333Y-106851966D01*
X244383333Y-106851966D02*
X244416666Y-106785300D01*
X244416666Y-106785300D02*
X244416666Y-106751966D01*
X244416666Y-106751966D02*
X244383333Y-106685300D01*
X244383333Y-106685300D02*
X244350000Y-106651966D01*
X244350000Y-106651966D02*
X244283333Y-106618633D01*
X244283333Y-106618633D02*
X244150000Y-106618633D01*
X244150000Y-106618633D02*
X244083333Y-106651966D01*
X244083333Y-106651966D02*
X244050000Y-106685300D01*
X244050000Y-106685300D02*
X244016666Y-106751966D01*
X244016666Y-106751966D02*
X244016666Y-106785300D01*
X244016666Y-106785300D02*
X244050000Y-106851966D01*
X244050000Y-106851966D02*
X244083333Y-106885300D01*
X244083333Y-106885300D02*
X244150000Y-106918633D01*
X244150000Y-106918633D02*
X244283333Y-106918633D01*
X244283333Y-106918633D02*
X244350000Y-106951966D01*
X244350000Y-106951966D02*
X244383333Y-106985300D01*
X244383333Y-106985300D02*
X244416666Y-107051966D01*
X244416666Y-107051966D02*
X244416666Y-107185300D01*
X244416666Y-107185300D02*
X244383333Y-107251966D01*
X244383333Y-107251966D02*
X244350000Y-107285300D01*
X244350000Y-107285300D02*
X244283333Y-107318633D01*
X244283333Y-107318633D02*
X244150000Y-107318633D01*
X244150000Y-107318633D02*
X244083333Y-107285300D01*
X244083333Y-107285300D02*
X244050000Y-107251966D01*
X244050000Y-107251966D02*
X244016666Y-107185300D01*
X244016666Y-107185300D02*
X244016666Y-107051966D01*
X244016666Y-107051966D02*
X244050000Y-106985300D01*
X244050000Y-106985300D02*
X244083333Y-106951966D01*
X244083333Y-106951966D02*
X244150000Y-106918633D01*
X211466666Y-104285300D02*
X211533333Y-104251966D01*
X211533333Y-104251966D02*
X211600000Y-104185300D01*
X211600000Y-104185300D02*
X211700000Y-104085300D01*
X211700000Y-104085300D02*
X211766666Y-104051966D01*
X211766666Y-104051966D02*
X211833333Y-104051966D01*
X211800000Y-104218633D02*
X211866666Y-104185300D01*
X211866666Y-104185300D02*
X211933333Y-104118633D01*
X211933333Y-104118633D02*
X211966666Y-103985300D01*
X211966666Y-103985300D02*
X211966666Y-103751966D01*
X211966666Y-103751966D02*
X211933333Y-103618633D01*
X211933333Y-103618633D02*
X211866666Y-103551966D01*
X211866666Y-103551966D02*
X211800000Y-103518633D01*
X211800000Y-103518633D02*
X211666666Y-103518633D01*
X211666666Y-103518633D02*
X211600000Y-103551966D01*
X211600000Y-103551966D02*
X211533333Y-103618633D01*
X211533333Y-103618633D02*
X211500000Y-103751966D01*
X211500000Y-103751966D02*
X211500000Y-103985300D01*
X211500000Y-103985300D02*
X211533333Y-104118633D01*
X211533333Y-104118633D02*
X211600000Y-104185300D01*
X211600000Y-104185300D02*
X211666666Y-104218633D01*
X211666666Y-104218633D02*
X211800000Y-104218633D01*
X211266667Y-103518633D02*
X210833333Y-103518633D01*
X210833333Y-103518633D02*
X211066667Y-103785300D01*
X211066667Y-103785300D02*
X210966667Y-103785300D01*
X210966667Y-103785300D02*
X210900000Y-103818633D01*
X210900000Y-103818633D02*
X210866667Y-103851966D01*
X210866667Y-103851966D02*
X210833333Y-103918633D01*
X210833333Y-103918633D02*
X210833333Y-104085300D01*
X210833333Y-104085300D02*
X210866667Y-104151966D01*
X210866667Y-104151966D02*
X210900000Y-104185300D01*
X210900000Y-104185300D02*
X210966667Y-104218633D01*
X210966667Y-104218633D02*
X211166667Y-104218633D01*
X211166667Y-104218633D02*
X211233333Y-104185300D01*
X211233333Y-104185300D02*
X211266667Y-104151966D01*
X245300000Y-102718633D02*
X245533333Y-102385300D01*
X245700000Y-102718633D02*
X245700000Y-102018633D01*
X245700000Y-102018633D02*
X245433333Y-102018633D01*
X245433333Y-102018633D02*
X245366667Y-102051966D01*
X245366667Y-102051966D02*
X245333333Y-102085300D01*
X245333333Y-102085300D02*
X245300000Y-102151966D01*
X245300000Y-102151966D02*
X245300000Y-102251966D01*
X245300000Y-102251966D02*
X245333333Y-102318633D01*
X245333333Y-102318633D02*
X245366667Y-102351966D01*
X245366667Y-102351966D02*
X245433333Y-102385300D01*
X245433333Y-102385300D02*
X245700000Y-102385300D01*
X245033333Y-102085300D02*
X245000000Y-102051966D01*
X245000000Y-102051966D02*
X244933333Y-102018633D01*
X244933333Y-102018633D02*
X244766667Y-102018633D01*
X244766667Y-102018633D02*
X244700000Y-102051966D01*
X244700000Y-102051966D02*
X244666667Y-102085300D01*
X244666667Y-102085300D02*
X244633333Y-102151966D01*
X244633333Y-102151966D02*
X244633333Y-102218633D01*
X244633333Y-102218633D02*
X244666667Y-102318633D01*
X244666667Y-102318633D02*
X245066667Y-102718633D01*
X245066667Y-102718633D02*
X244633333Y-102718633D01*
X244400000Y-102018633D02*
X243933333Y-102018633D01*
X243933333Y-102018633D02*
X244233333Y-102718633D01*
X204133333Y-104435300D02*
X204033333Y-104468633D01*
X204033333Y-104468633D02*
X203866667Y-104468633D01*
X203866667Y-104468633D02*
X203800000Y-104435300D01*
X203800000Y-104435300D02*
X203766667Y-104401966D01*
X203766667Y-104401966D02*
X203733333Y-104335300D01*
X203733333Y-104335300D02*
X203733333Y-104268633D01*
X203733333Y-104268633D02*
X203766667Y-104201966D01*
X203766667Y-104201966D02*
X203800000Y-104168633D01*
X203800000Y-104168633D02*
X203866667Y-104135300D01*
X203866667Y-104135300D02*
X204000000Y-104101966D01*
X204000000Y-104101966D02*
X204066667Y-104068633D01*
X204066667Y-104068633D02*
X204100000Y-104035300D01*
X204100000Y-104035300D02*
X204133333Y-103968633D01*
X204133333Y-103968633D02*
X204133333Y-103901966D01*
X204133333Y-103901966D02*
X204100000Y-103835300D01*
X204100000Y-103835300D02*
X204066667Y-103801966D01*
X204066667Y-103801966D02*
X204000000Y-103768633D01*
X204000000Y-103768633D02*
X203833333Y-103768633D01*
X203833333Y-103768633D02*
X203733333Y-103801966D01*
X203500000Y-103768633D02*
X203333333Y-104468633D01*
X203333333Y-104468633D02*
X203200000Y-103968633D01*
X203200000Y-103968633D02*
X203066666Y-104468633D01*
X203066666Y-104468633D02*
X202900000Y-103768633D01*
X202266666Y-104468633D02*
X202666666Y-104468633D01*
X202466666Y-104468633D02*
X202466666Y-103768633D01*
X202466666Y-103768633D02*
X202533333Y-103868633D01*
X202533333Y-103868633D02*
X202600000Y-103935300D01*
X202600000Y-103935300D02*
X202666666Y-103968633D01*
X228650000Y-101618633D02*
X228883333Y-101285300D01*
X229050000Y-101618633D02*
X229050000Y-100918633D01*
X229050000Y-100918633D02*
X228783333Y-100918633D01*
X228783333Y-100918633D02*
X228716667Y-100951966D01*
X228716667Y-100951966D02*
X228683333Y-100985300D01*
X228683333Y-100985300D02*
X228650000Y-101051966D01*
X228650000Y-101051966D02*
X228650000Y-101151966D01*
X228650000Y-101151966D02*
X228683333Y-101218633D01*
X228683333Y-101218633D02*
X228716667Y-101251966D01*
X228716667Y-101251966D02*
X228783333Y-101285300D01*
X228783333Y-101285300D02*
X229050000Y-101285300D01*
X228416667Y-100918633D02*
X227983333Y-100918633D01*
X227983333Y-100918633D02*
X228216667Y-101185300D01*
X228216667Y-101185300D02*
X228116667Y-101185300D01*
X228116667Y-101185300D02*
X228050000Y-101218633D01*
X228050000Y-101218633D02*
X228016667Y-101251966D01*
X228016667Y-101251966D02*
X227983333Y-101318633D01*
X227983333Y-101318633D02*
X227983333Y-101485300D01*
X227983333Y-101485300D02*
X228016667Y-101551966D01*
X228016667Y-101551966D02*
X228050000Y-101585300D01*
X228050000Y-101585300D02*
X228116667Y-101618633D01*
X228116667Y-101618633D02*
X228316667Y-101618633D01*
X228316667Y-101618633D02*
X228383333Y-101585300D01*
X228383333Y-101585300D02*
X228416667Y-101551966D01*
X227716666Y-100985300D02*
X227683333Y-100951966D01*
X227683333Y-100951966D02*
X227616666Y-100918633D01*
X227616666Y-100918633D02*
X227450000Y-100918633D01*
X227450000Y-100918633D02*
X227383333Y-100951966D01*
X227383333Y-100951966D02*
X227350000Y-100985300D01*
X227350000Y-100985300D02*
X227316666Y-101051966D01*
X227316666Y-101051966D02*
X227316666Y-101118633D01*
X227316666Y-101118633D02*
X227350000Y-101218633D01*
X227350000Y-101218633D02*
X227750000Y-101618633D01*
X227750000Y-101618633D02*
X227316666Y-101618633D01*
X221818633Y-101549999D02*
X221485300Y-101316666D01*
X221818633Y-101149999D02*
X221118633Y-101149999D01*
X221118633Y-101149999D02*
X221118633Y-101416666D01*
X221118633Y-101416666D02*
X221151966Y-101483333D01*
X221151966Y-101483333D02*
X221185300Y-101516666D01*
X221185300Y-101516666D02*
X221251966Y-101549999D01*
X221251966Y-101549999D02*
X221351966Y-101549999D01*
X221351966Y-101549999D02*
X221418633Y-101516666D01*
X221418633Y-101516666D02*
X221451966Y-101483333D01*
X221451966Y-101483333D02*
X221485300Y-101416666D01*
X221485300Y-101416666D02*
X221485300Y-101149999D01*
X221118633Y-101783333D02*
X221118633Y-102216666D01*
X221118633Y-102216666D02*
X221385300Y-101983333D01*
X221385300Y-101983333D02*
X221385300Y-102083333D01*
X221385300Y-102083333D02*
X221418633Y-102149999D01*
X221418633Y-102149999D02*
X221451966Y-102183333D01*
X221451966Y-102183333D02*
X221518633Y-102216666D01*
X221518633Y-102216666D02*
X221685300Y-102216666D01*
X221685300Y-102216666D02*
X221751966Y-102183333D01*
X221751966Y-102183333D02*
X221785300Y-102149999D01*
X221785300Y-102149999D02*
X221818633Y-102083333D01*
X221818633Y-102083333D02*
X221818633Y-101883333D01*
X221818633Y-101883333D02*
X221785300Y-101816666D01*
X221785300Y-101816666D02*
X221751966Y-101783333D01*
X221118633Y-102816666D02*
X221118633Y-102683333D01*
X221118633Y-102683333D02*
X221151966Y-102616666D01*
X221151966Y-102616666D02*
X221185300Y-102583333D01*
X221185300Y-102583333D02*
X221285300Y-102516666D01*
X221285300Y-102516666D02*
X221418633Y-102483333D01*
X221418633Y-102483333D02*
X221685300Y-102483333D01*
X221685300Y-102483333D02*
X221751966Y-102516666D01*
X221751966Y-102516666D02*
X221785300Y-102550000D01*
X221785300Y-102550000D02*
X221818633Y-102616666D01*
X221818633Y-102616666D02*
X221818633Y-102750000D01*
X221818633Y-102750000D02*
X221785300Y-102816666D01*
X221785300Y-102816666D02*
X221751966Y-102850000D01*
X221751966Y-102850000D02*
X221685300Y-102883333D01*
X221685300Y-102883333D02*
X221518633Y-102883333D01*
X221518633Y-102883333D02*
X221451966Y-102850000D01*
X221451966Y-102850000D02*
X221418633Y-102816666D01*
X221418633Y-102816666D02*
X221385300Y-102750000D01*
X221385300Y-102750000D02*
X221385300Y-102616666D01*
X221385300Y-102616666D02*
X221418633Y-102550000D01*
X221418633Y-102550000D02*
X221451966Y-102516666D01*
X221451966Y-102516666D02*
X221518633Y-102483333D01*
X199350000Y-115718633D02*
X199583333Y-115385300D01*
X199750000Y-115718633D02*
X199750000Y-115018633D01*
X199750000Y-115018633D02*
X199483333Y-115018633D01*
X199483333Y-115018633D02*
X199416667Y-115051966D01*
X199416667Y-115051966D02*
X199383333Y-115085300D01*
X199383333Y-115085300D02*
X199350000Y-115151966D01*
X199350000Y-115151966D02*
X199350000Y-115251966D01*
X199350000Y-115251966D02*
X199383333Y-115318633D01*
X199383333Y-115318633D02*
X199416667Y-115351966D01*
X199416667Y-115351966D02*
X199483333Y-115385300D01*
X199483333Y-115385300D02*
X199750000Y-115385300D01*
X199083333Y-115085300D02*
X199050000Y-115051966D01*
X199050000Y-115051966D02*
X198983333Y-115018633D01*
X198983333Y-115018633D02*
X198816667Y-115018633D01*
X198816667Y-115018633D02*
X198750000Y-115051966D01*
X198750000Y-115051966D02*
X198716667Y-115085300D01*
X198716667Y-115085300D02*
X198683333Y-115151966D01*
X198683333Y-115151966D02*
X198683333Y-115218633D01*
X198683333Y-115218633D02*
X198716667Y-115318633D01*
X198716667Y-115318633D02*
X199116667Y-115718633D01*
X199116667Y-115718633D02*
X198683333Y-115718633D01*
X198450000Y-115018633D02*
X198016666Y-115018633D01*
X198016666Y-115018633D02*
X198250000Y-115285300D01*
X198250000Y-115285300D02*
X198150000Y-115285300D01*
X198150000Y-115285300D02*
X198083333Y-115318633D01*
X198083333Y-115318633D02*
X198050000Y-115351966D01*
X198050000Y-115351966D02*
X198016666Y-115418633D01*
X198016666Y-115418633D02*
X198016666Y-115585300D01*
X198016666Y-115585300D02*
X198050000Y-115651966D01*
X198050000Y-115651966D02*
X198083333Y-115685300D01*
X198083333Y-115685300D02*
X198150000Y-115718633D01*
X198150000Y-115718633D02*
X198350000Y-115718633D01*
X198350000Y-115718633D02*
X198416666Y-115685300D01*
X198416666Y-115685300D02*
X198450000Y-115651966D01*
X202618633Y-125766666D02*
X203185300Y-125766666D01*
X203185300Y-125766666D02*
X203251966Y-125800000D01*
X203251966Y-125800000D02*
X203285300Y-125833333D01*
X203285300Y-125833333D02*
X203318633Y-125900000D01*
X203318633Y-125900000D02*
X203318633Y-126033333D01*
X203318633Y-126033333D02*
X203285300Y-126100000D01*
X203285300Y-126100000D02*
X203251966Y-126133333D01*
X203251966Y-126133333D02*
X203185300Y-126166666D01*
X203185300Y-126166666D02*
X202618633Y-126166666D01*
X202618633Y-126433333D02*
X202618633Y-126866666D01*
X202618633Y-126866666D02*
X202885300Y-126633333D01*
X202885300Y-126633333D02*
X202885300Y-126733333D01*
X202885300Y-126733333D02*
X202918633Y-126799999D01*
X202918633Y-126799999D02*
X202951966Y-126833333D01*
X202951966Y-126833333D02*
X203018633Y-126866666D01*
X203018633Y-126866666D02*
X203185300Y-126866666D01*
X203185300Y-126866666D02*
X203251966Y-126833333D01*
X203251966Y-126833333D02*
X203285300Y-126799999D01*
X203285300Y-126799999D02*
X203318633Y-126733333D01*
X203318633Y-126733333D02*
X203318633Y-126533333D01*
X203318633Y-126533333D02*
X203285300Y-126466666D01*
X203285300Y-126466666D02*
X203251966Y-126433333D01*
X210950000Y-98518633D02*
X211183333Y-98185300D01*
X211350000Y-98518633D02*
X211350000Y-97818633D01*
X211350000Y-97818633D02*
X211083333Y-97818633D01*
X211083333Y-97818633D02*
X211016667Y-97851966D01*
X211016667Y-97851966D02*
X210983333Y-97885300D01*
X210983333Y-97885300D02*
X210950000Y-97951966D01*
X210950000Y-97951966D02*
X210950000Y-98051966D01*
X210950000Y-98051966D02*
X210983333Y-98118633D01*
X210983333Y-98118633D02*
X211016667Y-98151966D01*
X211016667Y-98151966D02*
X211083333Y-98185300D01*
X211083333Y-98185300D02*
X211350000Y-98185300D01*
X210283333Y-98518633D02*
X210683333Y-98518633D01*
X210483333Y-98518633D02*
X210483333Y-97818633D01*
X210483333Y-97818633D02*
X210550000Y-97918633D01*
X210550000Y-97918633D02*
X210616667Y-97985300D01*
X210616667Y-97985300D02*
X210683333Y-98018633D01*
X210016666Y-97885300D02*
X209983333Y-97851966D01*
X209983333Y-97851966D02*
X209916666Y-97818633D01*
X209916666Y-97818633D02*
X209750000Y-97818633D01*
X209750000Y-97818633D02*
X209683333Y-97851966D01*
X209683333Y-97851966D02*
X209650000Y-97885300D01*
X209650000Y-97885300D02*
X209616666Y-97951966D01*
X209616666Y-97951966D02*
X209616666Y-98018633D01*
X209616666Y-98018633D02*
X209650000Y-98118633D01*
X209650000Y-98118633D02*
X210050000Y-98518633D01*
X210050000Y-98518633D02*
X209616666Y-98518633D01*
X243101966Y-94599999D02*
X243135300Y-94566666D01*
X243135300Y-94566666D02*
X243168633Y-94466666D01*
X243168633Y-94466666D02*
X243168633Y-94399999D01*
X243168633Y-94399999D02*
X243135300Y-94299999D01*
X243135300Y-94299999D02*
X243068633Y-94233333D01*
X243068633Y-94233333D02*
X243001966Y-94199999D01*
X243001966Y-94199999D02*
X242868633Y-94166666D01*
X242868633Y-94166666D02*
X242768633Y-94166666D01*
X242768633Y-94166666D02*
X242635300Y-94199999D01*
X242635300Y-94199999D02*
X242568633Y-94233333D01*
X242568633Y-94233333D02*
X242501966Y-94299999D01*
X242501966Y-94299999D02*
X242468633Y-94399999D01*
X242468633Y-94399999D02*
X242468633Y-94466666D01*
X242468633Y-94466666D02*
X242501966Y-94566666D01*
X242501966Y-94566666D02*
X242535300Y-94599999D01*
X242535300Y-94866666D02*
X242501966Y-94899999D01*
X242501966Y-94899999D02*
X242468633Y-94966666D01*
X242468633Y-94966666D02*
X242468633Y-95133333D01*
X242468633Y-95133333D02*
X242501966Y-95199999D01*
X242501966Y-95199999D02*
X242535300Y-95233333D01*
X242535300Y-95233333D02*
X242601966Y-95266666D01*
X242601966Y-95266666D02*
X242668633Y-95266666D01*
X242668633Y-95266666D02*
X242768633Y-95233333D01*
X242768633Y-95233333D02*
X243168633Y-94833333D01*
X243168633Y-94833333D02*
X243168633Y-95266666D01*
X242468633Y-95500000D02*
X242468633Y-95966666D01*
X242468633Y-95966666D02*
X243168633Y-95666666D01*
X231451966Y-90049999D02*
X231485300Y-90016666D01*
X231485300Y-90016666D02*
X231518633Y-89916666D01*
X231518633Y-89916666D02*
X231518633Y-89849999D01*
X231518633Y-89849999D02*
X231485300Y-89749999D01*
X231485300Y-89749999D02*
X231418633Y-89683333D01*
X231418633Y-89683333D02*
X231351966Y-89649999D01*
X231351966Y-89649999D02*
X231218633Y-89616666D01*
X231218633Y-89616666D02*
X231118633Y-89616666D01*
X231118633Y-89616666D02*
X230985300Y-89649999D01*
X230985300Y-89649999D02*
X230918633Y-89683333D01*
X230918633Y-89683333D02*
X230851966Y-89749999D01*
X230851966Y-89749999D02*
X230818633Y-89849999D01*
X230818633Y-89849999D02*
X230818633Y-89916666D01*
X230818633Y-89916666D02*
X230851966Y-90016666D01*
X230851966Y-90016666D02*
X230885300Y-90049999D01*
X230818633Y-90283333D02*
X230818633Y-90716666D01*
X230818633Y-90716666D02*
X231085300Y-90483333D01*
X231085300Y-90483333D02*
X231085300Y-90583333D01*
X231085300Y-90583333D02*
X231118633Y-90649999D01*
X231118633Y-90649999D02*
X231151966Y-90683333D01*
X231151966Y-90683333D02*
X231218633Y-90716666D01*
X231218633Y-90716666D02*
X231385300Y-90716666D01*
X231385300Y-90716666D02*
X231451966Y-90683333D01*
X231451966Y-90683333D02*
X231485300Y-90649999D01*
X231485300Y-90649999D02*
X231518633Y-90583333D01*
X231518633Y-90583333D02*
X231518633Y-90383333D01*
X231518633Y-90383333D02*
X231485300Y-90316666D01*
X231485300Y-90316666D02*
X231451966Y-90283333D01*
X231518633Y-91383333D02*
X231518633Y-90983333D01*
X231518633Y-91183333D02*
X230818633Y-91183333D01*
X230818633Y-91183333D02*
X230918633Y-91116666D01*
X230918633Y-91116666D02*
X230985300Y-91050000D01*
X230985300Y-91050000D02*
X231018633Y-90983333D01*
X237318633Y-89799999D02*
X236985300Y-89566666D01*
X237318633Y-89399999D02*
X236618633Y-89399999D01*
X236618633Y-89399999D02*
X236618633Y-89666666D01*
X236618633Y-89666666D02*
X236651966Y-89733333D01*
X236651966Y-89733333D02*
X236685300Y-89766666D01*
X236685300Y-89766666D02*
X236751966Y-89799999D01*
X236751966Y-89799999D02*
X236851966Y-89799999D01*
X236851966Y-89799999D02*
X236918633Y-89766666D01*
X236918633Y-89766666D02*
X236951966Y-89733333D01*
X236951966Y-89733333D02*
X236985300Y-89666666D01*
X236985300Y-89666666D02*
X236985300Y-89399999D01*
X236685300Y-90066666D02*
X236651966Y-90099999D01*
X236651966Y-90099999D02*
X236618633Y-90166666D01*
X236618633Y-90166666D02*
X236618633Y-90333333D01*
X236618633Y-90333333D02*
X236651966Y-90399999D01*
X236651966Y-90399999D02*
X236685300Y-90433333D01*
X236685300Y-90433333D02*
X236751966Y-90466666D01*
X236751966Y-90466666D02*
X236818633Y-90466666D01*
X236818633Y-90466666D02*
X236918633Y-90433333D01*
X236918633Y-90433333D02*
X237318633Y-90033333D01*
X237318633Y-90033333D02*
X237318633Y-90466666D01*
X236618633Y-91100000D02*
X236618633Y-90766666D01*
X236618633Y-90766666D02*
X236951966Y-90733333D01*
X236951966Y-90733333D02*
X236918633Y-90766666D01*
X236918633Y-90766666D02*
X236885300Y-90833333D01*
X236885300Y-90833333D02*
X236885300Y-91000000D01*
X236885300Y-91000000D02*
X236918633Y-91066666D01*
X236918633Y-91066666D02*
X236951966Y-91100000D01*
X236951966Y-91100000D02*
X237018633Y-91133333D01*
X237018633Y-91133333D02*
X237185300Y-91133333D01*
X237185300Y-91133333D02*
X237251966Y-91100000D01*
X237251966Y-91100000D02*
X237285300Y-91066666D01*
X237285300Y-91066666D02*
X237318633Y-91000000D01*
X237318633Y-91000000D02*
X237318633Y-90833333D01*
X237318633Y-90833333D02*
X237285300Y-90766666D01*
X237285300Y-90766666D02*
X237251966Y-90733333D01*
X222016666Y-106118633D02*
X222016666Y-105418633D01*
X222016666Y-105418633D02*
X221849999Y-105418633D01*
X221849999Y-105418633D02*
X221749999Y-105451966D01*
X221749999Y-105451966D02*
X221683333Y-105518633D01*
X221683333Y-105518633D02*
X221649999Y-105585300D01*
X221649999Y-105585300D02*
X221616666Y-105718633D01*
X221616666Y-105718633D02*
X221616666Y-105818633D01*
X221616666Y-105818633D02*
X221649999Y-105951966D01*
X221649999Y-105951966D02*
X221683333Y-106018633D01*
X221683333Y-106018633D02*
X221749999Y-106085300D01*
X221749999Y-106085300D02*
X221849999Y-106118633D01*
X221849999Y-106118633D02*
X222016666Y-106118633D01*
X221383333Y-105418633D02*
X220916666Y-105418633D01*
X220916666Y-105418633D02*
X221216666Y-106118633D01*
X240951966Y-89699999D02*
X240985300Y-89666666D01*
X240985300Y-89666666D02*
X241018633Y-89566666D01*
X241018633Y-89566666D02*
X241018633Y-89499999D01*
X241018633Y-89499999D02*
X240985300Y-89399999D01*
X240985300Y-89399999D02*
X240918633Y-89333333D01*
X240918633Y-89333333D02*
X240851966Y-89299999D01*
X240851966Y-89299999D02*
X240718633Y-89266666D01*
X240718633Y-89266666D02*
X240618633Y-89266666D01*
X240618633Y-89266666D02*
X240485300Y-89299999D01*
X240485300Y-89299999D02*
X240418633Y-89333333D01*
X240418633Y-89333333D02*
X240351966Y-89399999D01*
X240351966Y-89399999D02*
X240318633Y-89499999D01*
X240318633Y-89499999D02*
X240318633Y-89566666D01*
X240318633Y-89566666D02*
X240351966Y-89666666D01*
X240351966Y-89666666D02*
X240385300Y-89699999D01*
X240385300Y-89966666D02*
X240351966Y-89999999D01*
X240351966Y-89999999D02*
X240318633Y-90066666D01*
X240318633Y-90066666D02*
X240318633Y-90233333D01*
X240318633Y-90233333D02*
X240351966Y-90299999D01*
X240351966Y-90299999D02*
X240385300Y-90333333D01*
X240385300Y-90333333D02*
X240451966Y-90366666D01*
X240451966Y-90366666D02*
X240518633Y-90366666D01*
X240518633Y-90366666D02*
X240618633Y-90333333D01*
X240618633Y-90333333D02*
X241018633Y-89933333D01*
X241018633Y-89933333D02*
X241018633Y-90366666D01*
X241018633Y-90700000D02*
X241018633Y-90833333D01*
X241018633Y-90833333D02*
X240985300Y-90900000D01*
X240985300Y-90900000D02*
X240951966Y-90933333D01*
X240951966Y-90933333D02*
X240851966Y-91000000D01*
X240851966Y-91000000D02*
X240718633Y-91033333D01*
X240718633Y-91033333D02*
X240451966Y-91033333D01*
X240451966Y-91033333D02*
X240385300Y-91000000D01*
X240385300Y-91000000D02*
X240351966Y-90966666D01*
X240351966Y-90966666D02*
X240318633Y-90900000D01*
X240318633Y-90900000D02*
X240318633Y-90766666D01*
X240318633Y-90766666D02*
X240351966Y-90700000D01*
X240351966Y-90700000D02*
X240385300Y-90666666D01*
X240385300Y-90666666D02*
X240451966Y-90633333D01*
X240451966Y-90633333D02*
X240618633Y-90633333D01*
X240618633Y-90633333D02*
X240685300Y-90666666D01*
X240685300Y-90666666D02*
X240718633Y-90700000D01*
X240718633Y-90700000D02*
X240751966Y-90766666D01*
X240751966Y-90766666D02*
X240751966Y-90900000D01*
X240751966Y-90900000D02*
X240718633Y-90966666D01*
X240718633Y-90966666D02*
X240685300Y-91000000D01*
X240685300Y-91000000D02*
X240618633Y-91033333D01*
X239218633Y-89899999D02*
X238885300Y-89666666D01*
X239218633Y-89499999D02*
X238518633Y-89499999D01*
X238518633Y-89499999D02*
X238518633Y-89766666D01*
X238518633Y-89766666D02*
X238551966Y-89833333D01*
X238551966Y-89833333D02*
X238585300Y-89866666D01*
X238585300Y-89866666D02*
X238651966Y-89899999D01*
X238651966Y-89899999D02*
X238751966Y-89899999D01*
X238751966Y-89899999D02*
X238818633Y-89866666D01*
X238818633Y-89866666D02*
X238851966Y-89833333D01*
X238851966Y-89833333D02*
X238885300Y-89766666D01*
X238885300Y-89766666D02*
X238885300Y-89499999D01*
X238585300Y-90166666D02*
X238551966Y-90199999D01*
X238551966Y-90199999D02*
X238518633Y-90266666D01*
X238518633Y-90266666D02*
X238518633Y-90433333D01*
X238518633Y-90433333D02*
X238551966Y-90499999D01*
X238551966Y-90499999D02*
X238585300Y-90533333D01*
X238585300Y-90533333D02*
X238651966Y-90566666D01*
X238651966Y-90566666D02*
X238718633Y-90566666D01*
X238718633Y-90566666D02*
X238818633Y-90533333D01*
X238818633Y-90533333D02*
X239218633Y-90133333D01*
X239218633Y-90133333D02*
X239218633Y-90566666D01*
X238518633Y-91166666D02*
X238518633Y-91033333D01*
X238518633Y-91033333D02*
X238551966Y-90966666D01*
X238551966Y-90966666D02*
X238585300Y-90933333D01*
X238585300Y-90933333D02*
X238685300Y-90866666D01*
X238685300Y-90866666D02*
X238818633Y-90833333D01*
X238818633Y-90833333D02*
X239085300Y-90833333D01*
X239085300Y-90833333D02*
X239151966Y-90866666D01*
X239151966Y-90866666D02*
X239185300Y-90900000D01*
X239185300Y-90900000D02*
X239218633Y-90966666D01*
X239218633Y-90966666D02*
X239218633Y-91100000D01*
X239218633Y-91100000D02*
X239185300Y-91166666D01*
X239185300Y-91166666D02*
X239151966Y-91200000D01*
X239151966Y-91200000D02*
X239085300Y-91233333D01*
X239085300Y-91233333D02*
X238918633Y-91233333D01*
X238918633Y-91233333D02*
X238851966Y-91200000D01*
X238851966Y-91200000D02*
X238818633Y-91166666D01*
X238818633Y-91166666D02*
X238785300Y-91100000D01*
X238785300Y-91100000D02*
X238785300Y-90966666D01*
X238785300Y-90966666D02*
X238818633Y-90900000D01*
X238818633Y-90900000D02*
X238851966Y-90866666D01*
X238851966Y-90866666D02*
X238918633Y-90833333D01*
D10*
X216155357Y-103904819D02*
X216488690Y-103428628D01*
X216726785Y-103904819D02*
X216726785Y-102904819D01*
X216726785Y-102904819D02*
X216345833Y-102904819D01*
X216345833Y-102904819D02*
X216250595Y-102952438D01*
X216250595Y-102952438D02*
X216202976Y-103000057D01*
X216202976Y-103000057D02*
X216155357Y-103095295D01*
X216155357Y-103095295D02*
X216155357Y-103238152D01*
X216155357Y-103238152D02*
X216202976Y-103333390D01*
X216202976Y-103333390D02*
X216250595Y-103381009D01*
X216250595Y-103381009D02*
X216345833Y-103428628D01*
X216345833Y-103428628D02*
X216726785Y-103428628D01*
X215298214Y-103238152D02*
X215298214Y-103904819D01*
X215536309Y-102857200D02*
X215774404Y-103571485D01*
X215774404Y-103571485D02*
X215155357Y-103571485D01*
X214869642Y-102904819D02*
X214250595Y-102904819D01*
X214250595Y-102904819D02*
X214583928Y-103285771D01*
X214583928Y-103285771D02*
X214441071Y-103285771D01*
X214441071Y-103285771D02*
X214345833Y-103333390D01*
X214345833Y-103333390D02*
X214298214Y-103381009D01*
X214298214Y-103381009D02*
X214250595Y-103476247D01*
X214250595Y-103476247D02*
X214250595Y-103714342D01*
X214250595Y-103714342D02*
X214298214Y-103809580D01*
X214298214Y-103809580D02*
X214345833Y-103857200D01*
X214345833Y-103857200D02*
X214441071Y-103904819D01*
X214441071Y-103904819D02*
X214726785Y-103904819D01*
X214726785Y-103904819D02*
X214822023Y-103857200D01*
X214822023Y-103857200D02*
X214869642Y-103809580D01*
D11*
X202751966Y-123883333D02*
X202785300Y-123850000D01*
X202785300Y-123850000D02*
X202818633Y-123750000D01*
X202818633Y-123750000D02*
X202818633Y-123683333D01*
X202818633Y-123683333D02*
X202785300Y-123583333D01*
X202785300Y-123583333D02*
X202718633Y-123516667D01*
X202718633Y-123516667D02*
X202651966Y-123483333D01*
X202651966Y-123483333D02*
X202518633Y-123450000D01*
X202518633Y-123450000D02*
X202418633Y-123450000D01*
X202418633Y-123450000D02*
X202285300Y-123483333D01*
X202285300Y-123483333D02*
X202218633Y-123516667D01*
X202218633Y-123516667D02*
X202151966Y-123583333D01*
X202151966Y-123583333D02*
X202118633Y-123683333D01*
X202118633Y-123683333D02*
X202118633Y-123750000D01*
X202118633Y-123750000D02*
X202151966Y-123850000D01*
X202151966Y-123850000D02*
X202185300Y-123883333D01*
X202351966Y-124483333D02*
X202818633Y-124483333D01*
X202085300Y-124316667D02*
X202585300Y-124150000D01*
X202585300Y-124150000D02*
X202585300Y-124583333D01*
X206783333Y-108066633D02*
X206383333Y-108066633D01*
X206583333Y-108766633D02*
X206583333Y-108066633D01*
X206150000Y-108766633D02*
X206150000Y-108066633D01*
X206150000Y-108066633D02*
X205883333Y-108066633D01*
X205883333Y-108066633D02*
X205816667Y-108099966D01*
X205816667Y-108099966D02*
X205783333Y-108133300D01*
X205783333Y-108133300D02*
X205750000Y-108199966D01*
X205750000Y-108199966D02*
X205750000Y-108299966D01*
X205750000Y-108299966D02*
X205783333Y-108366633D01*
X205783333Y-108366633D02*
X205816667Y-108399966D01*
X205816667Y-108399966D02*
X205883333Y-108433300D01*
X205883333Y-108433300D02*
X206150000Y-108433300D01*
X205083333Y-108766633D02*
X205483333Y-108766633D01*
X205283333Y-108766633D02*
X205283333Y-108066633D01*
X205283333Y-108066633D02*
X205350000Y-108166633D01*
X205350000Y-108166633D02*
X205416667Y-108233300D01*
X205416667Y-108233300D02*
X205483333Y-108266633D01*
X214966666Y-99385300D02*
X215033333Y-99351966D01*
X215033333Y-99351966D02*
X215100000Y-99285300D01*
X215100000Y-99285300D02*
X215200000Y-99185300D01*
X215200000Y-99185300D02*
X215266666Y-99151966D01*
X215266666Y-99151966D02*
X215333333Y-99151966D01*
X215300000Y-99318633D02*
X215366666Y-99285300D01*
X215366666Y-99285300D02*
X215433333Y-99218633D01*
X215433333Y-99218633D02*
X215466666Y-99085300D01*
X215466666Y-99085300D02*
X215466666Y-98851966D01*
X215466666Y-98851966D02*
X215433333Y-98718633D01*
X215433333Y-98718633D02*
X215366666Y-98651966D01*
X215366666Y-98651966D02*
X215300000Y-98618633D01*
X215300000Y-98618633D02*
X215166666Y-98618633D01*
X215166666Y-98618633D02*
X215100000Y-98651966D01*
X215100000Y-98651966D02*
X215033333Y-98718633D01*
X215033333Y-98718633D02*
X215000000Y-98851966D01*
X215000000Y-98851966D02*
X215000000Y-99085300D01*
X215000000Y-99085300D02*
X215033333Y-99218633D01*
X215033333Y-99218633D02*
X215100000Y-99285300D01*
X215100000Y-99285300D02*
X215166666Y-99318633D01*
X215166666Y-99318633D02*
X215300000Y-99318633D01*
X214733333Y-98685300D02*
X214700000Y-98651966D01*
X214700000Y-98651966D02*
X214633333Y-98618633D01*
X214633333Y-98618633D02*
X214466667Y-98618633D01*
X214466667Y-98618633D02*
X214400000Y-98651966D01*
X214400000Y-98651966D02*
X214366667Y-98685300D01*
X214366667Y-98685300D02*
X214333333Y-98751966D01*
X214333333Y-98751966D02*
X214333333Y-98818633D01*
X214333333Y-98818633D02*
X214366667Y-98918633D01*
X214366667Y-98918633D02*
X214766667Y-99318633D01*
X214766667Y-99318633D02*
X214333333Y-99318633D01*
X199550000Y-113718633D02*
X199783333Y-113385300D01*
X199950000Y-113718633D02*
X199950000Y-113018633D01*
X199950000Y-113018633D02*
X199683333Y-113018633D01*
X199683333Y-113018633D02*
X199616667Y-113051966D01*
X199616667Y-113051966D02*
X199583333Y-113085300D01*
X199583333Y-113085300D02*
X199550000Y-113151966D01*
X199550000Y-113151966D02*
X199550000Y-113251966D01*
X199550000Y-113251966D02*
X199583333Y-113318633D01*
X199583333Y-113318633D02*
X199616667Y-113351966D01*
X199616667Y-113351966D02*
X199683333Y-113385300D01*
X199683333Y-113385300D02*
X199950000Y-113385300D01*
X199316667Y-113018633D02*
X198883333Y-113018633D01*
X198883333Y-113018633D02*
X199116667Y-113285300D01*
X199116667Y-113285300D02*
X199016667Y-113285300D01*
X199016667Y-113285300D02*
X198950000Y-113318633D01*
X198950000Y-113318633D02*
X198916667Y-113351966D01*
X198916667Y-113351966D02*
X198883333Y-113418633D01*
X198883333Y-113418633D02*
X198883333Y-113585300D01*
X198883333Y-113585300D02*
X198916667Y-113651966D01*
X198916667Y-113651966D02*
X198950000Y-113685300D01*
X198950000Y-113685300D02*
X199016667Y-113718633D01*
X199016667Y-113718633D02*
X199216667Y-113718633D01*
X199216667Y-113718633D02*
X199283333Y-113685300D01*
X199283333Y-113685300D02*
X199316667Y-113651966D01*
X198650000Y-113018633D02*
X198183333Y-113018633D01*
X198183333Y-113018633D02*
X198483333Y-113718633D01*
X232950000Y-105001966D02*
X232983333Y-105035300D01*
X232983333Y-105035300D02*
X233083333Y-105068633D01*
X233083333Y-105068633D02*
X233150000Y-105068633D01*
X233150000Y-105068633D02*
X233250000Y-105035300D01*
X233250000Y-105035300D02*
X233316667Y-104968633D01*
X233316667Y-104968633D02*
X233350000Y-104901966D01*
X233350000Y-104901966D02*
X233383333Y-104768633D01*
X233383333Y-104768633D02*
X233383333Y-104668633D01*
X233383333Y-104668633D02*
X233350000Y-104535300D01*
X233350000Y-104535300D02*
X233316667Y-104468633D01*
X233316667Y-104468633D02*
X233250000Y-104401966D01*
X233250000Y-104401966D02*
X233150000Y-104368633D01*
X233150000Y-104368633D02*
X233083333Y-104368633D01*
X233083333Y-104368633D02*
X232983333Y-104401966D01*
X232983333Y-104401966D02*
X232950000Y-104435300D01*
X232716667Y-104368633D02*
X232283333Y-104368633D01*
X232283333Y-104368633D02*
X232516667Y-104635300D01*
X232516667Y-104635300D02*
X232416667Y-104635300D01*
X232416667Y-104635300D02*
X232350000Y-104668633D01*
X232350000Y-104668633D02*
X232316667Y-104701966D01*
X232316667Y-104701966D02*
X232283333Y-104768633D01*
X232283333Y-104768633D02*
X232283333Y-104935300D01*
X232283333Y-104935300D02*
X232316667Y-105001966D01*
X232316667Y-105001966D02*
X232350000Y-105035300D01*
X232350000Y-105035300D02*
X232416667Y-105068633D01*
X232416667Y-105068633D02*
X232616667Y-105068633D01*
X232616667Y-105068633D02*
X232683333Y-105035300D01*
X232683333Y-105035300D02*
X232716667Y-105001966D01*
X231683333Y-104368633D02*
X231816666Y-104368633D01*
X231816666Y-104368633D02*
X231883333Y-104401966D01*
X231883333Y-104401966D02*
X231916666Y-104435300D01*
X231916666Y-104435300D02*
X231983333Y-104535300D01*
X231983333Y-104535300D02*
X232016666Y-104668633D01*
X232016666Y-104668633D02*
X232016666Y-104935300D01*
X232016666Y-104935300D02*
X231983333Y-105001966D01*
X231983333Y-105001966D02*
X231950000Y-105035300D01*
X231950000Y-105035300D02*
X231883333Y-105068633D01*
X231883333Y-105068633D02*
X231750000Y-105068633D01*
X231750000Y-105068633D02*
X231683333Y-105035300D01*
X231683333Y-105035300D02*
X231650000Y-105001966D01*
X231650000Y-105001966D02*
X231616666Y-104935300D01*
X231616666Y-104935300D02*
X231616666Y-104768633D01*
X231616666Y-104768633D02*
X231650000Y-104701966D01*
X231650000Y-104701966D02*
X231683333Y-104668633D01*
X231683333Y-104668633D02*
X231750000Y-104635300D01*
X231750000Y-104635300D02*
X231883333Y-104635300D01*
X231883333Y-104635300D02*
X231950000Y-104668633D01*
X231950000Y-104668633D02*
X231983333Y-104701966D01*
X231983333Y-104701966D02*
X232016666Y-104768633D01*
X235451966Y-114933333D02*
X235485300Y-114900000D01*
X235485300Y-114900000D02*
X235518633Y-114800000D01*
X235518633Y-114800000D02*
X235518633Y-114733333D01*
X235518633Y-114733333D02*
X235485300Y-114633333D01*
X235485300Y-114633333D02*
X235418633Y-114566667D01*
X235418633Y-114566667D02*
X235351966Y-114533333D01*
X235351966Y-114533333D02*
X235218633Y-114500000D01*
X235218633Y-114500000D02*
X235118633Y-114500000D01*
X235118633Y-114500000D02*
X234985300Y-114533333D01*
X234985300Y-114533333D02*
X234918633Y-114566667D01*
X234918633Y-114566667D02*
X234851966Y-114633333D01*
X234851966Y-114633333D02*
X234818633Y-114733333D01*
X234818633Y-114733333D02*
X234818633Y-114800000D01*
X234818633Y-114800000D02*
X234851966Y-114900000D01*
X234851966Y-114900000D02*
X234885300Y-114933333D01*
X234885300Y-115200000D02*
X234851966Y-115233333D01*
X234851966Y-115233333D02*
X234818633Y-115300000D01*
X234818633Y-115300000D02*
X234818633Y-115466667D01*
X234818633Y-115466667D02*
X234851966Y-115533333D01*
X234851966Y-115533333D02*
X234885300Y-115566667D01*
X234885300Y-115566667D02*
X234951966Y-115600000D01*
X234951966Y-115600000D02*
X235018633Y-115600000D01*
X235018633Y-115600000D02*
X235118633Y-115566667D01*
X235118633Y-115566667D02*
X235518633Y-115166667D01*
X235518633Y-115166667D02*
X235518633Y-115600000D01*
X205051966Y-82783333D02*
X205085300Y-82750000D01*
X205085300Y-82750000D02*
X205118633Y-82650000D01*
X205118633Y-82650000D02*
X205118633Y-82583333D01*
X205118633Y-82583333D02*
X205085300Y-82483333D01*
X205085300Y-82483333D02*
X205018633Y-82416667D01*
X205018633Y-82416667D02*
X204951966Y-82383333D01*
X204951966Y-82383333D02*
X204818633Y-82350000D01*
X204818633Y-82350000D02*
X204718633Y-82350000D01*
X204718633Y-82350000D02*
X204585300Y-82383333D01*
X204585300Y-82383333D02*
X204518633Y-82416667D01*
X204518633Y-82416667D02*
X204451966Y-82483333D01*
X204451966Y-82483333D02*
X204418633Y-82583333D01*
X204418633Y-82583333D02*
X204418633Y-82650000D01*
X204418633Y-82650000D02*
X204451966Y-82750000D01*
X204451966Y-82750000D02*
X204485300Y-82783333D01*
X205118633Y-83450000D02*
X205118633Y-83050000D01*
X205118633Y-83250000D02*
X204418633Y-83250000D01*
X204418633Y-83250000D02*
X204518633Y-83183333D01*
X204518633Y-83183333D02*
X204585300Y-83116667D01*
X204585300Y-83116667D02*
X204618633Y-83050000D01*
X235468633Y-89849999D02*
X235135300Y-89616666D01*
X235468633Y-89449999D02*
X234768633Y-89449999D01*
X234768633Y-89449999D02*
X234768633Y-89716666D01*
X234768633Y-89716666D02*
X234801966Y-89783333D01*
X234801966Y-89783333D02*
X234835300Y-89816666D01*
X234835300Y-89816666D02*
X234901966Y-89849999D01*
X234901966Y-89849999D02*
X235001966Y-89849999D01*
X235001966Y-89849999D02*
X235068633Y-89816666D01*
X235068633Y-89816666D02*
X235101966Y-89783333D01*
X235101966Y-89783333D02*
X235135300Y-89716666D01*
X235135300Y-89716666D02*
X235135300Y-89449999D01*
X234835300Y-90116666D02*
X234801966Y-90149999D01*
X234801966Y-90149999D02*
X234768633Y-90216666D01*
X234768633Y-90216666D02*
X234768633Y-90383333D01*
X234768633Y-90383333D02*
X234801966Y-90449999D01*
X234801966Y-90449999D02*
X234835300Y-90483333D01*
X234835300Y-90483333D02*
X234901966Y-90516666D01*
X234901966Y-90516666D02*
X234968633Y-90516666D01*
X234968633Y-90516666D02*
X235068633Y-90483333D01*
X235068633Y-90483333D02*
X235468633Y-90083333D01*
X235468633Y-90083333D02*
X235468633Y-90516666D01*
X235001966Y-91116666D02*
X235468633Y-91116666D01*
X234735300Y-90950000D02*
X235235300Y-90783333D01*
X235235300Y-90783333D02*
X235235300Y-91216666D01*
X230601966Y-105199999D02*
X230635300Y-105166666D01*
X230635300Y-105166666D02*
X230668633Y-105066666D01*
X230668633Y-105066666D02*
X230668633Y-104999999D01*
X230668633Y-104999999D02*
X230635300Y-104899999D01*
X230635300Y-104899999D02*
X230568633Y-104833333D01*
X230568633Y-104833333D02*
X230501966Y-104799999D01*
X230501966Y-104799999D02*
X230368633Y-104766666D01*
X230368633Y-104766666D02*
X230268633Y-104766666D01*
X230268633Y-104766666D02*
X230135300Y-104799999D01*
X230135300Y-104799999D02*
X230068633Y-104833333D01*
X230068633Y-104833333D02*
X230001966Y-104899999D01*
X230001966Y-104899999D02*
X229968633Y-104999999D01*
X229968633Y-104999999D02*
X229968633Y-105066666D01*
X229968633Y-105066666D02*
X230001966Y-105166666D01*
X230001966Y-105166666D02*
X230035300Y-105199999D01*
X229968633Y-105433333D02*
X229968633Y-105866666D01*
X229968633Y-105866666D02*
X230235300Y-105633333D01*
X230235300Y-105633333D02*
X230235300Y-105733333D01*
X230235300Y-105733333D02*
X230268633Y-105799999D01*
X230268633Y-105799999D02*
X230301966Y-105833333D01*
X230301966Y-105833333D02*
X230368633Y-105866666D01*
X230368633Y-105866666D02*
X230535300Y-105866666D01*
X230535300Y-105866666D02*
X230601966Y-105833333D01*
X230601966Y-105833333D02*
X230635300Y-105799999D01*
X230635300Y-105799999D02*
X230668633Y-105733333D01*
X230668633Y-105733333D02*
X230668633Y-105533333D01*
X230668633Y-105533333D02*
X230635300Y-105466666D01*
X230635300Y-105466666D02*
X230601966Y-105433333D01*
X230668633Y-106200000D02*
X230668633Y-106333333D01*
X230668633Y-106333333D02*
X230635300Y-106400000D01*
X230635300Y-106400000D02*
X230601966Y-106433333D01*
X230601966Y-106433333D02*
X230501966Y-106500000D01*
X230501966Y-106500000D02*
X230368633Y-106533333D01*
X230368633Y-106533333D02*
X230101966Y-106533333D01*
X230101966Y-106533333D02*
X230035300Y-106500000D01*
X230035300Y-106500000D02*
X230001966Y-106466666D01*
X230001966Y-106466666D02*
X229968633Y-106400000D01*
X229968633Y-106400000D02*
X229968633Y-106266666D01*
X229968633Y-106266666D02*
X230001966Y-106200000D01*
X230001966Y-106200000D02*
X230035300Y-106166666D01*
X230035300Y-106166666D02*
X230101966Y-106133333D01*
X230101966Y-106133333D02*
X230268633Y-106133333D01*
X230268633Y-106133333D02*
X230335300Y-106166666D01*
X230335300Y-106166666D02*
X230368633Y-106200000D01*
X230368633Y-106200000D02*
X230401966Y-106266666D01*
X230401966Y-106266666D02*
X230401966Y-106400000D01*
X230401966Y-106400000D02*
X230368633Y-106466666D01*
X230368633Y-106466666D02*
X230335300Y-106500000D01*
X230335300Y-106500000D02*
X230268633Y-106533333D01*
X214350000Y-104818633D02*
X214583333Y-104485300D01*
X214750000Y-104818633D02*
X214750000Y-104118633D01*
X214750000Y-104118633D02*
X214483333Y-104118633D01*
X214483333Y-104118633D02*
X214416667Y-104151966D01*
X214416667Y-104151966D02*
X214383333Y-104185300D01*
X214383333Y-104185300D02*
X214350000Y-104251966D01*
X214350000Y-104251966D02*
X214350000Y-104351966D01*
X214350000Y-104351966D02*
X214383333Y-104418633D01*
X214383333Y-104418633D02*
X214416667Y-104451966D01*
X214416667Y-104451966D02*
X214483333Y-104485300D01*
X214483333Y-104485300D02*
X214750000Y-104485300D01*
X213683333Y-104818633D02*
X214083333Y-104818633D01*
X213883333Y-104818633D02*
X213883333Y-104118633D01*
X213883333Y-104118633D02*
X213950000Y-104218633D01*
X213950000Y-104218633D02*
X214016667Y-104285300D01*
X214016667Y-104285300D02*
X214083333Y-104318633D01*
X213016666Y-104818633D02*
X213416666Y-104818633D01*
X213216666Y-104818633D02*
X213216666Y-104118633D01*
X213216666Y-104118633D02*
X213283333Y-104218633D01*
X213283333Y-104218633D02*
X213350000Y-104285300D01*
X213350000Y-104285300D02*
X213416666Y-104318633D01*
X236068632Y-98978974D02*
X236635299Y-98978974D01*
X236635299Y-98978974D02*
X236701965Y-99012308D01*
X236701965Y-99012308D02*
X236735299Y-99045641D01*
X236735299Y-99045641D02*
X236768632Y-99112308D01*
X236768632Y-99112308D02*
X236768632Y-99245641D01*
X236768632Y-99245641D02*
X236735299Y-99312308D01*
X236735299Y-99312308D02*
X236701965Y-99345641D01*
X236701965Y-99345641D02*
X236635299Y-99378974D01*
X236635299Y-99378974D02*
X236068632Y-99378974D01*
X236068632Y-100012307D02*
X236068632Y-99878974D01*
X236068632Y-99878974D02*
X236101965Y-99812307D01*
X236101965Y-99812307D02*
X236135299Y-99778974D01*
X236135299Y-99778974D02*
X236235299Y-99712307D01*
X236235299Y-99712307D02*
X236368632Y-99678974D01*
X236368632Y-99678974D02*
X236635299Y-99678974D01*
X236635299Y-99678974D02*
X236701965Y-99712307D01*
X236701965Y-99712307D02*
X236735299Y-99745641D01*
X236735299Y-99745641D02*
X236768632Y-99812307D01*
X236768632Y-99812307D02*
X236768632Y-99945641D01*
X236768632Y-99945641D02*
X236735299Y-100012307D01*
X236735299Y-100012307D02*
X236701965Y-100045641D01*
X236701965Y-100045641D02*
X236635299Y-100078974D01*
X236635299Y-100078974D02*
X236468632Y-100078974D01*
X236468632Y-100078974D02*
X236401965Y-100045641D01*
X236401965Y-100045641D02*
X236368632Y-100012307D01*
X236368632Y-100012307D02*
X236335299Y-99945641D01*
X236335299Y-99945641D02*
X236335299Y-99812307D01*
X236335299Y-99812307D02*
X236368632Y-99745641D01*
X236368632Y-99745641D02*
X236401965Y-99712307D01*
X236401965Y-99712307D02*
X236468632Y-99678974D01*
D10*
X241754819Y-98161905D02*
X242564342Y-98161905D01*
X242564342Y-98161905D02*
X242659580Y-98209524D01*
X242659580Y-98209524D02*
X242707200Y-98257143D01*
X242707200Y-98257143D02*
X242754819Y-98352381D01*
X242754819Y-98352381D02*
X242754819Y-98542857D01*
X242754819Y-98542857D02*
X242707200Y-98638095D01*
X242707200Y-98638095D02*
X242659580Y-98685714D01*
X242659580Y-98685714D02*
X242564342Y-98733333D01*
X242564342Y-98733333D02*
X241754819Y-98733333D01*
X242754819Y-99733333D02*
X242754819Y-99161905D01*
X242754819Y-99447619D02*
X241754819Y-99447619D01*
X241754819Y-99447619D02*
X241897676Y-99352381D01*
X241897676Y-99352381D02*
X241992914Y-99257143D01*
X241992914Y-99257143D02*
X242040533Y-99161905D01*
X241754819Y-100352381D02*
X241754819Y-100447619D01*
X241754819Y-100447619D02*
X241802438Y-100542857D01*
X241802438Y-100542857D02*
X241850057Y-100590476D01*
X241850057Y-100590476D02*
X241945295Y-100638095D01*
X241945295Y-100638095D02*
X242135771Y-100685714D01*
X242135771Y-100685714D02*
X242373866Y-100685714D01*
X242373866Y-100685714D02*
X242564342Y-100638095D01*
X242564342Y-100638095D02*
X242659580Y-100590476D01*
X242659580Y-100590476D02*
X242707200Y-100542857D01*
X242707200Y-100542857D02*
X242754819Y-100447619D01*
X242754819Y-100447619D02*
X242754819Y-100352381D01*
X242754819Y-100352381D02*
X242707200Y-100257143D01*
X242707200Y-100257143D02*
X242659580Y-100209524D01*
X242659580Y-100209524D02*
X242564342Y-100161905D01*
X242564342Y-100161905D02*
X242373866Y-100114286D01*
X242373866Y-100114286D02*
X242135771Y-100114286D01*
X242135771Y-100114286D02*
X241945295Y-100161905D01*
X241945295Y-100161905D02*
X241850057Y-100209524D01*
X241850057Y-100209524D02*
X241802438Y-100257143D01*
X241802438Y-100257143D02*
X241754819Y-100352381D01*
D11*
X241150000Y-84768633D02*
X241383333Y-84435300D01*
X241550000Y-84768633D02*
X241550000Y-84068633D01*
X241550000Y-84068633D02*
X241283333Y-84068633D01*
X241283333Y-84068633D02*
X241216667Y-84101966D01*
X241216667Y-84101966D02*
X241183333Y-84135300D01*
X241183333Y-84135300D02*
X241150000Y-84201966D01*
X241150000Y-84201966D02*
X241150000Y-84301966D01*
X241150000Y-84301966D02*
X241183333Y-84368633D01*
X241183333Y-84368633D02*
X241216667Y-84401966D01*
X241216667Y-84401966D02*
X241283333Y-84435300D01*
X241283333Y-84435300D02*
X241550000Y-84435300D01*
X240916667Y-84068633D02*
X240483333Y-84068633D01*
X240483333Y-84068633D02*
X240716667Y-84335300D01*
X240716667Y-84335300D02*
X240616667Y-84335300D01*
X240616667Y-84335300D02*
X240550000Y-84368633D01*
X240550000Y-84368633D02*
X240516667Y-84401966D01*
X240516667Y-84401966D02*
X240483333Y-84468633D01*
X240483333Y-84468633D02*
X240483333Y-84635300D01*
X240483333Y-84635300D02*
X240516667Y-84701966D01*
X240516667Y-84701966D02*
X240550000Y-84735300D01*
X240550000Y-84735300D02*
X240616667Y-84768633D01*
X240616667Y-84768633D02*
X240816667Y-84768633D01*
X240816667Y-84768633D02*
X240883333Y-84735300D01*
X240883333Y-84735300D02*
X240916667Y-84701966D01*
X239883333Y-84301966D02*
X239883333Y-84768633D01*
X240050000Y-84035300D02*
X240216666Y-84535300D01*
X240216666Y-84535300D02*
X239783333Y-84535300D01*
D12*
X202835000Y-118361252D02*
X202835000Y-117838748D01*
X201365000Y-118361252D02*
X201365000Y-117838748D01*
X207377500Y-87265000D02*
X207377500Y-86540000D01*
X207377500Y-89535000D02*
X207377500Y-90260000D01*
X207377500Y-90260000D02*
X208102500Y-90260000D01*
X211097500Y-86540000D02*
X210372500Y-86540000D01*
X211097500Y-87265000D02*
X211097500Y-86540000D01*
X211097500Y-89535000D02*
X211097500Y-90260000D01*
X211097500Y-90260000D02*
X210372500Y-90260000D01*
X215527500Y-82616922D02*
X215527500Y-83134078D01*
X216947500Y-82616922D02*
X216947500Y-83134078D01*
X209996078Y-82000000D02*
X209478922Y-82000000D01*
X209996078Y-83420000D02*
X209478922Y-83420000D01*
X220158578Y-86690000D02*
X219641422Y-86690000D01*
X220158578Y-88110000D02*
X219641422Y-88110000D01*
X213248422Y-82546500D02*
X213765578Y-82546500D01*
X213248422Y-83966500D02*
X213765578Y-83966500D01*
X211971500Y-88029422D02*
X211971500Y-88546578D01*
X213391500Y-88029422D02*
X213391500Y-88546578D01*
X213248422Y-84578500D02*
X213765578Y-84578500D01*
X213248422Y-85998500D02*
X213765578Y-85998500D01*
X220050279Y-85190000D02*
X219724721Y-85190000D01*
X220050279Y-86210000D02*
X219724721Y-86210000D01*
X203470000Y-88275000D02*
X203470000Y-89735000D01*
X203470000Y-88275000D02*
X204400000Y-88275000D01*
X206630000Y-88275000D02*
X205700000Y-88275000D01*
X206630000Y-88275000D02*
X206630000Y-90435000D01*
X207908578Y-90990000D02*
X207391422Y-90990000D01*
X207908578Y-92410000D02*
X207391422Y-92410000D01*
X215141422Y-88490000D02*
X215658578Y-88490000D01*
X215141422Y-89910000D02*
X215658578Y-89910000D01*
X215527500Y-86611578D02*
X215527500Y-86094422D01*
X216947500Y-86611578D02*
X216947500Y-86094422D01*
X220208578Y-83290000D02*
X219691422Y-83290000D01*
X220208578Y-84710000D02*
X219691422Y-84710000D01*
X201645000Y-88718578D02*
X201645000Y-88201422D01*
X203065000Y-88718578D02*
X203065000Y-88201422D01*
X205927500Y-82982936D02*
X205927500Y-84437064D01*
X207747500Y-82982936D02*
X207747500Y-84437064D01*
X209955578Y-83943500D02*
X209438422Y-83943500D01*
X209955578Y-85363500D02*
X209438422Y-85363500D01*
X213758578Y-95990000D02*
X213241422Y-95990000D01*
X213758578Y-97410000D02*
X213241422Y-97410000D01*
X210102064Y-95790000D02*
X208897936Y-95790000D01*
X210102064Y-97610000D02*
X208897936Y-97610000D01*
X208988748Y-93065000D02*
X209511252Y-93065000D01*
X208988748Y-94535000D02*
X209511252Y-94535000D01*
X211311252Y-91065000D02*
X210788748Y-91065000D01*
X211311252Y-92535000D02*
X210788748Y-92535000D01*
X232564999Y-92989372D02*
X232564999Y-92535244D01*
X234034999Y-92989372D02*
X234034999Y-92535244D01*
X227922936Y-103765000D02*
X228377064Y-103765000D01*
X227922936Y-105235000D02*
X228377064Y-105235000D01*
X237438748Y-105365000D02*
X237961252Y-105365000D01*
X237438748Y-106835000D02*
X237961252Y-106835000D01*
X205250000Y-103400000D02*
X205250000Y-99000000D01*
X206750000Y-99000000D02*
X206850000Y-99000000D01*
X206750000Y-103400000D02*
X206850000Y-103400000D01*
X208350000Y-99000000D02*
X208350000Y-103400000D01*
X215732500Y-99515000D02*
X215732500Y-101035000D01*
X215732500Y-101035000D02*
X215782500Y-101035000D01*
X216732500Y-99515000D02*
X215732500Y-99515000D01*
X216902500Y-101035000D02*
X217682500Y-101035000D01*
X218802500Y-101035000D02*
X218852500Y-101035000D01*
X218852500Y-99515000D02*
X217852500Y-99515000D01*
X218852500Y-101035000D02*
X218852500Y-99515000D01*
X217672500Y-101575000D02*
X217342500Y-101815000D01*
X217342500Y-101335000D01*
X217672500Y-101575000D01*
G36*
X217672500Y-101575000D02*
G01*
X217342500Y-101815000D01*
X217342500Y-101335000D01*
X217672500Y-101575000D01*
G37*
X228765000Y-97939564D02*
X228765000Y-97485436D01*
X230235000Y-97939564D02*
X230235000Y-97485436D01*
D11*
X230950000Y-114200000D02*
X230950000Y-115400000D01*
X230950000Y-114200000D02*
X232550000Y-114200000D01*
X230950000Y-115400000D02*
X232550000Y-115400000D01*
X232550000Y-114200000D02*
X232550000Y-115400000D01*
D12*
X241302500Y-104238748D02*
X241302500Y-104761252D01*
X242772500Y-104238748D02*
X242772500Y-104761252D01*
X244064999Y-93023560D02*
X244064999Y-92501056D01*
X245534999Y-93023560D02*
X245534999Y-92501056D01*
X244389564Y-85015000D02*
X243935436Y-85015000D01*
X244389564Y-86485000D02*
X243935436Y-86485000D01*
X213161252Y-93065000D02*
X212638748Y-93065000D01*
X213161252Y-94535000D02*
X212638748Y-94535000D01*
X244027063Y-89327308D02*
X243572935Y-89327308D01*
X244027063Y-90797308D02*
X243572935Y-90797308D01*
X199490000Y-121388748D02*
X199490000Y-122811252D01*
X201310000Y-121388748D02*
X201310000Y-122811252D01*
X201372936Y-110765000D02*
X201827064Y-110765000D01*
X201372936Y-112235000D02*
X201827064Y-112235000D01*
X217065436Y-102440000D02*
X217519564Y-102440000D01*
X217065436Y-103910000D02*
X217519564Y-103910000D01*
D11*
X201900000Y-84500000D02*
X201900000Y-85700000D01*
X201900000Y-84500000D02*
X203500000Y-84500000D01*
X201900000Y-85700000D02*
X203500000Y-85700000D01*
X203500000Y-84500000D02*
X203500000Y-85700000D01*
D12*
X245014564Y-104865000D02*
X244560436Y-104865000D01*
X245014564Y-106335000D02*
X244560436Y-106335000D01*
X208782500Y-101702500D02*
X208782500Y-103222500D01*
X208782500Y-103222500D02*
X209782500Y-103222500D01*
X208832500Y-101702500D02*
X208782500Y-101702500D01*
X210732500Y-101702500D02*
X209952500Y-101702500D01*
X210902500Y-103222500D02*
X211902500Y-103222500D01*
X211902500Y-101702500D02*
X211852500Y-101702500D01*
X211902500Y-103222500D02*
X211902500Y-101702500D01*
X210292500Y-101402500D02*
X209962500Y-101162500D01*
X210292500Y-100922500D01*
X210292500Y-101402500D01*
G36*
X210292500Y-101402500D02*
G01*
X209962500Y-101162500D01*
X210292500Y-100922500D01*
X210292500Y-101402500D01*
G37*
X245014564Y-102965000D02*
X244560436Y-102965000D01*
X245014564Y-104435000D02*
X244560436Y-104435000D01*
X201650000Y-103400000D02*
X201650000Y-99000000D01*
X203250000Y-99000000D02*
X203150000Y-99000000D01*
X203250000Y-103400000D02*
X203150000Y-103400000D01*
X204750000Y-99000000D02*
X204750000Y-103400000D01*
X227922936Y-101865000D02*
X228377064Y-101865000D01*
X227922936Y-103335000D02*
X228377064Y-103335000D01*
X219307500Y-102252064D02*
X219307500Y-101797936D01*
X220777500Y-102252064D02*
X220777500Y-101797936D01*
X201727064Y-114665000D02*
X201272936Y-114665000D01*
X201727064Y-116135000D02*
X201272936Y-116135000D01*
X203425000Y-129750000D02*
X203425000Y-127300000D01*
X203425000Y-129750000D02*
X205875000Y-129750000D01*
X203700000Y-108800000D02*
X203700000Y-129500000D01*
X203700000Y-129500000D02*
X219300000Y-129500000D01*
X219300000Y-108800000D02*
X203700000Y-108800000D01*
X219300000Y-129500000D02*
X219300000Y-108800000D01*
X203525000Y-122550000D02*
X203189000Y-122790000D01*
X203189000Y-122310000D01*
X203525000Y-122550000D01*
G36*
X203525000Y-122550000D02*
G01*
X203189000Y-122790000D01*
X203189000Y-122310000D01*
X203525000Y-122550000D01*
G37*
X210127936Y-98827500D02*
X210582064Y-98827500D01*
X210127936Y-100297500D02*
X210582064Y-100297500D01*
X242289999Y-92902888D02*
X242289999Y-92621728D01*
X243309999Y-92902888D02*
X243309999Y-92621728D01*
X230565000Y-93211252D02*
X230565000Y-92688748D01*
X232035000Y-93211252D02*
X232035000Y-92688748D01*
X236264999Y-92989372D02*
X236264999Y-92535244D01*
X237734999Y-92989372D02*
X237734999Y-92535244D01*
X218445000Y-104340000D02*
X218445000Y-105340000D01*
X218445000Y-106460000D02*
X218445000Y-107460000D01*
X218445000Y-107460000D02*
X219965000Y-107460000D01*
X219965000Y-104340000D02*
X218445000Y-104340000D01*
X219965000Y-104390000D02*
X219965000Y-104340000D01*
X219965000Y-106290000D02*
X219965000Y-105510000D01*
X219965000Y-107460000D02*
X219965000Y-107410000D01*
X220745000Y-105850000D02*
X220265000Y-105850000D01*
X220505000Y-105520000D01*
X220745000Y-105850000D01*
G36*
X220745000Y-105850000D02*
G01*
X220265000Y-105850000D01*
X220505000Y-105520000D01*
X220745000Y-105850000D01*
G37*
X240064999Y-93023560D02*
X240064999Y-92501056D01*
X241534999Y-93023560D02*
X241534999Y-92501056D01*
X238214999Y-92989372D02*
X238214999Y-92535244D01*
X239684999Y-92989372D02*
X239684999Y-92535244D01*
X215739564Y-104365000D02*
X215285436Y-104365000D01*
X215739564Y-105835000D02*
X215285436Y-105835000D01*
X201765000Y-121338748D02*
X201765000Y-121861252D01*
X203235000Y-121338748D02*
X203235000Y-121861252D01*
X204950000Y-105850000D02*
X204950000Y-107750000D01*
X204950000Y-107750000D02*
X206850000Y-107750000D01*
X206850000Y-105850000D02*
X204950000Y-105850000D01*
X206850000Y-107750000D02*
X206850000Y-105850000D01*
X212182500Y-99545000D02*
X212182500Y-101065000D01*
X212182500Y-101065000D02*
X212232500Y-101065000D01*
X213182500Y-99545000D02*
X212182500Y-99545000D01*
X213352500Y-101065000D02*
X214132500Y-101065000D01*
X215252500Y-101065000D02*
X215302500Y-101065000D01*
X215302500Y-99545000D02*
X214302500Y-99545000D01*
X215302500Y-101065000D02*
X215302500Y-99545000D01*
X214122500Y-101605000D02*
X213792500Y-101845000D01*
X213792500Y-101365000D01*
X214122500Y-101605000D01*
G36*
X214122500Y-101605000D02*
G01*
X213792500Y-101845000D01*
X213792500Y-101365000D01*
X214122500Y-101605000D01*
G37*
X201372936Y-112665000D02*
X201827064Y-112665000D01*
X201372936Y-114135000D02*
X201827064Y-114135000D01*
X232611252Y-105265000D02*
X232088748Y-105265000D01*
X232611252Y-106735000D02*
X232088748Y-106735000D01*
X233015000Y-115311252D02*
X233015000Y-114788748D01*
X234485000Y-115311252D02*
X234485000Y-114788748D01*
X203965000Y-85361252D02*
X203965000Y-84838748D01*
X205435000Y-85361252D02*
X205435000Y-84838748D01*
X234364999Y-92989372D02*
X234364999Y-92535244D01*
X235834999Y-92989372D02*
X235834999Y-92535244D01*
X230140000Y-103259420D02*
X230140000Y-103540580D01*
X231160000Y-103259420D02*
X231160000Y-103540580D01*
X213515436Y-102470000D02*
X213969564Y-102470000D01*
X213515436Y-103940000D02*
X213969564Y-103940000D01*
D10*
X231599999Y-97989639D02*
X231599999Y-101034977D01*
X241299999Y-97989639D02*
X241299999Y-101034977D01*
D13*
X232074999Y-95084209D02*
G75*
G02*
X231824997Y-95084209I-125001J0D01*
G01*
X231824997Y-95084209D02*
G75*
G02*
X232074999Y-95084209I125001J0D01*
G01*
D12*
X240889564Y-85015000D02*
X240435436Y-85015000D01*
X240889564Y-86485000D02*
X240435436Y-86485000D01*
%LPC*%
D14*
X202100000Y-119050000D03*
X202100000Y-117150000D03*
D15*
X219025000Y-90050000D03*
D16*
X221565000Y-90050000D03*
D17*
X254940000Y-76400000D03*
X254940000Y-79800000D03*
X264860000Y-76400000D03*
X264860000Y-79800000D03*
D18*
X222000000Y-115000000D03*
X213705000Y-107250000D03*
D19*
X225500000Y-77600000D03*
D18*
X216705000Y-107250000D03*
X210705000Y-107250000D03*
D19*
X264900000Y-85000000D03*
X238255000Y-77600000D03*
D18*
X229805000Y-77600000D03*
D19*
X219950000Y-94050000D03*
D18*
X202305000Y-108600000D03*
D19*
X259800000Y-85000000D03*
X219750000Y-77600000D03*
D20*
X208487500Y-86650000D03*
X208987500Y-86650000D03*
X209487500Y-86650000D03*
X209987500Y-86650000D03*
D21*
X210987500Y-87650000D03*
X210987500Y-88150000D03*
X210987500Y-88650000D03*
X210987500Y-89150000D03*
D20*
X209987500Y-90150000D03*
X209487500Y-90150000D03*
X208987500Y-90150000D03*
X208487500Y-90150000D03*
D21*
X207487500Y-89150000D03*
X207487500Y-88650000D03*
X207487500Y-88150000D03*
X207487500Y-87650000D03*
D22*
X209237500Y-88400000D03*
D23*
X216237500Y-81938000D03*
X216237500Y-83813000D03*
D24*
X210675000Y-82710000D03*
X208800000Y-82710000D03*
X220837500Y-87400000D03*
X218962500Y-87400000D03*
D25*
X212569500Y-83256500D03*
X214444500Y-83256500D03*
D23*
X212681500Y-87350500D03*
X212681500Y-89225500D03*
D25*
X212569500Y-85288500D03*
X214444500Y-85288500D03*
D26*
X220675000Y-85700000D03*
X219100000Y-85700000D03*
D27*
X206000000Y-90035000D03*
X204100000Y-90035000D03*
X205050000Y-88035000D03*
D24*
X208587500Y-91700000D03*
X206712500Y-91700000D03*
D25*
X214462500Y-89200000D03*
X216337500Y-89200000D03*
D28*
X216237500Y-87290500D03*
X216237500Y-85415500D03*
D24*
X220887500Y-84000000D03*
X219012500Y-84000000D03*
D28*
X202355000Y-89397500D03*
X202355000Y-87522500D03*
D29*
X206837500Y-82247500D03*
X206837500Y-85172500D03*
D24*
X210634500Y-84653500D03*
X208759500Y-84653500D03*
X214437500Y-96700000D03*
X212562500Y-96700000D03*
D30*
X210900000Y-96700000D03*
X208100000Y-96700000D03*
D31*
X208300000Y-93800000D03*
X210200000Y-93800000D03*
D32*
X212000000Y-91800000D03*
X210100000Y-91800000D03*
D33*
X233299999Y-93674808D03*
X233299999Y-91849808D03*
D34*
X227237500Y-104500000D03*
X229062500Y-104500000D03*
D31*
X236750000Y-106100000D03*
X238650000Y-106100000D03*
D35*
X207600000Y-103250000D03*
X207600000Y-99150000D03*
X206000000Y-103250000D03*
X206000000Y-99150000D03*
D36*
X218242500Y-101212500D03*
X216342500Y-101212500D03*
X217292500Y-99337500D03*
D33*
X229500000Y-98625000D03*
X229500000Y-96800000D03*
D37*
X231250000Y-114060000D03*
X231750000Y-114060000D03*
X232250000Y-114060000D03*
X232250000Y-115540000D03*
X231750000Y-115540000D03*
X231250000Y-115540000D03*
D38*
X242037500Y-103550000D03*
X242037500Y-105450000D03*
D14*
X244799999Y-93712308D03*
X244799999Y-91812308D03*
D39*
X245075000Y-85750000D03*
X243250000Y-85750000D03*
D32*
X213850000Y-93800000D03*
X211950000Y-93800000D03*
D39*
X244712499Y-90062308D03*
X242887499Y-90062308D03*
D40*
X200400000Y-120625000D03*
X200400000Y-123575000D03*
D34*
X200687500Y-111500000D03*
X202512500Y-111500000D03*
X216380000Y-103175000D03*
X218205000Y-103175000D03*
D37*
X202200000Y-84360000D03*
X202700000Y-84360000D03*
X203200000Y-84360000D03*
X203200000Y-85840000D03*
X202700000Y-85840000D03*
X202200000Y-85840000D03*
D39*
X245700000Y-105600000D03*
X243875000Y-105600000D03*
D41*
X209392500Y-101525000D03*
X211292500Y-101525000D03*
X210342500Y-103400000D03*
D39*
X245700000Y-103700000D03*
X243875000Y-103700000D03*
D35*
X202400000Y-99150000D03*
X202400000Y-103250000D03*
X204000000Y-99150000D03*
X204000000Y-103250000D03*
D34*
X227237500Y-102600000D03*
X229062500Y-102600000D03*
D33*
X220042500Y-102937500D03*
X220042500Y-101112500D03*
D39*
X202412500Y-115400000D03*
X200587500Y-115400000D03*
D42*
X204500000Y-122550000D03*
X204500000Y-121700000D03*
X204500000Y-120850000D03*
X204500000Y-120000000D03*
X204500000Y-119150000D03*
X204500000Y-118300000D03*
X204500000Y-117450000D03*
X204500000Y-116600000D03*
X204500000Y-115750000D03*
X204500000Y-114900000D03*
X204500000Y-114050000D03*
X204500000Y-113200000D03*
X204500000Y-112350000D03*
X204500000Y-111500000D03*
X204500000Y-110650000D03*
D43*
X205550000Y-109600000D03*
X206400000Y-109600000D03*
X207250000Y-109600000D03*
X208100000Y-109600000D03*
X208950000Y-109600000D03*
X209800000Y-109600000D03*
X210650000Y-109600000D03*
X211500000Y-109600000D03*
X212350000Y-109600000D03*
X213200000Y-109600000D03*
X214050000Y-109600000D03*
X214900000Y-109600000D03*
X215750000Y-109600000D03*
X216600000Y-109600000D03*
X217450000Y-109600000D03*
D42*
X218500000Y-110650000D03*
X218500000Y-111500000D03*
X218500000Y-112350000D03*
X218500000Y-113200000D03*
X218500000Y-114050000D03*
X218500000Y-114900000D03*
X218500000Y-115750000D03*
X218500000Y-116600000D03*
X218500000Y-117450000D03*
X218500000Y-118300000D03*
X218500000Y-119150000D03*
X218500000Y-120000000D03*
X218500000Y-120850000D03*
X218500000Y-121700000D03*
X218500000Y-122550000D03*
D43*
X217450000Y-123600000D03*
X216600000Y-123600000D03*
X215750000Y-123600000D03*
X214900000Y-123600000D03*
X214050000Y-123600000D03*
X213200000Y-123600000D03*
X212350000Y-123600000D03*
X211500000Y-123600000D03*
X210650000Y-123600000D03*
X209800000Y-123600000D03*
X208950000Y-123600000D03*
X208100000Y-123600000D03*
X207250000Y-123600000D03*
X206400000Y-123600000D03*
X205550000Y-123600000D03*
D44*
X209850000Y-114950000D03*
X209850000Y-116600000D03*
D45*
X209850000Y-118250000D03*
D44*
X211500000Y-114950000D03*
X211500000Y-116600000D03*
X211500000Y-118250000D03*
X213150000Y-114950000D03*
X213150000Y-116600000D03*
X213150000Y-118250000D03*
D46*
X204500000Y-123600000D03*
X204500000Y-109600000D03*
X218500000Y-109600000D03*
X218500000Y-123600000D03*
D34*
X209442500Y-99562500D03*
X211267500Y-99562500D03*
D47*
X242799999Y-93537308D03*
X242799999Y-91987308D03*
D14*
X231300000Y-93900000D03*
X231300000Y-92000000D03*
D33*
X236999999Y-93674808D03*
X236999999Y-91849808D03*
D48*
X220142500Y-104950000D03*
X220142500Y-106850000D03*
X218267500Y-105900000D03*
D14*
X240799999Y-93712308D03*
X240799999Y-91812308D03*
D33*
X238949999Y-93674808D03*
X238949999Y-91849808D03*
D39*
X216425000Y-105100000D03*
X214600000Y-105100000D03*
D38*
X202500000Y-120650000D03*
X202500000Y-122550000D03*
D49*
X205900000Y-106800000D03*
D36*
X214692500Y-101242500D03*
X212792500Y-101242500D03*
X213742500Y-99367500D03*
D34*
X200687500Y-113400000D03*
X202512500Y-113400000D03*
D32*
X233300000Y-106000000D03*
X231400000Y-106000000D03*
D14*
X233750000Y-116000000D03*
X233750000Y-114100000D03*
X204700000Y-86050000D03*
X204700000Y-84150000D03*
D33*
X235099999Y-93674808D03*
X235099999Y-91849808D03*
D50*
X230650000Y-102625000D03*
X230650000Y-104175000D03*
D34*
X212830000Y-103205000D03*
X214655000Y-103205000D03*
D51*
X231949998Y-96636924D03*
X232449999Y-96636924D03*
X232949998Y-96636924D03*
X233450000Y-96636924D03*
X233949999Y-96636924D03*
X234449998Y-96636924D03*
X234949999Y-96636924D03*
X235449998Y-96636924D03*
X235950000Y-96636924D03*
X236449999Y-96636924D03*
X236949998Y-96636924D03*
X237450000Y-96636924D03*
X237949999Y-96636924D03*
X238450000Y-96636924D03*
X238949999Y-96636924D03*
X239449998Y-96636924D03*
X239950000Y-96636924D03*
X240449999Y-96636924D03*
X240950000Y-96636924D03*
X240950000Y-102387692D03*
X240449999Y-102387692D03*
X239950000Y-102387692D03*
X239449998Y-102387692D03*
X238949999Y-102387692D03*
X238450000Y-102387692D03*
X237949999Y-102387692D03*
X237450000Y-102387692D03*
X236949998Y-102387692D03*
X236449999Y-102387692D03*
X235950000Y-102387692D03*
X235449998Y-102387692D03*
X234949999Y-102387692D03*
X234449998Y-102387692D03*
X233949999Y-102387692D03*
X233450000Y-102387692D03*
X232949998Y-102387692D03*
X232449999Y-102387692D03*
X231949998Y-102387692D03*
D52*
X236449999Y-99512308D03*
D39*
X241575000Y-85750000D03*
X239750000Y-85750000D03*
G36*
X249598039Y-108519685D02*
G01*
X249643794Y-108572489D01*
X249655000Y-108624000D01*
X249655000Y-129376000D01*
X249635315Y-129443039D01*
X249582511Y-129488794D01*
X249531000Y-129500000D01*
X223029000Y-129500000D01*
X222961961Y-129480315D01*
X222916206Y-129427511D01*
X222905000Y-129376000D01*
X222905000Y-108624000D01*
X222924685Y-108556961D01*
X222977489Y-108511206D01*
X223029000Y-108500000D01*
X249531000Y-108500000D01*
X249598039Y-108519685D01*
G37*
%LPD*%
M02*
