G04 #@! TF.GenerationSoftware,KiCad,Pcbnew,9.0.5*
G04 #@! TF.CreationDate,2026-01-02T14:21:27+01:00*
G04 #@! TF.ProjectId,peak-ignitor-box,7065616b-2d69-4676-9e69-746f722d626f,rev?*
G04 #@! TF.SameCoordinates,Original*
G04 #@! TF.FileFunction,Paste,Top*
G04 #@! TF.FilePolarity,Positive*
%FSLAX46Y46*%
G04 Gerber Fmt 4.6, Leading zero omitted, Abs format (unit mm)*
G04 Created by KiCad (PCBNEW 9.0.5) date 2026-01-02 14:21:27*
%MOMM*%
%LPD*%
G01*
G04 APERTURE LIST*
G04 Aperture macros list*
%AMRoundRect*
0 Rectangle with rounded corners*
0 $1 Rounding radius*
0 $2 $3 $4 $5 $6 $7 $8 $9 X,Y pos of 4 corners*
0 Add a 4 corners polygon primitive as box body*
4,1,4,$2,$3,$4,$5,$6,$7,$8,$9,$2,$3,0*
0 Add four circle primitives for the rounded corners*
1,1,$1+$1,$2,$3*
1,1,$1+$1,$4,$5*
1,1,$1+$1,$6,$7*
1,1,$1+$1,$8,$9*
0 Add four rect primitives between the rounded corners*
20,1,$1+$1,$2,$3,$4,$5,0*
20,1,$1+$1,$4,$5,$6,$7,0*
20,1,$1+$1,$6,$7,$8,$9,0*
20,1,$1+$1,$8,$9,$2,$3,0*%
G04 Aperture macros list end*
%ADD10R,2.000000X1.840000*%
%ADD11RoundRect,0.200000X-0.300000X-0.500000X0.300000X-0.500000X0.300000X0.500000X-0.300000X0.500000X0*%
%ADD12RoundRect,0.200000X0.340000X0.860000X-0.340000X0.860000X-0.340000X-0.860000X0.340000X-0.860000X0*%
%ADD13R,2.000000X2.640000*%
%ADD14R,2.540000X2.640000*%
%ADD15RoundRect,0.200000X-0.210000X-0.360000X0.210000X-0.360000X0.210000X0.360000X-0.210000X0.360000X0*%
%ADD16RoundRect,0.200000X-0.800000X1.120000X-0.800000X-1.120000X0.800000X-1.120000X0.800000X1.120000X0*%
%ADD17RoundRect,0.200000X-0.260000X-0.880000X0.260000X-0.880000X0.260000X0.880000X-0.260000X0.880000X0*%
%ADD18RoundRect,0.200000X-0.360000X-0.640000X0.360000X-0.640000X0.360000X0.640000X-0.360000X0.640000X0*%
%ADD19R,0.570000X0.738000*%
%ADD20RoundRect,0.125000X-0.190000X-0.125000X0.190000X-0.125000X0.190000X0.125000X-0.190000X0.125000X0*%
%ADD21RoundRect,0.100000X-0.152000X-0.100000X0.152000X-0.100000X0.152000X0.100000X-0.152000X0.100000X0*%
%ADD22RoundRect,0.200000X0.360000X-0.210000X0.360000X0.210000X-0.360000X0.210000X-0.360000X-0.210000X0*%
%ADD23RoundRect,0.200000X0.260000X0.880000X-0.260000X0.880000X-0.260000X-0.880000X0.260000X-0.880000X0*%
%ADD24RoundRect,0.200000X-0.380000X0.200000X-0.380000X-0.200000X0.380000X-0.200000X0.380000X0.200000X0*%
%ADD25RoundRect,0.200000X-0.260000X-0.520000X0.260000X-0.520000X0.260000X0.520000X-0.260000X0.520000X0*%
%ADD26RoundRect,0.200000X1.560000X0.800000X-1.560000X0.800000X-1.560000X-0.800000X1.560000X-0.800000X0*%
%ADD27RoundRect,0.200000X-0.200000X-0.380000X0.200000X-0.380000X0.200000X0.380000X-0.200000X0.380000X0*%
%ADD28RoundRect,0.200000X0.260000X0.520000X-0.260000X0.520000X-0.260000X-0.520000X0.260000X-0.520000X0*%
%ADD29R,3.200000X1.200000*%
%ADD30RoundRect,0.200000X-0.290000X-0.860000X0.290000X-0.860000X0.290000X0.860000X-0.290000X0.860000X0*%
%ADD31RoundRect,0.125000X0.190000X0.125000X-0.190000X0.125000X-0.190000X-0.125000X0.190000X-0.125000X0*%
%ADD32RoundRect,0.100000X0.152000X0.100000X-0.152000X0.100000X-0.152000X-0.100000X0.152000X-0.100000X0*%
%ADD33RoundRect,0.200000X-1.560000X-0.800000X1.560000X-0.800000X1.560000X0.800000X-1.560000X0.800000X0*%
%ADD34RoundRect,0.200000X-1.140000X0.290000X-1.140000X-0.290000X1.140000X-0.290000X1.140000X0.290000X0*%
%ADD35RoundRect,0.200000X0.380000X-0.200000X0.380000X0.200000X-0.380000X0.200000X-0.380000X-0.200000X0*%
%ADD36R,3.396000X3.048000*%
%ADD37RoundRect,0.200000X-0.880000X0.260000X-0.880000X-0.260000X0.880000X-0.260000X0.880000X0.260000X0*%
%ADD38RoundRect,0.200000X0.210000X0.360000X-0.210000X0.360000X-0.210000X-0.360000X0.210000X-0.360000X0*%
%ADD39R,2.208000X0.520000*%
%ADD40RoundRect,0.200000X-0.360000X0.210000X-0.360000X-0.210000X0.360000X-0.210000X0.360000X0.210000X0*%
%ADD41RoundRect,0.199999X5.080001X-1.072001X5.080001X1.072001X-5.080001X1.072001X-5.080001X-1.072001X0*%
%ADD42RoundRect,0.120000X0.120000X-0.410000X0.120000X0.410000X-0.120000X0.410000X-0.120000X-0.410000X0*%
G04 APERTURE END LIST*
D10*
X118375000Y-97375000D03*
X122675000Y-97375000D03*
D11*
X105225000Y-90500000D03*
X108025000Y-90500000D03*
D12*
X124100000Y-75350000D03*
X119600000Y-75350000D03*
D11*
X105250000Y-88250000D03*
X108050000Y-88250000D03*
D13*
X111750000Y-86600000D03*
X118550000Y-86600000D03*
D14*
X105235000Y-76550000D03*
X116665000Y-76550000D03*
D11*
X121100000Y-78050000D03*
X123900000Y-78050000D03*
X121150000Y-80300000D03*
X123950000Y-80300000D03*
D15*
X108292500Y-102400000D03*
X110117500Y-102400000D03*
D16*
X168478063Y-84589011D03*
X161678063Y-84589011D03*
D17*
X131600000Y-97800000D03*
X134550000Y-97800000D03*
D18*
X104250000Y-93375000D03*
X108650000Y-93375000D03*
D19*
X104060000Y-84480000D03*
X104060000Y-85700000D03*
X105010000Y-84480000D03*
X105010000Y-85700000D03*
D20*
X105590000Y-84117500D03*
X105590000Y-84760000D03*
X105590000Y-85420000D03*
X105590000Y-86062500D03*
D21*
X102710000Y-84120000D03*
X102710000Y-84760000D03*
X102710000Y-85420000D03*
X102710000Y-86060000D03*
D22*
X115825000Y-97837500D03*
X115825000Y-96012500D03*
D23*
X146275000Y-97800000D03*
X143325000Y-97800000D03*
D24*
X114880000Y-105300000D03*
X114880000Y-107200000D03*
D25*
X108230000Y-100200000D03*
X111180000Y-100200000D03*
D26*
X149510000Y-79670000D03*
X141110000Y-79670000D03*
D15*
X112992500Y-103600000D03*
X114817500Y-103600000D03*
D27*
X123100000Y-116400000D03*
X125000000Y-116400000D03*
D28*
X113425000Y-93575000D03*
X110475000Y-93575000D03*
D15*
X103475000Y-113900000D03*
X105300000Y-113900000D03*
D29*
X104650000Y-95875000D03*
X104650000Y-99475000D03*
D30*
X152987500Y-79650000D03*
X157612500Y-79650000D03*
D19*
X135450000Y-105180000D03*
X135450000Y-103960000D03*
X134500000Y-105180000D03*
X134500000Y-103960000D03*
D31*
X133920000Y-105542500D03*
X133920000Y-104900000D03*
X133920000Y-104240000D03*
X133920000Y-103597500D03*
D32*
X136800000Y-105540000D03*
X136800000Y-104900000D03*
X136800000Y-104240000D03*
X136800000Y-103600000D03*
D33*
X127800000Y-79700000D03*
X136200000Y-79700000D03*
D34*
X132607500Y-110487500D03*
X132607500Y-116412500D03*
D35*
X108550000Y-97825000D03*
X108550000Y-95925000D03*
D15*
X121792500Y-100800000D03*
X123617500Y-100800000D03*
D36*
X116912500Y-92550000D03*
X123287500Y-92550000D03*
D22*
X104150000Y-112112500D03*
X104150000Y-110287500D03*
D19*
X128825000Y-105252500D03*
X128825000Y-104032500D03*
X127875000Y-105252500D03*
X127875000Y-104032500D03*
D31*
X127295000Y-105615000D03*
X127295000Y-104972500D03*
X127295000Y-104312500D03*
X127295000Y-103670000D03*
D32*
X130175000Y-105612500D03*
X130175000Y-104972500D03*
X130175000Y-104312500D03*
X130175000Y-103672500D03*
D23*
X128625000Y-101000000D03*
X125675000Y-101000000D03*
D17*
X131600000Y-101000000D03*
X134550000Y-101000000D03*
D34*
X128307500Y-110487500D03*
X128307500Y-116412500D03*
D19*
X149020000Y-104130000D03*
X149020000Y-105350000D03*
X149970000Y-104130000D03*
X149970000Y-105350000D03*
D20*
X150550000Y-103767500D03*
X150550000Y-104410000D03*
X150550000Y-105070000D03*
X150550000Y-105712500D03*
D21*
X147670000Y-103770000D03*
X147670000Y-104410000D03*
X147670000Y-105070000D03*
X147670000Y-105710000D03*
D37*
X158200000Y-82425000D03*
X158200000Y-85375000D03*
D19*
X108100000Y-84590000D03*
X108100000Y-85810000D03*
X109050000Y-84590000D03*
X109050000Y-85810000D03*
D20*
X109630000Y-84227500D03*
X109630000Y-84870000D03*
X109630000Y-85530000D03*
X109630000Y-86172500D03*
D21*
X106750000Y-84230000D03*
X106750000Y-84870000D03*
X106750000Y-85530000D03*
X106750000Y-86170000D03*
D26*
X149492500Y-90680000D03*
X141092500Y-90680000D03*
D38*
X124962500Y-114150000D03*
X123137500Y-114150000D03*
D39*
X108180000Y-112130000D03*
X112220000Y-112130000D03*
X108180000Y-113400000D03*
X112220000Y-113400000D03*
X108180000Y-114670000D03*
X112220000Y-114670000D03*
X117150763Y-107160000D03*
X121190763Y-107160000D03*
X117150763Y-108430000D03*
X121190763Y-108430000D03*
X117150763Y-109700000D03*
X121190763Y-109700000D03*
X117150763Y-110970000D03*
X121190763Y-110970000D03*
X117150763Y-112240000D03*
X121190763Y-112240000D03*
D17*
X151075000Y-97800000D03*
X154025000Y-97800000D03*
D19*
X142020000Y-103992500D03*
X142020000Y-105212500D03*
X142970000Y-103992500D03*
X142970000Y-105212500D03*
D20*
X143550000Y-103630000D03*
X143550000Y-104272500D03*
X143550000Y-104932500D03*
X143550000Y-105575000D03*
D21*
X140670000Y-103632500D03*
X140670000Y-104272500D03*
X140670000Y-104932500D03*
X140670000Y-105572500D03*
D23*
X128625000Y-97800000D03*
X125675000Y-97800000D03*
D25*
X138037500Y-99200000D03*
X140987500Y-99200000D03*
D40*
X112880000Y-105425000D03*
X112880000Y-107250000D03*
D41*
X143057500Y-120100000D03*
X143057500Y-109500000D03*
D40*
X113950000Y-95962500D03*
X113950000Y-97787500D03*
D23*
X146250000Y-101000000D03*
X143300000Y-101000000D03*
D38*
X110912500Y-105000000D03*
X109087500Y-105000000D03*
D33*
X127800000Y-90700000D03*
X136200000Y-90700000D03*
D42*
X110300000Y-98112500D03*
X111250000Y-98112500D03*
X112200000Y-98112500D03*
X112200000Y-95837500D03*
X111250000Y-95837500D03*
X110300000Y-95837500D03*
D17*
X151100000Y-101000000D03*
X154050000Y-101000000D03*
M02*
