G04 #@! TF.GenerationSoftware,KiCad,Pcbnew,9.0.5*
G04 #@! TF.CreationDate,2025-12-26T12:12:57+01:00*
G04 #@! TF.ProjectId,peak-ignitor-box,7065616b-2d69-4676-9e69-746f722d626f,rev?*
G04 #@! TF.SameCoordinates,Original*
G04 #@! TF.FileFunction,Copper,L2,Inr*
G04 #@! TF.FilePolarity,Positive*
%FSLAX46Y46*%
G04 Gerber Fmt 4.6, Leading zero omitted, Abs format (unit mm)*
G04 Created by KiCad (PCBNEW 9.0.5) date 2025-12-26 12:12:57*
%MOMM*%
%LPD*%
G01*
G04 APERTURE LIST*
G04 #@! TA.AperFunction,ComponentPad*
%ADD10R,1.700000X1.700000*%
G04 #@! TD*
G04 #@! TA.AperFunction,ComponentPad*
%ADD11C,1.700000*%
G04 #@! TD*
G04 #@! TA.AperFunction,ComponentPad*
%ADD12C,2.780000*%
G04 #@! TD*
G04 #@! TA.AperFunction,ComponentPad*
%ADD13C,2.000000*%
G04 #@! TD*
G04 #@! TA.AperFunction,ComponentPad*
%ADD14C,3.400000*%
G04 #@! TD*
G04 #@! TA.AperFunction,ViaPad*
%ADD15C,0.600000*%
G04 #@! TD*
G04 #@! TA.AperFunction,Conductor*
%ADD16C,0.250000*%
G04 #@! TD*
G04 #@! TA.AperFunction,Conductor*
%ADD17C,0.500000*%
G04 #@! TD*
G04 APERTURE END LIST*
D10*
X219025000Y-90050000D03*
D11*
X221565000Y-90050000D03*
D12*
X254940000Y-76400000D03*
X254940000Y-79800000D03*
X264860000Y-76400000D03*
X264860000Y-79800000D03*
D13*
X222000000Y-115000000D03*
X213705000Y-107250000D03*
D14*
X225500000Y-77600000D03*
D13*
X216705000Y-107250000D03*
X210705000Y-107250000D03*
D14*
X264900000Y-85000000D03*
X238255000Y-77600000D03*
D13*
X229805000Y-77600000D03*
D14*
X219950000Y-94050000D03*
D13*
X202305000Y-108600000D03*
D14*
X259800000Y-85000000D03*
X219750000Y-77600000D03*
D15*
X200850000Y-118850000D03*
X211882000Y-88150000D03*
X208987500Y-85800000D03*
X223550000Y-87600000D03*
X220350000Y-81500000D03*
X224550000Y-107100000D03*
X226250000Y-111750000D03*
X227750000Y-107000000D03*
X226550000Y-95100000D03*
X227750000Y-106000000D03*
X226250000Y-110750000D03*
X225550000Y-84600000D03*
X223500000Y-95100000D03*
X224500000Y-98600000D03*
X226550000Y-98600000D03*
X226550000Y-84600000D03*
X224550000Y-108100000D03*
X226750000Y-107000000D03*
X226750000Y-106000000D03*
X225550000Y-87600000D03*
X228431153Y-94131153D03*
X224500000Y-95100000D03*
X224750000Y-110750000D03*
X225550000Y-95100000D03*
X224550000Y-84600000D03*
X224750000Y-111750000D03*
X225500000Y-109750000D03*
X225550000Y-98600000D03*
X223550000Y-84600000D03*
X226750000Y-108000000D03*
X224550000Y-87600000D03*
X221100000Y-85200000D03*
X226250000Y-109750000D03*
X227750000Y-108000000D03*
X225500000Y-111750000D03*
X224750000Y-109750000D03*
X225500000Y-110750000D03*
X224550000Y-106100000D03*
X226550000Y-87600000D03*
X223500000Y-98600000D03*
X210955000Y-111000000D03*
X205065251Y-90165251D03*
X205075000Y-92330000D03*
X206405000Y-95000000D03*
X206405000Y-96000000D03*
X205775000Y-91630000D03*
X208405000Y-95000000D03*
X209405000Y-95000000D03*
X206405000Y-97000000D03*
X206750000Y-83100000D03*
X207405000Y-95000000D03*
X205075000Y-90930000D03*
X205775000Y-92330000D03*
X205775000Y-90930000D03*
X205075000Y-91630000D03*
X209805000Y-102800000D03*
X210537171Y-104988487D03*
X205955000Y-105150000D03*
X201600000Y-120900000D03*
X204405000Y-105200000D03*
X214300000Y-112700000D03*
X204405000Y-106000000D03*
X220668599Y-123678648D03*
X203500000Y-120850000D03*
X208000000Y-110550002D03*
X205155000Y-105200000D03*
X207700000Y-118050000D03*
X202516853Y-100591413D03*
X200687500Y-112600000D03*
X210552800Y-101400000D03*
X222000000Y-119250000D03*
X204405000Y-106800000D03*
X210650000Y-95233013D03*
X218600000Y-82650000D03*
X211500000Y-95233013D03*
X219550000Y-82650000D03*
X222500000Y-108100000D03*
X241550000Y-99600000D03*
X232605000Y-84550000D03*
X238550000Y-100600000D03*
X234750000Y-108750000D03*
X236716824Y-100525856D03*
X208437500Y-88410000D03*
X202500000Y-95350000D03*
X237750000Y-91849808D03*
X234500000Y-122100000D03*
X252500000Y-104100000D03*
X237550000Y-98600000D03*
X203000000Y-97100000D03*
X247505000Y-122100000D03*
X238505000Y-120100000D03*
X208437500Y-87610000D03*
X236505000Y-121100000D03*
X210675000Y-83700000D03*
X240550000Y-99600000D03*
X213025000Y-101325000D03*
X252500000Y-107100000D03*
X250600000Y-107100000D03*
X208035000Y-97870000D03*
X235500000Y-121100000D03*
X237000000Y-112500000D03*
X237750000Y-108750000D03*
X240799999Y-91812308D03*
X244505000Y-121100000D03*
X234605000Y-84550000D03*
X250600000Y-106100000D03*
X238500000Y-108000000D03*
X231605000Y-87050000D03*
X246505000Y-122100000D03*
X235500000Y-119100000D03*
X232550000Y-99512308D03*
X240505000Y-122100000D03*
X210750000Y-115850000D03*
X251650000Y-105100000D03*
X245505000Y-122100000D03*
X203000000Y-96100000D03*
X250600000Y-103100000D03*
X235500000Y-110250000D03*
X251650000Y-106100000D03*
X237105000Y-87050000D03*
X238505000Y-121100000D03*
X243505000Y-121100000D03*
X235500000Y-122100000D03*
X239505000Y-119100000D03*
X232200000Y-92000000D03*
X210750000Y-114100000D03*
X217620763Y-120100000D03*
X239505000Y-120100000D03*
X217620763Y-120850000D03*
X244505000Y-122100000D03*
X237550000Y-100600000D03*
X231750000Y-108750000D03*
X237505000Y-122100000D03*
X232500000Y-108000000D03*
X239550000Y-100600000D03*
X241505000Y-120100000D03*
X205350000Y-110450000D03*
X204500000Y-124350000D03*
X210037500Y-87610000D03*
X235500000Y-108750000D03*
X240550000Y-100419276D03*
X213770763Y-118900000D03*
X244505000Y-120100000D03*
X204000000Y-99900000D03*
X208405000Y-103100000D03*
X219750000Y-123750000D03*
X233550000Y-98600000D03*
X235350000Y-99600000D03*
X233250000Y-108000000D03*
X242505000Y-122100000D03*
X239105000Y-84550000D03*
X236250000Y-108000000D03*
X240550000Y-98600000D03*
X237000000Y-110250000D03*
X209138593Y-114766002D03*
X236250000Y-112500000D03*
X251650000Y-103100000D03*
X238105000Y-84550000D03*
X237505000Y-120100000D03*
X212250000Y-117350000D03*
X232550000Y-98600000D03*
X246505000Y-119100000D03*
X235950000Y-91849808D03*
X235500000Y-120100000D03*
X235325000Y-100600000D03*
X241550000Y-100419276D03*
X250600000Y-108100000D03*
X233605000Y-84550000D03*
X224000000Y-120100000D03*
X245505000Y-119100000D03*
X239550000Y-99600000D03*
X238500000Y-108750000D03*
X250600000Y-105100000D03*
X250600000Y-104100000D03*
X243505000Y-120100000D03*
X234750000Y-112500000D03*
X244505000Y-119100000D03*
X243505000Y-119100000D03*
X234750000Y-111750000D03*
X213250000Y-124350000D03*
X237750000Y-108000000D03*
X218500000Y-124350000D03*
X239750000Y-91812308D03*
X236505000Y-122100000D03*
X242505000Y-121100000D03*
X238505000Y-122100000D03*
X213770763Y-117600000D03*
X230550000Y-99512308D03*
X237505000Y-119100000D03*
X239505000Y-121100000D03*
X203600000Y-122512500D03*
X215705000Y-101450000D03*
X232550000Y-100600000D03*
X246505000Y-120100000D03*
X236250000Y-109500000D03*
X239550000Y-98600000D03*
X234500000Y-121100000D03*
X208437500Y-89210000D03*
X208000000Y-124350000D03*
X237505000Y-121100000D03*
X222500000Y-106100000D03*
X252500000Y-108100000D03*
X252500000Y-106100000D03*
X230550000Y-100600000D03*
X240105000Y-84550000D03*
X236250000Y-111750000D03*
X207200000Y-98500000D03*
X222250000Y-121500000D03*
X231000000Y-120100000D03*
X232500000Y-108750000D03*
X205700000Y-83900000D03*
X241505000Y-121100000D03*
X251650000Y-104100000D03*
X251650000Y-108100000D03*
X240505000Y-119100000D03*
X236505000Y-120100000D03*
X206500000Y-124350000D03*
X242505000Y-120100000D03*
X219105000Y-104850000D03*
X241550000Y-98600000D03*
X251650000Y-107100000D03*
X238550000Y-99600000D03*
X241505000Y-122100000D03*
X240505000Y-121100000D03*
X202500000Y-97600000D03*
X236250000Y-111000000D03*
X234550000Y-99600000D03*
X245505000Y-121100000D03*
X231550000Y-98600000D03*
X231550000Y-99512308D03*
X233605000Y-87050000D03*
X212250000Y-114100000D03*
X247505000Y-119100000D03*
X221250000Y-103600000D03*
X239505000Y-122100000D03*
X235500000Y-111000000D03*
X234605000Y-87050000D03*
X235500000Y-108000000D03*
X246505000Y-121100000D03*
X238550000Y-98600000D03*
X209237500Y-88410000D03*
X236775000Y-98600000D03*
X232605000Y-87050000D03*
X237000000Y-111000000D03*
X234550000Y-100600000D03*
X239105000Y-87050000D03*
X236250000Y-108750000D03*
X240505000Y-120100000D03*
X233250000Y-108750000D03*
X211500000Y-124350000D03*
X209000000Y-115850000D03*
X237000000Y-111750000D03*
X230550000Y-98600000D03*
X213770763Y-116300000D03*
X235500000Y-111750000D03*
X207505000Y-103100000D03*
X241505000Y-119100000D03*
X237105000Y-84550000D03*
X252500000Y-103100000D03*
X210750000Y-119100000D03*
X218800000Y-88400000D03*
X213770763Y-115100000D03*
X210037500Y-88410000D03*
X233550000Y-99512308D03*
X209000000Y-119100000D03*
X203000000Y-94850000D03*
X245505000Y-120100000D03*
X212250000Y-115850000D03*
X235500000Y-109500000D03*
X234500000Y-120100000D03*
X234750000Y-110250000D03*
X231550000Y-100600000D03*
X203406482Y-117138923D03*
X234750000Y-109500000D03*
X210750000Y-117350000D03*
X240105000Y-87050000D03*
X236750000Y-99600000D03*
X209750000Y-124350000D03*
X215755000Y-89450000D03*
X235500000Y-112500000D03*
X210037500Y-89210000D03*
X236250000Y-110250000D03*
X215755000Y-88650000D03*
X238505000Y-119100000D03*
X234750000Y-108000000D03*
X240000000Y-108000000D03*
X221250000Y-102600000D03*
X231605000Y-84550000D03*
X240000000Y-108750000D03*
X236505000Y-119100000D03*
X243505000Y-122100000D03*
X252500000Y-105100000D03*
X209000000Y-117350000D03*
X234550000Y-98600000D03*
X235350000Y-98600000D03*
X233550000Y-100600000D03*
X234750000Y-111000000D03*
X234500000Y-119100000D03*
X216750000Y-124350000D03*
X201756250Y-123256250D03*
X242505000Y-119100000D03*
X231750000Y-108000000D03*
X209237500Y-87610000D03*
X234200000Y-91849808D03*
X229550000Y-100600000D03*
X212250000Y-119100000D03*
X214750000Y-124350000D03*
X247505000Y-121100000D03*
X222500000Y-107100000D03*
X209237500Y-89210000D03*
X237550000Y-99600000D03*
X217370763Y-110500000D03*
X247505000Y-120100000D03*
X231000000Y-119100000D03*
X238105000Y-87050000D03*
X199139700Y-109200000D03*
X203707021Y-110220478D03*
X203600000Y-116400000D03*
X199900000Y-116700000D03*
X235960000Y-95080000D03*
X235623793Y-103835633D03*
X238500000Y-117600000D03*
X241500000Y-117600000D03*
X245500000Y-117600000D03*
X242000000Y-110750000D03*
X240445000Y-109750000D03*
X246500000Y-113600000D03*
X243500000Y-117600000D03*
X244000000Y-111500000D03*
X242000000Y-112250000D03*
X238500000Y-113600000D03*
X244500000Y-117600000D03*
X236500000Y-113600000D03*
X244000000Y-110000000D03*
X235500000Y-113600000D03*
X239500000Y-113600000D03*
X243000000Y-110000000D03*
X240500000Y-117600000D03*
X242500000Y-117600000D03*
X239695000Y-110750000D03*
X238945000Y-111750000D03*
X239695000Y-109750000D03*
X243000000Y-112250000D03*
X244000000Y-112250000D03*
X239695000Y-111750000D03*
X243000000Y-111500000D03*
X243000000Y-110750000D03*
X236500000Y-117600000D03*
X242000000Y-110000000D03*
X244500000Y-113600000D03*
X242500000Y-113600000D03*
X244000000Y-110750000D03*
X241500000Y-113600000D03*
X238945000Y-109750000D03*
X240445000Y-111750000D03*
X245500000Y-113600000D03*
X237500000Y-113600000D03*
X238945000Y-110750000D03*
X237500000Y-117600000D03*
X235500000Y-117600000D03*
X242000000Y-111500000D03*
X240445000Y-110750000D03*
X240500000Y-113600000D03*
X239500000Y-117600000D03*
X246500000Y-117600000D03*
X243500000Y-113600000D03*
X217600000Y-81550000D03*
X244750000Y-112250000D03*
X237204516Y-104340889D03*
X236500000Y-104750000D03*
X237750000Y-112250000D03*
X217200000Y-86500000D03*
X206150000Y-88636204D03*
X201905000Y-91160000D03*
X202605000Y-91860000D03*
X202605000Y-90460000D03*
X201905000Y-90460000D03*
X201905000Y-91860000D03*
X202605000Y-91160000D03*
X202615000Y-88770000D03*
X227850000Y-119175000D03*
X227850000Y-120025000D03*
X234660773Y-103831521D03*
X234000000Y-109000000D03*
X227250000Y-109250000D03*
X233999999Y-104353184D03*
X206576540Y-87643256D03*
X204050000Y-92850000D03*
X202518771Y-92925000D03*
X207538532Y-89651836D03*
X252125000Y-88455849D03*
X252975000Y-88455849D03*
X221105000Y-101250000D03*
X203250000Y-115350000D03*
X216120763Y-110850000D03*
X219391558Y-109079205D03*
X206390700Y-112338292D03*
X219120763Y-122500000D03*
X206790141Y-104918221D03*
X205400000Y-117550000D03*
X206351144Y-121348856D03*
X203648238Y-120088821D03*
X204300000Y-107700000D03*
X207100000Y-119500000D03*
X216571354Y-117998954D03*
X216670763Y-114500000D03*
X216775000Y-117100000D03*
X216670763Y-115800000D03*
X216670763Y-112600000D03*
X219339702Y-112495298D03*
X216470763Y-111800000D03*
X201500000Y-114500000D03*
X203262500Y-112350000D03*
X219403611Y-111758361D03*
X214000000Y-110400000D03*
X208125202Y-108479798D03*
X215000000Y-95700000D03*
X247450000Y-109842500D03*
X244000000Y-87600000D03*
X245000000Y-98100000D03*
X244250000Y-107000000D03*
X246250000Y-107000000D03*
X247450000Y-111842500D03*
X247250000Y-108000000D03*
X246000000Y-98100000D03*
X245000000Y-87600000D03*
X246000000Y-87600000D03*
X244000000Y-98100000D03*
X245950000Y-111842500D03*
X246000000Y-95600000D03*
X245250000Y-107000000D03*
X245000000Y-84600000D03*
X248000000Y-84600000D03*
X248000000Y-87600000D03*
X246000000Y-84600000D03*
X246700000Y-109842500D03*
X245250000Y-108000000D03*
X247000000Y-98100000D03*
X247250000Y-107000000D03*
X245950000Y-110842500D03*
X248000000Y-98100000D03*
X247450000Y-110842500D03*
X247000000Y-87600000D03*
X247000000Y-84600000D03*
X245000000Y-95600000D03*
X246700000Y-110842500D03*
X245950000Y-109842500D03*
X246250000Y-108000000D03*
X244000000Y-84600000D03*
X248000000Y-95600000D03*
X246700000Y-111842500D03*
X247000000Y-95600000D03*
X244000000Y-95600000D03*
X253800000Y-84100000D03*
X255800000Y-87100000D03*
X255800000Y-84100000D03*
X256700000Y-86100000D03*
X256700000Y-87100000D03*
X253800000Y-85100000D03*
X255800000Y-85100000D03*
X256700000Y-84100000D03*
X254800000Y-84100000D03*
X256700000Y-85100000D03*
X255800000Y-86100000D03*
X250200000Y-88800000D03*
X230600000Y-117600000D03*
X230250000Y-112000000D03*
X229000000Y-115600000D03*
X229250000Y-112750000D03*
X228250000Y-112000000D03*
X228900000Y-117600000D03*
X229250000Y-111250000D03*
X228000000Y-115600000D03*
X232875000Y-110662500D03*
X225250000Y-113500000D03*
X231375000Y-111662500D03*
X232125000Y-111662500D03*
X225000000Y-115600000D03*
X226000000Y-115600000D03*
X228250000Y-113500000D03*
X228250000Y-110500000D03*
X228250000Y-111250000D03*
X230000000Y-115600000D03*
X227000000Y-117600000D03*
X230250000Y-110500000D03*
X232125000Y-110662500D03*
X231375000Y-110662500D03*
X225250000Y-112750000D03*
X227250000Y-113500000D03*
X232875000Y-109662500D03*
X228250000Y-109750000D03*
X227250000Y-112750000D03*
X230250000Y-112750000D03*
X232875000Y-111662500D03*
X229250000Y-109750000D03*
X227000000Y-115600000D03*
X231375000Y-109662500D03*
X230250000Y-109750000D03*
X228250000Y-112750000D03*
X226250000Y-113500000D03*
X230250000Y-111250000D03*
X226000000Y-117600000D03*
X229250000Y-113500000D03*
X228000000Y-117600000D03*
X229250000Y-110500000D03*
X232125000Y-109662500D03*
X225000000Y-117600000D03*
X226250000Y-112750000D03*
X229250000Y-112000000D03*
X230250000Y-113500000D03*
X227000000Y-121600000D03*
X229000000Y-123600000D03*
X229000000Y-121600000D03*
X243500000Y-124100000D03*
X230600000Y-121600000D03*
X231000000Y-123600000D03*
X234500000Y-124100000D03*
X241500000Y-124100000D03*
X226000000Y-126500000D03*
X225000000Y-125000000D03*
X226000000Y-123600000D03*
X246500000Y-128100000D03*
X235500000Y-128100000D03*
X229000000Y-125000000D03*
X230000000Y-125000000D03*
X242500000Y-128100000D03*
X234500000Y-128100000D03*
X235500000Y-124100000D03*
X243500000Y-128100000D03*
X227000000Y-125000000D03*
X227000000Y-126500000D03*
X240500000Y-128100000D03*
X237500000Y-124100000D03*
X244500000Y-124100000D03*
X226000000Y-121600000D03*
X225000000Y-123600000D03*
X237500000Y-128100000D03*
X231000000Y-126500000D03*
X236500000Y-124100000D03*
X228000000Y-121600000D03*
X230000000Y-123600000D03*
X228000000Y-125000000D03*
X238500000Y-128100000D03*
X228000000Y-126500000D03*
X246500000Y-124100000D03*
X239500000Y-124100000D03*
X245500000Y-124100000D03*
X245500000Y-128100000D03*
X241500000Y-128100000D03*
X226000000Y-125000000D03*
X244500000Y-128100000D03*
X225000000Y-121600000D03*
X231500000Y-121600000D03*
X230000000Y-126500000D03*
X228000000Y-123600000D03*
X238500000Y-124100000D03*
X242500000Y-124100000D03*
X229000000Y-126500000D03*
X236500000Y-128100000D03*
X239500000Y-128100000D03*
X240500000Y-124100000D03*
X231000000Y-125000000D03*
X227000000Y-123600000D03*
D16*
X236100000Y-101500000D02*
X235623793Y-101976207D01*
X235960000Y-95360000D02*
X236100000Y-95500000D01*
X235960000Y-95080000D02*
X235960000Y-95360000D01*
X236100000Y-95500000D02*
X236100000Y-101500000D01*
X235623793Y-101976207D02*
X235623793Y-103835633D01*
D17*
X244750000Y-109250000D02*
X244750000Y-112250000D01*
X237204516Y-104704516D02*
X239000000Y-106500000D01*
X242000000Y-106500000D02*
X244750000Y-109250000D01*
X239000000Y-106500000D02*
X242000000Y-106500000D01*
X237204516Y-104340889D02*
X237204516Y-104704516D01*
X236500000Y-104750000D02*
X236500000Y-106750000D01*
X236500000Y-106750000D02*
X237000000Y-107250000D01*
X237000000Y-109000000D02*
X237750000Y-109750000D01*
X237750000Y-109750000D02*
X237750000Y-112250000D01*
X237000000Y-107250000D02*
X237000000Y-109000000D01*
X234783056Y-103953804D02*
X234660773Y-103831521D01*
X234783056Y-106216944D02*
X234783056Y-103953804D01*
X234000000Y-109000000D02*
X234000000Y-107000000D01*
X234000000Y-107000000D02*
X234783056Y-106216944D01*
X232250000Y-106750000D02*
X231750000Y-106750000D01*
X233999999Y-105000001D02*
X232250000Y-106750000D01*
X231750000Y-106750000D02*
X229500000Y-109000000D01*
X233999999Y-104353184D02*
X233999999Y-105000001D01*
X229500000Y-109000000D02*
X227500000Y-109000000D01*
X227500000Y-109000000D02*
X227250000Y-109250000D01*
G04 #@! TA.AperFunction,Conductor*
G36*
X256943039Y-74519685D02*
G01*
X256988794Y-74572489D01*
X257000000Y-74624000D01*
X257000000Y-87376000D01*
X256980315Y-87443039D01*
X256927511Y-87488794D01*
X256876000Y-87500000D01*
X253124000Y-87500000D01*
X253056961Y-87480315D01*
X253011206Y-87427511D01*
X253000000Y-87376000D01*
X253000000Y-74624000D01*
X253019685Y-74556961D01*
X253072489Y-74511206D01*
X253124000Y-74500000D01*
X256876000Y-74500000D01*
X256943039Y-74519685D01*
G37*
G04 #@! TD.AperFunction*
G04 #@! TA.AperFunction,Conductor*
G36*
X250943039Y-82519685D02*
G01*
X250988794Y-82572489D01*
X251000000Y-82624000D01*
X251000000Y-88512605D01*
X250980315Y-88579644D01*
X250927511Y-88625399D01*
X250858353Y-88635343D01*
X250794797Y-88606318D01*
X250770191Y-88572202D01*
X250768114Y-88573402D01*
X250764049Y-88566361D01*
X250684360Y-88428337D01*
X250571663Y-88315640D01*
X250502650Y-88275795D01*
X250433638Y-88235950D01*
X250356663Y-88215325D01*
X250279689Y-88194700D01*
X250120311Y-88194700D01*
X249966361Y-88235950D01*
X249828337Y-88315640D01*
X249828334Y-88315642D01*
X249715642Y-88428334D01*
X249715640Y-88428337D01*
X249635950Y-88566361D01*
X249594700Y-88720311D01*
X249594700Y-88879688D01*
X249635950Y-89033638D01*
X249666987Y-89087394D01*
X249715640Y-89171663D01*
X249828337Y-89284360D01*
X249966363Y-89364050D01*
X250120311Y-89405300D01*
X250120313Y-89405300D01*
X250279687Y-89405300D01*
X250279689Y-89405300D01*
X250433637Y-89364050D01*
X250571663Y-89284360D01*
X250684360Y-89171663D01*
X250764050Y-89033637D01*
X250764050Y-89033636D01*
X250768114Y-89026598D01*
X250770898Y-89028205D01*
X250805271Y-88985544D01*
X250871563Y-88963473D01*
X250939264Y-88980747D01*
X250986879Y-89031879D01*
X251000000Y-89087394D01*
X251000000Y-100202136D01*
X250980315Y-100269175D01*
X250967842Y-100285449D01*
X249700000Y-101683073D01*
X249700000Y-112226000D01*
X249680315Y-112293039D01*
X249627511Y-112338794D01*
X249576000Y-112350000D01*
X245719000Y-112350000D01*
X245651961Y-112330315D01*
X245606206Y-112277511D01*
X245595000Y-112226000D01*
X245595000Y-109150000D01*
X245393243Y-109150000D01*
X245326204Y-109130315D01*
X245280449Y-109077511D01*
X245273468Y-109058093D01*
X245267457Y-109035660D01*
X245257662Y-109018694D01*
X245194351Y-108909038D01*
X245090962Y-108805649D01*
X242681319Y-106396006D01*
X242647834Y-106334683D01*
X242645000Y-106308325D01*
X242645000Y-82722137D01*
X242664685Y-82655098D01*
X242717489Y-82609343D01*
X242767122Y-82598151D01*
X249249075Y-82500013D01*
X249250952Y-82500000D01*
X250876000Y-82500000D01*
X250943039Y-82519685D01*
G37*
G04 #@! TD.AperFunction*
G04 #@! TA.AperFunction,Conductor*
G36*
X267243039Y-74545599D02*
G01*
X267288794Y-74598403D01*
X267300000Y-74649914D01*
X267300000Y-87351914D01*
X267280315Y-87418953D01*
X267227511Y-87464708D01*
X267176000Y-87475914D01*
X262174000Y-87475914D01*
X262106961Y-87456229D01*
X262061206Y-87403425D01*
X262050000Y-87351914D01*
X262050000Y-74649914D01*
X262069685Y-74582875D01*
X262122489Y-74537120D01*
X262174000Y-74525914D01*
X267176000Y-74525914D01*
X267243039Y-74545599D01*
G37*
G04 #@! TD.AperFunction*
G04 #@! TA.AperFunction,Conductor*
G36*
X232348039Y-75119685D02*
G01*
X232393794Y-75172489D01*
X232405000Y-75224000D01*
X232405000Y-79878792D01*
X232385315Y-79945831D01*
X232332511Y-79991586D01*
X232280876Y-80002792D01*
X229507664Y-80000007D01*
X229500000Y-80000000D01*
X229499999Y-80000000D01*
X229465805Y-99900971D01*
X229446005Y-99967977D01*
X229393123Y-100013641D01*
X229373900Y-100020533D01*
X229316361Y-100035950D01*
X229178337Y-100115640D01*
X229178334Y-100115642D01*
X229065642Y-100228334D01*
X229065640Y-100228337D01*
X228985950Y-100366361D01*
X228944700Y-100520311D01*
X228944700Y-100679688D01*
X228985950Y-100833638D01*
X229025795Y-100902650D01*
X229065640Y-100971663D01*
X229178337Y-101084360D01*
X229316363Y-101164050D01*
X229371498Y-101178823D01*
X229431156Y-101215186D01*
X229461686Y-101278033D01*
X229463403Y-101298810D01*
X229451525Y-108212012D01*
X229442856Y-108241347D01*
X229436357Y-108271225D01*
X229432508Y-108276366D01*
X229431725Y-108279018D01*
X229415207Y-108299480D01*
X229306304Y-108408382D01*
X229244984Y-108441866D01*
X229218625Y-108444700D01*
X227426893Y-108444700D01*
X227285660Y-108482542D01*
X227159038Y-108555649D01*
X227159034Y-108555652D01*
X227054924Y-108659760D01*
X227022958Y-108681123D01*
X227023400Y-108681887D01*
X226878340Y-108765637D01*
X226878334Y-108765642D01*
X226765642Y-108878334D01*
X226765640Y-108878337D01*
X226685949Y-109016363D01*
X226677094Y-109049409D01*
X226677095Y-109049410D01*
X226663539Y-109100000D01*
X226650000Y-109100000D01*
X226650000Y-109150529D01*
X226647740Y-109158965D01*
X226644700Y-109170311D01*
X226644700Y-109329689D01*
X226645774Y-109333699D01*
X226650000Y-109365792D01*
X226650000Y-111976000D01*
X226630315Y-112043039D01*
X226577511Y-112088794D01*
X226526000Y-112100000D01*
X222954520Y-112100000D01*
X222887481Y-112080315D01*
X222841726Y-112027511D01*
X222830520Y-111976216D01*
X222830279Y-111838117D01*
X222830104Y-111737456D01*
X222829896Y-111726647D01*
X222829575Y-111717876D01*
X222810218Y-111620785D01*
X222785407Y-111554265D01*
X222757804Y-111498244D01*
X222734031Y-111472386D01*
X222703151Y-111409712D01*
X222701318Y-111388246D01*
X222703693Y-110105475D01*
X222723502Y-110038474D01*
X222737321Y-110020802D01*
X222742848Y-110014921D01*
X222794358Y-109913182D01*
X222814242Y-109845027D01*
X222826660Y-109757582D01*
X222824789Y-108681687D01*
X222844356Y-108614619D01*
X222866413Y-108590604D01*
X222865916Y-108590107D01*
X222921339Y-108534684D01*
X222984360Y-108471663D01*
X223064050Y-108333637D01*
X223105300Y-108179689D01*
X223105300Y-108020311D01*
X223064050Y-107866363D01*
X222984360Y-107728337D01*
X222943704Y-107687681D01*
X222910219Y-107626358D01*
X222915203Y-107556666D01*
X222943704Y-107512319D01*
X222984360Y-107471663D01*
X223064050Y-107333637D01*
X223105300Y-107179689D01*
X223105300Y-107020311D01*
X223064050Y-106866363D01*
X222984360Y-106728337D01*
X222943704Y-106687681D01*
X222910219Y-106626358D01*
X222915203Y-106556666D01*
X222943704Y-106512319D01*
X222984360Y-106471663D01*
X223064050Y-106333637D01*
X223105300Y-106179689D01*
X223105300Y-106020311D01*
X223064050Y-105866363D01*
X222984360Y-105728337D01*
X222871663Y-105615640D01*
X222867789Y-105612667D01*
X222826590Y-105556237D01*
X222819282Y-105514512D01*
X222818215Y-104901119D01*
X222810518Y-100475239D01*
X222803370Y-100409560D01*
X222791985Y-100357439D01*
X222780912Y-100318892D01*
X222739026Y-100247271D01*
X222722065Y-100184447D01*
X222750000Y-85100000D01*
X222741749Y-85099971D01*
X220623568Y-85092584D01*
X220556597Y-85072666D01*
X220511027Y-85019703D01*
X220500000Y-84968585D01*
X220500000Y-79974000D01*
X220519685Y-79906961D01*
X220572489Y-79861206D01*
X220624000Y-79850000D01*
X222700000Y-79850000D01*
X222700000Y-75224000D01*
X222719685Y-75156961D01*
X222772489Y-75111206D01*
X222824000Y-75100000D01*
X232281000Y-75100000D01*
X232348039Y-75119685D01*
G37*
G04 #@! TD.AperFunction*
G04 #@! TA.AperFunction,Conductor*
G36*
X231434664Y-109266880D02*
G01*
X231516363Y-109314050D01*
X231670311Y-109355300D01*
X231670313Y-109355300D01*
X231829687Y-109355300D01*
X231829689Y-109355300D01*
X231983637Y-109314050D01*
X232062002Y-109268805D01*
X232130994Y-109252068D01*
X232187996Y-109268804D01*
X232266363Y-109314050D01*
X232420311Y-109355300D01*
X232420313Y-109355300D01*
X232579687Y-109355300D01*
X232579689Y-109355300D01*
X232733637Y-109314050D01*
X232812002Y-109268805D01*
X232880994Y-109252068D01*
X232937996Y-109268804D01*
X233016363Y-109314050D01*
X233156614Y-109351629D01*
X233217233Y-109388579D01*
X233248255Y-109452440D01*
X233250000Y-109473335D01*
X233250000Y-112563700D01*
X233229998Y-112631821D01*
X233176342Y-112678314D01*
X233154322Y-112685997D01*
X233139387Y-112689700D01*
X233124000Y-112689700D01*
X233058038Y-112696792D01*
X233006527Y-112707998D01*
X232967722Y-112719127D01*
X232928735Y-112741928D01*
X232911115Y-112746297D01*
X232896721Y-112745683D01*
X232880793Y-112750000D01*
X231750000Y-112750000D01*
X231798828Y-118072320D01*
X231779451Y-118140621D01*
X231726225Y-118187605D01*
X231672315Y-118199475D01*
X224074407Y-118168266D01*
X224006369Y-118147984D01*
X223960097Y-118094138D01*
X223948930Y-118043353D01*
X223901610Y-112537381D01*
X223921026Y-112469093D01*
X223974280Y-112422140D01*
X224027605Y-112410300D01*
X226525995Y-112410300D01*
X226526000Y-112410300D01*
X226591962Y-112403208D01*
X226643473Y-112392002D01*
X226682278Y-112380873D01*
X226690364Y-112376143D01*
X226705596Y-112367236D01*
X226769207Y-112350000D01*
X227000000Y-112350000D01*
X227000000Y-109973871D01*
X227020002Y-109905750D01*
X227073658Y-109859257D01*
X227143932Y-109849153D01*
X227158600Y-109852162D01*
X227170311Y-109855300D01*
X227170313Y-109855300D01*
X227329687Y-109855300D01*
X227329689Y-109855300D01*
X227483637Y-109814050D01*
X227621663Y-109734360D01*
X227734360Y-109621663D01*
X227734462Y-109621486D01*
X227736303Y-109618299D01*
X227738679Y-109616033D01*
X227739387Y-109615111D01*
X227739530Y-109615221D01*
X227787686Y-109569306D01*
X227845421Y-109555300D01*
X229573105Y-109555300D01*
X229573107Y-109555300D01*
X229714338Y-109517458D01*
X229840962Y-109444351D01*
X229998409Y-109286903D01*
X230060719Y-109252880D01*
X230087503Y-109250000D01*
X231371665Y-109250000D01*
X231434664Y-109266880D01*
G37*
G04 #@! TD.AperFunction*
G04 #@! TA.AperFunction,Conductor*
G36*
X239684199Y-109266612D02*
G01*
X239766363Y-109314050D01*
X239920311Y-109355300D01*
X239920313Y-109355300D01*
X240079687Y-109355300D01*
X240079689Y-109355300D01*
X240233637Y-109314050D01*
X240315800Y-109266612D01*
X240377800Y-109250000D01*
X242338454Y-109250000D01*
X242405493Y-109269685D01*
X242432166Y-109292796D01*
X242467452Y-109333518D01*
X242512888Y-109376359D01*
X242614537Y-109428045D01*
X242681576Y-109447730D01*
X242769000Y-109460300D01*
X242769003Y-109460300D01*
X243565330Y-109460300D01*
X243566169Y-109460284D01*
X243576403Y-109460102D01*
X243585249Y-109459786D01*
X243682610Y-109440419D01*
X243748074Y-109416002D01*
X243804090Y-109388403D01*
X243872347Y-109325653D01*
X243878106Y-109322815D01*
X243881956Y-109317674D01*
X243909062Y-109307563D01*
X243935019Y-109294775D01*
X243941401Y-109295501D01*
X243947420Y-109293257D01*
X243975689Y-109299406D01*
X244004440Y-109302681D01*
X244010986Y-109307085D01*
X244015693Y-109308109D01*
X244043947Y-109329260D01*
X244158381Y-109443694D01*
X244191866Y-109505017D01*
X244194700Y-109531375D01*
X244194700Y-111970574D01*
X244187199Y-112008285D01*
X244188054Y-112008514D01*
X244185951Y-112016360D01*
X244185950Y-112016363D01*
X244144700Y-112170311D01*
X244144700Y-112170313D01*
X244144700Y-112329688D01*
X244185950Y-112483638D01*
X244211065Y-112527137D01*
X244265640Y-112621663D01*
X244378337Y-112734360D01*
X244516363Y-112814050D01*
X244670311Y-112855300D01*
X244670313Y-112855300D01*
X244829687Y-112855300D01*
X244829689Y-112855300D01*
X244983637Y-112814050D01*
X245121663Y-112734360D01*
X245234360Y-112621663D01*
X245253462Y-112588576D01*
X245304027Y-112540361D01*
X245372634Y-112527137D01*
X245437499Y-112553104D01*
X245445911Y-112560352D01*
X245462888Y-112576359D01*
X245564537Y-112628045D01*
X245631576Y-112647730D01*
X245719000Y-112660300D01*
X245719003Y-112660300D01*
X248876000Y-112660300D01*
X248943039Y-112679985D01*
X248988794Y-112732789D01*
X249000000Y-112784300D01*
X249000000Y-118126000D01*
X248980315Y-118193039D01*
X248927511Y-118238794D01*
X248876000Y-118250000D01*
X233124000Y-118250000D01*
X233056961Y-118230315D01*
X233011206Y-118177511D01*
X233000000Y-118126000D01*
X233000000Y-113124000D01*
X233019685Y-113056961D01*
X233072489Y-113011206D01*
X233124000Y-113000000D01*
X234372200Y-113000000D01*
X234434199Y-113016612D01*
X234491628Y-113049769D01*
X234516359Y-113064048D01*
X234516363Y-113064050D01*
X234670311Y-113105300D01*
X234670313Y-113105300D01*
X234829687Y-113105300D01*
X234829689Y-113105300D01*
X234983637Y-113064050D01*
X235062999Y-113018230D01*
X235130899Y-113001756D01*
X235187001Y-113018230D01*
X235266357Y-113064047D01*
X235266358Y-113064047D01*
X235266363Y-113064050D01*
X235420311Y-113105300D01*
X235420313Y-113105300D01*
X235579687Y-113105300D01*
X235579689Y-113105300D01*
X235733637Y-113064050D01*
X235812999Y-113018230D01*
X235880899Y-113001756D01*
X235937001Y-113018230D01*
X236016357Y-113064047D01*
X236016358Y-113064047D01*
X236016363Y-113064050D01*
X236170311Y-113105300D01*
X236170313Y-113105300D01*
X236329687Y-113105300D01*
X236329689Y-113105300D01*
X236483637Y-113064050D01*
X236562999Y-113018230D01*
X236630899Y-113001756D01*
X236687001Y-113018230D01*
X236766357Y-113064047D01*
X236766358Y-113064047D01*
X236766363Y-113064050D01*
X236920311Y-113105300D01*
X236920313Y-113105300D01*
X237079687Y-113105300D01*
X237079689Y-113105300D01*
X237233637Y-113064050D01*
X237315800Y-113016612D01*
X237377800Y-113000000D01*
X238500000Y-113000000D01*
X238500000Y-109471800D01*
X238519685Y-109404761D01*
X238572489Y-109359006D01*
X238591893Y-109352029D01*
X238733637Y-109314050D01*
X238815800Y-109266612D01*
X238877800Y-109250000D01*
X239622200Y-109250000D01*
X239684199Y-109266612D01*
G37*
G04 #@! TD.AperFunction*
G04 #@! TA.AperFunction,Conductor*
G36*
X252901893Y-74045502D02*
G01*
X252948386Y-74099158D01*
X252958490Y-74169432D01*
X252928996Y-74234012D01*
X252897382Y-74260264D01*
X252869292Y-74276691D01*
X252869289Y-74276694D01*
X252816487Y-74322447D01*
X252816484Y-74322450D01*
X252773639Y-74367890D01*
X252721955Y-74469533D01*
X252721955Y-74469534D01*
X252702271Y-74536570D01*
X252702267Y-74536587D01*
X252689700Y-74623993D01*
X252689700Y-87376007D01*
X252696792Y-87441966D01*
X252701458Y-87463412D01*
X252707998Y-87493473D01*
X252719127Y-87532278D01*
X252719128Y-87532279D01*
X252776695Y-87630712D01*
X252821827Y-87682797D01*
X252851320Y-87747378D01*
X252841215Y-87817652D01*
X252794722Y-87871307D01*
X252784557Y-87877189D01*
X252772414Y-87883478D01*
X252741363Y-87891799D01*
X252610529Y-87967336D01*
X252607955Y-87968670D01*
X252575813Y-87974930D01*
X252544004Y-87982647D01*
X252540889Y-87981732D01*
X252538268Y-87982243D01*
X252526011Y-87977364D01*
X252487000Y-87965909D01*
X252358641Y-87891801D01*
X252358638Y-87891800D01*
X252358637Y-87891799D01*
X252358635Y-87891798D01*
X252358634Y-87891798D01*
X252304111Y-87877189D01*
X252204689Y-87850549D01*
X252045311Y-87850549D01*
X251967841Y-87871307D01*
X251891365Y-87891798D01*
X251891358Y-87891801D01*
X251753340Y-87971486D01*
X251753330Y-87971494D01*
X251640645Y-88084179D01*
X251640637Y-88084189D01*
X251560952Y-88222207D01*
X251560947Y-88222219D01*
X251558006Y-88233198D01*
X251521055Y-88293820D01*
X251457194Y-88324842D01*
X251386699Y-88316412D01*
X251331953Y-88271209D01*
X251310336Y-88203584D01*
X251310300Y-88200586D01*
X251310300Y-82624004D01*
X251310299Y-82623992D01*
X251309401Y-82615637D01*
X251303208Y-82558038D01*
X251292002Y-82506527D01*
X251280873Y-82467722D01*
X251223303Y-82369286D01*
X251177548Y-82316482D01*
X251132112Y-82273641D01*
X251132110Y-82273640D01*
X251132109Y-82273639D01*
X251030465Y-82221955D01*
X250963429Y-82202271D01*
X250963412Y-82202267D01*
X250876006Y-82189700D01*
X250876000Y-82189700D01*
X249250952Y-82189700D01*
X249250814Y-82189700D01*
X249248950Y-82189705D01*
X249247157Y-82189718D01*
X249246926Y-82189720D01*
X249245950Y-82189731D01*
X249244440Y-82189748D01*
X242762419Y-82287887D01*
X242762414Y-82287888D01*
X242698863Y-82295451D01*
X242649242Y-82306640D01*
X242649232Y-82306643D01*
X242612722Y-82317264D01*
X242612720Y-82317264D01*
X242612720Y-82317265D01*
X242514287Y-82374833D01*
X242461487Y-82420584D01*
X242461484Y-82420587D01*
X242418639Y-82466027D01*
X242366955Y-82567670D01*
X242366955Y-82567671D01*
X242347271Y-82634707D01*
X242347267Y-82634724D01*
X242334700Y-82722130D01*
X242334700Y-105850586D01*
X242314698Y-105918707D01*
X242261042Y-105965200D01*
X242190768Y-105975304D01*
X242176090Y-105972293D01*
X242073107Y-105944700D01*
X239282203Y-105944700D01*
X239214082Y-105924698D01*
X239193108Y-105907795D01*
X237839293Y-104553980D01*
X237805267Y-104491668D01*
X237806681Y-104432274D01*
X237809816Y-104420578D01*
X237809816Y-104261200D01*
X237768566Y-104107252D01*
X237710592Y-104006839D01*
X237688878Y-103969229D01*
X237688870Y-103969219D01*
X237576185Y-103856534D01*
X237576175Y-103856526D01*
X237438157Y-103776841D01*
X237438154Y-103776840D01*
X237438153Y-103776839D01*
X237438151Y-103776838D01*
X237438150Y-103776838D01*
X237396899Y-103765785D01*
X237284205Y-103735589D01*
X237124827Y-103735589D01*
X237048861Y-103755944D01*
X236970881Y-103776838D01*
X236970874Y-103776841D01*
X236832856Y-103856526D01*
X236832846Y-103856534D01*
X236720161Y-103969219D01*
X236720155Y-103969226D01*
X236655218Y-104081701D01*
X236650703Y-104086005D01*
X236648657Y-104091898D01*
X236625312Y-104110215D01*
X236603835Y-104130694D01*
X236596459Y-104132855D01*
X236592802Y-104135725D01*
X236574973Y-104139151D01*
X236557941Y-104144142D01*
X236552030Y-104144700D01*
X236420311Y-104144700D01*
X236348664Y-104163897D01*
X236338119Y-104164893D01*
X236313244Y-104160071D01*
X236287911Y-104159468D01*
X236278992Y-104153431D01*
X236268420Y-104151382D01*
X236250100Y-104133876D01*
X236229115Y-104119673D01*
X236224875Y-104109772D01*
X236217090Y-104102333D01*
X236211142Y-104077701D01*
X236201168Y-104054408D01*
X236202161Y-104040509D01*
X236200426Y-104033320D01*
X236203259Y-104025161D01*
X236204569Y-104006845D01*
X236229093Y-103915322D01*
X236229093Y-103755944D01*
X236187843Y-103601996D01*
X236116166Y-103477848D01*
X236108155Y-103463973D01*
X236108147Y-103463963D01*
X236090998Y-103446814D01*
X236056972Y-103384502D01*
X236054093Y-103357719D01*
X236054093Y-102206633D01*
X236074095Y-102138512D01*
X236090993Y-102117542D01*
X236444325Y-101764211D01*
X236500976Y-101666090D01*
X236530300Y-101556651D01*
X236530300Y-101443350D01*
X236530300Y-95443350D01*
X236517810Y-95396737D01*
X236519500Y-95325762D01*
X236523112Y-95315900D01*
X236524045Y-95313645D01*
X236524050Y-95313637D01*
X236565300Y-95159689D01*
X236565300Y-95000311D01*
X236524050Y-94846363D01*
X236444360Y-94708337D01*
X236444358Y-94708335D01*
X236444354Y-94708330D01*
X236331669Y-94595645D01*
X236331659Y-94595637D01*
X236193641Y-94515952D01*
X236193638Y-94515951D01*
X236193637Y-94515950D01*
X236193635Y-94515949D01*
X236193634Y-94515949D01*
X236152383Y-94504896D01*
X236039689Y-94474700D01*
X235880311Y-94474700D01*
X235797813Y-94496805D01*
X235726365Y-94515949D01*
X235726358Y-94515952D01*
X235588340Y-94595637D01*
X235588330Y-94595645D01*
X235475645Y-94708330D01*
X235475637Y-94708340D01*
X235395952Y-94846358D01*
X235395949Y-94846365D01*
X235371175Y-94938825D01*
X235354700Y-95000311D01*
X235354700Y-95159689D01*
X235374514Y-95233637D01*
X235395949Y-95313634D01*
X235395952Y-95313641D01*
X235475637Y-95451659D01*
X235475639Y-95451662D01*
X235475640Y-95451663D01*
X235559530Y-95535553D01*
X235579549Y-95561641D01*
X235600163Y-95597344D01*
X235615674Y-95624210D01*
X235632795Y-95641331D01*
X235666820Y-95703640D01*
X235669700Y-95730426D01*
X235669700Y-101269574D01*
X235649698Y-101337695D01*
X235632795Y-101358669D01*
X235359583Y-101631881D01*
X235325377Y-101666087D01*
X235279468Y-101711995D01*
X235279464Y-101712000D01*
X235222819Y-101810112D01*
X235222816Y-101810119D01*
X235193493Y-101919558D01*
X235193493Y-103221908D01*
X235173491Y-103290029D01*
X235119835Y-103336522D01*
X235049561Y-103346626D01*
X235004493Y-103331027D01*
X234894414Y-103267473D01*
X234894411Y-103267472D01*
X234894410Y-103267471D01*
X234894408Y-103267470D01*
X234894407Y-103267470D01*
X234853156Y-103256417D01*
X234740462Y-103226221D01*
X234581084Y-103226221D01*
X234498586Y-103248326D01*
X234427138Y-103267470D01*
X234427131Y-103267473D01*
X234289113Y-103347158D01*
X234289103Y-103347166D01*
X234176418Y-103459851D01*
X234176410Y-103459861D01*
X234096725Y-103597879D01*
X234096724Y-103597882D01*
X234096723Y-103597884D01*
X234081553Y-103654497D01*
X234044604Y-103715118D01*
X233980743Y-103746139D01*
X233959848Y-103747884D01*
X233920310Y-103747884D01*
X233837812Y-103769989D01*
X233766364Y-103789133D01*
X233766357Y-103789136D01*
X233628339Y-103868821D01*
X233628329Y-103868829D01*
X233515644Y-103981514D01*
X233515636Y-103981524D01*
X233435951Y-104119542D01*
X233435948Y-104119549D01*
X233418156Y-104185950D01*
X233394699Y-104273495D01*
X233394699Y-104432873D01*
X233435949Y-104586821D01*
X233438087Y-104594799D01*
X233437887Y-104594852D01*
X233439595Y-104597510D01*
X233444699Y-104633008D01*
X233444699Y-104717798D01*
X233424697Y-104785919D01*
X233407794Y-104806893D01*
X232056892Y-106157795D01*
X231994580Y-106191821D01*
X231967797Y-106194700D01*
X231823107Y-106194700D01*
X231676893Y-106194700D01*
X231535662Y-106232542D01*
X231535660Y-106232543D01*
X231535657Y-106232544D01*
X231409041Y-106305646D01*
X231409031Y-106305654D01*
X229977889Y-107736796D01*
X229915577Y-107770822D01*
X229844761Y-107765757D01*
X229787926Y-107723210D01*
X229763115Y-107656690D01*
X229762794Y-107647510D01*
X229773703Y-101299343D01*
X229772649Y-101273254D01*
X229770932Y-101252477D01*
X229770928Y-101252428D01*
X229740796Y-101142446D01*
X229710266Y-101079599D01*
X229710265Y-101079598D01*
X229710263Y-101079593D01*
X229677464Y-101026457D01*
X229677465Y-101026457D01*
X229592662Y-100950230D01*
X229592655Y-100950225D01*
X229532998Y-100913862D01*
X229451808Y-100879096D01*
X229447547Y-100877621D01*
X229447650Y-100877322D01*
X229421767Y-100866601D01*
X229383229Y-100844351D01*
X229357134Y-100824327D01*
X229325671Y-100792864D01*
X229305650Y-100766774D01*
X229283394Y-100728225D01*
X229270810Y-100697845D01*
X229259291Y-100654855D01*
X229255000Y-100622250D01*
X229255000Y-100577748D01*
X229259293Y-100545139D01*
X229260565Y-100540390D01*
X229270810Y-100502153D01*
X229283394Y-100471771D01*
X229305650Y-100433223D01*
X229325667Y-100407137D01*
X229357137Y-100375667D01*
X229383217Y-100355653D01*
X229421770Y-100333395D01*
X229452167Y-100320807D01*
X229454209Y-100320260D01*
X229478624Y-100312627D01*
X229497847Y-100305735D01*
X229595924Y-100248498D01*
X229648806Y-100202834D01*
X229691725Y-100157471D01*
X229743585Y-100055911D01*
X229763385Y-99988905D01*
X229776105Y-99901504D01*
X229809549Y-80436518D01*
X229829668Y-80368434D01*
X229883404Y-80322034D01*
X229935674Y-80310737D01*
X232280564Y-80313092D01*
X232346686Y-80306033D01*
X232398321Y-80294827D01*
X232437278Y-80283665D01*
X232535714Y-80226095D01*
X232588518Y-80180340D01*
X232631359Y-80134904D01*
X232657202Y-80084079D01*
X232683044Y-80033258D01*
X232683044Y-80033257D01*
X232700446Y-79973993D01*
X232702730Y-79966216D01*
X232715300Y-79878792D01*
X232715300Y-75224000D01*
X232708208Y-75158038D01*
X232697002Y-75106527D01*
X232685873Y-75067722D01*
X232628303Y-74969286D01*
X232582548Y-74916482D01*
X232537112Y-74873641D01*
X232537110Y-74873640D01*
X232537109Y-74873639D01*
X232435465Y-74821955D01*
X232368429Y-74802271D01*
X232368412Y-74802267D01*
X232281006Y-74789700D01*
X232281000Y-74789700D01*
X222824000Y-74789700D01*
X222823992Y-74789700D01*
X222758033Y-74796792D01*
X222706518Y-74808000D01*
X222684140Y-74814418D01*
X222667722Y-74819127D01*
X222667720Y-74819127D01*
X222667720Y-74819128D01*
X222569287Y-74876695D01*
X222516487Y-74922447D01*
X222516484Y-74922450D01*
X222473639Y-74967890D01*
X222421955Y-75069533D01*
X222421955Y-75069534D01*
X222402271Y-75136570D01*
X222402267Y-75136587D01*
X222389700Y-75223993D01*
X222389700Y-79413700D01*
X222369698Y-79481821D01*
X222316042Y-79528314D01*
X222263700Y-79539700D01*
X220623992Y-79539700D01*
X220558033Y-79546792D01*
X220506518Y-79558000D01*
X220484140Y-79564418D01*
X220467722Y-79569127D01*
X220467720Y-79569127D01*
X220467720Y-79569128D01*
X220369287Y-79626695D01*
X220316487Y-79672447D01*
X220316484Y-79672450D01*
X220273639Y-79717890D01*
X220221955Y-79819533D01*
X220221955Y-79819534D01*
X220202271Y-79886570D01*
X220202267Y-79886587D01*
X220189700Y-79973993D01*
X220189700Y-80821382D01*
X220169698Y-80889503D01*
X220122629Y-80930287D01*
X220123515Y-80931821D01*
X219978340Y-81015637D01*
X219978330Y-81015645D01*
X219865645Y-81128330D01*
X219865637Y-81128340D01*
X219785952Y-81266358D01*
X219785949Y-81266365D01*
X219772552Y-81316365D01*
X219744700Y-81420311D01*
X219744700Y-81579689D01*
X219774896Y-81692383D01*
X219785949Y-81733634D01*
X219785952Y-81733641D01*
X219865639Y-81871662D01*
X219867888Y-81874593D01*
X219869015Y-81877510D01*
X219869769Y-81878815D01*
X219869565Y-81878932D01*
X219893487Y-81940814D01*
X219879221Y-82010362D01*
X219829619Y-82061157D01*
X219760429Y-82077072D01*
X219735315Y-82073002D01*
X219629689Y-82044700D01*
X219470311Y-82044700D01*
X219387813Y-82066805D01*
X219316365Y-82085949D01*
X219316358Y-82085952D01*
X219178340Y-82165637D01*
X219178330Y-82165645D01*
X219164095Y-82179881D01*
X219101783Y-82213907D01*
X219030968Y-82208842D01*
X218985905Y-82179881D01*
X218971669Y-82165645D01*
X218971659Y-82165637D01*
X218833641Y-82085952D01*
X218833638Y-82085951D01*
X218833637Y-82085950D01*
X218833635Y-82085949D01*
X218833634Y-82085949D01*
X218785314Y-82073002D01*
X218679689Y-82044700D01*
X218520311Y-82044700D01*
X218437813Y-82066805D01*
X218366365Y-82085949D01*
X218366358Y-82085952D01*
X218228340Y-82165637D01*
X218228330Y-82165645D01*
X218115645Y-82278330D01*
X218115637Y-82278340D01*
X218035952Y-82416358D01*
X218035949Y-82416365D01*
X218022189Y-82467720D01*
X217994700Y-82570311D01*
X217994700Y-82729689D01*
X218024896Y-82842383D01*
X218035949Y-82883634D01*
X218035952Y-82883641D01*
X218115637Y-83021659D01*
X218115645Y-83021669D01*
X218228330Y-83134354D01*
X218228335Y-83134358D01*
X218228337Y-83134360D01*
X218366363Y-83214050D01*
X218520311Y-83255300D01*
X218520313Y-83255300D01*
X218679687Y-83255300D01*
X218679689Y-83255300D01*
X218833637Y-83214050D01*
X218971663Y-83134360D01*
X218985904Y-83120118D01*
X219048214Y-83086093D01*
X219119030Y-83091156D01*
X219164095Y-83120118D01*
X219178337Y-83134360D01*
X219316363Y-83214050D01*
X219470311Y-83255300D01*
X219470313Y-83255300D01*
X219629687Y-83255300D01*
X219629689Y-83255300D01*
X219783637Y-83214050D01*
X219921663Y-83134360D01*
X219935903Y-83120120D01*
X219974605Y-83081419D01*
X220036917Y-83047393D01*
X220107732Y-83052458D01*
X220164568Y-83095005D01*
X220189379Y-83161525D01*
X220189700Y-83170514D01*
X220189700Y-84968589D01*
X220196677Y-85034017D01*
X220207708Y-85085154D01*
X220218581Y-85123442D01*
X220218582Y-85123445D01*
X220218584Y-85123450D01*
X220275810Y-85222086D01*
X220321380Y-85275049D01*
X220321385Y-85275054D01*
X220321387Y-85275056D01*
X220366672Y-85318052D01*
X220468131Y-85370086D01*
X220468139Y-85370090D01*
X220468146Y-85370092D01*
X220468669Y-85370302D01*
X220468888Y-85370474D01*
X220473323Y-85372749D01*
X220472878Y-85373615D01*
X220524453Y-85414220D01*
X220531382Y-85426738D01*
X220531821Y-85426485D01*
X220615637Y-85571659D01*
X220615645Y-85571669D01*
X220728330Y-85684354D01*
X220728335Y-85684358D01*
X220728337Y-85684360D01*
X220866363Y-85764050D01*
X221020311Y-85805300D01*
X221020313Y-85805300D01*
X221179687Y-85805300D01*
X221179689Y-85805300D01*
X221333637Y-85764050D01*
X221471663Y-85684360D01*
X221584360Y-85571663D01*
X221643160Y-85469819D01*
X221694540Y-85420828D01*
X221752713Y-85406822D01*
X222313334Y-85408778D01*
X222381384Y-85429017D01*
X222427690Y-85482835D01*
X222438894Y-85535010D01*
X222412265Y-99913933D01*
X222392137Y-99982017D01*
X222338395Y-100028410D01*
X222286265Y-100039700D01*
X202805336Y-100039700D01*
X202757117Y-100030108D01*
X202750494Y-100027364D01*
X202732306Y-100022490D01*
X202596542Y-99986113D01*
X202437164Y-99986113D01*
X202342944Y-100011358D01*
X202283211Y-100027364D01*
X202276589Y-100030108D01*
X202228370Y-100039700D01*
X199126213Y-100039700D01*
X199060011Y-100046846D01*
X199059995Y-100046848D01*
X199007441Y-100058329D01*
X198968406Y-100069580D01*
X198968404Y-100069581D01*
X198870072Y-100127319D01*
X198870059Y-100127329D01*
X198816504Y-100173898D01*
X198816486Y-100173915D01*
X198773731Y-100219418D01*
X198773731Y-100219419D01*
X198722223Y-100321153D01*
X198722221Y-100321159D01*
X198702340Y-100389301D01*
X198702338Y-100389312D01*
X198689919Y-100476764D01*
X198691295Y-101267587D01*
X198691365Y-101307897D01*
X198693582Y-102582897D01*
X198693930Y-102782898D01*
X198694382Y-103042587D01*
X198694452Y-103082897D01*
X198695322Y-103582897D01*
X198697544Y-104860808D01*
X198697614Y-104901119D01*
X198701544Y-107160802D01*
X198701586Y-107184684D01*
X198701586Y-107184687D01*
X198702452Y-107682897D01*
X198703887Y-108508479D01*
X198703888Y-108508504D01*
X198703892Y-108510804D01*
X198703933Y-108534684D01*
X198704107Y-108634558D01*
X198707343Y-108678717D01*
X198711603Y-108707988D01*
X198711862Y-108714661D01*
X198704750Y-108742869D01*
X198700661Y-108771671D01*
X198695676Y-108778863D01*
X198694507Y-108783503D01*
X198688678Y-108788961D01*
X198675053Y-108808624D01*
X198655338Y-108828339D01*
X198575652Y-108966358D01*
X198575649Y-108966365D01*
X198558426Y-109030643D01*
X198534400Y-109120311D01*
X198534400Y-109279689D01*
X198559043Y-109371659D01*
X198575649Y-109433634D01*
X198575652Y-109433641D01*
X198655337Y-109571659D01*
X198655339Y-109571662D01*
X198655340Y-109571663D01*
X198679550Y-109595873D01*
X198713575Y-109658183D01*
X198715203Y-109702683D01*
X198706076Y-109766952D01*
X198706075Y-109766958D01*
X198706765Y-110163065D01*
X198706835Y-110203375D01*
X198707234Y-110432897D01*
X198707930Y-110832897D01*
X198708121Y-110942587D01*
X198708191Y-110982897D01*
X198709582Y-111782897D01*
X198710469Y-112292587D01*
X198710539Y-112332897D01*
X198710974Y-112582900D01*
X198713512Y-114042587D01*
X198713582Y-114082897D01*
X198714208Y-114442587D01*
X198714278Y-114482897D01*
X198714741Y-114748900D01*
X198715322Y-115082897D01*
X198715686Y-115292587D01*
X198715756Y-115332898D01*
X198716556Y-115792587D01*
X198716626Y-115832897D01*
X198717582Y-116382897D01*
X198718034Y-116642587D01*
X198718104Y-116682897D01*
X198718867Y-117121820D01*
X198719234Y-117332897D01*
X198719582Y-117532897D01*
X198720363Y-117981851D01*
X198721930Y-118882897D01*
X198722208Y-119042587D01*
X198722278Y-119082898D01*
X198722904Y-119442587D01*
X198722974Y-119482897D01*
X198723928Y-120031408D01*
X198723998Y-120071718D01*
X198725322Y-120832898D01*
X198726119Y-121291443D01*
X198726189Y-121331753D01*
X198728142Y-122455086D01*
X198728212Y-122495398D01*
X198729436Y-123198837D01*
X198729506Y-123239148D01*
X198730785Y-123974763D01*
X198730785Y-123974766D01*
X198737931Y-124040431D01*
X198737933Y-124040444D01*
X198749319Y-124092560D01*
X198749325Y-124092585D01*
X198760391Y-124131105D01*
X198760392Y-124131108D01*
X198817961Y-124229545D01*
X198864454Y-124283201D01*
X198909893Y-124326044D01*
X198909894Y-124326044D01*
X198909896Y-124326046D01*
X198909895Y-124326046D01*
X198933799Y-124338200D01*
X198985456Y-124386904D01*
X199002688Y-124449546D01*
X199044211Y-129847531D01*
X199024734Y-129915803D01*
X198971437Y-129962708D01*
X198918215Y-129974500D01*
X197151500Y-129974500D01*
X197083379Y-129954498D01*
X197036886Y-129900842D01*
X197025500Y-129848500D01*
X197025500Y-94920311D01*
X205799700Y-94920311D01*
X205799700Y-95079689D01*
X205819431Y-95153325D01*
X205840949Y-95233634D01*
X205840952Y-95233641D01*
X205920637Y-95371659D01*
X205920645Y-95371669D01*
X205959881Y-95410905D01*
X205993907Y-95473217D01*
X205988842Y-95544032D01*
X205959881Y-95589095D01*
X205920645Y-95628330D01*
X205920637Y-95628340D01*
X205840952Y-95766358D01*
X205840949Y-95766365D01*
X205832724Y-95797063D01*
X205799700Y-95920311D01*
X205799700Y-96079689D01*
X205827745Y-96184354D01*
X205840949Y-96233634D01*
X205840952Y-96233641D01*
X205920637Y-96371659D01*
X205920645Y-96371669D01*
X205959881Y-96410905D01*
X205993907Y-96473217D01*
X205988842Y-96544032D01*
X205959881Y-96589095D01*
X205920645Y-96628330D01*
X205920637Y-96628340D01*
X205840952Y-96766358D01*
X205840950Y-96766363D01*
X205799700Y-96920311D01*
X205799700Y-97079689D01*
X205829896Y-97192383D01*
X205840949Y-97233634D01*
X205840952Y-97233641D01*
X205920637Y-97371659D01*
X205920645Y-97371669D01*
X206033330Y-97484354D01*
X206033335Y-97484358D01*
X206033337Y-97484360D01*
X206171363Y-97564050D01*
X206325311Y-97605300D01*
X206325313Y-97605300D01*
X206484687Y-97605300D01*
X206484689Y-97605300D01*
X206638637Y-97564050D01*
X206776663Y-97484360D01*
X206889360Y-97371663D01*
X206969050Y-97233637D01*
X207010300Y-97079689D01*
X207010300Y-96920311D01*
X206969050Y-96766363D01*
X206889360Y-96628337D01*
X206889358Y-96628335D01*
X206889354Y-96628330D01*
X206850119Y-96589095D01*
X206816093Y-96526783D01*
X206821158Y-96455968D01*
X206850119Y-96410905D01*
X206889354Y-96371669D01*
X206889360Y-96371663D01*
X206969050Y-96233637D01*
X207010300Y-96079689D01*
X207010300Y-95920311D01*
X206969050Y-95766363D01*
X206927802Y-95694921D01*
X206911065Y-95625927D01*
X206934285Y-95558835D01*
X206990092Y-95514948D01*
X207060767Y-95508199D01*
X207099921Y-95522802D01*
X207171363Y-95564050D01*
X207325311Y-95605300D01*
X207325313Y-95605300D01*
X207484687Y-95605300D01*
X207484689Y-95605300D01*
X207638637Y-95564050D01*
X207776663Y-95484360D01*
X207794665Y-95466358D01*
X207815905Y-95445119D01*
X207878217Y-95411093D01*
X207949032Y-95416158D01*
X207994095Y-95445119D01*
X208033330Y-95484354D01*
X208033335Y-95484358D01*
X208033337Y-95484360D01*
X208033338Y-95484361D01*
X208033340Y-95484362D01*
X208087515Y-95515640D01*
X208171363Y-95564050D01*
X208325311Y-95605300D01*
X208325313Y-95605300D01*
X208484687Y-95605300D01*
X208484689Y-95605300D01*
X208638637Y-95564050D01*
X208776663Y-95484360D01*
X208794665Y-95466358D01*
X208815905Y-95445119D01*
X208878217Y-95411093D01*
X208949032Y-95416158D01*
X208994095Y-95445119D01*
X209033330Y-95484354D01*
X209033335Y-95484358D01*
X209033337Y-95484360D01*
X209033338Y-95484361D01*
X209033340Y-95484362D01*
X209087515Y-95515640D01*
X209171363Y-95564050D01*
X209325311Y-95605300D01*
X209325313Y-95605300D01*
X209484687Y-95605300D01*
X209484689Y-95605300D01*
X209638637Y-95564050D01*
X209776663Y-95484360D01*
X209870016Y-95391006D01*
X209932326Y-95356983D01*
X210003142Y-95362047D01*
X210059978Y-95404594D01*
X210080816Y-95447491D01*
X210085947Y-95466642D01*
X210085952Y-95466654D01*
X210165637Y-95604672D01*
X210165645Y-95604682D01*
X210278330Y-95717367D01*
X210278335Y-95717371D01*
X210278337Y-95717373D01*
X210416363Y-95797063D01*
X210570311Y-95838313D01*
X210570313Y-95838313D01*
X210729687Y-95838313D01*
X210729689Y-95838313D01*
X210883637Y-95797063D01*
X211012000Y-95722952D01*
X211080995Y-95706214D01*
X211138000Y-95722952D01*
X211266363Y-95797063D01*
X211420311Y-95838313D01*
X211420313Y-95838313D01*
X211579687Y-95838313D01*
X211579689Y-95838313D01*
X211733637Y-95797063D01*
X211871663Y-95717373D01*
X211968725Y-95620311D01*
X214394700Y-95620311D01*
X214394700Y-95779689D01*
X214424896Y-95892383D01*
X214435949Y-95933634D01*
X214435952Y-95933641D01*
X214515637Y-96071659D01*
X214515645Y-96071669D01*
X214628330Y-96184354D01*
X214628335Y-96184358D01*
X214628337Y-96184360D01*
X214766363Y-96264050D01*
X214920311Y-96305300D01*
X214920313Y-96305300D01*
X215079687Y-96305300D01*
X215079689Y-96305300D01*
X215233637Y-96264050D01*
X215371663Y-96184360D01*
X215484360Y-96071663D01*
X215564050Y-95933637D01*
X215605300Y-95779689D01*
X215605300Y-95620311D01*
X215564050Y-95466363D01*
X215523852Y-95396738D01*
X215484362Y-95328340D01*
X215484354Y-95328330D01*
X215371669Y-95215645D01*
X215371659Y-95215637D01*
X215233641Y-95135952D01*
X215233638Y-95135951D01*
X215233637Y-95135950D01*
X215233635Y-95135949D01*
X215233634Y-95135949D01*
X215192383Y-95124896D01*
X215079689Y-95094700D01*
X214920311Y-95094700D01*
X214837813Y-95116805D01*
X214766365Y-95135949D01*
X214766358Y-95135952D01*
X214628340Y-95215637D01*
X214628330Y-95215645D01*
X214515645Y-95328330D01*
X214515637Y-95328340D01*
X214435952Y-95466358D01*
X214435949Y-95466365D01*
X214431127Y-95484362D01*
X214394700Y-95620311D01*
X211968725Y-95620311D01*
X211984360Y-95604676D01*
X212064050Y-95466650D01*
X212105300Y-95312702D01*
X212105300Y-95153324D01*
X212064050Y-94999376D01*
X212018402Y-94920312D01*
X211984362Y-94861353D01*
X211984354Y-94861343D01*
X211871669Y-94748658D01*
X211871659Y-94748650D01*
X211733641Y-94668965D01*
X211733638Y-94668964D01*
X211733637Y-94668963D01*
X211733635Y-94668962D01*
X211733634Y-94668962D01*
X211683116Y-94655426D01*
X211579689Y-94627713D01*
X211420311Y-94627713D01*
X211337813Y-94649818D01*
X211266365Y-94668962D01*
X211266358Y-94668965D01*
X211138000Y-94743073D01*
X211069004Y-94759811D01*
X211012000Y-94743073D01*
X210883641Y-94668965D01*
X210883638Y-94668964D01*
X210883637Y-94668963D01*
X210883635Y-94668962D01*
X210883634Y-94668962D01*
X210833116Y-94655426D01*
X210729689Y-94627713D01*
X210570311Y-94627713D01*
X210487813Y-94649818D01*
X210416365Y-94668962D01*
X210416358Y-94668965D01*
X210278340Y-94748650D01*
X210278334Y-94748655D01*
X210184984Y-94842005D01*
X210122672Y-94876030D01*
X210051856Y-94870964D01*
X209995020Y-94828417D01*
X209974183Y-94785520D01*
X209969050Y-94766363D01*
X209889360Y-94628337D01*
X209889358Y-94628335D01*
X209889354Y-94628330D01*
X209776669Y-94515645D01*
X209776659Y-94515637D01*
X209638641Y-94435952D01*
X209638638Y-94435951D01*
X209638637Y-94435950D01*
X209638635Y-94435949D01*
X209638634Y-94435949D01*
X209597383Y-94424896D01*
X209484689Y-94394700D01*
X209325311Y-94394700D01*
X209242813Y-94416805D01*
X209171365Y-94435949D01*
X209171358Y-94435952D01*
X209033340Y-94515637D01*
X209033330Y-94515645D01*
X208994095Y-94554881D01*
X208931783Y-94588907D01*
X208860968Y-94583842D01*
X208815905Y-94554881D01*
X208776669Y-94515645D01*
X208776659Y-94515637D01*
X208638641Y-94435952D01*
X208638638Y-94435951D01*
X208638637Y-94435950D01*
X208638635Y-94435949D01*
X208638634Y-94435949D01*
X208597383Y-94424896D01*
X208484689Y-94394700D01*
X208325311Y-94394700D01*
X208242813Y-94416805D01*
X208171365Y-94435949D01*
X208171358Y-94435952D01*
X208033340Y-94515637D01*
X208033330Y-94515645D01*
X207994095Y-94554881D01*
X207931783Y-94588907D01*
X207860968Y-94583842D01*
X207815905Y-94554881D01*
X207776669Y-94515645D01*
X207776659Y-94515637D01*
X207638641Y-94435952D01*
X207638638Y-94435951D01*
X207638637Y-94435950D01*
X207638635Y-94435949D01*
X207638634Y-94435949D01*
X207597383Y-94424896D01*
X207484689Y-94394700D01*
X207325311Y-94394700D01*
X207242813Y-94416805D01*
X207171365Y-94435949D01*
X207171358Y-94435952D01*
X207033340Y-94515637D01*
X207033330Y-94515645D01*
X206994095Y-94554881D01*
X206931783Y-94588907D01*
X206860968Y-94583842D01*
X206815905Y-94554881D01*
X206776669Y-94515645D01*
X206776659Y-94515637D01*
X206638641Y-94435952D01*
X206638638Y-94435951D01*
X206638637Y-94435950D01*
X206638635Y-94435949D01*
X206638634Y-94435949D01*
X206597383Y-94424896D01*
X206484689Y-94394700D01*
X206325311Y-94394700D01*
X206242813Y-94416805D01*
X206171365Y-94435949D01*
X206171358Y-94435952D01*
X206033340Y-94515637D01*
X206033330Y-94515645D01*
X205920645Y-94628330D01*
X205920637Y-94628340D01*
X205840952Y-94766358D01*
X205840949Y-94766365D01*
X205819514Y-94846363D01*
X205799700Y-94920311D01*
X197025500Y-94920311D01*
X197025500Y-93918563D01*
X217944700Y-93918563D01*
X217944700Y-94181436D01*
X217979009Y-94442047D01*
X217979011Y-94442054D01*
X218047046Y-94695966D01*
X218147642Y-94938825D01*
X218147643Y-94938826D01*
X218147648Y-94938837D01*
X218279078Y-95166481D01*
X218439095Y-95375017D01*
X218439114Y-95375038D01*
X218624961Y-95560885D01*
X218624971Y-95560894D01*
X218624977Y-95560900D01*
X218624980Y-95560902D01*
X218624982Y-95560904D01*
X218833518Y-95720921D01*
X219061162Y-95852351D01*
X219061166Y-95852352D01*
X219061175Y-95852358D01*
X219304034Y-95952954D01*
X219557946Y-96020989D01*
X219557950Y-96020989D01*
X219557952Y-96020990D01*
X219625121Y-96029832D01*
X219818566Y-96055300D01*
X219818573Y-96055300D01*
X220081427Y-96055300D01*
X220081434Y-96055300D01*
X220316968Y-96024291D01*
X220342047Y-96020990D01*
X220342047Y-96020989D01*
X220342054Y-96020989D01*
X220595966Y-95952954D01*
X220838825Y-95852358D01*
X221066476Y-95720924D01*
X221066476Y-95720923D01*
X221066481Y-95720921D01*
X221192516Y-95624210D01*
X221275023Y-95560900D01*
X221460900Y-95375023D01*
X221527990Y-95287589D01*
X221620921Y-95166481D01*
X221671032Y-95079687D01*
X221752358Y-94938825D01*
X221852954Y-94695966D01*
X221920989Y-94442054D01*
X221955300Y-94181434D01*
X221955300Y-93918566D01*
X221920989Y-93657946D01*
X221852954Y-93404034D01*
X221752358Y-93161175D01*
X221752352Y-93161166D01*
X221752351Y-93161162D01*
X221620921Y-92933518D01*
X221460904Y-92724982D01*
X221460902Y-92724980D01*
X221460900Y-92724977D01*
X221460894Y-92724971D01*
X221460885Y-92724961D01*
X221275038Y-92539114D01*
X221275017Y-92539095D01*
X221066481Y-92379078D01*
X220838837Y-92247648D01*
X220838829Y-92247644D01*
X220838825Y-92247642D01*
X220595966Y-92147046D01*
X220396654Y-92093641D01*
X220342047Y-92079009D01*
X220081436Y-92044700D01*
X220081434Y-92044700D01*
X219818566Y-92044700D01*
X219818563Y-92044700D01*
X219557952Y-92079009D01*
X219304034Y-92147046D01*
X219099762Y-92231659D01*
X219061173Y-92247643D01*
X219061162Y-92247648D01*
X218833518Y-92379078D01*
X218624982Y-92539095D01*
X218624961Y-92539114D01*
X218439114Y-92724961D01*
X218439095Y-92724982D01*
X218279078Y-92933518D01*
X218147648Y-93161162D01*
X218147643Y-93161173D01*
X218147642Y-93161175D01*
X218091522Y-93296659D01*
X218047046Y-93404034D01*
X217979009Y-93657952D01*
X217944700Y-93918563D01*
X197025500Y-93918563D01*
X197025500Y-90380311D01*
X201299700Y-90380311D01*
X201299700Y-90539689D01*
X201336077Y-90675453D01*
X201340951Y-90693641D01*
X201371758Y-90747000D01*
X201388496Y-90815996D01*
X201371758Y-90873000D01*
X201340951Y-90926358D01*
X201318624Y-91009687D01*
X201299700Y-91080311D01*
X201299700Y-91239689D01*
X201312108Y-91285996D01*
X201340951Y-91393641D01*
X201371758Y-91447000D01*
X201388496Y-91515996D01*
X201371758Y-91573000D01*
X201340951Y-91626358D01*
X201340950Y-91626363D01*
X201299700Y-91780311D01*
X201299700Y-91939689D01*
X201312108Y-91985996D01*
X201340949Y-92093634D01*
X201340952Y-92093641D01*
X201420637Y-92231659D01*
X201420645Y-92231669D01*
X201533330Y-92344354D01*
X201533335Y-92344358D01*
X201533337Y-92344360D01*
X201533338Y-92344361D01*
X201533340Y-92344362D01*
X201593466Y-92379076D01*
X201671363Y-92424050D01*
X201825311Y-92465300D01*
X201825313Y-92465300D01*
X201867001Y-92465300D01*
X201935122Y-92485302D01*
X201981615Y-92538958D01*
X201991719Y-92609232D01*
X201976121Y-92654296D01*
X201954724Y-92691358D01*
X201954722Y-92691362D01*
X201954720Y-92691365D01*
X201945718Y-92724961D01*
X201913471Y-92845311D01*
X201913471Y-93004689D01*
X201934624Y-93083633D01*
X201954720Y-93158634D01*
X201954723Y-93158641D01*
X202034408Y-93296659D01*
X202034416Y-93296669D01*
X202147101Y-93409354D01*
X202147106Y-93409358D01*
X202147108Y-93409360D01*
X202285134Y-93489050D01*
X202439082Y-93530300D01*
X202439084Y-93530300D01*
X202598458Y-93530300D01*
X202598460Y-93530300D01*
X202752408Y-93489050D01*
X202890434Y-93409360D01*
X203003131Y-93296663D01*
X203082821Y-93158637D01*
X203124071Y-93004689D01*
X203124071Y-92845311D01*
X203103975Y-92770311D01*
X203444700Y-92770311D01*
X203444700Y-92929689D01*
X203454002Y-92964405D01*
X203485949Y-93083634D01*
X203485952Y-93083641D01*
X203565637Y-93221659D01*
X203565645Y-93221669D01*
X203678330Y-93334354D01*
X203678335Y-93334358D01*
X203678337Y-93334360D01*
X203816363Y-93414050D01*
X203970311Y-93455300D01*
X203970313Y-93455300D01*
X204129687Y-93455300D01*
X204129689Y-93455300D01*
X204283637Y-93414050D01*
X204421663Y-93334360D01*
X204534360Y-93221663D01*
X204614050Y-93083637D01*
X204645998Y-92964402D01*
X204682948Y-92903782D01*
X204746809Y-92872760D01*
X204817303Y-92881188D01*
X204830697Y-92887892D01*
X204841363Y-92894050D01*
X204995311Y-92935300D01*
X204995313Y-92935300D01*
X205154687Y-92935300D01*
X205154689Y-92935300D01*
X205308637Y-92894050D01*
X205362002Y-92863239D01*
X205430994Y-92846502D01*
X205487997Y-92863238D01*
X205541363Y-92894050D01*
X205695311Y-92935300D01*
X205695313Y-92935300D01*
X205854687Y-92935300D01*
X205854689Y-92935300D01*
X206008637Y-92894050D01*
X206146663Y-92814360D01*
X206259360Y-92701663D01*
X206339050Y-92563637D01*
X206380300Y-92409689D01*
X206380300Y-92250311D01*
X206339050Y-92096363D01*
X206308239Y-92042997D01*
X206291502Y-91974006D01*
X206308240Y-91917000D01*
X206339050Y-91863637D01*
X206380300Y-91709689D01*
X206380300Y-91550311D01*
X206339050Y-91396363D01*
X206308239Y-91342997D01*
X206291502Y-91274006D01*
X206308240Y-91217000D01*
X206339050Y-91163637D01*
X206380300Y-91009689D01*
X206380300Y-90850311D01*
X206339050Y-90696363D01*
X206259360Y-90558337D01*
X206259358Y-90558335D01*
X206259354Y-90558330D01*
X206146669Y-90445645D01*
X206146659Y-90445637D01*
X206008641Y-90365952D01*
X206008638Y-90365951D01*
X206008637Y-90365950D01*
X206008635Y-90365949D01*
X206008634Y-90365949D01*
X205967383Y-90354896D01*
X205854689Y-90324700D01*
X205796551Y-90324700D01*
X205728430Y-90304698D01*
X205681937Y-90251042D01*
X205670551Y-90198700D01*
X205670551Y-90085563D01*
X205641099Y-89975645D01*
X205629301Y-89931614D01*
X205549611Y-89793588D01*
X205549609Y-89793586D01*
X205549605Y-89793581D01*
X205436920Y-89680896D01*
X205436916Y-89680893D01*
X205436914Y-89680891D01*
X205423259Y-89673007D01*
X205423258Y-89673006D01*
X205298892Y-89601203D01*
X205298889Y-89601202D01*
X205298888Y-89601201D01*
X205298886Y-89601200D01*
X205298885Y-89601200D01*
X205257634Y-89590147D01*
X205190456Y-89572147D01*
X206933232Y-89572147D01*
X206933232Y-89731525D01*
X206963428Y-89844219D01*
X206974481Y-89885470D01*
X206974484Y-89885477D01*
X207054169Y-90023495D01*
X207054177Y-90023505D01*
X207166862Y-90136190D01*
X207166867Y-90136194D01*
X207166869Y-90136196D01*
X207304895Y-90215886D01*
X207458843Y-90257136D01*
X207458845Y-90257136D01*
X207618219Y-90257136D01*
X207618221Y-90257136D01*
X207772169Y-90215886D01*
X207910195Y-90136196D01*
X208022892Y-90023499D01*
X208102582Y-89885473D01*
X208143832Y-89731525D01*
X208143832Y-89572147D01*
X208102582Y-89418199D01*
X208053998Y-89334050D01*
X208022894Y-89280176D01*
X208022886Y-89280166D01*
X207910201Y-89167481D01*
X207910191Y-89167473D01*
X207887576Y-89154416D01*
X217869700Y-89154416D01*
X217869700Y-90945574D01*
X217869701Y-90945578D01*
X217872662Y-90971108D01*
X217872663Y-90971112D01*
X217918765Y-91075525D01*
X217999472Y-91156232D01*
X217999474Y-91156233D01*
X217999475Y-91156234D01*
X218103891Y-91202338D01*
X218129421Y-91205300D01*
X219920578Y-91205299D01*
X219946109Y-91202338D01*
X220050525Y-91156234D01*
X220131234Y-91075525D01*
X220177338Y-90971109D01*
X220180300Y-90945579D01*
X220180299Y-89154422D01*
X220177338Y-89128891D01*
X220131234Y-89024475D01*
X220131234Y-89024474D01*
X220050527Y-88943767D01*
X220050525Y-88943766D01*
X219946107Y-88897661D01*
X219946108Y-88897661D01*
X219920582Y-88894700D01*
X218129425Y-88894700D01*
X218129421Y-88894701D01*
X218103891Y-88897662D01*
X218103887Y-88897663D01*
X217999474Y-88943765D01*
X217918767Y-89024472D01*
X217918766Y-89024474D01*
X217872661Y-89128892D01*
X217869700Y-89154416D01*
X207887576Y-89154416D01*
X207772173Y-89087788D01*
X207772170Y-89087787D01*
X207772169Y-89087786D01*
X207772167Y-89087785D01*
X207772166Y-89087785D01*
X207730915Y-89076732D01*
X207618221Y-89046536D01*
X207458843Y-89046536D01*
X207376345Y-89068641D01*
X207304897Y-89087785D01*
X207304890Y-89087788D01*
X207166872Y-89167473D01*
X207166862Y-89167481D01*
X207054177Y-89280166D01*
X207054169Y-89280176D01*
X206974484Y-89418194D01*
X206974482Y-89418199D01*
X206933232Y-89572147D01*
X205190456Y-89572147D01*
X205144940Y-89559951D01*
X204985562Y-89559951D01*
X204903064Y-89582056D01*
X204831616Y-89601200D01*
X204831609Y-89601203D01*
X204693591Y-89680888D01*
X204693581Y-89680896D01*
X204580896Y-89793581D01*
X204580888Y-89793591D01*
X204501203Y-89931609D01*
X204501201Y-89931614D01*
X204459951Y-90085562D01*
X204459951Y-90244940D01*
X204490147Y-90357634D01*
X204501200Y-90398885D01*
X204501203Y-90398892D01*
X204555576Y-90493068D01*
X204572314Y-90562063D01*
X204555576Y-90619068D01*
X204510952Y-90696358D01*
X204510950Y-90696363D01*
X204469700Y-90850311D01*
X204469700Y-91009689D01*
X204506077Y-91145453D01*
X204510951Y-91163641D01*
X204541758Y-91217000D01*
X204558496Y-91285996D01*
X204541758Y-91343000D01*
X204510951Y-91396358D01*
X204510950Y-91396363D01*
X204469700Y-91550311D01*
X204469700Y-91709689D01*
X204506077Y-91845453D01*
X204510951Y-91863641D01*
X204541758Y-91917000D01*
X204558496Y-91985996D01*
X204550764Y-92023846D01*
X204547066Y-92033806D01*
X204510950Y-92096363D01*
X204477475Y-92221292D01*
X204475420Y-92226830D01*
X204457580Y-92250739D01*
X204442050Y-92276218D01*
X204436591Y-92278869D01*
X204432963Y-92283733D01*
X204405025Y-92294203D01*
X204378189Y-92307240D01*
X204372163Y-92306519D01*
X204366482Y-92308649D01*
X204337319Y-92302353D01*
X204307695Y-92298811D01*
X204297672Y-92293793D01*
X204297084Y-92293667D01*
X204296746Y-92293330D01*
X204294298Y-92292105D01*
X204283641Y-92285952D01*
X204283638Y-92285951D01*
X204283637Y-92285950D01*
X204283635Y-92285949D01*
X204283634Y-92285949D01*
X204242383Y-92274896D01*
X204129689Y-92244700D01*
X203970311Y-92244700D01*
X203887813Y-92266805D01*
X203816365Y-92285949D01*
X203816358Y-92285952D01*
X203678340Y-92365637D01*
X203678330Y-92365645D01*
X203565645Y-92478330D01*
X203565637Y-92478340D01*
X203485952Y-92616358D01*
X203485949Y-92616365D01*
X203465855Y-92691358D01*
X203444700Y-92770311D01*
X203103975Y-92770311D01*
X203082821Y-92691363D01*
X203039519Y-92616363D01*
X203003133Y-92553340D01*
X203003125Y-92553330D01*
X202974504Y-92524709D01*
X202940478Y-92462397D01*
X202945543Y-92391582D01*
X202974504Y-92346518D01*
X202976660Y-92344361D01*
X202976663Y-92344360D01*
X203089360Y-92231663D01*
X203169050Y-92093637D01*
X203210300Y-91939689D01*
X203210300Y-91780311D01*
X203169050Y-91626363D01*
X203138239Y-91572997D01*
X203121502Y-91504006D01*
X203138240Y-91447000D01*
X203169050Y-91393637D01*
X203210300Y-91239689D01*
X203210300Y-91080311D01*
X203169050Y-90926363D01*
X203138239Y-90872997D01*
X203121502Y-90804006D01*
X203138240Y-90747000D01*
X203169050Y-90693637D01*
X203210300Y-90539689D01*
X203210300Y-90380311D01*
X203169050Y-90226363D01*
X203089360Y-90088337D01*
X203089358Y-90088335D01*
X203089354Y-90088330D01*
X202976669Y-89975645D01*
X202976659Y-89975637D01*
X202838641Y-89895952D01*
X202838638Y-89895951D01*
X202838637Y-89895950D01*
X202838635Y-89895949D01*
X202838634Y-89895949D01*
X202797383Y-89884896D01*
X202684689Y-89854700D01*
X202525311Y-89854700D01*
X202431091Y-89879945D01*
X202371358Y-89895951D01*
X202318000Y-89926758D01*
X202249004Y-89943496D01*
X202192000Y-89926758D01*
X202138641Y-89895951D01*
X202099525Y-89885470D01*
X201984689Y-89854700D01*
X201825311Y-89854700D01*
X201742813Y-89876805D01*
X201671365Y-89895949D01*
X201671358Y-89895952D01*
X201533340Y-89975637D01*
X201533330Y-89975645D01*
X201420645Y-90088330D01*
X201420637Y-90088340D01*
X201340952Y-90226358D01*
X201340949Y-90226365D01*
X201335972Y-90244940D01*
X201299700Y-90380311D01*
X197025500Y-90380311D01*
X197025500Y-88690311D01*
X202009700Y-88690311D01*
X202009700Y-88849689D01*
X202039393Y-88960506D01*
X202050949Y-89003634D01*
X202050952Y-89003641D01*
X202130637Y-89141659D01*
X202130645Y-89141669D01*
X202243330Y-89254354D01*
X202243335Y-89254358D01*
X202243337Y-89254360D01*
X202381363Y-89334050D01*
X202535311Y-89375300D01*
X202535313Y-89375300D01*
X202694687Y-89375300D01*
X202694689Y-89375300D01*
X202848637Y-89334050D01*
X202986663Y-89254360D01*
X203099360Y-89141663D01*
X203179050Y-89003637D01*
X203220300Y-88849689D01*
X203220300Y-88690311D01*
X203184450Y-88556515D01*
X205544700Y-88556515D01*
X205544700Y-88715893D01*
X205567402Y-88800617D01*
X205585949Y-88869838D01*
X205585952Y-88869845D01*
X205665637Y-89007863D01*
X205665645Y-89007873D01*
X205778330Y-89120558D01*
X205778335Y-89120562D01*
X205778337Y-89120564D01*
X205778338Y-89120565D01*
X205778340Y-89120566D01*
X205836980Y-89154422D01*
X205916363Y-89200254D01*
X206070311Y-89241504D01*
X206070313Y-89241504D01*
X206229687Y-89241504D01*
X206229689Y-89241504D01*
X206383637Y-89200254D01*
X206521663Y-89120564D01*
X206634360Y-89007867D01*
X206714050Y-88869841D01*
X206755300Y-88715893D01*
X206755300Y-88556515D01*
X206714050Y-88402567D01*
X206711401Y-88397980D01*
X206694661Y-88328991D01*
X206717878Y-88261898D01*
X206773683Y-88218007D01*
X206787898Y-88213275D01*
X206810177Y-88207306D01*
X206948203Y-88127616D01*
X207005508Y-88070311D01*
X211276700Y-88070311D01*
X211276700Y-88229689D01*
X211293884Y-88293820D01*
X211317949Y-88383634D01*
X211317952Y-88383641D01*
X211397637Y-88521659D01*
X211397645Y-88521669D01*
X211510330Y-88634354D01*
X211510335Y-88634358D01*
X211510337Y-88634360D01*
X211648363Y-88714050D01*
X211802311Y-88755300D01*
X211802313Y-88755300D01*
X211961687Y-88755300D01*
X211961689Y-88755300D01*
X212115637Y-88714050D01*
X212253663Y-88634360D01*
X212366360Y-88521663D01*
X212446050Y-88383637D01*
X212487300Y-88229689D01*
X212487300Y-88070311D01*
X212446050Y-87916363D01*
X212389059Y-87817652D01*
X212366362Y-87778340D01*
X212366354Y-87778330D01*
X212253669Y-87665645D01*
X212253659Y-87665637D01*
X212115641Y-87585952D01*
X212115638Y-87585951D01*
X212115637Y-87585950D01*
X212115635Y-87585949D01*
X212115634Y-87585949D01*
X212074383Y-87574896D01*
X211961689Y-87544700D01*
X211802311Y-87544700D01*
X211719813Y-87566805D01*
X211648365Y-87585949D01*
X211648358Y-87585952D01*
X211510340Y-87665637D01*
X211510330Y-87665645D01*
X211397645Y-87778330D01*
X211397637Y-87778340D01*
X211317952Y-87916358D01*
X211317949Y-87916365D01*
X211300189Y-87982647D01*
X211276700Y-88070311D01*
X207005508Y-88070311D01*
X207060900Y-88014919D01*
X207140590Y-87876893D01*
X207181840Y-87722945D01*
X207181840Y-87563567D01*
X207140590Y-87409619D01*
X207060900Y-87271593D01*
X207060898Y-87271591D01*
X207060894Y-87271586D01*
X206948209Y-87158901D01*
X206948199Y-87158893D01*
X206810181Y-87079208D01*
X206810178Y-87079207D01*
X206810177Y-87079206D01*
X206810175Y-87079205D01*
X206810174Y-87079205D01*
X206768923Y-87068152D01*
X206656229Y-87037956D01*
X206496851Y-87037956D01*
X206414353Y-87060061D01*
X206342905Y-87079205D01*
X206342898Y-87079208D01*
X206204880Y-87158893D01*
X206204870Y-87158901D01*
X206092185Y-87271586D01*
X206092177Y-87271596D01*
X206012492Y-87409614D01*
X206012489Y-87409621D01*
X205990019Y-87493481D01*
X205971240Y-87563567D01*
X205971240Y-87722945D01*
X205992746Y-87803207D01*
X206012489Y-87876890D01*
X206012492Y-87876897D01*
X206015137Y-87881477D01*
X206031877Y-87950471D01*
X206008659Y-88017564D01*
X205952853Y-88061453D01*
X205938634Y-88066186D01*
X205916368Y-88072152D01*
X205916358Y-88072156D01*
X205778340Y-88151841D01*
X205778330Y-88151849D01*
X205665645Y-88264534D01*
X205665637Y-88264544D01*
X205585952Y-88402562D01*
X205585950Y-88402568D01*
X205544700Y-88556515D01*
X203184450Y-88556515D01*
X203179050Y-88536363D01*
X203155376Y-88495359D01*
X203099362Y-88398340D01*
X203099354Y-88398330D01*
X202986669Y-88285645D01*
X202986659Y-88285637D01*
X202848641Y-88205952D01*
X202848638Y-88205951D01*
X202848637Y-88205950D01*
X202848635Y-88205949D01*
X202848634Y-88205949D01*
X202807383Y-88194896D01*
X202694689Y-88164700D01*
X202535311Y-88164700D01*
X202452813Y-88186805D01*
X202381365Y-88205949D01*
X202381358Y-88205952D01*
X202243340Y-88285637D01*
X202243330Y-88285645D01*
X202130645Y-88398330D01*
X202130637Y-88398340D01*
X202050952Y-88536358D01*
X202050949Y-88536365D01*
X202038360Y-88583348D01*
X202009700Y-88690311D01*
X197025500Y-88690311D01*
X197025500Y-86420311D01*
X216594700Y-86420311D01*
X216594700Y-86579689D01*
X216624896Y-86692383D01*
X216635949Y-86733634D01*
X216635952Y-86733641D01*
X216715637Y-86871659D01*
X216715645Y-86871669D01*
X216828330Y-86984354D01*
X216828335Y-86984358D01*
X216828337Y-86984360D01*
X216966363Y-87064050D01*
X217120311Y-87105300D01*
X217120313Y-87105300D01*
X217279687Y-87105300D01*
X217279689Y-87105300D01*
X217433637Y-87064050D01*
X217571663Y-86984360D01*
X217684360Y-86871663D01*
X217764050Y-86733637D01*
X217805300Y-86579689D01*
X217805300Y-86420311D01*
X217764050Y-86266363D01*
X217709378Y-86171669D01*
X217684362Y-86128340D01*
X217684354Y-86128330D01*
X217571669Y-86015645D01*
X217571659Y-86015637D01*
X217433641Y-85935952D01*
X217433638Y-85935951D01*
X217433637Y-85935950D01*
X217433635Y-85935949D01*
X217433634Y-85935949D01*
X217392383Y-85924896D01*
X217279689Y-85894700D01*
X217120311Y-85894700D01*
X217037813Y-85916805D01*
X216966365Y-85935949D01*
X216966358Y-85935952D01*
X216828340Y-86015637D01*
X216828330Y-86015645D01*
X216715645Y-86128330D01*
X216715637Y-86128340D01*
X216635952Y-86266358D01*
X216635949Y-86266365D01*
X216631127Y-86284362D01*
X216594700Y-86420311D01*
X197025500Y-86420311D01*
X197025500Y-85720311D01*
X208382200Y-85720311D01*
X208382200Y-85879689D01*
X208397275Y-85935949D01*
X208423449Y-86033634D01*
X208423452Y-86033641D01*
X208503137Y-86171659D01*
X208503145Y-86171669D01*
X208615830Y-86284354D01*
X208615835Y-86284358D01*
X208615837Y-86284360D01*
X208753863Y-86364050D01*
X208907811Y-86405300D01*
X208907813Y-86405300D01*
X209067187Y-86405300D01*
X209067189Y-86405300D01*
X209221137Y-86364050D01*
X209359163Y-86284360D01*
X209471860Y-86171663D01*
X209551550Y-86033637D01*
X209592800Y-85879689D01*
X209592800Y-85720311D01*
X209551550Y-85566363D01*
X209471860Y-85428337D01*
X209471858Y-85428335D01*
X209471854Y-85428330D01*
X209359169Y-85315645D01*
X209359159Y-85315637D01*
X209221141Y-85235952D01*
X209221138Y-85235951D01*
X209221137Y-85235950D01*
X209221135Y-85235949D01*
X209221134Y-85235949D01*
X209169399Y-85222087D01*
X209067189Y-85194700D01*
X208907811Y-85194700D01*
X208825313Y-85216805D01*
X208753865Y-85235949D01*
X208753858Y-85235952D01*
X208615840Y-85315637D01*
X208615830Y-85315645D01*
X208503145Y-85428330D01*
X208503137Y-85428340D01*
X208423452Y-85566358D01*
X208423449Y-85566365D01*
X208422028Y-85571669D01*
X208382200Y-85720311D01*
X197025500Y-85720311D01*
X197025500Y-83020311D01*
X206144700Y-83020311D01*
X206144700Y-83179689D01*
X206153907Y-83214050D01*
X206185949Y-83333634D01*
X206185952Y-83333641D01*
X206265637Y-83471659D01*
X206265645Y-83471669D01*
X206378330Y-83584354D01*
X206378335Y-83584358D01*
X206378337Y-83584360D01*
X206516363Y-83664050D01*
X206670311Y-83705300D01*
X206670313Y-83705300D01*
X206829687Y-83705300D01*
X206829689Y-83705300D01*
X206983637Y-83664050D01*
X207121663Y-83584360D01*
X207234360Y-83471663D01*
X207314050Y-83333637D01*
X207355300Y-83179689D01*
X207355300Y-83020311D01*
X207314050Y-82866363D01*
X207235141Y-82729689D01*
X207234362Y-82728340D01*
X207234354Y-82728330D01*
X207121669Y-82615645D01*
X207121659Y-82615637D01*
X206983641Y-82535952D01*
X206983638Y-82535951D01*
X206983637Y-82535950D01*
X206983635Y-82535949D01*
X206983634Y-82535949D01*
X206942383Y-82524896D01*
X206829689Y-82494700D01*
X206670311Y-82494700D01*
X206587813Y-82516805D01*
X206516365Y-82535949D01*
X206516358Y-82535952D01*
X206378340Y-82615637D01*
X206378330Y-82615645D01*
X206265645Y-82728330D01*
X206265637Y-82728340D01*
X206185952Y-82866358D01*
X206185950Y-82866363D01*
X206144700Y-83020311D01*
X197025500Y-83020311D01*
X197025500Y-81470311D01*
X216994700Y-81470311D01*
X216994700Y-81629689D01*
X217022552Y-81733634D01*
X217035949Y-81783634D01*
X217035952Y-81783641D01*
X217115637Y-81921659D01*
X217115645Y-81921669D01*
X217228330Y-82034354D01*
X217228335Y-82034358D01*
X217228337Y-82034360D01*
X217366363Y-82114050D01*
X217520311Y-82155300D01*
X217520313Y-82155300D01*
X217679687Y-82155300D01*
X217679689Y-82155300D01*
X217833637Y-82114050D01*
X217971663Y-82034360D01*
X218084360Y-81921663D01*
X218164050Y-81783637D01*
X218205300Y-81629689D01*
X218205300Y-81470311D01*
X218164050Y-81316363D01*
X218084360Y-81178337D01*
X218084358Y-81178335D01*
X218084354Y-81178330D01*
X217971669Y-81065645D01*
X217971659Y-81065637D01*
X217833641Y-80985952D01*
X217833638Y-80985951D01*
X217833637Y-80985950D01*
X217833635Y-80985949D01*
X217833634Y-80985949D01*
X217792383Y-80974896D01*
X217679689Y-80944700D01*
X217520311Y-80944700D01*
X217437813Y-80966805D01*
X217366365Y-80985949D01*
X217366358Y-80985952D01*
X217228340Y-81065637D01*
X217228330Y-81065645D01*
X217115645Y-81178330D01*
X217115637Y-81178340D01*
X217035952Y-81316358D01*
X217035950Y-81316363D01*
X216994700Y-81470311D01*
X197025500Y-81470311D01*
X197025500Y-74151500D01*
X197045502Y-74083379D01*
X197099158Y-74036886D01*
X197151500Y-74025500D01*
X252833772Y-74025500D01*
X252901893Y-74045502D01*
G37*
G04 #@! TD.AperFunction*
G04 #@! TA.AperFunction,Conductor*
G36*
X261996203Y-74045502D02*
G01*
X262042696Y-74099158D01*
X262052800Y-74169432D01*
X262023306Y-74234012D01*
X261991693Y-74260263D01*
X261963605Y-74276691D01*
X261919287Y-74302610D01*
X261866487Y-74348361D01*
X261866484Y-74348364D01*
X261823639Y-74393804D01*
X261771955Y-74495447D01*
X261771955Y-74495448D01*
X261752271Y-74562484D01*
X261752267Y-74562501D01*
X261739700Y-74649907D01*
X261739700Y-87351921D01*
X261746792Y-87417880D01*
X261755424Y-87457556D01*
X261757998Y-87469387D01*
X261769127Y-87508192D01*
X261769128Y-87508193D01*
X261826695Y-87606626D01*
X261826697Y-87606628D01*
X261872452Y-87659432D01*
X261917888Y-87702273D01*
X261917890Y-87702274D01*
X262019534Y-87753958D01*
X262019536Y-87753958D01*
X262019537Y-87753959D01*
X262086576Y-87773644D01*
X262086582Y-87773644D01*
X262086587Y-87773646D01*
X262173993Y-87786213D01*
X262173998Y-87786214D01*
X262174000Y-87786214D01*
X267175995Y-87786214D01*
X267176000Y-87786214D01*
X267241962Y-87779122D01*
X267293473Y-87767916D01*
X267332278Y-87756787D01*
X267430714Y-87699217D01*
X267483518Y-87653462D01*
X267526359Y-87608026D01*
X267558559Y-87544700D01*
X267578044Y-87506380D01*
X267578044Y-87506379D01*
X267578045Y-87506377D01*
X267597730Y-87439338D01*
X267610300Y-87351914D01*
X267610300Y-74649914D01*
X267603208Y-74583952D01*
X267592002Y-74532441D01*
X267580873Y-74493636D01*
X267523303Y-74395200D01*
X267477548Y-74342396D01*
X267432112Y-74299555D01*
X267432110Y-74299554D01*
X267432109Y-74299553D01*
X267361823Y-74263814D01*
X267310167Y-74215109D01*
X267293043Y-74146209D01*
X267315888Y-74078988D01*
X267371449Y-74034789D01*
X267418932Y-74025500D01*
X287848500Y-74025500D01*
X287916621Y-74045502D01*
X287963114Y-74099158D01*
X287974500Y-74151500D01*
X287974500Y-129848500D01*
X287954498Y-129916621D01*
X287900842Y-129963114D01*
X287848500Y-129974500D01*
X275151500Y-129974500D01*
X275083379Y-129954498D01*
X275036886Y-129900842D01*
X275025500Y-129848500D01*
X275025500Y-119989438D01*
X275025499Y-119989436D01*
X275010563Y-119974500D01*
X275010562Y-119974500D01*
X253010562Y-119974500D01*
X252989438Y-119974500D01*
X252989436Y-119974500D01*
X252974500Y-119989436D01*
X252974500Y-129848500D01*
X252954498Y-129916621D01*
X252900842Y-129963114D01*
X252848500Y-129974500D01*
X222126000Y-129974500D01*
X222057879Y-129954498D01*
X222011386Y-129900842D01*
X222000000Y-129848500D01*
X222000000Y-129053024D01*
X222020002Y-128984903D01*
X222064818Y-128944363D01*
X222064285Y-128943493D01*
X222068498Y-128940909D01*
X222068508Y-128940905D01*
X222230932Y-128822897D01*
X222372897Y-128680932D01*
X222490905Y-128518508D01*
X222501433Y-128497844D01*
X222550180Y-128446230D01*
X222619095Y-128429163D01*
X222686297Y-128452063D01*
X222730450Y-128507660D01*
X222739700Y-128555047D01*
X222739700Y-128974007D01*
X222745215Y-129025299D01*
X222746791Y-129039957D01*
X222748584Y-129048202D01*
X222758175Y-129092293D01*
X222758177Y-129092299D01*
X222769306Y-129131107D01*
X222769307Y-129131108D01*
X222826876Y-129229545D01*
X222873369Y-129283201D01*
X222918808Y-129326044D01*
X223020458Y-129377729D01*
X223088579Y-129397731D01*
X223176000Y-129410300D01*
X223176003Y-129410300D01*
X248923996Y-129410300D01*
X248924000Y-129410300D01*
X248989957Y-129403209D01*
X249042299Y-129391823D01*
X249081108Y-129380693D01*
X249179545Y-129323124D01*
X249233201Y-129276631D01*
X249276044Y-129231192D01*
X249327729Y-129129542D01*
X249347731Y-129061421D01*
X249360300Y-128974000D01*
X249360300Y-127749616D01*
X249724500Y-127749616D01*
X249724500Y-127753927D01*
X249724500Y-127950384D01*
X249755907Y-128148680D01*
X249817948Y-128339622D01*
X249909095Y-128518508D01*
X250027103Y-128680932D01*
X250027105Y-128680934D01*
X250027107Y-128680937D01*
X250169062Y-128822892D01*
X250169065Y-128822894D01*
X250169068Y-128822897D01*
X250331492Y-128940905D01*
X250510378Y-129032052D01*
X250701320Y-129094093D01*
X250899616Y-129125500D01*
X250899619Y-129125500D01*
X251100381Y-129125500D01*
X251100384Y-129125500D01*
X251298680Y-129094093D01*
X251489622Y-129032052D01*
X251668508Y-128940905D01*
X251830932Y-128822897D01*
X251972897Y-128680932D01*
X252090905Y-128518508D01*
X252182052Y-128339622D01*
X252244093Y-128148680D01*
X252275500Y-127950384D01*
X252275500Y-127749616D01*
X252244093Y-127551320D01*
X252182052Y-127360378D01*
X252090905Y-127181492D01*
X251972897Y-127019068D01*
X251972894Y-127019065D01*
X251972892Y-127019062D01*
X251830937Y-126877107D01*
X251830934Y-126877105D01*
X251830932Y-126877103D01*
X251668508Y-126759095D01*
X251489622Y-126667948D01*
X251298680Y-126605907D01*
X251100384Y-126574500D01*
X250899616Y-126574500D01*
X250701320Y-126605907D01*
X250701317Y-126605907D01*
X250701316Y-126605908D01*
X250510378Y-126667948D01*
X250510376Y-126667949D01*
X250331488Y-126759097D01*
X250169065Y-126877105D01*
X250169062Y-126877107D01*
X250027107Y-127019062D01*
X250027105Y-127019065D01*
X249909097Y-127181488D01*
X249909095Y-127181492D01*
X249817948Y-127360378D01*
X249755907Y-127551320D01*
X249724500Y-127749616D01*
X249360300Y-127749616D01*
X249360300Y-123226000D01*
X249353209Y-123160043D01*
X249341823Y-123107701D01*
X249330693Y-123068892D01*
X249273124Y-122970455D01*
X249226631Y-122916799D01*
X249181192Y-122873956D01*
X249181191Y-122873955D01*
X249132859Y-122849380D01*
X249079542Y-122822271D01*
X249079539Y-122822270D01*
X249079537Y-122822269D01*
X249011429Y-122802271D01*
X249011424Y-122802269D01*
X249011421Y-122802269D01*
X248924000Y-122789700D01*
X248923997Y-122789700D01*
X232436300Y-122789700D01*
X232368179Y-122769698D01*
X232321686Y-122716042D01*
X232310300Y-122663700D01*
X232310300Y-121224600D01*
X232303572Y-121160332D01*
X232292765Y-121109285D01*
X232292758Y-121109254D01*
X232282423Y-121072047D01*
X232282423Y-121072045D01*
X232282422Y-121072044D01*
X232282422Y-121072042D01*
X232225956Y-120972969D01*
X232180066Y-120918798D01*
X232135112Y-120875454D01*
X232135107Y-120875451D01*
X232034048Y-120822635D01*
X232034044Y-120822633D01*
X231966167Y-120801875D01*
X231966155Y-120801872D01*
X231898522Y-120791375D01*
X231878878Y-120788326D01*
X231878876Y-120788325D01*
X231878871Y-120788325D01*
X228277001Y-120748081D01*
X228209108Y-120727319D01*
X228163218Y-120673147D01*
X228153900Y-120602765D01*
X228184112Y-120538518D01*
X228215409Y-120512970D01*
X228221663Y-120509360D01*
X228334360Y-120396663D01*
X228414050Y-120258637D01*
X228455300Y-120104689D01*
X228455300Y-119945311D01*
X228414050Y-119791363D01*
X228339939Y-119663000D01*
X228323201Y-119594005D01*
X228339939Y-119537000D01*
X228341894Y-119533612D01*
X228414050Y-119408637D01*
X228455300Y-119254689D01*
X228455300Y-119095311D01*
X228414050Y-118941363D01*
X228344119Y-118820240D01*
X228334362Y-118803340D01*
X228334354Y-118803330D01*
X228242173Y-118711149D01*
X228208147Y-118648837D01*
X228213212Y-118578022D01*
X228255759Y-118521186D01*
X228322279Y-118496375D01*
X228331766Y-118496055D01*
X231671040Y-118509772D01*
X231739039Y-118502516D01*
X231792949Y-118490646D01*
X231833672Y-118478708D01*
X231931575Y-118420237D01*
X231984801Y-118373253D01*
X232027218Y-118327430D01*
X232077970Y-118225311D01*
X232097347Y-118157010D01*
X232109115Y-118069473D01*
X232073430Y-114179758D01*
X232064327Y-113187456D01*
X232083704Y-113119155D01*
X232136930Y-113072171D01*
X232190322Y-113060300D01*
X232563700Y-113060300D01*
X232631821Y-113080302D01*
X232678314Y-113133958D01*
X232689700Y-113186300D01*
X232689700Y-118126007D01*
X232696792Y-118191966D01*
X232701458Y-118213412D01*
X232707998Y-118243473D01*
X232719127Y-118282278D01*
X232719128Y-118282279D01*
X232776695Y-118380712D01*
X232802906Y-118410961D01*
X232822452Y-118433518D01*
X232867888Y-118476359D01*
X232867890Y-118476360D01*
X232969534Y-118528044D01*
X232969536Y-118528044D01*
X232969537Y-118528045D01*
X233036576Y-118547730D01*
X233036582Y-118547730D01*
X233036587Y-118547732D01*
X233123993Y-118560299D01*
X233123998Y-118560300D01*
X233124000Y-118560300D01*
X248875995Y-118560300D01*
X248876000Y-118560300D01*
X248941962Y-118553208D01*
X248993473Y-118542002D01*
X249032278Y-118530873D01*
X249130714Y-118473303D01*
X249183518Y-118427548D01*
X249226359Y-118382112D01*
X249277122Y-118282279D01*
X249278044Y-118280466D01*
X249278044Y-118280465D01*
X249288904Y-118243481D01*
X249297730Y-118213424D01*
X249310300Y-118126000D01*
X249310300Y-112786300D01*
X249330302Y-112718179D01*
X249383958Y-112671686D01*
X249436300Y-112660300D01*
X249575995Y-112660300D01*
X249576000Y-112660300D01*
X249641962Y-112653208D01*
X249693473Y-112642002D01*
X249732278Y-112630873D01*
X249830714Y-112573303D01*
X249883518Y-112527548D01*
X249926359Y-112482112D01*
X249962874Y-112410300D01*
X249978044Y-112380466D01*
X249978044Y-112380465D01*
X249992954Y-112329689D01*
X249997730Y-112313424D01*
X250010300Y-112226000D01*
X250010300Y-111854834D01*
X250030302Y-111786713D01*
X250083958Y-111740220D01*
X250154232Y-111730116D01*
X250210360Y-111752897D01*
X250331492Y-111840905D01*
X250510378Y-111932052D01*
X250701320Y-111994093D01*
X250899616Y-112025500D01*
X250899619Y-112025500D01*
X251100381Y-112025500D01*
X251100384Y-112025500D01*
X251298680Y-111994093D01*
X251489622Y-111932052D01*
X251668508Y-111840905D01*
X251830932Y-111722897D01*
X251972897Y-111580932D01*
X252090905Y-111418508D01*
X252182052Y-111239622D01*
X252244093Y-111048680D01*
X252275500Y-110850384D01*
X252275500Y-110649616D01*
X252244093Y-110451320D01*
X252182052Y-110260378D01*
X252090905Y-110081492D01*
X251972897Y-109919068D01*
X251972894Y-109919065D01*
X251972892Y-109919062D01*
X251830937Y-109777107D01*
X251830934Y-109777105D01*
X251830932Y-109777103D01*
X251708668Y-109688273D01*
X251668511Y-109659097D01*
X251668510Y-109659096D01*
X251668508Y-109659095D01*
X251489622Y-109567948D01*
X251298680Y-109505907D01*
X251100384Y-109474500D01*
X250899616Y-109474500D01*
X250701320Y-109505907D01*
X250701317Y-109505907D01*
X250701316Y-109505908D01*
X250510378Y-109567948D01*
X250510376Y-109567949D01*
X250331488Y-109659097D01*
X250210361Y-109747101D01*
X250143493Y-109770960D01*
X250074341Y-109754879D01*
X250024861Y-109703965D01*
X250010300Y-109645165D01*
X250010300Y-101851481D01*
X250030302Y-101783360D01*
X250042977Y-101766824D01*
X250165389Y-101631881D01*
X251197668Y-100493934D01*
X251214125Y-100474210D01*
X251226598Y-100457936D01*
X251278045Y-100356599D01*
X251297730Y-100289560D01*
X251310300Y-100202136D01*
X251310300Y-89087394D01*
X251302965Y-89024475D01*
X251301980Y-89016020D01*
X251301979Y-89016014D01*
X251288862Y-88960517D01*
X251288859Y-88960506D01*
X251275022Y-88916728D01*
X251275021Y-88916727D01*
X251275021Y-88916725D01*
X251244676Y-88868858D01*
X251242933Y-88862781D01*
X251238609Y-88858168D01*
X251233259Y-88829064D01*
X251225097Y-88800617D01*
X251226626Y-88792984D01*
X251225773Y-88788341D01*
X251231328Y-88769526D01*
X251234528Y-88753563D01*
X251236466Y-88748838D01*
X251278045Y-88667068D01*
X251297730Y-88600029D01*
X251297836Y-88599286D01*
X251300710Y-88592285D01*
X251318968Y-88569473D01*
X251334764Y-88544895D01*
X251340876Y-88542103D01*
X251345076Y-88536857D01*
X251372768Y-88527538D01*
X251399344Y-88515402D01*
X251405995Y-88516358D01*
X251412365Y-88514215D01*
X251440699Y-88521347D01*
X251469618Y-88525505D01*
X251474696Y-88529905D01*
X251481214Y-88531546D01*
X251501195Y-88552866D01*
X251523274Y-88571997D01*
X251526983Y-88580382D01*
X251529763Y-88583348D01*
X251530806Y-88589023D01*
X251538983Y-88607507D01*
X251560947Y-88689478D01*
X251560952Y-88689490D01*
X251640637Y-88827508D01*
X251640645Y-88827518D01*
X251753330Y-88940203D01*
X251753335Y-88940207D01*
X251753337Y-88940209D01*
X251753338Y-88940210D01*
X251753340Y-88940211D01*
X251763000Y-88945788D01*
X251891363Y-89019899D01*
X252045311Y-89061149D01*
X252045313Y-89061149D01*
X252204687Y-89061149D01*
X252204689Y-89061149D01*
X252358637Y-89019899D01*
X252487000Y-88945788D01*
X252555995Y-88929050D01*
X252613000Y-88945788D01*
X252741363Y-89019899D01*
X252895311Y-89061149D01*
X252895313Y-89061149D01*
X253054687Y-89061149D01*
X253054689Y-89061149D01*
X253208637Y-89019899D01*
X253346663Y-88940209D01*
X253459360Y-88827512D01*
X253539050Y-88689486D01*
X253580300Y-88535538D01*
X253580300Y-88376160D01*
X253539050Y-88222212D01*
X253459360Y-88084186D01*
X253459358Y-88084184D01*
X253459354Y-88084179D01*
X253400570Y-88025395D01*
X253366544Y-87963083D01*
X253371609Y-87892268D01*
X253414156Y-87835432D01*
X253480676Y-87810621D01*
X253489665Y-87810300D01*
X256875995Y-87810300D01*
X256876000Y-87810300D01*
X256941962Y-87803208D01*
X256993473Y-87792002D01*
X257032278Y-87780873D01*
X257130714Y-87723303D01*
X257183518Y-87677548D01*
X257226359Y-87632112D01*
X257261212Y-87563568D01*
X257278044Y-87530466D01*
X257278044Y-87530465D01*
X257284584Y-87508193D01*
X257297730Y-87463424D01*
X257301193Y-87439343D01*
X257310299Y-87376006D01*
X257310300Y-87376002D01*
X257310300Y-74624004D01*
X257310299Y-74623992D01*
X257305994Y-74583952D01*
X257303208Y-74558038D01*
X257292002Y-74506527D01*
X257280873Y-74467722D01*
X257223303Y-74369286D01*
X257177548Y-74316482D01*
X257132112Y-74273641D01*
X257112786Y-74263814D01*
X257061131Y-74215109D01*
X257044007Y-74146208D01*
X257066852Y-74078988D01*
X257122413Y-74034789D01*
X257169896Y-74025500D01*
X261928082Y-74025500D01*
X261996203Y-74045502D01*
G37*
G04 #@! TD.AperFunction*
G04 #@! TA.AperFunction,Conductor*
G36*
X223533429Y-112430302D02*
G01*
X223579922Y-112483958D01*
X223589446Y-112535563D01*
X223591282Y-112535548D01*
X223638640Y-118046020D01*
X223645870Y-118109993D01*
X223657039Y-118160789D01*
X223667587Y-118197697D01*
X223667589Y-118197702D01*
X223667590Y-118197704D01*
X223716587Y-118282278D01*
X223724756Y-118296377D01*
X223771021Y-118350216D01*
X223771027Y-118350222D01*
X223816288Y-118393250D01*
X223917724Y-118445353D01*
X223985762Y-118465635D01*
X224073125Y-118478562D01*
X224073132Y-118478563D01*
X227373191Y-118492118D01*
X227441225Y-118512399D01*
X227487497Y-118566245D01*
X227497312Y-118636560D01*
X227467554Y-118701019D01*
X227461765Y-118707211D01*
X227365642Y-118803334D01*
X227365637Y-118803340D01*
X227285952Y-118941358D01*
X227285949Y-118941365D01*
X227271295Y-118996056D01*
X227244700Y-119095311D01*
X227244700Y-119254689D01*
X227274896Y-119367383D01*
X227285949Y-119408634D01*
X227285952Y-119408641D01*
X227360060Y-119537000D01*
X227376798Y-119605996D01*
X227360060Y-119663000D01*
X227285952Y-119791358D01*
X227285950Y-119791363D01*
X227244700Y-119945311D01*
X227244700Y-120104689D01*
X227267836Y-120191035D01*
X227285949Y-120258634D01*
X227285952Y-120258641D01*
X227365637Y-120396659D01*
X227365645Y-120396669D01*
X227478333Y-120509357D01*
X227482267Y-120512376D01*
X227524133Y-120569715D01*
X227528353Y-120640586D01*
X227493588Y-120702489D01*
X227430874Y-120735768D01*
X227404153Y-120738329D01*
X223180869Y-120691141D01*
X223113146Y-120697850D01*
X223113136Y-120697851D01*
X223059395Y-120709228D01*
X223059392Y-120709229D01*
X223037104Y-120715553D01*
X223018892Y-120720722D01*
X223018891Y-120720722D01*
X223011225Y-120722898D01*
X223010704Y-120721065D01*
X222950385Y-120728157D01*
X222886585Y-120697010D01*
X222849753Y-120636315D01*
X222845523Y-120604168D01*
X222837865Y-116200126D01*
X222836703Y-116173834D01*
X222834857Y-116152566D01*
X222834836Y-116152325D01*
X222823819Y-116112849D01*
X222824772Y-116041863D01*
X222856082Y-115989890D01*
X222995627Y-115850346D01*
X223116392Y-115684126D01*
X223209669Y-115501061D01*
X223273159Y-115305658D01*
X223305300Y-115102729D01*
X223305300Y-114897271D01*
X223273159Y-114694342D01*
X223209669Y-114498939D01*
X223116392Y-114315874D01*
X222995627Y-114149654D01*
X222995624Y-114149651D01*
X222995622Y-114149648D01*
X222853507Y-114007533D01*
X222819481Y-113945221D01*
X222821447Y-113889084D01*
X222820319Y-113888841D01*
X222821264Y-113884456D01*
X222821268Y-113884443D01*
X222833686Y-113796997D01*
X222832533Y-113133958D01*
X222831494Y-112536519D01*
X222851378Y-112468364D01*
X222904952Y-112421778D01*
X222957494Y-112410300D01*
X223465308Y-112410300D01*
X223533429Y-112430302D01*
G37*
G04 #@! TD.AperFunction*
G04 #@! TA.AperFunction,Conductor*
G36*
X235806149Y-104425456D02*
G01*
X235835879Y-104426164D01*
X235840987Y-104429621D01*
X235847114Y-104430354D01*
X235870047Y-104449289D01*
X235894675Y-104465957D01*
X235897103Y-104471628D01*
X235901861Y-104475556D01*
X235910915Y-104503881D01*
X235922624Y-104531221D01*
X235922081Y-104538808D01*
X235923479Y-104543181D01*
X235919222Y-104578791D01*
X235913010Y-104601976D01*
X235894700Y-104670311D01*
X235894700Y-104829689D01*
X235932577Y-104971047D01*
X235938088Y-104991615D01*
X235937148Y-104991866D01*
X235944700Y-105029824D01*
X235944700Y-106676893D01*
X235944700Y-106823107D01*
X235982542Y-106964338D01*
X235982543Y-106964340D01*
X235982544Y-106964342D01*
X236055646Y-107090958D01*
X236055648Y-107090960D01*
X236055649Y-107090962D01*
X236407796Y-107443109D01*
X236441820Y-107505420D01*
X236444700Y-107532203D01*
X236444700Y-108926893D01*
X236444700Y-109073107D01*
X236482542Y-109214338D01*
X236482543Y-109214340D01*
X236482544Y-109214342D01*
X236555646Y-109340958D01*
X236555648Y-109340960D01*
X236555649Y-109340962D01*
X237157796Y-109943109D01*
X237191820Y-110005420D01*
X237194700Y-110032203D01*
X237194700Y-111970176D01*
X237187149Y-112008134D01*
X237188088Y-112008386D01*
X237185951Y-112016361D01*
X237185950Y-112016363D01*
X237144700Y-112170311D01*
X237144700Y-112329689D01*
X237166300Y-112410300D01*
X237185949Y-112483634D01*
X237185954Y-112483645D01*
X237232349Y-112564004D01*
X237235108Y-112575378D01*
X237241973Y-112584860D01*
X237243326Y-112609255D01*
X237249087Y-112632999D01*
X237245258Y-112644060D01*
X237245907Y-112655748D01*
X237233857Y-112677001D01*
X237225866Y-112700091D01*
X237215765Y-112708912D01*
X237210892Y-112717509D01*
X237190861Y-112730663D01*
X237181843Y-112738540D01*
X237176754Y-112741214D01*
X237160647Y-112747886D01*
X237126074Y-112767846D01*
X237123841Y-112769020D01*
X237121027Y-112769585D01*
X237097842Y-112779189D01*
X237086092Y-112782337D01*
X237054860Y-112790706D01*
X237022250Y-112795000D01*
X236977752Y-112795000D01*
X236945141Y-112790707D01*
X236902153Y-112779188D01*
X236871767Y-112766601D01*
X236857775Y-112758523D01*
X236842153Y-112749503D01*
X236842150Y-112749502D01*
X236774427Y-112720501D01*
X236774424Y-112720500D01*
X236718311Y-112704023D01*
X236671613Y-112694138D01*
X236671610Y-112694138D01*
X236655164Y-112695014D01*
X236557737Y-112700204D01*
X236489840Y-112716677D01*
X236489834Y-112716679D01*
X236407854Y-112749499D01*
X236407844Y-112749504D01*
X236378229Y-112766602D01*
X236347846Y-112779187D01*
X236304860Y-112790706D01*
X236272246Y-112795000D01*
X236227752Y-112795000D01*
X236195141Y-112790707D01*
X236152153Y-112779188D01*
X236121767Y-112766601D01*
X236107775Y-112758523D01*
X236092153Y-112749503D01*
X236092150Y-112749502D01*
X236024427Y-112720501D01*
X236024424Y-112720500D01*
X235968311Y-112704023D01*
X235921613Y-112694138D01*
X235921610Y-112694138D01*
X235905164Y-112695014D01*
X235807737Y-112700204D01*
X235739840Y-112716677D01*
X235739834Y-112716679D01*
X235657854Y-112749499D01*
X235657844Y-112749504D01*
X235628229Y-112766602D01*
X235597846Y-112779187D01*
X235554860Y-112790706D01*
X235522246Y-112795000D01*
X235477752Y-112795000D01*
X235445141Y-112790707D01*
X235402153Y-112779188D01*
X235371767Y-112766601D01*
X235357775Y-112758523D01*
X235342153Y-112749503D01*
X235342150Y-112749502D01*
X235274427Y-112720501D01*
X235274424Y-112720500D01*
X235218311Y-112704023D01*
X235171613Y-112694138D01*
X235171610Y-112694138D01*
X235155164Y-112695014D01*
X235057737Y-112700204D01*
X234989840Y-112716677D01*
X234989834Y-112716679D01*
X234907854Y-112749499D01*
X234907844Y-112749504D01*
X234878229Y-112766602D01*
X234847846Y-112779187D01*
X234804860Y-112790706D01*
X234772246Y-112795000D01*
X234727752Y-112795000D01*
X234695142Y-112790707D01*
X234652153Y-112779188D01*
X234621765Y-112766600D01*
X234589355Y-112747887D01*
X234589342Y-112747881D01*
X234514514Y-112716887D01*
X234514510Y-112716886D01*
X234514508Y-112716885D01*
X234452509Y-112700273D01*
X234452504Y-112700272D01*
X234452494Y-112700270D01*
X234372204Y-112689700D01*
X234372200Y-112689700D01*
X233686300Y-112689700D01*
X233618179Y-112669698D01*
X233571686Y-112616042D01*
X233560300Y-112563700D01*
X233560300Y-109663317D01*
X233580302Y-109595196D01*
X233633958Y-109548703D01*
X233704232Y-109538599D01*
X233749298Y-109554197D01*
X233766363Y-109564050D01*
X233920311Y-109605300D01*
X233920313Y-109605300D01*
X234079687Y-109605300D01*
X234079689Y-109605300D01*
X234233637Y-109564050D01*
X234371663Y-109484360D01*
X234484360Y-109371663D01*
X234564050Y-109233637D01*
X234605300Y-109079689D01*
X234605300Y-108920311D01*
X234564050Y-108766363D01*
X234564048Y-108766361D01*
X234561912Y-108758386D01*
X234562850Y-108758134D01*
X234555300Y-108720176D01*
X234555300Y-107282203D01*
X234575302Y-107214082D01*
X234592200Y-107193112D01*
X235227407Y-106557906D01*
X235300514Y-106431283D01*
X235338356Y-106290051D01*
X235338356Y-106143837D01*
X235338356Y-104550009D01*
X235358358Y-104481888D01*
X235412014Y-104435395D01*
X235482288Y-104425291D01*
X235496951Y-104428298D01*
X235544104Y-104440933D01*
X235544107Y-104440933D01*
X235703481Y-104440933D01*
X235703482Y-104440933D01*
X235764904Y-104424475D01*
X235771069Y-104424621D01*
X235776619Y-104421926D01*
X235806149Y-104425456D01*
G37*
G04 #@! TD.AperFunction*
G04 #@! TA.AperFunction,Conductor*
G36*
X237263812Y-105549579D02*
G01*
X237270395Y-105555708D01*
X238555649Y-106840962D01*
X238659038Y-106944351D01*
X238785662Y-107017458D01*
X238926893Y-107055300D01*
X241717797Y-107055300D01*
X241785918Y-107075302D01*
X241806892Y-107092205D01*
X242463066Y-107748379D01*
X242497092Y-107810691D01*
X242492027Y-107881506D01*
X242463187Y-107925370D01*
X242463661Y-107925817D01*
X242461486Y-107928122D01*
X242461482Y-107928127D01*
X242423555Y-107968350D01*
X242418639Y-107973565D01*
X242366955Y-108075208D01*
X242366955Y-108075209D01*
X242347271Y-108142245D01*
X242347267Y-108142262D01*
X242334700Y-108229668D01*
X242334700Y-108813700D01*
X242314698Y-108881821D01*
X242261042Y-108928314D01*
X242208700Y-108939700D01*
X240377791Y-108939700D01*
X240297498Y-108950270D01*
X240297491Y-108950272D01*
X240282339Y-108954332D01*
X240235492Y-108966884D01*
X240160650Y-108997885D01*
X240160645Y-108997887D01*
X240160639Y-108997890D01*
X240128227Y-109016603D01*
X240097847Y-109029187D01*
X240097842Y-109029189D01*
X240086092Y-109032337D01*
X240054860Y-109040706D01*
X240022250Y-109045000D01*
X239977752Y-109045000D01*
X239945142Y-109040707D01*
X239902153Y-109029188D01*
X239871765Y-109016600D01*
X239839355Y-108997887D01*
X239839342Y-108997881D01*
X239764514Y-108966887D01*
X239764510Y-108966886D01*
X239764508Y-108966885D01*
X239702509Y-108950273D01*
X239702504Y-108950272D01*
X239702494Y-108950270D01*
X239622204Y-108939700D01*
X239622200Y-108939700D01*
X238877800Y-108939700D01*
X238877791Y-108939700D01*
X238797498Y-108950270D01*
X238797491Y-108950272D01*
X238782339Y-108954332D01*
X238735492Y-108966884D01*
X238725386Y-108971070D01*
X238660650Y-108997884D01*
X238660646Y-108997886D01*
X238643368Y-109007862D01*
X238628227Y-109016603D01*
X238597843Y-109029189D01*
X238540381Y-109044586D01*
X238511569Y-109052306D01*
X238486905Y-109060028D01*
X238467496Y-109067008D01*
X238369287Y-109124496D01*
X238369282Y-109124500D01*
X238316485Y-109170249D01*
X238316484Y-109170250D01*
X238273640Y-109215689D01*
X238260410Y-109241707D01*
X238211703Y-109293361D01*
X238142802Y-109310483D01*
X238075582Y-109287635D01*
X238059002Y-109273689D01*
X237592205Y-108806892D01*
X237558179Y-108744580D01*
X237555300Y-108717797D01*
X237555300Y-107176894D01*
X237550989Y-107160804D01*
X237517458Y-107035662D01*
X237444351Y-106909038D01*
X237340962Y-106805649D01*
X237092205Y-106556892D01*
X237058179Y-106494580D01*
X237055300Y-106467797D01*
X237055300Y-105644803D01*
X237075302Y-105576682D01*
X237128958Y-105530189D01*
X237199232Y-105520085D01*
X237263812Y-105549579D01*
G37*
G04 #@! TD.AperFunction*
G04 #@! TA.AperFunction,Conductor*
G36*
X234145788Y-105743691D02*
G01*
X234202624Y-105786238D01*
X234227435Y-105852758D01*
X234227756Y-105861747D01*
X234227756Y-105934741D01*
X234207754Y-106002862D01*
X234190851Y-106023836D01*
X233659038Y-106555649D01*
X233607344Y-106607343D01*
X233555650Y-106659036D01*
X233555646Y-106659041D01*
X233482544Y-106785657D01*
X233482543Y-106785660D01*
X233482542Y-106785662D01*
X233446851Y-106918865D01*
X233444700Y-106926894D01*
X233444700Y-108720176D01*
X233441267Y-108749387D01*
X233438114Y-108762613D01*
X233435950Y-108766363D01*
X233394700Y-108920311D01*
X233394700Y-108944778D01*
X233391267Y-108959183D01*
X233380696Y-108977663D01*
X233374698Y-108998093D01*
X233363423Y-109007862D01*
X233356017Y-109020811D01*
X233337132Y-109030643D01*
X233321042Y-109044586D01*
X233306276Y-109046709D01*
X233293045Y-109053598D01*
X233271844Y-109051659D01*
X233250768Y-109054690D01*
X233236099Y-109051681D01*
X233152158Y-109029189D01*
X233121771Y-109016602D01*
X233093150Y-109000077D01*
X233025421Y-108971075D01*
X233025408Y-108971070D01*
X232968400Y-108954332D01*
X232921714Y-108944451D01*
X232921713Y-108944451D01*
X232807835Y-108950515D01*
X232738844Y-108967252D01*
X232738843Y-108967253D01*
X232656858Y-109000074D01*
X232656847Y-109000080D01*
X232628233Y-109016601D01*
X232597850Y-109029187D01*
X232597846Y-109029188D01*
X232554857Y-109040707D01*
X232522248Y-109045000D01*
X232477752Y-109045000D01*
X232445140Y-109040706D01*
X232402159Y-109029189D01*
X232371771Y-109016602D01*
X232343150Y-109000077D01*
X232275421Y-108971075D01*
X232275408Y-108971070D01*
X232218400Y-108954332D01*
X232171714Y-108944451D01*
X232171713Y-108944451D01*
X232057835Y-108950515D01*
X231988844Y-108967252D01*
X231988843Y-108967253D01*
X231906858Y-109000074D01*
X231906847Y-109000080D01*
X231878233Y-109016601D01*
X231847850Y-109029187D01*
X231847846Y-109029188D01*
X231804857Y-109040707D01*
X231772248Y-109045000D01*
X231727754Y-109045000D01*
X231695140Y-109040706D01*
X231652154Y-109029187D01*
X231621771Y-109016602D01*
X231593151Y-109000079D01*
X231589817Y-108998154D01*
X231524442Y-108971075D01*
X231514974Y-108967153D01*
X231493973Y-108961526D01*
X231451974Y-108950273D01*
X231451969Y-108950272D01*
X231451959Y-108950270D01*
X231371669Y-108939700D01*
X231371665Y-108939700D01*
X230649803Y-108939700D01*
X230581682Y-108919698D01*
X230535189Y-108866042D01*
X230525085Y-108795768D01*
X230554579Y-108731188D01*
X230560708Y-108724605D01*
X231943108Y-107342205D01*
X232005420Y-107308179D01*
X232032203Y-107305300D01*
X232323105Y-107305300D01*
X232323107Y-107305300D01*
X232464338Y-107267458D01*
X232590962Y-107194351D01*
X234012661Y-105772652D01*
X234074973Y-105738627D01*
X234145788Y-105743691D01*
G37*
G04 #@! TD.AperFunction*
G04 #@! TA.AperFunction,Conductor*
G36*
X231875411Y-121098607D02*
G01*
X231943301Y-121119369D01*
X231989191Y-121173540D01*
X232000000Y-121224599D01*
X232000000Y-123100000D01*
X248924000Y-123100000D01*
X248992121Y-123120002D01*
X249038614Y-123173658D01*
X249050000Y-123226000D01*
X249050000Y-128974000D01*
X249029998Y-129042121D01*
X248976342Y-129088614D01*
X248924000Y-129100000D01*
X223176000Y-129100000D01*
X223107879Y-129079998D01*
X223061386Y-129026342D01*
X223050000Y-128974000D01*
X223050000Y-121127415D01*
X223070002Y-121059294D01*
X223123658Y-121012801D01*
X223177405Y-121001423D01*
X231875411Y-121098607D01*
G37*
G04 #@! TD.AperFunction*
G04 #@! TA.AperFunction,Conductor*
G36*
X222442340Y-100370002D02*
G01*
X222488833Y-100423658D01*
X222500218Y-100475779D01*
X222503147Y-102159800D01*
X222509034Y-105544948D01*
X222489150Y-105613103D01*
X222435576Y-105659689D01*
X222415646Y-105666873D01*
X222330096Y-105689796D01*
X222330084Y-105689801D01*
X222229714Y-105747750D01*
X222229704Y-105747758D01*
X222147758Y-105829704D01*
X222147750Y-105829714D01*
X222089801Y-105930084D01*
X222089799Y-105930089D01*
X222059800Y-106042047D01*
X222059800Y-106157953D01*
X222069281Y-106193335D01*
X222089798Y-106269908D01*
X222089801Y-106269915D01*
X222147750Y-106370285D01*
X222147758Y-106370295D01*
X222229704Y-106452241D01*
X222229709Y-106452245D01*
X222229711Y-106452247D01*
X222229712Y-106452248D01*
X222229714Y-106452249D01*
X222296626Y-106490881D01*
X222345619Y-106542264D01*
X222359055Y-106611978D01*
X222332668Y-106677888D01*
X222296626Y-106709119D01*
X222229714Y-106747750D01*
X222229704Y-106747758D01*
X222147758Y-106829704D01*
X222147750Y-106829714D01*
X222089801Y-106930084D01*
X222089799Y-106930089D01*
X222059800Y-107042047D01*
X222059800Y-107157953D01*
X222060420Y-107160266D01*
X222089798Y-107269908D01*
X222089801Y-107269915D01*
X222147750Y-107370285D01*
X222147758Y-107370295D01*
X222229704Y-107452241D01*
X222229709Y-107452245D01*
X222229711Y-107452247D01*
X222229712Y-107452248D01*
X222229714Y-107452249D01*
X222296626Y-107490881D01*
X222345619Y-107542264D01*
X222359055Y-107611978D01*
X222332668Y-107677888D01*
X222296626Y-107709119D01*
X222229714Y-107747750D01*
X222229704Y-107747758D01*
X222147758Y-107829704D01*
X222147750Y-107829714D01*
X222089801Y-107930084D01*
X222089798Y-107930091D01*
X222072997Y-107992796D01*
X222059800Y-108042047D01*
X222059800Y-108157953D01*
X222077815Y-108225187D01*
X222089798Y-108269908D01*
X222089801Y-108269915D01*
X222147750Y-108370285D01*
X222147758Y-108370295D01*
X222229704Y-108452241D01*
X222229709Y-108452245D01*
X222229711Y-108452247D01*
X222330089Y-108510201D01*
X222421056Y-108534575D01*
X222481677Y-108571525D01*
X222512699Y-108635386D01*
X222514444Y-108656062D01*
X222516360Y-109758121D01*
X222496476Y-109826276D01*
X222442901Y-109872862D01*
X222372645Y-109883088D01*
X222308013Y-109853708D01*
X222301265Y-109847435D01*
X222230937Y-109777107D01*
X222230934Y-109777105D01*
X222230932Y-109777103D01*
X222068508Y-109659095D01*
X221889622Y-109567948D01*
X221698680Y-109505907D01*
X221500384Y-109474500D01*
X221299616Y-109474500D01*
X221101320Y-109505907D01*
X221101317Y-109505907D01*
X221101316Y-109505908D01*
X220910378Y-109567948D01*
X220910376Y-109567949D01*
X220731488Y-109659097D01*
X220569065Y-109777105D01*
X220569062Y-109777107D01*
X220427107Y-109919062D01*
X220427105Y-109919065D01*
X220309097Y-110081488D01*
X220217949Y-110260376D01*
X220217948Y-110260378D01*
X220158920Y-110442048D01*
X220155907Y-110451320D01*
X220124500Y-110649616D01*
X220124500Y-110653927D01*
X220124500Y-110850384D01*
X220155907Y-111048680D01*
X220217948Y-111239622D01*
X220309095Y-111418508D01*
X220427103Y-111580932D01*
X220427105Y-111580934D01*
X220427107Y-111580937D01*
X220569062Y-111722892D01*
X220569065Y-111722894D01*
X220569068Y-111722897D01*
X220731492Y-111840905D01*
X220910378Y-111932052D01*
X221101320Y-111994093D01*
X221299616Y-112025500D01*
X221299619Y-112025500D01*
X221500381Y-112025500D01*
X221500384Y-112025500D01*
X221698680Y-111994093D01*
X221889622Y-111932052D01*
X222068508Y-111840905D01*
X222230932Y-111722897D01*
X222304710Y-111649118D01*
X222367020Y-111615095D01*
X222437836Y-111620159D01*
X222494672Y-111662705D01*
X222519483Y-111729225D01*
X222519804Y-111737996D01*
X222523386Y-113797537D01*
X222503502Y-113865692D01*
X222449928Y-113912278D01*
X222379671Y-113922505D01*
X222358450Y-113917589D01*
X222267002Y-113887876D01*
X222267003Y-113887876D01*
X222266999Y-113887875D01*
X222266998Y-113887875D01*
X222089736Y-113859800D01*
X221910264Y-113859800D01*
X221839359Y-113871030D01*
X221732999Y-113887875D01*
X221562316Y-113943334D01*
X221402401Y-114024815D01*
X221257206Y-114130306D01*
X221257203Y-114130308D01*
X221130308Y-114257203D01*
X221130306Y-114257206D01*
X221024815Y-114402401D01*
X220943334Y-114562316D01*
X220887875Y-114732999D01*
X220885538Y-114747758D01*
X220859800Y-114910264D01*
X220859800Y-115089736D01*
X220874110Y-115180089D01*
X220887875Y-115267000D01*
X220943334Y-115437683D01*
X220943335Y-115437685D01*
X221015702Y-115579714D01*
X221024815Y-115597598D01*
X221048418Y-115630084D01*
X221130304Y-115742791D01*
X221130306Y-115742793D01*
X221130308Y-115742796D01*
X221257203Y-115869691D01*
X221257206Y-115869693D01*
X221257209Y-115869696D01*
X221402405Y-115975187D01*
X221562315Y-116056665D01*
X221733002Y-116112125D01*
X221910264Y-116140200D01*
X221910266Y-116140200D01*
X222089734Y-116140200D01*
X222089736Y-116140200D01*
X222266998Y-116112125D01*
X222362630Y-116081051D01*
X222433596Y-116079024D01*
X222494394Y-116115686D01*
X222525719Y-116179398D01*
X222527565Y-116200666D01*
X222535836Y-120956436D01*
X222515952Y-121024591D01*
X222462378Y-121071177D01*
X222392121Y-121081403D01*
X222377235Y-121078364D01*
X222307953Y-121059800D01*
X222192047Y-121059800D01*
X222132051Y-121075875D01*
X222080091Y-121089798D01*
X222080084Y-121089801D01*
X221979714Y-121147750D01*
X221979704Y-121147758D01*
X221897758Y-121229704D01*
X221897750Y-121229714D01*
X221839801Y-121330084D01*
X221839799Y-121330089D01*
X221809800Y-121442047D01*
X221809800Y-121557953D01*
X221826195Y-121619141D01*
X221839798Y-121669908D01*
X221839801Y-121669915D01*
X221897750Y-121770285D01*
X221897758Y-121770295D01*
X221979704Y-121852241D01*
X221979709Y-121852245D01*
X221979711Y-121852247D01*
X222080089Y-121910201D01*
X222192047Y-121940200D01*
X222192049Y-121940200D01*
X222307950Y-121940200D01*
X222307953Y-121940200D01*
X222379115Y-121921132D01*
X222450089Y-121922822D01*
X222508885Y-121962616D01*
X222536833Y-122027880D01*
X222537724Y-122042620D01*
X222546151Y-126887912D01*
X222526267Y-126956067D01*
X222472693Y-127002653D01*
X222402436Y-127012880D01*
X222337804Y-126983499D01*
X222331056Y-126977226D01*
X222230937Y-126877107D01*
X222230934Y-126877105D01*
X222230932Y-126877103D01*
X222105076Y-126785663D01*
X222068506Y-126759093D01*
X222064290Y-126756510D01*
X222064879Y-126755548D01*
X222017173Y-126710478D01*
X222000000Y-126646975D01*
X222000000Y-124100000D01*
X220274178Y-124100000D01*
X220206057Y-124079998D01*
X220159564Y-124026342D01*
X220149460Y-123956068D01*
X220157768Y-123925784D01*
X220160197Y-123919917D01*
X220160201Y-123919911D01*
X220190200Y-123807953D01*
X220190200Y-123692047D01*
X220160201Y-123580089D01*
X220102247Y-123479711D01*
X220102245Y-123479709D01*
X220102241Y-123479704D01*
X220020295Y-123397758D01*
X220020285Y-123397750D01*
X219919915Y-123339801D01*
X219919912Y-123339800D01*
X219919911Y-123339799D01*
X219919909Y-123339798D01*
X219919908Y-123339798D01*
X219889909Y-123331760D01*
X219807953Y-123309800D01*
X219692047Y-123309800D01*
X219632051Y-123325875D01*
X219580091Y-123339798D01*
X219580084Y-123339801D01*
X219479714Y-123397750D01*
X219479704Y-123397758D01*
X219397758Y-123479704D01*
X219397750Y-123479714D01*
X219339801Y-123580084D01*
X219339798Y-123580091D01*
X219320780Y-123651068D01*
X219309800Y-123692047D01*
X219309800Y-123807953D01*
X219337090Y-123909800D01*
X219339799Y-123919911D01*
X219342232Y-123925784D01*
X219349820Y-123996374D01*
X219318039Y-124059860D01*
X219256980Y-124096087D01*
X219225822Y-124100000D01*
X218924727Y-124100000D01*
X218856606Y-124079998D01*
X218835632Y-124063095D01*
X218770295Y-123997758D01*
X218770285Y-123997750D01*
X218669915Y-123939801D01*
X218669912Y-123939800D01*
X218669911Y-123939799D01*
X218669909Y-123939798D01*
X218669908Y-123939798D01*
X218617606Y-123925784D01*
X218557953Y-123909800D01*
X218442047Y-123909800D01*
X218382394Y-123925784D01*
X218330091Y-123939798D01*
X218330084Y-123939801D01*
X218229714Y-123997750D01*
X218229704Y-123997758D01*
X218164368Y-124063095D01*
X218102056Y-124097121D01*
X218075273Y-124100000D01*
X217174727Y-124100000D01*
X217106606Y-124079998D01*
X217085632Y-124063095D01*
X217020295Y-123997758D01*
X217020285Y-123997750D01*
X216919915Y-123939801D01*
X216919912Y-123939800D01*
X216919911Y-123939799D01*
X216919909Y-123939798D01*
X216919908Y-123939798D01*
X216867606Y-123925784D01*
X216807953Y-123909800D01*
X216692047Y-123909800D01*
X216632394Y-123925784D01*
X216580091Y-123939798D01*
X216580084Y-123939801D01*
X216479714Y-123997750D01*
X216479704Y-123997758D01*
X216414368Y-124063095D01*
X216352056Y-124097121D01*
X216325273Y-124100000D01*
X215174727Y-124100000D01*
X215106606Y-124079998D01*
X215085632Y-124063095D01*
X215020295Y-123997758D01*
X215020285Y-123997750D01*
X214919915Y-123939801D01*
X214919912Y-123939800D01*
X214919911Y-123939799D01*
X214919909Y-123939798D01*
X214919908Y-123939798D01*
X214867606Y-123925784D01*
X214807953Y-123909800D01*
X214692047Y-123909800D01*
X214632394Y-123925784D01*
X214580091Y-123939798D01*
X214580084Y-123939801D01*
X214479714Y-123997750D01*
X214479704Y-123997758D01*
X214414368Y-124063095D01*
X214352056Y-124097121D01*
X214325273Y-124100000D01*
X213674727Y-124100000D01*
X213606606Y-124079998D01*
X213585632Y-124063095D01*
X213520295Y-123997758D01*
X213520285Y-123997750D01*
X213419915Y-123939801D01*
X213419912Y-123939800D01*
X213419911Y-123939799D01*
X213419909Y-123939798D01*
X213419908Y-123939798D01*
X213367606Y-123925784D01*
X213307953Y-123909800D01*
X213192047Y-123909800D01*
X213132394Y-123925784D01*
X213080091Y-123939798D01*
X213080084Y-123939801D01*
X212979714Y-123997750D01*
X212979704Y-123997758D01*
X212914368Y-124063095D01*
X212852056Y-124097121D01*
X212825273Y-124100000D01*
X211924727Y-124100000D01*
X211856606Y-124079998D01*
X211835632Y-124063095D01*
X211770295Y-123997758D01*
X211770285Y-123997750D01*
X211669915Y-123939801D01*
X211669912Y-123939800D01*
X211669911Y-123939799D01*
X211669909Y-123939798D01*
X211669908Y-123939798D01*
X211617606Y-123925784D01*
X211557953Y-123909800D01*
X211442047Y-123909800D01*
X211382394Y-123925784D01*
X211330091Y-123939798D01*
X211330084Y-123939801D01*
X211229714Y-123997750D01*
X211229704Y-123997758D01*
X211164368Y-124063095D01*
X211102056Y-124097121D01*
X211075273Y-124100000D01*
X210174727Y-124100000D01*
X210106606Y-124079998D01*
X210085632Y-124063095D01*
X210020295Y-123997758D01*
X210020285Y-123997750D01*
X209919915Y-123939801D01*
X209919912Y-123939800D01*
X209919911Y-123939799D01*
X209919909Y-123939798D01*
X209919908Y-123939798D01*
X209867606Y-123925784D01*
X209807953Y-123909800D01*
X209692047Y-123909800D01*
X209632394Y-123925784D01*
X209580091Y-123939798D01*
X209580084Y-123939801D01*
X209479714Y-123997750D01*
X209479704Y-123997758D01*
X209414368Y-124063095D01*
X209352056Y-124097121D01*
X209325273Y-124100000D01*
X208424727Y-124100000D01*
X208356606Y-124079998D01*
X208335632Y-124063095D01*
X208270295Y-123997758D01*
X208270285Y-123997750D01*
X208169915Y-123939801D01*
X208169912Y-123939800D01*
X208169911Y-123939799D01*
X208169909Y-123939798D01*
X208169908Y-123939798D01*
X208117606Y-123925784D01*
X208057953Y-123909800D01*
X207942047Y-123909800D01*
X207882394Y-123925784D01*
X207830091Y-123939798D01*
X207830084Y-123939801D01*
X207729714Y-123997750D01*
X207729704Y-123997758D01*
X207664368Y-124063095D01*
X207602056Y-124097121D01*
X207575273Y-124100000D01*
X206924727Y-124100000D01*
X206856606Y-124079998D01*
X206835632Y-124063095D01*
X206770295Y-123997758D01*
X206770285Y-123997750D01*
X206669915Y-123939801D01*
X206669912Y-123939800D01*
X206669911Y-123939799D01*
X206669909Y-123939798D01*
X206669908Y-123939798D01*
X206617606Y-123925784D01*
X206557953Y-123909800D01*
X206442047Y-123909800D01*
X206382394Y-123925784D01*
X206330091Y-123939798D01*
X206330084Y-123939801D01*
X206229714Y-123997750D01*
X206229704Y-123997758D01*
X206164368Y-124063095D01*
X206102056Y-124097121D01*
X206075273Y-124100000D01*
X204924727Y-124100000D01*
X204856606Y-124079998D01*
X204835632Y-124063095D01*
X204770295Y-123997758D01*
X204770285Y-123997750D01*
X204669915Y-123939801D01*
X204669912Y-123939800D01*
X204669911Y-123939799D01*
X204669909Y-123939798D01*
X204669908Y-123939798D01*
X204617606Y-123925784D01*
X204557953Y-123909800D01*
X204442047Y-123909800D01*
X204382394Y-123925784D01*
X204330091Y-123939798D01*
X204330084Y-123939801D01*
X204229714Y-123997750D01*
X204229704Y-123997758D01*
X204164368Y-124063095D01*
X204102056Y-124097121D01*
X204075273Y-124100000D01*
X199167085Y-124100000D01*
X199098964Y-124079998D01*
X199052471Y-124026342D01*
X199041085Y-123974221D01*
X199039736Y-123198297D01*
X201316050Y-123198297D01*
X201316050Y-123314203D01*
X201322909Y-123339801D01*
X201346048Y-123426158D01*
X201346051Y-123426165D01*
X201404000Y-123526535D01*
X201404008Y-123526545D01*
X201485954Y-123608491D01*
X201485959Y-123608495D01*
X201485961Y-123608497D01*
X201586339Y-123666451D01*
X201698297Y-123696450D01*
X201698299Y-123696450D01*
X201814201Y-123696450D01*
X201814203Y-123696450D01*
X201926161Y-123666451D01*
X202026539Y-123608497D01*
X202108497Y-123526539D01*
X202166451Y-123426161D01*
X202196450Y-123314203D01*
X202196450Y-123198297D01*
X202166451Y-123086339D01*
X202108497Y-122985961D01*
X202108495Y-122985959D01*
X202108491Y-122985954D01*
X202026545Y-122904008D01*
X202026535Y-122904000D01*
X201926165Y-122846051D01*
X201926162Y-122846050D01*
X201926161Y-122846049D01*
X201926159Y-122846048D01*
X201926158Y-122846048D01*
X201896159Y-122838010D01*
X201814203Y-122816050D01*
X201698297Y-122816050D01*
X201638301Y-122832125D01*
X201586341Y-122846048D01*
X201586334Y-122846051D01*
X201485964Y-122904000D01*
X201485954Y-122904008D01*
X201404008Y-122985954D01*
X201404000Y-122985964D01*
X201346051Y-123086334D01*
X201346049Y-123086339D01*
X201316050Y-123198297D01*
X199039736Y-123198297D01*
X199038442Y-122454547D01*
X203159800Y-122454547D01*
X203159800Y-122570453D01*
X203181760Y-122652409D01*
X203189798Y-122682408D01*
X203189801Y-122682415D01*
X203247750Y-122782785D01*
X203247758Y-122782795D01*
X203329704Y-122864741D01*
X203329709Y-122864745D01*
X203329711Y-122864747D01*
X203430089Y-122922701D01*
X203542047Y-122952700D01*
X203542049Y-122952700D01*
X203657951Y-122952700D01*
X203657953Y-122952700D01*
X203769911Y-122922701D01*
X203870289Y-122864747D01*
X203952247Y-122782789D01*
X204010201Y-122682411D01*
X204040200Y-122570453D01*
X204040200Y-122454547D01*
X204036851Y-122442047D01*
X218680563Y-122442047D01*
X218680563Y-122557953D01*
X218702523Y-122639909D01*
X218710561Y-122669908D01*
X218710564Y-122669915D01*
X218768513Y-122770285D01*
X218768521Y-122770295D01*
X218850467Y-122852241D01*
X218850472Y-122852245D01*
X218850474Y-122852247D01*
X218950852Y-122910201D01*
X219062810Y-122940200D01*
X219062812Y-122940200D01*
X219178714Y-122940200D01*
X219178716Y-122940200D01*
X219290674Y-122910201D01*
X219391052Y-122852247D01*
X219473010Y-122770289D01*
X219530964Y-122669911D01*
X219560963Y-122557953D01*
X219560963Y-122442047D01*
X219530964Y-122330089D01*
X219473010Y-122229711D01*
X219473008Y-122229709D01*
X219473004Y-122229704D01*
X219391058Y-122147758D01*
X219391048Y-122147750D01*
X219290678Y-122089801D01*
X219290675Y-122089800D01*
X219290674Y-122089799D01*
X219290672Y-122089798D01*
X219290671Y-122089798D01*
X219260672Y-122081760D01*
X219178716Y-122059800D01*
X219062810Y-122059800D01*
X219002814Y-122075875D01*
X218950854Y-122089798D01*
X218950847Y-122089801D01*
X218850477Y-122147750D01*
X218850467Y-122147758D01*
X218768521Y-122229704D01*
X218768513Y-122229714D01*
X218710564Y-122330084D01*
X218710561Y-122330091D01*
X218707212Y-122342591D01*
X218680563Y-122442047D01*
X204036851Y-122442047D01*
X204010201Y-122342589D01*
X203952247Y-122242211D01*
X203952245Y-122242209D01*
X203952241Y-122242204D01*
X203870295Y-122160258D01*
X203870285Y-122160250D01*
X203769915Y-122102301D01*
X203769912Y-122102300D01*
X203769911Y-122102299D01*
X203769909Y-122102298D01*
X203769908Y-122102298D01*
X203739909Y-122094260D01*
X203657953Y-122072300D01*
X203542047Y-122072300D01*
X203482051Y-122088375D01*
X203430091Y-122102298D01*
X203430084Y-122102301D01*
X203329714Y-122160250D01*
X203329704Y-122160258D01*
X203247758Y-122242204D01*
X203247750Y-122242214D01*
X203189801Y-122342584D01*
X203189799Y-122342589D01*
X203159800Y-122454547D01*
X199038442Y-122454547D01*
X199038226Y-122330091D01*
X199036419Y-121290903D01*
X205910944Y-121290903D01*
X205910944Y-121406809D01*
X205932904Y-121488765D01*
X205940942Y-121518764D01*
X205940945Y-121518771D01*
X205998894Y-121619141D01*
X205998902Y-121619151D01*
X206080848Y-121701097D01*
X206080853Y-121701101D01*
X206080855Y-121701103D01*
X206181233Y-121759057D01*
X206293191Y-121789056D01*
X206293193Y-121789056D01*
X206409095Y-121789056D01*
X206409097Y-121789056D01*
X206521055Y-121759057D01*
X206621433Y-121701103D01*
X206703391Y-121619145D01*
X206761345Y-121518767D01*
X206791344Y-121406809D01*
X206791344Y-121290903D01*
X206761345Y-121178945D01*
X206709876Y-121089799D01*
X206703393Y-121078570D01*
X206703385Y-121078560D01*
X206621439Y-120996614D01*
X206621429Y-120996606D01*
X206521059Y-120938657D01*
X206521056Y-120938656D01*
X206521055Y-120938655D01*
X206521053Y-120938654D01*
X206521052Y-120938654D01*
X206491053Y-120930616D01*
X206409097Y-120908656D01*
X206293191Y-120908656D01*
X206233195Y-120924731D01*
X206181235Y-120938654D01*
X206181228Y-120938657D01*
X206080858Y-120996606D01*
X206080848Y-120996614D01*
X205998902Y-121078560D01*
X205998894Y-121078570D01*
X205940945Y-121178940D01*
X205940942Y-121178947D01*
X205921924Y-121249924D01*
X205910944Y-121290903D01*
X199036419Y-121290903D01*
X199036405Y-121282864D01*
X199034228Y-120030868D01*
X203208038Y-120030868D01*
X203208038Y-120146774D01*
X203229998Y-120228730D01*
X203238036Y-120258729D01*
X203238039Y-120258736D01*
X203295988Y-120359106D01*
X203295996Y-120359116D01*
X203377942Y-120441062D01*
X203377947Y-120441066D01*
X203377949Y-120441068D01*
X203478327Y-120499022D01*
X203590285Y-120529021D01*
X203590287Y-120529021D01*
X203706189Y-120529021D01*
X203706191Y-120529021D01*
X203818149Y-120499022D01*
X203918527Y-120441068D01*
X204000485Y-120359110D01*
X204058439Y-120258732D01*
X204088438Y-120146774D01*
X204088438Y-120042047D01*
X217180563Y-120042047D01*
X217180563Y-120157953D01*
X217202523Y-120239909D01*
X217210561Y-120269908D01*
X217210564Y-120269915D01*
X217268513Y-120370285D01*
X217268521Y-120370295D01*
X217284131Y-120385905D01*
X217318157Y-120448217D01*
X217313092Y-120519032D01*
X217284131Y-120564095D01*
X217268521Y-120579704D01*
X217268513Y-120579714D01*
X217210564Y-120680084D01*
X217210562Y-120680089D01*
X217180563Y-120792047D01*
X217180563Y-120907953D01*
X217188790Y-120938655D01*
X217210561Y-121019908D01*
X217210564Y-121019915D01*
X217268513Y-121120285D01*
X217268521Y-121120295D01*
X217350467Y-121202241D01*
X217350472Y-121202245D01*
X217350474Y-121202247D01*
X217350475Y-121202248D01*
X217350477Y-121202249D01*
X217421033Y-121242985D01*
X217450852Y-121260201D01*
X217562810Y-121290200D01*
X217562812Y-121290200D01*
X217678714Y-121290200D01*
X217678716Y-121290200D01*
X217790674Y-121260201D01*
X217891052Y-121202247D01*
X217973010Y-121120289D01*
X218030964Y-121019911D01*
X218060963Y-120907953D01*
X218060963Y-120792047D01*
X218030964Y-120680089D01*
X217973010Y-120579711D01*
X217973008Y-120579709D01*
X217973004Y-120579704D01*
X217957395Y-120564095D01*
X217923369Y-120501783D01*
X217928434Y-120430968D01*
X217957395Y-120385905D01*
X217973004Y-120370295D01*
X217973010Y-120370289D01*
X218030964Y-120269911D01*
X218060963Y-120157953D01*
X218060963Y-120042047D01*
X218030964Y-119930089D01*
X218013748Y-119900270D01*
X217973012Y-119829714D01*
X217973004Y-119829704D01*
X217891058Y-119747758D01*
X217891048Y-119747750D01*
X217790678Y-119689801D01*
X217790675Y-119689800D01*
X217790674Y-119689799D01*
X217790672Y-119689798D01*
X217790671Y-119689798D01*
X217748953Y-119678620D01*
X217678716Y-119659800D01*
X217562810Y-119659800D01*
X217502814Y-119675875D01*
X217450854Y-119689798D01*
X217450847Y-119689801D01*
X217350477Y-119747750D01*
X217350467Y-119747758D01*
X217268521Y-119829704D01*
X217268513Y-119829714D01*
X217210564Y-119930084D01*
X217210561Y-119930091D01*
X217191543Y-120001068D01*
X217180563Y-120042047D01*
X204088438Y-120042047D01*
X204088438Y-120030868D01*
X204058439Y-119918910D01*
X204006941Y-119829714D01*
X204000487Y-119818535D01*
X204000479Y-119818525D01*
X203918533Y-119736579D01*
X203918523Y-119736571D01*
X203818153Y-119678622D01*
X203818150Y-119678621D01*
X203818149Y-119678620D01*
X203818147Y-119678619D01*
X203818146Y-119678619D01*
X203785661Y-119669915D01*
X203706191Y-119648621D01*
X203590285Y-119648621D01*
X203530289Y-119664696D01*
X203478329Y-119678619D01*
X203478322Y-119678622D01*
X203377952Y-119736571D01*
X203377942Y-119736579D01*
X203295996Y-119818525D01*
X203295988Y-119818535D01*
X203238039Y-119918905D01*
X203238036Y-119918912D01*
X203235041Y-119930091D01*
X203208038Y-120030868D01*
X199034228Y-120030868D01*
X199034214Y-120022829D01*
X199033204Y-119442047D01*
X206659800Y-119442047D01*
X206659800Y-119557953D01*
X206681760Y-119639909D01*
X206689798Y-119669908D01*
X206689801Y-119669915D01*
X206747750Y-119770285D01*
X206747758Y-119770295D01*
X206829704Y-119852241D01*
X206829709Y-119852245D01*
X206829711Y-119852247D01*
X206930089Y-119910201D01*
X207042047Y-119940200D01*
X207042049Y-119940200D01*
X207157951Y-119940200D01*
X207157953Y-119940200D01*
X207269911Y-119910201D01*
X207370289Y-119852247D01*
X207452247Y-119770289D01*
X207510201Y-119669911D01*
X207540200Y-119557953D01*
X207540200Y-119442047D01*
X207510201Y-119330089D01*
X207475455Y-119269908D01*
X207452249Y-119229714D01*
X207452241Y-119229704D01*
X207370295Y-119147758D01*
X207370282Y-119147748D01*
X207361899Y-119142908D01*
X207361898Y-119142908D01*
X207269915Y-119089801D01*
X207269912Y-119089800D01*
X207269911Y-119089799D01*
X207269909Y-119089798D01*
X207269908Y-119089798D01*
X207239909Y-119081760D01*
X207157953Y-119059800D01*
X207042047Y-119059800D01*
X206982051Y-119075875D01*
X206930091Y-119089798D01*
X206930084Y-119089801D01*
X206829714Y-119147750D01*
X206829704Y-119147758D01*
X206747758Y-119229704D01*
X206747750Y-119229714D01*
X206689801Y-119330084D01*
X206689798Y-119330091D01*
X206679027Y-119370289D01*
X206659800Y-119442047D01*
X199033204Y-119442047D01*
X199033190Y-119434008D01*
X199032508Y-119042047D01*
X208559800Y-119042047D01*
X208559800Y-119157953D01*
X208579028Y-119229714D01*
X208589798Y-119269908D01*
X208589801Y-119269915D01*
X208647750Y-119370285D01*
X208647758Y-119370295D01*
X208729704Y-119452241D01*
X208729709Y-119452245D01*
X208729711Y-119452247D01*
X208830089Y-119510201D01*
X208942047Y-119540200D01*
X208942049Y-119540200D01*
X209057951Y-119540200D01*
X209057953Y-119540200D01*
X209169911Y-119510201D01*
X209270289Y-119452247D01*
X209352247Y-119370289D01*
X209410201Y-119269911D01*
X209440200Y-119157953D01*
X209440200Y-119042047D01*
X210309800Y-119042047D01*
X210309800Y-119157953D01*
X210329028Y-119229714D01*
X210339798Y-119269908D01*
X210339801Y-119269915D01*
X210397750Y-119370285D01*
X210397758Y-119370295D01*
X210479704Y-119452241D01*
X210479709Y-119452245D01*
X210479711Y-119452247D01*
X210580089Y-119510201D01*
X210692047Y-119540200D01*
X210692049Y-119540200D01*
X210807951Y-119540200D01*
X210807953Y-119540200D01*
X210919911Y-119510201D01*
X211020289Y-119452247D01*
X211102247Y-119370289D01*
X211160201Y-119269911D01*
X211190200Y-119157953D01*
X211190200Y-119042047D01*
X211809800Y-119042047D01*
X211809800Y-119157953D01*
X211829028Y-119229714D01*
X211839798Y-119269908D01*
X211839801Y-119269915D01*
X211897750Y-119370285D01*
X211897758Y-119370295D01*
X211979704Y-119452241D01*
X211979709Y-119452245D01*
X211979711Y-119452247D01*
X212080089Y-119510201D01*
X212192047Y-119540200D01*
X212192049Y-119540200D01*
X212307951Y-119540200D01*
X212307953Y-119540200D01*
X212419911Y-119510201D01*
X212520289Y-119452247D01*
X212602247Y-119370289D01*
X212660201Y-119269911D01*
X212690200Y-119157953D01*
X212690200Y-119042047D01*
X212660201Y-118930089D01*
X212609370Y-118842048D01*
X212609369Y-118842047D01*
X213330563Y-118842047D01*
X213330563Y-118957953D01*
X213352523Y-119039909D01*
X213360561Y-119069908D01*
X213360564Y-119069915D01*
X213418513Y-119170285D01*
X213418521Y-119170295D01*
X213500467Y-119252241D01*
X213500472Y-119252245D01*
X213500474Y-119252247D01*
X213500475Y-119252248D01*
X213500477Y-119252249D01*
X213531075Y-119269915D01*
X213600852Y-119310201D01*
X213712810Y-119340200D01*
X213712812Y-119340200D01*
X213828714Y-119340200D01*
X213828716Y-119340200D01*
X213940674Y-119310201D01*
X214041052Y-119252247D01*
X214123010Y-119170289D01*
X214180964Y-119069911D01*
X214210963Y-118957953D01*
X214210963Y-118842047D01*
X214180964Y-118730089D01*
X214123010Y-118629711D01*
X214123008Y-118629709D01*
X214123004Y-118629704D01*
X214041058Y-118547758D01*
X214041048Y-118547750D01*
X213940678Y-118489801D01*
X213940675Y-118489800D01*
X213940674Y-118489799D01*
X213940672Y-118489798D01*
X213940671Y-118489798D01*
X213910672Y-118481760D01*
X213828716Y-118459800D01*
X213712810Y-118459800D01*
X213652814Y-118475875D01*
X213600854Y-118489798D01*
X213600847Y-118489801D01*
X213500477Y-118547750D01*
X213500467Y-118547758D01*
X213418521Y-118629704D01*
X213418513Y-118629714D01*
X213360564Y-118730084D01*
X213360561Y-118730091D01*
X213341543Y-118801068D01*
X213330563Y-118842047D01*
X212609369Y-118842047D01*
X212602249Y-118829714D01*
X212602241Y-118829704D01*
X212520295Y-118747758D01*
X212520285Y-118747750D01*
X212419915Y-118689801D01*
X212419912Y-118689800D01*
X212419911Y-118689799D01*
X212419909Y-118689798D01*
X212419908Y-118689798D01*
X212389909Y-118681760D01*
X212307953Y-118659800D01*
X212192047Y-118659800D01*
X212132051Y-118675875D01*
X212080091Y-118689798D01*
X212080084Y-118689801D01*
X211979714Y-118747750D01*
X211979704Y-118747758D01*
X211897758Y-118829704D01*
X211897750Y-118829714D01*
X211839801Y-118930084D01*
X211839799Y-118930089D01*
X211809800Y-119042047D01*
X211190200Y-119042047D01*
X211160201Y-118930089D01*
X211109370Y-118842048D01*
X211102249Y-118829714D01*
X211102241Y-118829704D01*
X211020295Y-118747758D01*
X211020285Y-118747750D01*
X210919915Y-118689801D01*
X210919912Y-118689800D01*
X210919911Y-118689799D01*
X210919909Y-118689798D01*
X210919908Y-118689798D01*
X210889909Y-118681760D01*
X210807953Y-118659800D01*
X210692047Y-118659800D01*
X210632051Y-118675875D01*
X210580091Y-118689798D01*
X210580084Y-118689801D01*
X210479714Y-118747750D01*
X210479704Y-118747758D01*
X210397758Y-118829704D01*
X210397750Y-118829714D01*
X210339801Y-118930084D01*
X210339799Y-118930089D01*
X210309800Y-119042047D01*
X209440200Y-119042047D01*
X209410201Y-118930089D01*
X209359370Y-118842048D01*
X209352249Y-118829714D01*
X209352241Y-118829704D01*
X209270295Y-118747758D01*
X209270285Y-118747750D01*
X209169915Y-118689801D01*
X209169912Y-118689800D01*
X209169911Y-118689799D01*
X209169909Y-118689798D01*
X209169908Y-118689798D01*
X209139909Y-118681760D01*
X209057953Y-118659800D01*
X208942047Y-118659800D01*
X208882051Y-118675875D01*
X208830091Y-118689798D01*
X208830084Y-118689801D01*
X208729714Y-118747750D01*
X208729704Y-118747758D01*
X208647758Y-118829704D01*
X208647750Y-118829714D01*
X208589801Y-118930084D01*
X208589799Y-118930089D01*
X208559800Y-119042047D01*
X199032508Y-119042047D01*
X199028334Y-116642047D01*
X199459800Y-116642047D01*
X199459800Y-116757953D01*
X199479028Y-116829714D01*
X199489798Y-116869908D01*
X199489801Y-116869915D01*
X199547750Y-116970285D01*
X199547758Y-116970295D01*
X199629704Y-117052241D01*
X199629709Y-117052245D01*
X199629711Y-117052247D01*
X199629712Y-117052248D01*
X199629714Y-117052249D01*
X199679460Y-117080970D01*
X199730089Y-117110201D01*
X199842047Y-117140200D01*
X199842049Y-117140200D01*
X199957951Y-117140200D01*
X199957953Y-117140200D01*
X200069911Y-117110201D01*
X200120540Y-117080970D01*
X202966282Y-117080970D01*
X202966282Y-117196876D01*
X202979916Y-117247758D01*
X202996280Y-117308831D01*
X202996283Y-117308838D01*
X203054232Y-117409208D01*
X203054240Y-117409218D01*
X203136186Y-117491164D01*
X203136191Y-117491168D01*
X203136193Y-117491170D01*
X203136194Y-117491171D01*
X203136196Y-117491172D01*
X203185973Y-117519911D01*
X203236571Y-117549124D01*
X203348529Y-117579123D01*
X203348531Y-117579123D01*
X203464433Y-117579123D01*
X203464435Y-117579123D01*
X203576393Y-117549124D01*
X203675252Y-117492047D01*
X204959800Y-117492047D01*
X204959800Y-117607953D01*
X204981760Y-117689909D01*
X204989798Y-117719908D01*
X204989801Y-117719915D01*
X205047750Y-117820285D01*
X205047758Y-117820295D01*
X205129704Y-117902241D01*
X205129709Y-117902245D01*
X205129711Y-117902247D01*
X205230089Y-117960201D01*
X205342047Y-117990200D01*
X205342049Y-117990200D01*
X205457951Y-117990200D01*
X205457953Y-117990200D01*
X205569911Y-117960201D01*
X205670289Y-117902247D01*
X205752247Y-117820289D01*
X205810201Y-117719911D01*
X205840200Y-117607953D01*
X205840200Y-117492047D01*
X205810201Y-117380089D01*
X205769064Y-117308838D01*
X205759370Y-117292047D01*
X208559800Y-117292047D01*
X208559800Y-117407953D01*
X208571667Y-117452241D01*
X208589798Y-117519908D01*
X208589801Y-117519915D01*
X208647750Y-117620285D01*
X208647758Y-117620295D01*
X208729704Y-117702241D01*
X208729709Y-117702245D01*
X208729711Y-117702247D01*
X208729712Y-117702248D01*
X208729714Y-117702249D01*
X208775468Y-117728665D01*
X208830089Y-117760201D01*
X208942047Y-117790200D01*
X208942049Y-117790200D01*
X209057951Y-117790200D01*
X209057953Y-117790200D01*
X209169911Y-117760201D01*
X209270289Y-117702247D01*
X209352247Y-117620289D01*
X209410201Y-117519911D01*
X209440200Y-117407953D01*
X209440200Y-117292047D01*
X210309800Y-117292047D01*
X210309800Y-117407953D01*
X210321667Y-117452241D01*
X210339798Y-117519908D01*
X210339801Y-117519915D01*
X210397750Y-117620285D01*
X210397758Y-117620295D01*
X210479704Y-117702241D01*
X210479709Y-117702245D01*
X210479711Y-117702247D01*
X210479712Y-117702248D01*
X210479714Y-117702249D01*
X210525468Y-117728665D01*
X210580089Y-117760201D01*
X210692047Y-117790200D01*
X210692049Y-117790200D01*
X210807951Y-117790200D01*
X210807953Y-117790200D01*
X210919911Y-117760201D01*
X211020289Y-117702247D01*
X211102247Y-117620289D01*
X211160201Y-117519911D01*
X211190200Y-117407953D01*
X211190200Y-117292047D01*
X211809800Y-117292047D01*
X211809800Y-117407953D01*
X211821667Y-117452241D01*
X211839798Y-117519908D01*
X211839801Y-117519915D01*
X211897750Y-117620285D01*
X211897758Y-117620295D01*
X211979704Y-117702241D01*
X211979709Y-117702245D01*
X211979711Y-117702247D01*
X211979712Y-117702248D01*
X211979714Y-117702249D01*
X212025468Y-117728665D01*
X212080089Y-117760201D01*
X212192047Y-117790200D01*
X212192049Y-117790200D01*
X212307951Y-117790200D01*
X212307953Y-117790200D01*
X212419911Y-117760201D01*
X212520289Y-117702247D01*
X212602247Y-117620289D01*
X212647421Y-117542047D01*
X213330563Y-117542047D01*
X213330563Y-117657953D01*
X213342430Y-117702241D01*
X213360561Y-117769908D01*
X213360564Y-117769915D01*
X213418513Y-117870285D01*
X213418521Y-117870295D01*
X213500467Y-117952241D01*
X213500472Y-117952245D01*
X213500474Y-117952247D01*
X213500475Y-117952248D01*
X213500477Y-117952249D01*
X213566210Y-117990200D01*
X213600852Y-118010201D01*
X213712810Y-118040200D01*
X213712812Y-118040200D01*
X213828714Y-118040200D01*
X213828716Y-118040200D01*
X213940674Y-118010201D01*
X214041052Y-117952247D01*
X214052298Y-117941001D01*
X216131154Y-117941001D01*
X216131154Y-118056907D01*
X216153114Y-118138863D01*
X216161152Y-118168862D01*
X216161155Y-118168869D01*
X216219104Y-118269239D01*
X216219112Y-118269249D01*
X216301058Y-118351195D01*
X216301063Y-118351199D01*
X216301065Y-118351201D01*
X216401443Y-118409155D01*
X216513401Y-118439154D01*
X216513403Y-118439154D01*
X216629305Y-118439154D01*
X216629307Y-118439154D01*
X216741265Y-118409155D01*
X216841643Y-118351201D01*
X216923601Y-118269243D01*
X216981555Y-118168865D01*
X217011554Y-118056907D01*
X217011554Y-117941001D01*
X216981555Y-117829043D01*
X216923601Y-117728665D01*
X216923599Y-117728663D01*
X216923595Y-117728658D01*
X216908706Y-117713769D01*
X216874680Y-117651457D01*
X216879745Y-117580642D01*
X216922292Y-117523806D01*
X216938049Y-117514833D01*
X216937759Y-117514330D01*
X216944911Y-117510201D01*
X217045289Y-117452247D01*
X217127247Y-117370289D01*
X217185201Y-117269911D01*
X217215200Y-117157953D01*
X217215200Y-117042047D01*
X217185201Y-116930089D01*
X217149721Y-116868637D01*
X217127249Y-116829714D01*
X217127241Y-116829704D01*
X217045295Y-116747758D01*
X217045285Y-116747750D01*
X216944915Y-116689801D01*
X216944912Y-116689800D01*
X216944911Y-116689799D01*
X216944909Y-116689798D01*
X216944908Y-116689798D01*
X216914909Y-116681760D01*
X216832953Y-116659800D01*
X216717047Y-116659800D01*
X216657051Y-116675875D01*
X216605091Y-116689798D01*
X216605084Y-116689801D01*
X216504714Y-116747750D01*
X216504704Y-116747758D01*
X216422758Y-116829704D01*
X216422750Y-116829714D01*
X216364801Y-116930084D01*
X216364798Y-116930091D01*
X216346667Y-116997758D01*
X216334800Y-117042047D01*
X216334800Y-117157953D01*
X216345466Y-117197758D01*
X216364798Y-117269908D01*
X216364801Y-117269915D01*
X216422750Y-117370285D01*
X216422758Y-117370295D01*
X216437647Y-117385184D01*
X216471673Y-117447496D01*
X216466608Y-117518311D01*
X216424061Y-117575147D01*
X216408305Y-117584122D01*
X216408595Y-117584624D01*
X216301068Y-117646704D01*
X216301058Y-117646712D01*
X216219112Y-117728658D01*
X216219104Y-117728668D01*
X216161155Y-117829038D01*
X216161152Y-117829045D01*
X216142134Y-117900022D01*
X216131154Y-117941001D01*
X214052298Y-117941001D01*
X214123010Y-117870289D01*
X214180964Y-117769911D01*
X214210963Y-117657953D01*
X214210963Y-117542047D01*
X214180964Y-117430089D01*
X214152093Y-117380084D01*
X214123012Y-117329714D01*
X214123004Y-117329704D01*
X214041058Y-117247758D01*
X214041048Y-117247750D01*
X213940678Y-117189801D01*
X213940675Y-117189800D01*
X213940674Y-117189799D01*
X213940672Y-117189798D01*
X213940671Y-117189798D01*
X213904417Y-117180084D01*
X213828716Y-117159800D01*
X213712810Y-117159800D01*
X213652814Y-117175875D01*
X213600854Y-117189798D01*
X213600847Y-117189801D01*
X213500477Y-117247750D01*
X213500467Y-117247758D01*
X213418521Y-117329704D01*
X213418513Y-117329714D01*
X213360564Y-117430084D01*
X213360561Y-117430091D01*
X213354624Y-117452249D01*
X213330563Y-117542047D01*
X212647421Y-117542047D01*
X212660201Y-117519911D01*
X212690200Y-117407953D01*
X212690200Y-117292047D01*
X212660201Y-117180089D01*
X212619619Y-117109800D01*
X212602249Y-117079714D01*
X212602241Y-117079704D01*
X212520295Y-116997758D01*
X212520285Y-116997750D01*
X212419915Y-116939801D01*
X212419912Y-116939800D01*
X212419911Y-116939799D01*
X212419909Y-116939798D01*
X212419908Y-116939798D01*
X212383654Y-116930084D01*
X212307953Y-116909800D01*
X212192047Y-116909800D01*
X212132051Y-116925875D01*
X212080091Y-116939798D01*
X212080084Y-116939801D01*
X211979714Y-116997750D01*
X211979704Y-116997758D01*
X211897758Y-117079704D01*
X211897750Y-117079714D01*
X211839801Y-117180084D01*
X211839798Y-117180091D01*
X211821667Y-117247758D01*
X211809800Y-117292047D01*
X211190200Y-117292047D01*
X211160201Y-117180089D01*
X211119619Y-117109800D01*
X211102249Y-117079714D01*
X211102241Y-117079704D01*
X211020295Y-116997758D01*
X211020285Y-116997750D01*
X210919915Y-116939801D01*
X210919912Y-116939800D01*
X210919911Y-116939799D01*
X210919909Y-116939798D01*
X210919908Y-116939798D01*
X210883654Y-116930084D01*
X210807953Y-116909800D01*
X210692047Y-116909800D01*
X210632051Y-116925875D01*
X210580091Y-116939798D01*
X210580084Y-116939801D01*
X210479714Y-116997750D01*
X210479704Y-116997758D01*
X210397758Y-117079704D01*
X210397750Y-117079714D01*
X210339801Y-117180084D01*
X210339798Y-117180091D01*
X210321667Y-117247758D01*
X210309800Y-117292047D01*
X209440200Y-117292047D01*
X209410201Y-117180089D01*
X209369619Y-117109800D01*
X209352249Y-117079714D01*
X209352241Y-117079704D01*
X209270295Y-116997758D01*
X209270285Y-116997750D01*
X209169915Y-116939801D01*
X209169912Y-116939800D01*
X209169911Y-116939799D01*
X209169909Y-116939798D01*
X209169908Y-116939798D01*
X209133654Y-116930084D01*
X209057953Y-116909800D01*
X208942047Y-116909800D01*
X208882051Y-116925875D01*
X208830091Y-116939798D01*
X208830084Y-116939801D01*
X208729714Y-116997750D01*
X208729704Y-116997758D01*
X208647758Y-117079704D01*
X208647750Y-117079714D01*
X208589801Y-117180084D01*
X208589798Y-117180091D01*
X208571667Y-117247758D01*
X208559800Y-117292047D01*
X205759370Y-117292047D01*
X205752249Y-117279714D01*
X205752241Y-117279704D01*
X205670295Y-117197758D01*
X205670285Y-117197750D01*
X205569915Y-117139801D01*
X205569912Y-117139800D01*
X205569911Y-117139799D01*
X205569909Y-117139798D01*
X205569908Y-117139798D01*
X205539909Y-117131760D01*
X205457953Y-117109800D01*
X205342047Y-117109800D01*
X205282051Y-117125875D01*
X205230091Y-117139798D01*
X205230084Y-117139801D01*
X205129714Y-117197750D01*
X205129704Y-117197758D01*
X205047758Y-117279704D01*
X205047750Y-117279714D01*
X204989801Y-117380084D01*
X204989798Y-117380091D01*
X204976401Y-117430091D01*
X204959800Y-117492047D01*
X203675252Y-117492047D01*
X203676771Y-117491170D01*
X203758729Y-117409212D01*
X203816683Y-117308834D01*
X203846682Y-117196876D01*
X203846682Y-117080970D01*
X203816683Y-116969012D01*
X203799222Y-116938769D01*
X203782484Y-116869774D01*
X203805704Y-116802682D01*
X203845337Y-116766652D01*
X203870289Y-116752247D01*
X203952247Y-116670289D01*
X204010201Y-116569911D01*
X204040200Y-116457953D01*
X204040200Y-116342047D01*
X204010201Y-116230089D01*
X203980934Y-116179398D01*
X203952249Y-116129714D01*
X203952241Y-116129704D01*
X203870295Y-116047758D01*
X203870285Y-116047750D01*
X203769915Y-115989801D01*
X203769912Y-115989800D01*
X203769911Y-115989799D01*
X203769909Y-115989798D01*
X203769908Y-115989798D01*
X203715378Y-115975187D01*
X203657953Y-115959800D01*
X203542047Y-115959800D01*
X203430089Y-115989799D01*
X203358093Y-116031366D01*
X203358091Y-116031367D01*
X203329714Y-116047750D01*
X203329704Y-116047758D01*
X203247758Y-116129704D01*
X203247750Y-116129714D01*
X203189801Y-116230084D01*
X203189798Y-116230091D01*
X203173800Y-116289798D01*
X203159800Y-116342047D01*
X203159800Y-116457953D01*
X203179127Y-116530084D01*
X203189798Y-116569908D01*
X203189800Y-116569913D01*
X203207260Y-116600154D01*
X203223997Y-116669149D01*
X203200776Y-116736241D01*
X203161142Y-116772271D01*
X203136196Y-116786673D01*
X203136186Y-116786681D01*
X203054240Y-116868627D01*
X203054232Y-116868637D01*
X202996283Y-116969007D01*
X202996280Y-116969014D01*
X202977262Y-117039991D01*
X202966282Y-117080970D01*
X200120540Y-117080970D01*
X200170289Y-117052247D01*
X200252247Y-116970289D01*
X200310201Y-116869911D01*
X200340200Y-116757953D01*
X200340200Y-116642047D01*
X200310201Y-116530089D01*
X200252247Y-116429711D01*
X200252245Y-116429709D01*
X200252241Y-116429704D01*
X200170295Y-116347758D01*
X200170285Y-116347750D01*
X200069915Y-116289801D01*
X200069912Y-116289800D01*
X200069911Y-116289799D01*
X200069909Y-116289798D01*
X200069908Y-116289798D01*
X200039909Y-116281760D01*
X199957953Y-116259800D01*
X199842047Y-116259800D01*
X199782051Y-116275875D01*
X199730091Y-116289798D01*
X199730084Y-116289801D01*
X199629714Y-116347750D01*
X199629704Y-116347758D01*
X199547758Y-116429704D01*
X199547750Y-116429714D01*
X199489801Y-116530084D01*
X199489798Y-116530091D01*
X199479027Y-116570289D01*
X199459800Y-116642047D01*
X199028334Y-116642047D01*
X199028320Y-116634008D01*
X199027635Y-116240200D01*
X199026856Y-115792047D01*
X208559800Y-115792047D01*
X208559800Y-115907953D01*
X208577815Y-115975187D01*
X208589798Y-116019908D01*
X208589801Y-116019915D01*
X208647750Y-116120285D01*
X208647758Y-116120295D01*
X208729704Y-116202241D01*
X208729709Y-116202245D01*
X208729711Y-116202247D01*
X208729712Y-116202248D01*
X208729714Y-116202249D01*
X208795447Y-116240200D01*
X208830089Y-116260201D01*
X208942047Y-116290200D01*
X208942049Y-116290200D01*
X209057951Y-116290200D01*
X209057953Y-116290200D01*
X209169911Y-116260201D01*
X209270289Y-116202247D01*
X209352247Y-116120289D01*
X209410201Y-116019911D01*
X209440200Y-115907953D01*
X209440200Y-115792047D01*
X210309800Y-115792047D01*
X210309800Y-115907953D01*
X210327815Y-115975187D01*
X210339798Y-116019908D01*
X210339801Y-116019915D01*
X210397750Y-116120285D01*
X210397758Y-116120295D01*
X210479704Y-116202241D01*
X210479709Y-116202245D01*
X210479711Y-116202247D01*
X210479712Y-116202248D01*
X210479714Y-116202249D01*
X210545447Y-116240200D01*
X210580089Y-116260201D01*
X210692047Y-116290200D01*
X210692049Y-116290200D01*
X210807951Y-116290200D01*
X210807953Y-116290200D01*
X210919911Y-116260201D01*
X211020289Y-116202247D01*
X211102247Y-116120289D01*
X211160201Y-116019911D01*
X211190200Y-115907953D01*
X211190200Y-115792047D01*
X211809800Y-115792047D01*
X211809800Y-115907953D01*
X211827815Y-115975187D01*
X211839798Y-116019908D01*
X211839801Y-116019915D01*
X211897750Y-116120285D01*
X211897758Y-116120295D01*
X211979704Y-116202241D01*
X211979709Y-116202245D01*
X211979711Y-116202247D01*
X211979712Y-116202248D01*
X211979714Y-116202249D01*
X212045447Y-116240200D01*
X212080089Y-116260201D01*
X212192047Y-116290200D01*
X212192049Y-116290200D01*
X212307951Y-116290200D01*
X212307953Y-116290200D01*
X212419911Y-116260201D01*
X212451354Y-116242047D01*
X213330563Y-116242047D01*
X213330563Y-116357953D01*
X213349791Y-116429714D01*
X213360561Y-116469908D01*
X213360564Y-116469915D01*
X213418513Y-116570285D01*
X213418521Y-116570295D01*
X213500467Y-116652241D01*
X213500472Y-116652245D01*
X213500474Y-116652247D01*
X213500475Y-116652248D01*
X213500477Y-116652249D01*
X213565513Y-116689798D01*
X213600852Y-116710201D01*
X213712810Y-116740200D01*
X213712812Y-116740200D01*
X213828714Y-116740200D01*
X213828716Y-116740200D01*
X213940674Y-116710201D01*
X214041052Y-116652247D01*
X214123010Y-116570289D01*
X214180964Y-116469911D01*
X214210963Y-116357953D01*
X214210963Y-116242047D01*
X214180964Y-116130089D01*
X214151481Y-116079024D01*
X214123012Y-116029714D01*
X214123004Y-116029704D01*
X214041058Y-115947758D01*
X214041048Y-115947750D01*
X213940678Y-115889801D01*
X213940675Y-115889800D01*
X213940674Y-115889799D01*
X213940672Y-115889798D01*
X213940671Y-115889798D01*
X213910672Y-115881760D01*
X213828716Y-115859800D01*
X213712810Y-115859800D01*
X213675878Y-115869696D01*
X213600854Y-115889798D01*
X213600847Y-115889801D01*
X213500477Y-115947750D01*
X213500467Y-115947758D01*
X213418521Y-116029704D01*
X213418513Y-116029714D01*
X213360564Y-116130084D01*
X213360561Y-116130091D01*
X213354624Y-116152249D01*
X213330563Y-116242047D01*
X212451354Y-116242047D01*
X212520289Y-116202247D01*
X212543138Y-116179398D01*
X212577843Y-116144694D01*
X212602241Y-116120295D01*
X212602247Y-116120289D01*
X212660201Y-116019911D01*
X212690200Y-115907953D01*
X212690200Y-115792047D01*
X212676803Y-115742047D01*
X216230563Y-115742047D01*
X216230563Y-115857953D01*
X216252523Y-115939909D01*
X216260561Y-115969908D01*
X216260564Y-115969915D01*
X216318513Y-116070285D01*
X216318521Y-116070295D01*
X216400467Y-116152241D01*
X216400472Y-116152245D01*
X216400474Y-116152247D01*
X216500852Y-116210201D01*
X216612810Y-116240200D01*
X216612812Y-116240200D01*
X216728714Y-116240200D01*
X216728716Y-116240200D01*
X216840674Y-116210201D01*
X216941052Y-116152247D01*
X217023010Y-116070289D01*
X217080964Y-115969911D01*
X217110963Y-115857953D01*
X217110963Y-115742047D01*
X217080964Y-115630089D01*
X217023010Y-115529711D01*
X217023008Y-115529709D01*
X217023004Y-115529704D01*
X216941058Y-115447758D01*
X216941048Y-115447750D01*
X216840678Y-115389801D01*
X216840675Y-115389800D01*
X216840674Y-115389799D01*
X216840672Y-115389798D01*
X216840671Y-115389798D01*
X216810672Y-115381760D01*
X216728716Y-115359800D01*
X216612810Y-115359800D01*
X216552814Y-115375875D01*
X216500854Y-115389798D01*
X216500847Y-115389801D01*
X216400477Y-115447750D01*
X216400467Y-115447758D01*
X216318521Y-115529704D01*
X216318513Y-115529714D01*
X216260564Y-115630084D01*
X216260561Y-115630091D01*
X216247164Y-115680091D01*
X216230563Y-115742047D01*
X212676803Y-115742047D01*
X212660201Y-115680089D01*
X212631330Y-115630084D01*
X212602249Y-115579714D01*
X212602241Y-115579704D01*
X212520295Y-115497758D01*
X212520285Y-115497750D01*
X212419915Y-115439801D01*
X212419912Y-115439800D01*
X212419911Y-115439799D01*
X212419909Y-115439798D01*
X212419908Y-115439798D01*
X212389909Y-115431760D01*
X212307953Y-115409800D01*
X212192047Y-115409800D01*
X212132051Y-115425875D01*
X212080091Y-115439798D01*
X212080084Y-115439801D01*
X211979714Y-115497750D01*
X211979704Y-115497758D01*
X211897758Y-115579704D01*
X211897750Y-115579714D01*
X211839801Y-115680084D01*
X211839798Y-115680091D01*
X211822997Y-115742796D01*
X211809800Y-115792047D01*
X211190200Y-115792047D01*
X211160201Y-115680089D01*
X211131330Y-115630084D01*
X211102249Y-115579714D01*
X211102241Y-115579704D01*
X211020295Y-115497758D01*
X211020285Y-115497750D01*
X210919915Y-115439801D01*
X210919912Y-115439800D01*
X210919911Y-115439799D01*
X210919909Y-115439798D01*
X210919908Y-115439798D01*
X210889909Y-115431760D01*
X210807953Y-115409800D01*
X210692047Y-115409800D01*
X210632051Y-115425875D01*
X210580091Y-115439798D01*
X210580084Y-115439801D01*
X210479714Y-115497750D01*
X210479704Y-115497758D01*
X210397758Y-115579704D01*
X210397750Y-115579714D01*
X210339801Y-115680084D01*
X210339798Y-115680091D01*
X210322997Y-115742796D01*
X210309800Y-115792047D01*
X209440200Y-115792047D01*
X209410201Y-115680089D01*
X209381330Y-115630084D01*
X209352249Y-115579714D01*
X209352241Y-115579704D01*
X209270295Y-115497758D01*
X209270285Y-115497750D01*
X209183696Y-115447758D01*
X209169911Y-115439799D01*
X209169910Y-115439798D01*
X209165442Y-115437219D01*
X209116449Y-115385836D01*
X209103013Y-115316123D01*
X209129399Y-115250212D01*
X209187232Y-115209030D01*
X209195831Y-115206393D01*
X209196544Y-115206202D01*
X209196546Y-115206202D01*
X209308504Y-115176203D01*
X209408882Y-115118249D01*
X209485084Y-115042047D01*
X213330563Y-115042047D01*
X213330563Y-115157953D01*
X213344249Y-115209030D01*
X213360561Y-115269908D01*
X213360564Y-115269915D01*
X213418513Y-115370285D01*
X213418521Y-115370295D01*
X213500467Y-115452241D01*
X213500472Y-115452245D01*
X213500474Y-115452247D01*
X213600852Y-115510201D01*
X213712810Y-115540200D01*
X213712812Y-115540200D01*
X213828714Y-115540200D01*
X213828716Y-115540200D01*
X213940674Y-115510201D01*
X214041052Y-115452247D01*
X214123010Y-115370289D01*
X214180964Y-115269911D01*
X214210963Y-115157953D01*
X214210963Y-115042047D01*
X214180964Y-114930089D01*
X214163748Y-114900270D01*
X214123012Y-114829714D01*
X214123004Y-114829704D01*
X214041058Y-114747758D01*
X214041048Y-114747750D01*
X213940678Y-114689801D01*
X213940675Y-114689800D01*
X213940674Y-114689799D01*
X213940672Y-114689798D01*
X213940671Y-114689798D01*
X213910672Y-114681760D01*
X213828716Y-114659800D01*
X213712810Y-114659800D01*
X213652814Y-114675875D01*
X213600854Y-114689798D01*
X213600847Y-114689801D01*
X213500477Y-114747750D01*
X213500467Y-114747758D01*
X213418521Y-114829704D01*
X213418513Y-114829714D01*
X213360564Y-114930084D01*
X213360561Y-114930091D01*
X213342430Y-114997758D01*
X213330563Y-115042047D01*
X209485084Y-115042047D01*
X209490840Y-115036291D01*
X209548794Y-114935913D01*
X209578793Y-114823955D01*
X209578793Y-114708049D01*
X209548794Y-114596091D01*
X209490840Y-114495713D01*
X209490838Y-114495711D01*
X209490834Y-114495706D01*
X209408888Y-114413760D01*
X209408878Y-114413752D01*
X209308508Y-114355803D01*
X209308505Y-114355802D01*
X209308504Y-114355801D01*
X209308502Y-114355800D01*
X209308501Y-114355800D01*
X209278502Y-114347762D01*
X209196546Y-114325802D01*
X209080640Y-114325802D01*
X209020644Y-114341877D01*
X208968684Y-114355800D01*
X208968677Y-114355803D01*
X208868307Y-114413752D01*
X208868297Y-114413760D01*
X208786351Y-114495706D01*
X208786343Y-114495716D01*
X208728394Y-114596086D01*
X208728392Y-114596091D01*
X208698393Y-114708049D01*
X208698393Y-114823955D01*
X208720353Y-114905911D01*
X208728391Y-114935910D01*
X208728394Y-114935917D01*
X208786343Y-115036287D01*
X208786351Y-115036297D01*
X208868297Y-115118243D01*
X208868302Y-115118247D01*
X208868304Y-115118249D01*
X208968682Y-115176203D01*
X208968683Y-115176203D01*
X208973150Y-115178782D01*
X209022143Y-115230164D01*
X209035579Y-115299878D01*
X209009193Y-115365789D01*
X208951361Y-115406971D01*
X208942762Y-115409607D01*
X208830096Y-115439796D01*
X208830084Y-115439801D01*
X208729714Y-115497750D01*
X208729704Y-115497758D01*
X208647758Y-115579704D01*
X208647750Y-115579714D01*
X208589801Y-115680084D01*
X208589798Y-115680091D01*
X208572997Y-115742796D01*
X208559800Y-115792047D01*
X199026856Y-115792047D01*
X199025986Y-115292047D01*
X202809800Y-115292047D01*
X202809800Y-115407953D01*
X202820466Y-115447758D01*
X202839798Y-115519908D01*
X202839801Y-115519915D01*
X202897750Y-115620285D01*
X202897758Y-115620295D01*
X202979704Y-115702241D01*
X202979709Y-115702245D01*
X202979711Y-115702247D01*
X203080089Y-115760201D01*
X203192047Y-115790200D01*
X203192049Y-115790200D01*
X203284445Y-115790200D01*
X203307953Y-115790200D01*
X203419911Y-115760201D01*
X203520289Y-115702247D01*
X203520295Y-115702241D01*
X203527843Y-115694694D01*
X203602241Y-115620295D01*
X203602247Y-115620289D01*
X203660201Y-115519911D01*
X203690200Y-115407953D01*
X203690200Y-115292047D01*
X203660201Y-115180089D01*
X203608035Y-115089736D01*
X203602249Y-115079714D01*
X203602241Y-115079704D01*
X203520295Y-114997758D01*
X203520285Y-114997750D01*
X203419915Y-114939801D01*
X203419912Y-114939800D01*
X203419911Y-114939799D01*
X203419909Y-114939798D01*
X203419908Y-114939798D01*
X203383654Y-114930084D01*
X203307953Y-114909800D01*
X203192047Y-114909800D01*
X203132051Y-114925875D01*
X203080091Y-114939798D01*
X203080084Y-114939801D01*
X202979714Y-114997750D01*
X202979704Y-114997758D01*
X202897758Y-115079704D01*
X202897750Y-115079714D01*
X202839801Y-115180084D01*
X202839799Y-115180089D01*
X202809800Y-115292047D01*
X199025986Y-115292047D01*
X199024717Y-114562316D01*
X199024508Y-114442047D01*
X201059800Y-114442047D01*
X201059800Y-114557953D01*
X201070018Y-114596086D01*
X201089798Y-114669908D01*
X201089801Y-114669915D01*
X201147750Y-114770285D01*
X201147758Y-114770295D01*
X201229704Y-114852241D01*
X201229709Y-114852245D01*
X201229711Y-114852247D01*
X201330089Y-114910201D01*
X201442047Y-114940200D01*
X201442049Y-114940200D01*
X201557951Y-114940200D01*
X201557953Y-114940200D01*
X201669911Y-114910201D01*
X201770289Y-114852247D01*
X201852247Y-114770289D01*
X201910201Y-114669911D01*
X201940200Y-114557953D01*
X201940200Y-114442047D01*
X201910201Y-114330089D01*
X201868123Y-114257209D01*
X201852249Y-114229714D01*
X201852241Y-114229704D01*
X201770295Y-114147758D01*
X201770282Y-114147748D01*
X201761899Y-114142908D01*
X201761898Y-114142908D01*
X201669915Y-114089801D01*
X201669912Y-114089800D01*
X201669911Y-114089799D01*
X201669909Y-114089798D01*
X201669908Y-114089798D01*
X201639909Y-114081760D01*
X201557953Y-114059800D01*
X201442047Y-114059800D01*
X201382051Y-114075875D01*
X201330091Y-114089798D01*
X201330084Y-114089801D01*
X201229714Y-114147750D01*
X201229704Y-114147758D01*
X201147758Y-114229704D01*
X201147750Y-114229714D01*
X201089801Y-114330084D01*
X201089798Y-114330091D01*
X201079027Y-114370289D01*
X201059800Y-114442047D01*
X199024508Y-114442047D01*
X199024494Y-114434008D01*
X199023812Y-114042047D01*
X210309800Y-114042047D01*
X210309800Y-114157953D01*
X210329028Y-114229714D01*
X210339798Y-114269908D01*
X210339801Y-114269915D01*
X210397750Y-114370285D01*
X210397758Y-114370295D01*
X210479704Y-114452241D01*
X210479709Y-114452245D01*
X210479711Y-114452247D01*
X210580089Y-114510201D01*
X210692047Y-114540200D01*
X210692049Y-114540200D01*
X210807951Y-114540200D01*
X210807953Y-114540200D01*
X210919911Y-114510201D01*
X211020289Y-114452247D01*
X211102247Y-114370289D01*
X211160201Y-114269911D01*
X211190200Y-114157953D01*
X211190200Y-114042047D01*
X211809800Y-114042047D01*
X211809800Y-114157953D01*
X211829028Y-114229714D01*
X211839798Y-114269908D01*
X211839801Y-114269915D01*
X211897750Y-114370285D01*
X211897758Y-114370295D01*
X211979704Y-114452241D01*
X211979709Y-114452245D01*
X211979711Y-114452247D01*
X212080089Y-114510201D01*
X212192047Y-114540200D01*
X212192049Y-114540200D01*
X212307951Y-114540200D01*
X212307953Y-114540200D01*
X212419911Y-114510201D01*
X212520289Y-114452247D01*
X212530489Y-114442047D01*
X216230563Y-114442047D01*
X216230563Y-114557953D01*
X216240781Y-114596086D01*
X216260561Y-114669908D01*
X216260564Y-114669915D01*
X216318513Y-114770285D01*
X216318521Y-114770295D01*
X216400467Y-114852241D01*
X216400472Y-114852245D01*
X216400474Y-114852247D01*
X216500852Y-114910201D01*
X216612810Y-114940200D01*
X216612812Y-114940200D01*
X216728714Y-114940200D01*
X216728716Y-114940200D01*
X216840674Y-114910201D01*
X216941052Y-114852247D01*
X217023010Y-114770289D01*
X217080964Y-114669911D01*
X217110963Y-114557953D01*
X217110963Y-114442047D01*
X217080964Y-114330089D01*
X217038886Y-114257209D01*
X217023012Y-114229714D01*
X217023004Y-114229704D01*
X216941058Y-114147758D01*
X216941048Y-114147750D01*
X216840678Y-114089801D01*
X216840675Y-114089800D01*
X216840674Y-114089799D01*
X216840672Y-114089798D01*
X216840671Y-114089798D01*
X216810672Y-114081760D01*
X216728716Y-114059800D01*
X216612810Y-114059800D01*
X216552814Y-114075875D01*
X216500854Y-114089798D01*
X216500847Y-114089801D01*
X216400477Y-114147750D01*
X216400467Y-114147758D01*
X216318521Y-114229704D01*
X216318513Y-114229714D01*
X216260564Y-114330084D01*
X216260561Y-114330091D01*
X216249790Y-114370289D01*
X216230563Y-114442047D01*
X212530489Y-114442047D01*
X212602247Y-114370289D01*
X212660201Y-114269911D01*
X212690200Y-114157953D01*
X212690200Y-114042047D01*
X212660201Y-113930089D01*
X212602247Y-113829711D01*
X212602245Y-113829709D01*
X212602241Y-113829704D01*
X212520295Y-113747758D01*
X212520285Y-113747750D01*
X212419915Y-113689801D01*
X212419912Y-113689800D01*
X212419911Y-113689799D01*
X212419909Y-113689798D01*
X212419908Y-113689798D01*
X212389909Y-113681760D01*
X212307953Y-113659800D01*
X212192047Y-113659800D01*
X212132051Y-113675875D01*
X212080091Y-113689798D01*
X212080084Y-113689801D01*
X211979714Y-113747750D01*
X211979704Y-113747758D01*
X211897758Y-113829704D01*
X211897750Y-113829714D01*
X211839801Y-113930084D01*
X211839798Y-113930091D01*
X211820780Y-114001068D01*
X211809800Y-114042047D01*
X211190200Y-114042047D01*
X211160201Y-113930089D01*
X211102247Y-113829711D01*
X211102245Y-113829709D01*
X211102241Y-113829704D01*
X211020295Y-113747758D01*
X211020285Y-113747750D01*
X210919915Y-113689801D01*
X210919912Y-113689800D01*
X210919911Y-113689799D01*
X210919909Y-113689798D01*
X210919908Y-113689798D01*
X210889909Y-113681760D01*
X210807953Y-113659800D01*
X210692047Y-113659800D01*
X210632051Y-113675875D01*
X210580091Y-113689798D01*
X210580084Y-113689801D01*
X210479714Y-113747750D01*
X210479704Y-113747758D01*
X210397758Y-113829704D01*
X210397750Y-113829714D01*
X210339801Y-113930084D01*
X210339798Y-113930091D01*
X210320780Y-114001068D01*
X210309800Y-114042047D01*
X199023812Y-114042047D01*
X199020769Y-112292047D01*
X202822300Y-112292047D01*
X202822300Y-112407953D01*
X202828232Y-112430091D01*
X202852298Y-112519908D01*
X202852301Y-112519915D01*
X202910250Y-112620285D01*
X202910258Y-112620295D01*
X202992204Y-112702241D01*
X202992209Y-112702245D01*
X202992211Y-112702247D01*
X203092589Y-112760201D01*
X203204547Y-112790200D01*
X203204549Y-112790200D01*
X203320451Y-112790200D01*
X203320453Y-112790200D01*
X203432411Y-112760201D01*
X203532789Y-112702247D01*
X203614747Y-112620289D01*
X203672701Y-112519911D01*
X203702700Y-112407953D01*
X203702700Y-112292047D01*
X203699563Y-112280339D01*
X205950500Y-112280339D01*
X205950500Y-112396245D01*
X205959569Y-112430091D01*
X205980498Y-112508200D01*
X205980501Y-112508207D01*
X206038450Y-112608577D01*
X206038458Y-112608587D01*
X206120404Y-112690533D01*
X206120409Y-112690537D01*
X206120411Y-112690539D01*
X206120412Y-112690540D01*
X206120414Y-112690541D01*
X206140693Y-112702249D01*
X206220789Y-112748493D01*
X206332747Y-112778492D01*
X206332749Y-112778492D01*
X206448651Y-112778492D01*
X206448653Y-112778492D01*
X206560611Y-112748493D01*
X206660989Y-112690539D01*
X206742947Y-112608581D01*
X206800901Y-112508203D01*
X206830900Y-112396245D01*
X206830900Y-112280339D01*
X206800901Y-112168381D01*
X206754887Y-112088683D01*
X206742949Y-112068006D01*
X206742941Y-112067996D01*
X206660995Y-111986050D01*
X206660985Y-111986042D01*
X206560615Y-111928093D01*
X206560612Y-111928092D01*
X206560611Y-111928091D01*
X206560609Y-111928090D01*
X206560608Y-111928090D01*
X206530609Y-111920052D01*
X206448653Y-111898092D01*
X206332747Y-111898092D01*
X206272751Y-111914167D01*
X206220791Y-111928090D01*
X206220784Y-111928093D01*
X206120414Y-111986042D01*
X206120404Y-111986050D01*
X206038458Y-112067996D01*
X206038450Y-112068006D01*
X205980501Y-112168376D01*
X205980498Y-112168383D01*
X205974760Y-112189799D01*
X205950500Y-112280339D01*
X203699563Y-112280339D01*
X203672701Y-112180089D01*
X203630955Y-112107783D01*
X203614749Y-112079714D01*
X203614741Y-112079704D01*
X203532795Y-111997758D01*
X203532785Y-111997750D01*
X203432415Y-111939801D01*
X203432412Y-111939800D01*
X203432411Y-111939799D01*
X203432409Y-111939798D01*
X203432408Y-111939798D01*
X203389406Y-111928276D01*
X203320453Y-111909800D01*
X203204547Y-111909800D01*
X203144551Y-111925875D01*
X203092591Y-111939798D01*
X203092584Y-111939801D01*
X202992214Y-111997750D01*
X202992204Y-111997758D01*
X202910258Y-112079704D01*
X202910250Y-112079714D01*
X202852301Y-112180084D01*
X202852298Y-112180091D01*
X202834167Y-112247758D01*
X202822300Y-112292047D01*
X199020769Y-112292047D01*
X199020755Y-112284008D01*
X199018817Y-111169908D01*
X199018421Y-110942047D01*
X210514800Y-110942047D01*
X210514800Y-111057953D01*
X210536760Y-111139909D01*
X210544798Y-111169908D01*
X210544801Y-111169915D01*
X210602750Y-111270285D01*
X210602758Y-111270295D01*
X210684704Y-111352241D01*
X210684709Y-111352245D01*
X210684711Y-111352247D01*
X210684712Y-111352248D01*
X210684714Y-111352249D01*
X210749750Y-111389798D01*
X210785089Y-111410201D01*
X210897047Y-111440200D01*
X210897049Y-111440200D01*
X211012951Y-111440200D01*
X211012953Y-111440200D01*
X211124911Y-111410201D01*
X211225289Y-111352247D01*
X211307247Y-111270289D01*
X211365201Y-111169911D01*
X211395200Y-111057953D01*
X211395200Y-110942047D01*
X211365201Y-110830089D01*
X211343237Y-110792047D01*
X211307249Y-110729714D01*
X211307241Y-110729704D01*
X211225295Y-110647758D01*
X211225285Y-110647750D01*
X211124915Y-110589801D01*
X211124912Y-110589800D01*
X211124911Y-110589799D01*
X211124909Y-110589798D01*
X211124908Y-110589798D01*
X211087236Y-110579704D01*
X211012953Y-110559800D01*
X210897047Y-110559800D01*
X210848803Y-110572727D01*
X210785091Y-110589798D01*
X210785084Y-110589801D01*
X210684714Y-110647750D01*
X210684704Y-110647758D01*
X210602758Y-110729704D01*
X210602750Y-110729714D01*
X210544801Y-110830084D01*
X210544798Y-110830091D01*
X210528692Y-110890200D01*
X210514800Y-110942047D01*
X199018421Y-110942047D01*
X199017065Y-110162525D01*
X203266821Y-110162525D01*
X203266821Y-110278431D01*
X203288781Y-110360387D01*
X203296819Y-110390386D01*
X203296822Y-110390393D01*
X203354771Y-110490763D01*
X203354779Y-110490773D01*
X203436725Y-110572719D01*
X203436730Y-110572723D01*
X203436732Y-110572725D01*
X203436733Y-110572726D01*
X203436735Y-110572727D01*
X203466308Y-110589801D01*
X203537110Y-110630679D01*
X203649068Y-110660678D01*
X203649070Y-110660678D01*
X203764972Y-110660678D01*
X203764974Y-110660678D01*
X203876932Y-110630679D01*
X203977310Y-110572725D01*
X204059268Y-110490767D01*
X204116265Y-110392047D01*
X204909800Y-110392047D01*
X204909800Y-110507953D01*
X204929028Y-110579714D01*
X204939798Y-110619908D01*
X204939801Y-110619915D01*
X204997750Y-110720285D01*
X204997758Y-110720295D01*
X205079704Y-110802241D01*
X205079709Y-110802245D01*
X205079711Y-110802247D01*
X205079712Y-110802248D01*
X205079714Y-110802249D01*
X205145447Y-110840200D01*
X205180089Y-110860201D01*
X205292047Y-110890200D01*
X205292049Y-110890200D01*
X205407951Y-110890200D01*
X205407953Y-110890200D01*
X205519911Y-110860201D01*
X205620289Y-110802247D01*
X205702247Y-110720289D01*
X205760201Y-110619911D01*
X205790200Y-110507953D01*
X205790200Y-110392047D01*
X205776803Y-110342047D01*
X213559800Y-110342047D01*
X213559800Y-110457953D01*
X213581760Y-110539909D01*
X213589798Y-110569908D01*
X213589801Y-110569915D01*
X213647750Y-110670285D01*
X213647758Y-110670295D01*
X213729704Y-110752241D01*
X213729709Y-110752245D01*
X213729711Y-110752247D01*
X213729712Y-110752248D01*
X213729714Y-110752249D01*
X213798646Y-110792047D01*
X213830089Y-110810201D01*
X213942047Y-110840200D01*
X213942049Y-110840200D01*
X214057951Y-110840200D01*
X214057953Y-110840200D01*
X214169911Y-110810201D01*
X214201354Y-110792047D01*
X215680563Y-110792047D01*
X215680563Y-110907953D01*
X215689699Y-110942048D01*
X215710561Y-111019908D01*
X215710564Y-111019915D01*
X215768513Y-111120285D01*
X215768521Y-111120295D01*
X215850467Y-111202241D01*
X215850472Y-111202245D01*
X215850474Y-111202247D01*
X215950852Y-111260201D01*
X216062810Y-111290200D01*
X216062822Y-111290200D01*
X216070361Y-111291193D01*
X216135289Y-111319913D01*
X216174383Y-111379177D01*
X216175230Y-111450169D01*
X216143016Y-111505210D01*
X216118518Y-111529708D01*
X216118513Y-111529714D01*
X216060564Y-111630084D01*
X216060561Y-111630091D01*
X216046889Y-111681117D01*
X216030563Y-111742047D01*
X216030563Y-111857953D01*
X216050418Y-111932052D01*
X216060561Y-111969908D01*
X216060564Y-111969915D01*
X216118513Y-112070285D01*
X216118521Y-112070295D01*
X216200467Y-112152241D01*
X216200471Y-112152244D01*
X216200474Y-112152247D01*
X216256731Y-112184727D01*
X216305723Y-112236108D01*
X216319160Y-112305821D01*
X216302850Y-112356844D01*
X216260563Y-112430086D01*
X216260561Y-112430091D01*
X216258617Y-112437346D01*
X216230563Y-112542047D01*
X216230563Y-112657953D01*
X216239295Y-112690541D01*
X216260561Y-112769908D01*
X216260564Y-112769915D01*
X216318513Y-112870285D01*
X216318521Y-112870295D01*
X216400467Y-112952241D01*
X216400472Y-112952245D01*
X216400474Y-112952247D01*
X216500852Y-113010201D01*
X216612810Y-113040200D01*
X216612812Y-113040200D01*
X216728714Y-113040200D01*
X216728716Y-113040200D01*
X216840674Y-113010201D01*
X216941052Y-112952247D01*
X217023010Y-112870289D01*
X217080964Y-112769911D01*
X217110963Y-112657953D01*
X217110963Y-112542047D01*
X217082908Y-112437345D01*
X218899502Y-112437345D01*
X218899502Y-112553251D01*
X218914327Y-112608577D01*
X218929500Y-112665206D01*
X218929503Y-112665213D01*
X218987452Y-112765583D01*
X218987460Y-112765593D01*
X219069406Y-112847539D01*
X219069411Y-112847543D01*
X219069413Y-112847545D01*
X219069414Y-112847546D01*
X219069416Y-112847547D01*
X219139972Y-112888283D01*
X219169791Y-112905499D01*
X219281749Y-112935498D01*
X219281751Y-112935498D01*
X219397653Y-112935498D01*
X219397655Y-112935498D01*
X219509613Y-112905499D01*
X219609991Y-112847545D01*
X219691949Y-112765587D01*
X219749903Y-112665209D01*
X219779902Y-112553251D01*
X219779902Y-112437345D01*
X219749903Y-112325387D01*
X219691949Y-112225009D01*
X219691946Y-112225006D01*
X219691810Y-112224770D01*
X219675072Y-112155775D01*
X219698292Y-112088683D01*
X219711828Y-112072679D01*
X219755858Y-112028650D01*
X219813812Y-111928272D01*
X219843811Y-111816314D01*
X219843811Y-111700408D01*
X219813812Y-111588450D01*
X219755858Y-111488072D01*
X219755856Y-111488070D01*
X219755852Y-111488065D01*
X219673906Y-111406119D01*
X219673896Y-111406111D01*
X219573526Y-111348162D01*
X219573523Y-111348161D01*
X219573522Y-111348160D01*
X219573520Y-111348159D01*
X219573519Y-111348159D01*
X219543520Y-111340121D01*
X219461564Y-111318161D01*
X219345658Y-111318161D01*
X219301172Y-111330081D01*
X219233702Y-111348159D01*
X219233695Y-111348162D01*
X219133325Y-111406111D01*
X219133315Y-111406119D01*
X219051369Y-111488065D01*
X219051361Y-111488075D01*
X218993412Y-111588445D01*
X218993409Y-111588452D01*
X218974391Y-111659429D01*
X218963411Y-111700408D01*
X218963411Y-111816314D01*
X218974568Y-111857951D01*
X218993409Y-111928269D01*
X218993412Y-111928276D01*
X219051502Y-112028889D01*
X219068240Y-112097884D01*
X219045020Y-112164976D01*
X219031479Y-112180984D01*
X218987457Y-112225006D01*
X218987452Y-112225012D01*
X218929503Y-112325382D01*
X218929500Y-112325389D01*
X218921072Y-112356844D01*
X218899502Y-112437345D01*
X217082908Y-112437345D01*
X217080964Y-112430089D01*
X217061423Y-112396243D01*
X217023012Y-112329714D01*
X217023004Y-112329704D01*
X216941058Y-112247758D01*
X216941048Y-112247750D01*
X216901659Y-112225009D01*
X216884794Y-112215272D01*
X216835802Y-112163891D01*
X216822366Y-112094177D01*
X216838674Y-112043157D01*
X216880964Y-111969911D01*
X216910963Y-111857953D01*
X216910963Y-111742047D01*
X216880964Y-111630089D01*
X216823010Y-111529711D01*
X216823007Y-111529708D01*
X216823004Y-111529704D01*
X216741058Y-111447758D01*
X216741048Y-111447750D01*
X216640678Y-111389801D01*
X216640675Y-111389800D01*
X216640674Y-111389799D01*
X216640672Y-111389798D01*
X216640671Y-111389798D01*
X216528713Y-111359799D01*
X216521158Y-111358805D01*
X216456231Y-111330081D01*
X216417140Y-111270815D01*
X216416297Y-111199824D01*
X216448510Y-111144788D01*
X216473010Y-111120289D01*
X216530964Y-111019911D01*
X216560963Y-110907953D01*
X216560963Y-110792047D01*
X216530964Y-110680089D01*
X216478836Y-110589801D01*
X216473012Y-110579714D01*
X216473004Y-110579704D01*
X216391058Y-110497758D01*
X216391048Y-110497750D01*
X216294568Y-110442047D01*
X216930563Y-110442047D01*
X216930563Y-110557953D01*
X216936393Y-110579711D01*
X216960561Y-110669908D01*
X216960564Y-110669915D01*
X217018513Y-110770285D01*
X217018521Y-110770295D01*
X217100467Y-110852241D01*
X217100472Y-110852245D01*
X217100474Y-110852247D01*
X217100475Y-110852248D01*
X217100477Y-110852249D01*
X217166210Y-110890200D01*
X217200852Y-110910201D01*
X217312810Y-110940200D01*
X217312812Y-110940200D01*
X217428714Y-110940200D01*
X217428716Y-110940200D01*
X217540674Y-110910201D01*
X217641052Y-110852247D01*
X217723010Y-110770289D01*
X217780964Y-110669911D01*
X217810963Y-110557953D01*
X217810963Y-110442047D01*
X217780964Y-110330089D01*
X217740715Y-110260376D01*
X217723012Y-110229714D01*
X217723004Y-110229704D01*
X217641058Y-110147758D01*
X217641048Y-110147750D01*
X217540678Y-110089801D01*
X217540675Y-110089800D01*
X217540674Y-110089799D01*
X217540672Y-110089798D01*
X217540671Y-110089798D01*
X217509657Y-110081488D01*
X217428716Y-110059800D01*
X217312810Y-110059800D01*
X217252814Y-110075875D01*
X217200854Y-110089798D01*
X217200847Y-110089801D01*
X217100477Y-110147750D01*
X217100467Y-110147758D01*
X217018521Y-110229704D01*
X217018513Y-110229714D01*
X216960564Y-110330084D01*
X216960561Y-110330091D01*
X216950832Y-110366402D01*
X216930563Y-110442047D01*
X216294568Y-110442047D01*
X216290678Y-110439801D01*
X216290675Y-110439800D01*
X216290674Y-110439799D01*
X216290672Y-110439798D01*
X216290671Y-110439798D01*
X216260672Y-110431760D01*
X216178716Y-110409800D01*
X216062810Y-110409800D01*
X216002814Y-110425875D01*
X215950854Y-110439798D01*
X215950847Y-110439801D01*
X215850477Y-110497750D01*
X215850467Y-110497758D01*
X215768521Y-110579704D01*
X215768513Y-110579714D01*
X215710564Y-110680084D01*
X215710561Y-110680091D01*
X215699790Y-110720289D01*
X215680563Y-110792047D01*
X214201354Y-110792047D01*
X214270289Y-110752247D01*
X214292832Y-110729704D01*
X214327843Y-110694694D01*
X214352241Y-110670295D01*
X214352247Y-110670289D01*
X214410201Y-110569911D01*
X214440200Y-110457953D01*
X214440200Y-110342047D01*
X214410201Y-110230089D01*
X214371193Y-110162526D01*
X214352249Y-110129714D01*
X214352241Y-110129704D01*
X214270295Y-110047758D01*
X214270285Y-110047750D01*
X214169915Y-109989801D01*
X214169912Y-109989800D01*
X214169911Y-109989799D01*
X214169909Y-109989798D01*
X214169908Y-109989798D01*
X214139909Y-109981760D01*
X214057953Y-109959800D01*
X213942047Y-109959800D01*
X213882051Y-109975875D01*
X213830091Y-109989798D01*
X213830084Y-109989801D01*
X213729714Y-110047750D01*
X213729704Y-110047758D01*
X213647758Y-110129704D01*
X213647750Y-110129714D01*
X213589801Y-110230084D01*
X213589798Y-110230091D01*
X213576401Y-110280091D01*
X213559800Y-110342047D01*
X205776803Y-110342047D01*
X205760201Y-110280089D01*
X205702247Y-110179711D01*
X205702245Y-110179709D01*
X205702241Y-110179704D01*
X205620295Y-110097758D01*
X205620285Y-110097750D01*
X205519915Y-110039801D01*
X205519912Y-110039800D01*
X205519911Y-110039799D01*
X205519909Y-110039798D01*
X205519908Y-110039798D01*
X205489909Y-110031760D01*
X205407953Y-110009800D01*
X205292047Y-110009800D01*
X205232051Y-110025875D01*
X205180091Y-110039798D01*
X205180084Y-110039801D01*
X205079714Y-110097750D01*
X205079704Y-110097758D01*
X204997758Y-110179704D01*
X204997750Y-110179714D01*
X204939801Y-110280084D01*
X204939798Y-110280091D01*
X204926401Y-110330091D01*
X204909800Y-110392047D01*
X204116265Y-110392047D01*
X204117222Y-110390389D01*
X204147221Y-110278431D01*
X204147221Y-110162525D01*
X204117222Y-110050567D01*
X204059268Y-109950189D01*
X204059266Y-109950187D01*
X204059262Y-109950182D01*
X203977316Y-109868236D01*
X203977306Y-109868228D01*
X203876936Y-109810279D01*
X203876933Y-109810278D01*
X203876932Y-109810277D01*
X203876930Y-109810276D01*
X203876929Y-109810276D01*
X203846930Y-109802238D01*
X203764974Y-109780278D01*
X203649068Y-109780278D01*
X203589072Y-109796353D01*
X203537112Y-109810276D01*
X203537105Y-109810279D01*
X203436735Y-109868228D01*
X203436725Y-109868236D01*
X203354779Y-109950182D01*
X203354771Y-109950192D01*
X203296822Y-110050562D01*
X203296819Y-110050569D01*
X203284175Y-110097758D01*
X203266821Y-110162525D01*
X199017065Y-110162525D01*
X199016376Y-109766417D01*
X199036260Y-109698264D01*
X199089834Y-109651678D01*
X199142376Y-109640200D01*
X199197651Y-109640200D01*
X199197653Y-109640200D01*
X199309611Y-109610201D01*
X199409989Y-109552247D01*
X199491947Y-109470289D01*
X199549901Y-109369911D01*
X199579900Y-109257953D01*
X199579900Y-109142047D01*
X199549901Y-109030089D01*
X199491947Y-108929711D01*
X199491945Y-108929709D01*
X199491941Y-108929704D01*
X199409995Y-108847758D01*
X199409985Y-108847750D01*
X199309615Y-108789801D01*
X199309612Y-108789800D01*
X199309611Y-108789799D01*
X199309609Y-108789798D01*
X199309608Y-108789798D01*
X199279609Y-108781760D01*
X199197653Y-108759800D01*
X199140407Y-108759800D01*
X199131685Y-108757239D01*
X199122692Y-108758548D01*
X199098152Y-108747393D01*
X199072286Y-108739798D01*
X199066334Y-108732929D01*
X199058060Y-108729168D01*
X199043446Y-108706515D01*
X199025793Y-108686142D01*
X199023483Y-108675569D01*
X199019573Y-108669508D01*
X199014407Y-108634019D01*
X199014192Y-108510264D01*
X201164800Y-108510264D01*
X201164800Y-108689736D01*
X201175491Y-108757239D01*
X201192875Y-108867000D01*
X201248334Y-109037683D01*
X201248335Y-109037685D01*
X201329813Y-109197595D01*
X201435304Y-109342791D01*
X201435306Y-109342793D01*
X201435308Y-109342796D01*
X201562203Y-109469691D01*
X201562206Y-109469693D01*
X201562209Y-109469696D01*
X201707405Y-109575187D01*
X201867315Y-109656665D01*
X202038002Y-109712125D01*
X202215264Y-109740200D01*
X202215266Y-109740200D01*
X202394734Y-109740200D01*
X202394736Y-109740200D01*
X202571998Y-109712125D01*
X202742685Y-109656665D01*
X202902595Y-109575187D01*
X203047791Y-109469696D01*
X203174696Y-109342791D01*
X203280187Y-109197595D01*
X203361665Y-109037685D01*
X203367004Y-109021252D01*
X218951358Y-109021252D01*
X218951358Y-109137158D01*
X218967552Y-109197595D01*
X218981356Y-109249113D01*
X218981359Y-109249120D01*
X219039308Y-109349490D01*
X219039316Y-109349500D01*
X219121262Y-109431446D01*
X219121267Y-109431450D01*
X219121269Y-109431452D01*
X219121270Y-109431453D01*
X219121272Y-109431454D01*
X219187509Y-109469696D01*
X219221647Y-109489406D01*
X219333605Y-109519405D01*
X219333607Y-109519405D01*
X219449509Y-109519405D01*
X219449511Y-109519405D01*
X219561469Y-109489406D01*
X219661847Y-109431452D01*
X219743805Y-109349494D01*
X219801759Y-109249116D01*
X219831758Y-109137158D01*
X219831758Y-109021252D01*
X219801759Y-108909294D01*
X219743805Y-108808916D01*
X219743803Y-108808914D01*
X219743799Y-108808909D01*
X219661853Y-108726963D01*
X219661843Y-108726955D01*
X219561473Y-108669006D01*
X219561470Y-108669005D01*
X219561469Y-108669004D01*
X219561467Y-108669003D01*
X219561466Y-108669003D01*
X219531467Y-108660965D01*
X219449511Y-108639005D01*
X219333605Y-108639005D01*
X219273609Y-108655080D01*
X219221649Y-108669003D01*
X219221642Y-108669006D01*
X219121272Y-108726955D01*
X219121262Y-108726963D01*
X219039316Y-108808909D01*
X219039308Y-108808919D01*
X218981359Y-108909289D01*
X218981356Y-108909296D01*
X218975888Y-108929704D01*
X218951358Y-109021252D01*
X203367004Y-109021252D01*
X203417125Y-108866998D01*
X203445200Y-108689736D01*
X203445200Y-108510264D01*
X203431196Y-108421845D01*
X207685002Y-108421845D01*
X207685002Y-108537751D01*
X207694052Y-108571525D01*
X207715000Y-108649706D01*
X207715003Y-108649713D01*
X207772952Y-108750083D01*
X207772960Y-108750093D01*
X207854906Y-108832039D01*
X207854911Y-108832043D01*
X207854913Y-108832045D01*
X207854914Y-108832046D01*
X207854916Y-108832047D01*
X207882128Y-108847758D01*
X207955291Y-108889999D01*
X208067249Y-108919998D01*
X208067251Y-108919998D01*
X208183153Y-108919998D01*
X208183155Y-108919998D01*
X208295113Y-108889999D01*
X208395491Y-108832045D01*
X208477449Y-108750087D01*
X208535403Y-108649709D01*
X208565402Y-108537751D01*
X208565402Y-108421845D01*
X208535403Y-108309887D01*
X208477449Y-108209509D01*
X208477447Y-108209507D01*
X208477443Y-108209502D01*
X208395497Y-108127556D01*
X208395487Y-108127548D01*
X208295117Y-108069599D01*
X208295114Y-108069598D01*
X208295113Y-108069597D01*
X208295111Y-108069596D01*
X208295110Y-108069596D01*
X208265111Y-108061558D01*
X208183155Y-108039598D01*
X208067249Y-108039598D01*
X208020035Y-108052249D01*
X207955293Y-108069596D01*
X207955286Y-108069599D01*
X207854916Y-108127548D01*
X207854906Y-108127556D01*
X207772960Y-108209502D01*
X207772952Y-108209512D01*
X207715003Y-108309882D01*
X207715001Y-108309887D01*
X207685002Y-108421845D01*
X203431196Y-108421845D01*
X203417125Y-108333002D01*
X203361665Y-108162315D01*
X203280187Y-108002405D01*
X203174696Y-107857209D01*
X203174693Y-107857206D01*
X203174691Y-107857203D01*
X203047799Y-107730311D01*
X203047790Y-107730303D01*
X202926316Y-107642047D01*
X203859800Y-107642047D01*
X203859800Y-107757953D01*
X203879028Y-107829714D01*
X203889798Y-107869908D01*
X203889801Y-107869915D01*
X203947750Y-107970285D01*
X203947758Y-107970295D01*
X204029704Y-108052241D01*
X204029709Y-108052245D01*
X204029711Y-108052247D01*
X204029712Y-108052248D01*
X204029714Y-108052249D01*
X204059765Y-108069599D01*
X204130089Y-108110201D01*
X204242047Y-108140200D01*
X204242049Y-108140200D01*
X204357951Y-108140200D01*
X204357953Y-108140200D01*
X204469911Y-108110201D01*
X204570289Y-108052247D01*
X204652247Y-107970289D01*
X204710201Y-107869911D01*
X204740200Y-107757953D01*
X204740200Y-107642047D01*
X204710201Y-107530089D01*
X204669619Y-107459800D01*
X204652249Y-107429714D01*
X204652241Y-107429704D01*
X204570295Y-107347758D01*
X204570285Y-107347750D01*
X204469915Y-107289801D01*
X204469912Y-107289800D01*
X204469911Y-107289799D01*
X204469909Y-107289798D01*
X204469908Y-107289798D01*
X204455934Y-107286054D01*
X204357953Y-107259800D01*
X204242047Y-107259800D01*
X204182051Y-107275875D01*
X204130091Y-107289798D01*
X204130084Y-107289801D01*
X204029714Y-107347750D01*
X204029704Y-107347758D01*
X203947758Y-107429704D01*
X203947750Y-107429714D01*
X203889801Y-107530084D01*
X203889798Y-107530091D01*
X203870780Y-107601068D01*
X203859800Y-107642047D01*
X202926316Y-107642047D01*
X202902598Y-107624815D01*
X202902597Y-107624814D01*
X202902595Y-107624813D01*
X202742685Y-107543335D01*
X202742684Y-107543334D01*
X202742683Y-107543334D01*
X202572000Y-107487875D01*
X202483367Y-107473837D01*
X202394736Y-107459800D01*
X202215264Y-107459800D01*
X202144359Y-107471030D01*
X202037999Y-107487875D01*
X201867316Y-107543334D01*
X201707401Y-107624815D01*
X201562206Y-107730306D01*
X201562203Y-107730308D01*
X201435308Y-107857203D01*
X201435306Y-107857206D01*
X201329815Y-108002401D01*
X201248334Y-108162316D01*
X201192875Y-108332999D01*
X201188262Y-108362125D01*
X201164800Y-108510264D01*
X199014192Y-108510264D01*
X199014184Y-108505533D01*
X199011844Y-107160264D01*
X215564800Y-107160264D01*
X215564800Y-107339736D01*
X215569639Y-107370289D01*
X215592875Y-107517000D01*
X215648334Y-107687683D01*
X215648335Y-107687685D01*
X215720702Y-107829714D01*
X215729815Y-107847598D01*
X215746029Y-107869915D01*
X215835304Y-107992791D01*
X215835306Y-107992793D01*
X215835308Y-107992796D01*
X215962203Y-108119691D01*
X215962206Y-108119693D01*
X215962209Y-108119696D01*
X216107405Y-108225187D01*
X216267315Y-108306665D01*
X216438002Y-108362125D01*
X216615264Y-108390200D01*
X216615266Y-108390200D01*
X216794734Y-108390200D01*
X216794736Y-108390200D01*
X216971998Y-108362125D01*
X217142685Y-108306665D01*
X217302595Y-108225187D01*
X217447791Y-108119696D01*
X217574696Y-107992791D01*
X217680187Y-107847595D01*
X217761665Y-107687685D01*
X217817125Y-107516998D01*
X217845200Y-107339736D01*
X217845200Y-107160264D01*
X217817125Y-106983002D01*
X217761665Y-106812315D01*
X217680187Y-106652405D01*
X217574696Y-106507209D01*
X217574693Y-106507206D01*
X217574691Y-106507203D01*
X217447796Y-106380308D01*
X217447793Y-106380306D01*
X217447791Y-106380304D01*
X217302595Y-106274813D01*
X217142685Y-106193335D01*
X217142684Y-106193334D01*
X217142683Y-106193334D01*
X216972000Y-106137875D01*
X216883367Y-106123837D01*
X216794736Y-106109800D01*
X216615264Y-106109800D01*
X216544359Y-106121030D01*
X216437999Y-106137875D01*
X216267316Y-106193334D01*
X216107401Y-106274815D01*
X215962206Y-106380306D01*
X215962203Y-106380308D01*
X215835308Y-106507203D01*
X215835306Y-106507206D01*
X215729815Y-106652401D01*
X215648334Y-106812316D01*
X215592875Y-106982999D01*
X215592875Y-106983002D01*
X215564800Y-107160264D01*
X199011844Y-107160264D01*
X199007844Y-104860268D01*
X206349941Y-104860268D01*
X206349941Y-104976174D01*
X206368768Y-105046438D01*
X206379939Y-105088129D01*
X206379942Y-105088136D01*
X206437891Y-105188506D01*
X206437899Y-105188516D01*
X206519845Y-105270462D01*
X206519850Y-105270466D01*
X206519852Y-105270468D01*
X206620230Y-105328422D01*
X206732188Y-105358421D01*
X206732190Y-105358421D01*
X206848092Y-105358421D01*
X206848094Y-105358421D01*
X206960052Y-105328422D01*
X207060430Y-105270468D01*
X207142388Y-105188510D01*
X207200342Y-105088132D01*
X207230341Y-104976174D01*
X207230341Y-104930534D01*
X210096971Y-104930534D01*
X210096971Y-105046440D01*
X210116758Y-105120285D01*
X210126969Y-105158395D01*
X210126972Y-105158402D01*
X210184921Y-105258772D01*
X210184929Y-105258782D01*
X210266875Y-105340728D01*
X210266880Y-105340732D01*
X210266882Y-105340734D01*
X210367260Y-105398688D01*
X210479218Y-105428687D01*
X210479220Y-105428687D01*
X210595122Y-105428687D01*
X210595124Y-105428687D01*
X210707082Y-105398688D01*
X210807460Y-105340734D01*
X210889418Y-105258776D01*
X210947372Y-105158398D01*
X210977371Y-105046440D01*
X210977371Y-104930534D01*
X210947372Y-104818576D01*
X210932055Y-104792047D01*
X218664800Y-104792047D01*
X218664800Y-104907953D01*
X218670851Y-104930534D01*
X218694798Y-105019908D01*
X218694801Y-105019915D01*
X218752750Y-105120285D01*
X218752758Y-105120295D01*
X218834704Y-105202241D01*
X218834709Y-105202245D01*
X218834711Y-105202247D01*
X218935089Y-105260201D01*
X219047047Y-105290200D01*
X219047049Y-105290200D01*
X219162951Y-105290200D01*
X219162953Y-105290200D01*
X219274911Y-105260201D01*
X219375289Y-105202247D01*
X219457247Y-105120289D01*
X219515201Y-105019911D01*
X219545200Y-104907953D01*
X219545200Y-104792047D01*
X219515201Y-104680089D01*
X219489887Y-104636245D01*
X219457249Y-104579714D01*
X219457241Y-104579704D01*
X219375295Y-104497758D01*
X219375285Y-104497750D01*
X219274915Y-104439801D01*
X219274912Y-104439800D01*
X219274911Y-104439799D01*
X219274909Y-104439798D01*
X219274908Y-104439798D01*
X219244909Y-104431760D01*
X219162953Y-104409800D01*
X219047047Y-104409800D01*
X218987051Y-104425875D01*
X218935091Y-104439798D01*
X218935084Y-104439801D01*
X218834714Y-104497750D01*
X218834704Y-104497758D01*
X218752758Y-104579704D01*
X218752750Y-104579714D01*
X218694801Y-104680084D01*
X218694798Y-104680091D01*
X218684588Y-104718198D01*
X218664800Y-104792047D01*
X210932055Y-104792047D01*
X210906805Y-104748312D01*
X210889420Y-104718201D01*
X210889412Y-104718191D01*
X210807466Y-104636245D01*
X210807456Y-104636237D01*
X210707086Y-104578288D01*
X210707083Y-104578287D01*
X210707082Y-104578286D01*
X210707080Y-104578285D01*
X210707079Y-104578285D01*
X210677080Y-104570247D01*
X210595124Y-104548287D01*
X210479218Y-104548287D01*
X210419222Y-104564362D01*
X210367262Y-104578285D01*
X210367255Y-104578288D01*
X210266885Y-104636237D01*
X210266875Y-104636245D01*
X210184929Y-104718191D01*
X210184921Y-104718201D01*
X210126972Y-104818571D01*
X210126969Y-104818578D01*
X210115798Y-104860269D01*
X210096971Y-104930534D01*
X207230341Y-104930534D01*
X207230341Y-104860268D01*
X207200342Y-104748310D01*
X207142388Y-104647932D01*
X207142386Y-104647930D01*
X207142382Y-104647925D01*
X207060436Y-104565979D01*
X207060426Y-104565971D01*
X206960056Y-104508022D01*
X206960053Y-104508021D01*
X206960052Y-104508020D01*
X206960050Y-104508019D01*
X206960049Y-104508019D01*
X206930050Y-104499981D01*
X206848094Y-104478021D01*
X206732188Y-104478021D01*
X206672192Y-104494096D01*
X206620232Y-104508019D01*
X206620225Y-104508022D01*
X206519855Y-104565971D01*
X206519845Y-104565979D01*
X206437899Y-104647925D01*
X206437891Y-104647935D01*
X206379942Y-104748305D01*
X206379940Y-104748310D01*
X206349941Y-104860268D01*
X199007844Y-104860268D01*
X199007830Y-104852229D01*
X199004682Y-103042047D01*
X207064800Y-103042047D01*
X207064800Y-103157953D01*
X207065295Y-103159800D01*
X207094798Y-103269908D01*
X207094801Y-103269915D01*
X207152750Y-103370285D01*
X207152758Y-103370295D01*
X207234704Y-103452241D01*
X207234709Y-103452245D01*
X207234711Y-103452247D01*
X207335089Y-103510201D01*
X207447047Y-103540200D01*
X207447049Y-103540200D01*
X207562951Y-103540200D01*
X207562953Y-103540200D01*
X207674911Y-103510201D01*
X207775289Y-103452247D01*
X207797452Y-103430084D01*
X207863087Y-103364450D01*
X207864729Y-103366092D01*
X207912367Y-103331304D01*
X207983238Y-103327077D01*
X208045143Y-103361837D01*
X208050617Y-103368154D01*
X208134704Y-103452241D01*
X208134709Y-103452245D01*
X208134711Y-103452247D01*
X208235089Y-103510201D01*
X208347047Y-103540200D01*
X208347049Y-103540200D01*
X208462951Y-103540200D01*
X208462953Y-103540200D01*
X208574911Y-103510201D01*
X208675289Y-103452247D01*
X208757247Y-103370289D01*
X208815201Y-103269911D01*
X208845200Y-103157953D01*
X208845200Y-103042047D01*
X208815201Y-102930089D01*
X208782193Y-102872918D01*
X208757249Y-102829714D01*
X208757241Y-102829704D01*
X208675295Y-102747758D01*
X208675285Y-102747750D01*
X208665407Y-102742047D01*
X209364800Y-102742047D01*
X209364800Y-102857953D01*
X209368107Y-102870295D01*
X209394798Y-102969908D01*
X209394801Y-102969915D01*
X209452750Y-103070285D01*
X209452758Y-103070295D01*
X209534704Y-103152241D01*
X209534709Y-103152245D01*
X209534711Y-103152247D01*
X209534712Y-103152248D01*
X209534714Y-103152249D01*
X209544590Y-103157951D01*
X209635089Y-103210201D01*
X209747047Y-103240200D01*
X209747049Y-103240200D01*
X209862951Y-103240200D01*
X209862953Y-103240200D01*
X209974911Y-103210201D01*
X210075289Y-103152247D01*
X210157247Y-103070289D01*
X210215201Y-102969911D01*
X210245200Y-102857953D01*
X210245200Y-102742047D01*
X210215201Y-102630089D01*
X210164370Y-102542048D01*
X210164369Y-102542047D01*
X220809800Y-102542047D01*
X220809800Y-102657953D01*
X220810295Y-102659800D01*
X220839798Y-102769908D01*
X220839801Y-102769915D01*
X220897750Y-102870285D01*
X220897758Y-102870295D01*
X220979704Y-102952241D01*
X220979709Y-102952245D01*
X220979711Y-102952247D01*
X220979712Y-102952248D01*
X220979714Y-102952249D01*
X221046626Y-102990881D01*
X221095619Y-103042264D01*
X221109055Y-103111978D01*
X221082668Y-103177888D01*
X221046626Y-103209119D01*
X220979714Y-103247750D01*
X220979704Y-103247758D01*
X220897758Y-103329704D01*
X220897750Y-103329714D01*
X220839801Y-103430084D01*
X220839798Y-103430091D01*
X220833861Y-103452249D01*
X220809800Y-103542047D01*
X220809800Y-103657953D01*
X220831760Y-103739909D01*
X220839798Y-103769908D01*
X220839801Y-103769915D01*
X220897750Y-103870285D01*
X220897758Y-103870295D01*
X220979704Y-103952241D01*
X220979709Y-103952245D01*
X220979711Y-103952247D01*
X221080089Y-104010201D01*
X221192047Y-104040200D01*
X221192049Y-104040200D01*
X221307951Y-104040200D01*
X221307953Y-104040200D01*
X221419911Y-104010201D01*
X221520289Y-103952247D01*
X221602247Y-103870289D01*
X221660201Y-103769911D01*
X221690200Y-103657953D01*
X221690200Y-103542047D01*
X221660201Y-103430089D01*
X221642985Y-103400270D01*
X221602249Y-103329714D01*
X221602241Y-103329704D01*
X221520295Y-103247758D01*
X221520285Y-103247750D01*
X221480137Y-103224571D01*
X221453372Y-103209117D01*
X221404380Y-103157737D01*
X221390944Y-103088023D01*
X221417330Y-103022112D01*
X221453371Y-102990882D01*
X221520289Y-102952247D01*
X221602247Y-102870289D01*
X221660201Y-102769911D01*
X221690200Y-102657953D01*
X221690200Y-102542047D01*
X221660201Y-102430089D01*
X221602247Y-102329711D01*
X221602245Y-102329709D01*
X221602241Y-102329704D01*
X221520295Y-102247758D01*
X221520285Y-102247750D01*
X221419915Y-102189801D01*
X221419912Y-102189800D01*
X221419911Y-102189799D01*
X221419909Y-102189798D01*
X221419908Y-102189798D01*
X221389909Y-102181760D01*
X221307953Y-102159800D01*
X221192047Y-102159800D01*
X221132051Y-102175875D01*
X221080091Y-102189798D01*
X221080084Y-102189801D01*
X220979714Y-102247750D01*
X220979704Y-102247758D01*
X220897758Y-102329704D01*
X220897750Y-102329714D01*
X220839801Y-102430084D01*
X220839798Y-102430091D01*
X220820780Y-102501068D01*
X220809800Y-102542047D01*
X210164369Y-102542047D01*
X210157249Y-102529714D01*
X210157241Y-102529704D01*
X210075295Y-102447758D01*
X210075285Y-102447750D01*
X209974915Y-102389801D01*
X209974912Y-102389800D01*
X209974911Y-102389799D01*
X209974909Y-102389798D01*
X209974908Y-102389798D01*
X209944909Y-102381760D01*
X209862953Y-102359800D01*
X209747047Y-102359800D01*
X209687051Y-102375875D01*
X209635091Y-102389798D01*
X209635084Y-102389801D01*
X209534714Y-102447750D01*
X209534704Y-102447758D01*
X209452758Y-102529704D01*
X209452750Y-102529714D01*
X209394801Y-102630084D01*
X209394799Y-102630089D01*
X209364800Y-102742047D01*
X208665407Y-102742047D01*
X208574915Y-102689801D01*
X208574912Y-102689800D01*
X208574911Y-102689799D01*
X208574909Y-102689798D01*
X208574908Y-102689798D01*
X208544909Y-102681760D01*
X208462953Y-102659800D01*
X208347047Y-102659800D01*
X208287051Y-102675875D01*
X208235091Y-102689798D01*
X208235084Y-102689801D01*
X208134714Y-102747750D01*
X208134704Y-102747758D01*
X208046913Y-102835550D01*
X208045271Y-102833908D01*
X207997617Y-102868701D01*
X207926746Y-102872918D01*
X207864845Y-102838150D01*
X207859378Y-102831841D01*
X207775295Y-102747758D01*
X207775285Y-102747750D01*
X207674915Y-102689801D01*
X207674912Y-102689800D01*
X207674911Y-102689799D01*
X207674909Y-102689798D01*
X207674908Y-102689798D01*
X207644909Y-102681760D01*
X207562953Y-102659800D01*
X207447047Y-102659800D01*
X207387051Y-102675875D01*
X207335091Y-102689798D01*
X207335084Y-102689801D01*
X207234714Y-102747750D01*
X207234704Y-102747758D01*
X207152758Y-102829704D01*
X207152750Y-102829714D01*
X207094801Y-102930084D01*
X207094798Y-102930091D01*
X207078510Y-102990881D01*
X207064800Y-103042047D01*
X199004682Y-103042047D01*
X199004668Y-103034008D01*
X199001595Y-101267047D01*
X212584800Y-101267047D01*
X212584800Y-101382953D01*
X212587237Y-101392047D01*
X212614798Y-101494908D01*
X212614801Y-101494915D01*
X212672750Y-101595285D01*
X212672758Y-101595295D01*
X212754704Y-101677241D01*
X212754709Y-101677245D01*
X212754711Y-101677247D01*
X212855089Y-101735201D01*
X212967047Y-101765200D01*
X212967049Y-101765200D01*
X213082951Y-101765200D01*
X213082953Y-101765200D01*
X213194911Y-101735201D01*
X213295289Y-101677247D01*
X213377247Y-101595289D01*
X213435201Y-101494911D01*
X213462763Y-101392047D01*
X215264800Y-101392047D01*
X215264800Y-101507953D01*
X215268107Y-101520295D01*
X215294798Y-101619908D01*
X215294801Y-101619915D01*
X215352750Y-101720285D01*
X215352758Y-101720295D01*
X215434704Y-101802241D01*
X215434709Y-101802245D01*
X215434711Y-101802247D01*
X215535089Y-101860201D01*
X215647047Y-101890200D01*
X215647049Y-101890200D01*
X215762951Y-101890200D01*
X215762953Y-101890200D01*
X215874911Y-101860201D01*
X215975289Y-101802247D01*
X216057247Y-101720289D01*
X216115201Y-101619911D01*
X216145200Y-101507953D01*
X216145200Y-101392047D01*
X216115201Y-101280089D01*
X216064370Y-101192048D01*
X216064369Y-101192047D01*
X220664800Y-101192047D01*
X220664800Y-101307953D01*
X220684896Y-101382951D01*
X220694798Y-101419908D01*
X220694801Y-101419915D01*
X220752750Y-101520285D01*
X220752758Y-101520295D01*
X220834704Y-101602241D01*
X220834709Y-101602245D01*
X220834711Y-101602247D01*
X220834712Y-101602248D01*
X220834714Y-101602249D01*
X220865312Y-101619915D01*
X220935089Y-101660201D01*
X221047047Y-101690200D01*
X221047049Y-101690200D01*
X221162951Y-101690200D01*
X221162953Y-101690200D01*
X221274911Y-101660201D01*
X221375289Y-101602247D01*
X221457247Y-101520289D01*
X221515201Y-101419911D01*
X221545200Y-101307953D01*
X221545200Y-101192047D01*
X221515201Y-101080089D01*
X221457247Y-100979711D01*
X221457245Y-100979709D01*
X221457241Y-100979704D01*
X221375295Y-100897758D01*
X221375285Y-100897750D01*
X221274915Y-100839801D01*
X221274912Y-100839800D01*
X221274911Y-100839799D01*
X221274909Y-100839798D01*
X221274908Y-100839798D01*
X221244909Y-100831760D01*
X221162953Y-100809800D01*
X221047047Y-100809800D01*
X220987051Y-100825875D01*
X220935091Y-100839798D01*
X220935084Y-100839801D01*
X220834714Y-100897750D01*
X220834704Y-100897758D01*
X220752758Y-100979704D01*
X220752750Y-100979714D01*
X220694801Y-101080084D01*
X220694798Y-101080091D01*
X220675780Y-101151068D01*
X220664800Y-101192047D01*
X216064369Y-101192047D01*
X216057249Y-101179714D01*
X216057241Y-101179704D01*
X215975295Y-101097758D01*
X215975285Y-101097750D01*
X215874915Y-101039801D01*
X215874912Y-101039800D01*
X215874911Y-101039799D01*
X215874909Y-101039798D01*
X215874908Y-101039798D01*
X215844909Y-101031760D01*
X215762953Y-101009800D01*
X215647047Y-101009800D01*
X215587051Y-101025875D01*
X215535091Y-101039798D01*
X215535084Y-101039801D01*
X215434714Y-101097750D01*
X215434704Y-101097758D01*
X215352758Y-101179704D01*
X215352750Y-101179714D01*
X215294801Y-101280084D01*
X215294799Y-101280089D01*
X215264800Y-101392047D01*
X213462763Y-101392047D01*
X213465200Y-101382953D01*
X213465200Y-101267047D01*
X213435201Y-101155089D01*
X213402096Y-101097750D01*
X213377249Y-101054714D01*
X213377241Y-101054704D01*
X213295295Y-100972758D01*
X213295285Y-100972750D01*
X213194915Y-100914801D01*
X213194912Y-100914800D01*
X213194911Y-100914799D01*
X213194909Y-100914798D01*
X213194908Y-100914798D01*
X213164909Y-100906760D01*
X213082953Y-100884800D01*
X212967047Y-100884800D01*
X212918717Y-100897750D01*
X212855091Y-100914798D01*
X212855084Y-100914801D01*
X212754714Y-100972750D01*
X212754704Y-100972758D01*
X212672758Y-101054704D01*
X212672750Y-101054714D01*
X212614801Y-101155084D01*
X212614798Y-101155091D01*
X212604896Y-101192047D01*
X212584800Y-101267047D01*
X199001595Y-101267047D01*
X199001581Y-101259008D01*
X199000220Y-100476219D01*
X199020104Y-100408064D01*
X199073679Y-100361478D01*
X199126220Y-100350000D01*
X222374219Y-100350000D01*
X222442340Y-100370002D01*
G37*
G04 #@! TD.AperFunction*
M02*
