<?xml version="1.0" encoding="UTF-8" standalone="no"?>
<!-- Created with Inkscape (http://www.inkscape.org/) -->

<svg
   width="283.10416mm"
   height="108.6993mm"
   viewBox="0 0 283.10416 108.6993"
   version="1.1"
   id="svg319"
   xml:space="preserve"
   inkscape:version="1.2.2 (b0a8486541, 2022-12-01)"
   sodipodi:docname="logo-vert-dark.svg"
   inkscape:export-filename="logo-vert-dark.png"
   inkscape:export-xdpi="12.85"
   inkscape:export-ydpi="12.85"
   xmlns:inkscape="http://www.inkscape.org/namespaces/inkscape"
   xmlns:sodipodi="http://sodipodi.sourceforge.net/DTD/sodipodi-0.dtd"
   xmlns="http://www.w3.org/2000/svg"
   xmlns:svg="http://www.w3.org/2000/svg"><sodipodi:namedview
     id="namedview321"
     pagecolor="#ffffff"
     bordercolor="#666666"
     borderopacity="1.0"
     inkscape:showpageshadow="2"
     inkscape:pageopacity="0.0"
     inkscape:pagecheckerboard="0"
     inkscape:deskcolor="#d1d1d1"
     inkscape:document-units="mm"
     showgrid="false"
     inkscape:zoom="0.84096521"
     inkscape:cx="644.49753"
     inkscape:cy="291.33191"
     inkscape:window-width="1920"
     inkscape:window-height="1008"
     inkscape:window-x="0"
     inkscape:window-y="0"
     inkscape:window-maximized="1"
     inkscape:current-layer="layer1" /><defs
     id="defs316" /><g
     inkscape:label="Ebene 1"
     inkscape:groupmode="layer"
     id="layer1"
     transform="translate(65.636528,-80.475276)"><path
       style="fill:#ffffff;stroke-width:1;stroke:#000000;stroke-opacity:1;fill-opacity:1;stroke-dasharray:none"
       d="m -65.636528,188.95867 c 0,-0.11874 0.446485,-0.62476 0.992188,-1.12447 l 0.992187,-0.90858 140.559893,-0.0876 140.55989,-0.0876 v 1.21208 1.21207 H 75.915552 c -77.8536437,0 -141.55208,-0.0971 -141.55208,-0.2159 z m 25.279691,-27.03634 c 21.126976,-21.1153 22.009721,-21.96025 22.942428,-21.96025 0.857435,0 1.26415,0.2764 3.503922,2.38125 1.39364,1.30968 2.70397,2.38125 2.911848,2.38125 0.207875,0 6.8993355,-6.43738 14.8699082,-14.3053 7.9705758,-7.86791 15.5917258,-15.22002 16.9358938,-16.33802 l 2.443943,-2.03272 0.0062,-1.26992 c 0.005,-1.02177 -0.06734,-1.22858 -0.370088,-1.05833 -0.206952,0.11637 -2.000628,1.5808 -3.985951,3.25429 -5.169564,4.35758 -4.846658,4.12612 -5.226393,3.74638 -0.402752,-0.40275 -0.0016,-1.12767 2.444866,-4.41814 0.945885,-1.27221 2.278234,-3.0662 2.960775,-3.98665 l 1.24098,-1.67354 -0.844105,-0.13425 c -0.464259,-0.0738 -2.391921,-0.26011 -4.283692,-0.41396 -5.4858757,-0.44612 -9.2236655,-0.81486 -9.7234369,-0.95924 -0.5226897,-0.151 -0.6374077,-1.28201 -0.1599645,-1.57709 0.3553963,-0.21964 7.5754914,-1.02539 11.6693394,-1.30227 1.564349,-0.1058 2.844271,-0.29532 2.844271,-0.42115 0,-0.20666 -1.372251,-1.879303 -7.340616,-8.947522 -1.930718,-2.286511 -2.207294,-3.011112 -1.353526,-3.546086 0.353372,-0.221425 1.520523,0.619958 6.283854,4.529942 l 5.84986,4.801875 0.02175,-1.117381 c 0.01196,-0.614558 0.06465,-1.415034 0.117065,-1.778836 0.05242,-0.363802 0.35266,-3.816614 0.667202,-7.672916 0.31454,-3.856302 0.697926,-7.166033 0.851969,-7.354956 0.154043,-0.188923 0.527389,-0.307986 0.829659,-0.264583 0.683721,0.09818 0.755547,0.573368 1.351688,8.942456 0.243591,3.419739 0.521189,6.896075 0.616881,7.72519 l 0.173987,1.507482 5.810626,-4.748628 c 3.195852,-2.611744 5.940242,-4.748628 6.098654,-4.748628 0.392647,0 0.92302,0.559787 0.92302,0.974212 0,0.308478 -5.893922,7.392963 -8.697463,10.454329 -0.790763,0.86349 -1.041939,1.29887 -0.79375,1.37587 0.199697,0.062 2.506213,0.30501 5.125588,0.54013 5.806249,0.52119 9.119703,0.90653 9.426715,1.09627 0.419835,0.25947 0.248221,1.3933 -0.232445,1.53572 -0.689382,0.20427 -4.891203,0.6114 -10.19549,0.98787 -3.191219,0.22651 -4.669491,0.42752 -4.593839,0.62466 0.06135,0.15988 1.345337,2.04531 2.853304,4.18985 3.424549,4.8702 3.748042,5.39386 3.539997,5.73048 -0.396398,0.64139 -1.298564,0.0626 -5.349028,-3.43145 -2.357413,-2.0336 -4.332951,-3.60986 -4.390091,-3.5028 -0.05714,0.10706 -0.132315,1.35518 -0.16706,2.77361 l -0.06318,2.57896 2.733473,3.1188 c 1.503411,1.71535 3.346408,3.82903 4.095547,4.69708 0.749141,0.86806 3.229075,3.72141 5.510966,6.34078 2.281891,2.61938 5.102566,5.86383 6.268164,7.2099 1.165598,1.34607 2.212854,2.44739 2.327233,2.44739 0.114379,0 1.086085,-0.63522 2.159346,-1.4116 1.073262,-0.77638 2.176521,-1.49346 2.451685,-1.5935 0.907389,-0.32991 0.673039,-0.57095 12.331991,12.68391 0.800364,0.90992 2.526771,2.86344 3.836458,4.34114 1.309688,1.47771 3.036094,3.43857 3.836458,4.35747 6.523591,7.48976 8.158991,9.34257 10.007341,11.33766 2.066732,2.23082 2.112372,2.30952 2.285764,3.94153 0.09731,0.9159 0.40726,3.54262 0.688785,5.83716 0.281522,2.29454 0.51186,4.46743 0.51186,4.82865 v 0.65675 l -74.281769,-1.7e-4 -74.281769,-1.6e-4 z m 59.462888,9.12829 c 1.007986,-2.18282 2.836498,-6.09747 4.063355,-8.69925 1.226857,-2.60177 2.184852,-4.77628 2.128879,-4.83226 -0.05597,-0.056 -1.995217,0.9903 -4.309435,2.32505 -2.31422,1.33474 -5.457828,3.13672 -6.985796,4.00439 -1.527969,0.86767 -2.885819,1.6411 -3.017443,1.71873 -0.366377,0.21608 -0.01027,-0.29899 2.885783,-4.17395 7.614661,-10.18854 14.155436,-19.30848 14.162191,-19.74665 0.0058,-0.37447 -4.701572,-21.03366 -5.193139,-22.7912 -0.151979,-0.54339 -4.650377,4.22214 -15.0551004,15.94912 -9.930942,11.19299 -11.8954203,13.1662 -15.433844,15.50243 -3.3103316,2.18563 -4.2976636,2.06526 -7.7189146,-0.9411 -1.235982,-1.08609 -2.366303,-1.98149 -2.511824,-1.98977 -0.269827,-0.0153 -26.594516,26.51748 -26.457663,26.66686 0.04131,0.0451 1.665406,-0.89773 3.609096,-2.09517 1.94369,-1.19745 7.046328,-4.23372 11.339192,-6.74728 4.292865,-2.51356 8.370755,-4.92535 9.061979,-5.35954 1.326018,-0.83292 1.433454,-0.78726 0.966282,0.41059 -0.502772,1.28914 -2.619928,7.42851 -2.619928,7.59732 0,0.17391 2.743084,-1.89366 10.847917,-8.17652 9.8288655,-7.61933 19.9145544,-15.22982 20.0300423,-15.11433 0.068551,0.0686 -8.05481336,20.85339 -10.3360032,26.4462 -0.8205761,2.01182 -1.4919563,3.70127 -1.4919563,3.75434 0,0.23899 2.61022304,0.30583 11.0940001,0.28408 l 9.1096251,-0.0233 1.832705,-3.96875 z m 36.264318,-13.95677 c -0.649264,-1.63711 -1.587739,-4.08451 -2.085502,-5.43866 l -0.905023,-2.46209 0.277066,-2.75294 c 0.470848,-4.67834 0.653328,-4.615 -3.369923,-1.16983 l -3.477522,2.97785 0.859636,0.95018 c 1.324936,1.46448 6.45342,7.27473 8.079785,9.15388 0.800365,0.92477 1.533229,1.68967 1.628585,1.69979 0.09536,0.0101 -0.357839,-1.32107 -1.007102,-2.95818 z m 51.512721,25.18013 c -5.43531,-0.95834 -8.742538,-5.26457 -8.742538,-11.38337 0,-4.80475 2.146838,-8.3005 6.290128,-10.2424 1.40029,-0.65629 1.77569,-0.71009 4.95466,-0.71009 3.32795,0 3.49541,0.0273 5.15938,0.84126 0.94588,0.46269 2.00375,1.07064 2.35081,1.35099 l 0.63103,0.50973 -1.16019,1.68156 c -0.63811,0.92485 -1.22901,1.77907 -1.31311,1.89826 -0.0841,0.11919 -0.82866,-0.19021 -1.65457,-0.68754 -1.81232,-1.09132 -3.38422,-1.36808 -5.40953,-0.95244 -1.89815,0.38955 -3.48389,1.88226 -4.01509,3.77955 -0.76774,2.74209 -0.007,6.52003 1.61882,8.03631 1.42114,1.32561 4.21718,1.78108 6.30599,1.02723 0.9162,-0.33065 0.92605,-0.35084 0.92605,-1.8981 v -1.5639 l -1.92874,-0.0779 -1.92874,-0.0779 0.0767,-2.17101 0.0767,-2.17101 4.43177,-0.0726 4.43177,-0.0725 v 5.13819 5.13819 l -1.32341,0.84923 c -2.52615,1.62103 -6.61929,2.38723 -9.7778,1.83034 z m 76.18871,0.0998 c -2.87912,-0.31571 -5.88521,-2.00906 -7.53949,-4.24703 -1.4823,-2.00529 -2.06219,-4.29741 -1.94598,-7.69199 0.0877,-2.5618 0.18174,-3.0156 0.94771,-4.57146 2.0991,-4.26389 5.79797,-6.24926 11.16968,-5.99532 3.29723,0.15587 5.08383,0.83845 7.11379,2.71785 2.38779,2.21066 3.46435,4.83483 3.477,8.47536 0.0259,7.43979 -5.49177,12.16033 -13.22271,11.31259 z m 4.17208,-4.98577 c 2.65377,-1.10882 4.07535,-4.2954 3.46416,-7.76516 -0.59539,-3.38011 -2.58312,-5.14987 -5.78416,-5.14987 -3.8287,0 -5.82342,2.24346 -5.81824,6.54382 0.005,4.27178 2.10802,6.74329 5.76059,6.77036 0.76867,0.006 1.83859,-0.17393 2.37765,-0.39915 z m -97.834578,-6.33737 v -10.98021 h 2.645833 2.645833 v 10.98021 10.9802 h -2.645833 -2.645833 z m 32.279168,0 v -10.98021 l 2.44739,0.0176 2.4474,0.0176 3.30729,4.6644 c 1.81901,2.56543 3.87284,5.49101 4.56406,6.5013 l 1.25677,1.8369 v -6.51893 -6.51894 h 2.64584 2.64583 v 10.98021 10.98021 h -2.33685 -2.33684 l -1.68609,-2.4474 c -0.92735,-1.34604 -2.9714,-4.21875 -4.54232,-6.38378 -1.57093,-2.16503 -2.85623,-4.04027 -2.85623,-4.16719 0,-0.12693 -0.0893,-0.23088 -0.19844,-0.23101 -0.10914,-1.3e-4 -0.16285,2.97644 -0.11936,6.61459 l 0.0791,6.61481 h -2.65877 -2.65876 z m 23.8125,0 v -10.98021 h 2.64583 2.64583 v 10.98021 10.9802 h -2.64583 -2.64583 z m 14.81666,2.25821 v -8.7405 h -3.175 -3.175 v -2.24896 -2.24896 h 9.12813 9.12812 v 2.24081 2.24082 l -3.23106,0.0743 -3.23107,0.0743 -0.0101,8.59896 -0.0101,8.59895 -2.71197,0.0754 -2.71198,0.0754 v -8.74051 z m 39.15834,-2.28022 V 160.0264 l 5.88697,0.11214 c 6.40644,0.12205 7.23559,0.26965 8.96586,1.59611 1.50196,1.15143 2.17855,2.5508 2.30423,4.76579 0.1642,2.89363 -0.98205,5.17205 -3.16129,6.28382 l -1.01894,0.51982 1.36263,2.31285 c 0.74946,1.27207 1.8778,3.14321 2.50743,4.15809 0.62963,1.01489 1.14477,1.93762 1.14477,2.05053 0,0.1129 -1.35511,0.20527 -3.01135,0.20527 h -3.01136 l -2.0297,-3.96875 -2.02969,-3.96874 h -1.30895 -1.30895 v 3.96874 3.96875 h -2.64583 -2.64583 z m 10.4889,-1.58742 c 1.49003,-1.11246 1.49749,-3.45074 0.014,-4.35533 -0.65722,-0.40074 -1.33165,-0.51578 -3.02834,-0.51654 l -2.18292,-9.9e-4 v 2.60173 c 0,1.43096 0.0496,2.65135 0.11025,2.71198 0.0606,0.0606 1.06747,0.10762 2.23737,0.10441 1.72197,-0.005 2.26473,-0.10858 2.84962,-0.54526 z M 89.409302,138.10999 v -16.66875 h 8.273547 c 7.542341,0 8.448451,0.0483 10.252601,0.54592 3.39985,0.93784 5.48843,2.45108 6.81299,4.9362 2.20772,4.14211 1.65199,10.08955 -1.24666,13.34176 -2.49009,2.79382 -5.95863,3.90384 -12.25237,3.92106 l -3.373442,0.009 v 5.29167 5.29166 h -4.233333 -4.233333 z m 16.007288,-1.4552 c 1.87072,-0.93536 2.77109,-3.68642 1.88619,-5.76319 -0.84753,-1.98905 -2.3293,-2.56751 -6.58254,-2.56971 l -2.844272,-0.001 v 4.5195 4.51949 l 3.241142,-0.0877 c 2.58895,-0.0701 3.45411,-0.19421 4.29948,-0.61689 z m 15.74271,1.4552 v -16.66875 h 11.66623 11.66622 l -0.0907,3.37344 -0.0907,3.37344 -7.34219,0.0703 -7.34218,0.0703 v 3.03852 3.03853 h 6.35 6.35 v 3.43958 3.43958 h -6.35 -6.35 v 3.27726 3.27727 l 0.85989,0.12699 c 0.47295,0.0699 3.18818,0.0668 6.03386,-0.007 2.84568,-0.0736 5.85201,-0.0492 6.68073,0.0544 l 1.50677,0.18826 v 3.28825 3.28825 H 132.93326 121.1593 v -16.66874 z m 27.66145,16.07344 c 0.24957,-0.82341 9.15132,-24.07596 11.87627,-31.02239 l 0.62275,-1.5875 4.59343,-0.072 4.59341,-0.072 2.62048,6.95115 c 1.44127,3.82314 3.56034,9.45147 4.70911,12.50741 1.14874,3.05594 2.43951,6.47898 2.86837,7.60677 0.42884,1.12779 1.13393,3.00302 1.56681,4.16719 l 0.78711,2.11666 h -4.44939 -4.44937 l -0.33618,-1.12448 c -0.18489,-0.61846 -0.69201,-2.10887 -1.12694,-3.31201 l -0.79078,-2.18754 -6.2234,0.0709 -6.22341,0.0709 -0.76457,2.11667 c -0.42052,1.16416 -0.95156,2.62268 -1.18008,3.24114 l -0.4155,1.12448 h -4.22928 -4.22928 z m 20.7573,-12.91851 c 0,-0.22132 -2.86081,-8.61525 -3.60016,-10.56326 -0.12441,-0.32777 -4.07276,9.9892 -4.07276,10.64204 0,0.11323 1.72641,0.20588 3.83646,0.20588 2.56162,0 3.83646,-0.0946 3.83646,-0.28466 z m 17.4625,-3.15493 v -16.66875 h 4.10104 4.10104 v 6.61459 c 0,3.63802 0.0893,6.6069 0.19844,6.59751 0.20018,-0.0172 1.89561,-2.17576 7.3007,-9.29491 l 2.9519,-3.88803 4.84426,-0.0146 c 3.68559,-0.0111 4.79764,0.0609 4.64934,0.30084 -0.10724,0.17347 -2.5848,3.30212 -5.50574,6.95254 -2.92092,3.65042 -5.63306,7.06568 -6.02697,7.58948 l -0.7162,0.95235 6.86776,8.61277 c 3.77727,4.73703 6.86776,8.68076 6.86776,8.76386 0,0.0831 -2.2973,0.15108 -5.10511,0.15108 h -5.10511 l -3.39971,-4.50731 c -1.86983,-2.47903 -4.36477,-5.72348 -5.54437,-7.2099 l -2.14466,-2.70258 -0.0704,7.2099 -0.0704,7.20989 h -4.09681 -4.09678 z"
       id="path452" /></g></svg>
