<?xml version="1.0" encoding="UTF-8" standalone="no"?>
<!-- Created with Inkscape (http://www.inkscape.org/) -->

<svg
   version="1.1"
   id="svg2"
   width="1024"
   height="1024"
   viewBox="0 0 1024 1024"
   sodipodi:docname="logo.svg"
   inkscape:version="1.2.2 (b0a8486541, 2022-12-01)"
   xmlns:inkscape="http://www.inkscape.org/namespaces/inkscape"
   xmlns:sodipodi="http://sodipodi.sourceforge.net/DTD/sodipodi-0.dtd"
   xmlns="http://www.w3.org/2000/svg"
   xmlns:svg="http://www.w3.org/2000/svg">
  <defs
     id="defs6" />
  <sodipodi:namedview
     id="namedview4"
     pagecolor="#ffffff"
     bordercolor="#666666"
     borderopacity="1.0"
     inkscape:showpageshadow="2"
     inkscape:pageopacity="0.0"
     inkscape:pagecheckerboard="0"
     inkscape:deskcolor="#d1d1d1"
     showgrid="false"
     inkscape:zoom="0.65186406"
     inkscape:cx="602.1194"
     inkscape:cy="460.21865"
     inkscape:window-width="1920"
     inkscape:window-height="1048"
     inkscape:window-x="1920"
     inkscape:window-y="0"
     inkscape:window-maximized="1"
     inkscape:current-layer="g8" />
  <g
     inkscape:groupmode="layer"
     inkscape:label="Image"
     id="g8">
    <path
       style="fill:#000000"
       d="m 235.9866,919.93177 c -11.61392,-2.72655 -25.09038,-12.63416 -31.33116,-23.03402 -6.81713,-11.36031 -6.33052,14.51073 -6.04532,-321.40956 l 0.25805,-303.94426 2.62366,-6.74387 c 5.0676,-13.02579 14.82502,-22.47653 27.55058,-26.68463 6.05724,-2.00302 8.19629,-2.04261 112.88418,-2.08909 58.69047,-0.0261 106.91842,0.16109 107.17322,0.41589 0.2548,0.2548 -3.96809,5.92178 -9.38419,12.59328 l -9.84745,12.13001 -91.00038,-0.0759 c -50.05021,-0.0417 -93.18895,0.2241 -95.86386,0.59074 -6.71304,0.92012 -13.54385,5.67181 -16.38935,11.40086 l -2.25359,4.53731 0.25359,136.29833 0.25359,136.29833 21.59858,-24.33564 c 11.87922,-13.38458 29.38124,-32.88562 38.89339,-43.33562 9.51214,-10.45 25.44278,-27.98575 35.40142,-38.96832 23.07464,-25.44717 37.01909,-40.2817 40.26429,-42.83437 1.4065,-1.10635 4.64641,-2.20991 7.19979,-2.45236 5.62271,-0.53388 7.86941,1.04752 19.54185,13.75505 4.29419,4.675 8.2895,8.5 8.87846,8.5 0.58897,0 10.7799,-12.19669 22.64653,-27.10376 11.86663,-14.90706 32.58724,-40.78206 46.04581,-57.5 13.45857,-16.71793 30.9712,-38.49624 38.91696,-48.39624 7.94576,-9.9 16.62171,-20.50991 19.27988,-23.57758 l 4.83304,-5.57758 v -21.17242 c 0,-18.69459 -0.18626,-21.17242 -1.59156,-21.17242 -0.87535,0 -6.17008,3.9375 -11.76606,8.75 -27.35976,23.52921 -45.99076,38.808 -47.98858,39.35417 -3.16229,0.86451 -5.96581,-0.45014 -7.64302,-3.58403 -1.31424,-2.45567 -1.26459,-3.03534 0.5178,-6.04549 1.85887,-3.13932 40.27258,-46.18353 45.86969,-51.39896 3.38478,-3.15397 3.33607,-5.07569 -0.12868,-5.07569 -1.50172,0 -9.93922,-0.4677 -18.75,-1.03933 -8.81077,-0.57163 -25.82328,-1.64154 -37.80558,-2.37758 -18.23748,-1.12028 -22.10589,-1.62776 -23.75,-3.11566 -2.43445,-2.20315 -2.53327,-6.54446 -0.21401,-9.4021 1.59884,-1.96999 3.43431,-2.28218 21.25,-3.61441 46.97749,-3.5129 60.49008,-4.63577 61.22068,-5.08731 0.42863,-0.2649 0.77932,-0.9068 0.77932,-1.42643 0,-0.51964 -12.78164,-14.85202 -28.40366,-31.84975 -15.62201,-16.99773 -28.71935,-31.89964 -29.1052,-33.11535 -0.93301,-2.93966 1.27101,-6.87428 4.27271,-7.62766 1.63506,-0.41037 3.40454,0.13354 5.56658,1.7111 4.7777,3.4861 41.76046,34.49579 54.14848,45.40298 5.98812,5.27232 11.36755,9.42671 11.95429,9.23198 0.70954,-0.23548 1.4506,-14.72681 2.21285,-43.27227 0.63032,-23.60501 1.25363,-46.93755 1.38512,-51.85008 0.32099,-11.9923 0.89126,-13.79133 4.68316,-14.77391 4.96867,-1.28751 10.537,0.314 11.32406,3.25692 0.36596,1.3684 1.22913,21.3792 1.91814,44.46843 0.68901,23.08924 1.54316,46.6036 1.89811,52.25414 l 0.64536,10.27371 3.16872,-2.27371 c 3.50371,-2.51408 41.37099,-35.03982 50.81213,-43.64459 12.34411,-11.25059 16.5337,-13.11457 20.51915,-9.12912 4.43289,4.43289 3.43586,6.02028 -19.75,31.44418 -29.46973,32.31433 -35.6659,39.55662 -34.63139,40.47829 0.88187,0.78569 12.37681,1.84581 49.88139,4.60031 25.97045,1.90739 27.94104,2.20209 30.00983,4.48809 2.32973,2.57432 2.20023,6.72351 -0.28748,9.21123 -2.21479,2.21478 0.51463,1.94716 -53.61713,5.25717 -14.24214,0.87087 -26.46071,1.9068 -27.15239,2.30207 -0.86045,0.49171 1.90668,4.19237 8.76254,11.71866 5.51107,6.05 14.56846,16.175 20.12754,22.5 5.55907,6.325 12.48108,14.11315 15.38225,17.307 5.61796,6.18474 6.18821,7.94396 3.71814,11.47049 -2.41898,3.45358 -6.87835,2.91525 -12.34031,-1.48971 -7.67589,-6.19044 -27.75977,-23.17864 -40.24033,-34.03778 -6.47926,-5.6375 -12.47396,-10.25 -13.32156,-10.25 -1.33936,0 -1.5411,2.75751 -1.5411,21.06456 v 21.06456 l 2.96738,2.49688 c 4.76316,4.00794 60.72363,68.73028 94.99967,109.874 10.08028,12.1 19.47852,23.24574 20.88499,24.7683 l 2.55721,2.76831 6.04538,-5.92666 c 10.79885,-10.5868 16.31393,-13.06164 21.30963,-9.56252 1.21509,0.85109 11.5258,13.11359 22.91268,27.25 11.38688,14.13641 25.69196,31.77757 31.78907,39.20257 19.84706,24.16957 32.73556,39.97243 72.79057,89.25 13.7472,16.9125 25.6133,30.75 26.3692,30.75 1.1593,0 1.3742,-22.57988 1.3742,-144.37427 0,-158.10499 0.3187,-149.51987 -5.7888,-155.95314 -1.4912,-1.57067 -4.5112,-3.82704 -6.7112,-5.01417 l -4,-2.15842 -93.99998,-0.20339 c -51.7,-0.11187 -94.489,-0.22437 -95.08666,-0.25 -1.59776,-0.0685 -19.7327,-24.1624 -18.74953,-24.91042 0.4599,-0.3499 48.98619,-0.41119 107.83619,-0.13619 l 106.99998,0.5 5.5,2.23796 c 12.0068,4.88558 22.9366,16.80881 26.7812,29.21526 1.6091,5.19286 1.7188,24.912 1.7188,309.04678 0,290.53949 -0.078,303.74496 -1.817,309.23638 -3.6674,11.5783 -13.0661,22.47596 -24.7761,28.72762 -12.0817,6.45016 11.1024,6.01495 -315.40688,5.92077 -174.87701,-0.0504 -298.59606,-0.46037 -300.88157,-0.99693 z m 602.48235,-27.04385 c 5.021,-1.70752 10.6767,-6.51446 13.187,-11.20798 l 2.2122,-4.13601 v -136.5 -136.5 h -314.99998 -315 l -0.25362,134.8797 c -0.1738,92.43083 0.0792,136.11558 0.80381,138.80667 1.33478,4.95703 7.24359,11.57688 12.44981,13.94797 3.8405,1.74909 15.84721,1.82261 301.10078,1.8437 222.22047,0.0164 297.9575,-0.2694 300.5,-1.13405 z M 342.63272,874.50234 c -15.87057,-4.27414 -27.46858,-15.22996 -32.5104,-30.71027 -2.95121,-9.06135 -2.90725,-25.9791 0.0888,-34.16741 6.05259,-16.54202 17.59828,-26.44723 35.18069,-30.18204 9.05345,-1.92311 20.45403,-1.26966 29.18931,1.67305 8.66517,2.91908 16.81552,8.38746 16.76713,11.24969 -0.015,0.88539 -9.48923,14.52107 -11.45597,16.4878 -0.17159,0.17159 -1.48517,-0.86121 -2.91906,-2.2951 -4.58742,-4.58742 -12.28855,-7.49342 -19.88716,-7.50436 -7.88734,-0.0114 -12.82764,1.75897 -17.55551,6.29091 -6.75508,6.47515 -9.67584,16.49416 -7.97336,27.35076 1.48981,9.50041 6.6368,16.76522 14.79571,20.88367 4.69178,2.36831 14.97687,2.27337 21.51528,-0.19861 l 5,-1.89035 0.29872,-5.68343 0.29872,-5.68343 -8.79872,-0.28965 -8.79873,-0.28964 -0.28647,-9.77126 -0.28647,-9.77126 19.78647,0.27126 19.78647,0.27126 0.2708,20.27848 0.27079,20.27847 -2.69545,2.49806 c -10.93767,10.13669 -34.15751,15.19195 -50.08159,10.9034 z m 320,0 c -11.57909,-3.11839 -22.64913,-11.13939 -28.01829,-20.30117 -4.01291,-6.84751 -6.24786,-16.39606 -6.23439,-26.6356 0.0194,-14.75027 3.72687,-24.88509 12.6154,-34.48577 11.95276,-12.9104 30.88961,-17.89094 49.71653,-13.07582 22.08551,5.64852 34.65547,22.68119 34.71508,47.03995 0.0724,29.58411 -19.70855,49.10982 -49.55888,48.91941 -4.4,-0.0281 -10.35595,-0.68552 -13.23545,-1.461 z m 26.35896,-21.62147 c 8.94326,-4.20383 13.79213,-13.11147 13.79213,-25.33694 0,-17.3227 -9.93019,-28.42596 -25.4693,-28.47804 -12.07602,-0.0405 -20.98499,6.63435 -24.4562,18.32319 -7.38048,24.85279 14.02896,45.88209 36.13337,35.49179 z m -418.38362,21.35174 c -0.98987,-0.64353 -1.20433,-10.77732 -1,-47.25394 l 0.26011,-46.43474 h 10.5 10.5 v 47 47 l -9.5,0.25394 c -5.225,0.13967 -10.06705,-0.11469 -10.76011,-0.56526 z m 142.01011,0.14904 c -0.97509,-0.39346 -1.25,-10.83118 -1.25,-47.45999 v -46.9556 l 8.74933,0.28894 8.74933,0.28893 5.00067,6.62619 c 2.75037,3.64441 11.97567,15.75682 20.50067,26.91646 l 15.5,20.29027 0.5,-26.91646 0.5,-26.91646 h 10.5 10.5 l 0.25987,46.72847 0.25988,46.72847 -2.30154,0.57765 c -1.26585,0.31771 -4.96369,0.4399 -8.21742,0.27153 l -5.91587,-0.30612 -20.54246,-26.71665 c -11.29835,-14.69416 -21.0785,-27.51916 -21.73365,-28.5 -0.93627,-1.4017 -1.20378,4.23739 -1.25,26.35002 l -0.0588,28.13337 -2.25,0.60297 c -2.66821,0.71506 -15.70771,0.69122 -17.5,-0.032 z m 101.98989,-0.1683 c -0.99009,-0.62853 -1.20437,-10.75008 -1,-47.23468 l 0.26011,-46.43474 h 10.5 10.5 l 0.26018,45.88527 c 0.18738,33.04751 -0.0567,46.2671 -0.87245,47.25 -1.26032,1.5186 -17.4057,1.95753 -19.64784,0.53415 z m 61.23047,-0.41942 c -0.25678,-0.6875 -0.58016,-17.45 -0.71861,-37.25 l -0.25175,-36 -12.75,-0.27988 -12.75,-0.27987 v -9.98215 -9.98215 l 37.75,0.26202 37.75,0.26203 v 9.5 9.5 l -13.25,0.27903 -13.25,0.27902 v 36.85434 36.85435 l -2.25,0.60297 c -4.38201,1.17434 -19.78538,0.70363 -20.27964,-0.61971 z m 162.98763,0 c -0.26359,-0.6875 -0.36196,-21.95 -0.21862,-47.25 l 0.26063,-46 h 23.5 c 20.45026,0 24.20355,0.24492 28.92123,1.88724 6.31282,2.19762 13.33284,8.24564 16.32875,14.06781 2.505,4.86817 3.4912,17.1175 1.863,23.14083 -1.5768,5.8335 -6.44268,12.07005 -12.21889,15.66074 -3.4857,2.16683 -4.79711,3.55373 -4.38233,4.63461 0.32554,0.84835 5.32748,8.63299 11.11542,17.29919 5.7879,8.6662 10.238,16.21862 9.8891,16.78315 -0.3737,0.60473 -5.3155,1.02643 -12.02861,1.02643 -13.34095,0 -10.77578,2.07621 -22.8569,-18.5 l -8.21997,-14 -4.4554,-0.62337 c -2.45047,-0.34286 -4.7929,-0.4288 -5.2054,-0.19099 -0.4125,0.23782 -0.75,7.55769 -0.75,16.26639 0,13.51604 -0.23156,15.92285 -1.58179,16.44098 -3.12354,1.19862 -19.45587,0.67248 -19.96022,-0.64301 z m 42.64413,-53.03656 c 6.12326,-4.12056 7.04551,-13.5549 1.78999,-18.31108 -2.23265,-2.02052 -13.41259,-3.50523 -19.64211,-2.60851 l -3.25,0.46783 v 11.36916 11.36916 h 8.85212 c 7.56455,0 9.34634,-0.33259 12.25,-2.28656 z M 293.8677,756.81984 c -0.30337,-1.25175 -0.42736,-30.85091 -0.27555,-65.77591 l 0.27602,-63.5 32,-0.27921 c 25.96151,-0.22652 33.32092,0.0125 39,1.26667 23.80987,5.25817 36.96241,27.9557 30.95872,53.42591 -2.04247,8.66499 -5.73747,15.11438 -12.11501,21.146 -6.37794,6.03199 -15.4746,10.47461 -24.34371,11.88897 -3.575,0.5701 -12.67855,1.03995 -20.23011,1.04411 l -13.73011,0.008 -0.26989,21.25 -0.26989,21.25 -15.22445,0.27591 c -15.11501,0.27392 -15.22841,0.25955 -15.77602,-2 z m 60.00047,-68.66595 c 7.2766,-3.35837 10.51284,-8.58308 10.48355,-16.92506 -0.0231,-6.57961 -3.33033,-12.09867 -8.94956,-14.9349 -3.9432,-1.99028 -5.96279,-2.25004 -17.49588,-2.25036 l -13.03811,-3.6e-4 0.20567,17.25036 c 0.11312,9.4877 0.22562,17.58786 0.25,18.00036 0.0244,0.4125 5.55683,0.74012 12.29433,0.72804 9.76506,-0.0175 13.06141,-0.39645 16.25,-1.86808 z m 64.74281,5.15034 0.25719,-65.7603 h 44.5 44.5 v 13 13 l -28.78066,0.26539 -28.78065,0.26538 0.28065,12.23462 0.28066,12.23461 24.5,0.5 24.5,0.5 v 12.5 12.5 l -24.77811,0.26753 -24.7781,0.26753 0.2781,13.73247 0.27811,13.73247 27,0.17906 c 14.85,0.0985 27.80094,0.21099 28.77988,0.25 1.62501,0.0648 1.75552,1.18027 1.5,12.82094 l -0.27988,12.75 -44.75719,0.2603 -44.7572,0.2603 z m 110.75719,64.71632 c 0,-0.59079 7.70177,-21.41472 17.11504,-46.27539 9.41327,-24.86068 20.16739,-53.30123 23.89805,-63.20123 3.73067,-9.9 7.10204,-18.7875 7.49196,-19.75 0.6381,-1.57516 2.49873,-1.75 18.62338,-1.75 17.63181,0 17.92933,0.0355 18.85764,2.25 0.88186,2.10368 6.82456,17.70928 36.84294,96.75 6.57975,17.325 11.63812,31.84932 11.24081,32.27628 -0.3973,0.42695 -7.82316,0.65195 -16.5019,0.5 l -15.77952,-0.27628 -2.4224,-6.5 c -1.33232,-3.575 -3.57697,-9.54514 -4.98811,-13.26697 l -2.56571,-6.76698 -24.96648,0.26698 -24.96647,0.26697 -5.18962,13 -5.18961,13 -15.75,0.27539 c -10.72922,0.18761 -15.75,-0.067 -15.75,-0.79877 z m 81.55,-56.51118 c -0.81225,-1.94401 -4.26225,-11.19006 -7.66665,-20.54677 -3.4044,-9.35672 -6.51702,-16.65366 -6.91694,-16.21544 -0.73028,0.80024 -14.96641,38.55359 -14.96641,39.69004 0,0.3337 6.98104,0.60673 15.51342,0.60673 h 15.51342 z m 71.11667,56.86789 c -0.36667,-0.36666 -0.66667,-30.06666 -0.66667,-66 v -65.33333 h 16 16 v 26.5 c 0,14.575 0.3375,26.48038 0.75,26.45641 0.4125,-0.024 9.64044,-11.94897 20.50653,-26.5 l 19.75653,-26.45641 h 16.49347 c 9.07141,0 16.49347,0.3619 16.49347,0.80422 0,2.11689 -15.03935,22.92734 -35.67373,49.36293 -4.57945,5.86693 -8.32219,11.26693 -8.3172,12 0.005,0.73307 11.4963,16.13393 25.53624,34.22413 14.03995,18.0902 25.36086,33.3902 25.1576,34 -0.2527,0.75809 -6.19105,1.10872 -18.77745,1.10872 h -18.40788 l -21.00879,-28.20895 c -11.55483,-15.51492 -21.34629,-28.22742 -21.75879,-28.25 -0.4125,-0.0226 -0.75,12.78395 -0.75,28.45895 v 28.5 h -15.33333 c -8.43334,0 -15.63334,-0.3 -16,-0.66667 z M 536.38936,542.04393 c 8.07155,-18.975 16.52327,-38.55 18.78161,-43.5 2.25834,-4.95 3.73453,-9.13068 3.28041,-9.29041 -0.45412,-0.15973 -14.04612,8.33451 -30.20444,18.87608 -29.87397,19.48955 -35.93061,23.19582 -36.68044,22.44599 -0.23128,-0.23128 4.50572,-7.53302 10.52666,-16.22608 6.02095,-8.69307 15.78161,-23.00558 21.69037,-31.80558 5.90875,-8.8 14.50032,-21.4 19.09237,-28 4.59205,-6.6 13.1604,-19.04299 19.04078,-27.6511 l 10.6916,-15.6511 -16.18488,-54.3489 c -8.90168,-29.89189 -16.52133,-55.44578 -16.93255,-56.7864 -1.16041,-3.78305 -2.5742,-3.49264 -5.62549,1.15552 -7.78094,11.85305 -22.29229,30.04874 -72.00132,90.28198 -16.34046,19.8 -36.23214,43.97158 -44.20375,53.71462 -7.9716,9.74304 -15.38091,17.99617 -16.46514,18.34029 -3.78061,1.19992 -6.54543,-0.57119 -15.90476,-10.18841 -5.18222,-5.32501 -10.97437,-11.23543 -12.87145,-13.13427 l -3.44923,-3.45244 -4.05077,4.374 c -2.22792,2.40571 -12.51123,13.70249 -22.85179,25.10397 -18.93002,20.87221 -45.2084,49.25375 -81.93467,88.49224 -10.93922,11.6875 -19.36718,21.25 -18.72881,21.25 0.63838,0 5.95404,-3.09802 11.81259,-6.8845 5.85855,-3.78647 24.37691,-15.63886 41.15191,-26.33864 16.775,-10.69978 39.04209,-24.9505 49.48242,-31.66826 10.44032,-6.71776 19.14013,-11.74095 19.33289,-11.16266 0.38817,1.16449 -4.06043,14.96974 -9.97776,30.96385 -2.11821,5.72539 -3.64221,10.61888 -3.38666,10.87443 0.73014,0.73015 12.41748,-9.58569 48.51663,-42.82325 19.49693,-17.95141 49.62966,-44.89 71.03248,-63.50287 22.73358,-19.77017 22.89194,-19.89949 23.55537,-19.23606 0.27887,0.27887 -2.38552,7.88049 -5.92088,16.8925 -13.29839,33.89902 -41.76226,106.07762 -48.93644,124.09291 -4.0974,10.28909 -7.31782,18.83909 -7.15647,19 0.16134,0.1609 20.65826,0.29255 45.54871,0.29255 h 45.25536 z m 166.51659,-54.11916 c -6.385,-16.01492 -12.30923,-30.47198 -13.16497,-32.12679 -1.43084,-2.76695 -1.37369,-4.20329 0.71113,-17.87259 1.24685,-8.17512 1.97151,-15.15935 1.61035,-15.52051 -0.58231,-0.5823 -28.72246,25.90384 -29.50768,27.77328 -0.17237,0.41037 9.95263,14.28845 22.5,30.84019 12.54736,16.55173 24.16339,32.08046 25.81339,34.50829 1.82203,2.68094 3.127,3.84525 3.32343,2.9652 0.17789,-0.79696 -4.90066,-14.55214 -11.28565,-30.56707 z"
       id="path293" />
  </g>
</svg>
