M48
; DRILL file {KiCad 9.0.5} date 2025-12-18T19:52:23+0100
; FORMAT={-:-/ absolute / metric / decimal}
; #@! TF.CreationDate,2025-12-18T19:52:23+01:00
; #@! TF.GenerationSoftware,Kicad,Pcbnew,9.0.5
; #@! TF.FileFunction,Plated,1,4,PTH
FMAT,2
METRIC
; #@! TA.AperFunction,Plated,PTH,ComponentDrill
T1C0.950
; #@! TA.AperFunction,Plated,PTH,ComponentDrill
T2C1.000
; #@! TA.AperFunction,Plated,PTH,ViaDrill
T3C1.200
; #@! TA.AperFunction,Plated,PTH,ComponentDrill
T4C1.900
; #@! TA.AperFunction,Plated,PTH,ComponentDrill
T5C4.300
%
G90
G05
T1
X138.15Y-85.95
X138.15Y-88.45
X138.15Y-90.95
X138.15Y-93.45
X138.15Y-95.95
T2
X142.909Y-102.195
X142.909Y-113.195
T3
X95.5Y-59.5
X97.0Y-36.5
X98.0Y-74.0
X98.0Y-78.0
X100.0Y-76.0
X102.0Y-74.0
X102.0Y-78.0
X104.0Y-76.0
X136.0Y-50.0
X136.0Y-54.0
X138.0Y-48.0
X138.0Y-52.0
X138.0Y-59.0
X138.0Y-63.0
X138.0Y-67.0
X140.0Y-50.0
X140.0Y-54.0
X140.0Y-61.0
X140.0Y-65.0
X142.0Y-48.0
X142.0Y-52.0
X142.0Y-59.0
X142.0Y-63.0
X142.0Y-67.0
X144.0Y-50.0
X144.0Y-54.0
X144.0Y-65.0
X146.0Y-41.0
X146.0Y-67.0
X147.5Y-92.5
X148.0Y-43.0
X148.0Y-65.0
X150.0Y-41.0
X150.0Y-100.0
X150.0Y-105.0
X151.0Y-113.0
X152.0Y-35.0
X152.0Y-39.0
X152.0Y-43.0
X152.0Y-76.0
X152.0Y-98.0
X152.0Y-102.0
X154.0Y-37.0
X154.0Y-41.0
X154.0Y-100.0
X156.0Y-35.0
X156.0Y-39.0
X156.0Y-43.0
X156.0Y-109.0
X156.0Y-113.0
X157.0Y-92.5
X158.0Y-37.0
X158.0Y-41.0
X158.0Y-107.0
X158.0Y-111.0
T4
X152.909Y-105.195
X152.909Y-110.195
T5
X115.997Y-27.99
X127.981Y-27.997
M30
