G04 #@! TF.GenerationSoftware,KiCad,Pcbnew,9.0.5*
G04 #@! TF.CreationDate,2026-01-05T14:43:58+01:00*
G04 #@! TF.ProjectId,peak-ignitor-box-bms,7065616b-2d69-4676-9e69-746f722d626f,rev?*
G04 #@! TF.SameCoordinates,Original*
G04 #@! TF.FileFunction,Copper,L3,Inr*
G04 #@! TF.FilePolarity,Positive*
%FSLAX46Y46*%
G04 Gerber Fmt 4.6, Leading zero omitted, Abs format (unit mm)*
G04 Created by KiCad (PCBNEW 9.0.5) date 2026-01-05 14:43:58*
%MOMM*%
%LPD*%
G01*
G04 APERTURE LIST*
G04 Aperture macros list*
%AMRoundRect*
0 Rectangle with rounded corners*
0 $1 Rounding radius*
0 $2 $3 $4 $5 $6 $7 $8 $9 X,Y pos of 4 corners*
0 Add a 4 corners polygon primitive as box body*
4,1,4,$2,$3,$4,$5,$6,$7,$8,$9,$2,$3,0*
0 Add four circle primitives for the rounded corners*
1,1,$1+$1,$2,$3*
1,1,$1+$1,$4,$5*
1,1,$1+$1,$6,$7*
1,1,$1+$1,$8,$9*
0 Add four rect primitives between the rounded corners*
20,1,$1+$1,$2,$3,$4,$5,0*
20,1,$1+$1,$4,$5,$6,$7,0*
20,1,$1+$1,$6,$7,$8,$9,0*
20,1,$1+$1,$8,$9,$2,$3,0*%
G04 Aperture macros list end*
G04 #@! TA.AperFunction,ComponentPad*
%ADD10RoundRect,0.250000X-0.725000X0.600000X-0.725000X-0.600000X0.725000X-0.600000X0.725000X0.600000X0*%
G04 #@! TD*
G04 #@! TA.AperFunction,ComponentPad*
%ADD11O,1.950000X1.700000*%
G04 #@! TD*
G04 #@! TA.AperFunction,ComponentPad*
%ADD12C,7.500000*%
G04 #@! TD*
G04 #@! TA.AperFunction,ComponentPad*
%ADD13C,1.400000*%
G04 #@! TD*
G04 #@! TA.AperFunction,ComponentPad*
%ADD14RoundRect,0.770000X0.980000X-0.980000X0.980000X0.980000X-0.980000X0.980000X-0.980000X-0.980000X0*%
G04 #@! TD*
G04 #@! TA.AperFunction,ComponentPad*
%ADD15C,3.500000*%
G04 #@! TD*
G04 #@! TA.AperFunction,ViaPad*
%ADD16C,1.800000*%
G04 #@! TD*
G04 APERTURE END LIST*
D10*
X138150000Y-85950000D03*
D11*
X138150000Y-88450000D03*
X138150000Y-90950000D03*
X138150000Y-93450000D03*
X138150000Y-95950000D03*
D12*
X115996592Y-27990385D03*
D13*
X141409018Y-113195107D03*
X141409018Y-102195107D03*
D14*
X151409018Y-105195107D03*
D15*
X151409018Y-110195107D03*
D12*
X127981116Y-27996701D03*
D16*
X148000000Y-47000000D03*
X146000000Y-45000000D03*
X152000000Y-47000000D03*
X150000000Y-45000000D03*
X148000000Y-98000000D03*
X152000000Y-39000000D03*
X150000000Y-41000000D03*
X152000000Y-43000000D03*
X152000000Y-35000000D03*
X146000000Y-41000000D03*
X147500000Y-92500000D03*
X152500000Y-92500000D03*
X148000000Y-109500000D03*
X148000000Y-43000000D03*
X148000000Y-112500000D03*
X104000000Y-76000000D03*
X146000000Y-103500000D03*
X102000000Y-78000000D03*
X146000000Y-100000000D03*
X102000000Y-74000000D03*
X98000000Y-74000000D03*
X148000000Y-102000000D03*
X100000000Y-76000000D03*
X148000000Y-105000000D03*
X98000000Y-78000000D03*
X150000000Y-100000000D03*
X97000000Y-36500000D03*
X152000000Y-76000000D03*
X95500000Y-59500000D03*
X140000000Y-54000000D03*
X144000000Y-50000000D03*
X140000000Y-50000000D03*
X138000000Y-52000000D03*
X136000000Y-50000000D03*
X144000000Y-54000000D03*
X142000000Y-52000000D03*
X138000000Y-48000000D03*
X142000000Y-48000000D03*
X136000000Y-54000000D03*
X138000000Y-59000000D03*
X142000000Y-67000000D03*
X144000000Y-65000000D03*
X138000000Y-63000000D03*
X140000000Y-61000000D03*
X148000000Y-65000000D03*
X140000000Y-65000000D03*
X138000000Y-67000000D03*
X142000000Y-59000000D03*
X142000000Y-63000000D03*
X146000000Y-67000000D03*
G04 #@! TA.AperFunction,Conductor*
G36*
X122443039Y-22019685D02*
G01*
X122488794Y-22072489D01*
X122500000Y-22124000D01*
X122500000Y-57000000D01*
X151376000Y-57000000D01*
X151443039Y-57019685D01*
X151488794Y-57072489D01*
X151500000Y-57124000D01*
X151500000Y-69376000D01*
X151480315Y-69443039D01*
X151427511Y-69488794D01*
X151376000Y-69500000D01*
X98624000Y-69500000D01*
X98556961Y-69480315D01*
X98511206Y-69427511D01*
X98500000Y-69376000D01*
X98500000Y-37709168D01*
X98519685Y-37642129D01*
X98525624Y-37633682D01*
X98539134Y-37616075D01*
X98583599Y-37558127D01*
X98708164Y-37342373D01*
X98803502Y-37112207D01*
X98867982Y-36871565D01*
X98900500Y-36624565D01*
X98900500Y-36375435D01*
X98867982Y-36128435D01*
X98803502Y-35887793D01*
X98708164Y-35657627D01*
X98583599Y-35441873D01*
X98525624Y-35366317D01*
X98500430Y-35301147D01*
X98500000Y-35290831D01*
X98500000Y-33624500D01*
X98519685Y-33557461D01*
X98572489Y-33511706D01*
X98624000Y-33500500D01*
X110065890Y-33500500D01*
X110065892Y-33500500D01*
X110193186Y-33466392D01*
X110307314Y-33400500D01*
X110400500Y-33307314D01*
X110466392Y-33193186D01*
X110500500Y-33065892D01*
X110500500Y-24934108D01*
X110500500Y-22124000D01*
X110520185Y-22056961D01*
X110572989Y-22011206D01*
X110624500Y-22000000D01*
X122376000Y-22000000D01*
X122443039Y-22019685D01*
G37*
G04 #@! TD.AperFunction*
G04 #@! TA.AperFunction,Conductor*
G36*
X132442539Y-22019685D02*
G01*
X132488294Y-22072489D01*
X132499500Y-22124000D01*
X132499500Y-33065891D01*
X132533608Y-33193187D01*
X132566554Y-33250250D01*
X132599500Y-33307314D01*
X132692686Y-33400500D01*
X132806814Y-33466392D01*
X132934108Y-33500500D01*
X143376000Y-33500500D01*
X143443039Y-33520185D01*
X143488794Y-33572989D01*
X143500000Y-33624500D01*
X143500000Y-49000000D01*
X151376000Y-49000000D01*
X151443039Y-49019685D01*
X151488794Y-49072489D01*
X151500000Y-49124000D01*
X151500000Y-55870500D01*
X151480315Y-55937539D01*
X151427511Y-55983294D01*
X151376000Y-55994500D01*
X123629500Y-55994500D01*
X123562461Y-55974815D01*
X123516706Y-55922011D01*
X123505500Y-55870500D01*
X123505500Y-22124000D01*
X123525185Y-22056961D01*
X123577989Y-22011206D01*
X123629500Y-22000000D01*
X132375500Y-22000000D01*
X132442539Y-22019685D01*
G37*
G04 #@! TD.AperFunction*
G04 #@! TA.AperFunction,Conductor*
G36*
X161943039Y-33520185D02*
G01*
X161988794Y-33572989D01*
X162000000Y-33624500D01*
X162000000Y-106375500D01*
X161980315Y-106442539D01*
X161927511Y-106488294D01*
X161876000Y-106499500D01*
X159934108Y-106499500D01*
X159806812Y-106533608D01*
X159692686Y-106599500D01*
X159692683Y-106599502D01*
X159599502Y-106692683D01*
X159599500Y-106692686D01*
X159533608Y-106806812D01*
X159499500Y-106934108D01*
X159499500Y-113376000D01*
X159479815Y-113443039D01*
X159427011Y-113488794D01*
X159375500Y-113500000D01*
X146124000Y-113500000D01*
X146056961Y-113480315D01*
X146011206Y-113427511D01*
X146000000Y-113376000D01*
X146000000Y-108629500D01*
X146019685Y-108562461D01*
X146072489Y-108516706D01*
X146124000Y-108505500D01*
X150842432Y-108505500D01*
X150842447Y-108505500D01*
X150955040Y-108499176D01*
X150982630Y-108496067D01*
X151071732Y-108480928D01*
X151093757Y-108477186D01*
X151093758Y-108477185D01*
X151093774Y-108477183D01*
X151109493Y-108473595D01*
X151123185Y-108471269D01*
X151304090Y-108450886D01*
X151317973Y-108450107D01*
X151500056Y-108450107D01*
X151513939Y-108450887D01*
X151694852Y-108471270D01*
X151708557Y-108473598D01*
X151724253Y-108477181D01*
X151835409Y-108496068D01*
X151862571Y-108499128D01*
X151862964Y-108499173D01*
X151863000Y-108499177D01*
X151975589Y-108505500D01*
X151975606Y-108505500D01*
X153375990Y-108505500D01*
X153376000Y-108505500D01*
X153387588Y-108505433D01*
X153589743Y-108482519D01*
X153641254Y-108471313D01*
X153732938Y-108446784D01*
X153919527Y-108365692D01*
X154085974Y-108248700D01*
X154138778Y-108202945D01*
X154255179Y-108083832D01*
X154368308Y-107914736D01*
X154445083Y-107726329D01*
X154464768Y-107659290D01*
X154484917Y-107578406D01*
X154505500Y-107376000D01*
X154505500Y-103124000D01*
X154505433Y-103112412D01*
X154482519Y-102910257D01*
X154471313Y-102858746D01*
X154446784Y-102767062D01*
X154365692Y-102580473D01*
X154365691Y-102580471D01*
X154365689Y-102580468D01*
X154248705Y-102414033D01*
X154248704Y-102414032D01*
X154248700Y-102414026D01*
X154202945Y-102361222D01*
X154083832Y-102244821D01*
X154083830Y-102244819D01*
X153914738Y-102131693D01*
X153914731Y-102131690D01*
X153726328Y-102054916D01*
X153726322Y-102054914D01*
X153659293Y-102035233D01*
X153659295Y-102035233D01*
X153659290Y-102035232D01*
X153578406Y-102015083D01*
X153578402Y-102015082D01*
X153578403Y-102015082D01*
X153376001Y-101994500D01*
X153376000Y-101994500D01*
X152129500Y-101994500D01*
X152062461Y-101974815D01*
X152016706Y-101922011D01*
X152005500Y-101870500D01*
X152005500Y-93709162D01*
X152005346Y-93701778D01*
X152004628Y-93667296D01*
X152004198Y-93656979D01*
X151991212Y-93532492D01*
X151937426Y-93336281D01*
X151912232Y-93271112D01*
X151901203Y-93245761D01*
X151878987Y-93194695D01*
X151878983Y-93194688D01*
X151878981Y-93194683D01*
X151815200Y-93091386D01*
X151772097Y-93021577D01*
X151772092Y-93021571D01*
X151759180Y-93004743D01*
X151750170Y-92991258D01*
X151699638Y-92903734D01*
X151692464Y-92889187D01*
X151686719Y-92875317D01*
X151653783Y-92795802D01*
X151648579Y-92780469D01*
X151622414Y-92682820D01*
X151619252Y-92666923D01*
X151606061Y-92566721D01*
X151605000Y-92550537D01*
X151605000Y-92449460D01*
X151606061Y-92433276D01*
X151615658Y-92360378D01*
X151619252Y-92333071D01*
X151622413Y-92317180D01*
X151648580Y-92219523D01*
X151653782Y-92204200D01*
X151692468Y-92110800D01*
X151699638Y-92096263D01*
X151750168Y-92008743D01*
X151759181Y-91995254D01*
X151761580Y-91992128D01*
X151772094Y-91978426D01*
X151796918Y-91944638D01*
X151802857Y-91936191D01*
X151868308Y-91829567D01*
X151945083Y-91641160D01*
X151964768Y-91574121D01*
X151984917Y-91493237D01*
X151999151Y-91353254D01*
X152025517Y-91288553D01*
X152051212Y-91264352D01*
X152085971Y-91239921D01*
X152085970Y-91239921D01*
X152085974Y-91239919D01*
X152138778Y-91194164D01*
X152255179Y-91075051D01*
X152368308Y-90905955D01*
X152445083Y-90717548D01*
X152464768Y-90650509D01*
X152484917Y-90569625D01*
X152505500Y-90367219D01*
X152505500Y-77928715D01*
X152505500Y-77927242D01*
X152525185Y-77860203D01*
X152577989Y-77814448D01*
X152597404Y-77807468D01*
X152612207Y-77803502D01*
X152842373Y-77708164D01*
X153058127Y-77583599D01*
X153255776Y-77431938D01*
X153431938Y-77255776D01*
X153583599Y-77058127D01*
X153708164Y-76842373D01*
X153803502Y-76612207D01*
X153867982Y-76371565D01*
X153900500Y-76124565D01*
X153900500Y-75875435D01*
X153867982Y-75628435D01*
X153803502Y-75387793D01*
X153708164Y-75157627D01*
X153583599Y-74941873D01*
X153431938Y-74744224D01*
X153431933Y-74744218D01*
X153255781Y-74568066D01*
X153255774Y-74568060D01*
X153058126Y-74416400D01*
X152842376Y-74291837D01*
X152842366Y-74291833D01*
X152612203Y-74196496D01*
X152597404Y-74192531D01*
X152537744Y-74156165D01*
X152507216Y-74093317D01*
X152505500Y-74072757D01*
X152505500Y-70629510D01*
X152505433Y-70617920D01*
X152505433Y-70617912D01*
X152482519Y-70415757D01*
X152471313Y-70364246D01*
X152446784Y-70272562D01*
X152365692Y-70085973D01*
X152357240Y-70073949D01*
X152334794Y-70007785D01*
X152351681Y-69939987D01*
X152355612Y-69933712D01*
X152368308Y-69914736D01*
X152445083Y-69726329D01*
X152464768Y-69659290D01*
X152484917Y-69578406D01*
X152505500Y-69376000D01*
X152505500Y-57124000D01*
X152505433Y-57112412D01*
X152482519Y-56910257D01*
X152471313Y-56858746D01*
X152446784Y-56767062D01*
X152365692Y-56580473D01*
X152357240Y-56568449D01*
X152334794Y-56502285D01*
X152351681Y-56434487D01*
X152355612Y-56428212D01*
X152368308Y-56409236D01*
X152445083Y-56220829D01*
X152464768Y-56153790D01*
X152484917Y-56072906D01*
X152505500Y-55870500D01*
X152505500Y-49124000D01*
X152505433Y-49112412D01*
X152482519Y-48910257D01*
X152471313Y-48858746D01*
X152446784Y-48767062D01*
X152365692Y-48580473D01*
X152365691Y-48580471D01*
X152365689Y-48580468D01*
X152248705Y-48414033D01*
X152248704Y-48414032D01*
X152248700Y-48414026D01*
X152202945Y-48361222D01*
X152083832Y-48244821D01*
X152083830Y-48244819D01*
X151914738Y-48131693D01*
X151914731Y-48131690D01*
X151726328Y-48054916D01*
X151726322Y-48054914D01*
X151659293Y-48035233D01*
X151659295Y-48035233D01*
X151659290Y-48035232D01*
X151578406Y-48015083D01*
X151578402Y-48015082D01*
X151578403Y-48015082D01*
X151376001Y-47994500D01*
X151376000Y-47994500D01*
X144629500Y-47994500D01*
X144562461Y-47974815D01*
X144516706Y-47922011D01*
X144505500Y-47870500D01*
X144505500Y-33624500D01*
X144525185Y-33557461D01*
X144577989Y-33511706D01*
X144629500Y-33500500D01*
X161876000Y-33500500D01*
X161943039Y-33520185D01*
G37*
G04 #@! TD.AperFunction*
G04 #@! TA.AperFunction,Conductor*
G36*
X97693500Y-70019685D02*
G01*
X97727908Y-70052694D01*
X97751300Y-70085974D01*
X97797055Y-70138778D01*
X97916168Y-70255179D01*
X98085264Y-70368308D01*
X98273671Y-70445083D01*
X98273677Y-70445085D01*
X98288687Y-70449492D01*
X98340710Y-70464768D01*
X98421594Y-70484917D01*
X98556531Y-70498639D01*
X98623999Y-70505500D01*
X151376000Y-70505500D01*
X151443039Y-70525185D01*
X151488794Y-70577989D01*
X151500000Y-70629500D01*
X151500000Y-74071283D01*
X151480315Y-74138322D01*
X151427511Y-74184077D01*
X151408097Y-74191057D01*
X151387794Y-74196497D01*
X151157638Y-74291830D01*
X151157623Y-74291837D01*
X150941873Y-74416400D01*
X150744225Y-74568060D01*
X150744218Y-74568066D01*
X150568066Y-74744218D01*
X150568060Y-74744225D01*
X150416400Y-74941873D01*
X150291837Y-75157623D01*
X150291830Y-75157638D01*
X150196498Y-75387792D01*
X150132017Y-75628438D01*
X150099501Y-75875424D01*
X150099500Y-75875441D01*
X150099500Y-76124558D01*
X150099501Y-76124575D01*
X150132017Y-76371561D01*
X150196498Y-76612207D01*
X150291830Y-76842361D01*
X150291837Y-76842376D01*
X150416400Y-77058126D01*
X150568060Y-77255774D01*
X150568066Y-77255781D01*
X150744218Y-77431933D01*
X150744225Y-77431939D01*
X150941873Y-77583599D01*
X151157623Y-77708162D01*
X151157633Y-77708167D01*
X151387783Y-77803498D01*
X151387793Y-77803502D01*
X151408092Y-77808941D01*
X151467751Y-77845302D01*
X151498282Y-77908147D01*
X151500000Y-77928715D01*
X151500000Y-90367219D01*
X151480315Y-90434258D01*
X151427511Y-90480013D01*
X151375225Y-90491216D01*
X151000000Y-90488871D01*
X151000000Y-91290831D01*
X150980315Y-91357870D01*
X150974376Y-91366317D01*
X150916400Y-91441873D01*
X150791837Y-91657623D01*
X150791830Y-91657638D01*
X150696498Y-91887792D01*
X150632017Y-92128438D01*
X150599501Y-92375424D01*
X150599500Y-92375441D01*
X150599500Y-92624558D01*
X150599501Y-92624575D01*
X150632017Y-92871561D01*
X150696498Y-93112207D01*
X150791830Y-93342361D01*
X150791837Y-93342376D01*
X150916400Y-93558126D01*
X150974376Y-93633682D01*
X150999570Y-93698851D01*
X151000000Y-93709168D01*
X151000000Y-94500000D01*
X151000000Y-103000000D01*
X153376000Y-103000000D01*
X153443039Y-103019685D01*
X153488794Y-103072489D01*
X153500000Y-103124000D01*
X153500000Y-107376000D01*
X153480315Y-107443039D01*
X153427511Y-107488794D01*
X153376000Y-107500000D01*
X151975589Y-107500000D01*
X151947998Y-107496891D01*
X151870470Y-107479196D01*
X151870467Y-107479195D01*
X151870455Y-107479193D01*
X151563489Y-107444607D01*
X151563483Y-107444607D01*
X151254553Y-107444607D01*
X151254546Y-107444607D01*
X150947580Y-107479193D01*
X150947566Y-107479196D01*
X150870037Y-107496891D01*
X150842447Y-107500000D01*
X140624500Y-107500000D01*
X140557461Y-107480315D01*
X140511706Y-107427511D01*
X140500500Y-107376000D01*
X140500500Y-103844974D01*
X140520185Y-103777935D01*
X140572989Y-103732180D01*
X140642147Y-103722236D01*
X140671951Y-103730412D01*
X140861237Y-103808817D01*
X141076555Y-103866511D01*
X141297561Y-103895607D01*
X141297568Y-103895607D01*
X141520468Y-103895607D01*
X141520475Y-103895607D01*
X141741481Y-103866511D01*
X141956799Y-103808817D01*
X142162744Y-103723512D01*
X142355792Y-103612055D01*
X142532642Y-103476354D01*
X142690265Y-103318731D01*
X142825966Y-103141881D01*
X142937423Y-102948833D01*
X143022728Y-102742888D01*
X143080422Y-102527570D01*
X143109518Y-102306564D01*
X143109518Y-102083650D01*
X143080422Y-101862644D01*
X143022728Y-101647326D01*
X142937423Y-101441381D01*
X142825966Y-101248333D01*
X142690265Y-101071483D01*
X142690260Y-101071477D01*
X142532647Y-100913864D01*
X142532640Y-100913858D01*
X142355800Y-100778165D01*
X142355798Y-100778164D01*
X142355792Y-100778159D01*
X142162744Y-100666702D01*
X142162740Y-100666700D01*
X141956808Y-100581400D01*
X141956801Y-100581398D01*
X141956799Y-100581397D01*
X141741481Y-100523703D01*
X141741475Y-100523702D01*
X141741470Y-100523701D01*
X141520484Y-100494608D01*
X141520481Y-100494607D01*
X141520475Y-100494607D01*
X141297561Y-100494607D01*
X141297555Y-100494607D01*
X141297551Y-100494608D01*
X141076565Y-100523701D01*
X141076558Y-100523702D01*
X141076555Y-100523703D01*
X140881734Y-100575905D01*
X140861237Y-100581397D01*
X140861221Y-100581402D01*
X140671952Y-100659800D01*
X140602483Y-100667269D01*
X140540004Y-100635994D01*
X140504352Y-100575905D01*
X140500500Y-100545239D01*
X140500500Y-98434110D01*
X140500500Y-98434108D01*
X140466392Y-98306814D01*
X140400500Y-98192686D01*
X140307314Y-98099500D01*
X140250250Y-98066554D01*
X140193187Y-98033608D01*
X140129539Y-98016554D01*
X140065892Y-97999500D01*
X140065891Y-97999500D01*
X130824500Y-97999500D01*
X130757461Y-97979815D01*
X130711706Y-97927011D01*
X130700500Y-97875500D01*
X130700500Y-85285777D01*
X136174500Y-85285777D01*
X136174500Y-86614208D01*
X136174501Y-86614223D01*
X136184904Y-86746413D01*
X136184905Y-86746420D01*
X136239902Y-86964678D01*
X136239903Y-86964681D01*
X136332991Y-87169622D01*
X136332997Y-87169632D01*
X136448863Y-87336876D01*
X136470860Y-87403193D01*
X136454322Y-87469492D01*
X136361777Y-87629784D01*
X136361773Y-87629794D01*
X136268947Y-87853895D01*
X136206161Y-88088214D01*
X136174500Y-88328711D01*
X136174500Y-88571288D01*
X136206161Y-88811785D01*
X136268947Y-89046104D01*
X136361773Y-89270205D01*
X136361776Y-89270212D01*
X136483064Y-89480289D01*
X136483066Y-89480292D01*
X136483067Y-89480293D01*
X136593731Y-89624514D01*
X136618925Y-89689683D01*
X136604887Y-89758128D01*
X136593731Y-89775486D01*
X136483067Y-89919706D01*
X136361777Y-90129785D01*
X136361773Y-90129794D01*
X136268947Y-90353895D01*
X136206161Y-90588214D01*
X136174500Y-90828711D01*
X136174500Y-91071288D01*
X136203402Y-91290831D01*
X136206162Y-91311789D01*
X136220773Y-91366317D01*
X136268947Y-91546104D01*
X136315140Y-91657623D01*
X136361776Y-91770212D01*
X136483064Y-91980289D01*
X136483066Y-91980292D01*
X136483067Y-91980293D01*
X136593731Y-92124514D01*
X136618925Y-92189683D01*
X136604887Y-92258128D01*
X136593731Y-92275486D01*
X136483067Y-92419706D01*
X136361777Y-92629785D01*
X136361773Y-92629794D01*
X136268947Y-92853895D01*
X136206161Y-93088214D01*
X136174500Y-93328711D01*
X136174500Y-93571288D01*
X136206161Y-93811785D01*
X136268947Y-94046104D01*
X136336074Y-94208162D01*
X136361776Y-94270212D01*
X136483064Y-94480289D01*
X136483066Y-94480292D01*
X136483067Y-94480293D01*
X136630733Y-94672736D01*
X136630739Y-94672743D01*
X136802256Y-94844260D01*
X136802262Y-94844265D01*
X136994711Y-94991936D01*
X137204788Y-95113224D01*
X137428900Y-95206054D01*
X137663211Y-95268838D01*
X137843586Y-95292584D01*
X137903711Y-95300500D01*
X137903712Y-95300500D01*
X138396289Y-95300500D01*
X138444388Y-95294167D01*
X138636789Y-95268838D01*
X138871100Y-95206054D01*
X139095212Y-95113224D01*
X139305289Y-94991936D01*
X139497738Y-94844265D01*
X139669265Y-94672738D01*
X139816936Y-94480289D01*
X139938224Y-94270212D01*
X140031054Y-94046100D01*
X140093838Y-93811789D01*
X140125500Y-93571288D01*
X140125500Y-93328712D01*
X140093838Y-93088211D01*
X140031054Y-92853900D01*
X139938224Y-92629788D01*
X139816936Y-92419711D01*
X139782967Y-92375441D01*
X145599500Y-92375441D01*
X145599500Y-92624558D01*
X145599501Y-92624575D01*
X145632017Y-92871561D01*
X145696498Y-93112207D01*
X145791830Y-93342361D01*
X145791837Y-93342376D01*
X145916400Y-93558126D01*
X146068060Y-93755774D01*
X146068066Y-93755781D01*
X146244218Y-93931933D01*
X146244225Y-93931939D01*
X146441873Y-94083599D01*
X146657623Y-94208162D01*
X146657638Y-94208169D01*
X146756825Y-94249253D01*
X146887793Y-94303502D01*
X147128435Y-94367982D01*
X147375435Y-94400500D01*
X147375442Y-94400500D01*
X147624558Y-94400500D01*
X147624565Y-94400500D01*
X147871565Y-94367982D01*
X148112207Y-94303502D01*
X148342373Y-94208164D01*
X148558127Y-94083599D01*
X148755776Y-93931938D01*
X148931938Y-93755776D01*
X149083599Y-93558127D01*
X149208164Y-93342373D01*
X149303502Y-93112207D01*
X149367982Y-92871565D01*
X149400500Y-92624565D01*
X149400500Y-92375435D01*
X149367982Y-92128435D01*
X149303502Y-91887793D01*
X149208164Y-91657627D01*
X149143776Y-91546104D01*
X149083599Y-91441873D01*
X148931939Y-91244225D01*
X148931933Y-91244218D01*
X148755781Y-91068066D01*
X148755774Y-91068060D01*
X148558126Y-90916400D01*
X148342376Y-90791837D01*
X148342361Y-90791830D01*
X148112207Y-90696498D01*
X147871561Y-90632017D01*
X147624575Y-90599501D01*
X147624570Y-90599500D01*
X147624565Y-90599500D01*
X147375435Y-90599500D01*
X147375429Y-90599500D01*
X147375424Y-90599501D01*
X147128438Y-90632017D01*
X146887792Y-90696498D01*
X146657638Y-90791830D01*
X146657623Y-90791837D01*
X146441873Y-90916400D01*
X146244225Y-91068060D01*
X146244218Y-91068066D01*
X146068066Y-91244218D01*
X146068060Y-91244225D01*
X145916400Y-91441873D01*
X145791837Y-91657623D01*
X145791830Y-91657638D01*
X145696498Y-91887792D01*
X145632017Y-92128438D01*
X145599501Y-92375424D01*
X145599500Y-92375441D01*
X139782967Y-92375441D01*
X139705704Y-92274750D01*
X139705176Y-92274041D01*
X139693357Y-92242090D01*
X139681074Y-92210317D01*
X139681263Y-92209395D01*
X139680936Y-92208511D01*
X139688269Y-92175234D01*
X139695112Y-92141873D01*
X139695887Y-92140665D01*
X139695973Y-92140279D01*
X139696425Y-92139828D01*
X139706261Y-92124523D01*
X139816936Y-91980289D01*
X139938224Y-91770212D01*
X140031054Y-91546100D01*
X140093838Y-91311789D01*
X140125500Y-91071288D01*
X140125500Y-90828712D01*
X140120644Y-90791830D01*
X140093838Y-90588214D01*
X140093838Y-90588211D01*
X140031054Y-90353900D01*
X139938224Y-90129788D01*
X139816936Y-89919711D01*
X139706266Y-89775483D01*
X139681074Y-89710317D01*
X139695112Y-89641873D01*
X139706261Y-89624523D01*
X139816936Y-89480289D01*
X139938224Y-89270212D01*
X140031054Y-89046100D01*
X140093838Y-88811789D01*
X140125500Y-88571288D01*
X140125500Y-88328712D01*
X140093838Y-88088211D01*
X140031054Y-87853900D01*
X139938224Y-87629788D01*
X139938222Y-87629784D01*
X139845677Y-87469491D01*
X139829204Y-87401591D01*
X139851136Y-87336875D01*
X139967003Y-87169632D01*
X139967003Y-87169631D01*
X139967007Y-87169626D01*
X140060096Y-86964683D01*
X140115096Y-86746412D01*
X140125500Y-86614217D01*
X140125499Y-85285784D01*
X140115096Y-85153588D01*
X140060096Y-84935317D01*
X139967007Y-84730374D01*
X139838819Y-84545346D01*
X139679654Y-84386181D01*
X139679650Y-84386178D01*
X139679645Y-84386174D01*
X139494632Y-84257997D01*
X139494630Y-84257995D01*
X139494626Y-84257993D01*
X139289683Y-84164904D01*
X139289681Y-84164903D01*
X139289678Y-84164902D01*
X139071420Y-84109905D01*
X139071413Y-84109904D01*
X139027347Y-84106436D01*
X138939217Y-84099500D01*
X138939215Y-84099500D01*
X137360791Y-84099500D01*
X137360776Y-84099501D01*
X137228586Y-84109904D01*
X137228579Y-84109905D01*
X137010321Y-84164902D01*
X137010318Y-84164903D01*
X136805377Y-84257991D01*
X136805367Y-84257997D01*
X136620354Y-84386174D01*
X136620342Y-84386184D01*
X136461184Y-84545342D01*
X136461174Y-84545354D01*
X136332997Y-84730367D01*
X136332991Y-84730377D01*
X136239903Y-84935318D01*
X136239902Y-84935321D01*
X136184905Y-85153579D01*
X136184904Y-85153586D01*
X136174500Y-85285777D01*
X130700500Y-85285777D01*
X130700500Y-79184110D01*
X130700500Y-79184108D01*
X130666392Y-79056814D01*
X130600500Y-78942686D01*
X130507314Y-78849500D01*
X130450250Y-78816554D01*
X130393187Y-78783608D01*
X130329539Y-78766554D01*
X130265892Y-78749500D01*
X88624000Y-78749500D01*
X88556961Y-78729815D01*
X88511206Y-78677011D01*
X88500000Y-78625500D01*
X88500000Y-70124000D01*
X88519685Y-70056961D01*
X88572489Y-70011206D01*
X88624000Y-70000000D01*
X97626461Y-70000000D01*
X97693500Y-70019685D01*
G37*
G04 #@! TD.AperFunction*
M02*
