M48
; DRILL file {KiCad 9.0.5} date 2026-01-05T14:44:00+0100
; FORMAT={-:-/ absolute / metric / decimal}
; #@! TF.CreationDate,2026-01-05T14:44:00+01:00
; #@! TF.GenerationSoftware,Kicad,Pcbnew,9.0.5
; #@! TF.FileFunction,Plated,1,4,PTH
FMAT,2
METRIC
; #@! TA.AperFunction,Plated,PTH,ComponentDrill
T1C0.950
; #@! TA.AperFunction,Plated,PTH,ComponentDrill
T2C1.000
; #@! TA.AperFunction,Plated,PTH,ViaDrill
T3C1.200
; #@! TA.AperFunction,Plated,PTH,ComponentDrill
T4C1.900
; #@! TA.AperFunction,Plated,PTH,ComponentDrill
T5C3.000
%
G90
G05
T1
X138.15Y-85.95
X138.15Y-88.45
X138.15Y-90.95
X138.15Y-93.45
X138.15Y-95.95
T2
X141.409Y-102.195
X141.409Y-113.195
T3
X95.5Y-59.5
X97.0Y-36.5
X98.0Y-74.0
X98.0Y-78.0
X100.0Y-76.0
X102.0Y-74.0
X102.0Y-78.0
X104.0Y-76.0
X136.0Y-50.0
X136.0Y-54.0
X138.0Y-48.0
X138.0Y-52.0
X138.0Y-59.0
X138.0Y-63.0
X138.0Y-67.0
X140.0Y-50.0
X140.0Y-54.0
X140.0Y-61.0
X140.0Y-65.0
X142.0Y-48.0
X142.0Y-52.0
X142.0Y-59.0
X142.0Y-63.0
X142.0Y-67.0
X144.0Y-50.0
X144.0Y-54.0
X144.0Y-65.0
X146.0Y-41.0
X146.0Y-45.0
X146.0Y-67.0
X146.0Y-100.0
X146.0Y-103.5
X147.5Y-92.5
X148.0Y-43.0
X148.0Y-47.0
X148.0Y-65.0
X148.0Y-98.0
X148.0Y-102.0
X148.0Y-105.0
X148.0Y-109.5
X148.0Y-112.5
X150.0Y-41.0
X150.0Y-45.0
X150.0Y-100.0
X152.0Y-35.0
X152.0Y-39.0
X152.0Y-43.0
X152.0Y-47.0
X152.0Y-76.0
X152.5Y-92.5
T4
X151.409Y-105.195
X151.409Y-110.195
T5
X115.997Y-27.99
X127.981Y-27.997
M30
