G04 #@! TF.GenerationSoftware,KiCad,Pcbnew,9.0.5*
G04 #@! TF.CreationDate,2025-12-18T19:52:08+01:00*
G04 #@! TF.ProjectId,peak-ignitor-box-bms,7065616b-2d69-4676-9e69-746f722d626f,rev?*
G04 #@! TF.SameCoordinates,Original*
G04 #@! TF.FileFunction,Copper,L3,Inr*
G04 #@! TF.FilePolarity,Positive*
%FSLAX46Y46*%
G04 Gerber Fmt 4.6, Leading zero omitted, Abs format (unit mm)*
G04 Created by KiCad (PCBNEW 9.0.5) date 2025-12-18 19:52:08*
%MOMM*%
%LPD*%
G01*
G04 APERTURE LIST*
G04 Aperture macros list*
%AMRoundRect*
0 Rectangle with rounded corners*
0 $1 Rounding radius*
0 $2 $3 $4 $5 $6 $7 $8 $9 X,Y pos of 4 corners*
0 Add a 4 corners polygon primitive as box body*
4,1,4,$2,$3,$4,$5,$6,$7,$8,$9,$2,$3,0*
0 Add four circle primitives for the rounded corners*
1,1,$1+$1,$2,$3*
1,1,$1+$1,$4,$5*
1,1,$1+$1,$6,$7*
1,1,$1+$1,$8,$9*
0 Add four rect primitives between the rounded corners*
20,1,$1+$1,$2,$3,$4,$5,0*
20,1,$1+$1,$4,$5,$6,$7,0*
20,1,$1+$1,$6,$7,$8,$9,0*
20,1,$1+$1,$8,$9,$2,$3,0*%
G04 Aperture macros list end*
G04 #@! TA.AperFunction,ComponentPad*
%ADD10C,7.500000*%
G04 #@! TD*
G04 #@! TA.AperFunction,ComponentPad*
%ADD11RoundRect,0.250000X-0.725000X0.600000X-0.725000X-0.600000X0.725000X-0.600000X0.725000X0.600000X0*%
G04 #@! TD*
G04 #@! TA.AperFunction,ComponentPad*
%ADD12O,1.950000X1.700000*%
G04 #@! TD*
G04 #@! TA.AperFunction,ComponentPad*
%ADD13C,1.400000*%
G04 #@! TD*
G04 #@! TA.AperFunction,ComponentPad*
%ADD14RoundRect,0.770000X0.980000X-0.980000X0.980000X0.980000X-0.980000X0.980000X-0.980000X-0.980000X0*%
G04 #@! TD*
G04 #@! TA.AperFunction,ComponentPad*
%ADD15C,3.500000*%
G04 #@! TD*
G04 #@! TA.AperFunction,ViaPad*
%ADD16C,1.800000*%
G04 #@! TD*
G04 APERTURE END LIST*
D10*
X115996592Y-27990385D03*
X127981116Y-27996701D03*
D11*
X138150000Y-85950000D03*
D12*
X138150000Y-88450000D03*
X138150000Y-90950000D03*
X138150000Y-93450000D03*
X138150000Y-95950000D03*
D13*
X142909018Y-113195107D03*
X142909018Y-102195107D03*
D14*
X152909018Y-105195107D03*
D15*
X152909018Y-110195107D03*
D16*
X136000000Y-54000000D03*
X136000000Y-50000000D03*
X146000000Y-67000000D03*
X148000000Y-65000000D03*
X144000000Y-65000000D03*
X138000000Y-67000000D03*
X142000000Y-67000000D03*
X140000000Y-65000000D03*
X138000000Y-63000000D03*
X142000000Y-63000000D03*
X140000000Y-61000000D03*
X138000000Y-59000000D03*
X142000000Y-59000000D03*
X138000000Y-48000000D03*
X138000000Y-52000000D03*
X142000000Y-48000000D03*
X140000000Y-50000000D03*
X140000000Y-54000000D03*
X144000000Y-54000000D03*
X142000000Y-52000000D03*
X144000000Y-50000000D03*
X157000000Y-92500000D03*
X147500000Y-92500000D03*
X97000000Y-36500000D03*
X95500000Y-59500000D03*
X152000000Y-76000000D03*
X158000000Y-107000000D03*
X151000000Y-113000000D03*
X150000000Y-105000000D03*
X152000000Y-98000000D03*
X154000000Y-100000000D03*
X150000000Y-100000000D03*
X152000000Y-102000000D03*
X98000000Y-78000000D03*
X102000000Y-78000000D03*
X104000000Y-76000000D03*
X102000000Y-74000000D03*
X100000000Y-76000000D03*
X98000000Y-74000000D03*
X158000000Y-111000000D03*
X156000000Y-109000000D03*
X156000000Y-113000000D03*
X146000000Y-41000000D03*
X148000000Y-43000000D03*
X150000000Y-41000000D03*
X152000000Y-43000000D03*
X156000000Y-43000000D03*
X158000000Y-41000000D03*
X154000000Y-41000000D03*
X152000000Y-39000000D03*
X156000000Y-39000000D03*
X158000000Y-37000000D03*
X156000000Y-35000000D03*
X154000000Y-37000000D03*
X152000000Y-35000000D03*
G04 #@! TA.AperFunction,Conductor*
G36*
X161943039Y-33520185D02*
G01*
X161988794Y-33572989D01*
X162000000Y-33624500D01*
X162000000Y-106375500D01*
X161980315Y-106442539D01*
X161927511Y-106488294D01*
X161876000Y-106499500D01*
X159934108Y-106499500D01*
X159806812Y-106533608D01*
X159692686Y-106599500D01*
X159692683Y-106599502D01*
X159599502Y-106692683D01*
X159599500Y-106692686D01*
X159533608Y-106806812D01*
X159499500Y-106934108D01*
X159499500Y-113376000D01*
X159479815Y-113443039D01*
X159427011Y-113488794D01*
X159375500Y-113500000D01*
X149624000Y-113500000D01*
X149556961Y-113480315D01*
X149511206Y-113427511D01*
X149500000Y-113376000D01*
X149500000Y-108629500D01*
X149519685Y-108562461D01*
X149572489Y-108516706D01*
X149624000Y-108505500D01*
X152342432Y-108505500D01*
X152342447Y-108505500D01*
X152455040Y-108499176D01*
X152482630Y-108496067D01*
X152571732Y-108480928D01*
X152593757Y-108477186D01*
X152593758Y-108477185D01*
X152593774Y-108477183D01*
X152609493Y-108473595D01*
X152623185Y-108471269D01*
X152804090Y-108450886D01*
X152817973Y-108450107D01*
X153000056Y-108450107D01*
X153013939Y-108450887D01*
X153194852Y-108471270D01*
X153208557Y-108473598D01*
X153224253Y-108477181D01*
X153335409Y-108496068D01*
X153362571Y-108499128D01*
X153362964Y-108499173D01*
X153363000Y-108499177D01*
X153475589Y-108505500D01*
X153475606Y-108505500D01*
X154790829Y-108505500D01*
X154790832Y-108505500D01*
X154832808Y-108504623D01*
X154841054Y-108504278D01*
X154841059Y-108504278D01*
X154841680Y-108504252D01*
X154841681Y-108504253D01*
X154842195Y-108504232D01*
X154842199Y-108504231D01*
X154842720Y-108504210D01*
X154843128Y-108504194D01*
X154869716Y-108503193D01*
X154870053Y-108502986D01*
X154889874Y-108499277D01*
X154967530Y-108491209D01*
X154967534Y-108491208D01*
X154967756Y-108491166D01*
X154968187Y-108491047D01*
X154968190Y-108491047D01*
X154982226Y-108487179D01*
X155163740Y-108437418D01*
X155193844Y-108425779D01*
X155223986Y-108414290D01*
X155302028Y-108380701D01*
X155475470Y-108274355D01*
X155475672Y-108274201D01*
X155478162Y-108272296D01*
X155547674Y-108218957D01*
X155553259Y-108215245D01*
X155559320Y-108210640D01*
X155618427Y-108156968D01*
X155619481Y-108156055D01*
X155628434Y-108151961D01*
X155656995Y-108124693D01*
X155656996Y-108124694D01*
X155670127Y-108112158D01*
X155708150Y-108073856D01*
X155715357Y-108064444D01*
X155718585Y-108060954D01*
X155755184Y-108019108D01*
X155790468Y-107966366D01*
X155831850Y-107912332D01*
X155841794Y-107891789D01*
X155850339Y-107876874D01*
X155868312Y-107850011D01*
X155900271Y-107771577D01*
X155903476Y-107764378D01*
X155919999Y-107730251D01*
X155920207Y-107730022D01*
X155921870Y-107725460D01*
X155921882Y-107725427D01*
X155933684Y-107693077D01*
X155944351Y-107663837D01*
X155944351Y-107663834D01*
X155944380Y-107663757D01*
X155944976Y-107661975D01*
X155963596Y-107598558D01*
X155963597Y-107598559D01*
X155964755Y-107594616D01*
X155964762Y-107594586D01*
X155965473Y-107592163D01*
X155965475Y-107592158D01*
X155965484Y-107592126D01*
X155966269Y-107589451D01*
X155966671Y-107586922D01*
X155979591Y-107535060D01*
X155980263Y-107532486D01*
X155988275Y-107503188D01*
X155998241Y-107382856D01*
X155998447Y-107380630D01*
X156005499Y-107311290D01*
X156005500Y-107311289D01*
X156005500Y-70124010D01*
X156005433Y-70112420D01*
X156005433Y-70112412D01*
X155982519Y-69910257D01*
X155971313Y-69858746D01*
X155946784Y-69767062D01*
X155865692Y-69580473D01*
X155865691Y-69580471D01*
X155865689Y-69580468D01*
X155748705Y-69414033D01*
X155748704Y-69414032D01*
X155748700Y-69414026D01*
X155702945Y-69361222D01*
X155583832Y-69244821D01*
X155583830Y-69244819D01*
X155414738Y-69131693D01*
X155414731Y-69131690D01*
X155226328Y-69054916D01*
X155226322Y-69054914D01*
X155159293Y-69035233D01*
X155159295Y-69035233D01*
X155159290Y-69035232D01*
X155078406Y-69015083D01*
X155078402Y-69015082D01*
X155078403Y-69015082D01*
X154876001Y-68994500D01*
X154876000Y-68994500D01*
X152629500Y-68994500D01*
X152562461Y-68974815D01*
X152516706Y-68922011D01*
X152505500Y-68870500D01*
X152505500Y-57124010D01*
X152505433Y-57112420D01*
X152505433Y-57112412D01*
X152482519Y-56910257D01*
X152471313Y-56858746D01*
X152446784Y-56767062D01*
X152365692Y-56580473D01*
X152357240Y-56568449D01*
X152334794Y-56502285D01*
X152351681Y-56434487D01*
X152355612Y-56428212D01*
X152368308Y-56409236D01*
X152445083Y-56220829D01*
X152464768Y-56153790D01*
X152484917Y-56072906D01*
X152505500Y-55870500D01*
X152505500Y-49124000D01*
X152505433Y-49112412D01*
X152482519Y-48910257D01*
X152471313Y-48858746D01*
X152446784Y-48767062D01*
X152365692Y-48580473D01*
X152365691Y-48580471D01*
X152365689Y-48580468D01*
X152248705Y-48414033D01*
X152248704Y-48414032D01*
X152248700Y-48414026D01*
X152202945Y-48361222D01*
X152083832Y-48244821D01*
X152083830Y-48244819D01*
X151914738Y-48131693D01*
X151914731Y-48131690D01*
X151726328Y-48054916D01*
X151726322Y-48054914D01*
X151659293Y-48035233D01*
X151659295Y-48035233D01*
X151659290Y-48035232D01*
X151578406Y-48015083D01*
X151578402Y-48015082D01*
X151578403Y-48015082D01*
X151376001Y-47994500D01*
X151376000Y-47994500D01*
X144629500Y-47994500D01*
X144562461Y-47974815D01*
X144516706Y-47922011D01*
X144505500Y-47870500D01*
X144505500Y-33624500D01*
X144525185Y-33557461D01*
X144577989Y-33511706D01*
X144629500Y-33500500D01*
X161876000Y-33500500D01*
X161943039Y-33520185D01*
G37*
G04 #@! TD.AperFunction*
G04 #@! TA.AperFunction,Conductor*
G36*
X132442539Y-22019685D02*
G01*
X132488294Y-22072489D01*
X132499500Y-22124000D01*
X132499500Y-33065891D01*
X132533608Y-33193187D01*
X132566554Y-33250250D01*
X132599500Y-33307314D01*
X132692686Y-33400500D01*
X132806814Y-33466392D01*
X132934108Y-33500500D01*
X133065892Y-33500500D01*
X143376000Y-33500500D01*
X143443039Y-33520185D01*
X143488794Y-33572989D01*
X143500000Y-33624500D01*
X143500000Y-49000000D01*
X151376000Y-49000000D01*
X151443039Y-49019685D01*
X151488794Y-49072489D01*
X151500000Y-49124000D01*
X151500000Y-55870500D01*
X151480315Y-55937539D01*
X151427511Y-55983294D01*
X151376000Y-55994500D01*
X123629500Y-55994500D01*
X123562461Y-55974815D01*
X123516706Y-55922011D01*
X123505500Y-55870500D01*
X123505500Y-22124000D01*
X123525185Y-22056961D01*
X123577989Y-22011206D01*
X123629500Y-22000000D01*
X132375500Y-22000000D01*
X132442539Y-22019685D01*
G37*
G04 #@! TD.AperFunction*
G04 #@! TA.AperFunction,Conductor*
G36*
X122443039Y-22019685D02*
G01*
X122488794Y-22072489D01*
X122500000Y-22124000D01*
X122500000Y-57000000D01*
X151376000Y-57000000D01*
X151443039Y-57019685D01*
X151488794Y-57072489D01*
X151500000Y-57124000D01*
X151500000Y-69376000D01*
X151480315Y-69443039D01*
X151427511Y-69488794D01*
X151376000Y-69500000D01*
X98624000Y-69500000D01*
X98556961Y-69480315D01*
X98511206Y-69427511D01*
X98500000Y-69376000D01*
X98500000Y-37709168D01*
X98519685Y-37642129D01*
X98525624Y-37633682D01*
X98539134Y-37616075D01*
X98583599Y-37558127D01*
X98708164Y-37342373D01*
X98803502Y-37112207D01*
X98867982Y-36871565D01*
X98900500Y-36624565D01*
X98900500Y-36375435D01*
X98867982Y-36128435D01*
X98803502Y-35887793D01*
X98708164Y-35657627D01*
X98583599Y-35441873D01*
X98525624Y-35366317D01*
X98500430Y-35301147D01*
X98500000Y-35290831D01*
X98500000Y-33624500D01*
X98519685Y-33557461D01*
X98572489Y-33511706D01*
X98624000Y-33500500D01*
X110065890Y-33500500D01*
X110065892Y-33500500D01*
X110193186Y-33466392D01*
X110307314Y-33400500D01*
X110400500Y-33307314D01*
X110466392Y-33193186D01*
X110500500Y-33065892D01*
X110500500Y-24934108D01*
X110500500Y-22124000D01*
X110520185Y-22056961D01*
X110572989Y-22011206D01*
X110624500Y-22000000D01*
X122376000Y-22000000D01*
X122443039Y-22019685D01*
G37*
G04 #@! TD.AperFunction*
G04 #@! TA.AperFunction,Conductor*
G36*
X97693500Y-70019685D02*
G01*
X97727908Y-70052694D01*
X97751300Y-70085974D01*
X97797055Y-70138778D01*
X97916168Y-70255179D01*
X98085264Y-70368308D01*
X98273671Y-70445083D01*
X98273677Y-70445085D01*
X98288687Y-70449492D01*
X98340710Y-70464768D01*
X98421594Y-70484917D01*
X98556531Y-70498639D01*
X98623999Y-70505500D01*
X98624000Y-70505500D01*
X151375990Y-70505500D01*
X151376000Y-70505500D01*
X151387588Y-70505433D01*
X151589743Y-70482519D01*
X151641254Y-70471313D01*
X151732938Y-70446784D01*
X151919527Y-70365692D01*
X152085974Y-70248700D01*
X152138778Y-70202945D01*
X152255179Y-70083832D01*
X152274435Y-70055048D01*
X152328073Y-70010276D01*
X152377497Y-70000000D01*
X154876000Y-70000000D01*
X154943039Y-70019685D01*
X154988794Y-70072489D01*
X155000000Y-70124000D01*
X155000000Y-107311282D01*
X154998842Y-107315225D01*
X154999745Y-107319237D01*
X154989078Y-107348477D01*
X154980315Y-107378321D01*
X154976806Y-107382116D01*
X154975800Y-107384876D01*
X154962669Y-107397412D01*
X154951023Y-107410012D01*
X154944962Y-107414617D01*
X154941873Y-107416401D01*
X154866057Y-107474576D01*
X154865855Y-107474730D01*
X154833452Y-107487081D01*
X154801149Y-107499570D01*
X154800635Y-107499591D01*
X154800568Y-107499617D01*
X154800477Y-107499597D01*
X154790832Y-107500000D01*
X153475589Y-107500000D01*
X153447998Y-107496891D01*
X153370470Y-107479196D01*
X153370467Y-107479195D01*
X153370455Y-107479193D01*
X153063489Y-107444607D01*
X153063483Y-107444607D01*
X152754553Y-107444607D01*
X152754546Y-107444607D01*
X152447580Y-107479193D01*
X152447566Y-107479196D01*
X152370037Y-107496891D01*
X152342447Y-107500000D01*
X142124500Y-107500000D01*
X142057461Y-107480315D01*
X142011706Y-107427511D01*
X142000500Y-107376000D01*
X142000500Y-103844974D01*
X142020185Y-103777935D01*
X142072989Y-103732180D01*
X142142147Y-103722236D01*
X142171951Y-103730412D01*
X142361237Y-103808817D01*
X142576555Y-103866511D01*
X142797561Y-103895607D01*
X142797568Y-103895607D01*
X143020468Y-103895607D01*
X143020475Y-103895607D01*
X143241481Y-103866511D01*
X143456799Y-103808817D01*
X143662744Y-103723512D01*
X143855792Y-103612055D01*
X144032642Y-103476354D01*
X144190265Y-103318731D01*
X144325966Y-103141881D01*
X144437423Y-102948833D01*
X144522728Y-102742888D01*
X144580422Y-102527570D01*
X144609518Y-102306564D01*
X144609518Y-102083650D01*
X144580422Y-101862644D01*
X144522728Y-101647326D01*
X144437423Y-101441381D01*
X144325966Y-101248333D01*
X144190265Y-101071483D01*
X144190260Y-101071477D01*
X144032647Y-100913864D01*
X144032640Y-100913858D01*
X143855800Y-100778165D01*
X143855798Y-100778164D01*
X143855792Y-100778159D01*
X143662744Y-100666702D01*
X143662740Y-100666700D01*
X143456808Y-100581400D01*
X143456801Y-100581398D01*
X143456799Y-100581397D01*
X143241481Y-100523703D01*
X143241475Y-100523702D01*
X143241470Y-100523701D01*
X143020484Y-100494608D01*
X143020481Y-100494607D01*
X143020475Y-100494607D01*
X142797561Y-100494607D01*
X142797555Y-100494607D01*
X142797551Y-100494608D01*
X142576565Y-100523701D01*
X142576558Y-100523702D01*
X142576555Y-100523703D01*
X142381734Y-100575905D01*
X142361237Y-100581397D01*
X142361221Y-100581402D01*
X142171952Y-100659800D01*
X142102483Y-100667269D01*
X142040004Y-100635994D01*
X142004352Y-100575905D01*
X142000500Y-100545239D01*
X142000500Y-98434110D01*
X142000500Y-98434108D01*
X141966392Y-98306814D01*
X141900500Y-98192686D01*
X141807314Y-98099500D01*
X141750250Y-98066554D01*
X141693187Y-98033608D01*
X141629539Y-98016554D01*
X141565892Y-97999500D01*
X141565891Y-97999500D01*
X130824500Y-97999500D01*
X130757461Y-97979815D01*
X130711706Y-97927011D01*
X130700500Y-97875500D01*
X130700500Y-85285777D01*
X136174500Y-85285777D01*
X136174500Y-86614208D01*
X136174501Y-86614223D01*
X136184904Y-86746413D01*
X136184905Y-86746420D01*
X136239902Y-86964678D01*
X136239903Y-86964681D01*
X136332991Y-87169622D01*
X136332997Y-87169632D01*
X136448863Y-87336876D01*
X136470860Y-87403193D01*
X136454322Y-87469492D01*
X136361777Y-87629784D01*
X136361773Y-87629794D01*
X136268947Y-87853895D01*
X136206161Y-88088214D01*
X136174500Y-88328711D01*
X136174500Y-88571288D01*
X136206161Y-88811785D01*
X136268947Y-89046104D01*
X136361773Y-89270205D01*
X136361776Y-89270212D01*
X136483064Y-89480289D01*
X136483066Y-89480292D01*
X136483067Y-89480293D01*
X136593731Y-89624514D01*
X136618925Y-89689683D01*
X136604887Y-89758128D01*
X136593731Y-89775486D01*
X136483067Y-89919706D01*
X136361777Y-90129785D01*
X136361773Y-90129794D01*
X136268947Y-90353895D01*
X136206161Y-90588214D01*
X136174500Y-90828711D01*
X136174500Y-91071288D01*
X136206161Y-91311785D01*
X136268947Y-91546104D01*
X136315140Y-91657623D01*
X136361776Y-91770212D01*
X136483064Y-91980289D01*
X136483066Y-91980292D01*
X136483067Y-91980293D01*
X136593731Y-92124514D01*
X136618925Y-92189683D01*
X136604887Y-92258128D01*
X136593731Y-92275486D01*
X136483067Y-92419706D01*
X136361777Y-92629785D01*
X136361773Y-92629794D01*
X136268947Y-92853895D01*
X136206161Y-93088214D01*
X136174500Y-93328711D01*
X136174500Y-93571288D01*
X136206161Y-93811785D01*
X136268947Y-94046104D01*
X136336074Y-94208162D01*
X136361776Y-94270212D01*
X136483064Y-94480289D01*
X136483066Y-94480292D01*
X136483067Y-94480293D01*
X136630733Y-94672736D01*
X136630739Y-94672743D01*
X136802256Y-94844260D01*
X136802262Y-94844265D01*
X136994711Y-94991936D01*
X137204788Y-95113224D01*
X137428900Y-95206054D01*
X137663211Y-95268838D01*
X137843586Y-95292584D01*
X137903711Y-95300500D01*
X137903712Y-95300500D01*
X138396289Y-95300500D01*
X138444388Y-95294167D01*
X138636789Y-95268838D01*
X138871100Y-95206054D01*
X139095212Y-95113224D01*
X139305289Y-94991936D01*
X139497738Y-94844265D01*
X139669265Y-94672738D01*
X139816936Y-94480289D01*
X139938224Y-94270212D01*
X140031054Y-94046100D01*
X140093838Y-93811789D01*
X140125500Y-93571288D01*
X140125500Y-93328712D01*
X140093838Y-93088211D01*
X140031054Y-92853900D01*
X139938224Y-92629788D01*
X139816936Y-92419711D01*
X139782967Y-92375441D01*
X145599500Y-92375441D01*
X145599500Y-92624558D01*
X145599501Y-92624575D01*
X145632017Y-92871561D01*
X145696498Y-93112207D01*
X145791830Y-93342361D01*
X145791837Y-93342376D01*
X145916400Y-93558126D01*
X146068060Y-93755774D01*
X146068066Y-93755781D01*
X146244218Y-93931933D01*
X146244225Y-93931939D01*
X146441873Y-94083599D01*
X146657623Y-94208162D01*
X146657638Y-94208169D01*
X146756825Y-94249253D01*
X146887793Y-94303502D01*
X147128435Y-94367982D01*
X147375435Y-94400500D01*
X147375442Y-94400500D01*
X147624558Y-94400500D01*
X147624565Y-94400500D01*
X147871565Y-94367982D01*
X148112207Y-94303502D01*
X148342373Y-94208164D01*
X148558127Y-94083599D01*
X148755776Y-93931938D01*
X148931938Y-93755776D01*
X149083599Y-93558127D01*
X149208164Y-93342373D01*
X149303502Y-93112207D01*
X149367982Y-92871565D01*
X149400500Y-92624565D01*
X149400500Y-92375435D01*
X149367982Y-92128435D01*
X149303502Y-91887793D01*
X149208164Y-91657627D01*
X149143776Y-91546104D01*
X149083599Y-91441873D01*
X148931939Y-91244225D01*
X148931933Y-91244218D01*
X148755781Y-91068066D01*
X148755774Y-91068060D01*
X148558126Y-90916400D01*
X148342376Y-90791837D01*
X148342361Y-90791830D01*
X148112207Y-90696498D01*
X147871561Y-90632017D01*
X147624575Y-90599501D01*
X147624570Y-90599500D01*
X147624565Y-90599500D01*
X147375435Y-90599500D01*
X147375429Y-90599500D01*
X147375424Y-90599501D01*
X147128438Y-90632017D01*
X146887792Y-90696498D01*
X146657638Y-90791830D01*
X146657623Y-90791837D01*
X146441873Y-90916400D01*
X146244225Y-91068060D01*
X146244218Y-91068066D01*
X146068066Y-91244218D01*
X146068060Y-91244225D01*
X145916400Y-91441873D01*
X145791837Y-91657623D01*
X145791830Y-91657638D01*
X145696498Y-91887792D01*
X145632017Y-92128438D01*
X145599501Y-92375424D01*
X145599500Y-92375441D01*
X139782967Y-92375441D01*
X139705704Y-92274750D01*
X139705176Y-92274041D01*
X139693357Y-92242090D01*
X139681074Y-92210317D01*
X139681263Y-92209395D01*
X139680936Y-92208511D01*
X139688269Y-92175234D01*
X139695112Y-92141873D01*
X139695887Y-92140665D01*
X139695973Y-92140279D01*
X139696425Y-92139828D01*
X139706261Y-92124523D01*
X139816936Y-91980289D01*
X139938224Y-91770212D01*
X140031054Y-91546100D01*
X140093838Y-91311789D01*
X140125500Y-91071288D01*
X140125500Y-90828712D01*
X140120644Y-90791830D01*
X140093838Y-90588214D01*
X140093838Y-90588211D01*
X140031054Y-90353900D01*
X139938224Y-90129788D01*
X139816936Y-89919711D01*
X139706266Y-89775483D01*
X139681074Y-89710317D01*
X139695112Y-89641873D01*
X139706261Y-89624523D01*
X139816936Y-89480289D01*
X139938224Y-89270212D01*
X140031054Y-89046100D01*
X140093838Y-88811789D01*
X140125500Y-88571288D01*
X140125500Y-88328712D01*
X140093838Y-88088211D01*
X140031054Y-87853900D01*
X139938224Y-87629788D01*
X139938222Y-87629784D01*
X139845677Y-87469491D01*
X139829204Y-87401591D01*
X139851136Y-87336875D01*
X139967003Y-87169632D01*
X139967003Y-87169631D01*
X139967007Y-87169626D01*
X140060096Y-86964683D01*
X140115096Y-86746412D01*
X140125500Y-86614217D01*
X140125499Y-85285784D01*
X140115096Y-85153588D01*
X140060096Y-84935317D01*
X139967007Y-84730374D01*
X139838819Y-84545346D01*
X139679654Y-84386181D01*
X139679650Y-84386178D01*
X139679645Y-84386174D01*
X139494632Y-84257997D01*
X139494630Y-84257995D01*
X139494626Y-84257993D01*
X139289683Y-84164904D01*
X139289681Y-84164903D01*
X139289678Y-84164902D01*
X139071420Y-84109905D01*
X139071413Y-84109904D01*
X139027347Y-84106436D01*
X138939217Y-84099500D01*
X138939215Y-84099500D01*
X137360791Y-84099500D01*
X137360776Y-84099501D01*
X137228586Y-84109904D01*
X137228579Y-84109905D01*
X137010321Y-84164902D01*
X137010318Y-84164903D01*
X136805377Y-84257991D01*
X136805367Y-84257997D01*
X136620354Y-84386174D01*
X136620342Y-84386184D01*
X136461184Y-84545342D01*
X136461174Y-84545354D01*
X136332997Y-84730367D01*
X136332991Y-84730377D01*
X136239903Y-84935318D01*
X136239902Y-84935321D01*
X136184905Y-85153579D01*
X136184904Y-85153586D01*
X136174500Y-85285777D01*
X130700500Y-85285777D01*
X130700500Y-79184110D01*
X130700500Y-79184108D01*
X130666392Y-79056814D01*
X130600500Y-78942686D01*
X130507314Y-78849500D01*
X130450250Y-78816554D01*
X130393187Y-78783608D01*
X130329539Y-78766554D01*
X130265892Y-78749500D01*
X88624000Y-78749500D01*
X88556961Y-78729815D01*
X88511206Y-78677011D01*
X88500000Y-78625500D01*
X88500000Y-75875441D01*
X150099500Y-75875441D01*
X150099500Y-76124558D01*
X150099501Y-76124575D01*
X150132017Y-76371561D01*
X150196498Y-76612207D01*
X150291830Y-76842361D01*
X150291837Y-76842376D01*
X150416400Y-77058126D01*
X150568060Y-77255774D01*
X150568066Y-77255781D01*
X150744218Y-77431933D01*
X150744225Y-77431939D01*
X150941873Y-77583599D01*
X151157623Y-77708162D01*
X151157638Y-77708169D01*
X151256825Y-77749253D01*
X151387793Y-77803502D01*
X151628435Y-77867982D01*
X151875435Y-77900500D01*
X151875442Y-77900500D01*
X152124558Y-77900500D01*
X152124565Y-77900500D01*
X152371565Y-77867982D01*
X152612207Y-77803502D01*
X152842373Y-77708164D01*
X153058127Y-77583599D01*
X153255776Y-77431938D01*
X153431938Y-77255776D01*
X153583599Y-77058127D01*
X153708164Y-76842373D01*
X153803502Y-76612207D01*
X153867982Y-76371565D01*
X153900500Y-76124565D01*
X153900500Y-75875435D01*
X153867982Y-75628435D01*
X153803502Y-75387793D01*
X153708164Y-75157627D01*
X153583599Y-74941873D01*
X153431938Y-74744224D01*
X153431933Y-74744218D01*
X153255781Y-74568066D01*
X153255774Y-74568060D01*
X153058126Y-74416400D01*
X152842376Y-74291837D01*
X152842361Y-74291830D01*
X152612207Y-74196498D01*
X152371561Y-74132017D01*
X152124575Y-74099501D01*
X152124570Y-74099500D01*
X152124565Y-74099500D01*
X151875435Y-74099500D01*
X151875429Y-74099500D01*
X151875424Y-74099501D01*
X151628438Y-74132017D01*
X151387792Y-74196498D01*
X151157638Y-74291830D01*
X151157623Y-74291837D01*
X150941873Y-74416400D01*
X150744225Y-74568060D01*
X150744218Y-74568066D01*
X150568066Y-74744218D01*
X150568060Y-74744225D01*
X150416400Y-74941873D01*
X150291837Y-75157623D01*
X150291830Y-75157638D01*
X150196498Y-75387792D01*
X150132017Y-75628438D01*
X150099501Y-75875424D01*
X150099500Y-75875441D01*
X88500000Y-75875441D01*
X88500000Y-70124000D01*
X88519685Y-70056961D01*
X88572489Y-70011206D01*
X88624000Y-70000000D01*
X97626461Y-70000000D01*
X97693500Y-70019685D01*
G37*
G04 #@! TD.AperFunction*
M02*
