G04 #@! TF.GenerationSoftware,KiCad,Pcbnew,9.0.5*
G04 #@! TF.CreationDate,2026-01-05T14:43:58+01:00*
G04 #@! TF.ProjectId,peak-ignitor-box-bms,7065616b-2d69-4676-9e69-746f722d626f,rev?*
G04 #@! TF.SameCoordinates,Original*
G04 #@! TF.FileFunction,Copper,L2,Inr*
G04 #@! TF.FilePolarity,Positive*
%FSLAX46Y46*%
G04 Gerber Fmt 4.6, Leading zero omitted, Abs format (unit mm)*
G04 Created by KiCad (PCBNEW 9.0.5) date 2026-01-05 14:43:58*
%MOMM*%
%LPD*%
G01*
G04 APERTURE LIST*
G04 Aperture macros list*
%AMRoundRect*
0 Rectangle with rounded corners*
0 $1 Rounding radius*
0 $2 $3 $4 $5 $6 $7 $8 $9 X,Y pos of 4 corners*
0 Add a 4 corners polygon primitive as box body*
4,1,4,$2,$3,$4,$5,$6,$7,$8,$9,$2,$3,0*
0 Add four circle primitives for the rounded corners*
1,1,$1+$1,$2,$3*
1,1,$1+$1,$4,$5*
1,1,$1+$1,$6,$7*
1,1,$1+$1,$8,$9*
0 Add four rect primitives between the rounded corners*
20,1,$1+$1,$2,$3,$4,$5,0*
20,1,$1+$1,$4,$5,$6,$7,0*
20,1,$1+$1,$6,$7,$8,$9,0*
20,1,$1+$1,$8,$9,$2,$3,0*%
G04 Aperture macros list end*
G04 #@! TA.AperFunction,ComponentPad*
%ADD10RoundRect,0.250000X-0.725000X0.600000X-0.725000X-0.600000X0.725000X-0.600000X0.725000X0.600000X0*%
G04 #@! TD*
G04 #@! TA.AperFunction,ComponentPad*
%ADD11O,1.950000X1.700000*%
G04 #@! TD*
G04 #@! TA.AperFunction,ComponentPad*
%ADD12C,7.500000*%
G04 #@! TD*
G04 #@! TA.AperFunction,ComponentPad*
%ADD13C,1.400000*%
G04 #@! TD*
G04 #@! TA.AperFunction,ComponentPad*
%ADD14RoundRect,0.770000X0.980000X-0.980000X0.980000X0.980000X-0.980000X0.980000X-0.980000X-0.980000X0*%
G04 #@! TD*
G04 #@! TA.AperFunction,ComponentPad*
%ADD15C,3.500000*%
G04 #@! TD*
G04 #@! TA.AperFunction,ViaPad*
%ADD16C,1.800000*%
G04 #@! TD*
G04 #@! TA.AperFunction,Conductor*
%ADD17C,2.000000*%
G04 #@! TD*
G04 APERTURE END LIST*
D10*
X138150000Y-85950000D03*
D11*
X138150000Y-88450000D03*
X138150000Y-90950000D03*
X138150000Y-93450000D03*
X138150000Y-95950000D03*
D12*
X115996592Y-27990385D03*
D13*
X141409018Y-113195107D03*
X141409018Y-102195107D03*
D14*
X151409018Y-105195107D03*
D15*
X151409018Y-110195107D03*
D12*
X127981116Y-27996701D03*
D16*
X148000000Y-47000000D03*
X146000000Y-45000000D03*
X152000000Y-47000000D03*
X150000000Y-45000000D03*
X148000000Y-98000000D03*
X152000000Y-39000000D03*
X150000000Y-41000000D03*
X152000000Y-43000000D03*
X152000000Y-35000000D03*
X146000000Y-41000000D03*
X147500000Y-92500000D03*
X152500000Y-92500000D03*
X148000000Y-109500000D03*
X148000000Y-43000000D03*
X148000000Y-112500000D03*
X104000000Y-76000000D03*
X146000000Y-103500000D03*
X102000000Y-78000000D03*
X146000000Y-100000000D03*
X102000000Y-74000000D03*
X98000000Y-74000000D03*
X148000000Y-102000000D03*
X100000000Y-76000000D03*
X148000000Y-105000000D03*
X98000000Y-78000000D03*
X150000000Y-100000000D03*
X97000000Y-36500000D03*
X152000000Y-76000000D03*
X95500000Y-59500000D03*
X140000000Y-54000000D03*
X144000000Y-50000000D03*
X140000000Y-50000000D03*
X138000000Y-52000000D03*
X136000000Y-50000000D03*
X144000000Y-54000000D03*
X142000000Y-52000000D03*
X138000000Y-48000000D03*
X142000000Y-48000000D03*
X136000000Y-54000000D03*
X138000000Y-59000000D03*
X142000000Y-67000000D03*
X144000000Y-65000000D03*
X138000000Y-63000000D03*
X140000000Y-61000000D03*
X148000000Y-65000000D03*
X140000000Y-65000000D03*
X138000000Y-67000000D03*
X142000000Y-59000000D03*
X142000000Y-63000000D03*
X146000000Y-67000000D03*
D17*
X152500000Y-92500000D02*
X147500000Y-92500000D01*
X135500000Y-76750000D02*
X132750000Y-74000000D01*
X137266050Y-88450000D02*
X135500000Y-86683950D01*
X112250000Y-74000000D02*
X98750000Y-60500000D01*
X132750000Y-74000000D02*
X112250000Y-74000000D01*
X138150000Y-88450000D02*
X137266050Y-88450000D01*
X94750000Y-38750000D02*
X97000000Y-36500000D01*
X94750000Y-51750000D02*
X94750000Y-38750000D01*
X98750000Y-55750000D02*
X94750000Y-51750000D01*
X98750000Y-60500000D02*
X98750000Y-55750000D01*
X135500000Y-86683950D02*
X135500000Y-76750000D01*
X143000000Y-91500000D02*
X143000000Y-82250000D01*
X143000000Y-82250000D02*
X149250000Y-76000000D01*
X141050000Y-93450000D02*
X143000000Y-91500000D01*
X149250000Y-76000000D02*
X152000000Y-76000000D01*
X138150000Y-93450000D02*
X141050000Y-93450000D01*
X130500000Y-77000000D02*
X110250000Y-77000000D01*
X133615050Y-90798000D02*
X132750000Y-89932950D01*
X110250000Y-77000000D02*
X95500000Y-62250000D01*
X132750000Y-79250000D02*
X130500000Y-77000000D01*
X132750000Y-89932950D02*
X132750000Y-79250000D01*
X138150000Y-90798000D02*
X133615050Y-90798000D01*
X95500000Y-62250000D02*
X95500000Y-59500000D01*
G04 #@! TA.AperFunction,Conductor*
G36*
X122443039Y-22019685D02*
G01*
X122488794Y-22072489D01*
X122500000Y-22124000D01*
X122500000Y-57000000D01*
X151376000Y-57000000D01*
X151443039Y-57019685D01*
X151488794Y-57072489D01*
X151500000Y-57124000D01*
X151500000Y-69376000D01*
X151480315Y-69443039D01*
X151427511Y-69488794D01*
X151376000Y-69500000D01*
X110630496Y-69500000D01*
X110563457Y-69480315D01*
X110542815Y-69463681D01*
X100786819Y-59707685D01*
X100753334Y-59646362D01*
X100750500Y-59620004D01*
X100750500Y-55618886D01*
X100750499Y-55618872D01*
X100725888Y-55431938D01*
X100725888Y-55431937D01*
X100723964Y-55417327D01*
X100716271Y-55358884D01*
X100648398Y-55105581D01*
X100548043Y-54863303D01*
X100533922Y-54838845D01*
X100416924Y-54636197D01*
X100314970Y-54503329D01*
X100314970Y-54503328D01*
X100314968Y-54503327D01*
X100257282Y-54428148D01*
X100257278Y-54428143D01*
X98536319Y-52707184D01*
X98502834Y-52645861D01*
X98500000Y-52619503D01*
X98500000Y-37873435D01*
X98519685Y-37806396D01*
X98525624Y-37797949D01*
X98575661Y-37732738D01*
X98666924Y-37613802D01*
X98798043Y-37386697D01*
X98898398Y-37144419D01*
X98966271Y-36891115D01*
X99000499Y-36631119D01*
X99000499Y-36368880D01*
X98966271Y-36108884D01*
X98898398Y-35855581D01*
X98798043Y-35613303D01*
X98797410Y-35612207D01*
X98666924Y-35386198D01*
X98525624Y-35202050D01*
X98500430Y-35136881D01*
X98500000Y-35126564D01*
X98500000Y-33624500D01*
X98519685Y-33557461D01*
X98572489Y-33511706D01*
X98624000Y-33500500D01*
X110065890Y-33500500D01*
X110065892Y-33500500D01*
X110193186Y-33466392D01*
X110307314Y-33400500D01*
X110400500Y-33307314D01*
X110466392Y-33193186D01*
X110500500Y-33065892D01*
X110500500Y-24934108D01*
X110500500Y-22124000D01*
X110520185Y-22056961D01*
X110572989Y-22011206D01*
X110624500Y-22000000D01*
X122376000Y-22000000D01*
X122443039Y-22019685D01*
G37*
G04 #@! TD.AperFunction*
G04 #@! TA.AperFunction,Conductor*
G36*
X132442539Y-22019685D02*
G01*
X132488294Y-22072489D01*
X132499500Y-22124000D01*
X132499500Y-33065891D01*
X132533608Y-33193187D01*
X132566554Y-33250250D01*
X132599500Y-33307314D01*
X132692686Y-33400500D01*
X132806814Y-33466392D01*
X132934108Y-33500500D01*
X143376000Y-33500500D01*
X143443039Y-33520185D01*
X143488794Y-33572989D01*
X143500000Y-33624500D01*
X143500000Y-49000000D01*
X151376000Y-49000000D01*
X151443039Y-49019685D01*
X151488794Y-49072489D01*
X151500000Y-49124000D01*
X151500000Y-55870500D01*
X151480315Y-55937539D01*
X151427511Y-55983294D01*
X151376000Y-55994500D01*
X123629500Y-55994500D01*
X123562461Y-55974815D01*
X123516706Y-55922011D01*
X123505500Y-55870500D01*
X123505500Y-22124000D01*
X123525185Y-22056961D01*
X123577989Y-22011206D01*
X123629500Y-22000000D01*
X132375500Y-22000000D01*
X132442539Y-22019685D01*
G37*
G04 #@! TD.AperFunction*
G04 #@! TA.AperFunction,Conductor*
G36*
X161943039Y-33520185D02*
G01*
X161988794Y-33572989D01*
X162000000Y-33624500D01*
X162000000Y-106375500D01*
X161980315Y-106442539D01*
X161927511Y-106488294D01*
X161876000Y-106499500D01*
X159934108Y-106499500D01*
X159806812Y-106533608D01*
X159692686Y-106599500D01*
X159692683Y-106599502D01*
X159599502Y-106692683D01*
X159599500Y-106692686D01*
X159533608Y-106806812D01*
X159499500Y-106934108D01*
X159499500Y-113376000D01*
X159479815Y-113443039D01*
X159427011Y-113488794D01*
X159375500Y-113500000D01*
X146124000Y-113500000D01*
X146056961Y-113480315D01*
X146011206Y-113427511D01*
X146000000Y-113376000D01*
X146000000Y-108124000D01*
X146019685Y-108056961D01*
X146072489Y-108011206D01*
X146124000Y-108000000D01*
X152000012Y-108000000D01*
X154000000Y-107962517D01*
X154000000Y-106946774D01*
X154014369Y-106888833D01*
X154016342Y-106885101D01*
X154103985Y-106634631D01*
X154153319Y-106373896D01*
X154159518Y-106263515D01*
X154159518Y-104126699D01*
X154153319Y-104016318D01*
X154103985Y-103755583D01*
X154016342Y-103505113D01*
X154016340Y-103505110D01*
X154016338Y-103505103D01*
X154014367Y-103501374D01*
X154000000Y-103443438D01*
X154000000Y-102500000D01*
X152859429Y-102500000D01*
X152836376Y-102497838D01*
X152587816Y-102450807D01*
X152587809Y-102450806D01*
X152543654Y-102448326D01*
X152477426Y-102444607D01*
X151624000Y-102444607D01*
X151556961Y-102424922D01*
X151511206Y-102372118D01*
X151500000Y-102320607D01*
X151500000Y-101209168D01*
X151519685Y-101142129D01*
X151525624Y-101133682D01*
X151539134Y-101116075D01*
X151583599Y-101058127D01*
X151708164Y-100842373D01*
X151803502Y-100612207D01*
X151867982Y-100371565D01*
X151900500Y-100124565D01*
X151900500Y-99875435D01*
X151867982Y-99628435D01*
X151803502Y-99387793D01*
X151708164Y-99157627D01*
X151583599Y-98941873D01*
X151525624Y-98866317D01*
X151500430Y-98801147D01*
X151500000Y-98790831D01*
X151500000Y-91124000D01*
X151519685Y-91056961D01*
X151572489Y-91011206D01*
X151624000Y-91000000D01*
X152000000Y-91000000D01*
X152000000Y-78124500D01*
X152019685Y-78057461D01*
X152072489Y-78011706D01*
X152124000Y-78000500D01*
X152131113Y-78000500D01*
X152131120Y-78000500D01*
X152391116Y-77966270D01*
X152644419Y-77898398D01*
X152886697Y-77798043D01*
X153113803Y-77666924D01*
X153321851Y-77507282D01*
X153321855Y-77507277D01*
X153321860Y-77507274D01*
X153507274Y-77321860D01*
X153507277Y-77321855D01*
X153507282Y-77321851D01*
X153666924Y-77113803D01*
X153798043Y-76886697D01*
X153898398Y-76644419D01*
X153966270Y-76391116D01*
X154000500Y-76131120D01*
X154000500Y-75868880D01*
X153966270Y-75608884D01*
X153898398Y-75355581D01*
X153898394Y-75355571D01*
X153798046Y-75113309D01*
X153798041Y-75113299D01*
X153666924Y-74886196D01*
X153507281Y-74678148D01*
X153507274Y-74678140D01*
X153321860Y-74492726D01*
X153321851Y-74492718D01*
X153113803Y-74333075D01*
X152886700Y-74201958D01*
X152886690Y-74201953D01*
X152644428Y-74101605D01*
X152644421Y-74101603D01*
X152644419Y-74101602D01*
X152391116Y-74033730D01*
X152333339Y-74026123D01*
X152131127Y-73999500D01*
X152131120Y-73999500D01*
X152124000Y-73999500D01*
X152056961Y-73979815D01*
X152011206Y-73927011D01*
X152000000Y-73875500D01*
X152000000Y-70373539D01*
X152019685Y-70306500D01*
X152052695Y-70272091D01*
X152065279Y-70263246D01*
X152085974Y-70248700D01*
X152138778Y-70202945D01*
X152255179Y-70083832D01*
X152368308Y-69914736D01*
X152445083Y-69726329D01*
X152464768Y-69659290D01*
X152484917Y-69578406D01*
X152505500Y-69376000D01*
X152505500Y-57124000D01*
X152505433Y-57112412D01*
X152482519Y-56910257D01*
X152471313Y-56858746D01*
X152446784Y-56767062D01*
X152365692Y-56580473D01*
X152357240Y-56568449D01*
X152334794Y-56502285D01*
X152351681Y-56434487D01*
X152355612Y-56428212D01*
X152368308Y-56409236D01*
X152445083Y-56220829D01*
X152464768Y-56153790D01*
X152484917Y-56072906D01*
X152505500Y-55870500D01*
X152505500Y-49124000D01*
X152505433Y-49112412D01*
X152482519Y-48910257D01*
X152471313Y-48858746D01*
X152446784Y-48767062D01*
X152365692Y-48580473D01*
X152365691Y-48580471D01*
X152365689Y-48580468D01*
X152248705Y-48414033D01*
X152248704Y-48414032D01*
X152248700Y-48414026D01*
X152202945Y-48361222D01*
X152083832Y-48244821D01*
X152083830Y-48244819D01*
X151914738Y-48131693D01*
X151914731Y-48131690D01*
X151726328Y-48054916D01*
X151726322Y-48054914D01*
X151659293Y-48035233D01*
X151659295Y-48035233D01*
X151659290Y-48035232D01*
X151578406Y-48015083D01*
X151578402Y-48015082D01*
X151578403Y-48015082D01*
X151376001Y-47994500D01*
X151376000Y-47994500D01*
X144629500Y-47994500D01*
X144562461Y-47974815D01*
X144516706Y-47922011D01*
X144505500Y-47870500D01*
X144505500Y-33624500D01*
X144525185Y-33557461D01*
X144577989Y-33511706D01*
X144629500Y-33500500D01*
X161876000Y-33500500D01*
X161943039Y-33520185D01*
G37*
G04 #@! TD.AperFunction*
M02*
