G04 #@! TF.GenerationSoftware,KiCad,Pcbnew,9.0.5*
G04 #@! TF.CreationDate,2026-01-05T14:43:58+01:00*
G04 #@! TF.ProjectId,peak-ignitor-box-bms,7065616b-2d69-4676-9e69-746f722d626f,rev?*
G04 #@! TF.SameCoordinates,Original*
G04 #@! TF.FileFunction,Copper,L1,Top*
G04 #@! TF.FilePolarity,Positive*
%FSLAX46Y46*%
G04 Gerber Fmt 4.6, Leading zero omitted, Abs format (unit mm)*
G04 Created by KiCad (PCBNEW 9.0.5) date 2026-01-05 14:43:58*
%MOMM*%
%LPD*%
G01*
G04 APERTURE LIST*
G04 Aperture macros list*
%AMRoundRect*
0 Rectangle with rounded corners*
0 $1 Rounding radius*
0 $2 $3 $4 $5 $6 $7 $8 $9 X,Y pos of 4 corners*
0 Add a 4 corners polygon primitive as box body*
4,1,4,$2,$3,$4,$5,$6,$7,$8,$9,$2,$3,0*
0 Add four circle primitives for the rounded corners*
1,1,$1+$1,$2,$3*
1,1,$1+$1,$4,$5*
1,1,$1+$1,$6,$7*
1,1,$1+$1,$8,$9*
0 Add four rect primitives between the rounded corners*
20,1,$1+$1,$2,$3,$4,$5,0*
20,1,$1+$1,$4,$5,$6,$7,0*
20,1,$1+$1,$6,$7,$8,$9,0*
20,1,$1+$1,$8,$9,$2,$3,0*%
G04 Aperture macros list end*
G04 #@! TA.AperFunction,ComponentPad*
%ADD10RoundRect,0.250000X-0.725000X0.600000X-0.725000X-0.600000X0.725000X-0.600000X0.725000X0.600000X0*%
G04 #@! TD*
G04 #@! TA.AperFunction,ComponentPad*
%ADD11O,1.950000X1.700000*%
G04 #@! TD*
G04 #@! TA.AperFunction,ComponentPad*
%ADD12C,7.500000*%
G04 #@! TD*
G04 #@! TA.AperFunction,SMDPad,CuDef*
%ADD13RoundRect,0.900000X-2.100000X-2.100000X2.100000X-2.100000X2.100000X2.100000X-2.100000X2.100000X0*%
G04 #@! TD*
G04 #@! TA.AperFunction,SMDPad,CuDef*
%ADD14RoundRect,0.600000X-1.400000X-1.400000X1.400000X-1.400000X1.400000X1.400000X-1.400000X1.400000X0*%
G04 #@! TD*
G04 #@! TA.AperFunction,ComponentPad*
%ADD15C,1.400000*%
G04 #@! TD*
G04 #@! TA.AperFunction,ComponentPad*
%ADD16RoundRect,0.770000X0.980000X-0.980000X0.980000X0.980000X-0.980000X0.980000X-0.980000X-0.980000X0*%
G04 #@! TD*
G04 #@! TA.AperFunction,ComponentPad*
%ADD17C,3.500000*%
G04 #@! TD*
G04 #@! TA.AperFunction,ViaPad*
%ADD18C,1.800000*%
G04 #@! TD*
G04 #@! TA.AperFunction,Conductor*
%ADD19C,2.000000*%
G04 #@! TD*
G04 APERTURE END LIST*
D10*
X138150000Y-85950000D03*
D11*
X138150000Y-88450000D03*
X138150000Y-90950000D03*
X138150000Y-93450000D03*
X138150000Y-95950000D03*
D12*
X115996592Y-27990385D03*
D13*
X147723869Y-52685129D03*
X147723869Y-60685129D03*
X93223869Y-76185129D03*
X147723869Y-76185129D03*
D14*
X92723869Y-58685129D03*
D13*
X93223869Y-36685129D03*
X147723869Y-36685129D03*
D15*
X141409018Y-113195107D03*
X141409018Y-102195107D03*
D16*
X151409018Y-105195107D03*
D17*
X151409018Y-110195107D03*
D12*
X127981116Y-27996701D03*
D18*
X148000000Y-47000000D03*
X146000000Y-45000000D03*
X152000000Y-47000000D03*
X150000000Y-45000000D03*
X148000000Y-98000000D03*
X152000000Y-39000000D03*
X150000000Y-41000000D03*
X152000000Y-43000000D03*
X152000000Y-35000000D03*
X146000000Y-41000000D03*
X147500000Y-92500000D03*
X152500000Y-92500000D03*
X148000000Y-109500000D03*
X148000000Y-43000000D03*
X148000000Y-112500000D03*
X104000000Y-76000000D03*
X146000000Y-103500000D03*
X102000000Y-78000000D03*
X146000000Y-100000000D03*
X102000000Y-74000000D03*
X98000000Y-74000000D03*
X148000000Y-102000000D03*
X100000000Y-76000000D03*
X148000000Y-105000000D03*
X98000000Y-78000000D03*
X150000000Y-100000000D03*
X97000000Y-36500000D03*
X152000000Y-76000000D03*
X95500000Y-59500000D03*
X140000000Y-54000000D03*
X144000000Y-50000000D03*
X140000000Y-50000000D03*
X138000000Y-52000000D03*
X136000000Y-50000000D03*
X144000000Y-54000000D03*
X142000000Y-52000000D03*
X138000000Y-48000000D03*
X142000000Y-48000000D03*
X136000000Y-54000000D03*
X138000000Y-59000000D03*
X142000000Y-67000000D03*
X144000000Y-65000000D03*
X138000000Y-63000000D03*
X140000000Y-61000000D03*
X148000000Y-65000000D03*
X140000000Y-65000000D03*
X138000000Y-67000000D03*
X142000000Y-59000000D03*
X142000000Y-63000000D03*
X146000000Y-67000000D03*
D19*
X147000000Y-92500000D02*
X147500000Y-92500000D01*
X138150000Y-85950000D02*
X140450000Y-85950000D01*
X145500000Y-91000000D02*
X147000000Y-92500000D01*
X140450000Y-85950000D02*
X145500000Y-91000000D01*
X138150000Y-95950000D02*
X145950000Y-95950000D01*
X145950000Y-95950000D02*
X150000000Y-100000000D01*
X93408998Y-36500000D02*
X93223869Y-36685129D01*
X97000000Y-36500000D02*
X93408998Y-36500000D01*
X147723869Y-76185129D02*
X151814871Y-76185129D01*
X151814871Y-76185129D02*
X152000000Y-76000000D01*
X93538740Y-59500000D02*
X92723869Y-58685129D01*
X95500000Y-59500000D02*
X93538740Y-59500000D01*
G04 #@! TA.AperFunction,Conductor*
G36*
X122443039Y-22019685D02*
G01*
X122488794Y-22072489D01*
X122500000Y-22124000D01*
X122500000Y-57000000D01*
X151376000Y-57000000D01*
X151443039Y-57019685D01*
X151488794Y-57072489D01*
X151500000Y-57124000D01*
X151500000Y-69376000D01*
X151480315Y-69443039D01*
X151427511Y-69488794D01*
X151376000Y-69500000D01*
X98624000Y-69500000D01*
X98556961Y-69480315D01*
X98511206Y-69427511D01*
X98500000Y-69376000D01*
X98500000Y-37873432D01*
X98519685Y-37806393D01*
X98525615Y-37797958D01*
X98666924Y-37613803D01*
X98798043Y-37386697D01*
X98898398Y-37144419D01*
X98966270Y-36891116D01*
X99000500Y-36631120D01*
X99000500Y-36368880D01*
X98966270Y-36108884D01*
X98898398Y-35855581D01*
X98892927Y-35842373D01*
X98798046Y-35613309D01*
X98798041Y-35613299D01*
X98666924Y-35386196D01*
X98525625Y-35202054D01*
X98500430Y-35136885D01*
X98500000Y-35126567D01*
X98500000Y-33624500D01*
X98519685Y-33557461D01*
X98572489Y-33511706D01*
X98624000Y-33500500D01*
X110065890Y-33500500D01*
X110065892Y-33500500D01*
X110193186Y-33466392D01*
X110307314Y-33400500D01*
X110400500Y-33307314D01*
X110466392Y-33193186D01*
X110500500Y-33065892D01*
X110500500Y-24934108D01*
X110500500Y-22124000D01*
X110520185Y-22056961D01*
X110572989Y-22011206D01*
X110624500Y-22000000D01*
X122376000Y-22000000D01*
X122443039Y-22019685D01*
G37*
G04 #@! TD.AperFunction*
G04 #@! TA.AperFunction,Conductor*
G36*
X132442539Y-22019685D02*
G01*
X132488294Y-22072489D01*
X132499500Y-22124000D01*
X132499500Y-33065891D01*
X132533608Y-33193187D01*
X132566554Y-33250250D01*
X132599500Y-33307314D01*
X132692686Y-33400500D01*
X132806814Y-33466392D01*
X132934108Y-33500500D01*
X143376000Y-33500500D01*
X143443039Y-33520185D01*
X143488794Y-33572989D01*
X143500000Y-33624500D01*
X143500000Y-49000000D01*
X151376000Y-49000000D01*
X151443039Y-49019685D01*
X151488794Y-49072489D01*
X151500000Y-49124000D01*
X151500000Y-55870500D01*
X151480315Y-55937539D01*
X151427511Y-55983294D01*
X151376000Y-55994500D01*
X123629500Y-55994500D01*
X123562461Y-55974815D01*
X123516706Y-55922011D01*
X123505500Y-55870500D01*
X123505500Y-22124000D01*
X123525185Y-22056961D01*
X123577989Y-22011206D01*
X123629500Y-22000000D01*
X132375500Y-22000000D01*
X132442539Y-22019685D01*
G37*
G04 #@! TD.AperFunction*
G04 #@! TA.AperFunction,Conductor*
G36*
X153958915Y-108427612D02*
G01*
X153995600Y-108487075D01*
X154000000Y-108519813D01*
X154000000Y-113376000D01*
X153980315Y-113443039D01*
X153927511Y-113488794D01*
X153876000Y-113500000D01*
X146124000Y-113500000D01*
X146056961Y-113480315D01*
X146011206Y-113427511D01*
X146000000Y-113376000D01*
X146000000Y-108629500D01*
X146019685Y-108562461D01*
X146072489Y-108516706D01*
X146124000Y-108505500D01*
X150842432Y-108505500D01*
X150842447Y-108505500D01*
X150955040Y-108499176D01*
X150982630Y-108496067D01*
X151071732Y-108480928D01*
X151093757Y-108477186D01*
X151093758Y-108477185D01*
X151093774Y-108477183D01*
X151109493Y-108473595D01*
X151123185Y-108471269D01*
X151304090Y-108450886D01*
X151317973Y-108450107D01*
X151500056Y-108450107D01*
X151513939Y-108450887D01*
X151694852Y-108471270D01*
X151708557Y-108473598D01*
X151724253Y-108477181D01*
X151835409Y-108496068D01*
X151862571Y-108499128D01*
X151862964Y-108499173D01*
X151863000Y-108499177D01*
X151975589Y-108505500D01*
X151975606Y-108505500D01*
X153375990Y-108505500D01*
X153376000Y-108505500D01*
X153387588Y-108505433D01*
X153589743Y-108482519D01*
X153641254Y-108471313D01*
X153732938Y-108446784D01*
X153826575Y-108406088D01*
X153895905Y-108397421D01*
X153958915Y-108427612D01*
G37*
G04 #@! TD.AperFunction*
G04 #@! TA.AperFunction,Conductor*
G36*
X153952651Y-76902200D02*
G01*
X153993180Y-76959114D01*
X154000000Y-76999671D01*
X154000000Y-101982007D01*
X153980315Y-102049046D01*
X153927511Y-102094801D01*
X153858353Y-102104745D01*
X153829207Y-102096839D01*
X153726328Y-102054916D01*
X153726322Y-102054914D01*
X153659293Y-102035233D01*
X153659295Y-102035233D01*
X153659290Y-102035232D01*
X153578406Y-102015083D01*
X153578402Y-102015082D01*
X153578403Y-102015082D01*
X153376001Y-101994500D01*
X153376000Y-101994500D01*
X152129500Y-101994500D01*
X152062461Y-101974815D01*
X152016706Y-101922011D01*
X152005500Y-101870500D01*
X152005500Y-93709162D01*
X152005346Y-93701778D01*
X152004628Y-93667296D01*
X152004198Y-93656979D01*
X151991212Y-93532492D01*
X151937426Y-93336281D01*
X151912232Y-93271112D01*
X151905056Y-93254617D01*
X151878987Y-93194695D01*
X151878983Y-93194688D01*
X151878981Y-93194683D01*
X151805369Y-93075464D01*
X151772097Y-93021577D01*
X151772092Y-93021571D01*
X151759180Y-93004743D01*
X151750170Y-92991258D01*
X151699638Y-92903734D01*
X151692464Y-92889187D01*
X151691805Y-92887596D01*
X151653783Y-92795802D01*
X151648579Y-92780469D01*
X151622414Y-92682820D01*
X151619252Y-92666923D01*
X151606061Y-92566721D01*
X151605000Y-92550537D01*
X151605000Y-92449460D01*
X151606061Y-92433276D01*
X151611534Y-92391705D01*
X151619252Y-92333071D01*
X151622413Y-92317180D01*
X151648580Y-92219523D01*
X151653782Y-92204200D01*
X151692468Y-92110800D01*
X151699638Y-92096263D01*
X151721164Y-92058980D01*
X151750170Y-92008739D01*
X151759181Y-91995254D01*
X151772094Y-91978426D01*
X151796918Y-91944638D01*
X151802857Y-91936191D01*
X151868308Y-91829567D01*
X151945083Y-91641160D01*
X151964768Y-91574121D01*
X151984917Y-91493237D01*
X151999151Y-91353254D01*
X152025517Y-91288553D01*
X152051212Y-91264352D01*
X152085971Y-91239921D01*
X152085970Y-91239921D01*
X152085974Y-91239919D01*
X152138778Y-91194164D01*
X152255179Y-91075051D01*
X152368308Y-90905955D01*
X152445083Y-90717548D01*
X152464768Y-90650509D01*
X152484917Y-90569625D01*
X152505500Y-90367219D01*
X152505500Y-79590614D01*
X152499560Y-79481477D01*
X152496638Y-79454715D01*
X152457536Y-79266276D01*
X152377974Y-79079029D01*
X152344285Y-79017818D01*
X152252163Y-78879050D01*
X152110488Y-78733036D01*
X152110487Y-78733035D01*
X152110486Y-78733034D01*
X152054209Y-78694714D01*
X152009875Y-78640711D01*
X152000000Y-78592219D01*
X152000000Y-78287263D01*
X152019685Y-78220224D01*
X152072489Y-78174469D01*
X152107813Y-78164324D01*
X152205987Y-78151400D01*
X152459290Y-78083527D01*
X152701568Y-77983172D01*
X152928674Y-77852053D01*
X153019002Y-77782740D01*
X153136722Y-77692412D01*
X153507283Y-77321851D01*
X153666924Y-77113802D01*
X153768613Y-76937670D01*
X153819180Y-76889456D01*
X153887787Y-76876232D01*
X153952651Y-76902200D01*
G37*
G04 #@! TD.AperFunction*
G04 #@! TA.AperFunction,Conductor*
G36*
X153943039Y-33520185D02*
G01*
X153988794Y-33572989D01*
X154000000Y-33624500D01*
X154000000Y-75000328D01*
X153980315Y-75067367D01*
X153927511Y-75113122D01*
X153858353Y-75123066D01*
X153794797Y-75094041D01*
X153768613Y-75062328D01*
X153666924Y-74886198D01*
X153507284Y-74678150D01*
X153507278Y-74678143D01*
X153321856Y-74492721D01*
X153321849Y-74492715D01*
X153113801Y-74333075D01*
X152886700Y-74201958D01*
X152886690Y-74201954D01*
X152644419Y-74101602D01*
X152391112Y-74033728D01*
X152131121Y-73999501D01*
X152131120Y-73999501D01*
X152124000Y-73999501D01*
X152115314Y-73996950D01*
X152106353Y-73998239D01*
X152082312Y-73987260D01*
X152056961Y-73979816D01*
X152051033Y-73972975D01*
X152042797Y-73969214D01*
X152028507Y-73946979D01*
X152011206Y-73927012D01*
X152008918Y-73916497D01*
X152005023Y-73910436D01*
X152000000Y-73875501D01*
X152000000Y-73777182D01*
X152019685Y-73710143D01*
X152052695Y-73675734D01*
X152085974Y-73652343D01*
X152138778Y-73606588D01*
X152255179Y-73487475D01*
X152368308Y-73318379D01*
X152445083Y-73129972D01*
X152464768Y-73062933D01*
X152484917Y-72982049D01*
X152505500Y-72779643D01*
X152505500Y-70629500D01*
X152505433Y-70617912D01*
X152482519Y-70415757D01*
X152471313Y-70364246D01*
X152446784Y-70272562D01*
X152365692Y-70085973D01*
X152357240Y-70073949D01*
X152334794Y-70007785D01*
X152351681Y-69939987D01*
X152355612Y-69933712D01*
X152368308Y-69914736D01*
X152445083Y-69726329D01*
X152464768Y-69659290D01*
X152484917Y-69578406D01*
X152505500Y-69376000D01*
X152505500Y-57124000D01*
X152505433Y-57112412D01*
X152482519Y-56910257D01*
X152471313Y-56858746D01*
X152446784Y-56767062D01*
X152365692Y-56580473D01*
X152357240Y-56568449D01*
X152334794Y-56502285D01*
X152351681Y-56434487D01*
X152355612Y-56428212D01*
X152368308Y-56409236D01*
X152445083Y-56220829D01*
X152464768Y-56153790D01*
X152484917Y-56072906D01*
X152505500Y-55870500D01*
X152505500Y-49124000D01*
X152505433Y-49112412D01*
X152482519Y-48910257D01*
X152471313Y-48858746D01*
X152446784Y-48767062D01*
X152365692Y-48580473D01*
X152365691Y-48580471D01*
X152365689Y-48580468D01*
X152248705Y-48414033D01*
X152248704Y-48414032D01*
X152248700Y-48414026D01*
X152202945Y-48361222D01*
X152083832Y-48244821D01*
X152083830Y-48244819D01*
X151914738Y-48131693D01*
X151914731Y-48131690D01*
X151726328Y-48054916D01*
X151726322Y-48054914D01*
X151659293Y-48035233D01*
X151659295Y-48035233D01*
X151659290Y-48035232D01*
X151578406Y-48015083D01*
X151578402Y-48015082D01*
X151578403Y-48015082D01*
X151376001Y-47994500D01*
X151376000Y-47994500D01*
X144629500Y-47994500D01*
X144562461Y-47974815D01*
X144516706Y-47922011D01*
X144505500Y-47870500D01*
X144505500Y-33624500D01*
X144525185Y-33557461D01*
X144577989Y-33511706D01*
X144629500Y-33500500D01*
X153876000Y-33500500D01*
X153943039Y-33520185D01*
G37*
G04 #@! TD.AperFunction*
G04 #@! TA.AperFunction,Conductor*
G36*
X97693500Y-70019685D02*
G01*
X97727908Y-70052694D01*
X97751300Y-70085974D01*
X97797055Y-70138778D01*
X97916168Y-70255179D01*
X98085264Y-70368308D01*
X98273671Y-70445083D01*
X98273677Y-70445085D01*
X98288687Y-70449492D01*
X98340710Y-70464768D01*
X98421594Y-70484917D01*
X98556531Y-70498639D01*
X98623999Y-70505500D01*
X151376000Y-70505500D01*
X151443039Y-70525185D01*
X151488794Y-70577989D01*
X151500000Y-70629500D01*
X151500000Y-72779643D01*
X151480315Y-72846682D01*
X151427511Y-72892437D01*
X151358353Y-72902381D01*
X151294797Y-72873356D01*
X151276488Y-72853625D01*
X151266087Y-72839635D01*
X151266074Y-72839620D01*
X151069377Y-72642923D01*
X151069370Y-72642917D01*
X151069368Y-72642915D01*
X151069363Y-72642911D01*
X151069358Y-72642907D01*
X150846112Y-72476941D01*
X150846104Y-72476936D01*
X150601066Y-72345239D01*
X150601061Y-72345237D01*
X150601059Y-72345236D01*
X150339446Y-72250618D01*
X150066845Y-72195099D01*
X149903288Y-72184629D01*
X149903278Y-72184629D01*
X145544460Y-72184629D01*
X145380889Y-72195099D01*
X145223090Y-72227237D01*
X145108292Y-72250618D01*
X144846679Y-72345236D01*
X144846671Y-72345239D01*
X144601633Y-72476936D01*
X144601625Y-72476941D01*
X144378379Y-72642907D01*
X144378360Y-72642923D01*
X144181663Y-72839620D01*
X144181647Y-72839639D01*
X144015681Y-73062885D01*
X144015676Y-73062893D01*
X143883979Y-73307931D01*
X143883976Y-73307938D01*
X143883976Y-73307939D01*
X143789358Y-73569552D01*
X143733839Y-73842153D01*
X143723369Y-74005710D01*
X143723369Y-74005718D01*
X143723369Y-74005719D01*
X143723369Y-78364537D01*
X143733839Y-78528108D01*
X143753675Y-78625500D01*
X143789358Y-78800706D01*
X143881985Y-79056814D01*
X143883979Y-79062326D01*
X144015676Y-79307364D01*
X144015681Y-79307372D01*
X144181647Y-79530618D01*
X144181663Y-79530637D01*
X144378360Y-79727334D01*
X144378366Y-79727339D01*
X144378370Y-79727343D01*
X144378375Y-79727347D01*
X144378379Y-79727350D01*
X144601625Y-79893316D01*
X144601633Y-79893321D01*
X144846671Y-80025018D01*
X144846672Y-80025018D01*
X144846679Y-80025022D01*
X145108292Y-80119640D01*
X145380893Y-80175159D01*
X145544450Y-80185629D01*
X149903287Y-80185628D01*
X150066845Y-80175159D01*
X150339446Y-80119640D01*
X150601059Y-80025022D01*
X150846107Y-79893320D01*
X151069368Y-79727343D01*
X151266083Y-79530628D01*
X151276486Y-79516635D01*
X151332280Y-79474577D01*
X151401954Y-79469361D01*
X151463389Y-79502641D01*
X151497078Y-79563852D01*
X151500000Y-79590614D01*
X151500000Y-90367219D01*
X151480315Y-90434258D01*
X151427511Y-90480013D01*
X151375225Y-90491216D01*
X151000000Y-90488871D01*
X151000000Y-91290831D01*
X150980315Y-91357870D01*
X150974376Y-91366317D01*
X150916400Y-91441873D01*
X150791837Y-91657623D01*
X150791830Y-91657638D01*
X150696498Y-91887792D01*
X150632017Y-92128438D01*
X150599501Y-92375424D01*
X150599500Y-92375441D01*
X150599500Y-92624558D01*
X150599501Y-92624575D01*
X150632017Y-92871561D01*
X150696498Y-93112207D01*
X150791830Y-93342361D01*
X150791837Y-93342376D01*
X150916400Y-93558126D01*
X150974376Y-93633682D01*
X150999570Y-93698851D01*
X151000000Y-93709168D01*
X151000000Y-94500000D01*
X151000000Y-103000000D01*
X153376000Y-103000000D01*
X153443039Y-103019685D01*
X153488794Y-103072489D01*
X153500000Y-103124000D01*
X153500000Y-107376000D01*
X153480315Y-107443039D01*
X153427511Y-107488794D01*
X153376000Y-107500000D01*
X151975589Y-107500000D01*
X151947998Y-107496891D01*
X151870470Y-107479196D01*
X151870467Y-107479195D01*
X151870455Y-107479193D01*
X151563489Y-107444607D01*
X151563483Y-107444607D01*
X151254553Y-107444607D01*
X151254546Y-107444607D01*
X150947580Y-107479193D01*
X150947566Y-107479196D01*
X150870037Y-107496891D01*
X150842447Y-107500000D01*
X140624500Y-107500000D01*
X140557461Y-107480315D01*
X140511706Y-107427511D01*
X140500500Y-107376000D01*
X140500500Y-103844974D01*
X140520185Y-103777935D01*
X140572989Y-103732180D01*
X140642147Y-103722236D01*
X140671951Y-103730412D01*
X140861237Y-103808817D01*
X141076555Y-103866511D01*
X141297561Y-103895607D01*
X141297568Y-103895607D01*
X141520468Y-103895607D01*
X141520475Y-103895607D01*
X141741481Y-103866511D01*
X141956799Y-103808817D01*
X142162744Y-103723512D01*
X142355792Y-103612055D01*
X142532642Y-103476354D01*
X142690265Y-103318731D01*
X142825966Y-103141881D01*
X142937423Y-102948833D01*
X143022728Y-102742888D01*
X143080422Y-102527570D01*
X143109518Y-102306564D01*
X143109518Y-102083650D01*
X143080422Y-101862644D01*
X143022728Y-101647326D01*
X142937423Y-101441381D01*
X142825966Y-101248333D01*
X142690265Y-101071483D01*
X142690260Y-101071477D01*
X142532647Y-100913864D01*
X142532640Y-100913858D01*
X142355800Y-100778165D01*
X142355798Y-100778164D01*
X142355792Y-100778159D01*
X142162744Y-100666702D01*
X142162740Y-100666700D01*
X141956808Y-100581400D01*
X141956801Y-100581398D01*
X141956799Y-100581397D01*
X141741481Y-100523703D01*
X141741475Y-100523702D01*
X141741470Y-100523701D01*
X141520484Y-100494608D01*
X141520481Y-100494607D01*
X141520475Y-100494607D01*
X141297561Y-100494607D01*
X141297555Y-100494607D01*
X141297551Y-100494608D01*
X141076565Y-100523701D01*
X141076558Y-100523702D01*
X141076555Y-100523703D01*
X140881734Y-100575905D01*
X140861237Y-100581397D01*
X140861221Y-100581402D01*
X140671952Y-100659800D01*
X140602483Y-100667269D01*
X140540004Y-100635994D01*
X140504352Y-100575905D01*
X140500500Y-100545239D01*
X140500500Y-98434110D01*
X140500500Y-98434108D01*
X140466392Y-98306814D01*
X140400500Y-98192686D01*
X140307314Y-98099500D01*
X140250250Y-98066554D01*
X140193187Y-98033608D01*
X140129539Y-98016554D01*
X140065892Y-97999500D01*
X140065891Y-97999500D01*
X130824500Y-97999500D01*
X130757461Y-97979815D01*
X130711706Y-97927011D01*
X130700500Y-97875500D01*
X130700500Y-85818880D01*
X136149500Y-85818880D01*
X136149500Y-85822782D01*
X136149500Y-86081113D01*
X136149501Y-86081129D01*
X136173439Y-86262955D01*
X136174500Y-86279140D01*
X136174500Y-86614208D01*
X136174501Y-86614223D01*
X136184904Y-86746413D01*
X136184905Y-86746420D01*
X136239902Y-86964678D01*
X136239903Y-86964681D01*
X136332991Y-87169622D01*
X136332997Y-87169632D01*
X136448863Y-87336876D01*
X136470860Y-87403193D01*
X136454322Y-87469492D01*
X136361777Y-87629784D01*
X136361773Y-87629794D01*
X136268947Y-87853895D01*
X136206161Y-88088214D01*
X136174500Y-88328711D01*
X136174500Y-88571288D01*
X136206161Y-88811785D01*
X136268947Y-89046104D01*
X136361773Y-89270205D01*
X136361776Y-89270212D01*
X136483064Y-89480289D01*
X136483066Y-89480292D01*
X136483067Y-89480293D01*
X136593731Y-89624514D01*
X136618925Y-89689683D01*
X136604887Y-89758128D01*
X136593731Y-89775486D01*
X136483067Y-89919706D01*
X136361777Y-90129785D01*
X136361773Y-90129794D01*
X136268947Y-90353895D01*
X136206161Y-90588214D01*
X136174500Y-90828711D01*
X136174500Y-91071288D01*
X136203402Y-91290831D01*
X136206162Y-91311789D01*
X136220773Y-91366317D01*
X136268947Y-91546104D01*
X136315140Y-91657623D01*
X136361776Y-91770212D01*
X136483064Y-91980289D01*
X136483066Y-91980292D01*
X136483067Y-91980293D01*
X136593731Y-92124514D01*
X136618925Y-92189683D01*
X136604887Y-92258128D01*
X136593731Y-92275486D01*
X136483067Y-92419706D01*
X136361777Y-92629785D01*
X136361773Y-92629794D01*
X136268947Y-92853895D01*
X136206161Y-93088214D01*
X136174500Y-93328711D01*
X136174500Y-93571288D01*
X136206161Y-93811785D01*
X136268947Y-94046104D01*
X136336075Y-94208164D01*
X136361776Y-94270212D01*
X136483064Y-94480289D01*
X136483066Y-94480292D01*
X136483067Y-94480293D01*
X136630733Y-94672736D01*
X136630739Y-94672743D01*
X136802256Y-94844260D01*
X136802262Y-94844265D01*
X136994711Y-94991936D01*
X137204788Y-95113224D01*
X137428900Y-95206054D01*
X137663211Y-95268838D01*
X137843586Y-95292584D01*
X137903711Y-95300500D01*
X137903712Y-95300500D01*
X138396289Y-95300500D01*
X138444388Y-95294167D01*
X138636789Y-95268838D01*
X138871100Y-95206054D01*
X139095212Y-95113224D01*
X139305289Y-94991936D01*
X139497738Y-94844265D01*
X139669265Y-94672738D01*
X139816936Y-94480289D01*
X139938224Y-94270212D01*
X140031054Y-94046100D01*
X140093838Y-93811789D01*
X140125500Y-93571288D01*
X140125500Y-93328712D01*
X140093838Y-93088211D01*
X140031054Y-92853900D01*
X139938224Y-92629788D01*
X139816936Y-92419711D01*
X139706266Y-92275483D01*
X139681074Y-92210317D01*
X139695112Y-92141873D01*
X139706261Y-92124523D01*
X139816936Y-91980289D01*
X139938224Y-91770212D01*
X140031054Y-91546100D01*
X140093838Y-91311789D01*
X140125500Y-91071288D01*
X140125500Y-90828712D01*
X140093838Y-90588211D01*
X140031054Y-90353900D01*
X139938224Y-90129788D01*
X139816936Y-89919711D01*
X139706266Y-89775483D01*
X139681074Y-89710317D01*
X139695112Y-89641873D01*
X139706261Y-89624523D01*
X139816936Y-89480289D01*
X139938224Y-89270212D01*
X140031054Y-89046100D01*
X140093838Y-88811789D01*
X140106251Y-88717499D01*
X140134515Y-88653605D01*
X140192839Y-88615133D01*
X140262704Y-88614301D01*
X140316870Y-88646005D01*
X144182467Y-92511603D01*
X144182489Y-92511623D01*
X145678140Y-94007276D01*
X145678145Y-94007280D01*
X145678148Y-94007283D01*
X145782172Y-94087102D01*
X145782173Y-94087104D01*
X145886197Y-94166924D01*
X146113299Y-94298041D01*
X146113300Y-94298041D01*
X146113303Y-94298043D01*
X146355581Y-94398398D01*
X146608884Y-94466271D01*
X146738882Y-94483385D01*
X146868880Y-94500500D01*
X146868887Y-94500500D01*
X147631113Y-94500500D01*
X147631120Y-94500500D01*
X147891116Y-94466270D01*
X148144419Y-94398398D01*
X148386697Y-94298043D01*
X148613803Y-94166924D01*
X148821851Y-94007282D01*
X148821857Y-94007276D01*
X148821860Y-94007274D01*
X149007274Y-93821860D01*
X149007277Y-93821855D01*
X149007282Y-93821851D01*
X149166924Y-93613803D01*
X149298043Y-93386697D01*
X149398398Y-93144419D01*
X149466270Y-92891116D01*
X149500500Y-92631120D01*
X149500500Y-92368880D01*
X149466270Y-92108884D01*
X149398398Y-91855581D01*
X149363034Y-91770205D01*
X149298046Y-91613309D01*
X149298041Y-91613299D01*
X149166924Y-91386196D01*
X149007281Y-91178148D01*
X149007274Y-91178140D01*
X148821860Y-90992726D01*
X148821851Y-90992718D01*
X148613803Y-90833075D01*
X148386700Y-90701958D01*
X148386690Y-90701953D01*
X148144428Y-90601605D01*
X148144421Y-90601603D01*
X148144419Y-90601602D01*
X147891116Y-90533730D01*
X147891113Y-90533729D01*
X147887196Y-90532680D01*
X147887553Y-90531344D01*
X147830818Y-90501656D01*
X147829252Y-90500117D01*
X147011623Y-89682489D01*
X147011603Y-89682467D01*
X141771856Y-84442721D01*
X141771849Y-84442715D01*
X141654131Y-84352388D01*
X141654130Y-84352387D01*
X141563803Y-84283075D01*
X141336700Y-84151958D01*
X141336690Y-84151954D01*
X141094419Y-84051602D01*
X140841116Y-83983729D01*
X140841115Y-83983728D01*
X140841112Y-83983728D01*
X140711118Y-83966615D01*
X140581127Y-83949500D01*
X140581120Y-83949500D01*
X138018880Y-83949500D01*
X138018872Y-83949500D01*
X137787772Y-83979926D01*
X137758884Y-83983730D01*
X137505581Y-84051602D01*
X137505572Y-84051605D01*
X137412727Y-84090062D01*
X137365294Y-84099500D01*
X137360800Y-84099500D01*
X137360774Y-84099501D01*
X137228586Y-84109904D01*
X137228579Y-84109905D01*
X137010321Y-84164902D01*
X137010318Y-84164903D01*
X136805377Y-84257991D01*
X136805367Y-84257997D01*
X136620354Y-84386174D01*
X136620342Y-84386184D01*
X136461184Y-84545342D01*
X136461174Y-84545354D01*
X136332997Y-84730367D01*
X136332991Y-84730377D01*
X136239903Y-84935318D01*
X136239902Y-84935321D01*
X136184905Y-85153579D01*
X136184904Y-85153586D01*
X136174500Y-85285777D01*
X136174500Y-85620862D01*
X136173478Y-85636438D01*
X136173482Y-85636713D01*
X136149500Y-85818880D01*
X130700500Y-85818880D01*
X130700500Y-79184110D01*
X130700500Y-79184108D01*
X130666392Y-79056814D01*
X130600500Y-78942686D01*
X130507314Y-78849500D01*
X130450250Y-78816554D01*
X130393187Y-78783608D01*
X130329539Y-78766554D01*
X130265892Y-78749500D01*
X88624000Y-78749500D01*
X88556961Y-78729815D01*
X88511206Y-78677011D01*
X88500000Y-78625500D01*
X88500000Y-70124000D01*
X88519685Y-70056961D01*
X88572489Y-70011206D01*
X88624000Y-70000000D01*
X97626461Y-70000000D01*
X97693500Y-70019685D01*
G37*
G04 #@! TD.AperFunction*
M02*
