G04 #@! TF.GenerationSoftware,KiCad,Pcbnew,9.0.5*
G04 #@! TF.CreationDate,2025-12-18T19:52:08+01:00*
G04 #@! TF.ProjectId,peak-ignitor-box-bms,7065616b-2d69-4676-9e69-746f722d626f,rev?*
G04 #@! TF.SameCoordinates,Original*
G04 #@! TF.FileFunction,Legend,Top*
G04 #@! TF.FilePolarity,Positive*
%FSLAX46Y46*%
G04 Gerber Fmt 4.6, Leading zero omitted, Abs format (unit mm)*
G04 Created by KiCad (PCBNEW 9.0.5) date 2025-12-18 19:52:08*
%MOMM*%
%LPD*%
G01*
G04 APERTURE LIST*
G04 Aperture macros list*
%AMRoundRect*
0 Rectangle with rounded corners*
0 $1 Rounding radius*
0 $2 $3 $4 $5 $6 $7 $8 $9 X,Y pos of 4 corners*
0 Add a 4 corners polygon primitive as box body*
4,1,4,$2,$3,$4,$5,$6,$7,$8,$9,$2,$3,0*
0 Add four circle primitives for the rounded corners*
1,1,$1+$1,$2,$3*
1,1,$1+$1,$4,$5*
1,1,$1+$1,$6,$7*
1,1,$1+$1,$8,$9*
0 Add four rect primitives between the rounded corners*
20,1,$1+$1,$2,$3,$4,$5,0*
20,1,$1+$1,$4,$5,$6,$7,0*
20,1,$1+$1,$6,$7,$8,$9,0*
20,1,$1+$1,$8,$9,$2,$3,0*%
G04 Aperture macros list end*
%ADD10C,0.100000*%
%ADD11C,0.150000*%
%ADD12C,0.120000*%
%ADD13C,7.500000*%
%ADD14RoundRect,0.250000X-0.725000X0.600000X-0.725000X-0.600000X0.725000X-0.600000X0.725000X0.600000X0*%
%ADD15O,1.950000X1.700000*%
%ADD16RoundRect,0.900000X-2.100000X-2.100000X2.100000X-2.100000X2.100000X2.100000X-2.100000X2.100000X0*%
%ADD17RoundRect,0.600000X-1.400000X-1.400000X1.400000X-1.400000X1.400000X1.400000X-1.400000X1.400000X0*%
%ADD18C,1.400000*%
%ADD19RoundRect,0.770000X0.980000X-0.980000X0.980000X0.980000X-0.980000X0.980000X-0.980000X-0.980000X0*%
%ADD20C,3.500000*%
G04 APERTURE END LIST*
D10*
X80827693Y-77122419D02*
X80256265Y-77122419D01*
X80541979Y-77122419D02*
X80541979Y-76122419D01*
X80541979Y-76122419D02*
X80446741Y-76265276D01*
X80446741Y-76265276D02*
X80351503Y-76360514D01*
X80351503Y-76360514D02*
X80256265Y-76408133D01*
X81256265Y-77027180D02*
X81303884Y-77074800D01*
X81303884Y-77074800D02*
X81256265Y-77122419D01*
X81256265Y-77122419D02*
X81208646Y-77074800D01*
X81208646Y-77074800D02*
X81256265Y-77027180D01*
X81256265Y-77027180D02*
X81256265Y-77122419D01*
X81922931Y-76122419D02*
X82018169Y-76122419D01*
X82018169Y-76122419D02*
X82113407Y-76170038D01*
X82113407Y-76170038D02*
X82161026Y-76217657D01*
X82161026Y-76217657D02*
X82208645Y-76312895D01*
X82208645Y-76312895D02*
X82256264Y-76503371D01*
X82256264Y-76503371D02*
X82256264Y-76741466D01*
X82256264Y-76741466D02*
X82208645Y-76931942D01*
X82208645Y-76931942D02*
X82161026Y-77027180D01*
X82161026Y-77027180D02*
X82113407Y-77074800D01*
X82113407Y-77074800D02*
X82018169Y-77122419D01*
X82018169Y-77122419D02*
X81922931Y-77122419D01*
X81922931Y-77122419D02*
X81827693Y-77074800D01*
X81827693Y-77074800D02*
X81780074Y-77027180D01*
X81780074Y-77027180D02*
X81732455Y-76931942D01*
X81732455Y-76931942D02*
X81684836Y-76741466D01*
X81684836Y-76741466D02*
X81684836Y-76503371D01*
X81684836Y-76503371D02*
X81732455Y-76312895D01*
X81732455Y-76312895D02*
X81780074Y-76217657D01*
X81780074Y-76217657D02*
X81827693Y-76170038D01*
X81827693Y-76170038D02*
X81922931Y-76122419D01*
D11*
X120151411Y-28323718D02*
X120865696Y-28323718D01*
X120865696Y-28323718D02*
X121008553Y-28371337D01*
X121008553Y-28371337D02*
X121103792Y-28466575D01*
X121103792Y-28466575D02*
X121151411Y-28609432D01*
X121151411Y-28609432D02*
X121151411Y-28704670D01*
X120484744Y-27418956D02*
X121151411Y-27418956D01*
X120103792Y-27657051D02*
X120818077Y-27895146D01*
X120818077Y-27895146D02*
X120818077Y-27276099D01*
X132135935Y-28330034D02*
X132850220Y-28330034D01*
X132850220Y-28330034D02*
X132993077Y-28377653D01*
X132993077Y-28377653D02*
X133088316Y-28472891D01*
X133088316Y-28472891D02*
X133135935Y-28615748D01*
X133135935Y-28615748D02*
X133135935Y-28710986D01*
X132135935Y-27949081D02*
X132135935Y-27330034D01*
X132135935Y-27330034D02*
X132516887Y-27663367D01*
X132516887Y-27663367D02*
X132516887Y-27520510D01*
X132516887Y-27520510D02*
X132564506Y-27425272D01*
X132564506Y-27425272D02*
X132612125Y-27377653D01*
X132612125Y-27377653D02*
X132707363Y-27330034D01*
X132707363Y-27330034D02*
X132945458Y-27330034D01*
X132945458Y-27330034D02*
X133040696Y-27377653D01*
X133040696Y-27377653D02*
X133088316Y-27425272D01*
X133088316Y-27425272D02*
X133135935Y-27520510D01*
X133135935Y-27520510D02*
X133135935Y-27806224D01*
X133135935Y-27806224D02*
X133088316Y-27901462D01*
X133088316Y-27901462D02*
X133040696Y-27949081D01*
X142704819Y-91283333D02*
X143419104Y-91283333D01*
X143419104Y-91283333D02*
X143561961Y-91330952D01*
X143561961Y-91330952D02*
X143657200Y-91426190D01*
X143657200Y-91426190D02*
X143704819Y-91569047D01*
X143704819Y-91569047D02*
X143704819Y-91664285D01*
X142800057Y-90854761D02*
X142752438Y-90807142D01*
X142752438Y-90807142D02*
X142704819Y-90711904D01*
X142704819Y-90711904D02*
X142704819Y-90473809D01*
X142704819Y-90473809D02*
X142752438Y-90378571D01*
X142752438Y-90378571D02*
X142800057Y-90330952D01*
X142800057Y-90330952D02*
X142895295Y-90283333D01*
X142895295Y-90283333D02*
X142990533Y-90283333D01*
X142990533Y-90283333D02*
X143133390Y-90330952D01*
X143133390Y-90330952D02*
X143704819Y-90902380D01*
X143704819Y-90902380D02*
X143704819Y-90283333D01*
D10*
X111711964Y-9292548D02*
X111711964Y-10102071D01*
X111711964Y-10102071D02*
X111759583Y-10197309D01*
X111759583Y-10197309D02*
X111807202Y-10244929D01*
X111807202Y-10244929D02*
X111902440Y-10292548D01*
X111902440Y-10292548D02*
X112092916Y-10292548D01*
X112092916Y-10292548D02*
X112188154Y-10244929D01*
X112188154Y-10244929D02*
X112235773Y-10197309D01*
X112235773Y-10197309D02*
X112283392Y-10102071D01*
X112283392Y-10102071D02*
X112283392Y-9292548D01*
X113283392Y-10292548D02*
X112711964Y-10292548D01*
X112997678Y-10292548D02*
X112997678Y-9292548D01*
X112997678Y-9292548D02*
X112902440Y-9435405D01*
X112902440Y-9435405D02*
X112807202Y-9530643D01*
X112807202Y-9530643D02*
X112711964Y-9578262D01*
X91670610Y-61486119D02*
X91575372Y-61438500D01*
X91575372Y-61438500D02*
X91527753Y-61390881D01*
X91527753Y-61390881D02*
X91480134Y-61295643D01*
X91480134Y-61295643D02*
X91480134Y-61248024D01*
X91480134Y-61248024D02*
X91527753Y-61152786D01*
X91527753Y-61152786D02*
X91575372Y-61105167D01*
X91575372Y-61105167D02*
X91670610Y-61057548D01*
X91670610Y-61057548D02*
X91861086Y-61057548D01*
X91861086Y-61057548D02*
X91956324Y-61105167D01*
X91956324Y-61105167D02*
X92003943Y-61152786D01*
X92003943Y-61152786D02*
X92051562Y-61248024D01*
X92051562Y-61248024D02*
X92051562Y-61295643D01*
X92051562Y-61295643D02*
X92003943Y-61390881D01*
X92003943Y-61390881D02*
X91956324Y-61438500D01*
X91956324Y-61438500D02*
X91861086Y-61486119D01*
X91861086Y-61486119D02*
X91670610Y-61486119D01*
X91670610Y-61486119D02*
X91575372Y-61533738D01*
X91575372Y-61533738D02*
X91527753Y-61581357D01*
X91527753Y-61581357D02*
X91480134Y-61676595D01*
X91480134Y-61676595D02*
X91480134Y-61867071D01*
X91480134Y-61867071D02*
X91527753Y-61962309D01*
X91527753Y-61962309D02*
X91575372Y-62009929D01*
X91575372Y-62009929D02*
X91670610Y-62057548D01*
X91670610Y-62057548D02*
X91861086Y-62057548D01*
X91861086Y-62057548D02*
X91956324Y-62009929D01*
X91956324Y-62009929D02*
X92003943Y-61962309D01*
X92003943Y-61962309D02*
X92051562Y-61867071D01*
X92051562Y-61867071D02*
X92051562Y-61676595D01*
X92051562Y-61676595D02*
X92003943Y-61581357D01*
X92003943Y-61581357D02*
X91956324Y-61533738D01*
X91956324Y-61533738D02*
X91861086Y-61486119D01*
X92480134Y-61962309D02*
X92527753Y-62009929D01*
X92527753Y-62009929D02*
X92480134Y-62057548D01*
X92480134Y-62057548D02*
X92432515Y-62009929D01*
X92432515Y-62009929D02*
X92480134Y-61962309D01*
X92480134Y-61962309D02*
X92480134Y-62057548D01*
X93384895Y-61390881D02*
X93384895Y-62057548D01*
X93146800Y-61009929D02*
X92908705Y-61724214D01*
X92908705Y-61724214D02*
X93527752Y-61724214D01*
X93765848Y-61057548D02*
X94099181Y-62057548D01*
X94099181Y-62057548D02*
X94432514Y-61057548D01*
X92718229Y-71557548D02*
X92813467Y-71557548D01*
X92813467Y-71557548D02*
X92908705Y-71605167D01*
X92908705Y-71605167D02*
X92956324Y-71652786D01*
X92956324Y-71652786D02*
X93003943Y-71748024D01*
X93003943Y-71748024D02*
X93051562Y-71938500D01*
X93051562Y-71938500D02*
X93051562Y-72176595D01*
X93051562Y-72176595D02*
X93003943Y-72367071D01*
X93003943Y-72367071D02*
X92956324Y-72462309D01*
X92956324Y-72462309D02*
X92908705Y-72509929D01*
X92908705Y-72509929D02*
X92813467Y-72557548D01*
X92813467Y-72557548D02*
X92718229Y-72557548D01*
X92718229Y-72557548D02*
X92622991Y-72509929D01*
X92622991Y-72509929D02*
X92575372Y-72462309D01*
X92575372Y-72462309D02*
X92527753Y-72367071D01*
X92527753Y-72367071D02*
X92480134Y-72176595D01*
X92480134Y-72176595D02*
X92480134Y-71938500D01*
X92480134Y-71938500D02*
X92527753Y-71748024D01*
X92527753Y-71748024D02*
X92575372Y-71652786D01*
X92575372Y-71652786D02*
X92622991Y-71605167D01*
X92622991Y-71605167D02*
X92718229Y-71557548D01*
X93337277Y-71557548D02*
X93670610Y-72557548D01*
X93670610Y-72557548D02*
X94003943Y-71557548D01*
X143027753Y-52676595D02*
X143789658Y-52676595D01*
X143408705Y-53057548D02*
X143408705Y-52295643D01*
X91801562Y-41057548D02*
X91230134Y-41057548D01*
X91515848Y-41057548D02*
X91515848Y-40057548D01*
X91515848Y-40057548D02*
X91420610Y-40200405D01*
X91420610Y-40200405D02*
X91325372Y-40295643D01*
X91325372Y-40295643D02*
X91230134Y-40343262D01*
X92182515Y-40152786D02*
X92230134Y-40105167D01*
X92230134Y-40105167D02*
X92325372Y-40057548D01*
X92325372Y-40057548D02*
X92563467Y-40057548D01*
X92563467Y-40057548D02*
X92658705Y-40105167D01*
X92658705Y-40105167D02*
X92706324Y-40152786D01*
X92706324Y-40152786D02*
X92753943Y-40248024D01*
X92753943Y-40248024D02*
X92753943Y-40343262D01*
X92753943Y-40343262D02*
X92706324Y-40486119D01*
X92706324Y-40486119D02*
X92134896Y-41057548D01*
X92134896Y-41057548D02*
X92753943Y-41057548D01*
X93182515Y-40962309D02*
X93230134Y-41009929D01*
X93230134Y-41009929D02*
X93182515Y-41057548D01*
X93182515Y-41057548D02*
X93134896Y-41009929D01*
X93134896Y-41009929D02*
X93182515Y-40962309D01*
X93182515Y-40962309D02*
X93182515Y-41057548D01*
X94087276Y-40057548D02*
X93896800Y-40057548D01*
X93896800Y-40057548D02*
X93801562Y-40105167D01*
X93801562Y-40105167D02*
X93753943Y-40152786D01*
X93753943Y-40152786D02*
X93658705Y-40295643D01*
X93658705Y-40295643D02*
X93611086Y-40486119D01*
X93611086Y-40486119D02*
X93611086Y-40867071D01*
X93611086Y-40867071D02*
X93658705Y-40962309D01*
X93658705Y-40962309D02*
X93706324Y-41009929D01*
X93706324Y-41009929D02*
X93801562Y-41057548D01*
X93801562Y-41057548D02*
X93992038Y-41057548D01*
X93992038Y-41057548D02*
X94087276Y-41009929D01*
X94087276Y-41009929D02*
X94134895Y-40962309D01*
X94134895Y-40962309D02*
X94182514Y-40867071D01*
X94182514Y-40867071D02*
X94182514Y-40628976D01*
X94182514Y-40628976D02*
X94134895Y-40533738D01*
X94134895Y-40533738D02*
X94087276Y-40486119D01*
X94087276Y-40486119D02*
X93992038Y-40438500D01*
X93992038Y-40438500D02*
X93801562Y-40438500D01*
X93801562Y-40438500D02*
X93706324Y-40486119D01*
X93706324Y-40486119D02*
X93658705Y-40533738D01*
X93658705Y-40533738D02*
X93611086Y-40628976D01*
X94468229Y-40057548D02*
X94801562Y-41057548D01*
X94801562Y-41057548D02*
X95134895Y-40057548D01*
X146551562Y-41307548D02*
X145980134Y-41307548D01*
X146265848Y-41307548D02*
X146265848Y-40307548D01*
X146265848Y-40307548D02*
X146170610Y-40450405D01*
X146170610Y-40450405D02*
X146075372Y-40545643D01*
X146075372Y-40545643D02*
X145980134Y-40593262D01*
X147408705Y-40307548D02*
X147218229Y-40307548D01*
X147218229Y-40307548D02*
X147122991Y-40355167D01*
X147122991Y-40355167D02*
X147075372Y-40402786D01*
X147075372Y-40402786D02*
X146980134Y-40545643D01*
X146980134Y-40545643D02*
X146932515Y-40736119D01*
X146932515Y-40736119D02*
X146932515Y-41117071D01*
X146932515Y-41117071D02*
X146980134Y-41212309D01*
X146980134Y-41212309D02*
X147027753Y-41259929D01*
X147027753Y-41259929D02*
X147122991Y-41307548D01*
X147122991Y-41307548D02*
X147313467Y-41307548D01*
X147313467Y-41307548D02*
X147408705Y-41259929D01*
X147408705Y-41259929D02*
X147456324Y-41212309D01*
X147456324Y-41212309D02*
X147503943Y-41117071D01*
X147503943Y-41117071D02*
X147503943Y-40878976D01*
X147503943Y-40878976D02*
X147456324Y-40783738D01*
X147456324Y-40783738D02*
X147408705Y-40736119D01*
X147408705Y-40736119D02*
X147313467Y-40688500D01*
X147313467Y-40688500D02*
X147122991Y-40688500D01*
X147122991Y-40688500D02*
X147027753Y-40736119D01*
X147027753Y-40736119D02*
X146980134Y-40783738D01*
X146980134Y-40783738D02*
X146932515Y-40878976D01*
X147932515Y-41212309D02*
X147980134Y-41259929D01*
X147980134Y-41259929D02*
X147932515Y-41307548D01*
X147932515Y-41307548D02*
X147884896Y-41259929D01*
X147884896Y-41259929D02*
X147932515Y-41212309D01*
X147932515Y-41212309D02*
X147932515Y-41307548D01*
X148551562Y-40736119D02*
X148456324Y-40688500D01*
X148456324Y-40688500D02*
X148408705Y-40640881D01*
X148408705Y-40640881D02*
X148361086Y-40545643D01*
X148361086Y-40545643D02*
X148361086Y-40498024D01*
X148361086Y-40498024D02*
X148408705Y-40402786D01*
X148408705Y-40402786D02*
X148456324Y-40355167D01*
X148456324Y-40355167D02*
X148551562Y-40307548D01*
X148551562Y-40307548D02*
X148742038Y-40307548D01*
X148742038Y-40307548D02*
X148837276Y-40355167D01*
X148837276Y-40355167D02*
X148884895Y-40402786D01*
X148884895Y-40402786D02*
X148932514Y-40498024D01*
X148932514Y-40498024D02*
X148932514Y-40545643D01*
X148932514Y-40545643D02*
X148884895Y-40640881D01*
X148884895Y-40640881D02*
X148837276Y-40688500D01*
X148837276Y-40688500D02*
X148742038Y-40736119D01*
X148742038Y-40736119D02*
X148551562Y-40736119D01*
X148551562Y-40736119D02*
X148456324Y-40783738D01*
X148456324Y-40783738D02*
X148408705Y-40831357D01*
X148408705Y-40831357D02*
X148361086Y-40926595D01*
X148361086Y-40926595D02*
X148361086Y-41117071D01*
X148361086Y-41117071D02*
X148408705Y-41212309D01*
X148408705Y-41212309D02*
X148456324Y-41259929D01*
X148456324Y-41259929D02*
X148551562Y-41307548D01*
X148551562Y-41307548D02*
X148742038Y-41307548D01*
X148742038Y-41307548D02*
X148837276Y-41259929D01*
X148837276Y-41259929D02*
X148884895Y-41212309D01*
X148884895Y-41212309D02*
X148932514Y-41117071D01*
X148932514Y-41117071D02*
X148932514Y-40926595D01*
X148932514Y-40926595D02*
X148884895Y-40831357D01*
X148884895Y-40831357D02*
X148837276Y-40783738D01*
X148837276Y-40783738D02*
X148742038Y-40736119D01*
X149218229Y-40307548D02*
X149551562Y-41307548D01*
X149551562Y-41307548D02*
X149884895Y-40307548D01*
X146706324Y-71890881D02*
X146706324Y-72557548D01*
X146468229Y-71509929D02*
X146230134Y-72224214D01*
X146230134Y-72224214D02*
X146849181Y-72224214D01*
X147230134Y-72462309D02*
X147277753Y-72509929D01*
X147277753Y-72509929D02*
X147230134Y-72557548D01*
X147230134Y-72557548D02*
X147182515Y-72509929D01*
X147182515Y-72509929D02*
X147230134Y-72462309D01*
X147230134Y-72462309D02*
X147230134Y-72557548D01*
X147658705Y-71652786D02*
X147706324Y-71605167D01*
X147706324Y-71605167D02*
X147801562Y-71557548D01*
X147801562Y-71557548D02*
X148039657Y-71557548D01*
X148039657Y-71557548D02*
X148134895Y-71605167D01*
X148134895Y-71605167D02*
X148182514Y-71652786D01*
X148182514Y-71652786D02*
X148230133Y-71748024D01*
X148230133Y-71748024D02*
X148230133Y-71843262D01*
X148230133Y-71843262D02*
X148182514Y-71986119D01*
X148182514Y-71986119D02*
X147611086Y-72557548D01*
X147611086Y-72557548D02*
X148230133Y-72557548D01*
X148515848Y-71557548D02*
X148849181Y-72557548D01*
X148849181Y-72557548D02*
X149182514Y-71557548D01*
X142777753Y-60426595D02*
X143539658Y-60426595D01*
D11*
X137863837Y-108028440D02*
X138578122Y-108028440D01*
X138578122Y-108028440D02*
X138720979Y-108076059D01*
X138720979Y-108076059D02*
X138816218Y-108171297D01*
X138816218Y-108171297D02*
X138863837Y-108314154D01*
X138863837Y-108314154D02*
X138863837Y-108409392D01*
X138863837Y-107028440D02*
X138863837Y-107599868D01*
X138863837Y-107314154D02*
X137863837Y-107314154D01*
X137863837Y-107314154D02*
X138006694Y-107409392D01*
X138006694Y-107409392D02*
X138101932Y-107504630D01*
X138101932Y-107504630D02*
X138149551Y-107599868D01*
X153023718Y-102766535D02*
X153023718Y-101623678D01*
X153023718Y-113766535D02*
X153023718Y-112623678D01*
X153595146Y-113195106D02*
X152452289Y-113195106D01*
D12*
X142160000Y-83390000D02*
X142160000Y-84810000D01*
X130440000Y-83390000D02*
X142160000Y-83390000D01*
X142160000Y-84810000D02*
X137660000Y-84810000D01*
X140250000Y-85650000D02*
X140250000Y-86250000D01*
X136550000Y-85700000D02*
X131050000Y-85700000D01*
X131050000Y-85700000D02*
X131050000Y-86200000D01*
X139650000Y-85950000D02*
X140250000Y-85650000D01*
X136550000Y-86200000D02*
X136550000Y-85700000D01*
X131050000Y-86200000D02*
X136550000Y-86200000D01*
X140250000Y-86250000D02*
X139650000Y-85950000D01*
X136550000Y-88200000D02*
X131050000Y-88200000D01*
X131050000Y-88200000D02*
X131050000Y-88700000D01*
X136550000Y-88700000D02*
X136550000Y-88200000D01*
X131050000Y-88700000D02*
X136550000Y-88700000D01*
X136550000Y-90700000D02*
X131050000Y-90700000D01*
X131050000Y-90700000D02*
X131050000Y-91200000D01*
X130440000Y-90950000D02*
X130440000Y-83390000D01*
X130440000Y-90950000D02*
X130440000Y-98510000D01*
X136550000Y-91200000D02*
X136550000Y-90700000D01*
X131050000Y-91200000D02*
X136550000Y-91200000D01*
X136550000Y-93200000D02*
X131050000Y-93200000D01*
X131050000Y-93200000D02*
X131050000Y-93700000D01*
X136550000Y-93700000D02*
X136550000Y-93200000D01*
X131050000Y-93700000D02*
X136550000Y-93700000D01*
X136550000Y-95700000D02*
X131050000Y-95700000D01*
X131050000Y-95700000D02*
X131050000Y-96200000D01*
X136550000Y-96200000D02*
X136550000Y-95700000D01*
X131050000Y-96200000D02*
X136550000Y-96200000D01*
X142160000Y-97090000D02*
X137660000Y-97090000D01*
X142160000Y-98510000D02*
X142160000Y-97090000D01*
X130440000Y-98510000D02*
X142160000Y-98510000D01*
D10*
X90223869Y-33685129D02*
X150723869Y-33685129D01*
X150723869Y-79185129D01*
X90223869Y-79185129D01*
X90223869Y-33685129D01*
D12*
X141799018Y-113345107D02*
X141799018Y-112755107D01*
X144019018Y-113345107D02*
X144019018Y-112755107D01*
X139699018Y-112755107D02*
X141799018Y-112755107D01*
X139699018Y-112755107D02*
X139699018Y-102635107D01*
X144019018Y-112755107D02*
X148919018Y-112755107D01*
X148919018Y-112755107D02*
X148919018Y-102635107D01*
X139699018Y-102635107D02*
X141799018Y-102635107D01*
X141799018Y-102635107D02*
X141799018Y-102045107D01*
X144019018Y-102635107D02*
X148919018Y-102635107D01*
X144019018Y-102635107D02*
X144019018Y-102045107D01*
X144019018Y-113345107D02*
G75*
G02*
X141799018Y-113345107I-1110000J0D01*
G01*
X141799018Y-102045107D02*
G75*
G02*
X144019018Y-102045107I1110000J0D01*
G01*
%LPC*%
D13*
X115996592Y-27990385D03*
X127981116Y-27996701D03*
D14*
X138150000Y-85950000D03*
D15*
X138150000Y-88450000D03*
X138150000Y-90950000D03*
X138150000Y-93450000D03*
X138150000Y-95950000D03*
D16*
X147723869Y-52685129D03*
X147723869Y-60685129D03*
X93223869Y-76185129D03*
X147723869Y-76185129D03*
D17*
X92723869Y-58685129D03*
D16*
X93223869Y-36685129D03*
X147723869Y-36685129D03*
D18*
X142909018Y-113195107D03*
X142909018Y-102195107D03*
D19*
X152909018Y-105195107D03*
D20*
X152909018Y-110195107D03*
%LPD*%
M02*
