%TF.GenerationSoftware,KiCad,Pcbnew,9.0.6*%
%TF.CreationDate,2025-12-09T13:46:12+01:00*%
%TF.ProjectId,front,66726f6e-742e-46b6-9963-61645f706362,rev?*%
%TF.SameCoordinates,Original*%
%TF.FileFunction,Legend,Top*%
%TF.FilePolarity,Positive*%
%FSLAX46Y46*%
G04 Gerber Fmt 4.6, Leading zero omitted, Abs format (unit mm)*
G04 Created by KiCad (PCBNEW 9.0.6) date 2025-12-09 13:46:12*
%MOMM*%
%LPD*%
G01*
G04 APERTURE LIST*
%ADD10C,0.300000*%
%ADD11C,0.000000*%
G04 APERTURE END LIST*
D10*
X222678572Y-40249757D02*
X222535715Y-40178328D01*
X222535715Y-40178328D02*
X222321429Y-40178328D01*
X222321429Y-40178328D02*
X222107143Y-40249757D01*
X222107143Y-40249757D02*
X221964286Y-40392614D01*
X221964286Y-40392614D02*
X221892857Y-40535471D01*
X221892857Y-40535471D02*
X221821429Y-40821185D01*
X221821429Y-40821185D02*
X221821429Y-41035471D01*
X221821429Y-41035471D02*
X221892857Y-41321185D01*
X221892857Y-41321185D02*
X221964286Y-41464042D01*
X221964286Y-41464042D02*
X222107143Y-41606900D01*
X222107143Y-41606900D02*
X222321429Y-41678328D01*
X222321429Y-41678328D02*
X222464286Y-41678328D01*
X222464286Y-41678328D02*
X222678572Y-41606900D01*
X222678572Y-41606900D02*
X222750000Y-41535471D01*
X222750000Y-41535471D02*
X222750000Y-41035471D01*
X222750000Y-41035471D02*
X222464286Y-41035471D01*
X223607143Y-40178328D02*
X223607143Y-40535471D01*
X223250000Y-40392614D02*
X223607143Y-40535471D01*
X223607143Y-40535471D02*
X223964286Y-40392614D01*
X223392857Y-40821185D02*
X223607143Y-40535471D01*
X223607143Y-40535471D02*
X223821429Y-40821185D01*
X224750000Y-40178328D02*
X224750000Y-40535471D01*
X224392857Y-40392614D02*
X224750000Y-40535471D01*
X224750000Y-40535471D02*
X225107143Y-40392614D01*
X224535714Y-40821185D02*
X224750000Y-40535471D01*
X224750000Y-40535471D02*
X224964286Y-40821185D01*
X225892857Y-40178328D02*
X225892857Y-40535471D01*
X225535714Y-40392614D02*
X225892857Y-40535471D01*
X225892857Y-40535471D02*
X226250000Y-40392614D01*
X225678571Y-40821185D02*
X225892857Y-40535471D01*
X225892857Y-40535471D02*
X226107143Y-40821185D01*
D11*
%TO.C,G\u002A\u002A\u002A*%
G36*
X223760517Y-58835658D02*
G01*
X223760583Y-59335237D01*
X223759686Y-59805733D01*
X223757918Y-60235329D01*
X223755372Y-60612207D01*
X223752139Y-60924549D01*
X223748311Y-61160538D01*
X223743980Y-61308357D01*
X223740955Y-61351442D01*
X223718716Y-61502966D01*
X223159250Y-61502966D01*
X222599783Y-61502966D01*
X222613769Y-58987182D01*
X222627754Y-56471398D01*
X223192796Y-56471398D01*
X223757839Y-56471398D01*
X223760517Y-58835658D01*
G37*
G36*
X210641316Y-58987182D02*
G01*
X210644146Y-59595238D01*
X210645181Y-60103357D01*
X210644257Y-60519219D01*
X210641211Y-60850501D01*
X210635879Y-61104884D01*
X210628096Y-61290044D01*
X210617699Y-61413661D01*
X210604523Y-61483413D01*
X210588405Y-61506979D01*
X210587502Y-61507083D01*
X210471606Y-61517001D01*
X210438983Y-61520537D01*
X210349763Y-61523074D01*
X210184476Y-61521523D01*
X209974590Y-61516263D01*
X209913770Y-61514234D01*
X209469277Y-61498596D01*
X209483262Y-58984997D01*
X209497246Y-56471398D01*
X210062288Y-56471398D01*
X210627330Y-56471398D01*
X210641316Y-58987182D01*
G37*
G36*
X228617129Y-56874366D02*
G01*
X228627270Y-57128063D01*
X228623476Y-57305030D01*
X228589908Y-57419034D01*
X228510730Y-57483844D01*
X228370104Y-57513228D01*
X228152192Y-57520951D01*
X227873551Y-57520763D01*
X227175000Y-57520763D01*
X227175000Y-59507448D01*
X227175000Y-61494134D01*
X226811758Y-61512003D01*
X226575345Y-61519032D01*
X226338404Y-61518778D01*
X226192902Y-61513471D01*
X225937288Y-61497069D01*
X225937288Y-59508916D01*
X225937288Y-57520763D01*
X225235763Y-57520763D01*
X224534238Y-57520763D01*
X224549640Y-56996080D01*
X224565042Y-56471398D01*
X226583051Y-56471398D01*
X228601059Y-56471398D01*
X228617129Y-56874366D01*
G37*
G36*
X222304873Y-48937500D02*
G01*
X222304873Y-49637076D01*
X220756083Y-49651357D01*
X219207294Y-49665639D01*
X219222397Y-50324027D01*
X219237500Y-50982415D01*
X220555932Y-51009322D01*
X221874364Y-51036229D01*
X221874364Y-51708898D01*
X221874364Y-52381568D01*
X220540966Y-52395964D01*
X219207568Y-52410361D01*
X219222534Y-53149354D01*
X219237500Y-53888347D01*
X220771186Y-53915254D01*
X222304873Y-53942161D01*
X222304873Y-54614830D01*
X222304873Y-55287500D01*
X219922149Y-55301514D01*
X219329409Y-55304396D01*
X218836377Y-55305332D01*
X218435148Y-55304148D01*
X218117818Y-55300665D01*
X217876483Y-55294709D01*
X217703237Y-55286100D01*
X217590176Y-55274665D01*
X217529395Y-55260225D01*
X217513501Y-55247701D01*
X217509220Y-55183403D01*
X217505583Y-55020685D01*
X217502622Y-54768754D01*
X217500368Y-54436814D01*
X217498852Y-54034073D01*
X217498106Y-53569734D01*
X217498161Y-53053005D01*
X217499047Y-52493091D01*
X217500796Y-51899198D01*
X217501522Y-51708898D01*
X217515466Y-48237924D01*
X219910169Y-48237924D01*
X222304873Y-48237924D01*
X222304873Y-48937500D01*
G37*
G36*
X218255684Y-56745728D02*
G01*
X218383200Y-56913496D01*
X218552259Y-57135377D01*
X218738968Y-57380035D01*
X218887712Y-57574664D01*
X219080536Y-57826842D01*
X219310376Y-58127530D01*
X219548932Y-58439700D01*
X219767901Y-58726320D01*
X219775635Y-58736446D01*
X220259958Y-59370529D01*
X220286864Y-57920963D01*
X220313771Y-56471398D01*
X220878813Y-56471398D01*
X221443856Y-56471398D01*
X221457859Y-58943582D01*
X221459943Y-59499007D01*
X221459722Y-60002685D01*
X221457316Y-60446045D01*
X221452845Y-60820516D01*
X221446431Y-61117528D01*
X221438193Y-61328510D01*
X221428251Y-61444892D01*
X221422463Y-61465164D01*
X221346140Y-61494996D01*
X221196653Y-61523402D01*
X221031765Y-61541875D01*
X220829371Y-61551729D01*
X220699341Y-61537714D01*
X220608006Y-61494431D01*
X220576011Y-61468810D01*
X220501060Y-61389004D01*
X220378034Y-61242643D01*
X220223094Y-61049529D01*
X220052400Y-60829464D01*
X220026771Y-60795795D01*
X219836290Y-60546019D01*
X219603909Y-60242983D01*
X219353931Y-59918285D01*
X219110656Y-59603525D01*
X219011141Y-59475213D01*
X218815079Y-59221923D01*
X218636386Y-58989539D01*
X218487976Y-58794975D01*
X218382762Y-58655143D01*
X218338945Y-58594884D01*
X218312301Y-58561087D01*
X218291367Y-58552926D01*
X218275427Y-58580955D01*
X218263765Y-58655728D01*
X218255665Y-58787799D01*
X218250411Y-58987722D01*
X218247287Y-59266052D01*
X218245575Y-59633342D01*
X218244772Y-59982733D01*
X218241949Y-61502966D01*
X217676907Y-61502966D01*
X217111864Y-61502966D01*
X217111864Y-58973729D01*
X217111864Y-56444491D01*
X217569562Y-56444491D01*
X218027259Y-56444491D01*
X218255684Y-56745728D01*
G37*
G36*
X231881688Y-56386271D02*
G01*
X232024785Y-56414267D01*
X232532715Y-56571335D01*
X232972857Y-56809795D01*
X233340970Y-57124176D01*
X233632813Y-57509007D01*
X233844146Y-57958814D01*
X233970727Y-58468126D01*
X234008683Y-58973900D01*
X233964856Y-59531000D01*
X233831160Y-60029243D01*
X233606732Y-60470282D01*
X233290706Y-60855772D01*
X232882221Y-61187367D01*
X232837450Y-61216853D01*
X232485297Y-61392979D01*
X232067455Y-61519125D01*
X231615779Y-61590798D01*
X231162122Y-61603507D01*
X230738336Y-61552761D01*
X230633304Y-61527635D01*
X230136326Y-61343934D01*
X229712064Y-61082509D01*
X229363781Y-60747851D01*
X229094735Y-60344450D01*
X228908189Y-59876798D01*
X228807402Y-59349386D01*
X228790043Y-59000635D01*
X230054025Y-59000635D01*
X230057661Y-59245237D01*
X230073528Y-59418469D01*
X230109071Y-59556485D01*
X230171733Y-59695434D01*
X230212719Y-59771437D01*
X230436513Y-60081225D01*
X230717089Y-60317467D01*
X231011542Y-60456366D01*
X231281711Y-60518360D01*
X231534779Y-60519410D01*
X231820818Y-60459110D01*
X231853623Y-60449554D01*
X232170793Y-60301513D01*
X232439701Y-60069236D01*
X232641879Y-59771908D01*
X232733847Y-59535206D01*
X232806687Y-59199429D01*
X232817130Y-58899814D01*
X232765352Y-58584953D01*
X232737414Y-58478779D01*
X232600523Y-58160219D01*
X232387819Y-57869642D01*
X232125442Y-57639524D01*
X232003633Y-57567134D01*
X231801863Y-57499799D01*
X231543904Y-57461446D01*
X231274335Y-57454487D01*
X231037733Y-57481334D01*
X230941949Y-57509687D01*
X230629057Y-57688984D01*
X230365406Y-57944377D01*
X230197327Y-58210617D01*
X230124290Y-58383605D01*
X230080810Y-58543950D01*
X230059767Y-58730916D01*
X230054038Y-58983768D01*
X230054025Y-59000635D01*
X228790043Y-59000635D01*
X228789407Y-58987865D01*
X228836514Y-58436031D01*
X228974394Y-57934458D01*
X229197886Y-57489718D01*
X229501829Y-57108384D01*
X229881061Y-56797029D01*
X230330422Y-56562223D01*
X230807415Y-56418172D01*
X231188532Y-56355732D01*
X231528826Y-56345155D01*
X231881688Y-56386271D01*
G37*
G36*
X214688166Y-56400189D02*
G01*
X215137053Y-56512638D01*
X215541567Y-56684933D01*
X215860699Y-56898377D01*
X215968917Y-57003556D01*
X216029454Y-57089291D01*
X216034190Y-57108491D01*
X216002872Y-57176112D01*
X215919862Y-57306637D01*
X215799636Y-57478087D01*
X215719335Y-57586588D01*
X215405882Y-58002201D01*
X215289439Y-57878253D01*
X215059118Y-57701306D01*
X214759657Y-57569214D01*
X214422454Y-57488427D01*
X214078911Y-57465392D01*
X213760428Y-57506560D01*
X213649618Y-57541476D01*
X213379128Y-57694087D01*
X213131285Y-57924930D01*
X212936260Y-58204876D01*
X212910727Y-58254846D01*
X212835805Y-58488162D01*
X212794995Y-58782940D01*
X212789943Y-59098031D01*
X212822295Y-59392284D01*
X212859367Y-59538771D01*
X213026886Y-59891597D01*
X213264615Y-60170993D01*
X213559177Y-60371329D01*
X213897198Y-60486979D01*
X214265302Y-60512312D01*
X214650113Y-60441702D01*
X214838241Y-60371460D01*
X215066949Y-60271306D01*
X215066949Y-59972305D01*
X215066949Y-59673305D01*
X214616532Y-59673305D01*
X214166116Y-59673305D01*
X214140212Y-59443491D01*
X214129987Y-59252992D01*
X214132784Y-59023521D01*
X214139972Y-58904218D01*
X214165635Y-58594757D01*
X215194788Y-58609349D01*
X216223941Y-58623941D01*
X216223941Y-59738287D01*
X216224938Y-60115386D01*
X216223982Y-60401317D01*
X216215151Y-60612466D01*
X216192524Y-60765218D01*
X216150181Y-60875959D01*
X216082198Y-60961074D01*
X215982656Y-61036950D01*
X215845633Y-61119972D01*
X215691969Y-61210379D01*
X215471569Y-61326847D01*
X215230864Y-61430406D01*
X215073113Y-61483471D01*
X214879903Y-61522250D01*
X214622984Y-61554669D01*
X214335731Y-61578607D01*
X214051521Y-61591942D01*
X213803727Y-61592555D01*
X213625726Y-61578324D01*
X213613983Y-61576187D01*
X213202891Y-61454933D01*
X212796389Y-61261468D01*
X212429566Y-61015415D01*
X212160879Y-60763554D01*
X211897762Y-60399837D01*
X211713383Y-59990646D01*
X211603727Y-59523434D01*
X211564775Y-58985654D01*
X211564757Y-58901279D01*
X211614900Y-58346319D01*
X211753869Y-57850767D01*
X211978332Y-57418441D01*
X212284954Y-57053157D01*
X212670404Y-56758733D01*
X213131349Y-56538986D01*
X213664454Y-56397734D01*
X213764884Y-56381375D01*
X214221808Y-56354223D01*
X214688166Y-56400189D01*
G37*
G36*
X236468907Y-56473553D02*
G01*
X236845029Y-56482041D01*
X237144003Y-56499899D01*
X237381044Y-56530162D01*
X237571365Y-56575868D01*
X237730183Y-56640053D01*
X237872710Y-56725752D01*
X238014162Y-56836003D01*
X238070218Y-56884458D01*
X238329404Y-57167151D01*
X238491926Y-57481418D01*
X238568176Y-57847747D01*
X238570094Y-57870081D01*
X238563153Y-58320548D01*
X238466718Y-58715560D01*
X238282261Y-59051816D01*
X238011256Y-59326015D01*
X237880355Y-59416706D01*
X237737707Y-59509474D01*
X237641325Y-59579988D01*
X237614830Y-59607730D01*
X237639450Y-59667740D01*
X237715024Y-59798740D01*
X237844127Y-60004818D01*
X238029332Y-60290064D01*
X238273214Y-60658568D01*
X238328090Y-60740870D01*
X238488491Y-60984449D01*
X238623280Y-61195409D01*
X238722908Y-61358287D01*
X238777828Y-61457622D01*
X238785033Y-61480786D01*
X238725705Y-61491029D01*
X238580740Y-61502440D01*
X238372097Y-61513608D01*
X238128403Y-61522917D01*
X237493911Y-61542910D01*
X237310131Y-61240417D01*
X237202177Y-61061248D01*
X237061716Y-60826069D01*
X236910697Y-60571702D01*
X236825038Y-60426695D01*
X236696158Y-60211638D01*
X236581496Y-60026866D01*
X236495284Y-59894930D01*
X236456704Y-59842950D01*
X236364991Y-59795804D01*
X236212363Y-59761931D01*
X236141240Y-59754797D01*
X235892796Y-59739159D01*
X235892796Y-60613748D01*
X235892796Y-61488337D01*
X235643125Y-61522558D01*
X235473951Y-61541302D01*
X235340284Y-61548423D01*
X235306790Y-61547080D01*
X235202805Y-61537160D01*
X235040981Y-61523389D01*
X234963982Y-61517203D01*
X234707838Y-61497026D01*
X234721821Y-58984212D01*
X234723077Y-58758474D01*
X235889381Y-58758474D01*
X236361957Y-58757681D01*
X236602917Y-58749635D01*
X236807923Y-58728714D01*
X236944963Y-58698496D01*
X236963880Y-58690414D01*
X237151206Y-58542642D01*
X237270391Y-58343342D01*
X237316781Y-58119592D01*
X237285725Y-57898471D01*
X237172568Y-57707056D01*
X237138588Y-57673746D01*
X237004114Y-57580489D01*
X236834604Y-57523710D01*
X236637215Y-57493999D01*
X236421604Y-57477201D01*
X236219194Y-57471567D01*
X236108051Y-57475782D01*
X235919703Y-57493856D01*
X235904542Y-58126165D01*
X235889381Y-58758474D01*
X234723077Y-58758474D01*
X234735805Y-56471398D01*
X236000424Y-56471398D01*
X236468907Y-56473553D01*
G37*
G36*
X236782820Y-48211911D02*
G01*
X237029018Y-48218860D01*
X237188338Y-48238264D01*
X237271154Y-48276523D01*
X237287840Y-48340037D01*
X237248771Y-48435205D01*
X237164321Y-48568429D01*
X237121497Y-48631829D01*
X237038809Y-48748947D01*
X236901847Y-48937152D01*
X236721503Y-49181876D01*
X236508672Y-49468552D01*
X236274244Y-49782610D01*
X236029113Y-50109483D01*
X235784171Y-50434602D01*
X235550311Y-50743400D01*
X235338425Y-51021307D01*
X235209679Y-51188798D01*
X234925665Y-51556622D01*
X235072896Y-51753045D01*
X235146486Y-51849726D01*
X235275148Y-52017172D01*
X235447909Y-52241170D01*
X235653796Y-52507504D01*
X235881836Y-52801960D01*
X236056012Y-53026534D01*
X236434303Y-53514308D01*
X236751457Y-53924209D01*
X237012590Y-54263187D01*
X237222815Y-54538191D01*
X237387246Y-54756168D01*
X237510999Y-54924068D01*
X237599186Y-55048839D01*
X237656923Y-55137429D01*
X237689324Y-55196787D01*
X237701503Y-55233862D01*
X237698574Y-55255602D01*
X237697729Y-55257069D01*
X237628665Y-55280245D01*
X237456519Y-55297650D01*
X237185695Y-55309031D01*
X236820595Y-55314136D01*
X236699152Y-55314407D01*
X235736012Y-55314407D01*
X235278296Y-54709004D01*
X235100870Y-54473484D01*
X234878128Y-54176517D01*
X234628803Y-53843152D01*
X234371627Y-53498438D01*
X234125331Y-53167425D01*
X234105524Y-53140757D01*
X233390466Y-52177913D01*
X233363559Y-53732706D01*
X233336652Y-55287500D01*
X232514847Y-55302361D01*
X232181017Y-55306175D01*
X231941914Y-55303136D01*
X231784811Y-55292439D01*
X231696978Y-55273274D01*
X231666793Y-55248548D01*
X231662454Y-55184100D01*
X231658764Y-55021235D01*
X231655754Y-54769163D01*
X231653455Y-54437091D01*
X231651901Y-54034229D01*
X231651122Y-53569785D01*
X231651152Y-53052969D01*
X231652022Y-52492987D01*
X231653764Y-51899051D01*
X231654488Y-51708898D01*
X231668432Y-48237924D01*
X232502542Y-48237924D01*
X233336652Y-48237924D01*
X233350999Y-49650530D01*
X233356267Y-50027611D01*
X233363763Y-50366575D01*
X233372951Y-50653390D01*
X233383296Y-50874026D01*
X233394262Y-51014453D01*
X233404813Y-51060783D01*
X233445455Y-51018758D01*
X233542639Y-50900558D01*
X233688524Y-50716253D01*
X233875266Y-50475913D01*
X234095021Y-50189608D01*
X234339948Y-49867407D01*
X234515535Y-49634724D01*
X235586791Y-48211017D01*
X236439370Y-48211017D01*
X236782820Y-48211911D01*
G37*
G36*
X213091711Y-48212113D02*
G01*
X213530230Y-48216372D01*
X213888120Y-48225247D01*
X214178871Y-48240192D01*
X214415975Y-48262661D01*
X214612924Y-48294108D01*
X214783210Y-48335986D01*
X214940325Y-48389751D01*
X215097760Y-48456856D01*
X215174576Y-48492878D01*
X215335408Y-48590696D01*
X215527468Y-48737447D01*
X215710093Y-48901968D01*
X215715776Y-48907627D01*
X215996576Y-49261349D01*
X216195967Y-49668189D01*
X216313867Y-50110766D01*
X216350189Y-50571700D01*
X216304852Y-51033610D01*
X216177769Y-51479115D01*
X215968858Y-51890835D01*
X215731700Y-52196119D01*
X215491215Y-52428507D01*
X215242662Y-52611870D01*
X214969030Y-52752040D01*
X214653309Y-52854851D01*
X214278489Y-52926137D01*
X213827559Y-52971731D01*
X213406920Y-52993400D01*
X212473373Y-53027330D01*
X212465182Y-54157415D01*
X212456991Y-55287500D01*
X211642617Y-55302321D01*
X211325670Y-55306779D01*
X211100209Y-55305851D01*
X210950168Y-55298179D01*
X210859480Y-55282404D01*
X210812079Y-55257167D01*
X210795053Y-55230653D01*
X210788670Y-55161172D01*
X210782981Y-54995290D01*
X210777987Y-54744231D01*
X210773689Y-54419216D01*
X210770089Y-54031468D01*
X210767186Y-53592212D01*
X210764981Y-53112670D01*
X210763476Y-52604064D01*
X210762672Y-52077618D01*
X210762569Y-51544555D01*
X210763168Y-51016097D01*
X210764232Y-50596751D01*
X210764469Y-50503469D01*
X210766475Y-50017892D01*
X210768619Y-49663983D01*
X212430085Y-49663983D01*
X212430085Y-50596751D01*
X212432060Y-50903269D01*
X212437536Y-51171638D01*
X212445839Y-51383654D01*
X212456294Y-51521116D01*
X212465960Y-51565395D01*
X212540770Y-51586384D01*
X212698063Y-51599127D01*
X212913057Y-51604218D01*
X213160973Y-51602249D01*
X213417029Y-51593813D01*
X213656445Y-51579501D01*
X213854439Y-51559906D01*
X213986231Y-51535620D01*
X214006700Y-51528567D01*
X214201594Y-51405185D01*
X214380631Y-51220588D01*
X214512466Y-51011960D01*
X214559686Y-50872577D01*
X214578958Y-50579977D01*
X214535194Y-50295871D01*
X214435321Y-50061653D01*
X214420221Y-50039322D01*
X214299682Y-49900050D01*
X214153934Y-49798501D01*
X213965290Y-49729491D01*
X213716063Y-49687841D01*
X213388565Y-49668367D01*
X213143114Y-49665165D01*
X212430085Y-49663983D01*
X210768619Y-49663983D01*
X210769185Y-49570589D01*
X210772600Y-49172784D01*
X210776722Y-48835700D01*
X210781551Y-48570560D01*
X210787088Y-48388586D01*
X210793334Y-48301001D01*
X210794529Y-48296138D01*
X210813619Y-48272447D01*
X210857973Y-48253537D01*
X210938443Y-48238886D01*
X211065880Y-48227968D01*
X211251134Y-48220262D01*
X211505058Y-48215244D01*
X211838503Y-48212389D01*
X212262320Y-48211175D01*
X212559070Y-48211017D01*
X213091711Y-48212113D01*
G37*
G36*
X227078801Y-48223278D02*
G01*
X228047514Y-48237924D01*
X228447743Y-49287288D01*
X228572624Y-49614861D01*
X228688653Y-49919487D01*
X228788801Y-50182693D01*
X228866042Y-50386009D01*
X228913348Y-50510962D01*
X228918627Y-50525000D01*
X228959625Y-50633499D01*
X229031678Y-50823372D01*
X229127492Y-51075433D01*
X229239773Y-51370493D01*
X229361227Y-51689363D01*
X229368671Y-51708898D01*
X229644100Y-52432530D01*
X229882530Y-53060955D01*
X230085854Y-53599324D01*
X230255965Y-54052783D01*
X230394755Y-54426483D01*
X230504118Y-54725571D01*
X230585946Y-54955197D01*
X230642133Y-55120508D01*
X230674570Y-55226653D01*
X230685152Y-55278781D01*
X230683672Y-55285678D01*
X230622704Y-55295486D01*
X230473097Y-55303854D01*
X230253837Y-55310160D01*
X229983909Y-55313781D01*
X229807606Y-55314407D01*
X228960269Y-55314407D01*
X228789529Y-54870445D01*
X228695339Y-54624977D01*
X228600689Y-54377399D01*
X228523383Y-54174304D01*
X228511542Y-54143047D01*
X228404294Y-53859610D01*
X227057707Y-53873979D01*
X225711119Y-53888347D01*
X225431188Y-54587924D01*
X225151256Y-55287500D01*
X224337496Y-55302333D01*
X224052500Y-55304485D01*
X223807080Y-55300572D01*
X223620656Y-55291357D01*
X223512653Y-55277602D01*
X223494116Y-55269242D01*
X223497487Y-55233316D01*
X223522058Y-55144485D01*
X223569370Y-54998568D01*
X223640962Y-54791382D01*
X223738373Y-54518743D01*
X223863142Y-54176470D01*
X224016808Y-53760378D01*
X224200911Y-53266285D01*
X224416989Y-52690008D01*
X224545076Y-52349951D01*
X226272465Y-52349951D01*
X226297809Y-52375302D01*
X226366501Y-52392089D01*
X226493497Y-52402047D01*
X226693754Y-52406911D01*
X226982229Y-52408418D01*
X227087218Y-52408474D01*
X227926819Y-52408474D01*
X227826566Y-52152860D01*
X227773652Y-52014604D01*
X227692736Y-51799066D01*
X227592693Y-51530078D01*
X227482402Y-51231468D01*
X227414913Y-51047757D01*
X227310116Y-50770727D01*
X227215287Y-50536560D01*
X227137233Y-50360780D01*
X227082762Y-50258913D01*
X227061038Y-50240742D01*
X227032980Y-50298926D01*
X226974993Y-50439595D01*
X226894120Y-50644154D01*
X226797405Y-50894011D01*
X226691892Y-51170572D01*
X226584623Y-51455245D01*
X226482644Y-51729436D01*
X226392997Y-51974551D01*
X226322726Y-52171998D01*
X226278874Y-52303184D01*
X226275511Y-52314301D01*
X226272465Y-52349951D01*
X224545076Y-52349951D01*
X224666583Y-52027365D01*
X224951230Y-51274173D01*
X225272471Y-50426248D01*
X225398324Y-50094491D01*
X225548812Y-49697758D01*
X225689052Y-49327742D01*
X225813920Y-48997983D01*
X225918295Y-48722020D01*
X225997055Y-48513390D01*
X226045076Y-48385633D01*
X226055410Y-48357812D01*
X226110088Y-48208633D01*
X227078801Y-48223278D01*
G37*
G36*
X224247244Y-16970154D02*
G01*
X224307794Y-16987403D01*
X224335127Y-17058521D01*
X224362131Y-17233326D01*
X224388581Y-17507879D01*
X224414255Y-17878239D01*
X224438926Y-18340467D01*
X224462372Y-18890622D01*
X224484368Y-19524765D01*
X224504690Y-20238956D01*
X224513681Y-20604661D01*
X224523493Y-21001443D01*
X224533576Y-21369945D01*
X224543420Y-21694365D01*
X224552516Y-21958899D01*
X224560356Y-22147744D01*
X224566430Y-22245096D01*
X224566527Y-22245974D01*
X224579143Y-22406567D01*
X224587439Y-22600181D01*
X224588317Y-22642312D01*
X224591949Y-22877209D01*
X224729965Y-22786777D01*
X224803562Y-22730217D01*
X224947481Y-22612282D01*
X225150805Y-22442188D01*
X225402616Y-22229152D01*
X225691994Y-21982392D01*
X226008022Y-21711125D01*
X226187496Y-21556329D01*
X226650071Y-21157045D01*
X227038628Y-20822751D01*
X227360305Y-20547742D01*
X227622239Y-20326315D01*
X227831567Y-20152766D01*
X227995426Y-20021393D01*
X228120955Y-19926492D01*
X228215290Y-19862360D01*
X228285568Y-19823292D01*
X228338928Y-19803587D01*
X228382506Y-19797539D01*
X228388586Y-19797457D01*
X228544642Y-19844451D01*
X228671886Y-19961616D01*
X228734092Y-20113226D01*
X228735593Y-20139672D01*
X228730027Y-20192457D01*
X228708725Y-20253522D01*
X228664782Y-20331341D01*
X228591295Y-20434391D01*
X228481359Y-20571144D01*
X228328069Y-20750078D01*
X228124521Y-20979665D01*
X227863811Y-21268382D01*
X227539033Y-21624703D01*
X227417161Y-21757978D01*
X226990218Y-22225972D01*
X226632765Y-22620960D01*
X226340372Y-22948161D01*
X226108605Y-23212792D01*
X225933033Y-23420072D01*
X225809225Y-23575220D01*
X225732749Y-23683453D01*
X225699172Y-23749992D01*
X225701539Y-23778149D01*
X225734631Y-23793031D01*
X225808264Y-23809031D01*
X225930148Y-23826877D01*
X226107989Y-23847299D01*
X226349498Y-23871024D01*
X226662383Y-23898780D01*
X227054352Y-23931296D01*
X227533115Y-23969300D01*
X228106381Y-24013521D01*
X228546674Y-24046951D01*
X228960717Y-24078482D01*
X229280961Y-24104238D01*
X229520934Y-24126480D01*
X229694166Y-24147468D01*
X229814184Y-24169461D01*
X229894516Y-24194721D01*
X229948691Y-24225506D01*
X229990236Y-24264077D01*
X230015047Y-24292267D01*
X230099782Y-24453187D01*
X230087121Y-24607951D01*
X229986918Y-24741398D01*
X229809025Y-24838368D01*
X229634651Y-24877547D01*
X229527748Y-24887254D01*
X229327744Y-24902233D01*
X229048984Y-24921531D01*
X228705813Y-24944195D01*
X228312576Y-24969273D01*
X227883620Y-24995812D01*
X227559813Y-25015342D01*
X227122389Y-25042459D01*
X226717728Y-25069498D01*
X226358742Y-25095445D01*
X226058343Y-25119288D01*
X225829444Y-25140013D01*
X225684958Y-25156606D01*
X225639072Y-25166080D01*
X225635827Y-25207334D01*
X225690073Y-25300850D01*
X225806307Y-25452445D01*
X225989029Y-25667939D01*
X226242737Y-25953148D01*
X226276716Y-25990733D01*
X226759252Y-26526095D01*
X227179378Y-26997150D01*
X227535295Y-27401795D01*
X227825201Y-27737931D01*
X228047295Y-28003453D01*
X228199778Y-28196262D01*
X228280847Y-28314255D01*
X228294180Y-28345330D01*
X228271600Y-28490142D01*
X228173045Y-28603341D01*
X228028746Y-28670751D01*
X227868934Y-28678197D01*
X227724806Y-28612322D01*
X227656310Y-28554805D01*
X227519514Y-28440079D01*
X227328620Y-28280050D01*
X227097829Y-28086623D01*
X226841345Y-27871703D01*
X226802017Y-27838752D01*
X226495233Y-27580834D01*
X226167266Y-27303609D01*
X225845645Y-27030446D01*
X225557897Y-26784710D01*
X225375958Y-26628217D01*
X225157355Y-26442350D01*
X224961300Y-26281316D01*
X224804977Y-26158813D01*
X224705570Y-26088540D01*
X224686123Y-26078317D01*
X224653104Y-26072886D01*
X224628608Y-26093858D01*
X224611197Y-26154894D01*
X224599434Y-26269658D01*
X224591881Y-26451813D01*
X224587100Y-26715022D01*
X224583834Y-27050524D01*
X224580293Y-27452750D01*
X224579164Y-27763085D01*
X224583724Y-27997261D01*
X224597255Y-28171009D01*
X224623036Y-28300063D01*
X224664346Y-28400154D01*
X224724465Y-28487014D01*
X224806673Y-28576376D01*
X224914250Y-28683972D01*
X224927042Y-28696859D01*
X225037314Y-28813468D01*
X225207661Y-29000372D01*
X225428093Y-29246171D01*
X225688619Y-29539463D01*
X225979246Y-29868847D01*
X226289986Y-30222922D01*
X226610845Y-30590287D01*
X226931834Y-30959542D01*
X227242961Y-31319284D01*
X227534236Y-31658113D01*
X227795667Y-31964628D01*
X227933007Y-32127053D01*
X228286700Y-32547228D01*
X228649063Y-32978005D01*
X229012584Y-33410430D01*
X229369751Y-33835548D01*
X229713051Y-34244407D01*
X230034973Y-34628052D01*
X230328004Y-34977530D01*
X230584633Y-35283887D01*
X230797346Y-35538169D01*
X230958632Y-35731422D01*
X231060978Y-35854694D01*
X231082864Y-35881338D01*
X231126326Y-35855571D01*
X231230824Y-35769864D01*
X231379501Y-35638546D01*
X231514002Y-35514876D01*
X231767213Y-35286366D01*
X231965371Y-35129099D01*
X232124766Y-35033731D01*
X232261685Y-34990917D01*
X232392414Y-34991313D01*
X232418933Y-34995696D01*
X232484933Y-35010941D01*
X232547614Y-35036409D01*
X232615795Y-35081432D01*
X232698296Y-35155342D01*
X232803938Y-35267471D01*
X232941540Y-35427150D01*
X233119923Y-35643712D01*
X233347904Y-35926489D01*
X233618023Y-36264407D01*
X234217210Y-37012441D01*
X234826914Y-37768349D01*
X235422785Y-38502053D01*
X235980470Y-39183474D01*
X236037887Y-39253276D01*
X236325184Y-39602913D01*
X236665420Y-40017891D01*
X237043710Y-40479984D01*
X237445168Y-40970968D01*
X237854909Y-41472616D01*
X238258047Y-41966704D01*
X238639697Y-42435005D01*
X238984973Y-42859294D01*
X239278990Y-43221345D01*
X239309958Y-43259542D01*
X239669421Y-43702606D01*
X239967553Y-44068903D01*
X240210450Y-44365550D01*
X240404211Y-44599665D01*
X240554934Y-44778367D01*
X240668716Y-44908773D01*
X240751657Y-44998002D01*
X240809853Y-45053170D01*
X240849402Y-45081397D01*
X240876403Y-45089801D01*
X240877967Y-45089830D01*
X240888234Y-45076289D01*
X240897531Y-45032470D01*
X240905903Y-44953582D01*
X240913394Y-44834832D01*
X240920051Y-44671428D01*
X240925917Y-44458578D01*
X240931040Y-44191491D01*
X240935463Y-43865373D01*
X240939232Y-43475434D01*
X240942392Y-43016881D01*
X240944989Y-42484921D01*
X240947068Y-41874764D01*
X240948673Y-41181616D01*
X240949851Y-40400685D01*
X240950646Y-39527181D01*
X240951103Y-38556309D01*
X240951269Y-37483280D01*
X240951271Y-37323357D01*
X240951403Y-36231126D01*
X240951635Y-35241288D01*
X240951719Y-34348609D01*
X240951410Y-33547856D01*
X240950459Y-32833796D01*
X240948621Y-32201195D01*
X240945649Y-31644819D01*
X240941295Y-31159436D01*
X240935313Y-30739811D01*
X240927457Y-30380711D01*
X240917479Y-30076903D01*
X240905133Y-29823153D01*
X240890171Y-29614227D01*
X240872347Y-29444892D01*
X240851415Y-29309915D01*
X240827127Y-29204062D01*
X240799236Y-29122100D01*
X240767497Y-29058794D01*
X240731661Y-29008912D01*
X240691483Y-28967221D01*
X240646715Y-28928485D01*
X240597110Y-28887473D01*
X240551571Y-28847477D01*
X240326793Y-28679518D01*
X240078873Y-28583646D01*
X240030859Y-28572467D01*
X239941083Y-28560676D01*
X239785119Y-28550358D01*
X239558767Y-28541467D01*
X239257826Y-28533959D01*
X238878097Y-28527786D01*
X238415378Y-28522903D01*
X237865471Y-28519266D01*
X237224173Y-28516827D01*
X236487287Y-28515541D01*
X235650610Y-28515364D01*
X234843432Y-28516068D01*
X234125972Y-28516953D01*
X233438798Y-28517725D01*
X232789592Y-28518378D01*
X232186035Y-28518910D01*
X231635809Y-28519315D01*
X231146596Y-28519589D01*
X230726079Y-28519729D01*
X230381938Y-28519729D01*
X230121857Y-28519586D01*
X229953516Y-28519295D01*
X229884598Y-28518852D01*
X229883714Y-28518816D01*
X229821905Y-28476250D01*
X229722297Y-28368644D01*
X229616490Y-28232733D01*
X229478746Y-28047303D01*
X229308138Y-27824362D01*
X229139822Y-27609805D01*
X229127585Y-27594472D01*
X228998051Y-27428624D01*
X228899420Y-27295105D01*
X228847462Y-27215551D01*
X228843220Y-27204324D01*
X228895864Y-27199642D01*
X229049113Y-27195147D01*
X229295946Y-27190883D01*
X229629343Y-27186893D01*
X230042281Y-27183218D01*
X230527740Y-27179901D01*
X231078699Y-27176986D01*
X231688135Y-27174514D01*
X232349029Y-27172529D01*
X233054358Y-27171072D01*
X233797101Y-27170188D01*
X234509245Y-27169915D01*
X235438211Y-27169891D01*
X236265939Y-27170014D01*
X236998819Y-27170575D01*
X237643239Y-27171869D01*
X238205589Y-27174186D01*
X238692257Y-27177820D01*
X239109634Y-27183064D01*
X239464107Y-27190208D01*
X239762067Y-27199547D01*
X240009903Y-27211372D01*
X240214003Y-27225976D01*
X240380757Y-27243651D01*
X240516554Y-27264690D01*
X240627783Y-27289385D01*
X240720834Y-27318029D01*
X240802095Y-27350915D01*
X240877956Y-27388333D01*
X240954805Y-27430578D01*
X241021205Y-27467998D01*
X241359762Y-27707718D01*
X241669846Y-28021430D01*
X241930503Y-28381801D01*
X242120780Y-28761499D01*
X242195376Y-28999576D01*
X242200234Y-29073953D01*
X242204840Y-29250868D01*
X242209195Y-29525233D01*
X242213300Y-29891961D01*
X242217156Y-30345964D01*
X242220764Y-30882152D01*
X242224123Y-31495437D01*
X242227236Y-32180733D01*
X242230103Y-32932950D01*
X242232725Y-33747000D01*
X242235102Y-34617795D01*
X242237236Y-35540248D01*
X242239126Y-36509269D01*
X242240774Y-37519771D01*
X242242181Y-38566665D01*
X242243348Y-39644863D01*
X242244274Y-40749278D01*
X242244961Y-41874820D01*
X242245411Y-43016402D01*
X242245622Y-44168936D01*
X242245597Y-45327333D01*
X242245336Y-46486505D01*
X242244840Y-47641365D01*
X242244110Y-48786823D01*
X242243146Y-49917792D01*
X242241949Y-51029184D01*
X242240520Y-52115910D01*
X242238860Y-53172882D01*
X242236969Y-54195012D01*
X242234849Y-55177212D01*
X242232500Y-56114394D01*
X242229923Y-57001470D01*
X242227118Y-57833350D01*
X242224087Y-58604948D01*
X242220830Y-59311175D01*
X242217348Y-59946943D01*
X242213642Y-60507163D01*
X242209713Y-60986748D01*
X242205561Y-61380610D01*
X242201187Y-61683659D01*
X242196592Y-61890809D01*
X242191777Y-61996970D01*
X242190305Y-62008294D01*
X242031442Y-62476579D01*
X241777916Y-62902694D01*
X241437077Y-63278784D01*
X241016274Y-63596993D01*
X240522855Y-63849464D01*
X240435742Y-63883965D01*
X240117161Y-64005296D01*
X224026907Y-64015479D01*
X222440658Y-64016426D01*
X220958574Y-64017184D01*
X219577194Y-64017739D01*
X218293056Y-64018077D01*
X217102697Y-64018184D01*
X216002657Y-64018046D01*
X214989473Y-64017650D01*
X214059684Y-64016980D01*
X213209828Y-64016024D01*
X212436443Y-64014767D01*
X211736068Y-64013195D01*
X211105240Y-64011295D01*
X210540498Y-64009053D01*
X210038380Y-64006454D01*
X209595425Y-64003486D01*
X209208171Y-64000133D01*
X208873155Y-63996382D01*
X208586916Y-63992219D01*
X208345993Y-63987630D01*
X208146924Y-63982601D01*
X207986247Y-63977119D01*
X207860499Y-63971169D01*
X207766220Y-63964738D01*
X207699948Y-63957810D01*
X207658221Y-63950374D01*
X207655450Y-63949652D01*
X207148616Y-63758147D01*
X206685367Y-63473815D01*
X206369739Y-63197474D01*
X206056055Y-62819277D01*
X205839005Y-62416475D01*
X205707682Y-61968733D01*
X205706083Y-61960381D01*
X205699749Y-61896525D01*
X205693876Y-61772517D01*
X205693326Y-61753587D01*
X207021822Y-61753587D01*
X207184093Y-62016045D01*
X207355235Y-62234520D01*
X207578061Y-62398269D01*
X207634200Y-62428870D01*
X207922036Y-62579237D01*
X223954060Y-62579237D01*
X225546015Y-62579173D01*
X227033689Y-62578969D01*
X228420429Y-62578610D01*
X229709582Y-62578083D01*
X230904492Y-62577371D01*
X232008508Y-62576460D01*
X233024975Y-62575335D01*
X233957240Y-62573981D01*
X234808648Y-62572382D01*
X235582547Y-62570525D01*
X236282283Y-62568393D01*
X236911203Y-62565972D01*
X237472652Y-62563247D01*
X237969977Y-62560203D01*
X238406524Y-62556824D01*
X238785640Y-62553097D01*
X239110672Y-62549006D01*
X239384965Y-62544535D01*
X239611865Y-62539671D01*
X239794721Y-62534397D01*
X239936877Y-62528700D01*
X240041680Y-62522564D01*
X240112477Y-62515973D01*
X240152614Y-62508914D01*
X240159249Y-62506672D01*
X240440600Y-62338168D01*
X240683566Y-62097332D01*
X240805643Y-61913252D01*
X240924364Y-61691313D01*
X240924364Y-54345763D01*
X240924364Y-47000212D01*
X223973093Y-47000212D01*
X207021822Y-47000212D01*
X207021822Y-54376899D01*
X207021822Y-61753587D01*
X205693326Y-61753587D01*
X205688459Y-61585942D01*
X205683489Y-61334389D01*
X205678962Y-61015442D01*
X205674870Y-60626688D01*
X205671206Y-60165714D01*
X205667964Y-59630107D01*
X205665137Y-59017452D01*
X205662720Y-58325336D01*
X205660704Y-57551346D01*
X205659083Y-56693068D01*
X205657852Y-55748089D01*
X205657003Y-54713995D01*
X205656861Y-54376899D01*
X205656529Y-53588372D01*
X205656425Y-52368807D01*
X205656683Y-51052886D01*
X205657296Y-49638196D01*
X205658259Y-48122323D01*
X205659565Y-46502854D01*
X205660537Y-45456920D01*
X207936016Y-45456920D01*
X207955550Y-45460805D01*
X207998333Y-45446731D01*
X208073721Y-45409186D01*
X208191071Y-45342657D01*
X208359738Y-45241634D01*
X208589080Y-45100603D01*
X208888452Y-44914054D01*
X209267210Y-44676475D01*
X209362712Y-44616439D01*
X209678706Y-44417161D01*
X216627542Y-44417161D01*
X216654449Y-44444068D01*
X216681356Y-44417161D01*
X216654449Y-44390254D01*
X216627542Y-44417161D01*
X209678706Y-44417161D01*
X209987367Y-44222507D01*
X210598960Y-43834335D01*
X211215719Y-43440212D01*
X211855869Y-43028429D01*
X212537636Y-42587276D01*
X213279247Y-42105044D01*
X213775424Y-41781383D01*
X213993928Y-41640044D01*
X214190616Y-41515237D01*
X214341293Y-41422174D01*
X214413049Y-41380483D01*
X214496579Y-41342042D01*
X214522118Y-41365142D01*
X214505313Y-41469965D01*
X214500314Y-41493037D01*
X214469960Y-41600053D01*
X214409327Y-41788557D01*
X214325018Y-42038928D01*
X214223635Y-42331542D01*
X214116132Y-42634659D01*
X214009866Y-42936189D01*
X213919794Y-43201956D01*
X213851078Y-43415865D01*
X213808878Y-43561818D01*
X213798357Y-43623719D01*
X213798793Y-43624358D01*
X213856354Y-43607643D01*
X213983344Y-43519113D01*
X214173748Y-43363706D01*
X214421548Y-43146361D01*
X214720727Y-42872017D01*
X214759235Y-42836025D01*
X214972555Y-42637838D01*
X215234201Y-42397112D01*
X215512287Y-42143068D01*
X215774927Y-41904926D01*
X215796086Y-41885842D01*
X216029318Y-41675208D01*
X216317167Y-41414680D01*
X216634700Y-41126859D01*
X216956982Y-40834345D01*
X217249052Y-40568861D01*
X218135764Y-39766635D01*
X219006455Y-38987714D01*
X219846167Y-38245319D01*
X220639946Y-37552675D01*
X221372833Y-36923002D01*
X221376919Y-36919524D01*
X221460020Y-36866880D01*
X221497772Y-36865428D01*
X221492543Y-36896780D01*
X221465142Y-36982482D01*
X221414163Y-37126161D01*
X221338200Y-37331445D01*
X221235847Y-37601963D01*
X221105696Y-37941342D01*
X220946342Y-38353210D01*
X220756379Y-38841196D01*
X220534398Y-39408926D01*
X220278995Y-40060030D01*
X219988762Y-40798134D01*
X219662294Y-41626867D01*
X219298183Y-42549858D01*
X219070846Y-43125635D01*
X218901023Y-43554523D01*
X218739470Y-43960441D01*
X218591435Y-44330356D01*
X218462166Y-44651235D01*
X218356913Y-44910047D01*
X218280923Y-45093757D01*
X218241276Y-45185444D01*
X218177570Y-45333010D01*
X218139290Y-45441908D01*
X218134322Y-45468508D01*
X218187643Y-45481913D01*
X218345695Y-45492776D01*
X218605611Y-45501049D01*
X218964523Y-45506689D01*
X219419564Y-45509649D01*
X219967868Y-45509884D01*
X220592609Y-45507428D01*
X223050897Y-45493432D01*
X223287378Y-44955296D01*
X223406096Y-44681823D01*
X223528351Y-44394718D01*
X223635361Y-44138297D01*
X223679121Y-44030869D01*
X223771644Y-43804711D01*
X223865176Y-43582601D01*
X223939521Y-43412491D01*
X223939737Y-43412013D01*
X223994990Y-43286793D01*
X224082972Y-43083551D01*
X224194601Y-42823440D01*
X224320796Y-42527612D01*
X224432414Y-42264619D01*
X224565536Y-41952882D01*
X224693937Y-41657064D01*
X224808016Y-41398928D01*
X224898170Y-41200240D01*
X224948003Y-41095963D01*
X225004207Y-40985876D01*
X225046996Y-40897510D01*
X225069289Y-40834240D01*
X225064003Y-40799441D01*
X225024056Y-40796489D01*
X224942365Y-40828760D01*
X224811850Y-40899629D01*
X224625427Y-41012472D01*
X224376015Y-41170664D01*
X224056530Y-41377581D01*
X223659892Y-41636600D01*
X223246610Y-41906911D01*
X222866542Y-42153710D01*
X222509880Y-42382116D01*
X222187036Y-42585714D01*
X221908424Y-42758090D01*
X221684458Y-42892829D01*
X221525550Y-42983516D01*
X221442115Y-43023737D01*
X221432388Y-43024479D01*
X221454335Y-42975714D01*
X221528067Y-42854243D01*
X221643666Y-42675544D01*
X221791213Y-42455091D01*
X221889323Y-42311577D01*
X222065580Y-42054627D01*
X222284693Y-41733581D01*
X222529502Y-41373681D01*
X222782842Y-41000169D01*
X223027551Y-40638286D01*
X223092115Y-40542585D01*
X223349955Y-40161721D01*
X223638904Y-39737480D01*
X223936767Y-39302282D01*
X224221350Y-38888546D01*
X224354668Y-38695960D01*
X230628324Y-38695960D01*
X230655490Y-38747197D01*
X230740623Y-38874106D01*
X230876517Y-39066709D01*
X231055968Y-39315026D01*
X231271770Y-39609079D01*
X231516718Y-39938887D01*
X231757013Y-40259202D01*
X232035502Y-40628896D01*
X232303818Y-40985390D01*
X232552451Y-41316025D01*
X232771890Y-41608145D01*
X232952626Y-41849090D01*
X233085149Y-42026204D01*
X233146909Y-42109169D01*
X233281334Y-42278398D01*
X233368691Y-42360401D01*
X233405740Y-42352151D01*
X233405909Y-42351257D01*
X233390297Y-42281402D01*
X233338742Y-42124740D01*
X233255997Y-41894100D01*
X233146818Y-41602310D01*
X233015959Y-41262199D01*
X232868176Y-40886594D01*
X232796263Y-40706528D01*
X232638405Y-40314475D01*
X232490090Y-39948741D01*
X232356914Y-39622926D01*
X232244474Y-39350631D01*
X232158369Y-39145457D01*
X232104195Y-39021005D01*
X232092398Y-38996247D01*
X232061795Y-38923687D01*
X232046157Y-38838707D01*
X232046216Y-38720824D01*
X232062702Y-38549553D01*
X232096347Y-38304410D01*
X232123549Y-38123337D01*
X232178865Y-37766798D01*
X232215955Y-37503934D01*
X232226584Y-37331845D01*
X232202515Y-37247630D01*
X232135513Y-37248389D01*
X232017342Y-37331220D01*
X231839766Y-37493223D01*
X231594550Y-37731498D01*
X231439724Y-37882488D01*
X231199869Y-38116732D01*
X230987377Y-38326475D01*
X230814042Y-38499890D01*
X230691661Y-38625152D01*
X230632029Y-38690436D01*
X230628324Y-38695960D01*
X224354668Y-38695960D01*
X224470461Y-38528690D01*
X224492043Y-38497669D01*
X224713854Y-38177982D01*
X224936831Y-37854784D01*
X225145809Y-37550188D01*
X225325623Y-37286307D01*
X225461108Y-37085253D01*
X225476310Y-37062422D01*
X225786325Y-36595819D01*
X225640442Y-36093778D01*
X225580038Y-35887694D01*
X225497419Y-35608457D01*
X225396093Y-35267730D01*
X225279567Y-34877177D01*
X225151351Y-34448461D01*
X225014954Y-33993244D01*
X224873882Y-33523190D01*
X224731646Y-33049962D01*
X224591753Y-32585223D01*
X224457711Y-32140636D01*
X224333030Y-31727865D01*
X224221217Y-31358572D01*
X224125781Y-31044421D01*
X224050231Y-30797074D01*
X223998075Y-30628195D01*
X223972821Y-30549447D01*
X223971807Y-30546716D01*
X223918479Y-30464815D01*
X223852474Y-30478501D01*
X223762452Y-30590602D01*
X223756033Y-30600530D01*
X223649966Y-30761257D01*
X223526683Y-30938476D01*
X223380990Y-31138760D01*
X223207693Y-31368682D01*
X223001596Y-31634816D01*
X222757504Y-31943734D01*
X222470223Y-32302010D01*
X222134558Y-32716218D01*
X221745313Y-33192930D01*
X221297295Y-33738720D01*
X220785309Y-34360161D01*
X220773418Y-34374573D01*
X220448348Y-34768735D01*
X220133852Y-35150377D01*
X219838886Y-35508608D01*
X219572408Y-35832535D01*
X219343377Y-36111268D01*
X219160750Y-36333914D01*
X219033484Y-36489583D01*
X218995339Y-36536516D01*
X218867880Y-36693006D01*
X218687960Y-36912628D01*
X218471800Y-37175648D01*
X218235620Y-37462331D01*
X217995640Y-37752945D01*
X217972881Y-37780466D01*
X217736630Y-38066593D01*
X217505699Y-38347127D01*
X217295446Y-38603350D01*
X217121228Y-38816544D01*
X216998401Y-38967989D01*
X216987245Y-38981871D01*
X216794567Y-39207016D01*
X216639587Y-39349282D01*
X216506699Y-39419292D01*
X216380298Y-39427667D01*
X216343230Y-39420236D01*
X216256646Y-39368473D01*
X216110768Y-39247089D01*
X215917607Y-39067083D01*
X215689172Y-38839452D01*
X215541750Y-38686249D01*
X215326896Y-38461704D01*
X215136999Y-38267049D01*
X214984519Y-38114748D01*
X214881917Y-38017269D01*
X214842486Y-37986711D01*
X214797184Y-38024794D01*
X214691465Y-38131288D01*
X214536579Y-38294312D01*
X214343776Y-38501981D01*
X214124306Y-38742412D01*
X214065823Y-38807097D01*
X213737705Y-39169401D01*
X213364568Y-39579198D01*
X212963108Y-40018322D01*
X212550018Y-40468606D01*
X212141993Y-40911882D01*
X211755728Y-41329983D01*
X211407918Y-41704743D01*
X211115257Y-42017993D01*
X211111652Y-42021833D01*
X210956133Y-42187936D01*
X210742694Y-42416578D01*
X210486596Y-42691376D01*
X210203097Y-42995950D01*
X209907456Y-43313916D01*
X209658686Y-43581754D01*
X209369918Y-43892479D01*
X209085039Y-44198386D01*
X208818188Y-44484343D01*
X208583500Y-44735215D01*
X208395113Y-44935870D01*
X208276960Y-45060885D01*
X208125677Y-45223536D01*
X208009811Y-45355045D01*
X207944506Y-45437822D01*
X207936016Y-45456920D01*
X205660537Y-45456920D01*
X205660628Y-45358898D01*
X205676483Y-29080296D01*
X205805977Y-28757415D01*
X206040426Y-28283503D01*
X206331665Y-27897752D01*
X206687938Y-27592265D01*
X207117486Y-27359147D01*
X207361315Y-27267589D01*
X207413002Y-27252062D01*
X207472682Y-27238267D01*
X207546668Y-27226104D01*
X207641272Y-27215468D01*
X207762808Y-27206260D01*
X207917588Y-27198376D01*
X208111925Y-27191715D01*
X208352132Y-27186175D01*
X208644523Y-27181653D01*
X208995409Y-27178049D01*
X209411104Y-27175259D01*
X209897920Y-27173182D01*
X210462171Y-27171715D01*
X211110169Y-27170758D01*
X211848227Y-27170207D01*
X212682659Y-27169961D01*
X213407082Y-27169915D01*
X214183886Y-27170145D01*
X214929802Y-27170814D01*
X215637862Y-27171893D01*
X216301094Y-27173350D01*
X216912529Y-27175155D01*
X217465197Y-27177278D01*
X217952128Y-27179689D01*
X218366352Y-27182356D01*
X218700898Y-27185250D01*
X218948797Y-27188340D01*
X219103079Y-27191595D01*
X219156774Y-27194986D01*
X219156780Y-27195020D01*
X219124108Y-27253061D01*
X219035753Y-27373817D01*
X218906207Y-27539817D01*
X218749959Y-27733589D01*
X218581502Y-27937659D01*
X218415325Y-28134558D01*
X218265920Y-28306811D01*
X218147778Y-28436947D01*
X218075390Y-28507493D01*
X218061897Y-28515157D01*
X218000233Y-28515284D01*
X217838495Y-28515681D01*
X217584237Y-28516327D01*
X217245011Y-28517204D01*
X216828370Y-28518291D01*
X216341869Y-28519569D01*
X215793059Y-28521016D01*
X215189494Y-28522615D01*
X214538727Y-28524344D01*
X213848310Y-28526185D01*
X213125798Y-28528116D01*
X212941313Y-28528610D01*
X212088361Y-28530971D01*
X211336394Y-28533299D01*
X210678773Y-28535738D01*
X210108855Y-28538432D01*
X209620001Y-28541525D01*
X209205568Y-28545163D01*
X208858916Y-28549488D01*
X208573405Y-28554646D01*
X208342392Y-28560781D01*
X208159238Y-28568036D01*
X208017300Y-28576557D01*
X207909939Y-28586488D01*
X207830512Y-28597973D01*
X207772380Y-28611157D01*
X207728900Y-28626183D01*
X207694491Y-28642629D01*
X207415095Y-28830306D01*
X207215595Y-29060429D01*
X207150927Y-29172702D01*
X207136458Y-29203459D01*
X207123434Y-29240040D01*
X207111789Y-29287906D01*
X207101461Y-29352516D01*
X207092385Y-29439329D01*
X207084495Y-29553805D01*
X207077729Y-29701404D01*
X207072022Y-29887586D01*
X207067309Y-30117809D01*
X207063526Y-30397534D01*
X207060610Y-30732221D01*
X207058495Y-31127328D01*
X207057117Y-31588316D01*
X207056413Y-32120643D01*
X207056317Y-32729771D01*
X207056766Y-33421158D01*
X207057695Y-34200264D01*
X207059040Y-35072548D01*
X207060737Y-36043471D01*
X207061990Y-36726100D01*
X207075635Y-44079465D01*
X208509591Y-42472466D01*
X208875546Y-42063011D01*
X209264169Y-41629378D01*
X209659153Y-41189678D01*
X210044194Y-40762026D01*
X210402988Y-40364535D01*
X210719231Y-40015318D01*
X210924870Y-39789195D01*
X211241635Y-39441509D01*
X211586370Y-39062656D01*
X211936646Y-38677316D01*
X212270036Y-38310168D01*
X212564111Y-37985890D01*
X212685446Y-37851907D01*
X213140688Y-37352956D01*
X213537401Y-36926691D01*
X213873717Y-36575011D01*
X214147770Y-36299819D01*
X214357693Y-36103015D01*
X214501619Y-35986502D01*
X214539594Y-35963164D01*
X214698790Y-35898361D01*
X214850067Y-35882433D01*
X215006637Y-35922096D01*
X215181708Y-36024065D01*
X215388491Y-36195057D01*
X215640193Y-36441788D01*
X215790160Y-36598997D01*
X216310207Y-37152330D01*
X216482328Y-36961308D01*
X216557285Y-36873139D01*
X216689540Y-36712235D01*
X216869656Y-36490297D01*
X217088192Y-36219027D01*
X217335709Y-35910127D01*
X217602768Y-35575297D01*
X217762912Y-35373808D01*
X218109123Y-34938413D01*
X218511505Y-34433710D01*
X218958544Y-33874069D01*
X219438726Y-33273861D01*
X219940536Y-32647458D01*
X220452461Y-32009230D01*
X220962986Y-31373549D01*
X221460597Y-30754785D01*
X221933780Y-30167309D01*
X222029225Y-30048941D01*
X222244274Y-29783377D01*
X222494509Y-29476039D01*
X222746420Y-29168004D01*
X222935641Y-28937758D01*
X223408051Y-28364710D01*
X223408051Y-27229177D01*
X223407188Y-26847601D01*
X223403972Y-26560711D01*
X223397463Y-26355575D01*
X223386719Y-26219263D01*
X223370800Y-26138841D01*
X223348766Y-26101378D01*
X223325443Y-26093644D01*
X223266598Y-26127371D01*
X223135844Y-26223321D01*
X222942967Y-26373644D01*
X222697751Y-26570490D01*
X222409980Y-26806010D01*
X222089439Y-27072356D01*
X221765818Y-27344809D01*
X221420831Y-27635407D01*
X221097331Y-27904783D01*
X220805503Y-28144693D01*
X220555531Y-28346892D01*
X220357601Y-28503135D01*
X220221897Y-28605178D01*
X220160856Y-28644065D01*
X219966635Y-28668684D01*
X219795764Y-28602677D01*
X219692870Y-28484527D01*
X219649353Y-28378969D01*
X219660156Y-28286020D01*
X219723360Y-28165663D01*
X219784613Y-28083686D01*
X219909262Y-27933360D01*
X220087829Y-27725537D01*
X220310834Y-27471067D01*
X220568795Y-27180800D01*
X220852234Y-26865588D01*
X221040254Y-26658377D01*
X221385514Y-26279072D01*
X221664918Y-25971513D01*
X221885149Y-25727938D01*
X222052894Y-25540586D01*
X222174835Y-25401695D01*
X222257658Y-25303505D01*
X222308048Y-25238253D01*
X222332688Y-25198179D01*
X222338264Y-25175520D01*
X222331460Y-25162516D01*
X222329876Y-25161002D01*
X222265600Y-25144762D01*
X222103558Y-25125442D01*
X221841768Y-25102887D01*
X221478249Y-25076942D01*
X221011018Y-25047454D01*
X220475212Y-25016350D01*
X219890051Y-24983507D01*
X219402973Y-24956005D01*
X219004619Y-24932892D01*
X218685629Y-24913216D01*
X218436643Y-24896023D01*
X218248302Y-24880362D01*
X218111246Y-24865281D01*
X218016115Y-24849825D01*
X217953550Y-24833044D01*
X217914191Y-24813984D01*
X217888679Y-24791693D01*
X217867653Y-24765218D01*
X217855616Y-24749765D01*
X217769615Y-24574577D01*
X217778675Y-24398027D01*
X217858233Y-24271004D01*
X217891323Y-24240937D01*
X217932019Y-24215309D01*
X217990547Y-24192895D01*
X218077130Y-24172469D01*
X218201995Y-24152807D01*
X218375366Y-24132682D01*
X218607468Y-24110870D01*
X218908526Y-24086145D01*
X219288766Y-24057281D01*
X219758411Y-24023054D01*
X220179237Y-23992857D01*
X220718464Y-23953707D01*
X221159857Y-23920141D01*
X221513002Y-23891036D01*
X221787484Y-23865269D01*
X221992888Y-23841720D01*
X222138798Y-23819266D01*
X222234800Y-23796784D01*
X222290478Y-23773153D01*
X222315418Y-23747250D01*
X222317287Y-23742551D01*
X222303081Y-23704212D01*
X222246042Y-23622758D01*
X222142618Y-23494190D01*
X221989254Y-23314507D01*
X221782397Y-23079709D01*
X221518494Y-22785796D01*
X221193990Y-22428768D01*
X220805332Y-22004625D01*
X220348968Y-21509368D01*
X219952245Y-21080339D01*
X219732693Y-20837628D01*
X219538291Y-20612175D01*
X219381498Y-20419285D01*
X219274774Y-20274260D01*
X219231067Y-20194586D01*
X219223137Y-20075116D01*
X219284262Y-19974717D01*
X219339979Y-19922769D01*
X219395396Y-19873007D01*
X219443097Y-19834057D01*
X219491469Y-19811256D01*
X219548898Y-19809939D01*
X219623771Y-19835443D01*
X219724473Y-19893103D01*
X219859391Y-19988256D01*
X220036912Y-20126238D01*
X220265420Y-20312384D01*
X220553303Y-20552032D01*
X220908947Y-20850516D01*
X221255251Y-21141436D01*
X221571010Y-21407313D01*
X221893150Y-21680025D01*
X222201307Y-21942227D01*
X222475117Y-22176575D01*
X222694216Y-22365724D01*
X222757439Y-22420869D01*
X222953877Y-22589828D01*
X223122632Y-22729195D01*
X223246685Y-22825321D01*
X223309016Y-22864556D01*
X223310974Y-22864830D01*
X223367441Y-22822189D01*
X223378250Y-22797563D01*
X223383817Y-22731541D01*
X223391655Y-22568867D01*
X223401395Y-22320482D01*
X223412671Y-21997330D01*
X223425117Y-21610352D01*
X223438365Y-21170492D01*
X223452047Y-20688691D01*
X223464438Y-20227966D01*
X223478663Y-19704105D01*
X223493279Y-19201011D01*
X223507846Y-18731471D01*
X223521927Y-18308271D01*
X223535082Y-17944198D01*
X223546874Y-17652039D01*
X223556863Y-17444580D01*
X223563194Y-17348941D01*
X223596398Y-16972246D01*
X223919280Y-16958330D01*
X224103211Y-16957635D01*
X224247244Y-16970154D01*
G37*
%TD*%
%LPC*%
%LPD*%
M02*
