%TF.GenerationSoftware,KiCad,Pcbnew,9.0.6*%
%TF.CreationDate,2025-12-09T13:46:12+01:00*%
%TF.ProjectId,front,66726f6e-742e-46b6-9963-61645f706362,rev?*%
%TF.SameCoordinates,Original*%
%TF.FileFunction,Copper,L1,Top*%
%TF.FilePolarity,Positive*%
%FSLAX46Y46*%
G04 Gerber Fmt 4.6, Leading zero omitted, Abs format (unit mm)*
G04 Created by KiCad (PCBNEW 9.0.6) date 2025-12-09 13:46:12*
%MOMM*%
%LPD*%
G01*
G04 APERTURE LIST*
G04 APERTURE END LIST*
%TA.AperFunction,NonConductor*%
G36*
X207574643Y-14045185D02*
G01*
X207618513Y-14094046D01*
X208061409Y-14979838D01*
X208074500Y-15035292D01*
X208074500Y-16490829D01*
X208073613Y-16491903D01*
X208074500Y-16501215D01*
X208074500Y-16510829D01*
X208075615Y-16512931D01*
X208078289Y-16515140D01*
X208086996Y-16523058D01*
X208089438Y-16525500D01*
X208089441Y-16525500D01*
X208091640Y-16526411D01*
X208091901Y-16526386D01*
X208091903Y-16526387D01*
X208095348Y-16526058D01*
X208107105Y-16525500D01*
X208120148Y-16525500D01*
X208131883Y-16522579D01*
X218598600Y-15525748D01*
X218604916Y-15525309D01*
X230097859Y-15025617D01*
X230103245Y-15025500D01*
X238589438Y-15025500D01*
X244589438Y-15025500D01*
X251095027Y-15025500D01*
X251103275Y-15025775D01*
X258581001Y-15524289D01*
X258587826Y-15524744D01*
X258587868Y-15524792D01*
X258598459Y-15525453D01*
X258598515Y-15525456D01*
X258608842Y-15526146D01*
X258608842Y-15526145D01*
X258632853Y-15527748D01*
X258633584Y-15527648D01*
X266587922Y-16024794D01*
X266587959Y-16024836D01*
X266598566Y-16025459D01*
X266608951Y-16026109D01*
X266608951Y-16026108D01*
X266633094Y-16027620D01*
X266633745Y-16027529D01*
X275086567Y-16524753D01*
X275088824Y-16524886D01*
X275089438Y-16525500D01*
X275099254Y-16525500D01*
X275109046Y-16526076D01*
X275109046Y-16526075D01*
X275109153Y-16526082D01*
X275110556Y-16525500D01*
X275110562Y-16525500D01*
X275114935Y-16521125D01*
X275120220Y-16516143D01*
X275124836Y-16512041D01*
X275124836Y-16512036D01*
X275125500Y-16510668D01*
X275125500Y-16504389D01*
X275125714Y-16497107D01*
X275126909Y-16476786D01*
X275125500Y-16468415D01*
X275125500Y-14649500D01*
X275145185Y-14582461D01*
X275197989Y-14536706D01*
X275249500Y-14525500D01*
X279581595Y-14525500D01*
X279611669Y-14529202D01*
X281583975Y-15022278D01*
X281599941Y-15027441D01*
X284062037Y-16012279D01*
X284103666Y-16039729D01*
X285574454Y-17510517D01*
X285585973Y-17523798D01*
X287067736Y-19499482D01*
X287083667Y-19527830D01*
X288018134Y-21863997D01*
X288065631Y-21982738D01*
X288074500Y-22028790D01*
X288074500Y-24350500D01*
X288054815Y-24417539D01*
X288002011Y-24463294D01*
X287950500Y-24474500D01*
X286589437Y-24474500D01*
X286574500Y-24489437D01*
X286574500Y-53510563D01*
X289038181Y-55974244D01*
X289071666Y-56035567D01*
X289074500Y-56061925D01*
X289074500Y-61938074D01*
X289054815Y-62005113D01*
X289038181Y-62025755D01*
X287099116Y-63964819D01*
X287084890Y-63979044D01*
X287079149Y-63981916D01*
X287077714Y-63986221D01*
X287074500Y-63989435D01*
X287070845Y-63998258D01*
X287068137Y-64014951D01*
X286582139Y-65472942D01*
X286567676Y-65502513D01*
X285607234Y-66943175D01*
X285553669Y-66988036D01*
X285543272Y-66992029D01*
X284114952Y-67468137D01*
X284075740Y-67474500D01*
X281110468Y-67474500D01*
X281110401Y-67474434D01*
X281099907Y-67474500D01*
X281066346Y-67474500D01*
X281065259Y-67474717D01*
X201615112Y-67974404D01*
X201590014Y-67971998D01*
X199114128Y-67476820D01*
X199099234Y-67472865D01*
X197641543Y-66986968D01*
X197593074Y-66957012D01*
X196635185Y-65999122D01*
X196611957Y-65966895D01*
X196391260Y-65525500D01*
X196364981Y-65472942D01*
X196335378Y-65413736D01*
X196335377Y-65413734D01*
X196309640Y-65362260D01*
X196257119Y-65257218D01*
X196138591Y-65020163D01*
X196133831Y-65000000D01*
X197600000Y-65000000D01*
X198991256Y-65000000D01*
X199058295Y-65019685D01*
X199078937Y-65036319D01*
X199206204Y-65163586D01*
X199400464Y-65304724D01*
X199501543Y-65356226D01*
X199614406Y-65413734D01*
X199614408Y-65413734D01*
X199614411Y-65413736D01*
X199842778Y-65487937D01*
X200079941Y-65525500D01*
X200079942Y-65525500D01*
X200320058Y-65525500D01*
X200320059Y-65525500D01*
X200557222Y-65487937D01*
X200785589Y-65413736D01*
X200999536Y-65304724D01*
X201193796Y-65163586D01*
X201321063Y-65036319D01*
X201382386Y-65002834D01*
X201408744Y-65000000D01*
X226600000Y-65000000D01*
X226600000Y-63879941D01*
X281074500Y-63879941D01*
X281074500Y-64120058D01*
X281112063Y-64357222D01*
X281186265Y-64585593D01*
X281295276Y-64799536D01*
X281436414Y-64993796D01*
X281606204Y-65163586D01*
X281800464Y-65304724D01*
X281901543Y-65356226D01*
X282014406Y-65413734D01*
X282014408Y-65413734D01*
X282014411Y-65413736D01*
X282242778Y-65487937D01*
X282479941Y-65525500D01*
X282479942Y-65525500D01*
X282720058Y-65525500D01*
X282720059Y-65525500D01*
X282957222Y-65487937D01*
X283185589Y-65413736D01*
X283399536Y-65304724D01*
X283593796Y-65163586D01*
X283763586Y-64993796D01*
X283904724Y-64799536D01*
X284013736Y-64585589D01*
X284087937Y-64357222D01*
X284125500Y-64120059D01*
X284125500Y-63879941D01*
X284087937Y-63642778D01*
X284013736Y-63414411D01*
X284013734Y-63414408D01*
X284013734Y-63414406D01*
X283904723Y-63200463D01*
X283763586Y-63006204D01*
X283593796Y-62836414D01*
X283399536Y-62695276D01*
X283185593Y-62586265D01*
X282957222Y-62512063D01*
X282720059Y-62474500D01*
X282479941Y-62474500D01*
X282361359Y-62493281D01*
X282242777Y-62512063D01*
X282014406Y-62586265D01*
X281800463Y-62695276D01*
X281606201Y-62836416D01*
X281436416Y-63006201D01*
X281295276Y-63200463D01*
X281186265Y-63414406D01*
X281112063Y-63642777D01*
X281074500Y-63879941D01*
X226600000Y-63879941D01*
X226600000Y-50000000D01*
X197600000Y-50000000D01*
X197600000Y-65000000D01*
X196133831Y-65000000D01*
X196125500Y-64964709D01*
X196125500Y-64008944D01*
X196126510Y-64007682D01*
X196125500Y-63998592D01*
X196125500Y-63989438D01*
X196125500Y-63989088D01*
X196124178Y-63986686D01*
X196122391Y-63985257D01*
X196112172Y-63976110D01*
X196104986Y-63968924D01*
X196093465Y-63962116D01*
X194640608Y-62799830D01*
X193672038Y-62024974D01*
X193631986Y-61967723D01*
X193625500Y-61928146D01*
X193625500Y-55571852D01*
X193645185Y-55504813D01*
X193672036Y-55475026D01*
X196108944Y-53525500D01*
X196110562Y-53525500D01*
X196117032Y-53519030D01*
X196124177Y-53513314D01*
X196124177Y-53513311D01*
X196125008Y-53512647D01*
X196125500Y-53511625D01*
X196125500Y-53501407D01*
X196126510Y-53492318D01*
X196125500Y-53491055D01*
X196125500Y-39293631D01*
X202119823Y-39293631D01*
X202138027Y-39746358D01*
X202138028Y-39746374D01*
X202138870Y-39753188D01*
X202192503Y-40187408D01*
X202193573Y-40196065D01*
X202193576Y-40196083D01*
X202286072Y-40639613D01*
X202286074Y-40639619D01*
X202414897Y-41074005D01*
X202414911Y-41074044D01*
X202446387Y-41154954D01*
X202579179Y-41496302D01*
X202777777Y-41903565D01*
X203009340Y-42293030D01*
X203272286Y-42662034D01*
X203564815Y-43008055D01*
X203884930Y-43328727D01*
X204011851Y-43436406D01*
X204230432Y-43621850D01*
X204230438Y-43621854D01*
X204230442Y-43621858D01*
X204598988Y-43885445D01*
X204988049Y-44117686D01*
X205187679Y-44215467D01*
X205192131Y-44219930D01*
X205196798Y-44219935D01*
X205198946Y-44220987D01*
X205204915Y-44219944D01*
X205205760Y-44219944D01*
X205207609Y-44220656D01*
X205215730Y-44219956D01*
X209983640Y-44225497D01*
X209989610Y-44226554D01*
X209991760Y-44225506D01*
X209996428Y-44225512D01*
X210006171Y-44221490D01*
X210019514Y-44211989D01*
X210200954Y-44123630D01*
X210590939Y-43892021D01*
X210960436Y-43628954D01*
X211306912Y-43336233D01*
X211627995Y-43015862D01*
X211921484Y-42670037D01*
X212185370Y-42301125D01*
X212417845Y-41911655D01*
X212617316Y-41504294D01*
X212782417Y-41081834D01*
X212912016Y-40647167D01*
X212913603Y-40639613D01*
X213005224Y-40203283D01*
X213005227Y-40203271D01*
X213061409Y-39753188D01*
X213080180Y-39300000D01*
X213071875Y-39099500D01*
X217624500Y-39099500D01*
X217624500Y-39600499D01*
X217663807Y-40099938D01*
X217663807Y-40099939D01*
X217680175Y-40203283D01*
X217742179Y-40594758D01*
X217859132Y-41081904D01*
X217882868Y-41154956D01*
X218013943Y-41558366D01*
X218068546Y-41690188D01*
X218205666Y-42021225D01*
X218433110Y-42467608D01*
X218433115Y-42467616D01*
X218433117Y-42467620D01*
X218433120Y-42467627D01*
X218694869Y-42894761D01*
X218694876Y-42894772D01*
X218989343Y-43300071D01*
X218989353Y-43300085D01*
X219264176Y-43621860D01*
X219314715Y-43681033D01*
X219668967Y-44035285D01*
X219668973Y-44035290D01*
X220049914Y-44360646D01*
X220049921Y-44360651D01*
X220455229Y-44655125D01*
X220579480Y-44731266D01*
X220882372Y-44916879D01*
X220882378Y-44916881D01*
X220882392Y-44916890D01*
X221328775Y-45144334D01*
X221791628Y-45336054D01*
X221791633Y-45336056D01*
X221912782Y-45375419D01*
X222268096Y-45490868D01*
X222755242Y-45607821D01*
X223250062Y-45686193D01*
X223749506Y-45725500D01*
X223749514Y-45725500D01*
X224250486Y-45725500D01*
X224250494Y-45725500D01*
X224749938Y-45686193D01*
X225244758Y-45607821D01*
X225731904Y-45490868D01*
X226208372Y-45336054D01*
X226671225Y-45144334D01*
X227117608Y-44916890D01*
X227117623Y-44916880D01*
X227117627Y-44916879D01*
X227272735Y-44821827D01*
X227544771Y-44655125D01*
X227950079Y-44360651D01*
X228331033Y-44035285D01*
X228685285Y-43681033D01*
X229010651Y-43300079D01*
X229305125Y-42894771D01*
X229546734Y-42500500D01*
X229566879Y-42467627D01*
X229566880Y-42467623D01*
X229566890Y-42467608D01*
X229794334Y-42021225D01*
X229986054Y-41558372D01*
X230140868Y-41081904D01*
X230257821Y-40594758D01*
X230336193Y-40099938D01*
X230375500Y-39600494D01*
X230375500Y-39120259D01*
X234499500Y-39120259D01*
X234499500Y-39479740D01*
X234539746Y-39836935D01*
X234539748Y-39836951D01*
X234619737Y-40187407D01*
X234619741Y-40187419D01*
X234738465Y-40526711D01*
X234894432Y-40850579D01*
X234894434Y-40850582D01*
X235085685Y-41154956D01*
X235309812Y-41436003D01*
X235563997Y-41690188D01*
X235845044Y-41914315D01*
X236149418Y-42105566D01*
X236473292Y-42261536D01*
X236658689Y-42326409D01*
X236812580Y-42380258D01*
X236812592Y-42380262D01*
X237163052Y-42460252D01*
X237520260Y-42500499D01*
X237520261Y-42500500D01*
X237520264Y-42500500D01*
X237879739Y-42500500D01*
X237879739Y-42500499D01*
X238236948Y-42460252D01*
X238587408Y-42380262D01*
X238926708Y-42261536D01*
X239250582Y-42105566D01*
X239554956Y-41914315D01*
X239836003Y-41690188D01*
X239893462Y-41632729D01*
X250074500Y-41632729D01*
X250074500Y-41634190D01*
X250074500Y-42367271D01*
X250074500Y-42367289D01*
X250074501Y-42367291D01*
X250112942Y-43100789D01*
X250112942Y-43100797D01*
X250189723Y-43831329D01*
X250304629Y-44556809D01*
X250304637Y-44556853D01*
X250457348Y-45275302D01*
X250647462Y-45984819D01*
X250647466Y-45984832D01*
X250818873Y-46512366D01*
X250874450Y-46683413D01*
X251137686Y-47369166D01*
X251436450Y-48040203D01*
X251436459Y-48040220D01*
X251769928Y-48694690D01*
X252137190Y-49330807D01*
X252537250Y-49946846D01*
X252537252Y-49946849D01*
X252969000Y-50541101D01*
X252969002Y-50541103D01*
X252969008Y-50541110D01*
X253431270Y-51111956D01*
X253922774Y-51657827D01*
X254442173Y-52177226D01*
X254988044Y-52668730D01*
X254988048Y-52668733D01*
X255558896Y-53130997D01*
X255558898Y-53130999D01*
X256153150Y-53562747D01*
X256153153Y-53562749D01*
X256769192Y-53962809D01*
X257405309Y-54330071D01*
X257405316Y-54330075D01*
X258059797Y-54663550D01*
X258730834Y-54962314D01*
X259416587Y-55225550D01*
X259972934Y-55406318D01*
X260115167Y-55452533D01*
X260115180Y-55452537D01*
X260824697Y-55642651D01*
X261543146Y-55795362D01*
X261543179Y-55795369D01*
X262175999Y-55895598D01*
X262268670Y-55910276D01*
X262268672Y-55910276D01*
X262268677Y-55910277D01*
X262999195Y-55987057D01*
X263732729Y-56025500D01*
X263732748Y-56025500D01*
X264467252Y-56025500D01*
X264467271Y-56025500D01*
X265200805Y-55987057D01*
X265931323Y-55910277D01*
X266656821Y-55795369D01*
X266942911Y-55734558D01*
X267375302Y-55642651D01*
X267375307Y-55642649D01*
X267375310Y-55642649D01*
X268084823Y-55452536D01*
X268783413Y-55225550D01*
X269469166Y-54962314D01*
X270140203Y-54663550D01*
X270794684Y-54330075D01*
X271430816Y-53962804D01*
X272046854Y-53562744D01*
X272390585Y-53313008D01*
X272641101Y-53130999D01*
X272641103Y-53130997D01*
X272641101Y-53130997D01*
X272641110Y-53130992D01*
X273211956Y-52668730D01*
X273757827Y-52177226D01*
X274277226Y-51657827D01*
X274768730Y-51111956D01*
X275230992Y-50541110D01*
X275662744Y-49946854D01*
X276062804Y-49330816D01*
X276430075Y-48694684D01*
X276763550Y-48040203D01*
X277062314Y-47369166D01*
X277325550Y-46683413D01*
X277552536Y-45984823D01*
X277742649Y-45275310D01*
X277895369Y-44556821D01*
X278010277Y-43831323D01*
X278087057Y-43100805D01*
X278125500Y-42367271D01*
X278125500Y-41632729D01*
X278087057Y-40899195D01*
X278010277Y-40168677D01*
X277895369Y-39443179D01*
X277863582Y-39293632D01*
X277742651Y-38724697D01*
X277552537Y-38015180D01*
X277552533Y-38015167D01*
X277466186Y-37749420D01*
X277325550Y-37316587D01*
X277062314Y-36630834D01*
X276763550Y-35959797D01*
X276430075Y-35305316D01*
X276343549Y-35155449D01*
X276062809Y-34669192D01*
X276041106Y-34635773D01*
X275662744Y-34053146D01*
X275230999Y-33458898D01*
X275230997Y-33458896D01*
X275028742Y-33209132D01*
X274768730Y-32888044D01*
X274277226Y-32342173D01*
X273757827Y-31822774D01*
X273211956Y-31331270D01*
X273138544Y-31271822D01*
X272641103Y-30869002D01*
X272641101Y-30869000D01*
X272046849Y-30437252D01*
X272046846Y-30437250D01*
X271430807Y-30037190D01*
X270794690Y-29669928D01*
X270700041Y-29621702D01*
X270140203Y-29336450D01*
X269469166Y-29037686D01*
X268783413Y-28774450D01*
X268612366Y-28718873D01*
X268084832Y-28547466D01*
X268084819Y-28547462D01*
X267375302Y-28357348D01*
X266656853Y-28204637D01*
X266656826Y-28204632D01*
X266656821Y-28204631D01*
X266656813Y-28204629D01*
X266656809Y-28204629D01*
X265931329Y-28089723D01*
X265365842Y-28030289D01*
X265200805Y-28012943D01*
X265200800Y-28012942D01*
X265200793Y-28012942D01*
X264467291Y-27974501D01*
X264467289Y-27974500D01*
X264467271Y-27974500D01*
X263732729Y-27974500D01*
X263732711Y-27974500D01*
X263732708Y-27974501D01*
X262999210Y-28012942D01*
X262999202Y-28012942D01*
X262268670Y-28089723D01*
X261543190Y-28204629D01*
X261543146Y-28204637D01*
X260824697Y-28357348D01*
X260115180Y-28547462D01*
X260115167Y-28547466D01*
X259416590Y-28774449D01*
X259416570Y-28774456D01*
X258730831Y-29037687D01*
X258059801Y-29336448D01*
X258059779Y-29336459D01*
X257405309Y-29669928D01*
X256769192Y-30037190D01*
X256153153Y-30437250D01*
X256153150Y-30437252D01*
X255558898Y-30869000D01*
X255558896Y-30869002D01*
X254988048Y-31331266D01*
X254988040Y-31331273D01*
X254442186Y-31822761D01*
X254442157Y-31822789D01*
X253922789Y-32342157D01*
X253922761Y-32342186D01*
X253431273Y-32888040D01*
X253431266Y-32888048D01*
X252969002Y-33458896D01*
X252969000Y-33458898D01*
X252537252Y-34053150D01*
X252537250Y-34053153D01*
X252137190Y-34669192D01*
X251769928Y-35305309D01*
X251436459Y-35959779D01*
X251436448Y-35959801D01*
X251137687Y-36630831D01*
X250874456Y-37316570D01*
X250874449Y-37316590D01*
X250647466Y-38015167D01*
X250647462Y-38015180D01*
X250457348Y-38724697D01*
X250304637Y-39443146D01*
X250304629Y-39443190D01*
X250189723Y-40168670D01*
X250112942Y-40899202D01*
X250112942Y-40899210D01*
X250103367Y-41081915D01*
X250074500Y-41632729D01*
X239893462Y-41632729D01*
X240090188Y-41436003D01*
X240314315Y-41154956D01*
X240505566Y-40850582D01*
X240661536Y-40526708D01*
X240780262Y-40187408D01*
X240860252Y-39836948D01*
X240900500Y-39479736D01*
X240900500Y-39120264D01*
X240860252Y-38763052D01*
X240780262Y-38412592D01*
X240661536Y-38073292D01*
X240505566Y-37749418D01*
X240314315Y-37445044D01*
X240090188Y-37163997D01*
X239836003Y-36909812D01*
X239554956Y-36685685D01*
X239328645Y-36543484D01*
X239250579Y-36494432D01*
X238926711Y-36338465D01*
X238587419Y-36219741D01*
X238587407Y-36219737D01*
X238236951Y-36139748D01*
X238236935Y-36139746D01*
X237879740Y-36099500D01*
X237879736Y-36099500D01*
X237520264Y-36099500D01*
X237520259Y-36099500D01*
X237163064Y-36139746D01*
X237163048Y-36139748D01*
X236812592Y-36219737D01*
X236812580Y-36219741D01*
X236473288Y-36338465D01*
X236149420Y-36494432D01*
X235845045Y-36685684D01*
X235563997Y-36909811D01*
X235309811Y-37163997D01*
X235085684Y-37445045D01*
X234894432Y-37749420D01*
X234738465Y-38073288D01*
X234619741Y-38412580D01*
X234619737Y-38412592D01*
X234539748Y-38763048D01*
X234539746Y-38763064D01*
X234499500Y-39120259D01*
X230375500Y-39120259D01*
X230375500Y-39099506D01*
X230336193Y-38600062D01*
X230257821Y-38105242D01*
X230140868Y-37618096D01*
X229986054Y-37141628D01*
X229794334Y-36678775D01*
X229566890Y-36232392D01*
X229566881Y-36232378D01*
X229566879Y-36232372D01*
X229380308Y-35927917D01*
X229305125Y-35805229D01*
X229010651Y-35399921D01*
X229010646Y-35399914D01*
X228685290Y-35018973D01*
X228685285Y-35018967D01*
X228331033Y-34664715D01*
X228297146Y-34635773D01*
X227950085Y-34339353D01*
X227950071Y-34339343D01*
X227785132Y-34219507D01*
X227544771Y-34044875D01*
X227513895Y-34025954D01*
X227117627Y-33783120D01*
X227117620Y-33783117D01*
X227117616Y-33783115D01*
X227117608Y-33783110D01*
X226671225Y-33555666D01*
X226519605Y-33492863D01*
X226208366Y-33363943D01*
X225869354Y-33253792D01*
X225731904Y-33209132D01*
X225244758Y-33092179D01*
X225100552Y-33069339D01*
X224749938Y-33013807D01*
X224250499Y-32974500D01*
X224250494Y-32974500D01*
X223749506Y-32974500D01*
X223749500Y-32974500D01*
X223250061Y-33013807D01*
X223250060Y-33013807D01*
X222755247Y-33092178D01*
X222755244Y-33092178D01*
X222755242Y-33092179D01*
X222580783Y-33134062D01*
X222268107Y-33209129D01*
X222268101Y-33209130D01*
X222268096Y-33209132D01*
X222268084Y-33209136D01*
X221791633Y-33363943D01*
X221328777Y-33555665D01*
X221328775Y-33555666D01*
X220882392Y-33783110D01*
X220882388Y-33783112D01*
X220882379Y-33783117D01*
X220882372Y-33783120D01*
X220455238Y-34044869D01*
X220455227Y-34044876D01*
X220049928Y-34339343D01*
X220049914Y-34339353D01*
X219668973Y-34664709D01*
X219668959Y-34664722D01*
X219314722Y-35018959D01*
X219314709Y-35018973D01*
X218989353Y-35399914D01*
X218989343Y-35399928D01*
X218694876Y-35805227D01*
X218694869Y-35805238D01*
X218433120Y-36232372D01*
X218433117Y-36232379D01*
X218433112Y-36232388D01*
X218433110Y-36232392D01*
X218379063Y-36338465D01*
X218205665Y-36678777D01*
X218013943Y-37141633D01*
X217859136Y-37618084D01*
X217859129Y-37618107D01*
X217827604Y-37749418D01*
X217749850Y-38073292D01*
X217742178Y-38105247D01*
X217663807Y-38600060D01*
X217663807Y-38600061D01*
X217624500Y-39099500D01*
X213071875Y-39099500D01*
X213061409Y-38846812D01*
X213005227Y-38396729D01*
X212960822Y-38185259D01*
X212912020Y-37952849D01*
X212912018Y-37952843D01*
X212912016Y-37952833D01*
X212782417Y-37518166D01*
X212617316Y-37095706D01*
X212417845Y-36688345D01*
X212417844Y-36688344D01*
X212417842Y-36688339D01*
X212417840Y-36688336D01*
X212185377Y-36298887D01*
X212185374Y-36298881D01*
X212183534Y-36296309D01*
X211960011Y-35983823D01*
X211921486Y-35929965D01*
X211627999Y-35584143D01*
X211627995Y-35584138D01*
X211626431Y-35582577D01*
X211306925Y-35263779D01*
X211306914Y-35263769D01*
X211305590Y-35262650D01*
X210960436Y-34971046D01*
X210834026Y-34881047D01*
X210590935Y-34707976D01*
X210200961Y-34476373D01*
X210200955Y-34476370D01*
X210024473Y-34390424D01*
X210024468Y-34390422D01*
X210000899Y-34378944D01*
X209996455Y-34374500D01*
X209991775Y-34374500D01*
X209989610Y-34373446D01*
X209983657Y-34374500D01*
X209982862Y-34374500D01*
X209980975Y-34373778D01*
X209972764Y-34374500D01*
X205216343Y-34374500D01*
X205210390Y-34373446D01*
X205208225Y-34374500D01*
X205203545Y-34374500D01*
X205193684Y-34378583D01*
X205180417Y-34388039D01*
X204999253Y-34476256D01*
X204609656Y-34707589D01*
X204609650Y-34707593D01*
X204240502Y-34970316D01*
X204240495Y-34970321D01*
X203894310Y-35262644D01*
X203573438Y-35582583D01*
X203280107Y-35927921D01*
X203016305Y-36296314D01*
X202783839Y-36685236D01*
X202584299Y-37092030D01*
X202419042Y-37513924D01*
X202289205Y-37948025D01*
X202289199Y-37948045D01*
X202195671Y-38391361D01*
X202195667Y-38391389D01*
X202139079Y-38840938D01*
X202119823Y-39293631D01*
X196125500Y-39293631D01*
X196125500Y-26489438D01*
X196125500Y-24489438D01*
X196110562Y-24474500D01*
X194749500Y-24474500D01*
X194682461Y-24454815D01*
X194636706Y-24402011D01*
X194625500Y-24350500D01*
X194625500Y-23579941D01*
X197974500Y-23579941D01*
X197974500Y-23584312D01*
X197974500Y-23820059D01*
X197975030Y-23823406D01*
X198012063Y-24057222D01*
X198086265Y-24285593D01*
X198182519Y-24474500D01*
X198195276Y-24499536D01*
X198336414Y-24693796D01*
X198506204Y-24863586D01*
X198700464Y-25004724D01*
X198801543Y-25056226D01*
X198914406Y-25113734D01*
X198914408Y-25113734D01*
X198914411Y-25113736D01*
X199142778Y-25187937D01*
X199379941Y-25225500D01*
X199379942Y-25225500D01*
X199620058Y-25225500D01*
X199620059Y-25225500D01*
X199857222Y-25187937D01*
X200085589Y-25113736D01*
X200299536Y-25004724D01*
X200493796Y-24863586D01*
X200663586Y-24693796D01*
X200804724Y-24499536D01*
X200913736Y-24285589D01*
X200987937Y-24057222D01*
X201025468Y-23820259D01*
X220799500Y-23820259D01*
X220799500Y-24179740D01*
X220839746Y-24536935D01*
X220839748Y-24536951D01*
X220919737Y-24887407D01*
X220919741Y-24887419D01*
X221038465Y-25226711D01*
X221194432Y-25550579D01*
X221194434Y-25550582D01*
X221385685Y-25854956D01*
X221609812Y-26136003D01*
X221863997Y-26390188D01*
X222145044Y-26614315D01*
X222449418Y-26805566D01*
X222773292Y-26961536D01*
X222958689Y-27026409D01*
X223112580Y-27080258D01*
X223112592Y-27080262D01*
X223463052Y-27160252D01*
X223820260Y-27200499D01*
X223820261Y-27200500D01*
X223820264Y-27200500D01*
X224179739Y-27200500D01*
X224179739Y-27200499D01*
X224536948Y-27160252D01*
X224887408Y-27080262D01*
X225226708Y-26961536D01*
X225550582Y-26805566D01*
X225854956Y-26614315D01*
X226136003Y-26390188D01*
X226390188Y-26136003D01*
X226614315Y-25854956D01*
X226805566Y-25550582D01*
X226961536Y-25226708D01*
X227080262Y-24887408D01*
X227160252Y-24536948D01*
X227200500Y-24179736D01*
X227200500Y-23820264D01*
X227174438Y-23588953D01*
X227174438Y-23588952D01*
X227173423Y-23579941D01*
X281874500Y-23579941D01*
X281874500Y-23584312D01*
X281874500Y-23820059D01*
X281875030Y-23823406D01*
X281912063Y-24057222D01*
X281986265Y-24285593D01*
X282082519Y-24474500D01*
X282095276Y-24499536D01*
X282236414Y-24693796D01*
X282406204Y-24863586D01*
X282600464Y-25004724D01*
X282701543Y-25056226D01*
X282814406Y-25113734D01*
X282814408Y-25113734D01*
X282814411Y-25113736D01*
X283042778Y-25187937D01*
X283279941Y-25225500D01*
X283279942Y-25225500D01*
X283520058Y-25225500D01*
X283520059Y-25225500D01*
X283757222Y-25187937D01*
X283985589Y-25113736D01*
X284199536Y-25004724D01*
X284393796Y-24863586D01*
X284563586Y-24693796D01*
X284704724Y-24499536D01*
X284813736Y-24285589D01*
X284887937Y-24057222D01*
X284925500Y-23820059D01*
X284925500Y-23579941D01*
X284887937Y-23342778D01*
X284813736Y-23114411D01*
X284813734Y-23114408D01*
X284813734Y-23114406D01*
X284704723Y-22900463D01*
X284612325Y-22773288D01*
X284563586Y-22706204D01*
X284393796Y-22536414D01*
X284199536Y-22395276D01*
X283985593Y-22286265D01*
X283757222Y-22212063D01*
X283520059Y-22174500D01*
X283279941Y-22174500D01*
X283261158Y-22177475D01*
X283042777Y-22212063D01*
X282814406Y-22286265D01*
X282600463Y-22395276D01*
X282406201Y-22536416D01*
X282236416Y-22706201D01*
X282095276Y-22900463D01*
X281986265Y-23114406D01*
X281912063Y-23342777D01*
X281893011Y-23463066D01*
X281874500Y-23579941D01*
X227173423Y-23579941D01*
X227160254Y-23463066D01*
X227160251Y-23463048D01*
X227080262Y-23112592D01*
X227080258Y-23112580D01*
X227006035Y-22900463D01*
X226961536Y-22773292D01*
X226805566Y-22449418D01*
X226614315Y-22145044D01*
X226390188Y-21863997D01*
X226136003Y-21609812D01*
X225854956Y-21385685D01*
X225550582Y-21194434D01*
X225550579Y-21194432D01*
X225226711Y-21038465D01*
X224887419Y-20919741D01*
X224887407Y-20919737D01*
X224536951Y-20839748D01*
X224536935Y-20839746D01*
X224179740Y-20799500D01*
X224179736Y-20799500D01*
X223820264Y-20799500D01*
X223820259Y-20799500D01*
X223463064Y-20839746D01*
X223463048Y-20839748D01*
X223112592Y-20919737D01*
X223112580Y-20919741D01*
X222773288Y-21038465D01*
X222449420Y-21194432D01*
X222145045Y-21385684D01*
X221863997Y-21609811D01*
X221609811Y-21863997D01*
X221385684Y-22145045D01*
X221194432Y-22449420D01*
X221038465Y-22773288D01*
X220919741Y-23112580D01*
X220919737Y-23112592D01*
X220839748Y-23463048D01*
X220839746Y-23463064D01*
X220799500Y-23820259D01*
X201025468Y-23820259D01*
X201025500Y-23820059D01*
X201025500Y-23579941D01*
X200987937Y-23342778D01*
X200913736Y-23114411D01*
X200913734Y-23114408D01*
X200913734Y-23114406D01*
X200804723Y-22900463D01*
X200712325Y-22773288D01*
X200663586Y-22706204D01*
X200493796Y-22536414D01*
X200299536Y-22395276D01*
X200085593Y-22286265D01*
X199857222Y-22212063D01*
X199620059Y-22174500D01*
X199379941Y-22174500D01*
X199361158Y-22177475D01*
X199142777Y-22212063D01*
X198914406Y-22286265D01*
X198700463Y-22395276D01*
X198506201Y-22536416D01*
X198336416Y-22706201D01*
X198195276Y-22900463D01*
X198086265Y-23114406D01*
X198012063Y-23342777D01*
X197993011Y-23463066D01*
X197974500Y-23579941D01*
X194625500Y-23579941D01*
X194625500Y-22028790D01*
X194634369Y-21982738D01*
X194666928Y-21901341D01*
X195616333Y-19527825D01*
X195632259Y-19499487D01*
X197114023Y-17523800D01*
X197125542Y-17510520D01*
X198114930Y-16521132D01*
X199093078Y-15542984D01*
X199141542Y-15513031D01*
X202099243Y-14527130D01*
X202114118Y-14523180D01*
X204590483Y-14027908D01*
X204614801Y-14025500D01*
X207507604Y-14025500D01*
X207574643Y-14045185D01*
G37*
%TD.AperFunction*%
M02*
