%TF.GenerationSoftware,KiCad,Pcbnew,9.0.6*%
%TF.CreationDate,2025-12-09T13:46:12+01:00*%
%TF.ProjectId,front,66726f6e-742e-46b6-9963-61645f706362,rev?*%
%TF.SameCoordinates,Original*%
%TF.FileFunction,Profile,NP*%
%FSLAX46Y46*%
G04 Gerber Fmt 4.6, Leading zero omitted, Abs format (unit mm)*
G04 Created by KiCad (PCBNEW 9.0.6) date 2025-12-09 13:46:12*
%MOMM*%
%LPD*%
G01*
G04 APERTURE LIST*
%TA.AperFunction,Profile*%
%ADD10C,0.050000*%
%TD*%
%TA.AperFunction,Profile*%
%ADD11C,0.100000*%
%TD*%
G04 APERTURE END LIST*
D10*
X286600000Y-24500000D02*
X288100000Y-24500000D01*
X193600000Y-62000000D02*
X196100000Y-64000000D01*
X196100000Y-24500000D02*
X196100000Y-26500000D01*
X279600000Y-14500000D02*
X275100000Y-14500000D01*
X218600000Y-15500000D02*
X208100000Y-16500000D01*
X201600000Y-68000000D02*
X281100000Y-67500000D01*
X287100000Y-19500000D02*
X285600000Y-17500000D01*
D11*
X284900000Y-23700000D02*
G75*
G02*
X281900000Y-23700000I-1500000J0D01*
G01*
X281900000Y-23700000D02*
G75*
G02*
X284900000Y-23700000I1500000J0D01*
G01*
D10*
X195600000Y-19500000D02*
X194600000Y-22000000D01*
X205202722Y-44194442D02*
G75*
G02*
X205214104Y-34400000I2397278J4894442D01*
G01*
X196100000Y-65000000D02*
X196600000Y-66000000D01*
X289100000Y-62000000D02*
X289100000Y-56000000D01*
X197600000Y-67000000D02*
X199100000Y-67500000D01*
X230100000Y-15000000D02*
X218600000Y-15500000D01*
X196100000Y-64000000D02*
X196100000Y-65000000D01*
X196100000Y-26500000D02*
X196100000Y-53500000D01*
X286600000Y-65500000D02*
X287100000Y-64000000D01*
X197100000Y-17500000D02*
X195600000Y-19500000D01*
X208100000Y-16500000D02*
X208100000Y-15000000D01*
X194600000Y-24500000D02*
X196100000Y-24500000D01*
X205202723Y-44194442D02*
X209985896Y-44200000D01*
X288100000Y-24500000D02*
X288100000Y-22000000D01*
D11*
X201000000Y-23700000D02*
G75*
G02*
X198000000Y-23700000I-1500000J0D01*
G01*
X198000000Y-23700000D02*
G75*
G02*
X201000000Y-23700000I1500000J0D01*
G01*
D10*
X199100000Y-67500000D02*
X201600000Y-68000000D01*
X275100000Y-14500000D02*
X275100000Y-16500000D01*
X244600000Y-15000000D02*
X238600000Y-15000000D01*
X207600000Y-14000000D02*
X204600000Y-14000000D01*
X196600000Y-66000000D02*
X197600000Y-67000000D01*
X193600000Y-55500000D02*
X193600000Y-62000000D01*
X194600000Y-22000000D02*
X194600000Y-23500000D01*
X205214107Y-34400000D02*
X209985893Y-34400000D01*
X289100000Y-56000000D02*
X286600000Y-53500000D01*
D11*
X201700000Y-64000000D02*
G75*
G02*
X198700000Y-64000000I-1500000J0D01*
G01*
X198700000Y-64000000D02*
G75*
G02*
X201700000Y-64000000I1500000J0D01*
G01*
D10*
X209985896Y-34400000D02*
G75*
G02*
X209985896Y-44200000I-2385896J-4900000D01*
G01*
X281600000Y-15000000D02*
X279600000Y-14500000D01*
X266600000Y-16000000D02*
X258600000Y-15500000D01*
X288100000Y-22000000D02*
X287100000Y-19500000D01*
D11*
X284100000Y-64000000D02*
G75*
G02*
X281100000Y-64000000I-1500000J0D01*
G01*
X281100000Y-64000000D02*
G75*
G02*
X284100000Y-64000000I1500000J0D01*
G01*
D10*
X251100000Y-15000000D02*
X244600000Y-15000000D01*
X208100000Y-15000000D02*
X207600000Y-14000000D01*
X196100000Y-53500000D02*
X193600000Y-55500000D01*
X275100000Y-16500000D02*
X266600000Y-16000000D01*
X285600000Y-67000000D02*
X286600000Y-65500000D01*
X285600000Y-17500000D02*
X284100000Y-16000000D01*
X258600000Y-15500000D02*
X251100000Y-15000000D01*
X284100000Y-67500000D02*
X285600000Y-67000000D01*
D11*
X278100000Y-42000000D02*
G75*
G02*
X250100000Y-42000000I-14000000J0D01*
G01*
X250100000Y-42000000D02*
G75*
G02*
X278100000Y-42000000I14000000J0D01*
G01*
X240875000Y-39300000D02*
G75*
G02*
X234525000Y-39300000I-3175000J0D01*
G01*
X234525000Y-39300000D02*
G75*
G02*
X240875000Y-39300000I3175000J0D01*
G01*
D10*
X287100000Y-64000000D02*
X289100000Y-62000000D01*
X286600000Y-53500000D02*
X286600000Y-24500000D01*
X202100000Y-14500000D02*
X199100000Y-15500000D01*
X230350000Y-39350000D02*
G75*
G02*
X217650000Y-39350000I-6350000J0D01*
G01*
X217650000Y-39350000D02*
G75*
G02*
X230350000Y-39350000I6350000J0D01*
G01*
X281100000Y-67500000D02*
X284100000Y-67500000D01*
X238600000Y-15000000D02*
X230100000Y-15000000D01*
X204600000Y-14000000D02*
X202100000Y-14500000D01*
X199100000Y-15500000D02*
X197100000Y-17500000D01*
D11*
X227175000Y-24000000D02*
G75*
G02*
X220825000Y-24000000I-3175000J0D01*
G01*
X220825000Y-24000000D02*
G75*
G02*
X227175000Y-24000000I3175000J0D01*
G01*
D10*
X194600000Y-23500000D02*
X194600000Y-24500000D01*
X284100000Y-16000000D02*
X281600000Y-15000000D01*
M02*
